<svg width="40" height="40" viewBox="0 0 40 40" fill="none" xmlns="http://www.w3.org/2000/svg">
<path d="M29.3333 4H10.6667C9.20003 4 8 5.19983 8 6.66639V34.6635C8 35.1301 8.23999 35.5567 8.62663 35.7967C9.02669 36.0366 9.52002 36.0633 9.93335 35.8501L14.6667 33.4903L19.4 35.8501C19.7734 36.05 20.2266 36.05 20.6 35.8501L25.3333 33.4903L30.0667 35.8501C30.2533 35.9433 30.4666 35.9967 30.6667 35.9967C30.9067 35.9967 31.16 35.93 31.3734 35.7967C31.76 35.5567 32 35.1301 32 34.6635V6.66639C32 5.19983 30.8 4 29.3333 4ZM25.3333 22.6647H14.6667C13.9333 22.6647 13.3333 22.0648 13.3333 21.3315C13.3333 20.5983 13.9333 19.9983 14.6667 19.9983H25.3333C26.0667 19.9983 26.6667 20.5983 26.6667 21.3315C26.6667 22.0648 26.0667 22.6647 25.3333 22.6647ZM25.3333 17.332H14.6667C13.9333 17.332 13.3333 16.732 13.3333 15.9988C13.3333 15.2655 13.9333 14.6656 14.6667 14.6656H25.3333C26.0667 14.6656 26.6667 15.2655 26.6667 15.9988C26.6667 16.732 26.0667 17.332 25.3333 17.332ZM25.3333 11.9992H14.6667C13.9333 11.9992 13.3333 11.3992 13.3333 10.666C13.3333 9.93273 13.9333 9.33278 14.6667 9.33278H25.3333C26.0667 9.33278 26.6667 9.93273 26.6667 10.666C26.6667 11.3992 26.0667 11.9992 25.3333 11.9992Z" fill="black"/>
</svg>
