<svg width="40" height="40" viewBox="0 0 40 40" fill="none" xmlns="http://www.w3.org/2000/svg">
<path d="M35.374 12.5667H35.0124V12.2C35.0124 9.97509 33.1607 8.16669 30.8858 8.16669H6.12655C3.85169 8.16669 2 9.97509 2 12.2V26.1334C2 28.3583 3.85169 30.1667 6.12655 30.1667H30.8858C33.1607 30.1667 35.0124 28.3583 35.0124 26.1334V25.7667H35.374C36.8221 25.7667 38 24.6154 38 23.2V15.1334C38 13.718 36.8221 12.5667 35.374 12.5667ZM22.8833 18.096L17.6374 26.1612C17.4978 26.3768 17.2562 26.5 17.0056 26.5C16.9201 26.5 16.8346 26.4854 16.752 26.4575C16.4219 26.3402 16.2178 26.016 16.2613 25.6758L16.9066 20.6334L14.7488 20.6304C14.4667 20.6304 14.2101 20.4764 14.0825 20.233C13.955 19.988 13.976 19.6947 14.1396 19.4703L19.5056 12.1384C19.7081 11.8627 20.0818 11.76 20.4029 11.8876C20.7255 12.0182 20.9131 12.3482 20.8576 12.684L20.1388 16.9667L22.2516 16.9696C22.5262 16.9696 22.7768 17.1163 22.9088 17.351C23.0394 17.5842 23.0304 17.8702 22.8833 18.096Z" fill="black"/>
</svg>
