<svg width="40" height="40" viewBox="0 0 40 40" fill="none" xmlns="http://www.w3.org/2000/svg">
<path fill-rule="evenodd" clip-rule="evenodd" d="M18.9333 6.17387C12.1301 6.69227 6.69227 12.1301 6.17387 18.9333H5.06667C4.47787 18.9333 4 19.4112 4 20C4 20.5888 4.47787 21.0667 5.06667 21.0667H6.17387C6.69227 27.8699 12.1301 33.3077 18.9333 33.8261V34.9333C18.9333 35.5221 19.4112 36 20 36C20.5888 36 21.0667 35.5221 21.0667 34.9333V33.8261C27.8699 33.3077 33.3077 27.8699 33.8261 21.0667H34.9333C35.5221 21.0667 36 20.5888 36 20C36 19.4112 35.5221 18.9333 34.9333 18.9333H33.8261C33.3077 12.1301 27.8699 6.69227 21.0667 6.17387V5.06667C21.0667 4.47787 20.5888 4 20 4C19.4112 4 18.9333 4.47787 18.9333 5.06667V6.17387ZM21.0667 8.31467V9.33333C21.0667 9.92213 20.5888 10.4 20 10.4C19.4112 10.4 18.9333 9.92213 18.9333 9.33333V8.31467C13.3077 8.8224 8.8224 13.3077 8.31467 18.9333H9.33333C9.92213 18.9333 10.4 19.4112 10.4 20C10.4 20.5888 9.92213 21.0667 9.33333 21.0667H8.31467C8.8224 26.6923 13.3077 31.1776 18.9333 31.6853V30.6667C18.9333 30.0779 19.4112 29.6 20 29.6C20.5888 29.6 21.0667 30.0779 21.0667 30.6667V31.6853C26.6923 31.1776 31.1776 26.6923 31.6853 21.0667H30.6667C30.0779 21.0667 29.6 20.5888 29.6 20C29.6 19.4112 30.0779 18.9333 30.6667 18.9333H31.6853C31.1776 13.3077 26.6923 8.8224 21.0667 8.31467ZM20 12.5333C15.8795 12.5333 12.5333 15.8795 12.5333 20C12.5333 24.1205 15.8795 27.4667 20 27.4667C24.1205 27.4667 27.4667 24.1205 27.4667 20C27.4667 15.8795 24.1205 12.5333 20 12.5333Z" fill="black"/>
</svg>
