<svg width="40" height="40" viewBox="0 0 40 40" fill="none" xmlns="http://www.w3.org/2000/svg">
<rect x="11" y="10" width="17" height="16" rx="8" fill="white"/>
<path fill-rule="evenodd" clip-rule="evenodd" d="M20.0031 6C23.0203 6.00455 25.9122 7.18646 28.0441 9.28613C30.1762 11.3861 31.3742 14.2327 31.3742 17.2002C31.4107 20.799 30.3454 24.3254 28.3176 27.3213C26.2898 30.3172 23.393 32.6443 20.0031 34C16.612 32.6452 13.7137 30.3183 11.6848 27.3223C9.65588 24.3263 8.59014 20.7997 8.62617 17.2002C8.62617 14.2317 9.82396 11.3843 11.9572 9.28418C14.0905 7.18412 16.9847 6.00297 20.0031 6ZM20.0002 12C16.1342 12 13.0002 15.134 13.0002 19C13.0002 22.866 16.1342 26 20.0002 26C23.8661 25.9999 27.0002 22.8659 27.0002 19C27.0002 15.1341 23.8661 12.0001 20.0002 12ZM20.0002 18.1865C20.2698 18.1867 20.4885 18.4052 20.4885 18.6748V21.9307C20.4882 22.2001 20.2697 22.4188 20.0002 22.4189C19.7306 22.4189 19.5121 22.2002 19.5119 21.9307V18.6748C19.5119 18.4051 19.7305 18.1865 20.0002 18.1865ZM19.6438 15.7422C19.8242 15.542 20.1328 15.5257 20.3332 15.7061C20.5337 15.8865 20.5497 16.195 20.3693 16.3955L20.3625 16.4033C20.182 16.6035 19.8734 16.6198 19.673 16.4395C19.4727 16.2591 19.4567 15.9505 19.6369 15.75L19.6438 15.7422Z" fill="black"/>
</svg>
