<svg width="40" height="40" viewBox="0 0 40 40" fill="none" xmlns="http://www.w3.org/2000/svg">
<path d="M35.2381 5C35.036 5 34.8422 5.07902 34.6993 5.21967C34.5565 5.36032 34.4762 5.55109 34.4762 5.75V6.5H32.9524C32.9524 6.10218 32.7918 5.72064 32.5061 5.43934C32.2203 5.15804 31.8327 5 31.4286 5H8.57143C8.16729 5 7.7797 5.15804 7.49393 5.43934C7.20816 5.72064 7.04762 6.10218 7.04762 6.5H5.52381V5.75C5.52381 5.55109 5.44354 5.36032 5.30065 5.21967C5.15777 5.07902 4.96397 5 4.7619 5C4.55984 5 4.36604 5.07902 4.22316 5.21967C4.08027 5.36032 4 5.55109 4 5.75V8.75C4 8.94891 4.08027 9.13968 4.22316 9.28033C4.36604 9.42098 4.55984 9.5 4.7619 9.5C4.96397 9.5 5.15777 9.42098 5.30065 9.28033C5.44354 9.13968 5.52381 8.94891 5.52381 8.75V8H7.04762C7.04762 8.39782 7.20816 8.77936 7.49393 9.06066C7.7797 9.34196 8.16729 9.5 8.57143 9.5V27.8045C8.57106 28.4574 8.39802 29.0989 8.06933 29.666L5.95048 33.317C5.85124 33.488 5.79935 33.6817 5.79999 33.8786C5.80064 34.0756 5.85379 34.2689 5.95414 34.4393C6.05449 34.6096 6.19852 34.7511 6.37182 34.8495C6.54513 34.9479 6.74164 34.9998 6.94171 35H33.0583C33.2583 34.9997 33.4547 34.9477 33.6279 34.8492C33.8011 34.7508 33.945 34.6093 34.0453 34.4389C34.1456 34.2686 34.1986 34.0753 34.1992 33.8784C34.1999 33.6815 34.148 33.488 34.0488 33.317L31.9299 29.666C31.6015 29.0989 31.4287 28.4573 31.4286 27.8045V9.5C31.8327 9.5 32.2203 9.34196 32.5061 9.06066C32.7918 8.77936 32.9524 8.39782 32.9524 8H34.4762V8.75C34.4762 8.94891 34.5565 9.13968 34.6993 9.28033C34.8422 9.42098 35.036 9.5 35.2381 9.5C35.4402 9.5 35.634 9.42098 35.7768 9.28033C35.9197 9.13968 36 8.94891 36 8.75V5.75C36 5.55109 35.9197 5.36032 35.7768 5.21967C35.634 5.07902 35.4402 5 35.2381 5ZM15.4286 11.75C15.4286 11.5511 15.5088 11.3603 15.6517 11.2197C15.7946 11.079 15.9884 11 16.1905 11H23.8095C24.0116 11 24.2054 11.079 24.3483 11.2197C24.4912 11.3603 24.5714 11.5511 24.5714 11.75C24.5714 11.9489 24.4912 12.1397 24.3483 12.2803C24.2054 12.421 24.0116 12.5 23.8095 12.5H16.1905C15.9884 12.5 15.7946 12.421 15.6517 12.2803C15.5088 12.1397 15.4286 11.9489 15.4286 11.75ZM8.57143 8V6.5H31.4286V8H8.57143Z" fill="black"/>
</svg>
