<svg width="40" height="40" viewBox="0 0 40 40" fill="none" xmlns="http://www.w3.org/2000/svg">
<rect x="11" y="10" width="17" height="16" rx="8" fill="white"/>
<path d="M20.0032 6C23.0204 6.00455 25.9123 7.18646 28.0442 9.28613C30.1763 11.3861 31.3743 14.2327 31.3743 17.2002C31.4108 20.799 30.3455 24.3254 28.3177 27.3213C26.2899 30.3172 23.3931 32.6443 20.0032 34C16.6121 32.6452 13.7138 30.3183 11.6849 27.3223C9.65598 24.3263 8.59024 20.7997 8.62627 17.2002C8.62627 14.2317 9.82406 11.3843 11.9573 9.28418C14.0906 7.18412 16.9848 6.00297 20.0032 6ZM13.0003 17.0312H15.4632V24.6729C15.4632 24.8535 15.6183 25 15.8108 25H18.6673C18.7914 25 18.9072 24.9374 18.969 24.8359L20.4271 22.4424L19.8235 22.1172L18.4661 24.3457H16.1585V16.7041C16.1583 16.5236 16.0023 16.377 15.8108 16.377H13.0003V17.0312ZM24.0999 15C23.4053 15.0002 22.6634 15.4159 22.3538 15.9912L19.2659 21.0615L21.6761 22.3633L23.7991 18.8779C23.8609 18.7765 23.9759 18.714 24.0999 18.7139H27.0003V15.0098L24.0999 15Z" fill="black"/>
</svg>
