<svg width="40" height="40" viewBox="0 0 40 40" fill="none" xmlns="http://www.w3.org/2000/svg">
<path d="M23.5253 16.4728C23.1462 16.0915 22.7259 15.7535 22.2721 15.465C21.0701 14.6954 19.6728 14.2865 18.2455 14.2865C16.2645 14.2828 14.364 15.0698 12.9656 16.4728L6.18182 23.2609C4.78585 24.6594 4.00125 26.5541 4 28.5299C3.99738 32.6529 7.33803 35.9973 11.4617 36C13.4396 36.0068 15.3384 35.2236 16.7362 33.8243L22.3361 28.2253C22.4378 28.1245 22.4946 27.9869 22.4938 27.8437C22.4921 27.5492 22.2519 27.3118 21.9574 27.3135H21.7441C20.5741 27.3176 19.4146 27.093 18.3309 26.6523C18.1312 26.5701 17.9017 26.6165 17.7496 26.7696L13.723 30.8009C12.4726 32.051 10.4454 32.051 9.19511 30.8009C7.94477 29.5507 7.94477 27.5238 9.19511 26.2737L16.0056 19.4696C17.2549 18.222 19.2788 18.222 20.5282 19.4696C21.3701 20.2619 22.6835 20.2619 23.5254 19.4696C23.8876 19.1071 24.1073 18.6263 24.1441 18.1151C24.183 17.5043 23.9577 16.9061 23.5253 16.4728Z" fill="black"/>
<path d="M33.813 6.18666C30.8971 3.27111 26.1693 3.27111 23.2533 6.18666L17.6588 11.775C17.5052 11.9293 17.4609 12.1615 17.5468 12.3616C17.6317 12.5622 17.8302 12.691 18.0481 12.6868H18.2454C19.414 12.6847 20.5717 12.9111 21.6533 13.3534C21.853 13.4355 22.0825 13.3892 22.2346 13.2361L26.2505 9.22611C27.5008 7.97596 29.528 7.97596 30.7784 9.22611C32.0287 10.4763 32.0287 12.5032 30.7784 13.7533L25.7758 18.7497L25.7331 18.7977L23.9839 20.5361C22.7345 21.7837 20.7107 21.7837 19.4613 20.5361C18.6193 19.7438 17.306 19.7438 16.4641 20.5361C16.0995 20.9013 15.8797 21.3863 15.8454 21.9012C15.8064 22.512 16.0317 23.1102 16.4641 23.5436C17.0814 24.1634 17.8036 24.6689 18.5973 25.0366C18.7093 25.0899 18.8213 25.1326 18.9333 25.1806C19.0453 25.2286 19.1626 25.2659 19.2746 25.3085C19.3866 25.3512 19.5039 25.3885 19.6159 25.4205L19.9306 25.5058C20.1439 25.5591 20.3573 25.6018 20.5759 25.6391C20.8393 25.6782 21.1045 25.7032 21.3706 25.7138H21.7759L22.0959 25.6765C22.2132 25.6712 22.3359 25.6445 22.4745 25.6445H22.6559L23.0238 25.5912L23.1945 25.5592L23.5038 25.4952H23.5625C24.8725 25.1662 26.0688 24.488 27.0237 23.5329L33.8128 16.7448C36.729 13.8292 36.729 9.1022 33.813 6.18666Z" fill="black"/>
</svg>
