<svg width="40" height="40" viewBox="0 0 40 40" fill="none" xmlns="http://www.w3.org/2000/svg">
<path fill-rule="evenodd" clip-rule="evenodd" d="M4 20C4 11.1634 11.1634 4 20 4C28.8366 4 36 11.1634 36 20C36 28.8366 28.8366 36 20 36C11.1634 36 4 28.8366 4 20ZM20 18.1395C20.6165 18.1395 21.1163 18.6393 21.1163 19.2558V26.6977C21.1163 27.3142 20.6165 27.814 20 27.814C19.3835 27.814 18.8837 27.3142 18.8837 26.6977V19.2558C18.8837 18.6393 19.3835 18.1395 20 18.1395ZM20.8447 14.0476C21.2571 13.5894 21.2199 12.8836 20.7616 12.4712C20.3033 12.0587 19.5975 12.0959 19.1851 12.5541L19.1702 12.5707C18.7578 13.0289 18.795 13.7347 19.2533 14.1471C19.7116 14.5596 20.4173 14.5224 20.8298 14.0642L20.8447 14.0476Z" fill="black"/>
</svg>
