<svg width="40" height="40" viewBox="0 0 40 40" fill="none" xmlns="http://www.w3.org/2000/svg">
<path d="M20.0756 32C22.1403 32 23.814 30.3319 23.814 28.2743C23.814 26.2167 22.1403 24.5486 20.0756 24.5486C18.0109 24.5486 16.3372 26.2167 16.3372 28.2743C16.3372 30.3319 18.0109 32 20.0756 32Z" fill="#030104"/>
<path d="M29.0102 19.2979C28.9547 19.2411 28.8961 19.1904 28.8391 19.1382L28.6711 18.98C28.6434 18.9508 28.6126 18.9293 28.5771 18.9017C23.7431 14.5249 16.3449 14.6984 11.7313 19.2964L11.1904 19.837L10.4415 20.5833C9.5292 21.4925 9.53383 22.9745 10.4476 23.8852C11.363 24.7989 12.85 24.8005 13.7607 23.8913L15.052 22.6044C17.9861 19.6819 22.7584 19.6819 25.6909 22.6028L26.6232 23.5028C27.5262 24.4027 28.9994 24.4012 29.907 23.4951C30.3462 23.0589 30.5881 22.4769 30.5896 21.858C30.5912 21.2422 30.3523 20.6601 29.9132 20.2255L29.0102 19.2979Z" fill="#030104"/>
<path d="M35.379 14.6922L34.6023 13.9182C34.5993 13.9152 34.5977 13.9106 34.5915 13.909L33.9782 13.2947C33.8704 13.1888 33.7533 13.0966 33.63 13.0168C25.751 6.12284 13.7669 6.33477 6.13907 13.6479C6.10209 13.6817 6.06048 13.7048 6.0235 13.7416L4.62121 15.1407C3.78909 15.9684 3.79371 17.3153 4.63046 18.1492C5.46567 18.9816 6.8171 18.9877 7.64922 18.1569L9.05151 16.7609C9.06075 16.7486 9.06846 16.7378 9.0777 16.7302C15.2462 10.7915 25.0314 10.7546 31.2492 16.6088L32.3525 17.71C33.1831 18.5377 34.5376 18.5347 35.3728 17.7023C36.2065 16.8684 36.2096 15.52 35.379 14.6922Z" fill="#030104"/>
</svg>
