<svg width="40" height="40" viewBox="0 0 40 40" fill="none" xmlns="http://www.w3.org/2000/svg">
<rect x="15" y="12" width="11" height="16" fill="white"/>
<path d="M20.003 6C23.0204 6.0045 25.913 7.18625 28.045 9.28613C30.177 11.386 31.3741 14.2327 31.3741 17.2002C31.4106 20.799 30.3453 24.3254 28.3175 27.3213C26.2896 30.3172 23.393 32.6444 20.003 34C16.6119 32.6452 13.7136 30.3183 11.6847 27.3223C9.65581 24.3263 8.59004 20.7996 8.62607 17.2002C8.62607 14.2317 9.8239 11.3843 11.9571 9.28418C14.0904 7.18409 16.9846 6.00297 20.003 6ZM18.253 13C18.0663 12.9999 17.8841 13.0546 17.7325 13.1562C17.5809 13.258 17.4673 13.4022 17.4083 13.5674L14.796 20.8652C14.7513 20.9899 14.7386 21.123 14.7599 21.2529C14.7811 21.3827 14.8357 21.5058 14.9181 21.6123C15.0005 21.7189 15.1089 21.8063 15.2345 21.8662C15.3601 21.9261 15.4996 21.9571 15.6407 21.957H18.755L17.7931 25.9883C17.7473 26.1697 17.77 26.3602 17.8565 26.5283C17.9431 26.6965 18.0889 26.8317 18.2696 26.9121C18.3936 26.9692 18.5297 26.9996 18.6681 27C18.7978 26.9996 18.9259 26.9727 19.0431 26.9209C19.1603 26.8689 19.2645 26.7928 19.3468 26.6992L25.044 20.3311C25.1522 20.21 25.2207 20.0624 25.2423 19.9062C25.2638 19.7502 25.2377 19.5917 25.1661 19.4492C25.0943 19.3065 24.9798 19.1851 24.837 19.1006C24.6943 19.0162 24.5285 18.9717 24.3595 18.9717H21.6681L23.961 14.166C24.0213 14.0398 24.0469 13.9014 24.0352 13.7637C24.0235 13.6259 23.9745 13.4928 23.8936 13.377C23.8129 13.2614 23.7025 13.1664 23.5724 13.1006C23.4419 13.0347 23.295 12.9999 23.1466 13H18.253Z" fill="black"/>
</svg>
