<svg width="40" height="40" viewBox="0 0 40 40" fill="none" xmlns="http://www.w3.org/2000/svg">
<path d="M29.7255 4.54887V10.25H35.4485L29.7255 4.54887Z" fill="black"/>
<path d="M28.7843 12.125C28.2645 12.125 27.8431 11.7053 27.8431 11.1875V4H14.3529C12.796 4 11.5294 5.26169 11.5294 6.8125V17.2931C11.8395 17.2651 12.1533 17.25 12.4706 17.25C15.6786 17.25 18.5504 18.711 20.4509 21H30.6667C31.1864 21 31.6078 21.4198 31.6078 21.9375C31.6078 22.4552 31.1864 22.875 30.6667 22.875H21.6909C22.2792 24.0185 22.6585 25.2853 22.7803 26.625H30.6667C31.1864 26.625 31.6078 27.0448 31.6078 27.5625C31.6078 28.0802 31.1864 28.5 30.6667 28.5H22.7803C22.4988 31.5962 20.8381 34.3016 18.4162 36H33.1765C34.7334 36 36 34.7383 36 33.1875V12.125H28.7843ZM30.6667 17.25H16.8627C16.343 17.25 15.9216 16.8302 15.9216 16.3125C15.9216 15.7948 16.343 15.375 16.8627 15.375H30.6667C31.1864 15.375 31.6078 15.7948 31.6078 16.3125C31.6078 16.8302 31.1864 17.25 30.6667 17.25Z" fill="black"/>
<path d="M12.4706 19.125C7.79991 19.125 4 22.9101 4 27.5625C4 32.2149 7.79991 36 12.4706 36C17.1413 36 20.9412 32.2149 20.9412 27.5625C20.9412 22.9101 17.1413 19.125 12.4706 19.125ZM14.9804 28.5H12.4706C11.9508 28.5 11.5294 28.0802 11.5294 27.5625V23.8125C11.5294 23.2948 11.9508 22.875 12.4706 22.875C12.9904 22.875 13.4118 23.2948 13.4118 23.8125V26.625H14.9804C15.5002 26.625 15.9216 27.0448 15.9216 27.5625C15.9216 28.0802 15.5002 28.5 14.9804 28.5Z" fill="black"/>
</svg>
