<svg width="40" height="40" viewBox="0 0 40 40" fill="none" xmlns="http://www.w3.org/2000/svg">
<path d="M35.8567 17.1987C36.4661 17.0174 37.0022 16.6467 37.3875 16.1401C37.7727 15.6335 37.9872 15.0174 38 14.3806V9.93548C37.9956 9.1583 37.6855 8.41421 37.1369 7.86465C36.5883 7.31509 35.8456 7.0044 35.0698 7H4.93023C4.15444 7.0044 3.41168 7.31509 2.8631 7.86465C2.31453 8.41421 2.0044 9.1583 2 9.93548V14.3806C2.01276 15.0174 2.22727 15.6335 2.61253 16.1401C2.9978 16.6467 3.53386 17.0174 4.14326 17.1987C4.73885 17.3856 5.25932 17.7581 5.62885 18.262C5.99837 18.7658 6.19765 19.3748 6.19765 20C6.19765 20.6252 5.99837 21.2342 5.62885 21.738C5.25932 22.2419 4.73885 22.6144 4.14326 22.8013C3.53386 22.9826 2.9978 23.3533 2.61253 23.8599C2.22727 24.3665 2.01276 24.9826 2 25.6194V30.0645C2.0044 30.8417 2.31453 31.5858 2.8631 32.1354C3.41168 32.6849 4.15444 32.9956 4.93023 33H35.0698C35.8456 32.9956 36.5883 32.6849 37.1369 32.1354C37.6855 31.5858 37.9956 30.8417 38 30.0645V25.6194C37.9872 24.9826 37.7727 24.3665 37.3875 23.8599C37.0022 23.3533 36.4661 22.9826 35.8567 22.8013C35.2612 22.6144 34.7407 22.2419 34.3712 21.738C34.0016 21.2342 33.8023 20.6252 33.8023 20C33.8023 19.3748 34.0016 18.7658 34.3712 18.262C34.7407 17.7581 35.2612 17.3856 35.8567 17.1987ZM25.4586 19.0606L23.1646 20.9058C23.069 20.9817 22.9986 21.0848 22.9627 21.2016C22.9269 21.3184 22.9272 21.4434 22.9637 21.56L24.0186 25.0323C24.0522 25.1555 24.047 25.2862 24.0038 25.4064C23.9605 25.5266 23.8813 25.6305 23.7768 25.7039C23.6724 25.7773 23.548 25.8166 23.4204 25.8165C23.2929 25.8164 23.1685 25.7768 23.0642 25.7032L20.3684 23.6568C20.2598 23.5825 20.1314 23.5428 20 23.5428C19.8686 23.5428 19.7402 23.5825 19.6316 23.6568L16.9358 25.7032C16.8315 25.7768 16.7071 25.8164 16.5796 25.8165C16.452 25.8166 16.3276 25.7773 16.2231 25.7039C16.1187 25.6305 16.0395 25.5266 15.9962 25.4064C15.953 25.2862 15.9478 25.1555 15.9814 25.0323L17.0363 21.5097C17.0728 21.3931 17.0731 21.2681 17.0373 21.1513C17.0014 21.0345 16.931 20.9314 16.8353 20.8555L14.5414 19.0103C14.4533 18.9259 14.3928 18.8166 14.3679 18.697C14.343 18.5774 14.355 18.453 14.4021 18.3404C14.4493 18.2277 14.5295 18.132 14.6321 18.0659C14.7347 17.9999 14.8548 17.9665 14.9767 17.9703H17.6223C17.7404 17.9698 17.8557 17.9345 17.9539 17.8689C18.0521 17.8033 18.129 17.7102 18.1749 17.6013L19.5144 14.4981C19.5613 14.3903 19.6386 14.2986 19.7367 14.2342C19.8349 14.1698 19.9496 14.1355 20.067 14.1355C20.1843 14.1355 20.2991 14.1698 20.3972 14.2342C20.4954 14.2986 20.5726 14.3903 20.6195 14.4981L21.9591 17.6013C22.005 17.7102 22.0818 17.8033 22.18 17.8689C22.2783 17.9345 22.3936 17.9698 22.5116 17.9703H25.0233C25.1572 17.9508 25.2938 17.977 25.4111 18.0447C25.5284 18.1124 25.6196 18.2177 25.6698 18.3436C25.7201 18.4695 25.7266 18.6087 25.6883 18.7388C25.65 18.8689 25.5691 18.9822 25.4586 19.0606Z" fill="black"/>
</svg>
