<svg width="40" height="40" viewBox="0 0 40 40" fill="none" xmlns="http://www.w3.org/2000/svg">
<path d="M4.54166 35C4.23611 35 3.95833 34.9239 3.70833 34.7717C3.45833 34.6194 3.26388 34.4178 3.125 34.1667C2.98611 33.9156 2.91 33.6444 2.89666 33.3533C2.88333 33.0622 2.95944 32.7778 3.125 32.5L18.5417 5.83333C18.7083 5.55556 18.9239 5.34722 19.1883 5.20833C19.4528 5.06944 19.7233 5 20 5C20.2767 5 20.5478 5.06944 20.8133 5.20833C21.0789 5.34722 21.2939 5.55556 21.4583 5.83333L36.875 32.5C37.0417 32.7778 37.1183 33.0628 37.105 33.355C37.0917 33.6472 37.015 33.9178 36.875 34.1667C36.735 34.4156 36.5406 34.6172 36.2917 34.7717C36.0428 34.9261 35.765 35.0022 35.4583 35H4.54166ZM20 30C20.4722 30 20.8683 29.84 21.1883 29.52C21.5083 29.2 21.6678 28.8044 21.6667 28.3333C21.6656 27.8622 21.5056 27.4667 21.1867 27.1467C20.8678 26.8267 20.4722 26.6667 20 26.6667C19.5278 26.6667 19.1322 26.8267 18.8133 27.1467C18.4944 27.4667 18.3344 27.8622 18.3333 28.3333C18.3322 28.8044 18.4922 29.2006 18.8133 29.5217C19.1344 29.8428 19.53 30.0022 20 30ZM20 25C20.4722 25 20.8683 24.84 21.1883 24.52C21.5083 24.2 21.6678 23.8044 21.6667 23.3333V18.3333C21.6667 17.8611 21.5067 17.4656 21.1867 17.1467C20.8667 16.8278 20.4711 16.6678 20 16.6667C19.5289 16.6656 19.1333 16.8256 18.8133 17.1467C18.4933 17.4678 18.3333 17.8633 18.3333 18.3333V23.3333C18.3333 23.8056 18.4933 24.2017 18.8133 24.5217C19.1333 24.8417 19.5289 25.0011 20 25Z" fill="black"/>
</svg>
