<svg width="40" height="40" viewBox="0 0 40 40" fill="none" xmlns="http://www.w3.org/2000/svg">
<path d="M23.7617 9.3483L6.15488 26.9749C6.0663 27.0638 6.00234 27.1761 5.97188 27.2968L4.02033 35.1382C3.96195 35.3742 4.03124 35.6252 4.20333 35.7975C4.33353 35.9278 4.51094 36 4.69242 36C4.748 36 4.80486 35.9931 4.86019 35.9792L12.6933 34.0253C12.8154 33.9948 12.9263 33.931 13.0149 33.8424L30.6233 16.217L23.7617 9.3483Z" fill="black"/>
<path d="M34.9853 6.94498L33.0253 4.98299C31.7154 3.6717 29.4324 3.67297 28.124 4.98299L25.7232 7.38631L32.5845 14.2548L34.9853 11.8515C35.6396 11.1967 36 10.3252 36 9.39835C36 8.47148 35.6396 7.59999 34.9853 6.94498Z" fill="black"/>
</svg>
