<svg width="40" height="40" viewBox="0 0 40 40" fill="none" xmlns="http://www.w3.org/2000/svg">
<path d="M36.25 18.3333V28.3333C36.3479 29.1778 36.2535 30.0334 35.9741 30.8362C35.6946 31.6391 35.2372 32.3683 34.6361 32.9694C34.035 33.5705 33.3057 34.0279 32.5029 34.3074C31.7001 34.5869 30.8444 34.6812 30 34.5833H10C9.15556 34.6812 8.29993 34.5869 7.4971 34.3074C6.69427 34.0279 5.96503 33.5705 5.36393 32.9694C4.76283 32.3683 4.30543 31.6391 4.02594 30.8362C3.74646 30.0334 3.65212 29.1778 3.75 28.3333V11.6667C3.65212 10.8222 3.74646 9.9666 4.02594 9.16377C4.30543 8.36094 4.76283 7.6317 5.36393 7.0306C5.96503 6.4295 6.69427 5.9721 7.4971 5.69261C8.29993 5.41313 9.15556 5.31879 10 5.41667H21.6667C21.9982 5.41667 22.3161 5.54836 22.5505 5.78278C22.785 6.0172 22.9167 6.33515 22.9167 6.66667C22.9167 6.99819 22.785 7.31613 22.5505 7.55055C22.3161 7.78497 21.9982 7.91667 21.6667 7.91667H10C7.37166 7.91667 6.25 9.03833 6.25 11.6667V27.0833L10.4833 22.85C10.798 22.5377 11.2234 22.3625 11.6667 22.3625C12.11 22.3625 12.5353 22.5377 12.85 22.85L14.4167 24.4167C14.5724 24.5694 14.7819 24.6549 15 24.6549C15.2181 24.6549 15.4276 24.5694 15.5833 24.4167L23.8167 16.1833C24.1313 15.8711 24.5567 15.6959 25 15.6959C25.4433 15.6959 25.8687 15.8711 26.1833 16.1833L33.75 23.75V18.3333C33.75 18.0018 33.8817 17.6839 34.1161 17.4495C34.3505 17.215 34.6685 17.0833 35 17.0833C35.3315 17.0833 35.6495 17.215 35.8839 17.4495C36.1183 17.6839 36.25 18.0018 36.25 18.3333ZM13.3217 12.9167C12.7683 12.9182 12.2382 13.1393 11.8477 13.5314C11.4573 13.9235 11.2384 14.4546 11.2392 15.0079C11.2399 15.5613 11.4603 16.0917 11.8519 16.4827C12.2434 16.8737 12.7741 17.0933 13.3275 17.0933C13.8809 17.0933 14.4116 16.8737 14.8031 16.4827C15.1947 16.0917 15.4151 15.5613 15.4158 15.0079C15.4166 14.4546 15.1977 13.9235 14.8073 13.5314C14.4168 13.1393 13.8867 12.9182 13.3333 12.9167H13.3217ZM28.3333 9.58333H30.4167V11.6667C30.4167 11.9982 30.5484 12.3161 30.7828 12.5506C31.0172 12.785 31.3351 12.9167 31.6667 12.9167C31.9982 12.9167 32.3161 12.785 32.5505 12.5506C32.785 12.3161 32.9167 11.9982 32.9167 11.6667V9.58333H35C35.3315 9.58333 35.6495 9.45164 35.8839 9.21722C36.1183 8.9828 36.25 8.66485 36.25 8.33333C36.25 8.00181 36.1183 7.68387 35.8839 7.44945C35.6495 7.21503 35.3315 7.08333 35 7.08333H32.9167V5C32.9167 4.66848 32.785 4.35054 32.5505 4.11612C32.3161 3.8817 31.9982 3.75 31.6667 3.75C31.3351 3.75 31.0172 3.8817 30.7828 4.11612C30.5484 4.35054 30.4167 4.66848 30.4167 5V7.08333H28.3333C28.0018 7.08333 27.6839 7.21503 27.4494 7.44945C27.215 7.68387 27.0833 8.00181 27.0833 8.33333C27.0833 8.66485 27.215 8.9828 27.4494 9.21722C27.6839 9.45164 28.0018 9.58333 28.3333 9.58333Z" fill="black"/>
</svg>
