<svg width="40" height="40" viewBox="0 0 40 40" fill="none" xmlns="http://www.w3.org/2000/svg">
<path d="M30.7586 16.3721V28.9302C33.6534 28.9302 36 26.5564 36 23.6279V9.30233C36 6.37394 33.6534 4 30.7586 4H16.2299C13.3352 4 10.9885 6.37394 10.9885 9.30233H23.7701C27.6297 9.30233 30.7586 12.4676 30.7586 16.3721Z" fill="black"/>
<path d="M4 30.6977C4 33.6262 6.34665 36 9.24138 36H23.7701C26.6649 36 29.0115 33.6262 29.0115 30.6977V16.3721C29.0115 13.4437 26.6649 11.0698 23.7701 11.0698H9.24138C6.34665 11.0698 4 13.4437 4 16.3721L4 30.6977Z" fill="black"/>
</svg>
