<svg width="40" height="40" viewBox="0 0 40 40" fill="none" xmlns="http://www.w3.org/2000/svg">
<path d="M36.5564 9.48346C36.3726 9.25159 36.1382 9.06425 35.8709 8.93558C35.6036 8.80692 35.3104 8.74029 35.0134 8.74074H11.5085C11.1921 8.74074 10.8888 8.86561 10.6651 9.08787C10.4414 9.31014 10.3157 9.6116 10.3157 9.92593C10.3157 10.2403 10.4414 10.5417 10.6651 10.764C10.8888 10.9862 11.1921 11.1111 11.5085 11.1111H34.5207L32.0716 22.0306C32.0144 22.2944 31.868 22.5308 31.6568 22.7004C31.4455 22.8701 31.1822 22.9627 30.9106 22.963H14.3708C14.0544 22.963 13.7511 23.0878 13.5274 23.3101C13.3037 23.5324 13.178 23.8338 13.178 24.1481C13.178 24.4625 13.3037 24.7639 13.5274 24.9862C13.7511 25.2085 14.0544 25.3333 14.3708 25.3333H30.9106C31.7243 25.3379 32.5148 25.0638 33.149 24.5573C33.7833 24.0508 34.2227 23.3427 34.3933 22.5521L36.9539 11.1427C37.0178 10.8543 37.0152 10.5552 36.9464 10.2678C36.8775 9.98052 36.7442 9.71237 36.5564 9.48346Z" fill="black"/>
<path d="M35.9996 10.2977L33.2142 22.716C33.1492 23.016 32.9827 23.2848 32.7425 23.4777C32.5023 23.6707 32.2028 23.776 31.894 23.7763H14.1874L11.4926 10.2977H35.9996Z" fill="black"/>
<path d="M32.4213 28.8889C32.4191 29.2025 32.2927 29.5027 32.0695 29.7245C31.8463 29.9463 31.5442 30.0718 31.2286 30.0741H16.6293C15.9852 30.0712 15.3618 29.8482 14.8636 29.4424C14.3655 29.0367 14.0231 28.4729 13.8939 27.8459L9.64744 6.68642C9.62721 6.59667 9.5768 6.51645 9.50452 6.45899C9.43224 6.40153 9.34241 6.37028 9.24985 6.37037H4.19276C3.87642 6.37037 3.57304 6.2455 3.34935 6.02324C3.12567 5.80097 3 5.49952 3 5.18519C3 4.87085 3.12567 4.5694 3.34935 4.34713C3.57304 4.12487 3.87642 4 4.19276 4H9.24993C9.89403 4.00285 10.5175 4.22589 11.0156 4.63164C11.5138 5.0374 11.8562 5.60113 11.9853 6.22815L12.4943 8.74074L12.9714 11.1111L15.341 22.963L16.2317 27.3877C16.2519 27.4774 16.3024 27.5576 16.3746 27.6151C16.4469 27.6725 16.5367 27.7038 16.6293 27.7037H31.2286C31.5442 27.7059 31.8463 27.8315 32.0695 28.0533C32.2927 28.2751 32.4191 28.5752 32.4213 28.8889Z" fill="black"/>
<path d="M17.7107 36C19.0281 36 20.0962 34.9387 20.0962 33.6296C20.0962 32.3205 19.0281 31.2593 17.7107 31.2593C16.3932 31.2593 15.3251 32.3205 15.3251 33.6296C15.3251 34.9387 16.3932 36 17.7107 36Z" fill="black"/>
<path d="M29.6382 36C30.9557 36 32.0237 34.9387 32.0237 33.6296C32.0237 32.3205 30.9557 31.2593 29.6382 31.2593C28.3207 31.2593 27.2527 32.3205 27.2527 33.6296C27.2527 34.9387 28.3207 36 29.6382 36Z" fill="black"/>
</svg>
