<svg width="40" height="40" viewBox="0 0 40 40" fill="none" xmlns="http://www.w3.org/2000/svg">
<path d="M31.37 14.6452H23.7598C24.2939 13.7419 24.5609 12.7097 24.6944 11.5484C25.2285 8.58065 22.8253 6 19.7545 6H18.9534C18.4193 6 17.8853 6.51613 17.8853 7.03226V10.129C17.8853 12.5806 16.5502 14.9032 14.2805 16.1936V32.3226L15.3486 33.0968C16.1496 33.6129 17.0842 34 18.0188 34H29.7679C32.0376 34 33.9068 32.4516 34.1738 30.3871L35.9095 19.6774C36.4435 17.0968 34.5743 14.6452 31.37 14.6452Z" fill="black"/>
<path d="M6.00269 33.0968H9.47401C10.5421 33.0968 11.4767 32.1935 11.4767 31.1613V18C11.4767 16.9677 10.5421 16.0645 9.47401 16.0645H6.00269C4.93459 16.0645 4 16.9677 4 18V31.1613C4 32.1935 4.93459 33.0968 6.00269 33.0968Z" fill="black"/>
</svg>
