<svg width="40" height="40" viewBox="0 0 40 40" fill="none" xmlns="http://www.w3.org/2000/svg">
<path fill-rule="evenodd" clip-rule="evenodd" d="M16.82 31.5349H11.375C10.4795 31.5349 9.6215 31.1821 8.9885 30.554C8.3555 29.926 8 29.0746 8 28.186V7.34884C8 6.46028 8.3555 5.60893 8.9885 4.98084C9.6215 4.35274 10.4795 4 11.375 4H22.625C23.5205 4 24.3785 4.35274 25.0115 4.98084C25.6445 5.60893 26 6.46028 26 7.34884V17.0783L28.061 18.1008C30.476 19.2975 32 21.7459 32 24.4234V34.8837C32 35.4999 31.496 36 30.875 36C30.254 36 29.75 35.4999 29.75 34.8837V24.4234C29.75 22.5913 28.7075 20.9168 27.0545 20.0967L26 19.5743V25.3611C26 27.5371 24.221 29.3023 22.028 29.3023C20.927 29.3023 19.733 28.7859 19.031 27.9241L17.168 25.6335C17.0945 25.5442 16.985 25.4936 16.871 25.4951C16.7555 25.4966 16.6475 25.5501 16.577 25.6409L16.223 26.1023C16.127 26.2274 16.121 26.3985 16.208 26.531L21.3155 34.272C21.656 34.787 21.5105 35.4806 20.9915 35.8169C20.4725 36.1548 19.7735 36.0104 19.4345 35.4954L16.82 31.5349ZM23.75 25.3611V7.34884C23.75 7.05265 23.6315 6.76837 23.42 6.56C23.21 6.35014 22.9235 6.23256 22.625 6.23256H20.843C20.783 6.47219 20.7185 6.72521 20.6585 6.96633C20.492 7.62865 19.892 8.09302 19.2035 8.09302H14.7965C14.108 8.09302 13.508 7.62865 13.3415 6.96633C13.2815 6.72521 13.217 6.47219 13.157 6.23256H11.375C11.0765 6.23256 10.79 6.35014 10.58 6.56C10.3685 6.76837 10.25 7.05265 10.25 7.34884V28.186C10.25 28.4822 10.3685 28.7665 10.58 28.9749C10.79 29.1847 11.0765 29.3023 11.375 29.3023H15.347L14.3255 27.7544C13.7165 26.8301 13.76 25.626 14.435 24.7479L14.789 24.288C15.2765 23.651 16.034 23.2729 16.8395 23.2625C17.645 23.2521 18.4115 23.6078 18.9185 24.2314L20.7815 26.5206C21.071 26.8778 21.5735 27.0698 22.028 27.0698C22.979 27.0698 23.75 26.3047 23.75 25.3611Z" fill="black"/>
</svg>
