<svg width="40" height="40" viewBox="0 0 40 40" fill="none" xmlns="http://www.w3.org/2000/svg">
<path d="M5.8 4C4.48399 4 3.4 5.08399 3.4 6.4V33.6C3.4 34.916 4.48399 36 5.8 36H24.8797C23.8367 35.2468 22.9623 34.2569 22.3672 33.0953C22.3666 33.0945 22.3661 33.0929 22.3656 33.092C20.9595 30.4579 21.1079 27.1397 22.7593 24.6482C24.2403 22.3063 26.8906 20.8659 29.639 20.8107C29.96 20.8017 30.2827 20.8141 30.5999 20.8435V13.5999H23.3999C22.0839 13.5999 20.9999 12.5159 20.9999 11.1999V4H5.8ZM22.6 4.46875V11.2C22.6 11.6513 22.9487 12 23.4 12H30.1312L22.6 4.46875ZM10.2 12H17.4C17.6122 12 17.8157 12.0843 17.9657 12.2343C18.1157 12.3843 18.2 12.5878 18.2 12.8C18.2 13.0122 18.1157 13.2157 17.9657 13.3657C17.8157 13.5157 17.6122 13.6 17.4 13.6H10.2C9.98783 13.6 9.78434 13.5157 9.63431 13.3657C9.48428 13.2157 9.4 13.0122 9.4 12.8C9.4 12.5878 9.48428 12.3843 9.63431 12.2343C9.78434 12.0843 9.98783 12 10.2 12ZM10.2 16.8H23.4C23.6122 16.8 23.8157 16.8843 23.9657 17.0343C24.1157 17.1843 24.2 17.3878 24.2 17.6C24.2 17.8122 24.1157 18.0157 23.9657 18.1657C23.8157 18.3157 23.6122 18.4 23.4 18.4H10.2C9.98783 18.4 9.78434 18.3157 9.63431 18.1657C9.48428 18.0157 9.4 17.8122 9.4 17.6C9.4 17.3878 9.48428 17.1843 9.63431 17.0343C9.78434 16.8843 9.98783 16.8 10.2 16.8ZM10.2 21.6H20.2C20.3051 21.6 20.4091 21.6207 20.5061 21.6609C20.6032 21.7011 20.6914 21.76 20.7657 21.8343C20.84 21.9086 20.8989 21.9968 20.9391 22.0939C20.9793 22.1909 21 22.2949 21 22.4C21 22.6122 20.9157 22.8157 20.7657 22.9657C20.6157 23.1157 20.4122 23.2 20.2 23.2H10.2C9.98783 23.2 9.78434 23.1157 9.63431 22.9657C9.48428 22.8157 9.4 22.6122 9.4 22.4C9.4 22.2949 9.42069 22.1909 9.4609 22.0939C9.5011 21.9968 9.56003 21.9086 9.63431 21.8343C9.7086 21.76 9.79679 21.7011 9.89385 21.6609C9.99091 21.6207 10.0949 21.6 10.2 21.6ZM29.8 22.4C26.0539 22.4 23 25.4539 23 29.2C23 32.9461 26.0539 36 29.8 36C33.5461 36 36.6 32.9461 36.6 29.2C36.6 25.4539 33.5461 22.4 29.8 22.4ZM29.8 26C30.0122 26 30.2157 26.0843 30.3657 26.2343C30.5157 26.3843 30.6 26.5878 30.6 26.8V28.4H32.2C32.3051 28.4 32.4091 28.4207 32.5061 28.4609C32.6032 28.5011 32.6914 28.56 32.7657 28.6343C32.84 28.7086 32.8989 28.7968 32.9391 28.8939C32.9793 28.9909 33 29.0949 33 29.2C33 29.3051 32.9793 29.4091 32.9391 29.5061C32.8989 29.6032 32.84 29.6914 32.7657 29.7657C32.6914 29.84 32.6032 29.8989 32.5061 29.9391C32.4091 29.9793 32.3051 30 32.2 30H30.6V31.6C30.6 31.8122 30.5157 32.0157 30.3657 32.1657C30.2157 32.3157 30.0122 32.4 29.8 32.4C29.6949 32.4 29.5909 32.3793 29.4939 32.3391C29.3968 32.2989 29.3086 32.24 29.2343 32.1657C29.16 32.0914 29.1011 32.0032 29.0609 31.9061C29.0207 31.8091 29 31.7051 29 31.6V30H27.4C27.2949 30 27.1909 29.9793 27.0939 29.9391C26.9968 29.8989 26.9086 29.84 26.8343 29.7657C26.76 29.6914 26.7011 29.6032 26.6609 29.5061C26.6207 29.4091 26.6 29.3051 26.6 29.2C26.6 29.0949 26.6207 28.9909 26.6609 28.8939C26.7011 28.7968 26.76 28.7086 26.8343 28.6343C26.9086 28.56 26.9968 28.5011 27.0939 28.4609C27.1909 28.4207 27.2949 28.4 27.4 28.4H29V26.8C29 26.6949 29.0207 26.5909 29.0609 26.4939C29.1011 26.3968 29.16 26.3086 29.2343 26.2343C29.3086 26.16 29.3968 26.1011 29.4939 26.0609C29.5909 26.0207 29.6949 26 29.8 26ZM10.2 26.4H18.6C18.7051 26.4 18.8091 26.4207 18.9061 26.4609C19.0032 26.5011 19.0914 26.56 19.1657 26.6343C19.24 26.7086 19.2989 26.7968 19.3391 26.8939C19.3793 26.9909 19.4 27.0949 19.4 27.2C19.4 27.4122 19.3157 27.6157 19.1657 27.7657C19.0157 27.9157 18.8122 28 18.6 28H10.2C9.98783 28 9.78434 27.9157 9.63431 27.7657C9.48428 27.6157 9.4 27.4122 9.4 27.2C9.4 27.0949 9.42069 26.9909 9.4609 26.8939C9.5011 26.7968 9.56003 26.7086 9.63431 26.6343C9.7086 26.56 9.79679 26.5011 9.89385 26.4609C9.99091 26.4207 10.0949 26.4 10.2 26.4Z" fill="black"/>
</svg>
