<svg width="40" height="40" viewBox="0 0 40 40" fill="none" xmlns="http://www.w3.org/2000/svg">
<rect x="14" y="11" width="13" height="14" fill="white"/>
<path d="M20.0032 4C16.5536 4.00339 13.2465 5.35346 10.8085 7.75356C8.37047 10.1537 7.00101 13.4074 7.00101 16.8C6.95979 20.9137 8.17771 24.9446 10.4965 28.3687C12.8153 31.7927 16.1277 34.4517 20.0032 36C23.8776 34.4507 27.1886 31.7913 29.5062 28.3673C31.8237 24.9433 33.0407 20.913 32.999 16.8C32.999 13.4086 31.6304 10.1557 29.1938 7.75581C26.7572 5.3559 23.4517 4.00509 20.0032 4ZM20.0032 21.6C19.0379 21.6 18.0943 21.3185 17.2917 20.7911C16.489 20.2636 15.8635 19.514 15.494 18.6369C15.1246 17.7598 15.028 16.7947 15.2163 15.8636C15.4046 14.9325 15.8695 14.0772 16.5521 13.4059C17.2346 12.7346 18.1043 12.2774 19.0511 12.0922C19.9978 11.907 20.9792 12.0021 21.871 12.3654C22.7628 12.7287 23.5251 13.3439 24.0614 14.1333C24.5977 14.9226 24.884 15.8506 24.884 16.8C24.884 18.073 24.3697 19.2939 23.4544 20.1941C22.5391 21.0943 21.2977 21.6 20.0032 21.6Z" fill="black"/>
</svg>
