<svg width="40" height="40" viewBox="0 0 40 40" fill="none" xmlns="http://www.w3.org/2000/svg">
<path d="M33.6029 13.7303V20.0071C33.6029 25.859 29.1285 30.6282 23.6386 30.6282H17.3514C18.3929 31.6561 19.7815 32.2591 21.2986 32.2591H28.1515L31.7386 34.6711C32.0729 34.8903 32.4586 35 32.8314 35C33.1786 35 33.5257 34.9041 33.8343 34.7259C34.49 34.3421 34.8886 33.6021 34.8886 32.8072V31.5053C36.7786 30.4226 38 28.2984 38 25.9686V19.8152C38 16.8961 36.1357 14.4292 33.6029 13.7303Z" fill="black"/>
<path d="M6.10143 27.0513V29.0384C6.10143 29.9292 6.5514 30.7515 7.28427 31.1901C7.63143 31.3957 8.01713 31.4916 8.40283 31.4916C8.82714 31.4916 9.25145 31.3682 9.62428 31.1215L14.4586 27.8873H23.6386C27.7143 27.8873 31.0315 24.3514 31.0315 20.0071V11.8802C31.0315 7.53575 27.7143 4 23.6386 4H9.39286C5.31716 4 2 7.53575 2 11.8802V20.0071C2 23.0221 3.62001 25.7356 6.10143 27.0513ZM16.5414 23.4743C15.8343 23.4743 15.2557 22.8713 15.2557 22.1038C15.2557 21.3501 15.8214 20.7334 16.5286 20.7334H16.5414C17.2486 20.7334 17.8271 21.3501 17.8271 22.1038C17.8271 22.8713 17.2486 23.4743 16.5414 23.4743ZM13.9057 9.37221C14.9085 8.52253 16.22 8.20735 17.4928 8.52253C19.0228 8.89258 20.2443 10.1945 20.6042 11.839C21.0029 13.6892 20.3086 15.5668 18.83 16.6083C18.2 17.0605 17.8014 17.8829 17.8014 18.7873C17.8014 19.5411 17.2229 20.1578 16.5157 20.1578C15.8086 20.1578 15.23 19.5411 15.23 18.7873C15.23 16.9509 16.04 15.2789 17.4157 14.3196C17.9814 13.9222 18.2514 13.1822 18.0972 12.4558C17.9685 11.839 17.4928 11.332 16.9143 11.195C16.4 11.0716 15.8986 11.1812 15.5 11.5239C15.1143 11.8528 14.8958 12.3461 14.8958 12.8806C14.8958 13.6344 14.3172 14.2511 13.61 14.2511C12.89 14.2511 12.3243 13.6344 12.3243 12.8806C12.3243 11.5101 12.9028 10.2356 13.9057 9.37221Z" fill="black"/>
</svg>
