<svg width="40" height="40" viewBox="0 0 40 40" fill="none" xmlns="http://www.w3.org/2000/svg">
<path d="M31.2404 18.2404H21.7596V8.75961C21.7596 7.78831 20.9713 7 20 7C19.0287 7 18.2404 7.78831 18.2404 8.75961V18.2404H8.75961C7.78831 18.2404 7 19.0287 7 20C7 20.9713 7.78831 21.7596 8.75961 21.7596H18.2404V31.2404C18.2404 32.2117 19.0287 33 20 33C20.9713 33 21.7596 32.2117 21.7596 31.2404V21.7596H31.2404C32.2117 21.7596 33 20.9713 33 20C33 19.0287 32.2117 18.2404 31.2404 18.2404Z" fill="black"/>
</svg>
