<svg width="40" height="40" viewBox="0 0 40 40" fill="none" xmlns="http://www.w3.org/2000/svg">
<path d="M19.9573 4.00032C19.3421 4.00838 18.7405 4.19541 18.225 4.53885L5.425 13.0711C4.53475 13.6645 4 14.665 4 15.7325V32.799C3.99973 34.5541 5.44587 36.0003 7.20104 36H15.7333V26.4001C15.7333 25.2183 16.6848 24.2668 17.8667 24.2668H22.1333C23.3152 24.2668 24.2667 25.2183 24.2667 26.4001V36H32.799C34.5541 36.0003 36.0003 34.5541 36 32.799V15.7325C36 14.665 35.4653 13.6645 34.575 13.0711L21.776 4.53885C21.2385 4.18052 20.6047 3.99118 19.9573 4.00032Z" fill="black"/>
</svg>
