<svg width="40" height="40" viewBox="0 0 40 40" fill="none" xmlns="http://www.w3.org/2000/svg">
<path fill-rule="evenodd" clip-rule="evenodd" d="M20.0093 9.606C17.7737 7.31958 15.4384 6.18992 13.1972 6.02202C10.668 5.83253 8.42956 6.88243 6.80938 8.54582C3.62126 11.8189 2.62875 17.7468 6.59237 21.8449C6.60567 21.8587 6.61928 21.8721 6.63322 21.8851L19.2425 33.6943C19.6777 34.1019 20.3409 34.1019 20.7761 33.6943L33.3854 21.8851C33.3994 21.8721 33.4129 21.8587 33.4263 21.8449C37.3693 17.768 36.3715 11.8408 33.1938 8.56521C31.5774 6.89918 29.3436 5.84323 26.8167 6.02853C24.5776 6.19271 22.2443 7.32022 20.0093 9.606Z" fill="black"/>
</svg>
