<svg width="40" height="40" viewBox="0 0 40 40" fill="none" xmlns="http://www.w3.org/2000/svg">
<path d="M35.2899 17.9845L33.1138 15.4571C32.6978 14.9773 32.3618 14.0815 32.3618 13.4416V10.7223C32.3618 9.02674 30.9697 7.63509 29.2736 7.63509H26.5534C25.9294 7.63509 25.0173 7.29917 24.5373 6.88328L22.0091 4.70782C20.9051 3.76406 19.097 3.76406 17.9769 4.70782L15.4647 6.89927C14.9847 7.29917 14.0726 7.63509 13.4486 7.63509H10.6804C8.9843 7.63509 7.59222 9.02674 7.59222 10.7223V13.4576C7.59222 14.0815 7.2562 14.9773 6.85617 15.4571L4.69604 18.0005C3.76799 19.1042 3.76799 20.8958 4.69604 21.9995L6.85617 24.5429C7.2562 25.0228 7.59222 25.9185 7.59222 26.5424V29.2777C7.59222 30.9733 8.9843 32.3649 10.6804 32.3649H13.4486C14.0726 32.3649 14.9847 32.7008 15.4647 33.1167L17.9929 35.2922C19.097 36.2359 20.9051 36.2359 22.0251 35.2922L24.5533 33.1167C25.0333 32.7008 25.9294 32.3649 26.5694 32.3649H29.2896C30.9857 32.3649 32.3778 30.9733 32.3778 29.2777V26.5584C32.3778 25.9345 32.7138 25.0228 33.1298 24.5429L35.3059 22.0155C36.234 20.9118 36.234 19.0882 35.2899 17.9845ZM26.6494 16.9768L18.921 24.7028C18.6969 24.9268 18.3929 25.0547 18.0729 25.0547C17.7529 25.0547 17.4489 24.9268 17.2249 24.7028L13.3526 20.8318C12.8885 20.3679 12.8885 19.6001 13.3526 19.1362C13.8166 18.6723 14.5846 18.6723 15.0487 19.1362L18.0729 22.1595L24.9533 15.2812C25.4173 14.8173 26.1854 14.8173 26.6494 15.2812C27.1135 15.7451 27.1135 16.5129 26.6494 16.9768Z" fill="black"/>
</svg>
