<svg width="40" height="40" viewBox="0 0 40 40" fill="none" xmlns="http://www.w3.org/2000/svg">
<path d="M19.957 4.00061C20.6044 3.99148 21.2388 4.18036 21.7764 4.5387L34.5752 13.0709C35.4653 13.6643 35.9999 14.6647 36 15.7321V32.7994C36 34.5544 34.5539 35.9999 32.7988 35.9996H23V32.4996C22.9998 30.5668 21.4329 28.9996 19.5 28.9996C17.5671 28.9996 16.0002 30.5668 16 32.4996V35.9996H7.20117C5.44615 35.9999 3.99998 34.5544 4 32.7994V15.7321C4.00015 14.6647 4.53472 13.6643 5.4248 13.0709L18.2246 4.5387C18.74 4.19531 19.3419 4.00872 19.957 4.00061ZM17.749 9.99963C17.5225 10.0022 17.3035 10.0833 17.1279 10.2281C16.9524 10.373 16.8302 10.5735 16.7822 10.7975L15.1719 18.5162C15.1597 18.5931 15.164 18.6717 15.1846 18.7467C15.2052 18.8219 15.2413 18.8922 15.291 18.9518C15.3407 19.0113 15.4029 19.0592 15.4727 19.0924C15.5423 19.1255 15.6183 19.1434 15.6953 19.1442H19.1543C19.2305 19.1448 19.3059 19.1614 19.375 19.194C19.444 19.2266 19.5052 19.274 19.5547 19.3326C19.6042 19.3914 19.6412 19.4606 19.6621 19.5348C19.683 19.6089 19.6872 19.6871 19.6758 19.7633L19.5342 20.7574L18.998 24.5143C18.9888 24.5701 18.9905 24.6273 19.0039 24.6823C19.0174 24.7374 19.0422 24.7894 19.0762 24.8346C19.1102 24.8798 19.1532 24.9172 19.2021 24.9449C19.2509 24.9726 19.3047 24.9899 19.3604 24.9957C19.4195 25.0044 19.4803 24.9991 19.5371 24.9801C19.5939 24.961 19.6461 24.9291 19.6885 24.8864L19.7266 24.8434C19.7388 24.8269 19.7504 24.8094 19.7607 24.7916L24.0889 17.3824C24.1375 17.3001 24.164 17.2059 24.165 17.11C24.166 17.0142 24.1415 16.9199 24.0947 16.8365C24.0479 16.7533 23.9803 16.6835 23.8984 16.6354C23.8164 16.5872 23.7227 16.5619 23.6279 16.5621H21.2549C21.1705 16.5616 21.087 16.5411 21.0117 16.5026C20.9365 16.464 20.8707 16.4088 20.8203 16.3405C20.7699 16.272 20.7357 16.1921 20.7207 16.108C20.7058 16.0241 20.7109 15.9379 20.7344 15.8561L22.1094 10.9586C22.1412 10.8477 22.1472 10.7305 22.127 10.6168C22.1067 10.503 22.0603 10.3952 21.9922 10.3024C21.9241 10.2098 21.836 10.1341 21.7344 10.0817C21.6325 10.0292 21.5196 10.0009 21.4053 9.99963H17.749Z" fill="black"/>
</svg>
