<svg width="40" height="40" viewBox="0 0 40 40" fill="none" xmlns="http://www.w3.org/2000/svg">
<path d="M26.7039 10.8076L20 17.5115L13.2961 10.8076C12.6093 10.1208 11.4944 10.1208 10.8076 10.8076C10.1208 11.4944 10.1208 12.6093 10.8076 13.2961L17.5115 20L10.8076 26.7039C10.1208 27.3907 10.1208 28.5056 10.8076 29.1924C11.4944 29.8792 12.6093 29.8792 13.2961 29.1924L20 22.4885L26.7039 29.1924C27.3907 29.8792 28.5056 29.8792 29.1924 29.1924C29.8792 28.5056 29.8792 27.3907 29.1924 26.7039L22.4885 20L29.1924 13.2961C29.8792 12.6093 29.8792 11.4944 29.1924 10.8076C28.5056 10.1208 27.3907 10.1208 26.7039 10.8076Z" fill="black"/>
</svg>
