<svg width="40" height="40" viewBox="0 0 40 40" fill="none" xmlns="http://www.w3.org/2000/svg">
<rect x="11" y="13" width="17" height="13" fill="white"/>
<path d="M20.0031 6C23.0203 6.00452 25.9122 7.18647 28.0441 9.28613C30.1762 11.3861 31.3742 14.2327 31.3742 17.2002C31.4107 20.799 30.3454 24.3254 28.3176 27.3213C26.2898 30.3172 23.393 32.6444 20.0031 34C16.612 32.6452 13.7137 30.3183 11.6848 27.3223C9.65589 24.3263 8.59013 20.7996 8.62616 17.2002C8.62616 14.2317 9.82396 11.3843 11.9572 9.28418C14.0905 7.18409 16.9847 6.00297 20.0031 6ZM13.8342 14C12.8232 14 12.0004 14.8218 12.0002 15.833V22.167C12.0004 23.1782 12.8232 24 13.8342 24H24.8381C25.849 24 26.6719 23.1782 26.6721 22.167V22H26.8332C27.4766 21.9998 28.0002 21.4762 28.0002 20.833V17.167C28.0002 16.5238 27.4766 16.0002 26.8332 16H26.6721V15.833C26.6719 14.8218 25.849 14 24.8381 14H13.8342ZM19.7805 15.8057C19.8705 15.6804 20.0362 15.6335 20.1789 15.6914C20.3223 15.7507 20.4057 15.901 20.381 16.0537L20.0617 18L21.0002 18.001C21.1222 18.001 21.2345 18.0681 21.2932 18.1748C21.351 18.2808 21.3467 18.4111 21.2814 18.5137L18.9494 22.1797C18.8873 22.2774 18.7803 22.333 18.6691 22.333C18.6313 22.333 18.5933 22.327 18.5568 22.3145C18.4102 22.2612 18.3189 22.1135 18.3381 21.959L18.6252 19.667L17.6662 19.665C17.5408 19.665 17.427 19.595 17.3703 19.4844C17.3137 19.3731 17.323 19.2397 17.3957 19.1377L19.7805 15.8057Z" fill="black"/>
</svg>
