<svg width="40" height="40" viewBox="0 0 40 40" fill="none" xmlns="http://www.w3.org/2000/svg">
<path d="M17.0625 8.85906C17.0625 7.13594 18.4644 5.73406 20.1875 5.73406H21.269L20.9428 4.82719C20.7593 4.31719 20.2787 4 19.7664 4C19.6245 4 19.4801 4.02437 19.339 4.07575L8.41069 8.05331C7.761 8.28981 7.42663 9.00875 7.6645 9.65794L8.24194 11.2341H17.0625V8.85906Z" fill="black"/>
<path d="M20.1875 7.60906C19.4971 7.60906 18.9375 8.16869 18.9375 8.85906V11.2341H29.875V8.85906C29.875 8.16869 29.3154 7.60906 28.625 7.60906H20.1875Z" fill="black"/>
<path d="M33.1875 29.2653H28.8125C26.2278 29.2653 24.125 27.1625 24.125 24.5778C24.125 21.9931 26.2278 19.8903 28.8125 19.8903H33.1875V15.6091C33.1875 14.2284 32.0682 13.1091 30.6875 13.1091H6.5C5.11931 13.1091 4 14.2284 4 15.6091V33.5C4 34.8807 5.11931 36 6.5 36H30.6875C32.0682 36 33.1875 34.8807 33.1875 33.5V29.2653Z" fill="black"/>
<path d="M35.0625 21.7653H28.8125C27.2617 21.7653 26 23.027 26 24.5778C26 26.1286 27.2617 27.3903 28.8125 27.3903H35.0625C35.5794 27.3903 36 26.9697 36 26.4528V22.7028C36 22.1859 35.5794 21.7653 35.0625 21.7653ZM28.8125 25.5153C28.2948 25.5153 27.875 25.0956 27.875 24.5778C27.875 24.0601 28.2948 23.6403 28.8125 23.6403C29.3302 23.6403 29.75 24.0601 29.75 24.5778C29.75 25.0956 29.3302 25.5153 28.8125 25.5153Z" fill="black"/>
</svg>
