<svg width="40" height="40" viewBox="0 0 40 40" fill="none" xmlns="http://www.w3.org/2000/svg">
<path fill-rule="evenodd" clip-rule="evenodd" d="M3 9C3 5.13401 6.13401 2 10 2C13.866 2 17 5.13401 17 9C17 12.866 13.866 16 10 16C6.13401 16 3 12.866 3 9ZM10 8.18605C10.2697 8.18605 10.4884 8.40471 10.4884 8.67442V11.9302C10.4884 12.1999 10.2697 12.4186 10 12.4186C9.73029 12.4186 9.51163 12.1999 9.51163 11.9302V8.67442C9.51163 8.40471 9.73029 8.18605 10 8.18605ZM10.3695 6.39584C10.55 6.19536 10.5337 5.88656 10.3332 5.70613C10.1327 5.52569 9.82393 5.54195 9.64349 5.74243L9.63698 5.74967C9.45654 5.95015 9.47282 6.25894 9.67331 6.43937C9.8738 6.61981 10.1826 6.60356 10.363 6.40307L10.3695 6.39584Z" fill="black"/>
<path d="M30.8857 8.16699C33.1606 8.16699 35.0127 9.97526 35.0127 12.2002V12.5664H35.374C36.8221 12.5664 38 13.7185 38 15.1338V23.2002C37.9999 24.6154 36.822 25.7666 35.374 25.7666H35.0127V26.1338C35.0125 28.3585 33.1604 30.167 30.8857 30.167H6.12695C3.85225 30.167 2.00024 28.3585 2 26.1338V13.1211C3.49536 16.0181 6.51513 18 10 18C14.9706 18 19 13.9706 19 9C19 8.71908 18.9851 8.44134 18.96 8.16699H30.8857ZM20.4033 11.8877C20.0822 11.7601 19.7084 11.8629 19.5059 12.1387L14.1396 19.4707C13.9762 19.6951 13.9555 19.9885 14.083 20.2334C14.2107 20.4766 14.4671 20.6309 14.749 20.6309L16.9062 20.6338L16.2617 25.6758C16.2182 26.016 16.422 26.3396 16.752 26.457C16.8345 26.4849 16.9203 26.5 17.0059 26.5C17.2564 26.4999 17.4982 26.3767 17.6377 26.1611L22.8838 18.0957C23.0306 17.8699 23.0396 17.5836 22.9092 17.3506C22.7772 17.1161 22.5264 16.9699 22.252 16.9697L20.1387 16.9668L20.8574 12.6836C20.9127 12.348 20.7256 12.0183 20.4033 11.8877Z" fill="black"/>
</svg>
