<svg width="40" height="40" viewBox="0 0 40 40" fill="none" xmlns="http://www.w3.org/2000/svg">
<path d="M15.2595 12.4121H19.0595V16.2015C19.0595 16.6373 19.354 17.0068 19.772 17.1205C19.848 17.1394 19.9335 17.1489 20.0095 17.1489C20.3515 17.1489 20.665 16.9689 20.836 16.6657L25.586 8.1396C25.7475 7.84592 25.7475 7.48593 25.5765 7.20173C25.4055 6.90805 25.092 6.73752 24.7595 6.73752H20.9595V2.94813C20.9595 2.51235 20.665 2.14289 20.247 2.02921C19.829 1.925 19.392 2.10499 19.183 2.48393L14.433 11.0101C14.2715 11.3037 14.2715 11.6637 14.4425 11.9479C14.6135 12.2416 14.927 12.4121 15.2595 12.4121Z" fill="black"/>
<path d="M36.91 19.3088L35.0385 18.371L32.749 11.5122C32.3595 10.3469 31.2765 9.57009 30.0415 9.57009H26.9635L25.909 11.4648H30.0415C30.45 11.4648 30.811 11.7206 30.944 12.109L33.1765 18.7878L31.97 19.9909H8.049L6.8425 18.7878L9.075 12.109C9.208 11.7206 9.569 11.4648 9.9775 11.4648H12.4095C12.4095 10.9911 12.5235 10.508 12.761 10.0817L13.046 9.57009H9.968C8.7425 9.57009 7.65 10.3469 7.2605 11.5122L4.971 18.371L3.0995 19.3088C1.8075 19.953 1 21.2509 1 22.7003V31.3686C1 33.4622 2.7005 35.158 4.8 35.158V36.1053C4.8 37.1474 5.655 38 6.7 38H11.45C12.495 38 13.35 37.1474 13.35 36.1053V35.158H26.65V36.1053C26.65 37.1474 27.505 38 28.55 38H33.3C34.345 38 35.2 37.1474 35.2 36.1053V35.158C37.2995 35.158 39 33.4622 39 31.3686V22.7003C39 21.2604 38.1925 19.953 36.9005 19.3088H36.91ZM6.7095 29.4644C5.6645 29.4644 4.8095 28.6118 4.8095 27.5697C4.8095 26.5276 5.6645 25.675 6.7095 25.675H7.6595C9.759 25.675 11.4595 27.3708 11.4595 29.4644H6.7095ZM24.7595 30.4117H15.2595C14.737 30.4117 14.3095 29.9854 14.3095 29.4644C14.3095 28.9434 14.737 28.5171 15.2595 28.5171H24.7595C25.282 28.5171 25.7095 28.9434 25.7095 29.4644C25.7095 29.9854 25.282 30.4117 24.7595 30.4117ZM25.7095 26.6224H14.3095C13.787 26.6224 13.3595 26.196 13.3595 25.675C13.3595 25.154 13.787 24.7277 14.3095 24.7277H25.7095C26.232 24.7277 26.6595 25.154 26.6595 25.675C26.6595 26.196 26.232 26.6224 25.7095 26.6224ZM33.3095 29.4644H28.5595C28.5595 27.3708 30.26 25.675 32.3595 25.675H33.3095C34.3545 25.675 35.2095 26.5276 35.2095 27.5697C35.2095 28.6118 34.3545 29.4644 33.3095 29.4644Z" fill="black"/>
</svg>
