<svg width="40" height="40" viewBox="0 0 40 40" fill="none" xmlns="http://www.w3.org/2000/svg">
<rect x="11" y="10" width="17" height="16" rx="8" fill="white"/>
<path fill-rule="evenodd" clip-rule="evenodd" d="M20.0031 6C23.0203 6.00455 25.9122 7.18646 28.0442 9.28613C30.1762 11.3861 31.3742 14.2327 31.3742 17.2002C31.4107 20.799 30.3454 24.3254 28.3176 27.3213C26.2898 30.3172 23.393 32.6443 20.0031 34C16.612 32.6452 13.7137 30.3183 11.6848 27.3223C9.65589 24.3263 8.59016 20.7997 8.62619 17.2002C8.62619 14.2317 9.82398 11.3843 11.9572 9.28418C14.0905 7.18412 16.9848 6.00297 20.0031 6ZM24.4153 14.4033C24.0718 14.0604 23.5144 14.0602 23.1711 14.4033L19.8195 17.7559L16.467 14.4033C16.1236 14.0604 15.5661 14.0601 15.2229 14.4033C14.8795 14.7467 14.8795 15.305 15.2229 15.6484L18.5754 19L15.2229 22.3516C14.8795 22.695 14.8795 23.2533 15.2229 23.5967C15.5661 23.9399 16.1236 23.9396 16.467 23.5967L19.8195 20.2441L23.1711 23.5967C23.5144 23.9398 24.0718 23.9396 24.4153 23.5967C24.7587 23.2533 24.7587 22.695 24.4153 22.3516L21.0637 19L24.4153 15.6484C24.7587 15.305 24.7587 14.7467 24.4153 14.4033Z" fill="black"/>
</svg>
