<svg width="40" height="40" viewBox="0 0 40 40" fill="none" xmlns="http://www.w3.org/2000/svg">
<path d="M15.5349 21.8605C16.5624 21.8605 17.3953 21.0275 17.3953 20C17.3953 18.9725 16.5624 18.1395 15.5349 18.1395C14.5074 18.1395 13.6744 18.9725 13.6744 20C13.6744 21.0275 14.5074 21.8605 15.5349 21.8605Z" fill="black"/>
<path d="M24.4651 21.8605C25.4926 21.8605 26.3256 21.0275 26.3256 20C26.3256 18.9725 25.4926 18.1395 24.4651 18.1395C23.4376 18.1395 22.6047 18.9725 22.6047 20C22.6047 21.0275 23.4376 21.8605 24.4651 21.8605Z" fill="black"/>
<path fill-rule="evenodd" clip-rule="evenodd" d="M36 8.09302C36 7.008 35.5684 5.96614 34.8019 5.19814C34.0339 4.43163 32.992 4 31.907 4C26.2035 4 13.7965 4 8.09302 4C7.008 4 5.96614 4.43163 5.19814 5.19814C4.43163 5.96614 4 7.008 4 8.09302V31.907C4 32.992 4.43163 34.0339 5.19814 34.8019C5.96614 35.5684 7.008 36 8.09302 36H31.907C32.992 36 34.0339 35.5684 34.8019 34.8019C35.5684 34.0339 36 32.992 36 31.907V8.09302ZM20 8.46512C13.6342 8.46512 8.46512 13.6342 8.46512 20C8.46512 26.3658 13.6342 31.5349 20 31.5349C26.3658 31.5349 31.5349 26.3658 31.5349 20C31.5349 13.6342 26.3658 8.46512 20 8.46512Z" fill="black"/>
<path fill-rule="evenodd" clip-rule="evenodd" d="M21.1163 31.1628V28.9302C21.1163 28.314 20.6162 27.814 20 27.814C19.3838 27.814 18.8837 28.314 18.8837 28.9302V31.1628C18.8837 31.779 19.3838 32.2791 20 32.2791C20.6162 32.2791 21.1163 31.779 21.1163 31.1628Z" fill="black"/>
<path fill-rule="evenodd" clip-rule="evenodd" d="M21.1163 11.0698V8.83721C21.1163 8.22102 20.6162 7.72093 20 7.72093C19.3838 7.72093 18.8837 8.22102 18.8837 8.83721V11.0698C18.8837 11.686 19.3838 12.186 20 12.186C20.6162 12.186 21.1163 11.686 21.1163 11.0698Z" fill="black"/>
</svg>
