<svg width="40" height="40" viewBox="0 0 40 40" fill="none" xmlns="http://www.w3.org/2000/svg">
<path d="M34 7.36842V32.6316C34 33.5411 33.6375 34.3832 33.0444 35.0232C32.4184 35.6632 31.5946 36 30.7049 36H11.7582C10.8685 36 10.0447 35.6295 9.41865 35.0232C8.79259 34.3832 8.46308 33.5411 8.46308 32.6316V31.7895H7.63931C7.04619 31.7895 6.51898 31.4526 6.22242 30.9474C5.92586 30.4421 5.92586 29.7684 6.22242 29.2632C6.51898 28.7579 7.04619 28.4211 7.63931 28.4211H8.46308V25.0526H7.63931C7.04619 25.0526 6.51898 24.7158 6.22242 24.2105C5.92586 23.7053 5.92586 23.0316 6.22242 22.5263C6.51898 22.0211 7.04619 21.6842 7.63931 21.6842H8.46308V18.3158H7.63931C7.04619 18.3158 6.51898 17.9789 6.22242 17.4737C5.92586 16.9684 5.92586 16.2947 6.22242 15.7895C6.51898 15.2842 7.04619 14.9474 7.63931 14.9474H8.46308V11.5789H7.63931C7.04619 11.5789 6.51898 11.2421 6.22242 10.7368C5.92586 10.2316 5.92586 9.5579 6.22242 9.05263C6.51898 8.54737 7.04619 8.21053 7.63931 8.21053H8.46308V7.36842C8.46308 6.45895 8.82554 5.61684 9.41865 4.97684C10.0447 4.33684 10.8685 4 11.7582 4H30.7049C31.5946 4 32.4184 4.37053 33.0444 4.97684C33.6375 5.61684 34 6.45895 34 7.36842ZM21.6434 10.7368C20.556 10.7368 19.5016 11.1747 18.7437 11.9832C17.9859 12.7579 17.5246 13.8358 17.5246 14.9474C17.5246 16.0589 17.9529 17.1368 18.7437 17.9116C19.5016 18.6863 20.556 19.1579 21.6434 19.1579C22.7308 19.1579 23.7852 18.72 24.5431 17.9116C25.301 17.1368 25.7623 16.0589 25.7623 14.9474C25.7623 13.8358 25.3339 12.7579 24.5431 11.9832C23.7852 11.1747 22.7308 10.7368 21.6434 10.7368ZM21.6434 20.8421C19.897 20.8084 18.1836 21.5158 16.9644 22.7958C15.7123 24.0421 15.0203 25.7937 15.0533 27.5789V28.4211C15.0533 28.6568 15.1521 28.8589 15.2839 29.0274C15.4487 29.1958 15.6464 29.2632 15.877 29.2632H27.4098C27.6405 29.2632 27.8382 29.1621 28.0029 29.0274C28.1677 28.8926 28.2336 28.6568 28.2336 28.4211V27.5789C28.2665 25.7937 27.5746 24.0421 26.3225 22.7958C25.1033 21.5158 23.3898 20.8084 21.6434 20.8421Z" fill="black"/>
</svg>
