<svg width="40" height="40" viewBox="0 0 40 40" fill="none" xmlns="http://www.w3.org/2000/svg">
<path d="M21.4273 5.4273V10.7797C21.4273 11.5679 20.7883 12.207 20 12.207C19.2117 12.207 18.5727 11.5679 18.5727 10.7797V5.4273C18.5727 4.63902 19.2117 4 20 4C20.7883 4 21.4273 4.63902 21.4273 5.4273ZM26.5227 14.9046C26.9021 14.9067 27.2668 14.7578 27.5361 14.4906L31.3042 10.7083C31.9029 10.1956 31.9726 9.29454 31.4599 8.69581C30.9472 8.09708 30.0461 8.02737 29.4474 8.54011C29.3916 8.58792 29.3395 8.63998 29.2917 8.69581L25.5094 12.4639C24.9497 13.019 24.946 13.9227 25.5011 14.4824C25.5038 14.4851 25.5066 14.4879 25.5094 14.4906C25.7787 14.7578 26.1434 14.9067 26.5227 14.9046ZM34.5727 18.5727H29.2203C28.4321 18.5727 27.793 19.2117 27.793 20C27.793 20.7883 28.4321 21.4273 29.2203 21.4273H34.5727C35.361 21.4273 36 20.7883 36 20C36 19.2117 35.361 18.5727 34.5727 18.5727ZM27.5361 25.5094C26.9765 24.9497 26.069 24.9497 25.5094 25.5094C24.9497 26.069 24.9497 26.9765 25.5094 27.5361L29.2917 31.3042C29.8484 31.8576 30.7475 31.8576 31.3042 31.3042C31.8576 30.7475 31.8576 29.8484 31.3042 29.2917L27.5361 25.5094ZM20 27.793C19.2117 27.793 18.5727 28.4321 18.5727 29.2203V34.5727C18.5727 35.361 19.2117 36 20 36C20.7883 36 21.4273 35.361 21.4273 34.5727V29.2203C21.4273 28.4321 20.7883 27.793 20 27.793ZM12.4639 25.5094L8.69581 29.2917C8.14241 29.8484 8.14241 30.7475 8.69581 31.3042C9.25251 31.8576 10.1516 31.8576 10.7083 31.3042L14.4906 27.5361C15.0503 26.9765 15.0503 26.069 14.4906 25.5094C13.931 24.9497 13.0235 24.9497 12.4639 25.5094ZM12.207 20C12.207 19.2117 11.5679 18.5727 10.7797 18.5727H5.4273C4.63902 18.5727 4 19.2117 4 20C4 20.7883 4.63902 21.4273 5.4273 21.4273H10.7797C11.5679 21.4273 12.207 20.7883 12.207 20ZM10.7797 8.69581C10.2239 8.12037 9.30693 8.10439 8.73149 8.66013C8.15605 9.21586 8.14007 10.1329 8.69581 10.7083L12.4639 14.4906C13.019 15.0503 13.9227 15.054 14.4824 14.4989C14.4851 14.4962 14.4879 14.4934 14.4906 14.4906C15.0503 13.9355 15.054 13.0318 14.4989 12.4721C14.4962 12.4694 14.4934 12.4666 14.4906 12.4639L10.7797 8.69581Z" fill="black"/>
</svg>
