<svg width="20" height="20" viewBox="0 0 20 20" fill="none" xmlns="http://www.w3.org/2000/svg">
<path d="M1.67 18.3333L2.79667 14.1933C2.05428 12.9207 1.66425 11.4733 1.66667 9.99999C1.66667 5.39749 5.3975 1.66666 10 1.66666C14.6025 1.66666 18.3333 5.39749 18.3333 9.99999C18.3333 14.6025 14.6025 18.3333 10 18.3333C8.52732 18.3357 7.08055 17.946 5.80833 17.2042L1.67 18.3333ZM6.9925 6.08999C6.88489 6.09667 6.77973 6.12502 6.68333 6.17332C6.59294 6.22451 6.51041 6.28851 6.43833 6.36332C6.33833 6.45749 6.28167 6.53916 6.22083 6.61832C5.91284 7.01915 5.74718 7.51117 5.75 8.01666C5.75167 8.42499 5.85833 8.82249 6.025 9.19416C6.36583 9.94582 6.92667 10.7417 7.6675 11.4792C7.84583 11.6567 8.02 11.835 8.2075 12.0008C9.12699 12.8104 10.2227 13.3942 11.4075 13.7058L11.8817 13.7783C12.0358 13.7867 12.19 13.775 12.345 13.7675C12.5877 13.755 12.8247 13.6892 13.0392 13.575C13.1775 13.5017 13.2425 13.465 13.3583 13.3917C13.3583 13.3917 13.3942 13.3683 13.4625 13.3167C13.575 13.2333 13.6442 13.1742 13.7375 13.0767C13.8067 13.005 13.8667 12.9208 13.9125 12.825C13.9775 12.6892 14.0425 12.43 14.0692 12.2142C14.0892 12.0492 14.0833 11.9592 14.0808 11.9033C14.0775 11.8142 14.0033 11.7217 13.9225 11.6825L13.4375 11.465C13.4375 11.465 12.7125 11.1492 12.27 10.9475C12.2233 10.9272 12.1733 10.9156 12.1225 10.9133C12.0655 10.9075 12.0079 10.9139 11.9535 10.9321C11.8992 10.9504 11.8494 10.9801 11.8075 11.0192V11.0175C11.8033 11.0175 11.7475 11.065 11.145 11.795C11.1104 11.8415 11.0628 11.8766 11.0082 11.8959C10.9536 11.9152 10.8944 11.9178 10.8383 11.9033C10.784 11.8888 10.7308 11.8704 10.6792 11.8483C10.5758 11.805 10.54 11.7883 10.4692 11.7575L10.465 11.7558C9.98826 11.5477 9.54685 11.2665 9.15667 10.9225C9.05167 10.8308 8.95417 10.7308 8.85417 10.6342C8.52632 10.3202 8.2406 9.965 8.00417 9.57749L7.955 9.49832C7.91969 9.44513 7.89113 9.38774 7.87 9.32749C7.83833 9.20499 7.92083 9.10666 7.92083 9.10666C7.92083 9.10666 8.12333 8.88499 8.2175 8.76499C8.29591 8.66526 8.36906 8.56151 8.43667 8.45416C8.535 8.29582 8.56583 8.13332 8.51417 8.00749C8.28083 7.43749 8.03917 6.86999 7.79083 6.30666C7.74167 6.19499 7.59583 6.11499 7.46333 6.09916C7.41833 6.09416 7.37333 6.08916 7.32833 6.08582C7.21642 6.08026 7.10428 6.08138 6.9925 6.08916V6.08999Z" fill="white"/>
</svg>
