<svg width="40" height="40" viewBox="0 0 40 40" fill="none" xmlns="http://www.w3.org/2000/svg">
<path d="M20.0758 24.549C22.1402 24.5492 23.8141 26.2171 23.8141 28.2746C23.8139 30.332 22.1402 31.9999 20.0758 32.0002C18.0112 32.0002 16.3366 30.3321 16.3365 28.2746C16.3365 26.2169 18.0111 24.549 20.0758 24.549Z" fill="black"/>
<path d="M11.731 19.2961C14.8559 16.182 19.2574 15.1009 23.275 16.0851C24.1576 19.3633 27.0705 21.808 30.5826 21.9884C30.5498 22.5583 30.315 23.0899 29.9068 23.4953C28.9992 24.4013 27.5256 24.403 26.6226 23.5031L25.691 22.6027C22.7585 19.6817 17.9854 19.6821 15.0514 22.6046L13.7603 23.8918C12.8496 24.8006 11.3631 24.7985 10.4478 23.8849C9.53404 22.9742 9.52875 21.4923 10.441 20.5832L11.19 19.8371L11.731 19.2961Z" fill="black"/>
<path d="M6.13925 13.6476C11.333 8.66833 18.5461 6.98245 25.108 8.58902C24.1184 9.66594 23.4219 11.0149 23.1402 12.5109C18.2097 11.6098 12.9363 13.0158 9.07772 16.7306C9.06851 16.7383 9.06056 16.7487 9.05136 16.7609L7.64901 18.1574C6.81696 18.9879 5.46561 18.9816 4.63046 18.1496C3.79376 17.3157 3.78873 15.9686 4.62069 15.1408L6.02304 13.7414C6.06001 13.7045 6.10228 13.6814 6.13925 13.6476Z" fill="black"/>
<path fill-rule="evenodd" clip-rule="evenodd" d="M31.0048 7.0011C32.8592 7.00367 34.6368 7.74283 35.9481 9.05676C37.2596 10.3708 37.9974 12.1525 37.9999 14.0109C37.9715 21.0216 28.7866 23.6359 25.0868 17.7374C22.1232 13.2346 25.5916 6.91596 31.0048 7.0011ZM30.9999 12.3946C30.6072 12.3947 30.289 12.7129 30.289 13.1056V17.6847C30.289 18.0774 30.6072 18.3956 30.9999 18.3956C31.3927 18.3956 31.7108 18.0774 31.7108 17.6847V13.1056C31.7108 12.7129 31.3926 12.3946 30.9999 12.3946ZM30.9999 9.60363C30.4698 9.60367 30.0401 10.0335 30.0399 10.5636C30.0399 11.0938 30.4697 11.5235 30.9999 11.5236C31.5301 11.5236 31.9599 11.0938 31.9599 10.5636C31.9598 10.0335 31.53 9.60363 30.9999 9.60363Z" fill="black"/>
</svg>
