<svg width="40" height="40" viewBox="0 0 40 40" fill="none" xmlns="http://www.w3.org/2000/svg">
<path fill-rule="evenodd" clip-rule="evenodd" d="M20 4C21.8357 4 23.5234 4.85537 24.6201 6.33398C24.9706 6.80636 25.5344 7.08876 26.1211 7.08887L26.2578 7.08496C26.3036 7.08159 26.35 7.07606 26.3955 7.06934C26.6789 7.02733 26.9654 7.00595 27.252 7.00586C28.785 7.00589 30.2306 7.60371 31.3135 8.68652C32.6117 9.98476 33.2009 11.783 32.9307 13.6045C32.8809 13.9388 32.9233 14.2815 33.0527 14.5938C33.166 14.8669 33.3421 15.109 33.5664 15.2998L33.665 15.3789L33.666 15.3799C35.1447 16.4767 36 18.1643 36 20C36 21.8357 35.1447 23.5233 33.666 24.6201L33.665 24.6211C33.3934 24.8222 33.1822 25.094 33.0527 25.4062C32.9394 25.6796 32.8924 25.9757 32.916 26.2695L32.9307 26.3945C33.201 28.216 32.6117 30.0152 31.3135 31.3135C30.2309 32.3961 28.7856 32.994 27.2529 32.9941C26.9665 32.994 26.6789 32.9727 26.3955 32.9307C26.3503 32.924 26.3043 32.9184 26.2588 32.915L26.1221 32.9111C25.5344 32.9112 24.9704 33.1939 24.6201 33.666C23.5233 35.1447 21.8357 36 20 36C18.1643 36 16.4767 35.1447 15.3799 33.666C15.0295 33.1937 14.4657 32.9112 13.8789 32.9111C13.8336 32.9111 13.7877 32.9117 13.7422 32.915L13.6045 32.9307C13.3211 32.9727 13.0346 32.9941 12.748 32.9941C11.215 32.9941 9.76931 32.3963 8.68652 31.3135C7.38829 30.0152 6.79909 28.2169 7.06934 26.3955L7.08398 26.2695C7.10762 25.9757 7.06057 25.6796 6.94727 25.4062C6.81784 25.094 6.60665 24.8222 6.33496 24.6211L6.33398 24.6201C4.85533 23.5232 4 21.8357 4 20C4 18.1643 4.85534 16.4767 6.33398 15.3799L6.33496 15.3789C6.60668 15.1778 6.81783 14.906 6.94727 14.5938C7.07668 14.2815 7.11914 13.9398 7.06934 13.6055C6.799 11.784 7.38832 9.98475 8.68652 8.68652C9.76936 7.60376 11.2151 7.00589 12.748 7.00586C13.0338 7.00587 13.3217 7.02737 13.6045 7.06934C13.6945 7.0827 13.7872 7.08887 13.8779 7.08887C14.4656 7.08877 15.0296 6.80608 15.3799 6.33398C16.4766 4.85527 18.1643 4 20 4ZM25.1768 22.8232C23.8773 22.8232 22.8232 23.8773 22.8232 25.1768C22.8234 26.4761 23.8774 27.5293 25.1768 27.5293C26.476 27.5291 27.5291 26.476 27.5293 25.1768C27.5293 23.8774 26.4761 22.8234 25.1768 22.8232ZM26.6553 13.3457C26.1721 12.8626 25.3894 12.8626 24.9062 13.3457L13.3457 24.9062C12.8626 25.3894 12.8626 26.1721 13.3457 26.6553C13.8289 27.1384 14.6116 27.1384 15.0947 26.6553L26.6553 15.0947C27.1384 14.6116 27.1384 13.8289 26.6553 13.3457ZM14.8232 12.4707C13.524 12.4709 12.4709 13.524 12.4707 14.8232C12.4707 16.1226 13.5239 17.1766 14.8232 17.1768C16.1227 17.1768 17.1768 16.1227 17.1768 14.8232C17.1766 13.5239 16.1226 12.4707 14.8232 12.4707Z" fill="black"/>
</svg>
