<svg width="40" height="40" viewBox="0 0 40 40" fill="none" xmlns="http://www.w3.org/2000/svg">
<path d="M8.63057 8.73178C2.42292 15.0069 2.45666 25.1618 8.73178 31.3694C15.0069 37.5771 25.1618 37.5433 31.3694 31.2682C37.5771 24.9931 37.5433 14.8382 31.2682 8.63057C24.9931 2.42292 14.8382 2.45666 8.63057 8.73178ZM27.7933 16.9299L19.0891 25.7353C18.3469 26.4775 17.1323 26.4775 16.3901 25.7353L16.0527 25.398L15.0406 24.3858L12.2067 21.5856C11.4645 20.8434 11.4645 19.6289 12.2067 18.8867C12.9489 18.1445 14.1635 18.1445 14.9057 18.8867L17.7396 21.6869L25.0943 14.2647C25.8365 13.5225 27.0511 13.5225 27.7933 14.2647C28.5355 14.9732 28.5355 16.1877 27.7933 16.9299Z" fill="black"/>
</svg>
