<svg width="40" height="40" viewBox="0 0 40 40" fill="none" xmlns="http://www.w3.org/2000/svg">
<path d="M9.33333 16C11.5425 16 13.3333 14.2091 13.3333 12C13.3333 9.79086 11.5425 8 9.33333 8C7.12419 8 5.33333 9.79086 5.33333 12C5.33333 14.2091 7.12419 16 9.33333 16Z" fill="black"/>
<path d="M13.72 18.76C12.378 19.5974 11.2712 20.7626 10.5038 22.1458C9.73634 23.529 9.33356 25.0848 9.33333 26.6667H6.66667C5.96007 26.6646 5.28302 26.3829 4.78338 25.8833C4.28374 25.3836 4.00211 24.7066 4 24V21.3333C4.00317 20.2734 4.42561 19.2579 5.17507 18.5084C5.92453 17.7589 6.94011 17.3365 8 17.3333H10.6667C11.2488 17.3346 11.8236 17.463 12.3509 17.7094C12.8783 17.9558 13.3455 18.3144 13.72 18.76Z" fill="black"/>
<path d="M30.6667 16C32.8758 16 34.6667 14.2091 34.6667 12C34.6667 9.79086 32.8758 8 30.6667 8C28.4575 8 26.6667 9.79086 26.6667 12C26.6667 14.2091 28.4575 16 30.6667 16Z" fill="black"/>
<path d="M36 21.3333V24C35.9979 24.7066 35.7163 25.3836 35.2166 25.8833C34.717 26.3829 34.0399 26.6646 33.3333 26.6667H30.6667C30.6664 25.0848 30.2637 23.529 29.4962 22.1458C28.7288 20.7626 27.622 19.5974 26.28 18.76C26.6545 18.3144 27.1217 17.9558 27.6491 17.7094C28.1764 17.463 28.7512 17.3346 29.3333 17.3333H32C33.0599 17.3365 34.0755 17.7589 34.8249 18.5084C35.5744 19.2579 35.9968 20.2734 36 21.3333Z" fill="black"/>
<path d="M20 18.6667C22.9455 18.6667 25.3333 16.2789 25.3333 13.3333C25.3333 10.3878 22.9455 8 20 8C17.0545 8 14.6667 10.3878 14.6667 13.3333C14.6667 16.2789 17.0545 18.6667 20 18.6667Z" fill="black"/>
<path d="M28 26.6667V28C27.9968 29.0599 27.5744 30.0755 26.8249 30.8249C26.0755 31.5744 25.0599 31.9968 24 32H16C14.9401 31.9968 13.9245 31.5744 13.1751 30.8249C12.4256 30.0755 12.0032 29.0599 12 28V26.6667C12 24.8986 12.7024 23.2029 13.9526 21.9526C15.2029 20.7024 16.8986 20 18.6667 20H21.3333C23.1014 20 24.7971 20.7024 26.0474 21.9526C27.2976 23.2029 28 24.8986 28 26.6667Z" fill="black"/>
</svg>
