<svg width="40" height="40" viewBox="0 0 40 40" fill="none" xmlns="http://www.w3.org/2000/svg">
<path d="M14.6543 19.3078L23.901 28.5874C23.9436 27.7639 23.9805 25.9467 23.6693 23.7694C23.1086 19.8452 21.6666 16.6211 19.499 14.4459C17.3314 12.2706 14.1188 10.8234 10.2085 10.2607C7.29901 9.84193 5.03345 10.0511 4.93845 10.0603C4.47301 10.105 4.10457 10.4747 4.06007 10.9418C4.05095 11.0372 3.84251 13.3107 4.2597 16.2307C4.82038 20.1548 6.26245 23.379 8.43007 25.5542C10.5976 27.7294 13.8103 29.1767 17.7205 29.7394C19.1606 29.9466 20.4426 30 21.382 30C21.8577 30 22.2454 29.9863 22.5213 29.9718L13.2746 20.6924C12.8936 20.3101 12.8936 19.6901 13.2746 19.3077C13.6556 18.9255 14.2733 18.9255 14.6543 19.3078Z" fill="black"/>
<path d="M35.9566 16.8517C35.9121 16.3846 35.5437 16.0148 35.0783 15.9702C34.8175 15.9452 28.6503 15.3991 25.059 19.0033C24.9191 19.1436 24.7858 19.2881 24.6581 19.4358C25.0786 20.6975 25.3954 22.0537 25.6008 23.4915C25.6665 23.9519 25.7177 24.3962 25.7575 24.8209L28.3067 22.2626C28.6876 21.8803 29.3054 21.8803 29.6865 22.2626C30.0675 22.6449 30.0675 23.2649 29.6865 23.6473L25.8813 27.466C25.8803 28.4641 25.8237 29.1147 25.8113 29.2446C25.7895 29.4744 25.7408 29.6962 25.6693 29.9075C27.8365 29.7064 30.8281 29.0203 32.9343 26.9067C36.5256 23.3026 35.9816 17.1135 35.9566 16.8517Z" fill="black"/>
</svg>
