<svg width="40" height="40" viewBox="0 0 40 40" fill="none" xmlns="http://www.w3.org/2000/svg">
<path d="M33.4603 30.1587C33.4584 31.7073 32.8423 33.192 31.7473 34.287C30.6523 35.382 29.1677 35.9981 27.619 36H12.3809C10.8323 35.9981 9.34771 35.382 8.25268 34.287C7.15765 33.192 6.54161 31.7073 6.53967 30.1587C6.54212 27.2632 7.69347 24.4869 9.74096 22.4394C11.7884 20.3919 14.5647 19.2405 17.4603 19.2381H22.5397C25.4353 19.2405 28.2115 20.3919 30.259 22.4394C32.3065 24.4869 33.4579 27.2632 33.4603 30.1587Z" fill="black"/>
<path d="M20 17.7143C23.7871 17.7143 26.8571 14.6442 26.8571 10.8571C26.8571 7.07005 23.7871 4 20 4C16.2129 4 13.1428 7.07005 13.1428 10.8571C13.1428 14.6442 16.2129 17.7143 20 17.7143Z" fill="black"/>
</svg>
