<svg width="32" height="32" viewBox="0 0 32 32" fill="none" xmlns="http://www.w3.org/2000/svg">
<path d="M26.7415 22.086L25.2197 19.8372C25.012 19.5315 24.9002 19.1679 24.8993 18.7951V12.3414C24.8993 9.91701 23.9617 7.59191 22.2928 5.8776C20.6239 4.16329 18.3603 3.2002 16 3.2002C13.6398 3.2002 11.3762 4.16329 9.70731 5.8776C8.03837 7.59191 7.10077 9.91701 7.10077 12.3414V18.7951C7.09991 19.1679 6.98812 19.5315 6.78039 19.8372L5.25861 22.086C5.02819 22.3482 4.87667 22.6734 4.82237 23.0222C4.76808 23.3711 4.81332 23.7286 4.95265 24.0515C5.09198 24.3745 5.31941 24.6491 5.60745 24.8421C5.89549 25.0351 6.2318 25.1383 6.57571 25.1391H11.6394C11.8437 26.1723 12.3894 27.1013 13.1841 27.7685C13.9788 28.4357 14.9736 28.8002 16 28.8002C17.0265 28.8002 18.0213 28.4357 18.816 27.7685C19.6107 27.1013 20.1564 26.1723 20.3607 25.1391H25.4244C25.7683 25.1383 26.1046 25.0351 26.3926 24.8421C26.6807 24.6491 26.9081 24.3745 27.0474 24.0515C27.1868 23.7286 27.232 23.3711 27.1777 23.0222C27.1234 22.6734 26.9719 22.3482 26.7415 22.086ZM16 26.9674C15.4492 26.9658 14.9124 26.7892 14.4631 26.4619C14.0138 26.1346 13.6741 25.6726 13.4905 25.1391H18.5096C18.326 25.6726 17.9863 26.1346 17.537 26.4619C17.0877 26.7892 16.5509 26.9658 16 26.9674ZM6.57571 23.3109C6.61593 23.2725 6.65176 23.2296 6.6825 23.1829L8.23987 20.8793C8.65533 20.2679 8.8789 19.5407 8.88062 18.7951V12.3414C8.88062 10.4019 9.6307 8.54181 10.9659 7.17036C12.301 5.79891 14.1119 5.02844 16 5.02844C17.8882 5.02844 19.6991 5.79891 21.0342 7.17036C22.3694 8.54181 23.1195 10.4019 23.1195 12.3414V18.7951C23.1212 19.5407 23.3448 20.2679 23.7602 20.8793L25.3176 23.1829C25.3483 23.2296 25.3842 23.2725 25.4244 23.3109H6.57571Z" fill="#2D848D"/>
<path d="M7.85047 19.909C7.85047 22.2921 5.73157 23.8819 5.73157 23.8819H26.2849C26.8146 21.922 24.7679 23.5418 24.2719 19.3456C23.4244 12.1749 25.2549 4.86637 15.2081 4.57088C7.17067 4.33448 7.85047 17.5259 7.85047 19.909Z" fill="#2D848D"/>
</svg>
