<svg width="40" height="40" viewBox="0 0 40 40" fill="none" xmlns="http://www.w3.org/2000/svg">
<path d="M18.3224 5.71315C17.0039 3.42895 13.7076 3.42895 12.3891 5.71315L4.46405 19.4426C3.14555 21.7267 4.79368 24.582 7.43071 24.582H23.2809C25.9178 24.582 27.566 21.7267 26.2475 19.4426L18.3224 5.71315Z" fill="black"/>
<path d="M24.9997 36C19.9349 36 15.6696 32.5766 14.3908 27.9169C14.2587 27.4355 14.6374 26.9822 15.1366 26.9822H23.2809C27.7652 26.9822 30.5677 22.1269 28.3255 18.2426L26.6561 15.3504C26.3339 14.7921 26.7708 14.1175 27.4 14.2575C32.321 15.353 36 19.7455 36 24.9975C36 31.074 31.075 36 24.9997 36Z" fill="black"/>
</svg>
