<svg width="40" height="40" viewBox="0 0 40 40" fill="none" xmlns="http://www.w3.org/2000/svg">
<path d="M20 36C20.8441 36 21.5254 35.3083 21.5254 34.4516V27.8451C25.939 27.1019 29.3152 23.2206 29.3152 18.5342V14.1884H30.4746C31.3085 14.1884 32 13.4968 32 12.64C32 11.7832 31.3085 11.0916 30.4746 11.0916H26.8949V5.54839C26.8949 4.69159 26.2136 4 25.3695 4C24.5254 4 23.8441 4.69159 23.8441 5.54839V11.0916H16.1559V5.54839C16.1559 4.69159 15.4746 4 14.6305 4C13.7864 4 13.105 4.69159 13.105 5.54839V11.0916H9.52543C8.69152 11.0916 8 11.7832 8 12.64C8 13.4968 8.69152 14.1884 9.52543 14.1884H10.6848V18.5342C10.6848 23.2206 14.061 27.1019 18.4746 27.8451V34.4516C18.4746 35.3083 19.1559 36 20 36Z" fill="black"/>
</svg>
