<svg width="40" height="40" viewBox="0 0 40 40" fill="none" xmlns="http://www.w3.org/2000/svg">
<path d="M3.75 13.75V11.875C3.75182 10.3837 4.34504 8.95403 5.39953 7.89953C6.45403 6.84504 7.88372 6.25182 9.375 6.25H11.25V8.125C11.25 8.78804 11.5134 9.42393 11.9822 9.89277C12.4511 10.3616 13.087 10.625 13.75 10.625C14.413 10.625 15.0489 10.3616 15.5178 9.89277C15.9866 9.42393 16.25 8.78804 16.25 8.125V6.25H23.75V8.125C23.75 8.78804 24.0134 9.42393 24.4822 9.89277C24.9511 10.3616 25.587 10.625 26.25 10.625C26.913 10.625 27.5489 10.3616 28.0178 9.89277C28.4866 9.42393 28.75 8.78804 28.75 8.125V6.25H30.625C32.1163 6.25182 33.546 6.84504 34.6005 7.89953C35.655 8.95403 36.2482 10.3837 36.25 11.875V13.75H3.75ZM12.5 8.125C12.5 8.45652 12.6317 8.77446 12.8661 9.00888C13.1005 9.2433 13.4185 9.375 13.75 9.375C14.0815 9.375 14.3995 9.2433 14.6339 9.00888C14.8683 8.77446 15 8.45652 15 8.125V5C15 4.66848 14.8683 4.35054 14.6339 4.11612C14.3995 3.8817 14.0815 3.75 13.75 3.75C13.4185 3.75 13.1005 3.8817 12.8661 4.11612C12.6317 4.35054 12.5 4.66848 12.5 5V8.125ZM25 5V8.125C25 8.45652 25.1317 8.77446 25.3661 9.00888C25.6005 9.2433 25.9185 9.375 26.25 9.375C26.5815 9.375 26.8995 9.2433 27.1339 9.00888C27.3683 8.77446 27.5 8.45652 27.5 8.125V5C27.5 4.66848 27.3683 4.35054 27.1339 4.11612C26.8995 3.8817 26.5815 3.75 26.25 3.75C25.9185 3.75 25.6005 3.8817 25.3661 4.11612C25.1317 4.35054 25 4.66848 25 5ZM36.25 15V28.125C36.2482 29.6163 35.655 31.046 34.6005 32.1005C33.546 33.155 32.1163 33.7482 30.625 33.75H9.375C7.88372 33.7482 6.45403 33.155 5.39953 32.1005C4.34504 31.046 3.75182 29.6163 3.75 28.125V15H36.25ZM24.5669 22.0681H21.9863L21.1875 19.6138C21.1053 19.3637 20.9462 19.1459 20.733 18.9915C20.5198 18.8372 20.2632 18.7541 20 18.7541C19.7368 18.7541 19.4802 18.8372 19.267 18.9915C19.0538 19.1459 18.8947 19.3637 18.8125 19.6138L18.015 22.0681H15.4331C15.1691 22.0681 14.9119 22.1516 14.6983 22.3067C14.4847 22.4619 14.3257 22.6807 14.2441 22.9317C14.1625 23.1828 14.1625 23.4532 14.244 23.7043C14.3256 23.9554 14.4846 24.1742 14.6981 24.3294L16.7863 25.8463L15.9888 28.3006C15.9071 28.5517 15.9071 28.8222 15.9887 29.0733C16.0703 29.3244 16.2293 29.5432 16.4429 29.6983C16.6565 29.8535 16.9137 29.9371 17.1777 29.937C17.4417 29.937 17.6989 29.8534 17.9125 29.6981L20 28.1812L22.0875 29.6981C22.3011 29.8534 22.5583 29.937 22.8223 29.937C23.0863 29.9371 23.3435 29.8535 23.5571 29.6983C23.7707 29.5432 23.9297 29.3244 24.0113 29.0733C24.0929 28.8222 24.0929 28.5517 24.0112 28.3006L23.2137 25.8463L25.3019 24.3294C25.5154 24.1742 25.6744 23.9554 25.756 23.7043C25.8375 23.4532 25.8375 23.1828 25.7559 22.9317C25.6743 22.6807 25.5153 22.4619 25.3017 22.3067C25.0881 22.1516 24.8309 22.0681 24.5669 22.0681Z" fill="black"/>
</svg>
