<svg width="40" height="40" viewBox="0 0 40 40" fill="none" xmlns="http://www.w3.org/2000/svg">
<path d="M20 4C16.8355 4 13.7421 4.93838 11.1109 6.69649C8.4797 8.45459 6.42894 10.9534 5.21793 13.8771C4.00693 16.8007 3.69008 20.0177 4.30744 23.1214C4.92481 26.2251 6.44866 29.0761 8.6863 31.3137C10.9239 33.5513 13.7749 35.0752 16.8786 35.6926C19.9823 36.3099 23.1993 35.9931 26.1229 34.7821C29.0466 33.5711 31.5454 31.5203 33.3035 28.8891C35.0616 26.2579 36 23.1645 36 20C35.995 15.7581 34.3077 11.6913 31.3082 8.69182C28.3087 5.69232 24.2419 4.005 20 4ZM25.392 25.392C25.1192 25.6647 24.7493 25.8179 24.3636 25.8179C23.9779 25.8179 23.608 25.6647 23.3353 25.392L18.9716 21.0284C18.6988 20.7556 18.5455 20.3857 18.5455 20V11.2727C18.5455 10.887 18.6987 10.517 18.9715 10.2442C19.2443 9.97143 19.6142 9.81818 20 9.81818C20.3858 9.81818 20.7557 9.97143 21.0285 10.2442C21.3013 10.517 21.4545 10.887 21.4545 11.2727V19.3978L25.392 23.3353C25.6647 23.608 25.8179 23.9779 25.8179 24.3636C25.8179 24.7493 25.6647 25.1192 25.392 25.392Z" fill="black"/>
</svg>
