<svg width="40" height="40" viewBox="0 0 40 40" fill="none" xmlns="http://www.w3.org/2000/svg">
<path d="M20.3784 13.664H20C19.8218 13.6569 19.6477 13.6091 19.4915 13.5244C19.3353 13.4397 19.2013 13.3204 19.1 13.176C18.9987 13.0316 18.9329 12.8659 18.9079 12.6922C18.8829 12.5185 18.8992 12.3414 18.9557 12.175C19.4854 10.8646 19.9697 9.52443 20.3632 8.21405C20.6962 7.20149 21.9978 4.02978 25.267 4.02978C26.5411 3.98961 27.7794 4.44839 28.7101 5.30543C29.6408 6.16247 30.1879 7.34776 30.2313 8.60121C30.2313 11.4751 26.9168 12.6515 25.6908 13.0684C23.9576 13.5134 22.1689 13.7139 20.3784 13.664ZM25.2519 6.21871C23.5114 6.21871 22.7243 8.19916 22.5276 8.80968C22.2551 9.67334 21.9676 10.537 21.6497 11.4007C22.7348 11.3939 23.814 11.2436 24.8584 10.9539C25.7211 10.6561 27.8854 9.85202 27.8854 8.55654C27.8388 7.90749 27.5385 7.30144 27.0474 6.86555C26.5564 6.42967 25.9129 6.19784 25.2519 6.21871Z" fill="black"/>
<path d="M19.5762 13.664C17.8246 13.6944 16.0773 13.4839 14.3849 13.0386C10.6162 11.8325 9.84432 9.94137 9.84432 8.57143C9.85065 7.99281 9.97594 7.42143 10.2126 6.8917C10.4493 6.36197 10.7926 5.88485 11.2216 5.48906C12.1757 4.54473 13.4704 4.00952 14.8238 4C17.3665 4 18.653 6.33783 19.6065 8.00558C20.2261 9.37275 20.7323 10.787 21.12 12.2345C21.1669 12.3988 21.1749 12.5714 21.1434 12.7392C21.1119 12.907 21.0418 13.0655 20.9384 13.2024C20.8381 13.3407 20.7067 13.4544 20.5544 13.5344C20.4022 13.6145 20.2331 13.6589 20.0605 13.664H19.5762ZM14.6573 6.21871C13.9386 6.24916 13.2601 6.55356 12.7654 7.06747C12.5497 7.25465 12.3752 7.48336 12.2529 7.73948C12.1305 7.99559 12.0629 8.27368 12.0541 8.55654C12.0541 9.46487 13.1741 10.3434 15.0811 10.9539C16.1938 11.2369 17.3372 11.3869 18.4865 11.4007C18.2417 10.6077 17.9434 9.83162 17.5935 9.07771L18.4865 8.54165L17.5027 9.07771C16.6249 7.42485 15.8681 6.24849 14.7027 6.21871H14.6573Z" fill="black"/>
<path d="M34 17.3867V15.5254C34 14.4393 33.5615 13.3978 32.7809 12.6298C32.0004 11.8619 30.9417 11.4304 29.8378 11.4304H10.1622C9.05829 11.4304 7.99963 11.8619 7.21907 12.6298C6.43851 13.3978 6 14.4393 6 15.5254V17.3867H34Z" fill="black"/>
<path d="M21.1351 19.6203V36H29.8378C30.9417 36 32.0004 35.5686 32.7809 34.8006C33.5615 34.0327 34 32.9911 34 31.9051V19.6203H21.1351Z" fill="black"/>
<path d="M18.8649 19.6203H6V31.9051C6 32.9911 6.43851 34.0327 7.21907 34.8006C7.99963 35.5686 9.05829 36 10.1622 36H18.8649V19.6203Z" fill="black"/>
</svg>
