<svg width="40" height="40" viewBox="0 0 40 40" fill="none" xmlns="http://www.w3.org/2000/svg">
<path d="M16.7899 27.9804L28.0065 16.776C30.1266 17.2621 32.4554 16.7066 34.0889 15.0401C35.792 13.3389 36.3481 10.978 35.792 8.82538C35.6877 8.47819 35.2359 8.37403 34.9926 8.61707L32.3859 11.221C31.4474 12.1584 29.9876 12.2973 28.9449 11.5335C27.6937 10.5614 27.5894 8.75596 28.7016 7.67967L31.3779 5.0063C31.656 4.72856 31.5169 4.27721 31.1694 4.20777C29.0144 3.65228 26.6162 4.20777 24.9479 5.90901C23.3143 7.54081 22.7235 9.86699 23.2101 11.9848L11.9935 23.1892C9.87336 22.7032 7.54465 23.2587 5.91108 24.9252C4.208 26.6264 3.6519 28.9873 4.208 31.1746C4.31226 31.5218 4.7641 31.626 5.0074 31.3829L7.61415 28.779C8.55259 27.8416 10.0124 27.7027 11.0551 28.4665C12.3063 29.4387 12.4106 31.244 11.2984 32.3203L8.6221 34.9937C8.34405 35.2714 8.48307 35.7228 8.83064 35.7922C10.9856 36.3477 13.3838 35.7922 15.0868 34.091C16.7204 32.4245 17.3113 30.0983 16.7899 27.9804Z" fill="black"/>
</svg>
