<svg width="40" height="40" viewBox="0 0 40 40" fill="none" xmlns="http://www.w3.org/2000/svg">
<path d="M31.8853 6H8.11472C7.51128 6.00047 6.92094 6.174 6.41536 6.49952C5.90978 6.82504 5.51069 7.28856 5.26654 7.83383C5.02239 8.3791 4.94366 8.98266 5.03991 9.57128C5.13617 10.1599 5.40327 10.7083 5.80879 11.1498L16.1105 22.3443V32.9019C16.1106 33.1083 16.1695 33.3105 16.2806 33.4853C16.3916 33.6601 16.5503 33.8004 16.7384 33.8902C16.8887 33.9634 17.0542 34.001 17.2218 34C17.4743 33.9998 17.7193 33.9146 17.9163 33.7584L20 32.1114L23.4728 29.3663C23.6027 29.2635 23.7077 29.1331 23.7798 28.9849C23.8519 28.8366 23.8894 28.6743 23.8895 28.5098V22.3443L34.1912 11.1498C34.5967 10.7083 34.8638 10.1599 34.9601 9.57128C35.0563 8.98266 34.9776 8.3791 34.7335 7.83383C34.4893 7.28856 34.0902 6.82504 33.5846 6.49952C33.0791 6.174 32.4887 6.00047 31.8853 6Z" fill="black"/>
</svg>
