<svg width="40" height="40" viewBox="0 0 40 40" fill="none" xmlns="http://www.w3.org/2000/svg">
<rect x="11" y="10" width="17" height="16" rx="8" fill="white"/>
<path d="M20.0032 6C23.0204 6.00455 25.9123 7.18646 28.0442 9.28613C30.1763 11.3861 31.3743 14.2327 31.3743 17.2002C31.4108 20.799 30.3455 24.3254 28.3177 27.3213C26.2899 30.3172 23.3931 32.6443 20.0032 34C16.6121 32.6452 13.7138 30.3183 11.6849 27.3223C9.65597 24.3263 8.59024 20.7997 8.62627 17.2002C8.62627 14.2317 9.82406 11.3843 11.9573 9.28418C14.0906 7.18412 16.9848 6.00297 20.0032 6ZM15.5345 12C15.1278 12.0001 14.7374 12.162 14.4495 12.4492C14.1621 12.7372 14.0003 13.1283 14.0003 13.5352V22.4648C14.0003 22.8717 14.1621 23.2628 14.4495 23.5508C14.7374 23.838 15.1278 23.9999 15.5345 24H24.4651C24.872 24 25.2631 23.8382 25.5511 23.5508C25.8384 23.2628 26.0003 22.8717 26.0003 22.4648V13.5352C26.0003 13.1283 25.8384 12.7372 25.5511 12.4492C25.2631 12.1618 24.872 12 24.4651 12H15.5345ZM20.3987 13.6924C22.5994 13.8939 24.3255 15.7472 24.3255 18C24.3255 20.2527 22.5993 22.1051 20.3987 22.3066C20.4103 22.2684 20.4182 22.2285 20.4183 22.1865V21.3486C20.4182 21.1177 20.2312 20.9308 20.0003 20.9307C19.7693 20.9307 19.5815 21.1177 19.5813 21.3486V22.1865C19.5814 22.2285 19.5893 22.2684 19.6009 22.3066C17.4005 22.1048 15.6741 20.2526 15.6741 18C15.6741 15.7474 17.4005 13.8941 19.6009 13.6924C19.5892 13.7308 19.5814 13.7712 19.5813 13.8135V14.6514C19.5815 14.8823 19.7693 15.0693 20.0003 15.0693C20.2312 15.0692 20.4182 14.8823 20.4183 14.6514V13.8135C20.4182 13.7712 20.4105 13.7309 20.3987 13.6924ZM18.3255 17.3027C17.9402 17.3028 17.6282 17.6147 17.6282 18C17.6282 18.3853 17.9402 18.6972 18.3255 18.6973C18.7108 18.6973 19.0237 18.3853 19.0237 18C19.0237 17.6147 18.7108 17.3027 18.3255 17.3027ZM21.6741 17.3027C21.289 17.3029 20.9769 17.6148 20.9769 18C20.9769 18.3852 21.289 18.6971 21.6741 18.6973C22.0594 18.6973 22.3724 18.3853 22.3724 18C22.3724 17.6147 22.0594 17.3027 21.6741 17.3027Z" fill="black"/>
</svg>
