<svg width="40" height="40" viewBox="0 0 40 40" fill="none" xmlns="http://www.w3.org/2000/svg">
<path d="M20 26.4C21.2658 26.4 22.5032 26.0246 23.5557 25.3214C24.6081 24.6182 25.4284 23.6186 25.9128 22.4492C26.3972 21.2797 26.524 19.9929 26.277 18.7514C26.0301 17.5099 25.4205 16.3696 24.5255 15.4745C23.6304 14.5795 22.4901 13.9699 21.2486 13.723C20.0071 13.476 18.7203 13.6028 17.5508 14.0872C16.3814 14.5716 15.3818 15.3919 14.6786 16.4444C13.9754 17.4968 13.6 18.7342 13.6 20C13.6 21.6974 14.2743 23.3253 15.4745 24.5255C16.6747 25.7257 18.3026 26.4 20 26.4ZM20 15.7333C20.8439 15.7333 21.6688 15.9836 22.3704 16.4524C23.0721 16.9212 23.619 17.5876 23.9419 18.3672C24.2648 19.1469 24.3493 20.0047 24.1847 20.8324C24.0201 21.66 23.6137 22.4203 23.017 23.017C22.4203 23.6137 21.66 24.0201 20.8324 24.1847C20.0047 24.3493 19.1468 24.2648 18.3672 23.9419C17.5876 23.619 16.9212 23.0721 16.4524 22.3704C15.9836 21.6688 15.7333 20.8439 15.7333 20C15.7333 18.8684 16.1829 17.7832 16.983 16.983C17.7832 16.1829 18.8684 15.7333 20 15.7333Z" fill="black"/>
<path d="M5.06667 14.6667C5.34956 14.6667 5.62088 14.5543 5.82091 14.3542C6.02095 14.1542 6.13333 13.8829 6.13333 13.6V8.72533C6.13333 8.03789 6.40642 7.37861 6.89251 6.89251C7.37861 6.40642 8.03789 6.13333 8.72533 6.13333H13.6C13.8829 6.13333 14.1542 6.02095 14.3542 5.82091C14.5543 5.62088 14.6667 5.34956 14.6667 5.06667C14.6667 4.78377 14.5543 4.51246 14.3542 4.31242C14.1542 4.11238 13.8829 4 13.6 4H8.72533C8.10479 4 7.49033 4.12222 6.91703 4.35969C6.34372 4.59716 5.82281 4.94523 5.38402 5.38402C4.49785 6.27019 4 7.4721 4 8.72533V13.6C4 13.8829 4.11238 14.1542 4.31242 14.3542C4.51246 14.5543 4.78377 14.6667 5.06667 14.6667Z" fill="black"/>
<path d="M31.2747 4H26.4C26.1171 4 25.8458 4.11238 25.6458 4.31242C25.4457 4.51246 25.3333 4.78377 25.3333 5.06667C25.3333 5.34956 25.4457 5.62088 25.6458 5.82091C25.8458 6.02095 26.1171 6.13333 26.4 6.13333H31.2747C31.9621 6.13333 32.6214 6.40642 33.1075 6.89251C33.5936 7.37861 33.8667 8.03789 33.8667 8.72533V13.6C33.8667 13.8829 33.979 14.1542 34.1791 14.3542C34.3791 14.5543 34.6504 14.6667 34.9333 14.6667C35.2162 14.6667 35.4875 14.5543 35.6876 14.3542C35.8876 14.1542 36 13.8829 36 13.6V8.72533C36 8.10479 35.8778 7.49033 35.6403 6.91703C35.4028 6.34372 35.0548 5.82281 34.616 5.38402C34.1772 4.94523 33.6563 4.59716 33.083 4.35969C32.5097 4.12222 31.8952 4 31.2747 4Z" fill="black"/>
<path d="M34.9333 25.3333C34.6504 25.3333 34.3791 25.4457 34.1791 25.6458C33.979 25.8458 33.8667 26.1171 33.8667 26.4V31.2747C33.8667 31.9621 33.5936 32.6214 33.1075 33.1075C32.6214 33.5936 31.9621 33.8667 31.2747 33.8667H26.4C26.1171 33.8667 25.8458 33.979 25.6458 34.1791C25.4457 34.3791 25.3333 34.6504 25.3333 34.9333C25.3333 35.2162 25.4457 35.4875 25.6458 35.6876C25.8458 35.8876 26.1171 36 26.4 36H31.2747C32.5279 36 33.7298 35.5022 34.616 34.616C35.5022 33.7298 36 32.5279 36 31.2747V26.4C36 26.1171 35.8876 25.8458 35.6876 25.6458C35.4875 25.4457 35.2162 25.3333 34.9333 25.3333Z" fill="black"/>
<path d="M8.72533 36H13.6C13.8829 36 14.1542 35.8876 14.3542 35.6876C14.5543 35.4875 14.6667 35.2162 14.6667 34.9333C14.6667 34.6504 14.5543 34.3791 14.3542 34.1791C14.1542 33.979 13.8829 33.8667 13.6 33.8667H8.72533C8.03789 33.8667 7.37861 33.5936 6.89251 33.1075C6.40642 32.6214 6.13333 31.9621 6.13333 31.2747V26.4C6.13333 26.1171 6.02095 25.8458 5.82091 25.6458C5.62088 25.4457 5.34956 25.3333 5.06667 25.3333C4.78377 25.3333 4.51246 25.4457 4.31242 25.6458C4.11238 25.8458 4 26.1171 4 26.4V31.2747C4 32.5279 4.49785 33.7298 5.38402 34.616C5.82281 35.0548 6.34372 35.4028 6.91703 35.6403C7.49033 35.8778 8.10479 36 8.72533 36Z" fill="black"/>
</svg>
