<svg width="40" height="40" viewBox="0 0 40 40" fill="none" xmlns="http://www.w3.org/2000/svg">
<path d="M29.1344 17.6489H23.4948L28.2992 6.6658C28.4256 6.37714 28.4789 6.06096 28.4544 5.74601C28.4299 5.43106 28.3283 5.12733 28.1588 4.86244C27.9894 4.59755 27.7574 4.37989 27.4841 4.22927C27.2108 4.07865 26.9047 3.99984 26.5937 4H16.3391C15.9476 3.99968 15.5658 4.12471 15.2482 4.35733C14.9305 4.58996 14.6931 4.91835 14.5695 5.29587L9.09603 21.9779C9.00236 22.2629 8.97674 22.5664 9.02126 22.8635C9.06579 23.1605 9.17919 23.4426 9.35212 23.6863C9.52504 23.9301 9.75253 24.1285 10.0158 24.2654C10.2791 24.4022 10.5706 24.4735 10.8664 24.4734H17.3908L15.3763 33.6867C15.2802 34.1017 15.3266 34.5376 15.508 34.922C15.6894 35.3065 15.9948 35.6163 16.3734 35.8001C16.6334 35.9307 16.9194 35.9991 17.2094 36C17.4815 35.999 17.75 35.9369 17.9958 35.8181C18.2415 35.6993 18.4583 35.5268 18.6306 35.3128L30.5681 20.7575C30.7949 20.4807 30.9394 20.1439 30.9847 19.7867C31.03 19.4294 30.9742 19.0664 30.8237 18.7403C30.6733 18.4141 30.4345 18.1382 30.1354 17.9449C29.8362 17.7516 29.489 17.649 29.1344 17.6489Z" fill="black"/>
</svg>
