<svg width="32" height="32" viewBox="0 0 32 32" fill="none" xmlns="http://www.w3.org/2000/svg">
<path d="M20 4C20.6728 3.99979 21.3211 4.25348 21.8145 4.71094C22.3078 5.16839 22.6097 5.79593 22.6602 6.4668L22.667 6.66699C22.6671 6.99345 22.787 7.30877 23.0039 7.55273C23.2208 7.79655 23.5197 7.95198 23.8438 7.99023L24 8H25.333C26.3533 7.99994 27.3358 8.3899 28.0781 9.08984C28.8203 9.78976 29.2673 10.7472 29.3271 11.7656L29.333 12V24C29.3331 25.0203 28.9431 26.0018 28.2432 26.7441C27.5433 27.4863 26.5867 27.9332 25.5684 27.9932L25.333 28H6.66699C5.64671 28.0001 4.6642 27.6101 3.92188 26.9102C3.17973 26.2102 2.7327 25.2528 2.67285 24.2344L2.66699 24V12C2.66694 10.9797 3.05689 9.99819 3.75684 9.25586C4.45669 8.51369 5.41331 8.06678 6.43164 8.00684L6.66699 8H8C8.35355 8 8.69235 7.85932 8.94238 7.60938C9.19235 7.3594 9.33292 7.0205 9.33301 6.66699C9.33279 5.99422 9.58747 5.34585 10.0449 4.85254C10.5023 4.35938 11.1291 4.05733 11.7998 4.00684L12 4H20ZM16 11.9629C13.0546 11.9629 10.6672 14.3506 10.667 17.2959C10.667 20.2414 13.0545 22.6299 16 22.6299C18.9455 22.6299 21.333 20.2414 21.333 17.2959C21.3328 14.3506 18.9454 11.9629 16 11.9629ZM16 13.333C16.7825 13.3329 17.5478 13.5627 18.2012 13.9932C18.8546 14.4238 19.3682 15.0367 19.6768 15.7559C19.9853 16.4751 20.0757 17.2697 19.9375 18.04C19.7992 18.8103 19.4377 19.5228 18.8984 20.0898C18.3591 20.6569 17.6657 21.0538 16.9033 21.2305C16.1409 21.4071 15.3431 21.3561 14.6094 21.084C13.8756 20.8118 13.2373 20.3303 12.7744 19.6992C12.3116 19.0682 12.044 18.3148 12.0049 17.5332L12 17.333L12.0049 17.1338L12.0195 16.9307C12.1193 15.9446 12.5822 15.0308 13.3174 14.3662C14.0527 13.7016 15.0088 13.3329 16 13.333Z" fill="#2D848D"/>
</svg>
