<svg width="40" height="40" viewBox="0 0 40 40" fill="none" xmlns="http://www.w3.org/2000/svg">
<path d="M4 14.0035C4 13.4838 4.2001 12.9841 4.58027 12.5843L10.5831 6.58781C11.1634 6.00815 12.0238 5.84824 12.7641 6.14807C13.5045 6.44789 14.0047 7.18746 14.0047 7.987L14.0047 27.9754C14.0047 29.0747 14.9051 29.9742 16.0056 29.9742C17.1061 29.9742 18.0066 30.8737 18.0066 31.973C18.0066 33.0724 17.1061 33.9719 16.0056 33.9719C12.7041 33.9719 10.0028 31.2734 10.0028 27.9754L10.0028 12.8042L7.4216 15.3827C6.64124 16.1622 5.38065 16.1622 4.60028 15.3827C4.20009 14.9829 4.02001 14.4832 4.02001 13.9635L4 14.0035Z" fill="black"/>
<path d="M22.0084 8.00699C22.0084 6.90763 22.9089 6.00815 24.0094 6.00815C27.3109 6.00815 30.0122 8.70658 30.0122 12.0047L30.0122 27.1758L32.5934 24.5973C33.3738 23.8178 34.6344 23.8178 35.4147 24.5973C36.1951 25.3769 36.1951 26.6361 35.4147 27.4157L29.4119 33.4122C28.8316 33.9918 27.9712 34.1518 27.2309 33.8519C26.4905 33.5521 25.9903 32.8125 25.9903 32.013L25.9903 12.0246C25.9903 10.9253 25.0899 10.0258 23.9894 10.0258C22.8889 10.0258 21.9884 9.12633 21.9884 8.02697L22.0084 8.00699Z" fill="black"/>
</svg>
