<svg width="40" height="40" viewBox="0 0 40 40" fill="none" xmlns="http://www.w3.org/2000/svg">
<path d="M35.3 32.6316H4.7C4.24913 32.6316 3.81673 32.809 3.49792 33.1249C3.17911 33.4407 3 33.8691 3 34.3158C3 34.7625 3.17911 35.1909 3.49792 35.5067C3.81673 35.8226 4.24913 36 4.7 36H35.3C35.7509 36 36.1833 35.8226 36.5021 35.5067C36.8209 35.1909 37 34.7625 37 34.3158C37 33.8691 36.8209 33.4407 36.5021 33.1249C36.1833 32.809 35.7509 32.6316 35.3 32.6316Z" fill="black"/>
<path d="M20 4C19.5491 4 19.1167 4.17744 18.7979 4.49329C18.4791 4.80914 18.3 5.23753 18.3 5.68421V23.52L12.707 17.9621C12.3869 17.645 11.9527 17.4668 11.5 17.4668C11.0473 17.4668 10.6131 17.645 10.293 17.9621C9.97288 18.2793 9.79304 18.7094 9.79304 19.1579C9.79304 19.6064 9.97288 20.0365 10.293 20.3537L18.793 28.7747C18.951 28.9326 19.1391 29.0579 19.3462 29.1434C19.5534 29.2289 19.7756 29.2729 20 29.2729C20.2244 29.2729 20.4466 29.2289 20.6538 29.1434C20.8609 29.0579 21.049 28.9326 21.207 28.7747L29.707 20.3537C29.8655 20.1967 29.9912 20.0102 30.077 19.8051C30.1628 19.5999 30.207 19.38 30.207 19.1579C30.207 18.9358 30.1628 18.7159 30.077 18.5107C29.9912 18.3056 29.8655 18.1191 29.707 17.9621C29.5485 17.8051 29.3603 17.6805 29.1532 17.5955C28.9461 17.5105 28.7242 17.4668 28.5 17.4668C28.2758 17.4668 28.0539 17.5105 27.8468 17.5955C27.6397 17.6805 27.4515 17.8051 27.293 17.9621L21.7 23.52V5.68421C21.7 5.23753 21.5209 4.80914 21.2021 4.49329C20.8833 4.17744 20.4509 4 20 4Z" fill="black"/>
</svg>
