<svg width="40" height="40" viewBox="0 0 40 40" fill="none" xmlns="http://www.w3.org/2000/svg">
<path fill-rule="evenodd" clip-rule="evenodd" d="M5.80709 17.6335L13.3303 15.3562C11.3723 13.8159 9.41415 12.2755 7.45609 10.7351L4 11.7813L5.80709 17.6335ZM5.80709 17.6335H36V34.7637C36 35.9937 34.9835 37 33.7413 37H8.06583C6.82355 37 5.80709 35.9936 5.80709 34.7637V17.6335ZM24.4262 27.3167L20.9035 25.3031L17.3809 23.2894V27.3167V31.344L20.9035 29.3304L24.4262 27.3167ZM15.9826 14.5533C14.0245 13.0129 12.0664 11.4726 10.1084 9.93221L15.7073 8.23746C17.6653 9.77782 19.6235 11.3181 21.5814 12.8585L15.9826 14.5533ZM24.2338 12.0557L29.8326 10.3609L29.6632 10.2276L23.9585 5.73979L18.3597 7.43461C20.3176 8.97497 22.2757 10.5153 24.2338 12.0557ZM32.485 9.55802C30.5269 8.01766 28.5688 6.4773 26.6108 4.93694L33.0097 3L34.8168 8.85218L32.485 9.55802Z" fill="black"/>
</svg>
