<svg width="40" height="40" viewBox="0 0 40 40" fill="none" xmlns="http://www.w3.org/2000/svg">
<path d="M35.0769 17.0967C35.5868 17.0967 36 16.6634 36 16.129V10.9677C36 10.4332 35.5867 10 35.0769 10H14.7692V14.8387C14.7692 15.3732 14.3559 15.8064 13.8462 15.8064C13.3364 15.8064 12.9231 15.3731 12.9231 14.8387V10H4.92313C4.41331 10 4 10.4332 4 10.9677V16.129C4 16.6635 4.41331 17.0967 4.92306 17.0967C6.45 17.0967 7.69231 18.3991 7.69231 20C7.69231 21.6009 6.45006 22.9033 4.92306 22.9033C4.41331 22.9033 4 23.3365 4 23.871V29.0323C4 29.5668 4.41331 30 4.92306 30H12.9231V25.1613C12.9231 24.6268 13.3364 24.1936 13.8461 24.1936C14.3559 24.1936 14.7692 24.6269 14.7692 25.1613V30H35.0769C35.5867 30 35.9999 29.5667 35.9999 29.0323V23.871C35.9999 23.3365 35.5866 22.9033 35.0769 22.9033C33.5499 22.9033 32.3076 21.6009 32.3076 20C32.3076 18.3991 33.5499 17.0967 35.0769 17.0967ZM14.7692 21.2903C14.7692 21.8248 14.3559 22.258 13.8462 22.258C13.3364 22.258 12.9231 21.8247 12.9231 21.2903V18.7096C12.9231 18.1751 13.3364 17.7419 13.8462 17.7419C14.3559 17.7419 14.7692 18.1752 14.7692 18.7096V21.2903Z" fill="black"/>
</svg>
