<svg width="40" height="40" viewBox="0 0 40 40" fill="none" xmlns="http://www.w3.org/2000/svg">
<path d="M29.375 24.75C27.5224 24.75 25.8899 25.6613 24.8646 27.0472L15.9994 22.5077C16.1466 22.0061 16.25 21.4861 16.25 20.9375C16.25 20.1934 16.0974 19.4859 15.8339 18.8352L25.1117 13.2522C26.1442 14.464 27.6618 15.25 29.375 15.25C32.4768 15.25 35 12.7268 35 9.625C35 6.52319 32.4768 4 29.375 4C26.2732 4 23.75 6.52319 23.75 9.625C23.75 10.3398 23.8972 11.0179 24.1414 11.6474L14.8359 17.2467C13.8043 16.071 12.3086 15.3125 10.625 15.3125C7.52319 15.3125 5 17.8357 5 20.9375C5 24.0393 7.52319 26.5625 10.625 26.5625C12.5081 26.5625 14.1682 25.6244 15.1897 24.1996L24.0257 28.7243C23.8629 29.2497 23.75 29.7969 23.75 30.375C23.75 33.4768 26.2732 36 29.375 36C32.4768 36 35 33.4768 35 30.375C35 27.2732 32.4768 24.75 29.375 24.75Z" fill="black"/>
</svg>
