<svg width="40" height="40" viewBox="0 0 40 40" fill="none" xmlns="http://www.w3.org/2000/svg">
<path d="M18.0151 17.0498C17.6489 17.4152 17.6489 18.0073 18.0151 18.3727C18.3813 18.7381 18.9746 18.7381 19.3408 18.3727C19.4443 18.2704 19.6667 18.0977 20 18.0977C20.3333 18.0977 20.5557 18.2704 20.6592 18.3727C21.0254 18.7381 21.6186 18.7382 21.9849 18.3727C22.3511 18.0073 22.3511 17.4152 21.9849 17.0498C21.6772 16.7419 21.0098 16.2266 20 16.2266C18.9902 16.2266 18.3228 16.7419 18.0151 17.0498Z" fill="black"/>
<path d="M20 5C16.2445 5 12.7124 6.46183 10.0556 9.11499C9.68937 9.48042 9.68937 10.0734 10.0556 10.4379C10.4218 10.8033 11.0151 10.8033 11.3812 10.4379C13.6847 8.1374 16.7453 6.8711 20 6.8711C23.2547 6.8711 26.3153 8.1374 28.6187 10.4379C28.9849 10.8033 29.5782 10.8034 29.9444 10.4379C30.3106 10.0734 30.3106 9.48042 29.9444 9.11499C27.2876 6.46183 23.7555 5 20 5Z" fill="black"/>
<path d="M27.2913 13.0828C27.6574 12.7183 27.6574 12.1253 27.2913 11.7599C25.343 9.81391 22.7539 8.7422 20 8.7422C17.2461 8.7422 14.657 9.81391 12.7087 11.7599C12.3426 12.1253 12.3426 12.7183 12.7087 13.0828C13.0749 13.4483 13.6682 13.4483 14.0344 13.0828C15.6292 11.4904 17.7469 10.6133 20 10.6133C22.2531 10.6133 24.3708 11.4904 25.9656 13.0828C26.3318 13.4483 26.9251 13.4483 27.2913 13.0828Z" fill="black"/>
<path d="M24.6381 15.7278C25.0043 15.3632 25.0043 14.7703 24.6381 14.4048C22.1588 11.9289 17.8412 11.9289 15.3619 14.4048C14.9957 14.7703 14.9957 15.3632 15.3619 15.7278C15.7281 16.0932 16.3214 16.0932 16.6876 15.7278C18.4601 13.9572 21.5399 13.9572 23.3124 15.7278C23.6786 16.0932 24.2718 16.0932 24.6381 15.7278Z" fill="black"/>
<path d="M33.1875 21.8399H6.8125C5.26163 21.8399 4 23.0989 4 24.6466V30.2599C4 31.8075 5.26163 33.0665 6.8125 33.0665H7.75V34.0644C7.75 34.5816 8.16931 35 8.6875 35C9.20569 35 9.625 34.5816 9.625 34.0644V33.0665H30.375V34.0644C30.375 34.5816 30.7943 35 31.3125 35C31.8307 35 32.25 34.5816 32.25 34.0644V33.0665H33.1875C34.7384 33.0665 36 31.8075 36 30.2599V24.6466C36 23.0989 34.7384 21.8399 33.1875 21.8399ZM24.75 28.3888C24.75 28.9059 24.3307 29.3243 23.8125 29.3243C23.2943 29.3243 22.875 28.9059 22.875 28.3888V26.5177C22.875 26.0006 23.2943 25.5821 23.8125 25.5821C24.3307 25.5821 24.75 26.0006 24.75 26.5177V28.3888ZM28.5 28.3888C28.5 28.9059 28.0807 29.3243 27.5625 29.3243C27.0443 29.3243 26.625 28.9059 26.625 28.3888V26.5177C26.625 26.0006 27.0443 25.5821 27.5625 25.5821C28.0807 25.5821 28.5 26.0006 28.5 26.5177V28.3888ZM32.25 28.3888C32.25 28.9059 31.8307 29.3243 31.3125 29.3243C30.7943 29.3243 30.375 28.9059 30.375 28.3888V26.5177C30.375 26.0006 30.7943 25.5821 31.3125 25.5821C31.8307 25.5821 32.25 26.0006 32.25 26.5177V28.3888Z" fill="black"/>
<path d="M4.63106 8.81805C4.15494 9.02175 3.93431 9.57179 4.1385 10.0459L8.40006 19.9688H10.4393L5.8615 9.30958C5.65737 8.83264 5.10069 8.61154 4.63106 8.81805Z" fill="black"/>
<path d="M31.5999 19.9688L35.8615 10.0459C36.0657 9.57173 35.845 9.02175 35.3689 8.81798C34.8956 8.61335 34.3426 8.83351 34.1384 9.30952L29.5607 19.9688H31.5999Z" fill="black"/>
</svg>
