<svg width="40" height="40" viewBox="0 0 40 40" fill="none" xmlns="http://www.w3.org/2000/svg">
<path d="M34.6927 17.9078L6.54966 4.17943C6.30762 4.06137 6.04185 4 5.77254 4C4.7936 4 4 4.7936 4 5.77254V5.82369C4 6.06154 4.02916 6.2985 4.08685 6.52925L6.78644 17.3276C6.86017 17.6225 7.10956 17.8404 7.41169 17.874L19.2772 19.1924C19.6887 19.2381 20 19.5859 20 20C20 20.4141 19.6887 20.7619 19.2772 20.8076L7.41169 22.126C7.10956 22.1596 6.86017 22.3775 6.78644 22.6724L4.08685 33.4707C4.02916 33.7015 4 33.9385 4 34.1763V34.2275C4 35.2064 4.7936 36 5.77254 36C6.04185 36 6.30762 35.9386 6.54966 35.8205L34.6927 22.0922C35.4925 21.7021 36 20.89 36 20C36 19.11 35.4925 18.2979 34.6927 17.9078Z" fill="black"/>
</svg>
