<svg width="40" height="40" viewBox="0 0 40 40" fill="none" xmlns="http://www.w3.org/2000/svg">
<path d="M20.0753 24.5489C22.14 24.5489 23.8136 26.2168 23.8136 28.2745C23.8135 30.332 22.1399 32.0001 20.0753 32.0001C18.0108 31.9999 16.3371 30.332 16.337 28.2745C16.337 26.2169 18.0108 24.549 20.0753 24.5489Z" fill="black"/>
<path d="M11.7316 19.296C14.8565 16.182 19.2579 15.1007 23.2755 16.085C24.1582 19.3632 27.0709 21.808 30.5831 21.9883C30.5504 22.5581 30.3154 23.0898 29.9074 23.4952C28.9998 24.4012 27.5262 24.4028 26.6232 23.503L25.6906 22.6026C22.7581 19.6819 17.9858 19.6821 15.0519 22.6046L13.7609 23.8917C12.8502 24.8007 11.3627 24.7986 10.4474 23.8848C9.53387 22.9741 9.52937 21.4921 10.4415 20.5831L11.1906 19.837L11.7316 19.296Z" fill="black"/>
<path d="M6.1388 13.6475C11.3324 8.66816 18.5457 6.98259 25.1076 8.58893C24.1181 9.66582 23.4214 11.0149 23.1398 12.5108C18.2095 11.6099 12.9357 13.0159 9.07728 16.7305C9.06828 16.7381 9.06091 16.7488 9.05189 16.7608L7.64954 18.1573C6.81742 18.9881 5.46521 18.9818 4.63001 18.1495C3.79334 17.3156 3.78912 15.9684 4.62122 15.1407L6.02357 13.7413C6.06049 13.7045 6.10189 13.6812 6.1388 13.6475Z" fill="black"/>
<path d="M38 14.0105C37.9718 21.0216 28.7871 23.6362 25.0872 17.7376C22.1232 13.2347 25.591 6.91571 31.0043 7.00085C32.8589 7.00331 34.6369 7.74261 35.9483 9.05665C37.2597 10.3707 37.9975 12.1522 38 14.0105ZM33.1672 11.8493L31.4183 10.0969C31.3644 10.0414 31.3001 9.99733 31.229 9.96723C31.1579 9.93713 31.0815 9.92163 31.0043 9.92163C30.9271 9.92163 30.8507 9.93713 30.7796 9.96723C30.7086 9.99733 30.6442 10.0414 30.5904 10.0969L28.8415 11.8493C28.7361 11.96 28.6782 12.1077 28.6803 12.2607C28.6824 12.4137 28.7442 12.5598 28.8526 12.6676C28.9609 12.7754 29.1072 12.8364 29.2599 12.8374C29.4126 12.8384 29.5596 12.7794 29.6693 12.673L30.4213 11.9194V17.5155C30.4237 17.6689 30.4862 17.8152 30.5952 17.9228C30.7043 18.0304 30.8512 18.0907 31.0043 18.0907C31.1574 18.0907 31.3043 18.0304 31.4134 17.9228C31.5224 17.8152 31.5849 17.6689 31.5873 17.5156V11.9194L32.3393 12.673C32.45 12.7812 32.5986 12.8418 32.7532 12.8418C32.9079 12.8418 33.0564 12.7812 33.1672 12.673C33.2212 12.6189 33.2641 12.5547 33.2933 12.4841C33.3226 12.4134 33.3377 12.3376 33.3377 12.2611C33.3377 12.1846 33.3226 12.1089 33.2934 12.0382C33.2641 11.9675 33.2212 11.9033 33.1672 11.8493Z" fill="black"/>
</svg>
