<svg width="40" height="40" viewBox="0 0 40 40" fill="none" xmlns="http://www.w3.org/2000/svg">
<path d="M34.7826 7.24528H23.5682C23.0326 7.24528 22.5969 7.68307 22.5969 8.22109V13.3908H17.4513C16.9157 13.3908 16.4799 13.8285 16.4799 14.3666V19.5363H11.3343C10.7987 19.5363 10.363 19.9741 10.363 20.5121V25.6819H5.21742C4.68185 25.6819 4.24615 26.1196 4.24615 26.6577V31.7789C4.24615 32.317 4.68185 32.7547 5.21742 32.7547H34.7826C35.3182 32.7547 35.7538 32.317 35.7538 31.7789V8.22109C35.7538 7.68307 35.3182 7.24528 34.7826 7.24528ZM23.52 25.6819V20.4637H34.8308V25.6819H23.52ZM29.6369 14.3182H34.8308V19.5363H29.6369V14.3182ZM17.4031 14.3666C17.4031 14.3399 17.4247 14.3182 17.4513 14.3182H27.122C27.3768 14.3182 27.122 13.6469 27.122 13.3908H23.52V8.22109C23.52 8.19438 23.5417 8.17268 23.5682 8.17268H34.7825C34.8091 8.17268 34.8307 8.19444 34.8307 8.22109V13.3908H26.6266C26.3718 13.3908 26.1651 13.5984 26.1651 13.8545C26.1651 14.1106 26.3718 14.3182 26.6266 14.3182H28.7138V19.5363H17.4031V14.3666ZM11.2862 20.5121C11.2862 20.4854 11.3078 20.4637 11.3343 20.4637H22.5969V25.6819H11.2862V20.5121ZM16.9415 28.7546C16.6866 28.7546 16.48 28.9622 16.48 29.2183V31.8274H5.21742C5.19083 31.8274 5.16923 31.8056 5.16923 31.779V26.6577C5.16923 26.631 5.19089 26.6093 5.21742 26.6093H16.48V29.5898L16.9415 29.5332H17.4031V26.6093H28.7138V31.8274H17.4031V29.2183C17.4031 28.9622 17.1964 28.7546 16.9415 28.7546ZM34.8308 31.779C34.8308 31.8057 34.8091 31.8274 34.7826 31.8274H29.6369V26.6093H34.8308V31.779Z" fill="black"/>
<path d="M35.5077 8.22067C35.5075 7.81644 35.1802 7.49062 34.7827 7.49057H23.5683C23.1707 7.49057 22.8435 7.8164 22.8433 8.22067V13.6361H17.451C17.0535 13.6362 16.7262 13.962 16.726 14.3662V19.7815H11.3346C10.9369 19.7815 10.6096 20.1081 10.6096 20.5126V25.927H5.21731C4.81964 25.9271 4.49231 26.2536 4.49231 26.6581V31.7793C4.49253 32.1836 4.81977 32.5094 5.21731 32.5094H34.7827C35.1802 32.5094 35.5075 32.1836 35.5077 31.7793V8.22067ZM16.2337 26.8545H5.41538V31.582H16.2337V26.8545ZM29.8827 31.582H34.5846V26.8545H29.8827V31.582ZM16.9413 28.9998C16.8244 28.9999 16.726 29.0958 16.726 29.2182V29.3121L16.9115 29.2901L16.9269 29.2882H17.1567V29.2182C17.1567 29.0958 17.0584 28.9998 16.9413 28.9998ZM22.8433 20.2185V25.927H11.0404V20.5126C11.0404 20.3521 11.1705 20.2185 11.3346 20.2185H22.8433ZM35.0769 20.2185V25.927H23.274V20.2185H35.0769ZM23.7663 25.4365H34.5846V20.709H23.7663V25.4365ZM11.5327 25.4365H22.351V20.709H11.5327V25.4365ZM35.0769 14.073V19.7815H29.3904V14.073H35.0769ZM29.8827 19.291H34.5846V14.5635H29.8827V19.291ZM17.649 19.291H28.4673V14.5635H17.649V19.291ZM23.7663 13.1455H34.5846V8.41804H23.7663V13.1455ZM35.0769 31.7793C35.0767 31.9396 34.9467 32.0725 34.7827 32.0725H29.3904V26.3639H35.0769V31.7793ZM16.726 28.5456C16.794 28.5238 16.8658 28.5092 16.9413 28.5092C17.0168 28.5092 17.0887 28.5238 17.1567 28.5456V26.3639H28.9596V32.0725H17.1567V29.7787H16.9558L16.726 29.8065V32.0725H5.21731C5.05286 32.0725 4.92327 31.9392 4.92308 31.7793V26.6581C4.92308 26.4977 5.05319 26.364 5.21731 26.3639H16.726V28.5456ZM17.649 31.582H28.4673V26.8545H17.649V31.582ZM26.4115 13.8545C26.4115 13.977 26.5099 14.073 26.6269 14.073H26.9846C26.9823 14.0494 26.9792 14.0211 26.974 13.9886C26.9592 13.8954 26.9376 13.7971 26.9163 13.6916C26.9128 13.6738 26.9103 13.655 26.9067 13.6361H26.6269C26.5099 13.6361 26.4115 13.732 26.4115 13.8545ZM35.0769 13.6361H27.4067C27.4242 13.7208 27.446 13.8206 27.4606 13.912C27.4684 13.961 27.4754 14.0164 27.4788 14.073H28.9596V19.7815H17.1567V14.3662C17.157 14.2058 17.2873 14.0732 17.451 14.073H25.9567C25.9342 14.0038 25.9192 13.931 25.9192 13.8545C25.9192 13.778 25.9342 13.7052 25.9567 13.6361H23.274V8.22067C23.2743 8.06038 23.4042 7.92748 23.5683 7.92748H34.7827C34.9471 7.92757 35.0767 8.06091 35.0769 8.22067V13.6361ZM36 31.7793C35.9998 32.4507 35.4559 32.9999 34.7827 33H5.21731C4.54408 32.9999 4.00023 32.4507 4 31.7793V26.6581C4 25.9865 4.54394 25.4365 5.21731 25.4365H10.1173V20.5126C10.1173 19.841 10.6612 19.291 11.3346 19.291H16.2337V14.3662C16.2339 13.6948 16.7779 13.1457 17.451 13.1455H22.351V8.22067C22.3512 7.54929 22.895 7 23.5683 7H34.7827C35.4559 7.00006 35.9998 7.54933 36 8.22067V31.7793Z" fill="black"/>
</svg>
