<svg width="40" height="40" viewBox="0 0 40 40" fill="none" xmlns="http://www.w3.org/2000/svg">
<path fill-rule="evenodd" clip-rule="evenodd" d="M34.7692 18.8263C35.449 18.8263 36 19.3776 36 20.0574C36 24.1321 34.4338 28.2074 31.3237 31.3183L31.3224 31.3195C25.0656 37.5602 14.9345 37.5602 8.67763 31.3195L8.6764 31.3183C7.55288 30.1944 6.66528 28.9671 5.94293 27.663C5.6135 27.0683 5.82845 26.3191 6.42302 25.9896C7.0176 25.66 7.76665 25.875 8.09607 26.4698C8.71924 27.5948 9.4725 28.6324 10.4164 29.5767C15.7124 34.8583 24.2882 34.8582 29.584 29.5763C32.2169 26.9423 33.5385 23.5002 33.5385 20.0574C33.5385 19.3776 34.0896 18.8263 34.7692 18.8263Z" fill="black"/>
<path fill-rule="evenodd" clip-rule="evenodd" d="M29.5839 10.4235C24.2881 5.14185 15.7125 5.14173 10.4165 10.4232C7.83175 13.0088 6.52163 16.3922 6.46135 19.7838C6.44927 20.4637 5.88853 21.0049 5.2089 20.9928C4.52927 20.9807 3.98812 20.4198 4.0002 19.7401C4.0712 15.7454 5.61635 11.7425 8.6764 8.68168L8.67763 8.68044C14.9345 2.43985 25.0656 2.43985 31.3224 8.68044L31.3237 8.68168C32.4471 9.80549 33.3347 11.0329 34.0571 12.3369C34.3865 12.9316 34.1716 13.6809 33.577 14.0104C32.9825 14.3399 32.2334 14.1249 31.904 13.5302C31.2808 12.4053 30.5277 11.3677 29.5839 10.4235Z" fill="black"/>
<path fill-rule="evenodd" clip-rule="evenodd" d="M33.8503 5.16958C34.53 5.16958 35.0811 5.72075 35.0811 6.40065V12.9336C35.0811 13.6134 34.53 14.1647 33.8503 14.1647H27.319C26.6393 14.1647 26.0883 13.6134 26.0883 12.9336C26.0883 12.2536 26.6393 11.7025 27.319 11.7025H32.6195V6.40065C32.6195 5.72075 33.1705 5.16958 33.8503 5.16958Z" fill="black"/>
<path fill-rule="evenodd" clip-rule="evenodd" d="M4.95181 27.0664C4.95181 26.3866 5.50284 25.8353 6.18258 25.8353H12.7138C13.3936 25.8353 13.9446 26.3866 13.9446 27.0664C13.9446 27.7464 13.3936 28.2975 12.7138 28.2975H7.41335V33.5993C7.41335 34.2793 6.86231 34.8304 6.18258 34.8304C5.50284 34.8304 4.95181 34.2793 4.95181 33.5993V27.0664Z" fill="black"/>
</svg>
