<svg width="40" height="40" viewBox="0 0 40 40" fill="none" xmlns="http://www.w3.org/2000/svg">
<path fill-rule="evenodd" clip-rule="evenodd" d="M29.8461 31.5999C30.979 31.5999 31.8974 30.7046 31.8974 29.6V26.4C31.8974 25.7372 32.4485 25.2001 33.1282 25.2001C33.808 25.2001 34.359 25.7372 34.359 26.4V29.6C34.359 32.03 32.3386 34 29.8461 34H26.5642C25.8843 34 25.3333 33.4627 25.3333 32.8C25.3333 32.1372 25.8843 31.5999 26.5642 31.5999H29.8461Z" fill="black"/>
<path fill-rule="evenodd" clip-rule="evenodd" d="M29.8461 8.4C30.979 8.4 31.8974 9.29543 31.8974 10.4V13.6C31.8974 14.2627 32.4485 14.8 33.1282 14.8C33.808 14.8 34.359 14.2627 34.359 13.6V10.4C34.359 7.96994 32.3386 6 29.8461 6H26.5642C25.8843 6 25.3333 6.53726 25.3333 7.2C25.3333 7.86275 25.8843 8.4 26.5642 8.4H29.8461Z" fill="black"/>
<path fill-rule="evenodd" clip-rule="evenodd" d="M10.1538 31.5999C9.02096 31.5999 8.10256 30.7046 8.10256 29.6V26.4C8.10256 25.7372 7.55154 25.2001 6.87179 25.2001C6.19206 25.2001 5.64102 25.7372 5.64102 26.4V29.6C5.64102 32.03 7.66149 34 10.1538 34H13.4359C14.1156 34 14.6667 33.4627 14.6667 32.8C14.6667 32.1372 14.1156 31.5999 13.4359 31.5999H10.1538Z" fill="black"/>
<path fill-rule="evenodd" clip-rule="evenodd" d="M10.1538 8.4C9.02096 8.4 8.10256 9.29543 8.10256 10.4V13.6C8.10256 14.2627 7.55154 14.8 6.87179 14.8C6.19206 14.8 5.64102 14.2627 5.64102 13.6V10.4C5.64102 7.96996 7.66149 6 10.1538 6H13.4359C14.1156 6 14.6667 6.53726 14.6667 7.2C14.6667 7.86275 14.1156 8.4 13.4359 8.4H10.1538Z" fill="black"/>
<path fill-rule="evenodd" clip-rule="evenodd" d="M36 20C36 20.6627 35.449 21.2 34.7693 21.2H5.23077C4.55104 21.2 4 20.6627 4 20C4 19.3373 4.55104 18.8 5.23077 18.8H34.7693C35.449 18.8 36 19.3373 36 20Z" fill="black"/>
</svg>
