<svg width="40" height="40" viewBox="0 0 40 40" fill="none" xmlns="http://www.w3.org/2000/svg">
<path d="M8.68795 8.68637C14.9321 2.44509 25.0515 2.43786 31.3046 8.66483C37.456 14.7907 37.565 24.7494 31.6214 31.0103L31.3341 31.3063C28.2076 34.4356 24.1057 36 20.007 36C18.2015 36 16.3954 35.6965 14.6719 35.089C14.1824 34.9165 13.9255 34.3801 14.0981 33.8909C14.2707 33.4017 14.8074 33.1449 15.2968 33.3173C16.8172 33.8532 18.412 34.1214 20.007 34.1214C23.6272 34.1214 27.2439 32.7404 30.0037 29.9781C35.5026 24.4739 35.4911 15.4865 29.9782 9.99621C24.4594 4.50034 15.5277 4.50689 10.0167 10.0154C6.0436 13.987 4.93077 19.7368 6.68319 24.706L6.70394 24.7658C7.58359 27.2247 10.7456 27.9285 12.6033 26.0717L13.707 24.9677C12.0135 22.6374 12.2178 19.3573 14.32 17.2562L17.8714 13.7064L17.9424 13.6425C18.3114 13.3415 18.856 13.3626 19.2002 13.7064L20.616 15.1215L24.4156 11.3244C24.7826 10.9576 25.3774 10.9577 25.7444 11.3244C26.1114 11.6912 26.1114 12.2857 25.7444 12.6526L21.9448 16.4505L23.5577 18.0627L27.307 14.3158C27.674 13.949 28.2696 13.949 28.6366 14.3158C29.0033 14.6826 29.0032 15.2772 28.6366 15.644L24.8873 19.3909L26.303 20.8068C26.4792 20.9829 26.5783 21.2214 26.5784 21.4705C26.5784 21.7196 26.4793 21.9588 26.303 22.135L22.7516 25.6848C20.6493 27.7861 17.3679 27.9899 15.0366 26.2966L13.9329 27.4007C11.1101 30.2222 6.28369 29.1694 4.93461 25.3984L4.93381 25.3968L4.91146 25.3346V25.333C2.92641 19.7069 4.18311 13.1892 8.68795 8.68637ZM15.6488 18.5852C14.0545 20.1788 14.0544 22.763 15.6488 24.3566C17.2431 25.9502 19.8284 25.9501 21.4228 24.3566L24.3095 21.4705L18.5354 15.699L15.6488 18.5852Z" fill="black"/>
</svg>
