<svg width="40" height="40" viewBox="0 0 40 40" fill="none" xmlns="http://www.w3.org/2000/svg">
<path d="M36 25.6562C36 20.9919 32.8572 16.9167 28.4253 15.6887C28.1467 9.19629 22.7786 4 16.2188 4C9.4812 4 4 9.4812 4 16.2188C4 18.4146 4.58447 20.5525 5.69434 22.4294L4.04492 28.3923L10.0081 26.7432C11.7334 27.7634 13.6797 28.3381 15.6885 28.4248C16.9163 32.8569 20.9917 36 25.6562 36C27.5181 36 29.3286 35.5042 30.9194 34.562L35.9548 35.9548L34.562 30.9194C35.5042 29.3286 36 27.5181 36 25.6562ZM10.304 24.7158L6.73413 25.7034L7.72168 22.1335L7.49658 21.7815C6.43579 20.1218 5.875 18.1982 5.875 16.2188C5.875 10.5151 10.5151 5.875 16.2188 5.875C21.9224 5.875 26.5625 10.5151 26.5625 16.2188C26.5625 21.9224 21.9224 26.5625 16.2188 26.5625C14.2393 26.5625 12.3159 26.0017 10.656 24.9409L10.304 24.7158ZM33.2659 33.2659L30.6169 32.533L30.2632 32.7632C28.8918 33.6541 27.2986 34.125 25.6562 34.125C21.9902 34.125 18.7688 31.7546 17.6274 28.3557C23.2412 27.7085 27.7085 23.2412 28.356 17.6272C31.7546 18.7688 34.125 21.9902 34.125 25.6562C34.125 27.2986 33.6541 28.8918 32.7632 30.2632L32.533 30.6169L33.2659 33.2659Z" fill="black"/>
<path d="M15.2812 20.9375H17.1562V22.8125H15.2812V20.9375Z" fill="black"/>
<path d="M18.0938 13.375C18.0938 13.9075 17.877 14.3989 17.4834 14.759L15.2812 16.7747V19.0625H17.1562V17.6003L18.7493 16.1423C19.5242 15.4331 19.9688 14.4246 19.9688 13.375C19.9688 11.3071 18.2866 9.625 16.2187 9.625C14.1509 9.625 12.4687 11.3071 12.4687 13.375H14.3437C14.3437 12.3411 15.1848 11.5 16.2187 11.5C17.2527 11.5 18.0938 12.3411 18.0938 13.375Z" fill="black"/>
</svg>
