<svg width="40" height="40" viewBox="0 0 40 40" fill="none" xmlns="http://www.w3.org/2000/svg">
<path d="M20 6.78261C20.3864 6.78261 20.7 6.47096 20.7 6.08696V4.69565C20.7 4.31165 20.3864 4 20 4C19.6136 4 19.3 4.31165 19.3 4.69565V6.08696C19.3 6.47096 19.6136 6.78261 20 6.78261Z" fill="black"/>
<path d="M33.3 17.2175H31.9C31.5136 17.2175 31.2 17.5292 31.2 17.9132C31.2 18.2972 31.5136 18.6088 31.9 18.6088H33.3C33.6864 18.6088 34 18.2972 34 17.9132C34 17.5292 33.6864 17.2175 33.3 17.2175Z" fill="black"/>
<path d="M8.1 17.2175H6.7C6.3136 17.2175 6 17.5292 6 17.9132C6 18.2972 6.3136 18.6088 6.7 18.6088H8.1C8.4864 18.6088 8.8 18.2972 8.8 17.9132C8.8 17.5292 8.4864 17.2175 8.1 17.2175Z" fill="black"/>
<path d="M11.0902 10.0426C11.2267 10.1782 11.4059 10.2464 11.5851 10.2464C11.7643 10.2464 11.9435 10.1782 12.08 10.0426C12.3537 9.77057 12.3537 9.33092 12.08 9.05892L11.0902 8.07526C10.8165 7.80326 10.3741 7.80326 10.1004 8.07526C9.82667 8.34726 9.82667 8.78692 10.1004 9.05892L11.0902 10.0426Z" fill="black"/>
<path d="M28.9101 25.7838C28.6364 25.5118 28.194 25.5118 27.9203 25.7838C27.6466 26.0558 27.6466 26.4955 27.9203 26.7675L28.9101 27.7511C29.0466 27.8868 29.2258 27.955 29.405 27.955C29.5842 27.955 29.7634 27.8868 29.8999 27.7511C30.1736 27.4791 30.1736 27.0395 29.8999 26.7675L28.9101 25.7838Z" fill="black"/>
<path d="M28.9101 8.07526L27.9203 9.05892C27.6466 9.33092 27.6466 9.77057 27.9203 10.0426C28.0568 10.1782 28.236 10.2464 28.4152 10.2464C28.5944 10.2464 28.7736 10.1782 28.9101 10.0426L29.8999 9.05892C30.1736 8.78692 30.1736 8.34726 29.8999 8.07526C29.6262 7.80326 29.1838 7.80326 28.9101 8.07526Z" fill="black"/>
<path d="M11.0902 25.7838L10.1004 26.7675C9.82667 27.0395 9.82667 27.4791 10.1004 27.7511C10.2369 27.8868 10.4161 27.955 10.5953 27.955C10.7745 27.955 10.9537 27.8868 11.0902 27.7511L12.08 26.7675C12.3537 26.4955 12.3537 26.0558 12.08 25.7838C11.8063 25.5118 11.3639 25.5118 11.0902 25.7838Z" fill="black"/>
<path d="M20 8.17391C14.596 8.17391 10.2 12.5426 10.2 17.913C10.2 21.6014 11.8142 23.9353 13.1673 25.2431C14.4133 26.4473 15.1 28.007 15.1 29.6341V31.1304C15.1 32.0362 15.6873 32.8014 16.5 33.0894V33.2174C16.5 34.752 17.7558 36 19.3 36H20.7C22.2442 36 23.5 34.752 23.5 33.2174V33.0894C24.3127 32.8014 24.9 32.0362 24.9 31.1304V29.6341C24.9 28.007 25.586 26.4473 26.8327 25.2431C28.1865 23.9353 29.8 21.6014 29.8 17.913C29.8 12.5426 25.404 8.17391 20 8.17391ZM20.7 34.6087H19.3C18.5279 34.6087 17.9 33.9847 17.9 33.2174H22.1C22.1 33.9847 21.4721 34.6087 20.7 34.6087ZM22.8 31.8261H17.2C16.8143 31.8261 16.5 31.5137 16.5 31.1304V30.4348H23.5V31.1304C23.5 31.5137 23.1857 31.8261 22.8 31.8261ZM21.0416 22.7388C21.0514 22.1155 20.9562 21.4984 20.7588 20.9148C20.9555 20.5009 21.2075 20.1176 21.5379 19.7892C22.3331 18.9983 23.4216 18.5767 24.5472 18.6115C24.5822 19.7231 24.1573 20.8118 23.3621 21.6021C22.7293 22.231 21.9131 22.6212 21.0416 22.7388ZM19.6472 22.7798C18.5335 22.8188 17.4345 22.3917 16.6386 21.6014C15.8427 20.8104 15.4171 19.7217 15.4528 18.6115C16.5721 18.5809 17.6655 18.9997 18.4614 19.7899C19.2573 20.5802 19.6829 21.6696 19.6472 22.7798ZM25.8562 24.2456C24.4863 25.5694 23.6715 27.255 23.5238 29.0428H20.6993V24.16C22.0706 24.1092 23.3705 23.559 24.3512 22.585C25.5895 21.3551 26.16 19.5896 25.8772 17.863C25.8289 17.568 25.5958 17.3363 25.299 17.2883C23.5609 17.0073 21.7857 17.575 20.5474 18.8049C20.3437 19.0073 20.1638 19.2264 19.9965 19.4546C19.8306 19.2271 19.6528 19.0073 19.4498 18.8056C18.2115 17.5743 16.4349 17.0059 14.6989 17.2877C14.4021 17.3357 14.169 17.5673 14.1207 17.8623C13.8386 19.5882 14.4091 21.353 15.6481 22.5837C16.6246 23.5548 17.9364 24.1064 19.2993 24.1614V29.0421H16.4748C16.3271 27.2536 15.5123 25.568 14.1424 24.2449C12.9818 23.1235 11.5986 21.1144 11.5986 17.9117C11.5986 13.3085 15.3667 9.56383 19.9986 9.56383C24.6305 9.56383 28.3986 13.3085 28.3986 17.9117C28.3986 21.1144 27.0154 23.1235 25.8548 24.2449L25.8562 24.2456Z" fill="black"/>
</svg>
