<svg width="40" height="40" viewBox="0 0 40 40" fill="none" xmlns="http://www.w3.org/2000/svg">
<g clip-path="url(#clip0_2809_6154)">
<path d="M16.5984 18.0131H19.2651V19.3467H16.5984V18.0131Z" fill="black"/>
<path d="M39.3612 16.0197L34.8323 15.3729C34.0065 14.8656 33.1495 14.4115 32.2659 14.013C29.348 12.6913 26.181 12.0093 22.9774 12.0128H22.1907C18.41 12.0155 14.6899 12.9642 11.3693 14.7723L9.08373 16.0192C6.40831 16.0493 3.78443 16.7608 1.46005 18.0858C0.515435 18.6276 -0.0678303 19.6327 -0.069458 20.7214V24.6802C-0.069458 25.0486 0.228957 25.3471 0.597363 25.3471H2.83602C3.56415 27.4243 5.83834 28.5181 7.91558 27.79C9.05905 27.3893 9.95782 26.4903 10.3585 25.3471H28.1712C28.8993 27.4243 31.1735 28.5181 33.2507 27.79C34.3939 27.3893 35.293 26.4903 35.6936 25.3471H35.9329C36.0178 25.3471 36.1019 25.331 36.1809 25.2996L38.3403 24.4331C39.305 24.0511 39.9368 23.1174 39.9333 22.0802V16.6797C39.9333 16.3482 39.6894 16.0669 39.3612 16.0197ZM9.21043 24.547C8.91554 25.99 7.50675 26.9208 6.06378 26.6259C4.62054 26.331 3.68975 24.9222 3.98464 23.479C4.2798 22.036 5.68859 21.1052 7.13156 21.4001C8.37324 21.6538 9.26468 22.7462 9.26441 24.0137C9.26441 24.1927 9.24623 24.3715 9.21043 24.547ZM21.2653 24.0137H10.5978C10.5978 21.8043 8.80702 20.0133 6.59767 20.0133C4.38831 20.0133 2.59728 21.8043 2.59728 24.0137H1.26391V20.7214C1.26473 20.1107 1.5919 19.5467 2.12199 19.2434C4.29771 18.0012 6.75936 17.3474 9.26441 17.3466H21.2653V24.0137ZM21.2653 16.0132H11.8793L12.0079 15.9429C14.8583 14.3939 18.0245 13.5157 21.2653 13.3755V16.0132ZM22.5987 13.3462H22.976C25.6628 13.3432 28.3252 13.8532 30.8208 14.8491L29.6567 16.0132H22.5987V13.3462ZM34.5456 24.547C34.2507 25.99 32.8419 26.9208 31.3986 26.6259C29.9557 26.331 29.0249 24.9222 29.3198 23.479C29.6147 22.036 31.0237 21.1052 32.4667 21.4001C33.7084 21.6538 34.5998 22.7462 34.5995 24.0137C34.5995 24.1927 34.5814 24.3715 34.5456 24.547ZM38.5999 18.0131H36.5997V19.3467H38.5999V22.0802C38.6016 22.5715 38.3021 23.0137 37.8452 23.1941L35.9329 23.9621C35.9329 23.9008 35.9251 23.8401 35.921 23.7787C35.9169 23.7174 35.9156 23.6455 35.909 23.5788C35.9023 23.5121 35.889 23.4453 35.8784 23.3789C35.8675 23.3121 35.8597 23.2454 35.8464 23.1849C35.8331 23.1241 35.8136 23.0569 35.7962 22.9934C35.7788 22.9302 35.7655 22.8661 35.7455 22.804C35.7257 22.7422 35.7015 22.6828 35.679 22.622C35.6562 22.5615 35.6356 22.4988 35.6123 22.4386C35.5889 22.3786 35.5575 22.3241 35.5295 22.2674C35.5016 22.2107 35.4742 22.1486 35.443 22.0914C35.4115 22.0341 35.3762 21.9853 35.3461 21.9321C35.3163 21.8787 35.2797 21.8179 35.2417 21.7634C35.2034 21.7086 35.1682 21.6654 35.1315 21.6161C35.0949 21.5667 35.0534 21.5086 35.0108 21.4574C34.9682 21.4061 34.9283 21.3659 34.8868 21.3239C34.8456 21.2821 34.7995 21.2254 34.7536 21.1787C34.7075 21.1321 34.6622 21.0952 34.6164 21.054C34.5702 21.0127 34.5209 20.9639 34.4701 20.9205C34.4197 20.8773 34.3681 20.844 34.3177 20.806C34.2669 20.768 34.2162 20.7273 34.163 20.6918C34.1096 20.6565 34.0496 20.6253 33.9924 20.5879C33.9349 20.5504 33.8882 20.5211 33.8343 20.4927C33.7803 20.4639 33.713 20.4338 33.6517 20.4045C33.5904 20.3752 33.5423 20.3492 33.4856 20.3253C33.4289 20.3011 33.3522 20.2759 33.2857 20.252C33.219 20.2279 33.1756 20.2092 33.1189 20.1913C33.0429 20.1679 32.965 20.1511 32.8875 20.1319C32.8367 20.1199 32.7882 20.1039 32.7369 20.0933C32.655 20.0765 32.5709 20.0673 32.4876 20.0551C32.4382 20.0486 32.391 20.0377 32.3416 20.0331C32.2082 20.0198 32.075 20.0125 31.935 20.0125C29.7264 20.0147 27.9368 21.8043 27.9346 24.0129H22.5989V17.3463H29.9326C30.1095 17.3463 30.279 17.276 30.4038 17.151L32.1327 15.4221C32.8584 15.7674 33.564 16.1534 34.2463 16.5783C34.325 16.6274 34.4129 16.6597 34.5049 16.673L38.5999 17.2576V18.0131Z" fill="black"/>
</g>
<defs>
<clipPath id="clip0_2809_6154">
<rect width="40" height="40" fill="white"/>
</clipPath>
</defs>
</svg>
