<svg width="40" height="40" viewBox="0 0 40 40" fill="none" xmlns="http://www.w3.org/2000/svg">
<path d="M18.6797 37.5703L18.6797 5.589L13.311 10.9515C13.0719 11.1563 12.7643 11.2633 12.4497 11.2511C12.1351 11.239 11.8367 11.1086 11.614 10.886C11.3914 10.6633 11.261 10.3649 11.2489 10.0503C11.2367 9.73572 11.3437 9.42813 11.5485 9.189L19.0485 1.689C19.1928 1.54202 19.3703 1.43182 19.5661 1.36765C19.7619 1.30349 19.9702 1.28723 20.1735 1.32025C20.4089 1.37673 20.6247 1.49546 20.7985 1.664L28.2985 9.164C28.4293 9.27606 28.5356 9.41396 28.6107 9.56904C28.6857 9.72412 28.7278 9.89304 28.7345 10.0652C28.7411 10.2373 28.7121 10.409 28.6493 10.5694C28.5864 10.7298 28.4911 10.8755 28.3693 10.9973C28.2475 11.1191 28.1018 11.2145 27.9414 11.2773C27.781 11.3401 27.6093 11.3691 27.4372 11.3625C27.265 11.3559 27.0961 11.3137 26.941 11.2387C26.786 11.1636 26.6481 11.0574 26.536 10.9265L21.1797 5.589L21.1797 37.5703C21.1797 37.9018 21.048 38.2197 20.8136 38.4541C20.5792 38.6886 20.2613 38.8203 19.9297 38.8203C19.5982 38.8203 19.2803 38.6886 19.0459 38.4541C18.8114 38.2197 18.6797 37.9018 18.6797 37.5703Z" fill="black"/>
</svg>
