<svg width="40" height="40" viewBox="0 0 40 40" fill="none" xmlns="http://www.w3.org/2000/svg">
<path d="M31.8027 20C31.8027 18.9496 32.1375 17.9263 32.7588 17.0791C33.3801 16.232 34.2552 15.6046 35.2578 15.29L35.2725 15.2861L35.2861 15.2822C35.4883 15.2221 35.6673 15.0988 35.7959 14.9297C35.9245 14.7606 35.9957 14.5542 36 14.3408V9.94727L35.9951 9.85254C35.9724 9.63557 35.8762 9.4321 35.7217 9.27734C35.5673 9.12269 35.3655 9.02735 35.1514 9.00488L35.0586 9H4.94141L4.84863 9.00488C4.63453 9.02734 4.4327 9.12269 4.27832 9.27734C4.10165 9.45433 4.00142 9.69544 4 9.94727V14.3408L4.01562 14.499C4.04371 14.6549 4.10767 14.8029 4.2041 14.9297C4.3005 15.0564 4.425 15.1577 4.56641 15.2256L4.71387 15.2822L4.72754 15.2861L4.74219 15.29C5.74478 15.6046 6.61991 16.232 7.24121 17.0791C7.86249 17.9262 8.19727 18.9496 8.19727 20C8.19727 21.0504 7.86249 22.0738 7.24121 22.9209C6.61991 23.768 5.74478 24.3954 4.74219 24.71L4.72754 24.7139L4.71387 24.7178C4.51175 24.7779 4.33269 24.9012 4.2041 25.0703C4.07552 25.2394 4.00433 25.4458 4 25.6592V30.0527L4.00488 30.1475C4.02757 30.3644 4.12384 30.5679 4.27832 30.7227C4.45483 30.8995 4.69332 30.9985 4.94141 31H35.0586C35.3067 30.9985 35.5452 30.8995 35.7217 30.7227C35.8983 30.5457 35.9986 30.3046 36 30.0527V25.6592C35.9957 25.4458 35.9245 25.2394 35.7959 25.0703C35.6673 24.9012 35.4883 24.7779 35.2861 24.7178L35.2725 24.7139L35.2578 24.71C34.2552 24.3954 33.3801 23.768 32.7588 22.9209C32.1375 22.0737 31.8027 21.0504 31.8027 20ZM20.2568 12.1426C20.6344 12.1702 21.0014 12.2799 21.332 12.4639L21.4941 12.5625L21.6494 12.6719C21.9496 12.9018 22.1955 13.1947 22.3711 13.5293L22.4531 13.7002L22.4561 13.7051L23.4336 15.9707H24.9336C25.3753 15.9406 25.8175 16.0227 26.2178 16.2109L26.4111 16.3125L26.5957 16.4297C26.9535 16.6784 27.2427 17.0131 27.4375 17.4023L27.5273 17.6016L27.5996 17.8076C27.7478 18.2934 27.7508 18.8135 27.6064 19.3037C27.4528 19.8253 27.1384 20.2831 26.7109 20.6172L26.7119 20.6191L25.1494 21.875L25.9326 24.4512L25.9482 24.5059C26.09 25.0257 26.0682 25.577 25.8857 26.084C25.7032 26.591 25.3682 27.0295 24.9268 27.3398C24.4854 27.6501 23.9589 27.8168 23.4189 27.8164C22.8788 27.8159 22.3521 27.6481 21.9111 27.3369L21.8828 27.3174L20 25.8877L18.1172 27.3174L18.0889 27.3369C17.6479 27.6481 17.1212 27.8159 16.5811 27.8164C16.0411 27.8168 15.5146 27.6501 15.0732 27.3398C14.6318 27.0295 14.2968 26.591 14.1143 26.084C13.9318 25.577 13.91 25.0257 14.0518 24.5059L14.0654 24.459L14.8525 21.8271L13.2881 20.5684L13.2207 20.5146L13.1582 20.4541C12.778 20.0898 12.5173 19.6194 12.4102 19.1045C12.3031 18.5895 12.3545 18.0537 12.5576 17.5684L12.6396 17.3896C12.8479 16.9816 13.1613 16.6345 13.5488 16.3848L13.7188 16.2842C14.1041 16.0755 14.5367 15.9685 14.9766 15.9717L16.7002 15.9707L17.6777 13.7051L17.6807 13.7002C17.8827 13.236 18.2159 12.8406 18.6396 12.5625L18.8018 12.4639C19.1876 12.2491 19.6234 12.1357 20.0674 12.1357L20.2568 12.1426ZM20.0674 14.1357C19.9501 14.1357 19.8345 14.17 19.7363 14.2344C19.6384 14.2987 19.5615 14.3905 19.5146 14.498L18.1748 17.6016C18.1289 17.7104 18.0522 17.8036 17.9541 17.8691L17.877 17.9121C17.824 17.9372 17.7679 17.9551 17.71 17.9639L17.6221 17.9707H14.9766L14.8857 17.9746C14.7958 17.9855 14.7087 18.0169 14.6318 18.0664C14.5294 18.1325 14.4495 18.2283 14.4023 18.3408C14.3553 18.4534 14.3433 18.5778 14.3682 18.6973C14.3931 18.8168 14.4529 18.9264 14.541 19.0107L16.835 20.8555C16.9306 20.9313 17.0012 21.0346 17.0371 21.1514C17.073 21.2682 17.0727 21.3932 17.0361 21.5098L15.9814 25.0322C15.9478 25.1554 15.9529 25.2861 15.9961 25.4062C16.0394 25.5265 16.1192 25.6307 16.2236 25.7041C16.3278 25.7772 16.4519 25.8164 16.5791 25.8164C16.7066 25.8163 16.8313 25.7767 16.9355 25.7031L19.6318 23.6572C19.7404 23.5829 19.8686 23.543 20 23.543C20.1314 23.543 20.2596 23.5829 20.3682 23.6572L23.0645 25.7031C23.1425 25.7582 23.2317 25.7949 23.3252 25.8096L23.4209 25.8164C23.5164 25.8164 23.6104 25.7949 23.6953 25.7529L23.7764 25.7041C23.8547 25.649 23.9194 25.5766 23.9648 25.4932L24.0039 25.4062C24.0471 25.2861 24.0522 25.1554 24.0186 25.0322L22.9639 21.5596C22.9275 21.4431 22.9271 21.3179 22.9629 21.2012C22.9898 21.1138 23.036 21.0341 23.0977 20.9678L23.165 20.9062L25.459 19.0605C25.5416 19.0018 25.6073 18.9232 25.6514 18.833L25.6885 18.7393C25.7268 18.6092 25.7201 18.4696 25.6699 18.3438C25.6197 18.2179 25.5284 18.1126 25.4111 18.0449C25.2939 17.9772 25.1574 17.9512 25.0234 17.9707H22.5117L22.4238 17.9639C22.3659 17.9551 22.3098 17.9372 22.2568 17.9121L22.1797 17.8691C22.0816 17.8036 22.0049 17.7104 21.959 17.6016L20.6191 14.498C20.5723 14.3905 20.4955 14.2987 20.3975 14.2344C20.2994 14.1701 20.1846 14.1358 20.0674 14.1357ZM33.8115 20.2334C33.8547 20.7757 34.0477 21.2974 34.3711 21.7383C34.7406 22.242 35.261 22.6149 35.8564 22.8018C36.4658 22.9831 37.0024 23.3538 37.3877 23.8604C37.7727 24.3668 37.9872 24.9827 38 25.6191V30.0645C37.9956 30.8416 37.6853 31.5862 37.1367 32.1357L36.9229 32.3301C36.4025 32.7579 35.7483 32.9961 35.0693 33H4.93066L4.6416 32.9844C4.06755 32.9245 3.52327 32.6969 3.07715 32.3301L2.86328 32.1357C2.31471 31.5862 2.0044 30.8416 2 30.0645V25.6191C2.0112 25.062 2.17715 24.5207 2.47656 24.0547L2.6123 23.8604C2.94935 23.4172 3.40196 23.0773 3.91797 22.8779L4.14355 22.8018C4.66461 22.6382 5.12812 22.3322 5.4834 21.9209L5.62891 21.7383C5.95227 21.2974 6.1453 20.7757 6.18848 20.2334L6.19727 20C6.19727 19.4531 6.04529 18.9186 5.75977 18.4561L5.62891 18.2617C5.25941 17.758 4.73903 17.3851 4.14355 17.1982C3.53416 17.0169 2.99757 16.6462 2.6123 16.1396C2.22727 15.6332 2.0128 15.0173 2 14.3809V9.93555C2.00385 9.25535 2.24182 8.60038 2.66895 8.0791L2.86328 7.86426C3.41183 7.31488 4.15501 7.0044 4.93066 7H35.0693C35.845 7.0044 36.5882 7.31488 37.1367 7.86426C37.6853 8.41382 37.9956 9.15837 38 9.93555V14.3809C37.9872 15.0173 37.7727 15.6332 37.3877 16.1396L37.2363 16.3232C36.8673 16.7362 36.3898 17.0395 35.8564 17.1982C35.261 17.3851 34.7406 17.758 34.3711 18.2617C34.0016 18.7656 33.8027 19.3748 33.8027 20L33.8115 20.2334Z" fill="black"/>
</svg>
