<svg width="40" height="40" viewBox="0 0 40 40" fill="none" xmlns="http://www.w3.org/2000/svg">
<path d="M8.60173 34.9999C8.59419 35 8.58526 35 8.57632 35C6.89544 35 5.42746 34.0614 4.63972 32.6654L4.62805 32.643C4.23337 31.9634 4 31.1439 4 30.2683C4 29.4034 4.2277 28.5932 4.62475 27.8979L4.61314 27.9199L16.0118 7.38462C16.8071 5.9508 18.2829 5 19.9744 5C19.9835 5 19.9926 5.00003 20.0017 5.00009H20.0003C20.0085 5.00003 20.0181 5 20.0278 5C21.7192 5 23.1951 5.9508 23.9787 7.36168L23.9904 7.38462L35.3876 27.9199C35.7726 28.5929 36 29.4026 36 30.267C36 31.1431 35.7663 31.9631 35.3597 32.6644L35.3712 32.643C34.5723 34.0604 33.1053 34.9984 31.4255 34.9984C31.4162 34.9984 31.4069 34.9984 31.3976 34.9984H31.399L8.60173 34.9999ZM17.9496 8.52019L6.55092 29.0554C6.35267 29.4018 6.23558 29.8185 6.23558 30.2634C6.23558 30.7136 6.35552 31.135 6.5643 31.4955L6.55838 31.4844C6.96891 32.213 7.72288 32.6951 8.58623 32.6951C8.59169 32.6951 8.59715 32.6951 8.60262 32.6951H31.3991C31.4037 32.6951 31.4091 32.6951 31.4146 32.6951C32.278 32.6951 33.0319 32.213 33.4364 31.4959L33.4424 31.4844C33.6453 31.1349 33.7653 30.7136 33.7653 30.2634C33.7653 29.8185 33.6482 29.4018 33.4439 29.0441L33.4499 29.0555L22.0513 8.52022C21.6432 7.78309 20.8849 7.29417 20.0159 7.29417C20.0104 7.29417 20.005 7.2942 19.9996 7.29423H20.0004C19.9961 7.2942 19.991 7.29417 19.9859 7.29417C19.1165 7.29417 18.3581 7.78306 17.9556 8.50838L17.9496 8.52019ZM18.5121 26.7046C18.5121 26.7034 18.5121 26.7018 18.5121 26.7003C18.5121 26.2794 18.6769 25.898 18.9438 25.6211L18.9437 25.6211C19.2123 25.3392 19.5855 25.1637 19.9985 25.1614H19.9989C20.8209 25.1614 21.4872 25.8475 21.4872 26.6939C21.4872 27.5403 20.8209 28.2264 19.9989 28.2264C19.1818 28.2255 18.5189 27.5467 18.5122 26.7068V26.7062L18.5121 26.7046ZM18.8842 21.7133V15.9819C18.8842 15.3471 19.3839 14.8325 20.0004 14.8325H20.0019C20.6183 14.8325 21.1181 15.3471 21.1181 15.9819V21.7133C21.1181 22.3481 20.6183 22.8627 20.0019 22.8627C20.0014 22.8627 20.0008 22.8627 20.0003 22.8627H20.0004C19.9999 22.8627 19.9994 22.8627 19.9989 22.8627C19.383 22.8627 18.8836 22.349 18.8827 21.7149V21.7149L18.8842 21.7133Z" fill="black"/>
</svg>
