<svg width="40" height="40" viewBox="0 0 40 40" fill="none" xmlns="http://www.w3.org/2000/svg">
<path d="M29.6 21.5714H10.4C9.44 21.5714 8.8 20.9429 8.8 20C8.8 19.0571 9.44 18.4286 10.4 18.4286H29.6C30.56 18.4286 31.2 19.0571 31.2 20C31.2 20.9429 30.56 21.5714 29.6 21.5714Z" fill="black"/>
<path d="M24.8 31H15.2C14.24 31 13.6 30.3714 13.6 29.4286C13.6 28.4857 14.24 27.8571 15.2 27.8571H24.8C25.76 27.8571 26.4 28.4857 26.4 29.4286C26.4 30.3714 25.76 31 24.8 31Z" fill="black"/>
<path d="M34.4 12.1429H5.6C4.64 12.1429 4 11.5143 4 10.5714C4 9.62857 4.64 9 5.6 9H34.4C35.36 9 36 9.62857 36 10.5714C36 11.5143 35.36 12.1429 34.4 12.1429Z" fill="black"/>
</svg>
