<svg width="40" height="40" viewBox="0 0 40 40" fill="none" xmlns="http://www.w3.org/2000/svg">
<path d="M22.5397 19.2383C25.4353 19.2407 28.2119 20.392 30.2594 22.4395C32.3067 24.4869 33.4581 27.2637 33.4606 30.1592L33.4528 30.4482C33.3795 31.8913 32.7742 33.2605 31.7477 34.2871L31.5377 34.4863C30.4666 35.4565 29.0707 35.9982 27.6188 36H12.3805C10.9288 35.9981 9.53349 35.4563 8.46252 34.4863L8.25256 34.2871C7.22597 33.2605 6.62077 31.8914 6.54749 30.4482L6.53967 30.1592C6.54197 27.4446 7.55428 24.8347 9.3678 22.832L9.74084 22.4395C11.7883 20.392 14.565 19.2407 17.4606 19.2383H22.5397ZM17.0201 21.249C14.8153 21.36 12.7233 22.2851 11.1549 23.8535C9.4822 25.5263 8.54175 27.7946 8.53967 30.1602C8.54198 31.1778 8.94698 32.1534 9.66663 32.873C10.3872 33.5936 11.3644 33.9987 12.3834 34H27.6168C28.6356 33.9987 29.6122 33.5933 30.3326 32.873C31.0523 32.1534 31.4583 31.1778 31.4606 30.1602L31.4489 29.7178C31.3377 27.5133 30.4126 25.4217 28.8444 23.8535C27.2761 22.2854 25.1847 21.3601 22.9801 21.249L22.5377 21.2383H17.4615L17.0201 21.249ZM24.8571 10.8574C24.8571 8.17489 22.6822 6 19.9996 6C17.3173 6.0002 15.1432 8.17502 15.1432 10.8574C15.1433 13.5397 17.3174 15.7137 19.9996 15.7139C22.6821 15.7139 24.8569 13.5398 24.8571 10.8574ZM26.8483 11.21C26.6646 14.8331 23.6684 17.7139 19.9996 17.7139C16.331 17.7137 13.3356 14.833 13.152 11.21L13.1432 10.8574C13.1432 7.07045 16.2127 4.0002 19.9996 4C23.7867 4 26.8571 7.07033 26.8571 10.8574L26.8483 11.21Z" fill="black"/>
</svg>
