<svg width="40" height="40" viewBox="0 0 40 40" fill="none" xmlns="http://www.w3.org/2000/svg">
<path d="M33.9142 13.6998H33.2186V12.2998C33.2167 10.6295 32.5565 9.02815 31.3828 7.84708C30.209 6.666 28.6176 6.00165 26.9577 5.9998H13.0447C11.3847 6.00165 9.79334 6.666 8.6196 7.84708C7.44586 9.02815 6.78564 10.6295 6.7838 12.2998V13.6998H6.08815C5.53465 13.6998 5.00383 13.9211 4.61245 14.3149C4.22107 14.7087 4.00119 15.2428 4.00119 15.7998C4.00119 16.3568 4.22107 16.8909 4.61245 17.2847C5.00383 17.6786 5.53465 17.8998 6.08815 17.8998H6.7838V27.6998C6.78564 29.3701 7.44586 30.9714 8.6196 32.1525C9.79334 33.3336 11.3847 33.9979 13.0447 33.9998H26.9577C28.6176 33.9979 30.209 33.3336 31.3828 32.1525C32.5565 30.9714 33.2167 29.3701 33.2186 27.6998V17.8998H33.9142C34.4677 17.8998 34.9986 17.6786 35.3899 17.2847C35.7813 16.8909 36.0012 16.3568 36.0012 15.7998C36.0012 15.2428 35.7813 14.7087 35.3899 14.3149C34.9986 13.9211 34.4677 13.6998 33.9142 13.6998ZM22.7838 27.6998H17.2186V23.4998C17.2186 22.7572 17.5117 22.045 18.0336 21.5199C18.5554 20.9948 19.2632 20.6998 20.0012 20.6998C20.7392 20.6998 21.4469 20.9948 21.9688 21.5199C22.4906 22.045 22.7838 22.7572 22.7838 23.4998V27.6998ZM20.0012 19.2998C18.8945 19.3009 17.8335 19.7438 17.051 20.5312C16.2685 21.3186 15.8284 22.3862 15.8273 23.4998V27.6998H8.1751V15.0998H31.8273V27.6998H24.1751V23.4998C24.174 22.3862 23.7339 21.3186 22.9514 20.5312C22.1689 19.7438 21.1078 19.3009 20.0012 19.2998ZM13.0447 7.3998H26.9577C28.2487 7.40128 29.4865 7.91801 30.3994 8.83662C31.3123 9.75522 31.8258 11.0007 31.8273 12.2998V13.6998H8.1751V12.2998C8.17658 11.0007 8.69009 9.75522 9.60299 8.83662C10.5159 7.91801 11.7536 7.40128 13.0447 7.3998ZM6.08815 16.4998C5.90365 16.4998 5.72671 16.4261 5.59625 16.2948C5.46579 16.1635 5.39249 15.9855 5.39249 15.7998C5.39249 15.6141 5.46579 15.4361 5.59625 15.3048C5.72671 15.1736 5.90365 15.0998 6.08815 15.0998H6.7838V16.4998H6.08815ZM26.9577 32.5998H13.0447C11.9973 32.5974 10.9784 32.2558 10.139 31.6254C9.29955 30.9951 8.68413 30.1095 8.3838 29.0998H31.6255C31.3249 30.1107 30.7084 30.9971 29.8676 31.6275C29.0267 32.258 28.0063 32.5989 26.9577 32.5998ZM33.9142 16.4998H33.2186V15.0998H33.9142C34.0987 15.0998 34.2757 15.1736 34.4061 15.3048C34.5366 15.4361 34.6099 15.6141 34.6099 15.7998C34.6099 15.9855 34.5366 16.1635 34.4061 16.2948C34.2757 16.4261 34.0987 16.4998 33.9142 16.4998Z" fill="black"/>
<path d="M20.6968 22.7998H19.3055C19.121 22.7998 18.9441 22.8736 18.8136 23.0049C18.6832 23.1361 18.6099 23.3142 18.6099 23.4998C18.6099 23.6855 18.6832 23.8635 18.8136 23.9948C18.9441 24.1261 19.121 24.1998 19.3055 24.1998H20.6968C20.8813 24.1998 21.0583 24.1261 21.1887 23.9948C21.3192 23.8635 21.3925 23.6855 21.3925 23.4998C21.3925 23.3142 21.3192 23.1361 21.1887 23.0049C21.0583 22.8736 20.8813 22.7998 20.6968 22.7998Z" fill="black"/>
<path d="M20.6968 24.8998H19.3055C19.121 24.8998 18.9441 24.9736 18.8136 25.1049C18.6832 25.2361 18.6099 25.4142 18.6099 25.5998C18.6099 25.7855 18.6832 25.9635 18.8136 26.0948C18.9441 26.2261 19.121 26.2998 19.3055 26.2998H20.6968C20.8813 26.2998 21.0583 26.2261 21.1887 26.0948C21.3192 25.9635 21.3925 25.7855 21.3925 25.5998C21.3925 25.4142 21.3192 25.2361 21.1887 25.1049C21.0583 24.9736 20.8813 24.8998 20.6968 24.8998Z" fill="black"/>
<path d="M16.8707 12.2998H23.1316C23.5928 12.2998 24.0352 12.1155 24.3613 11.7873C24.6875 11.4591 24.8707 11.014 24.8707 10.5498C24.8707 10.0857 24.6875 9.6406 24.3613 9.31241C24.0352 8.98422 23.5928 8.79984 23.1316 8.79984H16.8707C16.4095 8.79984 15.9671 8.98422 15.641 9.31241C15.3148 9.6406 15.1316 10.0857 15.1316 10.5498C15.1316 11.014 15.3148 11.4591 15.641 11.7873C15.9671 12.1155 16.4095 12.2998 16.8707 12.2998ZM16.8707 10.1998H23.1316C23.2238 10.1998 23.3123 10.2367 23.3775 10.3024C23.4428 10.368 23.4794 10.457 23.4794 10.5498C23.4794 10.6427 23.4428 10.7317 23.3775 10.7973C23.3123 10.863 23.2238 10.8998 23.1316 10.8998H16.8707C16.7785 10.8998 16.69 10.863 16.6248 10.7973C16.5595 10.7317 16.5229 10.6427 16.5229 10.5498C16.5229 10.457 16.5595 10.368 16.6248 10.3024C16.69 10.2367 16.7785 10.1998 16.8707 10.1998Z" fill="black"/>
</svg>
