<svg width="40" height="40" viewBox="0 0 40 40" fill="none" xmlns="http://www.w3.org/2000/svg">
<path d="M25.701 22.8257L21.2393 19.4794V12.6631C21.2393 11.9777 20.6853 11.4237 19.9999 11.4237C19.3146 11.4237 18.7606 11.9777 18.7606 12.6631V20.0992C18.7606 20.4896 18.944 20.8577 19.2563 21.0907L24.2137 24.8088C24.4368 24.9761 24.6971 25.0566 24.9561 25.0566C25.3341 25.0566 25.7059 24.8868 25.9488 24.5596C26.3604 24.013 26.2488 23.2359 25.701 22.8257Z" fill="black"/>
<path d="M20 4C11.1771 4 4 11.1771 4 20C4 28.8229 11.1771 36 20 36C28.8229 36 36 28.8229 36 20C36 11.1771 28.8229 4 20 4ZM20 33.5213C12.5453 33.5213 6.47869 27.4547 6.47869 20C6.47869 12.5453 12.5453 6.47869 20 6.47869C27.4559 6.47869 33.5213 12.5453 33.5213 20C33.5213 27.4547 27.4547 33.5213 20 33.5213Z" fill="black"/>
</svg>
