<svg width="40" height="40" viewBox="0 0 40 40" fill="none" xmlns="http://www.w3.org/2000/svg">
<path d="M27.0728 14.9231C27.561 15.4114 27.561 16.2029 27.0728 16.6909L18.687 25.0769C18.1987 25.5649 17.4075 25.5649 16.9192 25.0769L12.9272 21.0847C12.439 20.5967 12.439 19.8052 12.9272 19.3171C13.4153 18.8289 14.2068 18.8289 14.6948 19.3171L17.803 22.4253L25.3049 14.9231C25.7932 14.4351 26.5847 14.4351 27.0728 14.9231ZM36 20C36 28.844 28.8428 36 20 36C11.156 36 4 28.8428 4 20C4 11.156 11.1572 4 20 4C28.844 4 36 11.1572 36 20ZM33.5 20C33.5 12.5378 27.4612 6.5 20 6.5C12.5378 6.5 6.5 12.5388 6.5 20C6.5 27.4622 12.5388 33.5 20 33.5C27.4622 33.5 33.5 27.4612 33.5 20Z" fill="black"/>
</svg>
