<svg width="40" height="40" viewBox="0 0 40 40" fill="none" xmlns="http://www.w3.org/2000/svg">
<path d="M36 32.7863C36 33.1044 35.8704 33.4095 35.6397 33.6344C35.409 33.8594 35.0961 33.9857 34.7698 33.9857H7.70527C7.20906 34.0308 6.70876 33.9687 6.23997 33.8039C5.77118 33.639 5.34543 33.3754 4.99304 33.0318C4.64065 32.6883 4.37027 32.2732 4.20116 31.8161C4.03206 31.3591 3.96837 30.8713 4.01465 30.3876V7.19939C4.01465 6.88129 4.14426 6.57622 4.37497 6.35129C4.60568 6.12636 4.91858 6 5.24485 6C5.57112 6 5.88403 6.12636 6.11474 6.35129C6.34545 6.57622 6.47506 6.88129 6.47506 7.19939V30.3876C6.47506 31.3295 6.73914 31.5869 7.70527 31.5869H34.7698C35.0961 31.5869 35.409 31.7133 35.6397 31.9382C35.8704 32.1632 36 32.4682 36 32.7863ZM11.806 24.3906C11.9675 24.391 12.1276 24.3601 12.2768 24.2997C12.426 24.2393 12.5615 24.1506 12.6753 24.0388L18.0882 18.7695C18.1651 18.6948 18.2692 18.6528 18.3777 18.6528C18.4862 18.6528 18.5904 18.6948 18.6672 18.7695L21.3015 21.3282C21.8416 21.8493 22.5714 22.1408 23.3312 22.1387C24.0911 22.1366 24.8192 21.8411 25.3563 21.317L31.8993 14.8995V16.7945C31.8993 17.1126 32.0289 17.4177 32.2596 17.6426C32.4903 17.8675 32.8032 17.9939 33.1295 17.9939C33.4558 17.9939 33.7687 17.8675 33.9994 17.6426C34.2301 17.4177 34.3597 17.1126 34.3597 16.7945V11.9969C34.3573 11.6794 34.2278 11.3753 33.9989 11.1494C33.9874 11.1366 33.971 11.1334 33.9595 11.1222C33.8543 11.0258 33.7327 10.9479 33.6003 10.8919C33.468 10.8411 33.3275 10.8135 33.1853 10.8103C33.167 10.8051 33.1483 10.8008 33.1295 10.7976H28.2087C27.8824 10.7976 27.5695 10.9239 27.3388 11.1488C27.1081 11.3738 26.9785 11.6788 26.9785 11.9969C26.9785 12.315 27.1081 12.6201 27.3388 12.845C27.5695 13.07 27.8824 13.1963 28.2087 13.1963H30.1672L23.6061 19.6155C23.5285 19.6895 23.4243 19.731 23.3158 19.731C23.2072 19.731 23.103 19.6895 23.0254 19.6155L20.401 17.0568C19.8619 16.5358 19.1335 16.2434 18.3744 16.2434C17.6153 16.2434 16.887 16.5358 16.3479 17.0568L10.935 22.3341C10.7596 22.5014 10.6396 22.716 10.5903 22.9503C10.541 23.1846 10.5647 23.4279 10.6583 23.649C10.752 23.8701 10.9113 24.0589 11.1158 24.191C11.3203 24.3232 11.5606 24.3927 11.806 24.3906Z" fill="black"/>
</svg>
