<svg width="40" height="40" viewBox="0 0 40 40" fill="none" xmlns="http://www.w3.org/2000/svg">
<path d="M20 4C11.1568 4 4 11.156 4 20C4 28.8431 11.156 36 20 36C28.8432 36 36 28.844 36 20C36 11.1568 28.844 4 20 4ZM20 33.7674C12.4086 33.7674 6.23256 27.5914 6.23256 20C6.23256 12.4086 12.4086 6.23256 20 6.23256C27.5914 6.23256 33.7674 12.4086 33.7674 20C33.7674 27.5914 27.5914 33.7674 20 33.7674Z" fill="black"/>
<path d="M19.5266 24.2453C18.642 24.2453 17.9259 24.9824 17.9259 25.8669C17.9259 26.7304 18.6209 27.4886 19.5266 27.4886C20.4322 27.4886 21.1482 26.7304 21.1482 25.8669C21.1482 24.9824 20.4111 24.2453 19.5266 24.2453Z" fill="black"/>
<path d="M19.8003 11.9668C16.9571 11.9668 15.6513 13.6518 15.6513 14.789C15.6513 15.6104 16.3463 15.9895 16.9149 15.9895C18.0523 15.9895 17.5889 14.3678 19.7371 14.3678C20.7901 14.3678 21.6326 14.8311 21.6326 15.7999C21.6326 16.9372 20.4532 17.5901 19.7582 18.1798C19.1474 18.7062 18.3471 19.5698 18.3471 21.381C18.3471 22.4761 18.642 22.7921 19.5054 22.7921C20.5374 22.7921 20.748 22.3288 20.748 21.9285C20.748 20.8334 20.7691 20.2016 21.9274 19.2959C22.4961 18.8537 24.2862 17.4215 24.2862 15.4418C24.2862 13.4621 22.4961 11.9668 19.8003 11.9668Z" fill="black"/>
</svg>
