<svg width="40" height="40" viewBox="0 0 40 40" fill="none" xmlns="http://www.w3.org/2000/svg">
<path d="M29.1346 17.6484C29.4888 17.6486 29.8366 17.7522 30.1356 17.9453C30.4343 18.1385 30.6727 18.4144 30.8231 18.7402C30.9735 19.0664 31.0295 19.4299 30.9842 19.7871L30.9627 19.9199C30.9016 20.2273 30.7665 20.5157 30.5682 20.7578L18.6307 35.3125C18.4584 35.5262 18.2414 35.6996 17.9959 35.8183L17.8074 35.8965C17.6156 35.964 17.4128 35.9992 17.2088 36C16.9191 35.9989 16.6326 35.9302 16.3729 35.7998C15.9946 35.616 15.6889 35.306 15.5076 34.9218C15.3264 34.5375 15.2797 34.1013 15.3758 33.6865L16.6414 27.8965L18.7361 25.8066L16.9393 34.0283C16.9379 34.0347 16.9359 34.0414 16.9344 34.0478C16.9193 34.1129 16.9275 34.1811 16.9549 34.2392C16.9685 34.268 16.9858 34.2932 17.0057 34.3134L17.0721 34.3603L17.0916 34.3701C17.129 34.3889 17.1693 34.3984 17.2088 34.3994C17.2388 34.3985 17.2697 34.3918 17.2986 34.3779C17.3296 34.3629 17.3599 34.3392 17.3846 34.3086L17.3934 34.2978L29.3299 19.7431C29.3647 19.7007 29.3895 19.6464 29.3973 19.5859C29.405 19.5251 29.3955 19.4634 29.3709 19.4101C29.3465 19.3573 29.3092 19.3162 29.2674 19.289C29.2467 19.2757 29.2241 19.2653 29.202 19.2588L29.1336 19.249H25.3113L26.9158 17.6484H29.1346ZM26.5936 3.99997C26.9043 3.99985 27.211 4.07897 27.4842 4.22946C27.7573 4.38004 27.9896 4.59761 28.159 4.86227C28.3284 5.12712 28.4294 5.43119 28.4539 5.74606C28.4784 6.06096 28.425 6.37737 28.2986 6.66599L25.9783 11.9658L30.4637 7.49313C30.9153 7.04285 31.646 7.04365 32.0965 7.49509C32.547 7.9467 32.5462 8.67837 32.0945 9.12888L9.47052 31.6972C9.01889 32.1475 8.28715 32.1468 7.83673 31.6953C7.38623 31.2437 7.38804 30.512 7.83966 30.0615L13.4412 24.4736H10.866C10.6443 24.4737 10.4244 24.4332 10.2176 24.3554L10.0154 24.2656C9.81823 24.163 9.64114 24.0252 9.492 23.8603L9.35236 23.6865C9.22272 23.5037 9.12597 23.299 9.0672 23.083L9.0213 22.8633C8.97682 22.5663 9.0019 22.2624 9.09552 21.9775L14.5692 5.29587C14.6772 4.96571 14.8729 4.67299 15.1326 4.44919L15.2479 4.35739C15.5653 4.12495 15.9474 3.99978 16.3387 3.99997H26.5936ZM16.3377 5.59958C16.2887 5.59961 16.2377 5.61584 16.1932 5.64841C16.1484 5.68133 16.1101 5.73085 16.0897 5.79294V5.79489L10.616 22.4765V22.4775C10.6005 22.5247 10.5959 22.5758 10.6033 22.6259C10.6109 22.6761 10.6301 22.7227 10.657 22.7607C10.6839 22.7984 10.7179 22.827 10.7537 22.8457C10.7893 22.8641 10.8277 22.8729 10.8651 22.873H15.0457L22.8826 15.0547L26.8328 6.02438H26.8338C26.8545 5.97715 26.8634 5.92364 26.8592 5.87009C26.855 5.81667 26.8381 5.76643 26.8113 5.72458C26.7847 5.68299 26.7492 5.65155 26.7117 5.63083C26.6744 5.61033 26.6339 5.59962 26.5945 5.59958H16.3377Z" fill="black"/>
</svg>
