<svg width="40" height="40" viewBox="0 0 40 40" fill="none" xmlns="http://www.w3.org/2000/svg">
<path d="M2.48335 18.75H34.4646L29.1021 13.3812C28.8973 13.1421 28.7903 12.8345 28.8025 12.5199C28.8146 12.2053 28.945 11.9069 29.1676 11.6843C29.3903 11.4617 29.6887 11.3313 30.0033 11.3191C30.3179 11.307 30.6255 11.414 30.8646 11.6187L38.3646 19.1187C38.5116 19.2631 38.6218 19.4406 38.686 19.6364C38.7501 19.8321 38.7664 20.0404 38.7334 20.2437C38.6769 20.4791 38.5581 20.695 38.3896 20.8687L30.8896 28.3687C30.7775 28.4996 30.6396 28.6059 30.4846 28.6809C30.3295 28.7559 30.1606 28.7981 29.9884 28.8047C29.8163 28.8114 29.6446 28.7824 29.4842 28.7195C29.3238 28.6567 29.1781 28.5614 29.0563 28.4396C28.9345 28.3177 28.8391 28.1721 28.7763 28.0117C28.7135 27.8512 28.6845 27.6796 28.6911 27.5074C28.6978 27.3353 28.7399 27.1664 28.8149 27.0113C28.89 26.8562 28.9962 26.7183 29.1271 26.6062L34.4646 21.25H2.48335C2.15183 21.25 1.83389 21.1183 1.59947 20.8839C1.36505 20.6495 1.23335 20.3315 1.23335 20C1.23335 19.6685 1.36505 19.3505 1.59947 19.1161C1.83389 18.8817 2.15183 18.75 2.48335 18.75Z" fill="black"/>
</svg>
