<svg width="40" height="40" viewBox="0 0 40 40" fill="none" xmlns="http://www.w3.org/2000/svg">
<path d="M12.0018 5C8.14306 5 5.0023 8.589 5.0023 13C4.96791 14.4506 5.32028 15.8843 6.0232 17.1537C6.72612 18.4231 7.75425 19.4824 9.00199 20.223V32C9.00199 32.7957 9.31804 33.5587 9.8806 34.1213C10.4432 34.6839 11.2062 35 12.0018 35C12.7973 35 13.5604 34.6839 14.1229 34.1213C14.6855 33.5587 15.0015 32.7957 15.0015 32V20.223C16.2493 19.4824 17.2774 18.4231 17.9803 17.1537C18.6832 15.8843 19.0356 14.4506 19.0012 13C19.0012 8.589 15.8605 5 12.0018 5ZM13.6196 18.669C13.4368 18.7446 13.2805 18.8727 13.1705 19.0372C13.0604 19.2017 13.0017 19.3951 13.0017 19.593V32C13.0017 32.2652 12.8963 32.5196 12.7088 32.7071C12.5213 32.8946 12.267 33 12.0018 33C11.7366 33 11.4822 32.8946 11.2947 32.7071C11.1072 32.5196 11.0018 32.2652 11.0018 32V19.593C11.0018 19.3951 10.9431 19.2017 10.8331 19.0372C10.7231 18.8727 10.5667 18.7446 10.3839 18.669C9.32983 18.1556 8.44846 17.3457 7.84778 16.3388C7.2471 15.3318 6.95322 14.1715 7.00214 13C7.00214 9.691 9.24497 7 12.0018 7C14.7585 7 17.0014 9.691 17.0014 13C17.0503 14.1715 16.7564 15.3318 16.1557 16.3388C15.5551 17.3457 14.6737 18.1556 13.6196 18.669Z" fill="black"/>
<path d="M34.0001 5C33.7349 5 33.4805 5.10536 33.293 5.29289C33.1055 5.48043 33.0002 5.73478 33.0002 6V16C33.0002 16.7956 32.6841 17.5587 32.1215 18.1213C31.559 18.6839 30.796 19 30.0004 19C29.7352 19 29.4809 19.1054 29.2933 19.2929C29.1058 19.4804 29.0005 19.7348 29.0005 20V32C29.0005 32.2652 28.8951 32.5196 28.7076 32.7071C28.5201 32.8946 28.2657 33 28.0005 33C27.7353 33 27.481 32.8946 27.2935 32.7071C27.106 32.5196 27.0006 32.2652 27.0006 32V20C27.0006 19.7348 26.8953 19.4804 26.7077 19.2929C26.5202 19.1054 26.2659 19 26.0007 19C25.2051 19 24.4421 18.6839 23.8795 18.1213C23.317 17.5587 23.0009 16.7956 23.0009 16V6C23.0009 5.73478 22.8956 5.48043 22.708 5.29289C22.5205 5.10536 22.2662 5 22.001 5C21.7358 5 21.4815 5.10536 21.2939 5.29289C21.1064 5.48043 21.0011 5.73478 21.0011 6V16C21.0023 17.1523 21.4009 18.2688 22.1295 19.1614C22.8581 20.054 23.8722 20.6681 25.0008 20.9V32C25.0008 32.7957 25.3168 33.5587 25.8794 34.1213C26.4419 34.6839 27.2049 35 28.0005 35C28.7961 35 29.5591 34.6839 30.1217 34.1213C30.6843 33.5587 31.0003 32.7957 31.0003 32V20.9C32.1289 20.6681 33.143 20.054 33.8716 19.1614C34.6002 18.2688 34.9987 17.1523 35 16V6C35 5.73478 34.8947 5.48043 34.7071 5.29289C34.5196 5.10536 34.2653 5 34.0001 5Z" fill="black"/>
<path d="M26.0007 17C26.2659 17 26.5202 16.8946 26.7077 16.7071C26.8953 16.5196 27.0006 16.2652 27.0006 16V6C27.0006 5.73478 26.8953 5.48043 26.7077 5.29289C26.5202 5.10536 26.2659 5 26.0007 5C25.7355 5 25.4812 5.10536 25.2936 5.29289C25.1061 5.48043 25.0008 5.73478 25.0008 6V16C25.0008 16.2652 25.1061 16.5196 25.2936 16.7071C25.4812 16.8946 25.7355 17 26.0007 17Z" fill="black"/>
<path d="M30.0004 17C30.2656 17 30.5199 16.8946 30.7074 16.7071C30.895 16.5196 31.0003 16.2652 31.0003 16V6C31.0003 5.73478 30.895 5.48043 30.7074 5.29289C30.5199 5.10536 30.2656 5 30.0004 5C29.7352 5 29.4809 5.10536 29.2933 5.29289C29.1058 5.48043 29.0005 5.73478 29.0005 6V16C29.0005 16.2652 29.1058 16.5196 29.2933 16.7071C29.4809 16.8946 29.7352 17 30.0004 17Z" fill="black"/>
</svg>
