<svg width="40" height="40" viewBox="0 0 40 40" fill="none" xmlns="http://www.w3.org/2000/svg">
<path fill-rule="evenodd" clip-rule="evenodd" d="M8.18843 20.1549L20.0093 31.2257L31.8301 20.155C34.6724 17.1938 34.057 12.7902 31.5808 10.2378C30.3674 8.98698 28.7595 8.25383 26.9782 8.38444C25.1972 8.51504 23.0699 9.52373 20.8659 12.1075C20.6491 12.3617 20.3371 12.5073 20.0093 12.5073C19.6815 12.5073 19.3695 12.3617 19.1527 12.1075C16.9488 9.52388 14.8181 8.51145 13.0321 8.37766C11.2461 8.24386 9.6341 8.97418 8.4189 10.2218C5.94176 12.7649 5.3211 17.1679 8.18843 20.1549ZM20.0093 9.606C17.7737 7.31958 15.4384 6.18992 13.1972 6.02202C10.668 5.83253 8.42956 6.88243 6.80938 8.54582C3.62126 11.8189 2.62875 17.7468 6.59237 21.8449C6.60567 21.8587 6.61928 21.8721 6.63322 21.8851L19.2425 33.6943C19.6777 34.1019 20.3409 34.1019 20.7761 33.6943L33.3854 21.8851C33.3994 21.8721 33.4129 21.8587 33.4263 21.8449C37.3693 17.768 36.3715 11.8408 33.1938 8.56521C31.5774 6.89918 29.3436 5.84323 26.8167 6.02853C24.5776 6.19271 22.2443 7.32022 20.0093 9.606Z" fill="black"/>
</svg>
