<svg width="40" height="40" viewBox="0 0 40 40" fill="none" xmlns="http://www.w3.org/2000/svg">
<path fill-rule="evenodd" clip-rule="evenodd" d="M12.3989 7.2C11.9253 5.35976 10.2548 4 8.26667 4C5.91025 4 4 5.91025 4 8.26666C4 10.6231 5.91025 12.5333 8.26667 12.5333C10.2548 12.5333 11.9253 11.1736 12.3989 9.33333H29.6C31.9564 9.33333 33.8667 11.2436 33.8667 13.6C33.8667 15.9564 31.9564 17.8667 29.6 17.8667H10.8C7.04446 17.8667 4 20.9111 4 24.6667C4 28.4222 7.04446 31.4667 10.8 31.4667H32.1415L29.1554 34.1384C28.7164 34.5312 28.6789 35.2055 29.0717 35.6446C29.4645 36.0836 30.1389 36.121 30.5779 35.7282L35.6446 31.1949C35.8707 30.9926 36 30.7034 36 30.4C36 30.0965 35.8707 29.8074 35.6446 29.605L30.5779 25.0717C30.1389 24.6789 29.4645 24.7164 29.0717 25.1554C28.6789 25.5944 28.7164 26.2688 29.1554 26.6616L32.1415 29.3333H10.8C8.22267 29.3333 6.13333 27.244 6.13333 24.6667C6.13333 22.0893 8.22267 20 10.8 20H29.6C33.1346 20 36 17.1346 36 13.6C36 10.0654 33.1346 7.2 29.6 7.2H12.3989ZM6.13333 8.26666C6.13333 7.08846 7.08846 6.13333 8.26667 6.13333C9.44485 6.13333 10.4 7.08846 10.4 8.26666C10.4 9.44485 9.44485 10.4 8.26667 10.4C7.08846 10.4 6.13333 9.44485 6.13333 8.26666Z" fill="black"/>
</svg>
