<svg width="40" height="40" viewBox="0 0 40 40" fill="none" xmlns="http://www.w3.org/2000/svg">
<path d="M35.0673 30.1136L33.9646 30.1134C33.5077 23.1328 27.927 17.5404 20.9234 17.0871L20.9313 15.9292C22.2655 15.9436 23.535 15.5212 24.588 14.7152C24.9138 14.4658 25.0397 14.0336 24.8985 13.6485C24.7578 13.2645 24.3849 13.0157 23.976 13.0345C22.2873 13.0231 20.9171 11.6463 20.9171 9.9557C20.9171 8.26214 22.2954 6.88122 23.9894 6.87735C24.8842 6.87216 25.2647 5.73285 24.5518 5.19141C20.7036 2.24204 14.9798 5.12117 15.0238 9.96676C15.0237 12.5794 16.7135 14.8049 19.0579 15.609L19.0478 17.0887C12.0772 17.5533 6.49448 23.1222 6.03559 30.1091L4.933 30.109C3.68886 30.1582 3.68924 31.9344 4.93269 31.9837L6.00402 31.9839V35.0626C6.00402 35.5803 6.4239 36 6.94181 36H33.0582C33.5761 36 33.996 35.5803 33.996 35.0626V31.9881L35.0671 31.9883C36.3112 31.9391 36.3107 30.1629 35.0673 30.1136ZM16.8993 9.9667C16.8928 7.64508 18.8621 5.76835 21.1812 5.88265C18.3312 7.81187 18.3487 12.1425 21.2096 14.0493C18.8814 14.1811 16.8919 12.2984 16.8993 9.9667ZM20 18.9311C26.3675 18.9311 31.6039 23.8653 32.0845 30.1091H7.91536C8.39532 23.8652 13.6316 18.9311 20 18.9311ZM32.1204 34.1253H7.87954V31.9838H32.1204V34.1253Z" fill="black"/>
</svg>
