<svg width="40" height="40" viewBox="0 0 40 40" fill="none" xmlns="http://www.w3.org/2000/svg">
<path d="M7.27274 18.7654H29.6551L22.9185 12.1491C22.797 12.0338 22.7 11.8959 22.6333 11.7434C22.5666 11.5909 22.5315 11.4268 22.53 11.2609C22.5286 11.0949 22.5608 10.9303 22.6248 10.7767C22.6887 10.623 22.7833 10.4835 22.9028 10.3661C23.0223 10.2488 23.1644 10.1559 23.3208 10.0931C23.4772 10.0302 23.6448 9.9986 23.8138 10C23.9828 10.0015 24.1498 10.036 24.3051 10.1015C24.4603 10.167 24.6008 10.2622 24.7182 10.3816L33.6274 19.1316C33.866 19.366 34 19.6839 34 20.0154C34 20.3468 33.866 20.6647 33.6274 20.8991L24.7182 29.6491C24.4781 29.8768 24.1566 30.0028 23.8229 30C23.4892 29.9971 23.17 29.8656 22.934 29.6339C22.6981 29.4021 22.5642 29.0886 22.5613 28.7609C22.5584 28.4331 22.6867 28.1174 22.9185 27.8816L29.6551 21.2654H7.27274C6.93519 21.2654 6.61146 21.1337 6.37278 20.8992C6.13409 20.6648 6 20.3469 6 20.0154C6 19.6838 6.13409 19.3659 6.37278 19.1315C6.61146 18.8971 6.93519 18.7654 7.27274 18.7654Z" fill="black"/>
</svg>
