<svg width="40" height="40" viewBox="0 0 40 40" fill="none" xmlns="http://www.w3.org/2000/svg">
<path d="M22.9749 14.065H18.8386L21.4979 9.37147C21.7868 8.86104 21.6157 8.20874 21.1148 7.91433C20.6118 7.61938 19.9738 7.79486 19.6849 8.30475L16.1196 14.5984C15.9333 14.9285 15.9333 15.335 16.1196 15.6651C16.3065 15.9953 16.6524 16.1985 17.0261 16.1985H21.1624L18.5031 20.892C18.2142 21.4025 18.3854 22.0548 18.8862 22.3492C19.0511 22.4463 19.2311 22.4921 19.4086 22.4921C19.7702 22.4921 20.1219 22.3012 20.3161 21.9588L23.8814 15.6651C24.0677 15.335 24.0677 14.9285 23.8814 14.5984C23.6946 14.2682 23.3486 14.065 22.9749 14.065Z" fill="black"/>
<path d="M29.5638 4H10.4362C7.98991 4 6 6.02837 6 8.52129V21.7428C6 24.2357 7.98991 26.264 10.4362 26.264H10.7591V32.8025C10.7591 34.5658 12.1665 36 13.8973 36H26.1027C27.8335 36 29.2409 34.5658 29.2409 32.8025V26.264H29.5638C32.0101 26.264 34 24.2357 34 21.7428V8.52129C34 6.02837 32.0101 4 29.5638 4ZM27.1473 32.802C27.1473 33.3892 26.6784 33.866 26.1027 33.866H13.8973C13.3211 33.866 12.8527 33.3887 12.8527 32.802V26.2635H27.1473V32.802ZM31.9065 21.7428C31.9065 23.0596 30.8555 24.1306 29.5638 24.1306H10.4362C9.14449 24.1306 8.09354 23.0596 8.09354 21.7428V8.52129C8.09354 7.20443 9.14449 6.13344 10.4362 6.13344H29.5643C30.856 6.13344 31.907 7.20443 31.907 8.52129L31.9065 21.7428Z" fill="black"/>
<path d="M15.4403 31.0936H17.84C18.4178 31.0936 18.8868 30.6157 18.8868 30.0269C18.8868 29.4381 18.4178 28.9602 17.84 28.9602H15.4403C14.8625 28.9602 14.3935 29.4381 14.3935 30.0269C14.3935 30.6157 14.8625 31.0936 15.4403 31.0936Z" fill="black"/>
<path d="M22.16 31.0936H24.5597C25.1375 31.0936 25.6065 30.6157 25.6065 30.0269C25.6065 29.4381 25.1375 28.9602 24.5597 28.9602H22.16C21.5822 28.9602 21.1132 29.4381 21.1132 30.0269C21.1132 30.6157 21.5822 31.0936 22.16 31.0936Z" fill="black"/>
</svg>
