<svg width="40" height="40" viewBox="0 0 40 40" fill="none" xmlns="http://www.w3.org/2000/svg">
<path d="M34.7682 18.8136H5.23176C4.55183 18.8136 4 19.361 4 20.0354C4 20.7099 4.55183 21.2573 5.23176 21.2573H34.7682C35.4482 21.2573 36 20.7099 36 20.0354C36 19.361 35.4488 18.8136 34.7682 18.8136Z" fill="black"/>
<path d="M34.7682 9H5.23176C4.55183 9 4 9.5474 4 10.2219C4 10.8964 4.55183 11.4438 5.23176 11.4438H34.7682C35.4482 11.4438 36 10.8964 36 10.2219C36 9.5474 35.4488 9 34.7682 9Z" fill="black"/>
<path d="M34.7682 28.5562H5.23176C4.55183 28.5562 4 29.1036 4 29.7781C4 30.4526 4.55183 31 5.23176 31H34.7682C35.4482 31 36 30.4526 36 29.7781C36 29.1036 35.4488 28.5562 34.7682 28.5562Z" fill="black"/>
</svg>
