<svg width="40" height="40" viewBox="0 0 40 40" fill="none" xmlns="http://www.w3.org/2000/svg">
<path fill-rule="evenodd" clip-rule="evenodd" d="M22.6136 6.62667C21.5909 6.62667 20.7618 7.43852 20.7618 8.44C20.7618 9.44148 21.5909 10.2533 22.6136 10.2533C23.6364 10.2533 24.4655 9.44148 24.4655 8.44C24.4655 7.43852 23.6364 6.62667 22.6136 6.62667ZM21.6877 8.44C21.6877 7.93926 22.1023 7.53333 22.6136 7.53333C23.125 7.53333 23.5396 7.93926 23.5396 8.44C23.5396 8.94074 23.125 9.34667 22.6136 9.34667C22.1023 9.34667 21.6877 8.94074 21.6877 8.44Z" fill="black"/>
<path fill-rule="evenodd" clip-rule="evenodd" d="M13.713 10.2283C12.3067 10.2283 11.1667 11.3446 11.1667 12.7217C11.1667 14.0987 12.3067 15.215 13.713 15.215C15.1193 15.215 16.2593 14.0987 16.2593 12.7217C16.2593 11.3446 15.1193 10.2283 13.713 10.2283ZM12.0926 12.7217C12.0926 11.8454 12.8181 11.135 13.713 11.135C14.6079 11.135 15.3334 11.8454 15.3334 12.7217C15.3334 13.5979 14.6079 14.3083 13.713 14.3083C12.8181 14.3083 12.0926 13.5979 12.0926 12.7217Z" fill="black"/>
<path fill-rule="evenodd" clip-rule="evenodd" d="M17.067 12.7217C17.067 11.3446 18.207 10.2283 19.6133 10.2283C21.0196 10.2283 22.1596 11.3446 22.1596 12.7217C22.1596 14.0987 21.0196 15.215 19.6133 15.215C18.207 15.215 17.067 14.0987 17.067 12.7217ZM19.6133 11.135C18.7184 11.135 17.9929 11.8454 17.9929 12.7217C17.9929 13.5979 18.7184 14.3083 19.6133 14.3083C20.5082 14.3083 21.2337 13.5979 21.2337 12.7217C21.2337 11.8454 20.5082 11.135 19.6133 11.135Z" fill="black"/>
<path fill-rule="evenodd" clip-rule="evenodd" d="M22.9674 12.7217C22.9674 11.3446 24.1074 10.2283 25.5137 10.2283C26.92 10.2283 28.06 11.3446 28.06 12.7217C28.06 14.0987 26.92 15.215 25.5137 15.215C24.1074 15.215 22.9674 14.0987 22.9674 12.7217ZM25.5137 11.135C24.6188 11.135 23.8933 11.8454 23.8933 12.7217C23.8933 13.5979 24.6188 14.3083 25.5137 14.3083C26.4086 14.3083 27.1341 13.5979 27.1341 12.7217C27.1341 11.8454 26.4086 11.135 25.5137 11.135Z" fill="black"/>
<path fill-rule="evenodd" clip-rule="evenodd" d="M13.4815 18.1241C13.4815 16.7471 14.6216 15.6308 16.0278 15.6308C17.4341 15.6308 18.5741 16.7471 18.5741 18.1241C18.5741 19.5012 17.4341 20.6175 16.0278 20.6175C14.6216 20.6175 13.4815 19.5012 13.4815 18.1241ZM16.0278 16.5375C15.1329 16.5375 14.4075 17.2478 14.4075 18.1241C14.4075 19.0004 15.1329 19.7108 16.0278 19.7108C16.9227 19.7108 17.6482 19.0004 17.6482 18.1241C17.6482 17.2478 16.9227 16.5375 16.0278 16.5375Z" fill="black"/>
<path fill-rule="evenodd" clip-rule="evenodd" d="M20.2897 18.1241C20.2897 16.7471 21.4297 15.6308 22.836 15.6308C24.2422 15.6308 25.3823 16.7471 25.3823 18.1241C25.3823 19.5012 24.2422 20.6175 22.836 20.6175C21.4297 20.6175 20.2897 19.5012 20.2897 18.1241ZM22.836 16.5375C21.9411 16.5375 21.2156 17.2478 21.2156 18.1241C21.2156 19.0004 21.9411 19.7108 22.836 19.7108C23.7309 19.7108 24.4563 19.0004 24.4563 18.1241C24.4563 17.2478 23.7309 16.5375 22.836 16.5375Z" fill="black"/>
<path fill-rule="evenodd" clip-rule="evenodd" d="M16.2593 6.62667C15.2366 6.62667 14.4075 7.43852 14.4075 8.44C14.4075 9.44148 15.2366 10.2533 16.2593 10.2533C17.2821 10.2533 18.1112 9.44148 18.1112 8.44C18.1112 7.43852 17.2821 6.62667 16.2593 6.62667ZM15.3334 8.44C15.3334 7.93926 15.7479 7.53333 16.2593 7.53333C16.7707 7.53333 17.1852 7.93926 17.1852 8.44C17.1852 8.94074 16.7707 9.34667 16.2593 9.34667C15.7479 9.34667 15.3334 8.94074 15.3334 8.44Z" fill="black"/>
<path fill-rule="evenodd" clip-rule="evenodd" d="M14.4075 27.48C12.6177 27.48 11.1667 28.9008 11.1667 30.6533C11.1667 32.4059 12.6177 33.8267 14.4075 33.8267C16.1973 33.8267 17.6482 32.4059 17.6482 30.6533C17.6482 28.9008 16.1973 27.48 14.4075 27.48ZM12.0926 30.6533C12.0926 29.4015 13.129 28.3867 14.4075 28.3867C15.6859 28.3867 16.7223 29.4015 16.7223 30.6533C16.7223 31.9052 15.6859 32.92 14.4075 32.92C13.129 32.92 12.0926 31.9052 12.0926 30.6533Z" fill="black"/>
<path fill-rule="evenodd" clip-rule="evenodd" d="M24.5926 27.48C22.8028 27.48 21.3519 28.9008 21.3519 30.6533C21.3519 32.4059 22.8028 33.8267 24.5926 33.8267C26.3825 33.8267 27.8334 32.4059 27.8334 30.6533C27.8334 28.9008 26.3825 27.48 24.5926 27.48ZM22.2778 30.6533C22.2778 29.4015 23.3142 28.3867 24.5926 28.3867C25.8711 28.3867 26.9075 29.4015 26.9075 30.6533C26.9075 31.9052 25.8711 32.92 24.5926 32.92C23.3142 32.92 22.2778 31.9052 22.2778 30.6533Z" fill="black"/>
<path fill-rule="evenodd" clip-rule="evenodd" d="M26.3334 3H12.6202L12.3584 3.22424L12.968 3.90667C12.3584 3.22424 12.3584 3.22424 12.3584 3.22424L12.3559 3.22638L12.3516 3.2301L12.3376 3.24229C12.3259 3.25251 12.3095 3.26688 12.2888 3.28531C12.2473 3.32217 12.1885 3.37527 12.1147 3.44372C11.9671 3.58057 11.7594 3.77915 11.5116 4.03233C11.017 4.53775 10.3577 5.26587 9.6969 6.15953C8.39254 7.92363 6.99988 10.4439 7 13.2265C7.00011 15.7667 8.14489 18.1132 9.53263 19.9373C10.9166 21.7564 12.6251 23.1652 13.9248 23.8098C14.075 23.8843 14.2364 23.954 14.4075 24.019V24.3067H13.4815C9.90191 24.3067 7.00006 27.1482 7.00006 30.6533C7.00006 34.1585 9.90191 37 13.4815 37H25.518C29.0976 37 31.9995 34.1585 31.9995 30.6533C31.9995 27.1482 29.0976 24.3067 25.518 24.3067H24.5926V24.1013C24.8498 24.0137 25.0884 23.9167 25.304 23.8098C26.619 23.1576 28.2629 21.7247 29.5802 19.9012C30.9037 18.069 31.9776 15.7319 31.9996 13.2343C32.0271 10.1194 30.6457 7.5963 29.3066 5.88422C28.634 5.02431 27.9606 4.35381 27.4537 3.89678C27.1998 3.66783 26.9863 3.49121 26.8337 3.36998C26.7574 3.30933 26.6962 3.26244 26.6526 3.2297C26.6308 3.21333 26.6134 3.20048 26.6008 3.19121L26.5854 3.17999L26.5804 3.17639L26.5786 3.1751C26.5786 3.1751 26.5773 3.17415 26.0316 3.90667L26.5773 3.17415L26.3334 3ZM12.8487 5.28694C13.0423 5.08907 13.2073 4.9297 13.3312 4.81333H25.711C25.834 4.91235 26.0013 5.05221 26.1993 5.2307C26.6456 5.6332 27.2422 6.22713 27.8364 6.98681C29.0308 8.51393 30.1705 10.6507 30.1478 13.2186C30.1301 15.2282 29.2559 17.21 28.0683 18.8541C26.8744 20.5068 25.4442 21.7076 24.4673 22.1921C23.5245 22.6596 21.6458 22.9467 19.6144 22.9467C17.583 22.9467 15.7043 22.6596 14.7615 22.1921C13.7693 21.7 12.2693 20.4991 11.0177 18.854C9.76984 17.2138 8.85194 15.2413 8.85185 13.2264C8.85176 11.0082 9.98014 8.86854 11.1969 7.22295C11.7967 6.41178 12.3979 5.74761 12.8487 5.28694ZM8.85191 30.6533C8.85191 28.1496 10.9247 26.12 13.4815 26.12H25.518C28.0749 26.12 30.1476 28.1496 30.1476 30.6533C30.1476 33.157 28.0749 35.1867 25.518 35.1867H13.4815C10.9247 35.1867 8.85191 33.157 8.85191 30.6533Z" fill="black"/>
</svg>
