<svg width="40" height="40" viewBox="0 0 40 40" fill="none" xmlns="http://www.w3.org/2000/svg">
<path fill-rule="evenodd" clip-rule="evenodd" d="M33.4568 6.54323C33.2012 6.2878 32.8765 6.11253 32.5228 6.03892C32.169 5.96531 31.8014 5.99656 31.4651 6.12884L7.17588 15.6971C6.81275 15.8398 6.50391 16.0935 6.29331 16.422C6.08271 16.7505 5.98109 17.137 6.0029 17.5266C6.02472 17.9162 6.16886 18.289 6.41482 18.5919C6.66077 18.8948 6.99601 19.1124 7.37281 19.2138L17.9359 22.0641L20.7862 32.6272C20.8876 33.004 21.1052 33.3392 21.4081 33.5852C21.711 33.8311 22.0838 33.9753 22.4734 33.9971C22.863 34.0189 23.2495 33.9173 23.578 33.7067C23.9065 33.4961 24.1602 33.1872 24.3029 32.8241L33.8712 8.5349C34.0034 8.19861 34.0347 7.83103 33.9611 7.47725C33.8875 7.12346 33.7122 6.79885 33.4568 6.54323ZM22.5791 32.1073L19.7363 21.5722C19.6515 21.2593 19.4863 20.974 19.2571 20.7448C19.0279 20.5155 18.7426 20.3503 18.4297 20.2656L7.89266 17.4209L32.124 7.87599L22.5791 32.1073Z" fill="black"/>
</svg>
