<svg width="40" height="40" viewBox="0 0 40 40" fill="none" xmlns="http://www.w3.org/2000/svg">
<path d="M35.5712 15.7118L24.1849 4.3861C23.6673 3.8713 22.891 3.8713 22.3734 4.3861L18.2329 8.50454C17.586 9.14804 17.8448 9.92025 18.2329 10.3064L19.1387 11.2073L15.257 15.0683C13.3161 14.6822 8.0111 13.7813 5.16451 16.6127C4.64695 17.1275 4.64695 17.8997 5.16451 18.4145L12.5398 25.7505L4.38817 33.8586C3.87061 34.3734 3.87061 35.1456 4.38817 35.6605C4.90573 36.1753 5.81146 36.0466 6.19964 35.6605L14.3512 27.5523L21.7265 34.8882C22.5028 35.5318 23.2792 35.2744 23.5379 34.8882C26.3845 32.0568 25.4788 26.7801 25.0906 24.8496L28.9723 20.9885L29.8781 21.8894C30.3956 22.4042 31.172 22.4042 31.6895 21.8894L35.83 17.771C36.0888 16.9988 36.0888 16.2266 35.5712 15.7118ZM30.525 18.9293L29.6193 18.0284C29.1017 17.5136 28.3254 17.5136 27.8078 18.0284L22.5028 23.4339C22.1146 23.82 21.9853 24.2061 22.1146 24.7209C22.5028 26.1366 23.1498 29.6115 22.1146 31.9281L7.88171 17.771C10.0813 16.7414 13.7043 17.3849 15.1276 17.771C15.5157 17.8997 16.0333 17.771 16.4215 17.3849L21.7265 12.1082C22.5028 11.336 22.1146 10.6925 21.7265 10.3064L20.8207 9.40544L23.2792 7.08882L32.854 16.6127L30.525 18.9293Z" fill="black"/>
</svg>
