<svg width="40" height="40" viewBox="0 0 40 40" fill="none" xmlns="http://www.w3.org/2000/svg">
<path d="M13.3324 11.6667C13.3324 11.2246 13.508 10.8007 13.8205 10.4882C14.1331 10.1756 14.557 10 14.9991 10H28.3324C28.7744 10 29.1983 10.1756 29.5109 10.4882C29.8235 10.8007 29.9991 11.2246 29.9991 11.6667V25C29.9991 25.442 29.8235 25.8659 29.5109 26.1785C29.1983 26.4911 28.7744 26.6667 28.3324 26.6667C27.8904 26.6667 27.4664 26.4911 27.1539 26.1785C26.8413 25.8659 26.6657 25.442 26.6657 25V15.69L12.8441 29.5117C12.5297 29.8153 12.1087 29.9833 11.6717 29.9795C11.2347 29.9757 10.8167 29.8004 10.5077 29.4914C10.1987 29.1824 10.0234 28.7643 10.0196 28.3273C10.0158 27.8903 10.1838 27.4693 10.4874 27.155L24.3091 13.3333H14.9991C14.557 13.3333 14.1331 13.1577 13.8205 12.8452C13.508 12.5326 13.3324 12.1087 13.3324 11.6667Z" fill="black"/>
</svg>
