<svg width="40" height="40" viewBox="0 0 40 40" fill="none" xmlns="http://www.w3.org/2000/svg">
<path d="M34.1176 20.2555C34.1176 19.3657 33.3962 18.6443 32.5064 18.6443H31.1507V26.4605H32.5064C33.3962 26.4605 34.1176 25.7391 34.1176 24.8493V20.2555ZM18.3888 32.5064C18.3888 33.3963 19.1102 34.1176 20 34.1176C20.8898 34.1176 21.6112 33.3963 21.6112 32.5064C21.6112 31.6166 20.8898 30.8952 20 30.8952C19.1102 30.8952 18.3888 31.6166 18.3888 32.5064ZM5.88235 24.8493C5.88235 25.7391 6.60377 26.4605 7.49357 26.4605H8.84926V18.6443H7.49357C6.60377 18.6443 5.88235 19.3657 5.88235 20.2555V24.8493ZM36 24.8493C36 26.7787 34.4358 28.3428 32.5064 28.3428H31.0772C30.6252 31.2349 28.1237 33.4476 25.1048 33.4476H23.364C22.953 34.9197 21.6032 36 20 36C18.0706 36 16.5064 34.4359 16.5064 32.5064C16.5065 30.577 18.0706 29.0129 20 29.0129C21.6032 29.0129 22.953 30.0932 23.364 31.5653H25.1048C27.4042 31.5652 29.2684 29.7011 29.2684 27.4017V17.7031C29.2684 17.1833 29.6898 16.7619 30.2096 16.7619H31.7831C31.3036 10.6736 26.2116 5.88235 20 5.88235C13.7884 5.88235 8.69643 10.6736 8.21691 16.7619H9.79044C10.3102 16.7619 10.7316 17.1833 10.7316 17.7031V27.4017C10.7316 27.9215 10.3102 28.3428 9.79044 28.3428H7.49357C5.56417 28.3428 4 26.7787 4 24.8493V20.2555C4 18.7388 4.96636 17.447 6.3171 16.9642C6.70089 9.73976 12.6799 4 20 4C27.32 4 33.2982 9.73978 33.682 16.9642C35.0331 17.4468 36 18.7385 36 20.2555V24.8493Z" fill="black"/>
</svg>
