<svg width="40" height="40" viewBox="0 0 40 40" fill="none" xmlns="http://www.w3.org/2000/svg">
<path d="M34.1176 20C34.1176 18.7648 33.5486 17.636 32.545 16.8915C31.9992 16.4874 31.5734 15.9417 31.3134 15.3143C31.0532 14.6865 30.9687 13.9994 31.0689 13.3272C31.2521 12.091 30.8558 10.8907 29.9825 10.0175C29.2535 9.28852 28.287 8.88787 27.2518 8.88787C27.0577 8.88796 26.8639 8.90261 26.6719 8.93107C26.4901 8.95799 26.306 8.97141 26.1222 8.97151C24.9388 8.97148 23.8137 8.40557 23.1085 7.45496C22.3641 6.45148 21.2352 5.88235 20 5.88235C18.8418 5.88235 17.7769 6.38242 17.0349 7.27206L16.8915 7.45496C16.1863 8.40563 15.0616 8.97147 13.8778 8.97151C13.6944 8.97151 13.5097 8.95802 13.3281 8.93107C13.1366 8.90265 12.9412 8.88788 12.7482 8.88787C11.713 8.88787 10.7464 9.2886 10.0175 10.0175C9.1442 10.8907 8.74788 12.0911 8.93107 13.3272C9.03134 13.9994 8.94677 14.6865 8.68658 15.3143C8.42647 15.942 8.00013 16.4865 7.45404 16.8906C6.45062 17.6351 5.88235 18.7649 5.88235 20C5.88235 21.235 6.4509 22.364 7.45404 23.1085L7.65349 23.2665C8.10445 23.6502 8.45897 24.1364 8.68658 24.6857C8.94676 25.3135 9.03132 26.0006 8.93107 26.6728C8.74794 27.9087 9.14408 29.1091 10.0175 29.9825C10.7462 30.7112 11.7123 31.1111 12.7472 31.1112C12.9415 31.1112 13.1359 31.0974 13.3281 31.0689L13.6029 31.0386C13.6948 31.0318 13.787 31.0285 13.8787 31.0285C15.0622 31.0285 16.1864 31.5944 16.8915 32.545C17.636 33.5486 18.7649 34.1176 20 34.1176C21.2351 34.1176 22.364 33.5486 23.1085 32.545L23.2463 32.3713C23.9553 31.5259 25.0124 31.0285 26.1222 31.0285C26.306 31.0285 26.4901 31.042 26.6719 31.0689C26.864 31.0974 27.0584 31.1121 27.2528 31.1121C28.2875 31.112 29.2538 30.7113 29.9825 29.9825C30.8559 29.1092 31.2521 27.9087 31.0689 26.6728L31.0404 26.42C30.993 25.8296 31.0857 25.2351 31.3134 24.6857C31.5735 24.0581 31.9991 23.5126 32.545 23.1085C33.5486 22.364 34.1176 21.2352 34.1176 20ZM36 20C36 21.8357 35.1451 23.5236 33.6664 24.6204L33.6654 24.6213C33.3937 24.8224 33.1818 25.0939 33.0524 25.4062C32.9391 25.6796 32.8927 25.9755 32.9164 26.2693L32.9311 26.3943C33.2015 28.2158 32.6117 30.0151 31.3134 31.3134C30.2308 32.3961 28.7855 32.9944 27.2528 32.9945C26.9663 32.9944 26.6787 32.9731 26.3952 32.9311C26.35 32.9244 26.3047 32.9188 26.2592 32.9154L26.1222 32.9108C25.5345 32.9109 24.9707 33.1941 24.6204 33.6664C23.5236 35.1451 21.8357 36 20 36C18.1643 36 16.4764 35.1451 15.3796 33.6664C15.0291 33.1939 14.4656 32.9109 13.8787 32.9108C13.8332 32.9108 13.7874 32.9121 13.7417 32.9154L13.6048 32.9311C13.3213 32.9731 13.0348 32.9944 12.7482 32.9945C11.2151 32.9945 9.76939 32.3962 8.68658 31.3134C7.3883 30.0151 6.79861 28.2166 7.06893 26.3952L7.08364 26.2693C7.10728 25.9755 7.06091 25.6796 6.94761 25.4062C6.81817 25.0939 6.60635 24.8224 6.33456 24.6213L6.33364 24.6204C4.85498 23.5235 4 21.8357 4 20C4 18.1643 4.855 16.4764 6.33364 15.3796L6.33456 15.3787C6.60639 15.1776 6.81815 14.9061 6.94761 14.5938C7.07702 14.2815 7.11874 13.94 7.06893 13.6057C6.79854 11.7842 7.38833 9.98485 8.68658 8.68658C9.76945 7.60379 11.2151 7.00551 12.7482 7.00551C13.034 7.00553 13.3219 7.02695 13.6048 7.06893C13.6948 7.0823 13.787 7.08915 13.8778 7.08915C14.4655 7.08911 15.0293 6.80583 15.3796 6.33364C16.4764 4.85492 18.1643 4 20 4C21.8357 4 23.5236 4.85502 24.6204 6.33364C24.971 6.80613 25.5346 7.08913 26.1213 7.08915L26.2583 7.08456C26.3041 7.08119 26.3497 7.07566 26.3952 7.06893C26.6787 7.0269 26.9652 7.0056 27.2518 7.00551C28.7849 7.00551 30.2305 7.60374 31.3134 8.68658C32.6117 9.98487 33.2014 11.7833 32.9311 13.6048C32.8813 13.9391 32.923 14.2815 33.0524 14.5938C33.1656 14.8669 33.3419 15.1088 33.5662 15.2996L33.6654 15.3787L33.6664 15.3796C35.145 16.4764 36 18.1643 36 20Z" fill="black"/>
<path d="M12.4706 14.8235C12.4706 13.524 13.524 12.4706 14.8235 12.4706C16.123 12.4706 17.1765 13.524 17.1765 14.8235C17.1765 16.123 16.123 17.1765 14.8235 17.1765C13.524 17.1765 12.4706 16.123 12.4706 14.8235Z" fill="black"/>
<path d="M22.8235 25.1765C22.8235 23.877 23.877 22.8235 25.1765 22.8235C26.476 22.8235 27.5294 23.877 27.5294 25.1765C27.5294 26.476 26.476 27.5294 25.1765 27.5294C23.877 27.5294 22.8235 26.476 22.8235 25.1765Z" fill="black"/>
<path d="M24.906 13.3454C25.3892 12.8623 26.1725 12.8623 26.6557 13.3454C27.1388 13.8286 27.1388 14.6119 26.6557 15.0951L15.0951 26.6557C14.6119 27.1388 13.8286 27.1388 13.3454 26.6557C12.8623 26.1725 12.8623 25.3892 13.3454 24.906L24.906 13.3454Z" fill="black"/>
</svg>
