<svg width="40" height="40" viewBox="0 0 40 40" fill="none" xmlns="http://www.w3.org/2000/svg">
<path d="M27.4419 34H12.5581C5.99442 34 4 32.0759 4 25.7436V14.2564C4 7.9241 5.99442 6 12.5581 6H27.4419C34.0056 6 36 7.9241 36 14.2564V25.7436C36 32.0759 34.0056 34 27.4419 34ZM12.5581 8.15385C7.22977 8.15385 6.23256 9.13026 6.23256 14.2564V25.7436C6.23256 30.8697 7.22977 31.8462 12.5581 31.8462H27.4419C32.7702 31.8462 33.7674 30.8697 33.7674 25.7436V14.2564C33.7674 9.13026 32.7702 8.15385 27.4419 8.15385H12.5581Z" fill="black"/>
<path d="M30.4186 15.3333H22.9767C22.3665 15.3333 21.8605 14.8451 21.8605 14.2564C21.8605 13.6677 22.3665 13.1795 22.9767 13.1795H30.4186C31.0288 13.1795 31.5349 13.6677 31.5349 14.2564C31.5349 14.8451 31.0288 15.3333 30.4186 15.3333Z" fill="black"/>
<path d="M30.4186 21.0769H24.4651C23.8549 21.0769 23.3488 20.5887 23.3488 20C23.3488 19.4113 23.8549 18.9231 24.4651 18.9231H30.4186C31.0288 18.9231 31.5349 19.4113 31.5349 20C31.5349 20.5887 31.0288 21.0769 30.4186 21.0769Z" fill="black"/>
<path d="M30.4186 26.8205H27.4419C26.8316 26.8205 26.3256 26.3323 26.3256 25.7436C26.3256 25.1549 26.8316 24.6667 27.4419 24.6667H30.4186C31.0288 24.6667 31.5349 25.1549 31.5349 25.7436C31.5349 26.3323 31.0288 26.8205 30.4186 26.8205Z" fill="black"/>
<path d="M14.7913 20.0573C12.6927 20.0573 10.9811 18.406 10.9811 16.3814C10.9811 14.3568 12.6927 12.7055 14.7913 12.7055C16.8899 12.7055 18.6015 14.3568 18.6015 16.3814C18.6015 18.406 16.8899 20.0573 14.7913 20.0573ZM14.7913 14.8594C13.9281 14.8594 13.2137 15.5486 13.2137 16.3814C13.2137 17.2142 13.9281 17.9034 14.7913 17.9034C15.6546 17.9034 16.369 17.2142 16.369 16.3814C16.369 15.5486 15.6546 14.8594 14.7913 14.8594Z" fill="black"/>
<path d="M19.9999 27.2944C19.4343 27.2944 18.9431 26.8779 18.8836 26.3179C18.7199 24.7672 17.425 23.518 15.8027 23.3744C15.118 23.3169 14.4334 23.3169 13.7487 23.3744C12.1264 23.518 10.8315 24.7528 10.6678 26.3179C10.6082 26.9067 10.0575 27.3518 9.44731 27.28C8.83708 27.2226 8.39056 26.6913 8.4501 26.1026C8.71801 23.518 10.8464 21.4646 13.5403 21.2349C14.3589 21.1631 15.1924 21.1631 16.011 21.2349C18.6901 21.479 20.8333 23.5323 21.1012 26.1026C21.1608 26.6913 20.7143 27.2226 20.104 27.28C20.0743 27.2944 20.0296 27.2944 19.9999 27.2944Z" fill="black"/>
</svg>
