<svg width="40" height="40" viewBox="0 0 40 40" fill="none" xmlns="http://www.w3.org/2000/svg">
<path d="M21.3036 2.5536L21.3036 34.5349L26.6724 29.1724C26.9115 28.9676 27.2191 28.8606 27.5337 28.8727C27.8483 28.8849 28.1467 29.0153 28.3693 29.2379C28.5919 29.4605 28.7223 29.7589 28.7345 30.0735C28.7466 30.3881 28.6396 30.6957 28.4349 30.9349L20.9349 38.4349C20.7905 38.5818 20.613 38.692 20.4173 38.7562C20.2215 38.8204 20.0132 38.8366 19.8099 38.8036C19.5745 38.7471 19.3586 38.6284 19.1849 38.4599L11.6849 30.9599C11.554 30.8478 11.4477 30.7099 11.3727 30.5548C11.2977 30.3997 11.2555 30.2308 11.2489 30.0587C11.2422 29.8865 11.2712 29.7149 11.3341 29.5544C11.3969 29.394 11.4922 29.2484 11.614 29.1265C11.7359 29.0047 11.8815 28.9094 12.042 28.8466C12.2024 28.7837 12.374 28.7547 12.5462 28.7614C12.7183 28.768 12.8872 28.8102 13.0423 28.8852C13.1974 28.9602 13.3353 29.0665 13.4474 29.1974L18.8036 34.5349L18.8036 2.5536C18.8036 2.22208 18.9353 1.90414 19.1697 1.66972C19.4041 1.4353 19.7221 1.3036 20.0536 1.3036C20.3851 1.3036 20.7031 1.4353 20.9375 1.66972C21.1719 1.90414 21.3036 2.22208 21.3036 2.5536Z" fill="black"/>
</svg>
