<svg width="40" height="40" viewBox="0 0 40 40" fill="none" xmlns="http://www.w3.org/2000/svg">
<path d="M28.6966 15.6068C28.5653 15.5058 28.4056 15.4513 28.2415 15.4513H22.4318L28.1809 5.16691C28.3903 4.79481 28.266 4.31908 27.9033 4.10422C27.7893 4.03676 27.6602 4.0008 27.5286 4H19.4587C19.1653 4.00226 18.8993 4.17803 18.7761 4.45123L11.0703 21.0213C10.8944 21.4112 11.0599 21.8736 11.4401 22.054C11.5382 22.1006 11.6448 22.1251 11.7529 22.1259H17.5474L13.3759 35.0397C13.303 35.4003 13.4867 35.764 13.8159 35.911C14.1436 36.0872 14.5474 35.9952 14.7715 35.6932L28.8482 16.6959C29.0996 16.3522 29.0317 15.8646 28.6966 15.6068ZM16.3187 31.0877L19.3828 21.5347C19.5169 21.1276 19.3038 20.6862 18.907 20.5487C18.8306 20.5222 18.7506 20.5084 18.6699 20.5078H13.0119L19.9289 5.47803H26.2392L20.475 15.8402C20.2655 16.2123 20.3898 16.688 20.7526 16.9028C20.8666 16.9703 20.9957 17.0063 21.1272 17.0071H26.7246L16.3187 31.0877Z" fill="black"/>
</svg>
