<svg width="40" height="40" viewBox="0 0 40 40" fill="none" xmlns="http://www.w3.org/2000/svg">
<path d="M33.7143 16.5714H34.8571C35.488 16.5714 36 16.0594 36 15.4286C36 14.7977 35.488 14.2857 34.8571 14.2857H32.0754L30.3109 11.3452C29.2846 9.6343 27.4069 8.57144 25.4114 8.57144H14.5886C12.5931 8.57144 10.7154 9.6343 9.68914 11.3452L7.92457 14.2857H5.14286C4.512 14.2857 4 14.7977 4 15.4286C4 16.0594 4.512 16.5714 5.14286 16.5714H6.28571L5.6 17.4857C4.568 18.8617 4 20.5657 4 22.2857V28C4 29.8903 5.53829 31.4286 7.42857 31.4286H9.71429C11.6046 31.4286 13.1429 29.8903 13.1429 28H26.8571C26.8571 29.8903 28.3954 31.4286 30.2857 31.4286H32.5714C34.4617 31.4286 36 29.8903 36 28V22.2857C36 20.5657 35.432 18.8606 34.4 17.4857L33.7143 16.5714ZM11.6491 12.5223C12.2651 11.496 13.3909 10.8572 14.5886 10.8572H25.4126C26.6103 10.8572 27.736 11.4949 28.352 12.5223L29.888 15.0823L29.0937 15.6114C28.152 16.2389 27.056 16.5714 25.9234 16.5714H14.0754C12.944 16.5714 11.848 16.24 10.9063 15.6126L10.112 15.0823L11.648 12.5212L11.6491 12.5223ZM33.7154 28C33.7154 28.6297 33.2023 29.1429 32.5726 29.1429H30.2869C29.6571 29.1429 29.144 28.6297 29.144 28V26.8572C29.144 26.2263 28.632 25.7143 28.0011 25.7143H12C11.3691 25.7143 10.8571 26.2263 10.8571 26.8572V28C10.8571 28.6297 10.344 29.1429 9.71429 29.1429H7.42857C6.79886 29.1429 6.28571 28.6297 6.28571 28V22.2857C6.28571 21.0572 6.69143 19.8389 7.42857 18.8572L8.83657 16.9794L9.63886 17.5143C10.9577 18.3932 12.4914 18.8572 14.0754 18.8572H25.9234C27.5086 18.8572 29.0423 18.392 30.3611 17.5132L31.1623 16.9794L32.5703 18.8572C33.3074 19.8389 33.7131 21.0572 33.7131 22.2857V28H33.7154Z" fill="black"/>
<path d="M29.8286 23.8857C30.7122 23.8857 31.4286 23.1694 31.4286 22.2857C31.4286 21.4021 30.7122 20.6857 29.8286 20.6857C28.9449 20.6857 28.2286 21.4021 28.2286 22.2857C28.2286 23.1694 28.9449 23.8857 29.8286 23.8857Z" fill="black"/>
<path d="M10.1714 23.8857C11.0551 23.8857 11.7714 23.1694 11.7714 22.2857C11.7714 21.4021 11.0551 20.6857 10.1714 20.6857C9.28777 20.6857 8.57143 21.4021 8.57143 22.2857C8.57143 23.1694 9.28777 23.8857 10.1714 23.8857Z" fill="black"/>
</svg>
