<svg width="40" height="40" viewBox="0 0 40 40" fill="none" xmlns="http://www.w3.org/2000/svg">
<path d="M29.4704 7.92812C26.9497 5.39667 23.5917 4.00252 20.0147 4.00252H19.9992C12.7962 3.85509 6.47698 10.1985 6.62528 17.3989C6.81383 22.4832 11.7051 28.9402 15.514 33.9009C16.6326 35.2372 18.2625 36 20.0135 36C21.8259 35.9999 23.5087 35.1833 24.6302 33.7594C27.4559 30.248 33.5574 21.8024 33.3732 17.3988C33.3733 13.8192 31.9872 10.4558 29.4704 7.92812ZM22.6665 32.2125C21.3747 33.9164 18.6575 33.9195 17.3653 32.2155C12.2005 25.6389 9.12498 20.1619 9.12498 17.3988C9.12498 11.3905 14.0031 6.50241 19.9992 6.50241H20.0147C26.0022 6.50241 30.8735 11.3906 30.8735 17.3988C30.8735 20.192 27.8821 25.5914 22.6665 32.2125ZM20.0695 22.6885C17.1404 22.6885 14.7573 20.3055 14.7573 17.3764C15.0491 10.3291 25.0909 10.3312 25.3816 17.3765C25.3816 20.3056 22.9986 22.6885 20.0695 22.6885ZM20.0695 14.5641C18.5188 14.5641 17.2572 15.8257 17.2572 17.3764C17.4117 21.1073 22.7278 21.1062 22.8818 17.3764C22.8818 15.8257 21.6202 14.5641 20.0695 14.5641Z" fill="black"/>
</svg>
