<svg width="40" height="40" viewBox="0 0 40 40" fill="none" xmlns="http://www.w3.org/2000/svg">
<path d="M12.3602 17.9378C12.3602 18.3994 11.9781 18.7737 11.5068 18.7737C11.0355 18.7737 10.6535 18.3994 10.6535 17.9378C10.6535 17.4762 11.0355 17.102 11.5068 17.102C11.9781 17.102 12.3602 17.4762 12.3602 17.9378Z" fill="black"/>
<path fill-rule="evenodd" clip-rule="evenodd" d="M11.5068 14.6321C9.64281 14.6321 8.13173 16.1121 8.13173 17.9378C8.13173 19.7636 9.64281 21.2436 11.5068 21.2436C13.3708 21.2436 14.8819 19.7636 14.8819 17.9378C14.8819 16.1121 13.3708 14.6321 11.5068 14.6321ZM9.41175 17.9378C9.41175 16.8045 10.3497 15.8858 11.5068 15.8858C12.6639 15.8858 13.6019 16.8045 13.6019 17.9378C13.6019 19.0712 12.6639 19.9899 11.5068 19.9899C10.3497 19.9899 9.41175 19.0712 9.41175 17.9378Z" fill="black"/>
<path d="M21.0669 17.9378C21.0669 18.3995 20.6849 18.7737 20.2136 18.7737C19.7423 18.7737 19.3602 18.3995 19.3602 17.9378C19.3602 17.4762 19.7423 17.102 20.2136 17.102C20.6849 17.102 21.0669 17.4762 21.0669 17.9378Z" fill="black"/>
<path fill-rule="evenodd" clip-rule="evenodd" d="M20.2615 14.6321C18.3975 14.6321 16.8864 16.1121 16.8864 17.9378C16.8864 19.7636 18.3975 21.2436 20.2615 21.2436C22.1255 21.2436 23.6366 19.7636 23.6366 17.9378C23.6366 16.1121 22.1255 14.6321 20.2615 14.6321ZM18.1665 17.9378C18.1665 16.8045 19.1045 15.8858 20.2615 15.8858C21.4186 15.8858 22.3566 16.8045 22.3566 17.9378C22.3566 19.0712 21.4186 19.9899 20.2615 19.9899C19.1045 19.9899 18.1665 19.0712 18.1665 17.9378Z" fill="black"/>
<path d="M29.0163 18.7737C29.4875 18.7737 29.8696 18.3995 29.8696 17.9378C29.8696 17.4762 29.4875 17.102 29.0163 17.102C28.545 17.102 28.1629 17.4762 28.1629 17.9378C28.1629 18.3995 28.545 18.7737 29.0163 18.7737Z" fill="black"/>
<path fill-rule="evenodd" clip-rule="evenodd" d="M25.6412 17.9378C25.6412 16.1121 27.1522 14.6321 29.0163 14.6321C30.8803 14.6321 32.3913 16.1121 32.3913 17.9378C32.3913 19.7636 30.8803 21.2436 29.0163 21.2436C27.1522 21.2436 25.6412 19.7636 25.6412 17.9378ZM29.0163 15.8858C27.8592 15.8858 26.9212 16.8045 26.9212 17.9378C26.9212 19.0711 27.8592 19.9899 29.0163 19.9899C30.1733 19.9899 31.1113 19.0711 31.1113 17.9378C31.1113 16.8045 30.1733 15.8858 29.0163 15.8858Z" fill="black"/>
<path d="M16.0069 25.9174C16.4782 25.9174 16.8602 25.5432 16.8602 25.0816C16.8602 24.62 16.4782 24.2458 16.0069 24.2458C15.5356 24.2458 15.1535 24.62 15.1535 25.0816C15.1535 25.5432 15.5356 25.9174 16.0069 25.9174Z" fill="black"/>
<path fill-rule="evenodd" clip-rule="evenodd" d="M16.0069 21.7758C14.1429 21.7758 12.6318 23.2559 12.6318 25.0816C12.6318 26.9073 14.1429 28.3874 16.0069 28.3874C17.8709 28.3874 19.382 26.9073 19.382 25.0816C19.382 23.2559 17.8709 21.7758 16.0069 21.7758ZM13.9118 25.0816C13.9118 23.9483 14.8498 23.0295 16.0069 23.0295C17.164 23.0295 18.102 23.9483 18.102 25.0816C18.102 26.2149 17.164 27.1336 16.0069 27.1336C14.8498 27.1336 13.9118 26.2149 13.9118 25.0816Z" fill="black"/>
<path d="M25.5506 25.0816C25.5506 25.5432 25.1685 25.9174 24.6972 25.9174C24.2259 25.9174 23.8439 25.5432 23.8439 25.0816C23.8439 24.62 24.2259 24.2458 24.6972 24.2458C25.1685 24.2458 25.5506 24.62 25.5506 25.0816Z" fill="black"/>
<path fill-rule="evenodd" clip-rule="evenodd" d="M21.3221 25.0816C21.3221 23.2559 22.8332 21.7758 24.6972 21.7758C26.5612 21.7758 28.0723 23.2559 28.0723 25.0816C28.0723 26.9073 26.5612 28.3874 24.6972 28.3874C22.8332 28.3874 21.3221 26.9073 21.3221 25.0816ZM24.6972 23.0295C23.5402 23.0295 22.6022 23.9483 22.6022 25.0816C22.6022 26.2149 23.5402 27.1336 24.6972 27.1336C25.8543 27.1336 26.7923 26.2149 26.7923 25.0816C26.7923 23.9483 25.8543 23.0295 24.6972 23.0295Z" fill="black"/>
<path d="M25.2466 12.2824C25.2466 12.5132 25.0556 12.7003 24.8199 12.7003C24.5843 12.7003 24.3933 12.5132 24.3933 12.2824C24.3933 12.0515 24.5843 11.8644 24.8199 11.8644C25.0556 11.8644 25.2466 12.0515 25.2466 12.2824Z" fill="black"/>
<path fill-rule="evenodd" clip-rule="evenodd" d="M24.8199 9.86955C23.4594 9.86955 22.3565 10.9498 22.3565 12.2824C22.3565 13.6149 23.4594 14.6952 24.8199 14.6952C26.1804 14.6952 27.2833 13.6149 27.2833 12.2824C27.2833 10.9498 26.1804 9.86955 24.8199 9.86955ZM23.6365 12.2824C23.6365 11.6422 24.1664 11.1233 24.8199 11.1233C25.4735 11.1233 26.0033 11.6422 26.0033 12.2824C26.0033 12.9225 25.4735 13.4414 24.8199 13.4414C24.1664 13.4414 23.6365 12.9225 23.6365 12.2824Z" fill="black"/>
<path d="M16.3108 12.7003C16.5465 12.7003 16.7375 12.5132 16.7375 12.2824C16.7375 12.0516 16.5465 11.8644 16.3108 11.8644C16.0752 11.8644 15.8842 12.0516 15.8842 12.2824C15.8842 12.5132 16.0752 12.7003 16.3108 12.7003Z" fill="black"/>
<path fill-rule="evenodd" clip-rule="evenodd" d="M13.8474 12.2824C13.8474 10.9498 14.9503 9.86955 16.3108 9.86955C17.6713 9.86955 18.7742 10.9498 18.7742 12.2824C18.7742 13.6149 17.6713 14.6952 16.3108 14.6952C14.9503 14.6952 13.8474 13.6149 13.8474 12.2824ZM16.3108 11.1233C15.6573 11.1233 15.1275 11.6422 15.1275 12.2824C15.1275 12.9225 15.6573 13.4414 16.3108 13.4414C16.9644 13.4414 17.4942 12.9225 17.4942 12.2824C17.4942 11.6422 16.9644 11.1233 16.3108 11.1233Z" fill="black"/>
<path fill-rule="evenodd" clip-rule="evenodd" d="M28.9948 6.12364L28.7893 6H11.2217L11.0227 6.11341L11.4519 6.83582C11.0227 6.11341 11.0219 6.11386 11.0219 6.11386L11.021 6.1144L11.0186 6.11574L11.0122 6.11947L10.9922 6.13118C10.9758 6.14088 10.9532 6.15437 10.925 6.17168C10.8685 6.2063 10.7892 6.25623 10.6903 6.32177C10.4925 6.45278 10.2159 6.64644 9.88686 6.90497C9.22949 7.42145 8.35822 8.2004 7.48767 9.25995C5.74214 11.3845 3.99981 14.6394 4 19.1374C4.00014 22.3838 5.45269 25.4056 7.24142 27.777C9.02644 30.1434 11.2217 31.9623 12.8634 32.7834C14.5511 33.6276 17.4213 34 20.15 34C22.8786 34 25.7488 33.6276 27.4365 32.7834C29.0907 31.9561 31.2133 30.1115 32.92 27.7379C34.6323 25.3565 36 22.34 36 19.1374C36 14.7401 34.2548 11.4869 32.5156 9.34243C31.6473 8.27188 30.7786 7.47471 30.1238 6.94291C29.796 6.67671 29.5206 6.47605 29.324 6.34C29.2256 6.27195 29.1468 6.21998 29.0909 6.18398C29.0629 6.16597 29.0407 6.15195 29.0245 6.1419L29.0049 6.1298L28.9986 6.12598L28.9964 6.12462L28.9955 6.12408C28.9955 6.12408 28.9948 6.12364 28.5481 6.83582L28.9948 6.12364ZM11.6464 7.70646C11.6651 7.69408 11.6828 7.68247 11.6994 7.67164H28.2902C28.3057 7.68221 28.3221 7.69345 28.3393 7.70537C28.5035 7.81899 28.7436 7.99358 29.0345 8.22976C29.6169 8.70272 30.3978 9.4188 31.1792 10.3822C32.7393 12.3057 34.2933 15.2033 34.2933 19.1374C34.2933 21.884 33.1115 24.5683 31.5246 26.7754C29.9321 28.9902 28.0056 30.6218 26.6603 31.2947C25.3488 31.9507 22.8201 32.3284 20.15 32.3284C17.4798 32.3284 14.9512 31.9507 13.6396 31.2947C12.282 30.6156 10.2783 28.9899 8.61411 26.7836C6.95367 24.5823 5.70681 21.9034 5.70669 19.1374C5.70652 15.095 7.26346 12.1992 8.81729 10.308C9.59642 9.35969 10.3749 8.66456 10.9548 8.20893C11.2444 7.9814 11.4833 7.81451 11.6464 7.70646Z" fill="black"/>
</svg>
