<svg width="40" height="40" viewBox="0 0 40 40" fill="none" xmlns="http://www.w3.org/2000/svg">
<path d="M34.1176 20C34.1176 12.203 27.797 5.88235 20 5.88235C12.203 5.88235 5.88235 12.203 5.88235 20C5.88235 27.797 12.203 34.1176 20 34.1176V36C11.1634 36 4 28.8366 4 20C4 11.1634 11.1634 4 20 4C28.8366 4 36 11.1634 36 20C36 28.8366 28.8366 36 20 36V34.1176C27.797 34.1176 34.1176 27.797 34.1176 20Z" fill="black"/>
<path d="M12 6.35294L20 4.94118L28 6.35294L29.4118 8.70588H10.5882L12 6.35294Z" fill="black"/>
<path d="M30.3529 20.9412C30.3529 23.0204 28.6674 24.7059 26.5882 24.7059C24.509 24.7059 22.8235 23.0204 22.8235 20.9412C22.8235 18.862 24.509 17.1765 26.5882 17.1765C28.6674 17.1765 30.3529 18.862 30.3529 20.9412Z" fill="black"/>
<path d="M18.1176 16.2353C18.1176 17.2749 18.9604 18.1176 20 18.1176C21.0396 18.1176 21.8824 17.2749 21.8824 16.2353C21.8824 15.1957 21.0396 14.3529 20 14.3529C18.9604 14.3529 18.1176 15.1957 18.1176 16.2353Z" fill="black"/>
<path d="M18.1176 11.5294C18.1176 12.569 18.9604 13.4118 20 13.4118C21.0396 13.4118 21.8824 12.569 21.8824 11.5294C21.8824 10.4898 21.0396 9.64706 20 9.64706C18.9604 9.64706 18.1176 10.4898 18.1176 11.5294Z" fill="black"/>
<path d="M17.1765 28.4706C17.1765 30.03 18.4406 31.2941 20 31.2941C21.5594 31.2941 22.8235 30.03 22.8235 28.4706C22.8235 26.9112 21.5594 25.6471 20 25.6471C18.4406 25.6471 17.1765 26.9112 17.1765 28.4706Z" fill="black"/>
<path d="M23.7647 11.5294C23.7647 12.569 24.6075 13.4118 25.6471 13.4118C26.6867 13.4118 27.5294 12.569 27.5294 11.5294C27.5294 10.4898 26.6867 9.64706 25.6471 9.64706C24.6075 9.64706 23.7647 10.4898 23.7647 11.5294Z" fill="black"/>
<path d="M23.7647 28.4706C23.7647 29.5102 24.6075 30.3529 25.6471 30.3529C26.6867 30.3529 27.5294 29.5102 27.5294 28.4706C27.5294 27.431 26.6867 26.5882 25.6471 26.5882C24.6075 26.5882 23.7647 27.431 23.7647 28.4706Z" fill="black"/>
<path d="M12.4706 11.5294C12.4706 12.569 13.3133 13.4118 14.3529 13.4118C15.3925 13.4118 16.2353 12.569 16.2353 11.5294C16.2353 10.4898 15.3925 9.64706 14.3529 9.64706C13.3133 9.64706 12.4706 10.4898 12.4706 11.5294Z" fill="black"/>
<path d="M12.4706 28.4706C12.4706 29.5102 13.3133 30.3529 14.3529 30.3529C15.3925 30.3529 16.2353 29.5102 16.2353 28.4706C16.2353 27.431 15.3925 26.5882 14.3529 26.5882C13.3133 26.5882 12.4706 27.431 12.4706 28.4706Z" fill="black"/>
<path d="M17.1765 20.9412C17.1765 23.0204 15.491 24.7059 13.4118 24.7059C11.3326 24.7059 9.64706 23.0204 9.64706 20.9412C9.64706 18.862 11.3326 17.1765 13.4118 17.1765C15.491 17.1765 17.1765 18.862 17.1765 20.9412Z" fill="black"/>
</svg>
