<svg width="40" height="40" viewBox="0 0 40 40" fill="none" xmlns="http://www.w3.org/2000/svg">
<path d="M17.8223 32.0797C15.0885 32.0797 12.4161 31.2563 10.143 29.7135C7.86997 28.1708 6.09834 25.9781 5.05216 23.4127C4.00599 20.8472 3.73226 18.0243 4.2656 15.3008C4.79893 12.5773 6.11537 10.0757 8.04845 8.11218C9.98153 6.14867 12.4444 4.81151 15.1257 4.26978C17.8069 3.72805 20.5861 4.00608 23.1118 5.06873C25.6375 6.13137 27.7962 7.93089 29.315 10.2397C30.8338 12.5486 31.6445 15.263 31.6445 18.0398C31.6398 21.762 30.182 25.3302 27.5908 27.9622C24.9997 30.5941 21.4867 32.0749 17.8223 32.0797ZM17.8223 6.48877C15.5731 6.48877 13.3744 7.16623 11.5043 8.43548C9.63416 9.70473 8.17657 11.5088 7.31585 13.6194C6.45512 15.7301 6.22992 18.0527 6.66871 20.2933C7.1075 22.534 8.19059 24.5922 9.781 26.2077C11.3714 27.8231 13.3977 28.9233 15.6037 29.369C17.8096 29.8147 20.0962 29.5859 22.1742 28.7116C24.2521 27.8374 26.0282 26.3568 27.2778 24.4573C28.5274 22.5577 29.1943 20.3244 29.1943 18.0398C29.1905 14.9775 27.9912 12.0417 25.8593 9.87626C23.7275 7.71085 20.8371 6.49263 17.8223 6.48877Z" fill="black"/>
<path d="M26.1034 27.7072L27.8357 25.9476L36 34.2404L34.2677 36L26.1034 27.7072Z" fill="black"/>
</svg>
