<svg width="40" height="40" viewBox="0 0 40 40" fill="none" xmlns="http://www.w3.org/2000/svg">
<path d="M21.2346 32.7273L21.2346 10.3449L27.8509 17.0815C27.9662 17.203 28.1041 17.3 28.2566 17.3667C28.4091 17.4334 28.5732 17.4685 28.7391 17.47C28.9051 17.4714 29.0697 17.4392 29.2233 17.3752C29.377 17.3113 29.5165 17.2167 29.6339 17.0972C29.7512 16.9777 29.8441 16.8356 29.9069 16.6792C29.9698 16.5228 30.0014 16.3552 30 16.1862C29.9985 16.0172 29.964 15.8502 29.8985 15.6949C29.833 15.5397 29.7378 15.3992 29.6184 15.2818L20.8684 6.37264C20.634 6.13404 20.3161 6 19.9846 6C19.6532 6 19.3353 6.13404 19.1009 6.37264L10.3509 15.2818C10.1232 15.5219 9.9972 15.8434 10 16.1771C10.0029 16.5108 10.1344 16.83 10.3661 17.066C10.5979 17.3019 10.9114 17.4358 11.2391 17.4387C11.5669 17.4416 11.8826 17.3133 12.1184 17.0815L18.7346 10.3449L18.7346 32.7273C18.7346 33.0648 18.8663 33.3885 19.1008 33.6272C19.3352 33.8659 19.6531 34 19.9846 34C20.3162 34 20.6341 33.8659 20.8685 33.6272C21.1029 33.3885 21.2346 33.0648 21.2346 32.7273Z" fill="black"/>
</svg>
