<svg width="40" height="40" viewBox="0 0 40 40" fill="none" xmlns="http://www.w3.org/2000/svg">
<path d="M29.9774 10.4769C29.8462 10.4769 29.7149 10.4769 29.5836 10.3428C26.958 7.92847 23.5446 6.58719 20 6.58719C16.5867 6.58719 13.1733 7.79434 10.5477 10.2087C10.2851 10.3428 9.89128 10.3428 9.62872 10.0745C9.36616 9.80627 9.49744 9.40388 9.76 9.13563C12.5169 6.58719 16.1928 5.2459 20 5.2459C23.8072 5.2459 27.6144 6.72131 30.5026 9.26975C30.7651 9.53801 30.7651 9.94039 30.5026 10.2087C30.3713 10.3428 30.24 10.4769 29.9774 10.4769Z" fill="black"/>
<path d="M14.0923 10.611H10.1539C9.76 10.611 9.49744 10.3428 9.49744 9.9404V5.91654C9.49744 5.51416 9.76 5.2459 10.1539 5.2459C10.5477 5.2459 10.8103 5.51416 10.8103 5.91654V9.26975H14.0923C14.4862 9.26975 14.7487 9.53801 14.7487 9.9404C14.7487 10.3428 14.4862 10.611 14.0923 10.611Z" fill="black"/>
<path d="M20.1313 34.7541C16.3241 34.7541 12.5169 33.2787 9.62871 30.7302C9.36615 30.462 9.36615 30.0596 9.62871 29.7913C9.89128 29.5231 10.2851 29.5231 10.5477 29.7913C13.1733 32.2057 16.5867 33.5469 20.1313 33.5469C23.5446 33.5469 26.9579 32.3398 29.5836 29.9255C29.8461 29.6572 30.24 29.6572 30.5026 30.0596C30.7651 30.3279 30.7651 30.7302 30.3713 30.9985C27.6144 33.4128 23.9385 34.7541 20.1313 34.7541Z" fill="black"/>
<path d="M29.9774 34.7541C29.5836 34.7541 29.321 34.4858 29.321 34.0835V30.7302H26.039C25.6451 30.7302 25.3826 30.462 25.3826 30.0596C25.3826 29.6572 25.6451 29.389 26.039 29.389H29.9774C30.3713 29.389 30.6338 29.6572 30.6338 30.0596V34.0835C30.6338 34.4858 30.3713 34.7541 29.9774 34.7541Z" fill="black"/>
<path d="M10.8103 20C8.97231 20 7.52821 18.5246 7.52821 16.6468C7.52821 14.769 8.97231 13.2936 10.8103 13.2936C12.6482 13.2936 14.0923 14.769 14.0923 16.6468C14.0923 18.5246 12.6482 20 10.8103 20ZM10.8103 14.6348C9.76 14.6348 8.84103 15.5737 8.84103 16.6468C8.84103 17.7198 9.76 18.6587 10.8103 18.6587C11.8605 18.6587 12.7795 17.7198 12.7795 16.6468C12.7795 15.5737 11.8605 14.6348 10.8103 14.6348Z" fill="black"/>
<path d="M16.7179 26.7064C16.3241 26.7064 16.0615 26.4381 16.0615 26.0358V24.6945C16.0615 23.6214 15.1426 22.6825 14.0923 22.6825H7.52821C6.47795 22.6825 5.55897 23.6214 5.55897 24.6945V26.0358C5.55897 26.4381 5.29641 26.7064 4.90256 26.7064C4.50872 26.7064 4.24615 26.4381 4.24615 26.0358V24.6945C4.24615 22.8167 5.69026 21.3413 7.52821 21.3413H14.0923C15.9303 21.3413 17.3744 22.8167 17.3744 24.6945V26.0358C17.3744 26.4381 17.1118 26.7064 16.7179 26.7064Z" fill="black"/>
<path d="M29.1897 20C27.3518 20 25.9077 18.5246 25.9077 16.6468C25.9077 14.769 27.3518 13.2936 29.1897 13.2936C31.0277 13.2936 32.4718 14.769 32.4718 16.6468C32.4718 18.5246 31.0277 20 29.1897 20ZM29.1897 14.6348C28.1395 14.6348 27.2205 15.5737 27.2205 16.6468C27.2205 17.7198 28.1395 18.6587 29.1897 18.6587C30.24 18.6587 31.159 17.7198 31.159 16.6468C31.159 15.5737 30.24 14.6348 29.1897 14.6348Z" fill="black"/>
<path d="M35.0974 26.7064C34.7036 26.7064 34.441 26.4381 34.441 26.0358V24.6945C34.441 23.6214 33.522 22.6825 32.4718 22.6825H25.9077C24.8574 22.6825 23.9385 23.6214 23.9385 24.6945V26.0358C23.9385 26.4381 23.6759 26.7064 23.282 26.7064C22.8882 26.7064 22.6256 26.4381 22.6256 26.0358V24.6945C22.6256 22.8167 24.0697 21.3413 25.9077 21.3413H32.4718C34.3097 21.3413 35.7538 22.8167 35.7538 24.6945V26.0358C35.7538 26.4381 35.4913 26.7064 35.0974 26.7064Z" fill="black"/>
<path d="M30.3875 31.3076C30.1219 31.5341 29.8484 31.7509 29.5673 31.9579V34.0836C29.5673 34.2305 29.6146 34.333 29.6779 34.3977C29.7408 34.4619 29.8387 34.5082 29.9779 34.5082C30.1168 34.5081 30.2141 34.4618 30.2769 34.3977C30.3402 34.333 30.3875 34.2305 30.3875 34.0836V31.3076ZM10.3721 29.9629C10.2062 29.7933 9.9708 29.7935 9.80481 29.9629C9.63687 30.1344 9.63614 30.382 9.80192 30.5546C12.6454 33.0592 16.3909 34.5082 20.1317 34.5082C23.3808 34.5081 26.5293 33.5153 29.075 31.7072V30.9762H28.7038C26.2014 32.8547 23.1653 33.7925 20.1317 33.7926C16.5246 33.7926 13.0513 32.4281 10.3808 29.9725L10.3712 29.9638L10.3721 29.9629ZM30.0183 29.9859C29.9415 29.9781 29.8481 30.007 29.7596 30.0973L29.751 30.1069L29.75 30.106C29.6088 30.2358 29.4648 30.3615 29.3192 30.4844H29.5673V31.3413C29.7859 31.1714 30.0004 30.9963 30.2087 30.8139L30.2202 30.8033L30.2327 30.7957C30.3068 30.7452 30.3556 30.6926 30.3875 30.6429V30.3087C30.3714 30.2828 30.3514 30.2569 30.3269 30.2318L30.3096 30.2145L30.2962 30.1944C30.1963 30.0413 30.093 29.9936 30.0183 29.9859ZM17.1279 24.6942C17.1278 22.9471 15.789 21.5868 14.0923 21.5868H7.52788C5.8313 21.587 4.49243 22.9472 4.49231 24.6942V26.0361C4.49239 26.1829 4.53959 26.2856 4.60288 26.3502C4.66575 26.4143 4.76372 26.4607 4.90288 26.4607C5.04201 26.4606 5.14007 26.4144 5.20288 26.3502C5.26611 26.2855 5.31242 26.1828 5.3125 26.0361V24.6942C5.31264 23.4908 6.33671 22.4371 7.52788 22.4369H14.0923C15.2836 22.4369 16.3076 23.4907 16.3077 24.6942V26.0361C16.3078 26.1829 16.355 26.2856 16.4183 26.3502C16.4811 26.4143 16.5791 26.4607 16.7183 26.4607C16.8574 26.4606 16.9555 26.4144 17.0183 26.3502C17.0815 26.2855 17.1278 26.1828 17.1279 26.0361V24.6942ZM35.5077 24.6942C35.5076 22.9472 34.1687 21.587 32.4721 21.5868H25.9077C24.211 21.5868 22.8722 22.9471 22.8721 24.6942V26.0361C22.8722 26.1828 22.9185 26.2855 22.9817 26.3502C23.0445 26.4144 23.1426 26.4606 23.2817 26.4607C23.4209 26.4607 23.5189 26.4143 23.5817 26.3502C23.645 26.2856 23.6922 26.1829 23.6923 26.0361V24.6942C23.6924 23.4907 24.7164 22.4369 25.9077 22.4369H32.4721C33.6633 22.4371 34.6874 23.4908 34.6875 24.6942V26.0361C34.6876 26.1828 34.7339 26.2855 34.7971 26.3502C34.8599 26.4144 34.958 26.4606 35.0971 26.4607C35.2363 26.4607 35.3342 26.4143 35.3971 26.3502C35.4604 26.2856 35.5076 26.1829 35.5077 26.0361V24.6942ZM13.8462 16.6467C13.8461 14.8996 12.5072 13.5395 10.8106 13.5393C9.11378 13.5393 7.77407 14.8995 7.77404 16.6467C7.77404 18.3939 9.11376 19.7541 10.8106 19.7541C12.5072 19.7539 13.8462 18.3938 13.8462 16.6467ZM32.226 16.6467C32.2259 14.8995 30.8862 13.5393 29.1894 13.5393C27.4928 13.5395 26.1539 14.8996 26.1538 16.6467C26.1538 18.3938 27.4928 19.7539 29.1894 19.7541C30.8862 19.7541 32.226 18.3939 32.226 16.6467ZM12.5337 16.6467C12.5336 15.7044 11.7196 14.8814 10.8106 14.8812C9.90147 14.8812 9.08753 15.7043 9.0875 16.6467C9.0875 17.5892 9.90145 18.4132 10.8106 18.4132C11.7196 18.413 12.5337 17.5891 12.5337 16.6467ZM30.9125 16.6467C30.9125 15.7043 30.0985 14.8812 29.1894 14.8812C28.2804 14.8814 27.4664 15.7044 27.4663 16.6467C27.4663 17.5891 28.2804 18.413 29.1894 18.4132C30.0985 18.4132 30.9125 17.5892 30.9125 16.6467ZM14.5029 9.94013C14.5028 9.79333 14.4556 9.69071 14.3923 9.62602C14.3294 9.5618 14.2316 9.51556 14.0923 9.51556H11.7721C11.4173 9.77933 11.0733 10.062 10.7423 10.3647H14.0923C14.2316 10.3647 14.3294 10.3185 14.3923 10.2542C14.4555 10.1895 14.5029 10.0869 14.5029 9.94013ZM20 5.4918C16.7499 5.4918 13.6014 6.48407 11.0567 8.37827V9.02376H11.6106C14.0775 7.23513 17.0397 6.34093 20 6.34093C23.4946 6.34093 26.863 7.62248 29.4981 9.93532L29.7596 10.1707L29.8048 10.2072C29.8182 10.2148 29.8302 10.2187 29.8413 10.2216C29.8722 10.2295 29.9076 10.2312 29.9779 10.2312C30.1297 10.2311 30.1976 10.1693 30.3269 10.0371C30.4945 9.86596 30.4954 9.61891 30.3308 9.4464C27.4872 6.94112 23.7414 5.4918 20 5.4918ZM10.5644 8.76345C10.3491 8.93938 10.137 9.12044 9.93173 9.31C9.83235 9.41262 9.76759 9.53256 9.74327 9.63851V9.79796C9.75463 9.83645 9.7742 9.87139 9.80481 9.90266C9.96843 10.0698 10.223 10.0836 10.4106 9.99968C10.5938 9.8322 10.7817 9.67153 10.9721 9.51556H10.5644V8.76345ZM30.8798 34.0836C30.8798 34.3389 30.796 34.5717 30.6298 34.7416C30.463 34.912 30.2323 34.9999 29.9779 35C29.7235 35 29.4928 34.912 29.326 34.7416C29.1596 34.5716 29.075 34.339 29.075 34.0836V32.3056C26.4951 34.0494 23.359 34.9999 20.1317 35C16.2626 35 12.3971 33.5016 9.46538 30.9148L9.45865 30.909L9.45288 30.9023C9.09678 30.5385 9.09678 29.9828 9.45288 29.619C9.80898 29.2555 10.3552 29.2528 10.7144 29.6103L10.9587 29.8293C13.505 32.0642 16.7583 33.3008 20.1317 33.3008C22.8442 33.3007 25.5537 32.5247 27.8538 30.9762H26.0394C25.785 30.9762 25.5544 30.8882 25.3875 30.7179C25.2212 30.5479 25.1366 30.3152 25.1365 30.0599C25.1365 29.8044 25.2211 29.5719 25.3875 29.4019C25.5544 29.2314 25.7849 29.1435 26.0394 29.1435H29.9779C30.2323 29.1436 30.463 29.2315 30.6298 29.4019C30.7959 29.5719 30.8798 29.8047 30.8798 30.0599V30.1992C30.9218 30.3102 30.9399 30.4297 30.9279 30.5526C30.9212 30.6213 30.9042 30.6881 30.8798 30.7524V34.0836ZM25.6288 30.0599C25.6289 30.2067 25.6761 30.3093 25.7394 30.374C25.8023 30.4381 25.9003 30.4844 26.0394 30.4844H28.5365C28.8385 30.2519 29.1332 30.0061 29.4173 29.7448C29.458 29.7043 29.5015 29.6672 29.5481 29.6353H26.0394C25.9001 29.6353 25.8023 29.6815 25.7394 29.7458C25.6761 29.8105 25.6288 29.913 25.6288 30.0599ZM17.6202 26.0361C17.6201 26.2914 17.5365 26.5242 17.3702 26.6941C17.2034 26.8645 16.9727 26.9524 16.7183 26.9525C16.4639 26.9525 16.2332 26.8644 16.0663 26.6941C15.9 26.5242 15.8155 26.2914 15.8154 26.0361V24.6942C15.8152 23.7519 15.0014 22.9287 14.0923 22.9287H7.52788C6.61897 22.9289 5.80495 23.752 5.80481 24.6942V26.0361C5.80473 26.2914 5.72109 26.5242 5.55481 26.6941C5.388 26.8645 5.1573 26.9524 4.90288 26.9525C4.64847 26.9525 4.41782 26.8644 4.25096 26.6941C4.08464 26.5242 4.00008 26.2914 4 26.0361V24.6942C4.00013 22.6861 5.54904 21.0952 7.52788 21.095H14.0923C16.0713 21.095 17.6201 22.686 17.6202 24.6942V26.0361ZM36 26.0361C35.9999 26.2914 35.9154 26.5242 35.749 26.6941C35.5822 26.8644 35.3515 26.9525 35.0971 26.9525C34.8427 26.9524 34.612 26.8645 34.4452 26.6941C34.2789 26.5242 34.1953 26.2914 34.1952 26.0361V24.6942C34.1951 23.752 33.381 22.9289 32.4721 22.9287H25.9077C24.9986 22.9287 24.1848 23.7519 24.1846 24.6942V26.0361C24.1845 26.2914 24.1 26.5242 23.9337 26.6941C23.7668 26.8644 23.5361 26.9525 23.2817 26.9525C23.0273 26.9524 22.7966 26.8645 22.6298 26.6941C22.4635 26.5242 22.3799 26.2914 22.3798 26.0361V24.6942C22.3799 22.686 23.9287 21.095 25.9077 21.095H32.4721C34.451 21.0952 35.9999 22.6861 36 24.6942V26.0361ZM13.026 16.6467C13.026 17.8502 12.0018 18.9048 10.8106 18.905C9.61919 18.905 8.59519 17.8503 8.59519 16.6467C8.59522 15.4431 9.61921 14.3894 10.8106 14.3894C12.0018 14.3896 13.0259 15.4432 13.026 16.6467ZM14.3385 16.6467C14.3385 18.655 12.7895 20.2457 10.8106 20.2459C8.8315 20.2459 7.28173 18.6551 7.28173 16.6467C7.28176 14.6384 8.83151 13.0475 10.8106 13.0475C12.7895 13.0477 14.3384 14.6385 14.3385 16.6467ZM31.4048 16.6467C31.4048 17.8503 30.3808 18.905 29.1894 18.905C27.9982 18.9048 26.974 17.8502 26.974 16.6467C26.9741 15.4432 27.9982 14.3896 29.1894 14.3894C30.3808 14.3894 31.4048 15.4431 31.4048 16.6467ZM32.7183 16.6467C32.7183 18.6551 31.1685 20.2459 29.1894 20.2459C27.2105 20.2457 25.6615 18.655 25.6615 16.6467C25.6616 14.6385 27.2105 13.0477 29.1894 13.0475C31.1685 13.0475 32.7182 14.6384 32.7183 16.6467ZM10.5644 5.91637C10.5644 5.76956 10.5171 5.66696 10.4538 5.60227C10.391 5.53804 10.2931 5.4918 10.1538 5.4918C10.0145 5.4918 9.91671 5.53804 9.85385 5.60227C9.79056 5.66696 9.74331 5.76956 9.74327 5.91637V8.81916C10.0092 8.58029 10.2831 8.35234 10.5644 8.13525V5.91637ZM11.0567 7.7712C13.6375 5.94904 16.7742 5 20 5C23.869 5 27.7337 6.49849 30.6654 9.08523L30.6721 9.091L30.6788 9.09772C31.0349 9.46154 31.0349 10.0172 30.6788 10.381C30.5458 10.5169 30.3505 10.7228 29.9779 10.723C29.8441 10.723 29.6226 10.7263 29.4173 10.5232C26.8366 8.15016 23.4821 6.83274 20 6.83274C17.3667 6.83274 14.7358 7.56432 12.4798 9.02376H14.0923C14.3468 9.02376 14.5774 9.11168 14.7442 9.28215C14.9106 9.45209 14.9951 9.6848 14.9952 9.94013C14.9952 10.1954 14.9105 10.4281 14.7442 10.5981C14.5773 10.7686 14.3469 10.8565 14.0923 10.8565H10.1538C9.8993 10.8565 9.6688 10.7686 9.50192 10.5981C9.33567 10.4281 9.25096 10.1954 9.25096 9.94013V9.84887C9.23692 9.76289 9.23768 9.67616 9.25096 9.59144V5.91637C9.251 5.661 9.33556 5.42836 9.50192 5.25839C9.6688 5.08789 9.8993 5 10.1538 5C10.4084 5 10.6389 5.08789 10.8058 5.25839C10.9721 5.42836 11.0567 5.661 11.0567 5.91637V7.7712Z" fill="black"/>
</svg>
