<svg width="40" height="40" viewBox="0 0 40 40" fill="none" xmlns="http://www.w3.org/2000/svg">
<path d="M5.76804 16.5317C5.88132 16.5778 6.00119 16.6008 6.12107 16.6008C6.24509 16.6008 6.36911 16.5761 6.48557 16.5268L9.28977 15.3434C9.76658 15.142 9.99022 14.5922 9.7888 14.1151C9.58763 13.6381 9.03758 13.4147 8.56053 13.6159L7.87473 13.9054C10.0029 9.06062 14.8183 5.87503 20.1763 5.87503C26.3023 5.87503 31.6519 10.0174 33.1856 15.9484C33.2949 16.371 33.6753 16.6516 34.0926 16.6516C34.1702 16.6516 34.2493 16.6418 34.3279 16.6215C34.8291 16.4919 35.1304 15.9804 35.0008 15.4792C33.2532 8.72029 27.157 4 20.1763 4C14.0364 4 8.52219 7.67144 6.11789 13.2445L5.80149 12.4945C5.60007 12.0177 5.05026 11.7941 4.57321 11.9952C4.09616 12.1967 3.87277 12.7467 4.07394 13.2235L5.2573 16.0278C5.35398 16.2568 5.53757 16.4382 5.76804 16.5317Z" fill="black"/>
<path d="M35.9261 26.5863L34.7427 23.7823C34.646 23.553 34.4622 23.3719 34.232 23.2781C34.0015 23.1846 33.7434 23.1863 33.5144 23.283L30.7102 24.4666C30.2334 24.6678 30.0098 25.2179 30.2112 25.6949C30.4124 26.172 30.9624 26.3954 31.4395 26.1939L32.2244 25.8626C30.1494 30.8373 25.2666 34.125 19.824 34.125C13.6977 34.125 8.34812 29.9826 6.81443 24.0516C6.68479 23.5501 6.17331 23.2493 5.67209 23.3785C5.17087 23.5081 4.8696 24.0196 4.99924 24.5208C6.7468 31.2797 12.843 36 19.824 36C25.9983 36 31.5401 32.2871 33.9224 26.661L34.1985 27.3153C34.3496 27.6735 34.697 27.8885 35.0628 27.8885C35.1841 27.8885 35.3079 27.8649 35.4268 27.8146C35.9038 27.6132 36.1272 27.0633 35.9261 26.5863Z" fill="black"/>
<path d="M18.1201 30.3195C18.2239 30.3571 18.3313 30.3749 18.4375 30.3749C18.7117 30.3749 18.9785 30.2546 19.1602 30.0348L27.0137 20.5349C27.2451 20.2549 27.294 19.8667 27.1394 19.5381C26.9846 19.2097 26.6543 19 26.2913 19H22.875V10.5001C22.875 10.1046 22.627 9.7518 22.2549 9.61776C21.8831 9.48397 21.467 9.59799 21.2148 9.90268L13.3613 19.4026C13.1299 19.6824 13.081 20.0708 13.2356 20.3992C13.3904 20.7278 13.7209 20.9375 14.084 20.9375H17.5002V29.4374C17.5 29.8329 17.748 30.1857 18.1201 30.3195ZM16.0752 19.0625L21 13.1054V19.9375C21 20.4553 21.4197 20.875 21.9375 20.875H24.2996L19.375 26.8321V20C19.375 19.4822 18.9551 19.0625 18.4375 19.0625H16.0752Z" fill="black"/>
</svg>
