<svg width="40" height="40" viewBox="0 0 40 40" fill="none" xmlns="http://www.w3.org/2000/svg">
<path d="M35 17.9991C34.448 17.9991 34 18.4471 34 18.9991V30.3224L26 33.5222V22.9988C26 22.4468 25.552 21.9989 25 21.9989C24.448 21.9989 24 22.4468 24 22.9988V33.5202L16 30.3204V14.4773L20.634 16.3312C21.14 16.5352 21.728 16.2872 21.934 15.7733C22.14 15.2613 21.89 14.6793 21.376 14.4733L15.39 12.0775C15.39 12.0775 15.39 12.0775 15.388 12.0775L15.372 12.0715C15.134 11.9755 14.868 11.9755 14.63 12.0715L14.612 12.0775C14.612 12.0775 14.612 12.0775 14.61 12.0775L4.628 16.0712C4.25 16.2232 4 16.5892 4 16.9992V34.9981C4 35.33 4.166 35.64 4.44 35.826C4.608 35.94 4.802 35.998 5 35.998C5.126 35.998 5.252 35.974 5.372 35.926L15 32.0762L24.61 35.92C24.61 35.92 24.61 35.92 24.612 35.92L24.63 35.928C24.868 36.024 25.134 36.024 25.372 35.928L25.39 35.92C25.39 35.92 25.39 35.92 25.392 35.92L35.374 31.9283C35.75 31.7743 36 31.4083 36 30.9983V18.9991C36 18.4471 35.552 17.9991 35 17.9991ZM14 30.3204L6 33.5202V17.6751L14 14.4753V30.3204Z" fill="black"/>
<path d="M29 7.99975C27.346 7.99975 26 9.34567 26 10.9996C26 12.6535 27.346 13.9994 29 13.9994C30.654 13.9994 32 12.6535 32 10.9996C32 9.34567 30.654 7.99975 29 7.99975ZM29 11.9995C28.448 11.9995 28 11.5515 28 10.9996C28 10.4476 28.448 9.99963 29 9.99963C29.552 9.99963 30 10.4476 30 10.9996C30 11.5515 29.552 11.9995 29 11.9995Z" fill="black"/>
<path d="M29 4C25.14 4 22 7.1398 22 10.9996C22 14.5913 27.616 20.9529 28.256 21.6669C28.446 21.8769 28.716 21.9989 29 21.9989C29.284 21.9989 29.554 21.8769 29.744 21.6669C30.384 20.9529 36 14.5913 36 10.9996C36 7.1398 32.86 4 29 4ZM29 19.473C26.816 16.8832 24 12.9074 24 10.9996C24 8.24373 26.244 5.99988 29 5.99988C31.756 5.99988 34 8.24373 34 10.9996C34 12.9054 31.184 16.8832 29 19.473Z" fill="black"/>
</svg>
