<svg width="40" height="40" viewBox="0 0 40 40" fill="none" xmlns="http://www.w3.org/2000/svg">
<path d="M32.9231 10.3048H27.8127C26.5204 10.3048 26.4644 10.1413 26.1097 9.07939L25.8226 8.20838C25.6091 7.56446 25.1977 7.0043 24.6469 6.60776C24.0962 6.21122 23.4343 5.99853 22.7555 6.00001H17.2445C16.5662 5.99913 15.9049 6.2121 15.3548 6.6086C14.8046 7.0051 14.3936 7.56492 14.1803 8.20838L13.8931 9.07939C13.5385 10.1413 13.4825 10.3048 12.1902 10.3048H7.07692C6.79131 10.3048 6.51739 10.4182 6.31542 10.62C6.11346 10.8219 6 11.0956 6 11.381C6 11.6665 6.11346 11.9402 6.31542 12.142C6.51739 12.3439 6.79131 12.4572 7.07692 12.4572H8.94359L10.0449 28.9591C10.031 29.6524 10.1633 30.3409 10.4331 30.9797C10.703 31.6186 11.1043 32.1936 11.6111 32.6673C12.1179 33.141 12.7187 33.5028 13.3746 33.7292C14.0305 33.9556 14.7268 34.0415 15.4181 33.9814H24.5877C25.279 34.0415 25.9752 33.9556 26.6311 33.7292C27.287 33.5028 27.8879 33.141 28.3947 32.6673C28.9014 32.1936 29.3028 31.6186 29.5726 30.9797C29.8425 30.3409 29.9747 29.6524 29.9608 28.9591L31.0564 12.4572H32.9231C33.2087 12.4572 33.4826 12.3439 33.6846 12.142C33.8865 11.9402 34 11.6665 34 11.381C34 11.0956 33.8865 10.8219 33.6846 10.62C33.4826 10.4182 33.2087 10.3048 32.9231 10.3048ZM16.2236 8.88855C16.2946 8.6741 16.4315 8.4875 16.6148 8.35533C16.7981 8.22316 17.0185 8.15216 17.2445 8.15242H22.7555C22.9815 8.15216 23.2019 8.22316 23.3852 8.35533C23.5685 8.4875 23.7054 8.6741 23.7764 8.88855L24.0636 9.75956C24.1253 9.94753 24.1899 10.1298 24.2589 10.3048H15.7368C15.8057 10.1283 15.8704 9.9461 15.9321 9.75956L16.2236 8.88855ZM27.8084 28.8142C27.8399 29.2362 27.7763 29.6599 27.6223 30.0541C27.4683 30.4483 27.2278 30.803 26.9185 31.0921C26.6093 31.3812 26.2391 31.5973 25.8352 31.7246C25.4314 31.8519 25.0041 31.887 24.5848 31.8275H15.4152C14.9959 31.887 14.5686 31.8519 14.1648 31.7246C13.7609 31.5973 13.3907 31.3812 13.0815 31.0921C12.7722 30.803 12.5317 30.4483 12.3777 30.0541C12.2237 29.6599 12.1601 29.2362 12.1916 28.8142L11.0974 12.4572H12.1844C12.3639 12.4572 12.5118 12.4386 12.6741 12.4271C12.722 12.441 12.771 12.4511 12.8205 12.4572H27.1795C27.2281 12.4509 27.2761 12.4409 27.3231 12.4271C27.4853 12.4386 27.6332 12.4572 27.8127 12.4572H28.9026L27.8084 28.8142ZM23.9487 18.5558V25.7305C23.9487 26.0159 23.8353 26.2896 23.6333 26.4915C23.4313 26.6933 23.1574 26.8067 22.8718 26.8067C22.5862 26.8067 22.3123 26.6933 22.1103 26.4915C21.9083 26.2896 21.7949 26.0159 21.7949 25.7305V18.5558C21.7949 18.2703 21.9083 17.9966 22.1103 17.7948C22.3123 17.5929 22.5862 17.4795 22.8718 17.4795C23.1574 17.4795 23.4313 17.5929 23.6333 17.7948C23.8353 17.9966 23.9487 18.2703 23.9487 18.5558ZM18.2051 18.5558V25.7305C18.2051 26.0159 18.0917 26.2896 17.8897 26.4915C17.6877 26.6933 17.4138 26.8067 17.1282 26.8067C16.8426 26.8067 16.5687 26.6933 16.3667 26.4915C16.1647 26.2896 16.0513 26.0159 16.0513 25.7305V18.5558C16.0513 18.2703 16.1647 17.9966 16.3667 17.7948C16.5687 17.5929 16.8426 17.4795 17.1282 17.4795C17.4138 17.4795 17.6877 17.5929 17.8897 17.7948C18.0917 17.9966 18.2051 18.2703 18.2051 18.5558Z" fill="black"/>
</svg>
