<svg width="40" height="40" viewBox="0 0 40 40" fill="none" xmlns="http://www.w3.org/2000/svg">
<path d="M8.70312 15.5572C8.18538 15.5572 7.76562 15.9537 7.76562 16.4428V23.5572C7.76562 24.0463 8.18538 24.4428 8.70312 24.4428C9.22088 24.4428 9.64062 24.0463 9.64062 23.5572V16.4428C9.64062 15.9537 9.22088 15.5572 8.70312 15.5572Z" fill="black"/>
<path d="M12.4688 15.5572C11.951 15.5572 11.5312 15.9537 11.5312 16.4428V23.5572C11.5312 24.0463 11.951 24.4428 12.4688 24.4428C12.9865 24.4428 13.4062 24.0463 13.4062 23.5572V16.4428C13.4062 15.9537 12.9865 15.5572 12.4688 15.5572Z" fill="black"/>
<path d="M35.0625 15.5572H32.2344V14.3395C32.2344 13.0495 31.1234 12 29.7578 12H6.47656C5.111 12 4 13.0495 4 14.3395V25.6605C4 26.9505 5.111 28 6.47656 28H29.7578C31.1234 28 32.2344 26.9505 32.2344 25.6605V24.4428H35.0625C35.5802 24.4428 36 24.0463 36 23.5572V16.4428C36 15.9537 35.5802 15.5572 35.0625 15.5572ZM30.3594 25.6605C30.3594 25.9738 30.0895 26.2288 29.7578 26.2288H6.47656C6.14488 26.2288 5.875 25.9738 5.875 25.6605V14.3395C5.875 14.0262 6.14488 13.7712 6.47656 13.7712H29.7578C30.0895 13.7712 30.3594 14.0262 30.3594 14.3395V25.6605ZM34.125 22.6716H32.2344V17.3284H34.125V22.6716Z" fill="black"/>
</svg>
