<svg width="40" height="40" viewBox="0 0 40 40" fill="none" xmlns="http://www.w3.org/2000/svg">
<path d="M37.5 18.75H5.51875L10.8813 13.3812C11.086 13.1421 11.193 12.8345 11.1809 12.5199C11.1687 12.2053 11.0383 11.9069 10.8157 11.6843C10.5931 11.4617 10.2947 11.3313 9.98007 11.3191C9.66547 11.307 9.35788 11.414 9.11875 11.6187L1.61875 19.1187C1.47177 19.2631 1.36156 19.4406 1.2974 19.6364C1.23323 19.8321 1.21698 20.0404 1.25 20.2437C1.30648 20.4791 1.42521 20.695 1.59375 20.8687L9.09375 28.3687C9.20581 28.4996 9.34371 28.6059 9.49879 28.6809C9.65387 28.7559 9.82279 28.7981 9.99493 28.8047C10.1671 28.8114 10.3387 28.7824 10.4992 28.7195C10.6596 28.6567 10.8052 28.5614 10.9271 28.4396C11.0489 28.3177 11.1442 28.1721 11.207 28.0117C11.2699 27.8512 11.2989 27.6796 11.2922 27.5074C11.2856 27.3353 11.2434 27.1664 11.1684 27.0113C11.0934 26.8562 10.9871 26.7183 10.8563 26.6062L5.51875 21.25H37.5C37.8315 21.25 38.1495 21.1183 38.3839 20.8839C38.6183 20.6495 38.75 20.3315 38.75 20C38.75 19.6685 38.6183 19.3505 38.3839 19.1161C38.1495 18.8817 37.8315 18.75 37.5 18.75Z" fill="black"/>
</svg>
