<svg width="40" height="40" viewBox="0 0 40 40" fill="none" xmlns="http://www.w3.org/2000/svg">
<path d="M21.2346 7.27274L21.2346 29.6551L27.8509 22.9185C27.9662 22.797 28.1041 22.7 28.2566 22.6333C28.4091 22.5666 28.5732 22.5315 28.7391 22.53C28.9051 22.5286 29.0697 22.5608 29.2233 22.6248C29.377 22.6887 29.5165 22.7833 29.6339 22.9028C29.7512 23.0223 29.8441 23.1644 29.9069 23.3208C29.9698 23.4772 30.0014 23.6448 30 23.8138C29.9985 23.9828 29.964 24.1498 29.8985 24.3051C29.833 24.4603 29.7378 24.6008 29.6184 24.7182L20.8684 33.6274C20.634 33.866 20.3161 34 19.9846 34C19.6532 34 19.3353 33.866 19.1009 33.6274L10.3509 24.7182C10.1232 24.4781 9.9972 24.1566 10 23.8229C10.0029 23.4892 10.1344 23.17 10.3661 22.934C10.5979 22.6981 10.9114 22.5642 11.2391 22.5613C11.5669 22.5584 11.8826 22.6867 12.1184 22.9185L18.7346 29.6551L18.7346 7.27274C18.7346 6.93519 18.8663 6.61146 19.1008 6.37278C19.3352 6.13409 19.6531 6 19.9846 6C20.3162 6 20.6341 6.13409 20.8685 6.37278C21.1029 6.61146 21.2346 6.93519 21.2346 7.27274Z" fill="black"/>
</svg>
