<svg width="40" height="40" viewBox="0 0 40 40" fill="none" xmlns="http://www.w3.org/2000/svg">
<path d="M29.4969 14.8061C28.5713 13.1809 27.2268 11.7994 25.5761 10.7845C23.6771 9.61706 21.47 9 19.1928 9C13.5318 9 8.73434 12.7978 7.70795 17.9553C4.44583 18.5246 2 21.2226 2 24.4219C2 28.0491 5.13522 31 8.98895 31H29.3969C34.1408 31 38 27.3677 38 22.9027C38 18.4692 34.1949 14.8566 29.4969 14.8061ZM29.3969 29.0146H21.0547V22.6731L23.2893 24.7764C23.4953 24.9702 23.7653 25.0672 24.0353 25.0672C24.305 25.0672 24.575 24.9702 24.781 24.7764C25.193 24.3886 25.193 23.7602 24.781 23.3727L20.7457 19.5746C20.334 19.1869 19.666 19.1869 19.2543 19.5746L15.219 23.3727C14.807 23.7602 14.807 24.3886 15.219 24.7764C15.6307 25.1641 16.2987 25.1641 16.7107 24.7764L18.9453 22.6731V29.0146H8.98895C6.2984 29.0146 4.10938 26.9543 4.10938 24.4219C4.10938 21.9958 6.12317 19.9825 8.6937 19.8386C9.20511 19.8099 9.62039 19.4397 9.67889 18.9607C10.2329 14.414 14.3228 10.9854 19.1928 10.9854C22.9193 10.9854 26.3355 13.0447 27.8959 16.2321C28.0796 16.6072 28.4911 16.8362 28.9289 16.8068C29.0871 16.7962 29.2444 16.7907 29.3969 16.7907C32.9776 16.7907 35.8906 19.5325 35.8906 22.9027C35.8906 26.2729 32.9776 29.0146 29.3969 29.0146Z" fill="black"/>
</svg>
