<svg width="40" height="40" viewBox="0 0 40 40" fill="none" xmlns="http://www.w3.org/2000/svg">
<path d="M31.3157 6.55769C31.3157 6.44231 31.3157 6.32692 31.3157 6.21154C31.3157 5.63462 30.7952 5.05769 30.159 5.05769C29.5229 5.05769 29.0024 5.57692 29.0024 6.21154V6.55769H14.7181V6.5C14.7181 6.38462 14.7181 6.26923 14.7181 6.15385C14.7181 5.57692 14.1976 5 13.5614 5C12.9253 5 12.4048 5.51923 12.4048 6.15385V6.61538C9.74458 6.61538 7.54699 8.80769 7.54699 11.4615V15.9038C7.48916 16.0769 7.43132 16.1923 7.43132 16.3654C7.08434 18.8462 6.50602 21.3269 5.69639 23.6923C5.29157 24.7885 4.82892 25.9423 4.30843 26.9808C3.84578 27.9615 3.90361 29.0577 4.48193 29.9231C5.06024 30.7885 5.98554 31.3077 7.02651 31.3077H7.66265C8.18313 33.4423 10.0916 35 12.4048 35H31.1422C33.8024 35 36 32.8077 36 30.1538V11.4038C36 8.75 33.9181 6.67308 31.3157 6.55769ZM12.347 8.86538V9.09615C12.347 9.67308 12.8675 10.25 13.5036 10.25C14.1398 10.25 14.6602 9.73077 14.6602 9.09615C14.6602 9.03846 14.6602 8.92308 14.6602 8.86538H29.0024V9.21154C29.0024 9.78846 29.5229 10.3654 30.159 10.3654C30.7952 10.3654 31.3157 9.84615 31.3157 9.21154C31.3157 9.09615 31.3157 8.98077 31.3157 8.86538C32.6458 8.98077 33.6867 10.0769 33.6867 11.4038V14.1731C33.6289 14.1731 33.5133 14.1731 33.4554 14.1731H9.80241V11.4038C9.80241 9.96154 10.959 8.86538 12.347 8.86538ZM6.39036 28.6538C6.2747 28.4231 6.21687 28.1923 6.33253 27.9615C6.85301 26.8077 7.37349 25.6538 7.77831 24.4423C8.64578 21.9038 9.28193 19.3077 9.62892 16.6538C9.62892 16.5962 9.68675 16.5385 9.74458 16.5385H33.3976C33.3976 16.5385 33.4554 16.5385 33.5133 16.5962C33.5133 16.5962 33.5711 16.6538 33.5711 16.7115C33.2819 19.3077 32.7036 21.8462 31.894 24.2692C31.4892 25.4808 30.9687 26.6923 30.3904 27.9038C30.0434 28.5962 29.2916 29.0577 28.4819 29.0577H7.02651C6.73735 28.9423 6.50602 28.8269 6.39036 28.6538ZM31.1422 32.6346H12.347C11.3639 32.6346 10.5542 32.0577 10.0916 31.25H28.4241C30.1012 31.25 31.6626 30.2692 32.4145 28.7692C32.8771 27.8462 33.2819 26.8654 33.6289 25.8846V30.0962C33.6867 31.4808 32.5301 32.6346 31.1422 32.6346Z" fill="black"/>
</svg>
