<svg width="40" height="40" viewBox="0 0 40 40" fill="none" xmlns="http://www.w3.org/2000/svg">
<path d="M33.4268 27.6072L31.5246 24.7963C31.2649 24.4142 31.1252 23.9596 31.1241 23.4937V15.4265C31.1241 12.396 29.9521 9.48964 27.8659 7.34675C25.7798 5.20386 22.9503 4 20 4C17.0497 4 14.2202 5.20386 12.1341 7.34675C10.0479 9.48964 8.8759 12.396 8.8759 15.4265V23.4937C8.87482 23.9596 8.73509 24.4142 8.47543 24.7963L6.57321 27.6072C6.28518 27.935 6.09578 28.3415 6.02791 28.7775C5.96003 29.2136 6.01659 29.6605 6.19075 30.0642C6.36491 30.4679 6.6492 30.8111 7.00925 31.0524C7.3693 31.2937 7.78969 31.4226 8.21957 31.4237H14.5492C14.8045 32.7152 15.4867 33.8763 16.48 34.7104C17.4734 35.5444 18.717 36 20 36C21.283 36 22.5266 35.5444 23.52 34.7104C24.5133 33.8763 25.1955 32.7152 25.4508 31.4237H31.7804C32.2103 31.4226 32.6307 31.2937 32.9907 31.0524C33.3508 30.8111 33.6351 30.4679 33.8092 30.0642C33.9834 29.6605 34.04 29.2136 33.9721 28.7775C33.9042 28.3415 33.7148 27.935 33.4268 27.6072ZM20 33.709C19.3115 33.707 18.6404 33.4863 18.0788 33.0772C17.5172 32.668 17.0925 32.0905 16.863 31.4237H23.137C22.9075 32.0905 22.4828 32.668 21.9212 33.0772C21.3596 33.4863 20.6885 33.707 20 33.709ZM8.21957 29.1384C8.26985 29.0904 8.31464 29.0368 8.35306 28.9784L10.2998 26.0989C10.8191 25.3347 11.0986 24.4256 11.1007 23.4937V15.4265C11.1007 13.0021 12.0383 10.677 13.7073 8.96271C15.3762 7.2484 17.6398 6.28531 20 6.28531C22.3602 6.28531 24.6238 7.2484 26.2927 8.96271C27.9617 10.677 28.8993 13.0021 28.8993 15.4265V23.4937C28.9014 24.4256 29.1809 25.3347 29.7002 26.0989L31.6469 28.9784C31.6854 29.0368 31.7301 29.0904 31.7804 29.1384H8.21957Z" fill="black"/>
</svg>
