<svg width="40" height="40" viewBox="0 0 40 40" fill="none" xmlns="http://www.w3.org/2000/svg">
<path d="M19.5059 12.1387C19.7084 11.8629 20.0822 11.7601 20.4033 11.8877C20.7256 12.0183 20.9127 12.348 20.8574 12.6836L20.1387 16.9668L22.252 16.9697C22.5264 16.9698 22.7771 17.1161 22.9092 17.3506C23.0397 17.5836 23.0306 17.8699 22.8838 18.0957L17.6377 26.1611C17.4982 26.3767 17.2564 26.5 17.0059 26.5C16.9203 26.5 16.8345 26.4849 16.752 26.457C16.422 26.3396 16.2182 26.0159 16.2617 25.6758L16.9062 20.6338L14.749 20.6309C14.4671 20.6309 14.2106 20.4766 14.083 20.2334C13.9555 19.9886 13.9763 19.6951 14.1396 19.4707L19.5059 12.1387Z" fill="black"/>
<path fill-rule="evenodd" clip-rule="evenodd" d="M30.8857 8.16699C33.1606 8.16699 35.0126 9.97532 35.0127 12.2002V12.5674H35.374C36.8221 12.5674 38 13.7185 38 15.1338V23.2002C37.9998 24.5268 36.9648 25.6221 35.6426 25.7539L35.374 25.7666H35.0127V26.1338L35.0068 26.3408C34.896 28.4696 33.0895 30.167 30.8857 30.167H6.12695L5.91504 30.1621C3.80829 30.0577 2.11314 28.4011 2.00586 26.3408L2 26.1338V12.2002C2.00007 10.0447 3.73807 8.27981 5.91504 8.17188L6.12695 8.16699H30.8857ZM6.12695 10.167C4.91292 10.167 4.00007 11.1232 4 12.2002V26.1338C4.00025 27.2107 4.91303 28.167 6.12695 28.167H30.8857C32.0997 28.167 33.0124 27.2107 33.0127 26.1338V23.7666H35.374C35.7607 23.7666 35.9998 23.468 36 23.2002V15.1338C36 14.8659 35.7608 14.5674 35.374 14.5674H33.0127V12.2002C33.0126 11.1904 32.2102 10.2866 31.1094 10.1777L30.8857 10.167H6.12695Z" fill="black"/>
</svg>
