<svg width="40" height="40" viewBox="0 0 40 40" fill="none" xmlns="http://www.w3.org/2000/svg">
<path d="M33 9.625C33 7.62776 31.3722 6 29.375 6C27.3778 6 25.75 7.62776 25.75 9.625C25.75 10.0612 25.8392 10.4942 26.0059 10.9238L26.2148 11.4629L26.6338 11.9551C27.3177 12.7578 28.2945 13.25 29.375 13.25V15.25C27.6618 15.25 26.1438 14.4637 25.1113 13.252L15.834 18.835C16.0975 19.4856 16.25 20.1934 16.25 20.9375C16.25 21.4861 16.1462 22.0061 15.999 22.5078L24.8643 27.0469C25.8896 25.661 27.5225 24.75 29.375 24.75C32.4768 24.75 35 27.2732 35 30.375C35 33.4768 32.4768 36 29.375 36V34C31.3722 34 33 32.3722 33 30.375C33 28.3778 31.3722 26.75 29.375 26.75C28.1992 26.75 27.1469 27.3253 26.4727 28.2363L26.126 28.7041L25.9365 29.3164C25.8118 29.7192 25.75 30.059 25.75 30.375C25.75 32.3722 27.3778 34 29.375 34V36C26.2732 36 23.75 33.4768 23.75 30.375C23.75 29.797 23.8627 29.2499 24.0254 28.7246L15.1895 24.1992C14.168 25.624 12.5081 26.5625 10.625 26.5625V24.5625C11.8244 24.5625 12.8952 23.9676 13.5645 23.0342L13.8955 22.5713L14.0801 21.9443C14.1943 21.5551 14.25 21.2337 14.25 20.9375C14.25 20.4701 14.155 20.0168 13.9805 19.5859L13.7676 19.0615L13.333 18.5654C12.6505 17.7876 11.688 17.3125 10.625 17.3125C8.62776 17.3125 7 18.9403 7 20.9375C7 22.9347 8.62776 24.5625 10.625 24.5625V26.5625C7.52319 26.5625 5 24.0393 5 20.9375C5 17.8357 7.52319 15.3125 10.625 15.3125C12.3086 15.3125 13.8043 16.0713 14.8359 17.2471L24.1416 11.6475C23.8974 11.018 23.75 10.3398 23.75 9.625C23.75 6.52319 26.2732 4 29.375 4C32.4768 4 35 6.52319 35 9.625C35 12.7268 32.4768 15.25 29.375 15.25V13.25C31.3722 13.25 33 11.6222 33 9.625Z" fill="black"/>
</svg>
