<svg width="40" height="40" viewBox="0 0 40 40" fill="none" xmlns="http://www.w3.org/2000/svg">
<path d="M20.5669 12.0614H11.846C11.5568 12.0614 11.2796 12.1739 11.0751 12.3741C10.8707 12.5744 10.7558 12.8459 10.7558 13.1291C10.7558 13.4123 10.8707 13.6839 11.0751 13.8841C11.2796 14.0844 11.5568 14.1969 11.846 14.1969H20.5669C20.856 14.1969 21.1332 14.0844 21.3377 13.8841C21.5421 13.6839 21.657 13.4123 21.657 13.1291C21.657 12.8459 21.5421 12.5744 21.3377 12.3741C21.1332 12.1739 20.856 12.0614 20.5669 12.0614Z" fill="black"/>
<path d="M20.5669 17.7738H11.846C11.5568 17.7738 11.2796 17.8863 11.0751 18.0865C10.8707 18.2867 10.7558 18.5583 10.7558 18.8415C10.7558 19.1247 10.8707 19.3963 11.0751 19.5965C11.2796 19.7968 11.5568 19.9092 11.846 19.9092H20.5669C20.856 19.9092 21.1332 19.7968 21.3377 19.5965C21.5421 19.3963 21.657 19.1247 21.657 18.8415C21.657 18.5583 21.5421 18.2867 21.3377 18.0865C21.1332 17.8863 20.856 17.7738 20.5669 17.7738Z" fill="black"/>
<path d="M20.5669 23.6143H11.846C11.5568 23.6143 11.2796 23.7268 11.0751 23.927C10.8707 24.1273 10.7558 24.3988 10.7558 24.682C10.7558 24.9652 10.8707 25.2368 11.0751 25.437C11.2796 25.6373 11.5568 25.7498 11.846 25.7498H20.5669C20.856 25.7498 21.1332 25.6373 21.3377 25.437C21.5421 25.2368 21.657 24.9652 21.657 24.682C21.657 24.3988 21.5421 24.1273 21.3377 23.927C21.1332 23.7268 20.856 23.6143 20.5669 23.6143Z" fill="black"/>
<path d="M30.7594 4H9.24059C8.68136 4.0014 8.12791 4.11085 7.61194 4.32208C7.09596 4.53331 6.62761 4.84217 6.23369 5.23097C5.83978 5.61978 5.52805 6.08088 5.31636 6.58787C5.10467 7.09486 4.99719 7.63778 5.00006 8.18552V34.2276C4.99934 34.4948 5.07126 34.7574 5.20844 34.9884C5.34561 35.2194 5.54308 35.4105 5.78058 35.542C6.01808 35.6736 6.28705 35.7408 6.55985 35.7368C6.83266 35.7329 7.09947 35.6579 7.3329 35.5195L11.3445 33.1598C11.405 33.1229 11.4749 33.1034 11.5462 33.1034C11.6175 33.1034 11.6873 33.1229 11.7479 33.1598L16.2064 35.7758C16.4409 35.9222 16.7132 36 16.9913 36C17.2711 35.9986 17.5456 35.9249 17.7871 35.7865L22.2674 33.1598C22.3279 33.1229 22.3978 33.1034 22.4691 33.1034C22.5404 33.1034 22.6103 33.1229 22.6708 33.1598L26.6606 35.5195C26.8948 35.6558 27.1622 35.7277 27.4346 35.7277C27.707 35.7277 27.9744 35.6558 28.2085 35.5195C28.443 35.3882 28.6381 35.1986 28.7739 34.9699C28.9098 34.7412 28.9818 34.4815 28.9825 34.2169V16.2149H32.4055C33.0927 16.2121 33.7509 15.9434 34.2369 15.4675C34.7228 14.9915 34.9971 14.3468 34.9999 13.6737V8.18552C35.0028 7.63778 34.8953 7.09486 34.6836 6.58787C34.472 6.08088 34.1602 5.61978 33.7663 5.23097C33.3724 4.84217 32.904 4.53331 32.3881 4.32208C31.8721 4.11085 31.3186 4.0014 30.7594 4ZM26.8023 33.1064L23.7936 31.334C23.3928 31.1009 22.9352 30.9779 22.4691 30.9779C22.003 30.9779 21.5454 31.1009 21.1446 31.334L17.0022 33.7684L12.8707 31.3233C12.4651 31.0857 12.0009 30.9611 11.5283 30.963C11.0557 30.9649 10.5926 31.0932 10.189 31.334L7.18028 33.1171V8.18552C7.17594 7.91783 7.22603 7.65196 7.32763 7.40342C7.42922 7.15487 7.5803 6.92861 7.77205 6.73781C7.9638 6.54702 8.19239 6.3955 8.44452 6.29209C8.69664 6.18867 8.96725 6.13544 9.24059 6.13547H27.2492C26.9614 6.67264 26.8082 7.26922 26.8023 7.87588V33.1064ZM32.8197 13.6737C32.8197 13.7813 32.7761 13.8845 32.6984 13.9606C32.6207 14.0367 32.5153 14.0794 32.4055 14.0794H28.9825V7.90791C28.9782 7.67667 29.0209 7.44691 29.1083 7.23204C29.1956 7.01717 29.3258 6.82151 29.4913 6.65649C29.6567 6.49147 29.854 6.36041 30.0718 6.27095C30.2895 6.18149 30.5233 6.13543 30.7594 6.13547C31.3058 6.13547 31.8299 6.34808 32.2163 6.72653C32.6027 7.10498 32.8197 7.61828 32.8197 8.15349V13.6737Z" fill="black"/>
</svg>
