<svg width="40" height="40" viewBox="0 0 40 40" fill="none" xmlns="http://www.w3.org/2000/svg">
<path d="M7.96429 5C8.22003 5 8.4653 5.10532 8.64614 5.29279C8.82698 5.48026 8.92858 5.73452 8.92858 5.99965C8.92858 6.93931 9.457 7.41115 10.4714 8.19887L10.5486 8.25885C11.4627 8.96859 12.7857 9.99423 12.7857 11.9975C12.7857 12.2626 12.6841 12.5169 12.5033 12.7044C12.3224 12.8918 12.0772 12.9972 11.8214 12.9972C11.5657 12.9972 11.3204 12.8918 11.1396 12.7044C10.9587 12.5169 10.8571 12.2626 10.8571 11.9975C10.8571 11.0579 10.3287 10.586 9.31429 9.7983L9.23715 9.73832C8.323 9.02857 7 8.00294 7 5.99965C7 5.73452 7.1016 5.48026 7.28244 5.29279C7.46328 5.10532 7.70855 5 7.96429 5ZM13.75 5C14.0057 5 14.251 5.10532 14.4319 5.29279C14.6127 5.48026 14.7143 5.73452 14.7143 5.99965C14.7143 6.93931 15.2427 7.41115 16.2571 8.19887L16.3343 8.25885C17.2484 8.96859 18.5714 9.99423 18.5714 11.9975C18.5714 12.2626 18.4698 12.5169 18.289 12.7044C18.1082 12.8918 17.8629 12.9972 17.6071 12.9972C17.3514 12.9972 17.1061 12.8918 16.9253 12.7044C16.7445 12.5169 16.6429 12.2626 16.6429 11.9975C16.6429 11.0579 16.1144 10.586 15.1 9.7983L15.0229 9.73832C14.1087 9.02857 12.7857 8.00294 12.7857 5.99965C12.7857 5.73452 12.8873 5.48026 13.0682 5.29279C13.249 5.10532 13.4943 5 13.75 5ZM20.5 5.99965C20.5 5.73452 20.3984 5.48026 20.2176 5.29279C20.0367 5.10532 19.7915 5 19.5357 5C19.28 5 19.0347 5.10532 18.8539 5.29279C18.673 5.48026 18.5714 5.73452 18.5714 5.99965C18.5714 8.00294 19.8944 9.02857 20.8086 9.73832L20.8857 9.7983C21.9001 10.586 22.4286 11.0579 22.4286 11.9975C22.4286 12.2626 22.5302 12.5169 22.711 12.7044C22.8918 12.8918 23.1371 12.9972 23.3929 12.9972C23.6486 12.9972 23.8939 12.8918 24.0747 12.7044C24.2556 12.5169 24.3571 12.2626 24.3571 11.9975C24.3571 9.99423 23.0341 8.96859 22.12 8.25885L22.0429 8.19887C21.0284 7.41115 20.5 6.93931 20.5 5.99965ZM28.2143 16.9958H29.1786C30.4573 16.9958 31.6836 17.5223 32.5878 18.4597C33.492 19.397 34 20.6684 34 21.994C34 23.3196 33.492 24.5909 32.5878 25.5283C31.6836 26.4656 30.4573 26.9922 29.1786 26.9922H27.8151C27.1188 29.5482 25.5537 31.7566 23.4089 33.2093C21.2641 34.662 18.6846 35.2609 16.147 34.8953C13.6094 34.5297 11.2852 33.2243 9.60381 31.2203C7.92243 29.2163 6.99754 26.6492 7 23.9933V16.7778C7 15.7962 7.7695 14.9965 8.71836 14.9965H26.4959C27.4448 14.9965 28.2143 15.7942 28.2143 16.7778V16.9958ZM8.92858 16.9958V23.9933C8.92858 26.3794 9.84292 28.6677 11.4705 30.355C13.098 32.0422 15.3054 32.9901 17.6071 32.9901C19.9088 32.9901 22.1163 32.0422 23.7438 30.355C25.3714 28.6677 26.2857 26.3794 26.2857 23.9933V16.9958H8.92858ZM28.2143 18.995V23.9933C28.2143 24.3312 28.1989 24.663 28.1719 24.9929H29.1786C29.9458 24.9929 30.6816 24.677 31.2241 24.1145C31.7666 23.5521 32.0714 22.7893 32.0714 21.994C32.0714 21.1986 31.7666 20.4358 31.2241 19.8734C30.6816 19.311 29.9458 18.995 29.1786 18.995H28.2143Z" fill="black"/>
</svg>
