<svg width="40" height="40" viewBox="0 0 40 40" fill="none" xmlns="http://www.w3.org/2000/svg">
<path d="M25 36H7C5.897 36 5 35.103 5 34V32C5 30.897 5.897 30 7 30H25C26.103 30 27 30.897 27 32V34C27 35.103 26.103 36 25 36ZM7 32V34H25.0015L25 32H7Z" fill="black"/>
<path d="M16.2334 28.0645C16.1035 28.0645 15.9712 28.0386 15.8438 27.9849C15.3355 27.7696 15.0977 27.1827 15.313 26.6739L16.022 25.0001H14.4683C14.1329 25.0001 13.8199 24.8321 13.6348 24.5523C13.4493 24.2725 13.4165 23.919 13.5474 23.6099L14.8453 20.5459C15.0606 20.0376 15.6466 19.8008 16.1563 20.0151C16.6646 20.2304 16.9024 20.8173 16.6871 21.3261L15.9781 22.9999H17.5318C17.8672 22.9999 18.1802 23.1679 18.3653 23.4477C18.5508 23.7275 18.5836 24.081 18.4527 24.3901L17.1548 27.4541C16.9932 27.8354 16.6231 28.0645 16.2334 28.0645Z" fill="black"/>
<path d="M25 32H7C6.4478 32 6 31.5522 6 31V6C6 4.897 6.897 4 8 4H24C25.103 4 26 4.897 26 6V31C26 31.5522 25.5522 32 25 32ZM8 30H24V6H8V30Z" fill="black"/>
<path d="M32 21C29.7944 21 28 19.2056 28 17V13C28 12.4478 28.4478 12 29 12H35C35.5522 12 36 12.4478 36 13V17C36 19.2056 34.2056 21 32 21ZM30 14V17C30 18.103 30.897 19 32 19C33.103 19 34 18.103 34 17V14H30Z" fill="black"/>
<path d="M34 14C33.4478 14 33 13.5522 33 13V9C33 8.4478 33.4478 8 34 8C34.5522 8 35 8.4478 35 9V13C35 13.5522 34.5522 14 34 14Z" fill="black"/>
<path d="M30 14C29.4478 14 29 13.5522 29 13V9C29 8.4478 29.4478 8 30 8C30.5522 8 31 8.4478 31 9V13C31 13.5522 30.5522 14 30 14Z" fill="black"/>
<path d="M27.8828 26.936H25C24.4478 26.936 24 26.4882 24 25.936C24 25.3838 24.4478 24.936 25 24.936H27.8828C29.6016 24.936 31 23.5381 31 21.8193V20C31 19.4478 31.4478 19 32 19C32.5522 19 33 19.4478 33 20V21.8193C33 24.6406 30.7046 26.936 27.8828 26.936Z" fill="black"/>
<path d="M21 18H11C10.4478 18 10 17.5522 10 17V9C10 8.4478 10.4478 8 11 8H21C21.5522 8 22 8.4478 22 9V17C22 17.5522 21.5522 18 21 18ZM12 16H20V10H12V16Z" fill="black"/>
</svg>
