<svg preserveAspectRatio="none" width="100%" height="100%" overflow="visible" style="display: block;" viewBox="0 0 246.991 410.573" fill="none" xmlns="http://www.w3.org/2000/svg">
<path id="Vector" opacity="0.1" d="M244.912 202.062L126.131 404.875C125.848 405.362 125.537 405.833 125.201 406.284L124.131 407.457C122.968 408.628 121.552 409.509 119.993 410.031C118.434 410.552 116.776 410.7 115.151 410.462C113.619 410.304 112.135 409.83 110.791 409.07C109.447 408.31 108.273 407.28 107.339 406.043C106.406 404.807 105.734 403.39 105.365 401.881C104.996 400.372 104.938 398.802 105.194 397.27L119.897 294.455L123.805 267.225C124.118 265.136 123.983 263.004 123.408 260.972C122.834 258.941 121.833 257.057 120.474 255.45C119.115 253.843 117.43 252.549 115.532 251.657C113.634 250.764 111.569 250.294 109.475 250.277H14.5618C12.4462 250.257 10.3599 249.776 8.44535 248.867C6.53079 247.959 4.83312 246.644 3.46828 245.013C2.10344 243.381 1.10358 241.472 0.536997 239.415C-0.0295832 237.358 -0.149545 235.202 0.185316 233.094L44.385 21.8306C45.7019 15.699 49.0426 10.2002 53.8604 6.23427C58.6782 2.26836 64.6876 0.0703368 70.9048 0H171.261C174.398 0.0334477 177.485 0.798809 180.279 2.23621C183.074 3.67362 185.501 5.74407 187.371 8.28557C189.241 10.8271 190.503 13.7707 191.058 16.8861C191.613 20.0015 191.445 23.2042 190.57 26.2436L152.837 160.279C152.189 162.523 152.067 164.889 152.478 167.189C152.889 169.49 153.824 171.662 155.208 173.537C156.592 175.411 158.389 176.936 160.455 177.992C162.522 179.048 164.804 179.605 167.12 179.621H232.257C234.859 179.615 237.415 180.307 239.666 181.624C241.916 182.941 243.78 184.838 245.067 187.119C246.354 189.401 247.017 191.987 246.99 194.612C246.963 197.237 246.246 199.808 244.912 202.062Z" fill="url(#paint0_linear_0_211)"/>
<defs>
<linearGradient id="paint0_linear_0_211" x1="-93.9465" y1="107.105" x2="308.143" y2="318.255" gradientUnits="userSpaceOnUse">
<stop stop-color="white" stop-opacity="0.2"/>
<stop offset="0.235577" stop-color="white" stop-opacity="0"/>
<stop offset="0.471154" stop-color="white" stop-opacity="0.4"/>
<stop offset="0.668269" stop-color="white" stop-opacity="0"/>
<stop offset="0.79916" stop-color="white" stop-opacity="0.7"/>
<stop offset="1" stop-color="white" stop-opacity="0"/>
</linearGradient>
</defs>
</svg>
