<svg width="56" height="56" viewBox="0 0 56 56" fill="none" xmlns="http://www.w3.org/2000/svg">
<path d="M23.0888 7.63916L7.64474 11.7819L11.6605 26.7496L12.4436 29.6741L12.4481 29.6882L13.1042 32.1338L14.6056 37.7292L15.2641 40.1884L35.5417 34.7495L34.8806 32.2904L33.3792 26.6949L32.7252 24.2493L32.7206 24.2353L31.9356 21.3108L29.2415 11.2639L23.0888 7.63916Z" fill="#C9C9C9"/>
<path d="M23.0888 7.63916L7.64474 11.7819L11.6605 26.7496L12.4436 29.6741L12.4481 29.6882L13.1042 32.1338L14.6056 37.7292L15.2641 40.1884L35.5417 34.7495L34.8806 32.2904L33.3792 26.6949L32.7252 24.2493L32.7206 24.2353L31.9356 21.3108L29.2415 11.2639L23.0888 7.63916Z" fill="#1A8086"/>
<path d="M24.4074 12.5599L29.2408 11.2633L23.0882 7.63861L24.4074 12.5599Z" fill="#36AEB4"/>
<path d="M33.0705 33.9935L30.3348 36.9366L27.5945 34.118L24.9371 36.9366L22.4227 34.118L19.4957 36.9366L17.0963 34.118V42.4582H38.0902V34.118L35.3981 36.9366L33.0705 33.9935Z" fill="#36AEB4"/>
<path d="M33.0866 13.0479H17.0963V28.5452V31.5871L19.4957 34.4031L22.4227 31.5871L24.9371 34.4031L27.5945 31.5871L30.3348 34.4031L33.0705 31.4626L35.3986 34.4031L38.0907 31.5871V28.5452V18.1418L33.0866 13.0479Z" fill="#E9E9E9"/>
<path d="M33.0705 31.3158L30.3348 34.2588L27.5945 31.4403L24.9371 34.2588L22.4227 31.4403L19.4957 34.2588L17.0963 31.4403V39.7805H38.0902V31.4403L35.3981 34.2588L33.0705 31.3158Z" fill="#D0FDFF"/>
<path d="M33.0866 13.0479H17.0963V31.5871L19.4957 34.4031L22.4227 31.5871L24.9371 34.4031L27.5945 31.5871L30.3348 34.4031L33.0705 31.4626L35.3986 34.4031L38.0907 31.5871V18.1418L33.0866 13.0479Z" fill="#D0FDFF"/>
<path d="M33.0867 18.1418H38.0903L33.0867 13.0483V18.1418Z" fill="#36AEB4"/>
<path d="M34.5125 21.8559H21.0969C20.7515 21.8559 20.4704 21.5748 20.4704 21.2295V20.7692C20.4704 20.4238 20.7515 20.1427 21.0969 20.1427H34.51C34.8553 20.1427 35.1364 20.4238 35.1364 20.7692V21.2295C35.1385 21.5748 34.8579 21.8559 34.5125 21.8559Z" fill="#BCBBBB"/>
<path d="M34.5125 21.8559H21.0969C20.7515 21.8559 20.4704 21.5748 20.4704 21.2295V20.7692C20.4704 20.4238 20.7515 20.1427 21.0969 20.1427H34.51C34.8553 20.1427 35.1364 20.4238 35.1364 20.7692V21.2295C35.1384 21.5748 34.8578 21.8559 34.5125 21.8559Z" fill="#36AEB4"/>
<path d="M34.5125 25.6302H21.0969C20.7515 25.6302 20.4704 25.3491 20.4704 25.0038V24.5435C20.4704 24.1981 20.7515 23.917 21.0969 23.917H34.51C34.8553 23.917 35.1364 24.1981 35.1364 24.5435V25.0038C35.1385 25.3491 34.8579 25.6302 34.5125 25.6302Z" fill="#BCBBBB"/>
<path d="M34.5125 25.6302H21.0969C20.7515 25.6302 20.4704 25.3491 20.4704 25.0038V24.5435C20.4704 24.1981 20.7515 23.917 21.0969 23.917H34.51C34.8553 23.917 35.1364 24.1981 35.1364 24.5435V25.0038C35.1385 25.3491 34.8579 25.6302 34.5125 25.6302Z" fill="#36AEB4"/>
<path d="M34.5125 29.4045H21.0969C20.7515 29.4045 20.4704 29.1234 20.4704 28.778V28.3177C20.4704 27.9724 20.7515 27.6913 21.0969 27.6913H34.51C34.8553 27.6913 35.1364 27.9724 35.1364 28.3177V28.778C35.1385 29.1234 34.8579 29.4045 34.5125 29.4045Z" fill="#BCBBBB"/>
<path d="M34.8809 29.4045H21.4653C21.1199 29.4045 20.8388 29.1234 20.8388 28.778V28.3177C20.8388 27.9724 21.1199 27.6913 21.4653 27.6913H34.8784C35.2237 27.6913 35.5049 27.9724 35.5049 28.3177V28.778C35.5069 29.1234 35.2263 29.4045 34.8809 29.4045Z" fill="#36AEB4"/>
<path d="M40.74 37.4456L42.8076 41.8393L43.4085 41.5582L41.3544 37.1555L40.74 37.4456Z" fill="#C88503"/>
<path d="M42.4624 36.6349L41.3546 37.1554L43.4086 41.5582L44.5275 41.0306L42.4624 36.6349Z" fill="#E2E2E2"/>
<path d="M42.4624 36.6349L41.3546 37.1554L43.4086 41.5582L44.5275 41.0306L42.4624 36.6349Z" fill="#FFAE10"/>
<path d="M35.9271 25.3582C32.3581 27.0368 30.824 31.29 32.5031 34.859C34.1817 38.428 38.4349 39.962 42.0039 38.2829C45.5729 36.6043 47.1069 32.3511 45.4278 28.7821C43.7488 25.2131 39.4961 23.6821 35.9271 25.3582ZM41.0135 36.1766C38.6096 37.3071 35.7428 36.2755 34.6119 33.8691C33.4815 31.4626 34.513 28.5984 36.9195 27.4675C39.3234 26.337 42.1901 27.3686 43.3211 29.775C44.4515 32.1815 43.418 35.0462 41.0135 36.1766Z" fill="#E2E2E2"/>
<path d="M35.9271 25.3582C32.3581 27.0368 30.824 31.29 32.5031 34.859C34.1817 38.428 38.4349 39.962 42.0039 38.2829C45.5729 36.6043 47.1069 32.3511 45.4278 28.7821C43.7488 25.2131 39.4961 23.6821 35.9271 25.3582ZM41.0135 36.1766C38.6096 37.3071 35.7428 36.2755 34.6119 33.8691C33.4815 31.4626 34.513 28.5984 36.9195 27.4675C39.3234 26.337 42.1901 27.3686 43.3211 29.775C44.4515 32.1815 43.418 35.0462 41.0135 36.1766Z" fill="url(#paint0_linear_2340_28196)"/>
<path d="M35.9271 25.3582C32.3581 27.0368 30.824 31.29 32.5031 34.859C34.1817 38.428 38.4349 39.962 42.0039 38.2829C45.5729 36.6043 47.1069 32.3511 45.4278 28.7821C43.7488 25.2131 39.4961 23.6821 35.9271 25.3582ZM41.0135 36.1766C38.6096 37.3071 35.7428 36.2755 34.6119 33.8691C33.4815 31.4626 34.513 28.5984 36.9195 27.4675C39.3234 26.337 42.1901 27.3686 43.3211 29.775C44.4515 32.1815 43.418 35.0462 41.0135 36.1766Z" fill="#FFAE10"/>
<path d="M42.5264 35.0527C44.3159 33.0885 44.1728 30.0441 42.2071 28.255C40.2419 26.466 37.198 26.6086 35.4084 28.5728C33.6189 30.5395 33.762 33.5834 35.7277 35.3725C37.6929 37.162 40.7368 37.0194 42.5264 35.0527Z" fill="#C9C9C9"/>
<path d="M42.5264 35.0527C44.3159 33.0885 44.1728 30.0441 42.2071 28.255C40.2419 26.466 37.198 26.6086 35.4084 28.5728C33.6189 30.5395 33.762 33.5834 35.7277 35.3725C37.6929 37.162 40.7368 37.0194 42.5264 35.0527Z" fill="#F5E66C"/>
<path d="M41.2516 41.1179L44.7243 48.5004L45.7147 48.0351L42.2466 40.6481L41.2516 41.1179Z" fill="#C88503"/>
<path d="M44.965 39.3707L42.2454 40.6487L45.7135 48.0357L48.4377 46.7551L44.965 39.3707Z" fill="#E2E2E2"/>
<path d="M44.965 39.3707L42.2454 40.6487L45.7135 48.0357L48.4377 46.7551L44.965 39.3707Z" fill="#FFAE10"/>
<defs>
<linearGradient id="paint0_linear_2340_28196" x1="38.9655" y1="24.6788" x2="38.9655" y2="38.9642" gradientUnits="userSpaceOnUse">
<stop stop-color="#FFFCFC"/>
<stop offset="1" stop-color="#ECECEC"/>
</linearGradient>
</defs>
</svg>
