<svg preserveAspectRatio="none" width="100%" height="100%" overflow="visible" style="display: block;" viewBox="0 0 246.991 410.573" fill="none" xmlns="http://www.w3.org/2000/svg">
<path id="Vector" opacity="0.6" d="M171.256 0.5L171.829 0.514648C174.69 0.628688 177.495 1.36641 180.051 2.68066C182.777 4.08259 185.144 6.1025 186.969 8.58203C188.793 11.0615 190.024 13.9336 190.565 16.9736C191.107 20.0138 190.944 23.1396 190.089 26.1055L190.088 26.1084L152.356 160.141C151.688 162.459 151.56 164.902 151.985 167.277C152.41 169.653 153.376 171.898 154.806 173.834C156.236 175.77 158.092 177.346 160.229 178.438C162.231 179.46 164.429 180.031 166.669 180.111L167.117 180.121H232.258C234.77 180.116 237.239 180.783 239.413 182.056C241.587 183.328 243.388 185.16 244.632 187.365C245.875 189.57 246.517 192.069 246.49 194.606C246.464 197.144 245.77 199.629 244.481 201.808L244.48 201.81L125.699 404.622V404.624C125.429 405.09 125.131 405.538 124.81 405.97L123.763 407.116C122.658 408.226 121.313 409.062 119.834 409.557C118.35 410.053 116.771 410.194 115.224 409.967L115.202 409.965L114.656 409.894C113.387 409.696 112.161 409.27 111.037 408.635C109.753 407.909 108.63 406.924 107.738 405.742C106.846 404.56 106.203 403.205 105.851 401.762C105.498 400.319 105.443 398.818 105.687 397.353L105.689 397.341L120.392 294.525L124.3 267.296L124.299 267.295C124.622 265.137 124.483 262.935 123.89 260.836C123.296 258.736 122.261 256.789 120.855 255.127C119.45 253.465 117.708 252.127 115.745 251.204C113.782 250.281 111.645 249.794 109.479 249.777H14.5664C12.5237 249.758 10.5091 249.293 8.66016 248.416C6.811 247.539 5.1703 246.268 3.85156 244.691C2.53296 243.115 1.56712 241.27 1.01953 239.282C0.473259 237.299 0.355034 235.22 0.675781 233.188L44.873 21.9346L44.874 21.9355C46.1673 15.9138 49.4476 10.5139 54.1777 6.62012C58.76 2.84806 64.4401 0.705713 70.3389 0.512695L70.9102 0.5H171.256Z" stroke="url(#paint0_linear_0_209)"/>
<defs>
<linearGradient id="paint0_linear_0_209" x1="-93.9465" y1="107.105" x2="308.143" y2="318.255" gradientUnits="userSpaceOnUse">
<stop stop-color="white" stop-opacity="0.2"/>
<stop offset="0.235577" stop-color="white" stop-opacity="0"/>
<stop offset="0.471154" stop-color="white" stop-opacity="0.4"/>
<stop offset="0.668269" stop-color="white" stop-opacity="0"/>
<stop offset="0.79916" stop-color="white" stop-opacity="0.7"/>
<stop offset="1" stop-color="white" stop-opacity="0"/>
</linearGradient>
</defs>
</svg>
