<svg width="120" height="140" viewBox="0 0 120 140" fill="none" xmlns="http://www.w3.org/2000/svg">
<ellipse opacity="0.1" cx="61.4587" cy="134.192" rx="51.0237" ry="4.59213" fill="#0092A6"/>
<path d="M45.7264 86.3237L32.8298 107.115L40.9195 111.345L53.4606 91.511L45.7264 86.3237Z" fill="#F5BC1C"/>
<path opacity="0.6" d="M51.0178 90.2853L38.8788 110.017L40.9195 111.345L53.4607 91.511L51.0178 90.2853Z" fill="#D4AE43"/>
<path d="M32.871 105.905L41.5755 111.045L36.8358 118.673C36.8358 118.673 38.2121 121.268 38.4615 123.088C39.0091 127.085 37.7661 129.971 34.8626 132.773C31.7369 135.789 28.4332 136.775 24.1822 135.881C20.0044 135.002 17.205 132.944 15.741 128.934C14.3306 125.07 14.5833 121.509 17.4267 118.538C19.2775 116.603 23.6588 115.682 23.6588 115.682C23.6588 115.682 20.7158 115.912 19.3575 115.173C17.73 114.286 16.4586 113.5 16.167 111.674C15.8503 109.691 16.3914 108.106 18.361 106.501C20.3307 104.897 21.9391 105.378 24.7669 106.84C26.9042 107.946 28.9754 111.262 28.9754 111.262L32.871 105.905Z" fill="#F5F5F5"/>
<path opacity="0.2" d="M18.1216 132.838C19.4962 132.913 21.5412 132.979 23.0587 132.826C23.2263 132.81 23.3886 132.794 23.5463 132.778C25.4103 132.595 26.6314 132.474 28.4834 131.738C28.5405 131.715 28.5967 131.693 28.652 131.671C29.8925 131.179 30.6752 130.868 31.7279 129.973C33.532 128.438 34.4337 127.064 34.7636 124.713C35.0818 122.445 33.4263 119.004 33.4263 119.004L39.1444 109.61L41.5755 111.045L36.8358 118.673C36.8358 118.673 38.2121 121.268 38.4615 123.088C39.0091 127.085 37.7661 129.971 34.8626 132.773C31.7369 135.789 28.4332 136.775 24.1823 135.881C21.6646 135.351 19.6475 134.393 18.1216 132.838Z" fill="#CACACA"/>
<path opacity="0.2" d="M26.9574 119.07C27.8968 118.379 28.4353 116.601 28.7991 116.72C29.1628 116.839 28.993 118.595 28.4124 119.546C27.8721 120.43 27.2895 120.881 26.2838 121.132C25.4398 121.342 24.8536 121.308 24.0641 120.943C23.535 120.698 22.8492 120.143 22.8888 120.022C22.9285 119.901 24.1346 120.171 24.9057 120.01C25.7684 119.83 26.2474 119.592 26.9574 119.07Z" fill="#CACACA"/>
<path opacity="0.6" d="M25.6759 107.436C24.5677 107.323 22.6431 107.246 21.4315 107.861C20.2059 108.482 19.3171 108.957 18.8468 110.248C18.4516 111.334 18.7872 112.147 19.1828 113.107C19.3093 113.414 19.4419 113.735 19.5588 114.086C19.7029 114.517 19.9405 115.077 20.1077 115.457C19.8296 115.383 19.5735 115.29 19.3575 115.172C17.7299 114.286 16.4586 113.5 16.167 111.673C15.8503 109.691 16.3914 108.106 18.361 106.501C20.3306 104.897 21.9391 105.378 24.7668 106.84C25.0732 106.999 25.3782 107.203 25.6759 107.436Z" fill="white"/>
<path opacity="0.6" d="M24.6376 115.815C24.6376 115.815 21.2167 116.969 19.4984 118.422C18.3102 119.427 17.6048 120.058 16.9048 121.448C16.2722 122.704 16.2215 123.685 16.1594 124.887C16.139 125.28 16.1175 125.698 16.0738 126.156C15.9765 127.179 15.965 128.518 15.9747 129.53C15.8934 129.336 15.8155 129.137 15.741 128.934C14.3306 125.07 14.5833 121.509 17.4267 118.537C18.8836 117.015 21.9086 116.12 23.1301 115.808C23.9914 115.781 24.6376 115.815 24.6376 115.815Z" fill="white"/>
<path d="M77.674 86.3723L90.6701 107.101L82.6008 111.371L69.9647 91.5966L77.674 86.3723Z" fill="#F5BC1C"/>
<path opacity="0.6" d="M72.4016 90.3593L84.6351 110.033L82.6007 111.371L69.9647 91.5967L72.4016 90.3593Z" fill="#D4AE43"/>
<path d="M90.6232 105.892L81.9434 111.073L86.7196 118.679C86.7196 118.679 85.3557 121.28 85.1151 123.101C84.5867 127.101 85.8435 129.981 88.7603 132.769C91.9005 135.77 95.2089 136.74 99.4555 135.825C103.629 134.927 106.419 132.855 107.863 128.838C109.255 124.968 108.985 121.408 106.128 118.45C104.268 116.525 99.8821 115.625 99.8821 115.625C99.8821 115.625 102.826 115.841 104.181 115.094C105.804 114.2 107.072 113.408 107.355 111.58C107.662 109.596 107.113 108.014 105.136 106.419C103.158 104.823 101.552 105.313 98.7316 106.788C96.5997 107.904 94.5443 111.23 94.5443 111.23L90.6232 105.892Z" fill="#F5F5F5"/>
<path opacity="0.2" d="M105.501 132.754C104.127 132.836 102.083 132.911 100.564 132.766C100.397 132.75 100.234 132.735 100.077 132.72C98.2116 132.545 96.99 132.431 95.1345 131.704C95.0773 131.681 95.021 131.659 94.9656 131.637C93.7227 131.151 92.9385 130.844 91.8815 129.954C90.0701 128.428 89.1619 127.058 88.8207 124.709C88.4916 122.442 90.1306 118.994 90.1306 118.994L84.3675 109.626L81.9434 111.074L86.7196 118.679C86.7196 118.679 85.3557 121.28 85.1151 123.101C84.5867 127.101 85.8435 129.981 88.7603 132.769C91.9005 135.771 95.2089 136.74 99.4555 135.825C101.971 135.284 103.983 134.317 105.501 132.754Z" fill="#CACACA"/>
<path opacity="0.2" d="M96.5998 119.028C95.657 118.342 95.11 116.566 94.7468 116.687C94.3837 116.807 94.5619 118.563 95.1471 119.511C95.6916 120.393 96.2763 120.84 97.2832 121.086C98.1283 121.293 98.7143 121.256 99.502 120.887C100.03 120.64 100.713 120.082 100.673 119.961C100.633 119.84 99.4278 120.116 98.656 119.959C97.7924 119.783 97.3123 119.547 96.5998 119.028Z" fill="#CACACA"/>
<path opacity="0.6" d="M97.8254 107.388C98.9331 107.27 100.857 107.184 102.072 107.793C103.3 108.408 104.191 108.879 104.668 110.168C105.068 111.251 104.737 112.067 104.346 113.028C104.221 113.335 104.09 113.658 103.974 114.009C103.832 114.441 103.597 115.002 103.432 115.382C103.71 115.307 103.965 115.213 104.181 115.094C105.804 114.2 107.072 113.408 107.355 111.58C107.662 109.596 107.113 108.014 105.136 106.418C103.158 104.823 101.552 105.312 98.7317 106.788C98.4261 106.948 98.1221 107.153 97.8254 107.388Z" fill="white"/>
<path opacity="0.6" d="M98.9039 115.762C98.9039 115.762 102.33 116.9 104.056 118.345C105.249 119.344 105.957 119.971 106.664 121.358C107.302 122.611 107.358 123.592 107.426 124.794C107.448 125.187 107.471 125.604 107.517 126.063C107.619 127.085 107.637 128.424 107.632 129.436C107.713 129.242 107.79 129.042 107.863 128.838C109.255 124.968 108.985 121.408 106.128 118.45C104.664 116.935 101.634 116.054 100.411 115.748C99.5499 115.725 98.9039 115.762 98.9039 115.762Z" fill="white"/>
<path d="M40.1565 97.9652C41.6067 99.9537 40.8652 105.681 41.5597 108.042C42.8353 112.379 42.5558 112.384 44.1108 116.589C45.8708 121.348 55.9739 123.486 55.9739 123.486H67.1991C67.1991 123.486 74.4235 121.618 77.2762 117.864C79.6999 114.675 81.6017 111.776 82.2511 108.042C82.7613 105.108 80.9188 99.9663 82.2511 97.9652C87.5357 90.0269 91.2998 87.0327 93.2212 77.6919C95.4062 67.0695 93.8178 59.3226 87.481 50.5218C80.2692 40.5059 71.6303 36.0016 59.2904 36.2352C47.3926 36.4604 39.2258 40.7914 32.3754 50.5218C26.1551 59.3572 24.5646 67.1993 27.1455 77.6919C29.5513 87.473 34.2215 89.8268 40.1565 97.9652Z" fill="#FDC427"/>
<path opacity="0.4" d="M34.3055 54.5692C33.9772 55.3483 34.3425 56.246 35.1215 56.5743C35.9005 56.9027 36.7982 56.5374 37.1266 55.7584L34.3055 54.5692ZM38.3257 50.4718L37.1347 49.5103L38.3257 50.4718ZM42.2234 47.0021L41.394 45.7155L42.2234 47.0021ZM47.3918 46.3502C48.1922 46.0781 48.6204 45.2086 48.3483 44.4082C48.0761 43.6078 47.2067 43.1796 46.4063 43.4517L47.3918 46.3502ZM35.716 55.1638C37.1266 55.7584 37.1265 55.7585 37.1265 55.7586C37.1265 55.7586 37.1264 55.7587 37.1264 55.7587C37.1264 55.7588 37.1264 55.7588 37.1264 55.7588C37.1264 55.7587 37.1265 55.7585 37.1267 55.7581C37.127 55.7573 37.1277 55.7557 37.1286 55.7535C37.1305 55.749 37.1336 55.7417 37.1379 55.7317C37.1465 55.7118 37.1597 55.6811 37.1772 55.6408C37.2123 55.5602 37.2648 55.4414 37.3321 55.2928C37.467 54.9951 37.6602 54.5814 37.8924 54.1199C38.3707 53.1692 38.9634 52.1187 39.5167 51.4334L37.1347 49.5103C36.3657 50.4627 35.6536 51.7582 35.1576 52.744C34.9027 53.2507 34.6914 53.703 34.5436 54.0292C34.4696 54.1925 34.4111 54.3251 34.3707 54.4179C34.3504 54.4643 34.3347 54.5009 34.3237 54.5265C34.3183 54.5392 34.314 54.5493 34.3109 54.5565C34.3094 54.5601 34.3082 54.5629 34.3073 54.5651C34.3068 54.5661 34.3065 54.567 34.3062 54.5677C34.306 54.5681 34.3059 54.5684 34.3058 54.5686C34.3057 54.5687 34.3057 54.5689 34.3056 54.569C34.3056 54.5691 34.3055 54.5692 35.716 55.1638ZM39.5167 51.4334C40.6803 49.9921 41.4586 49.3164 43.0528 48.2886L41.394 45.7155C39.5518 46.9032 38.5219 47.792 37.1347 49.5103L39.5167 51.4334ZM43.0528 48.2886C43.7657 47.8291 44.8235 47.3475 45.7673 46.9637C46.2264 46.777 46.6362 46.6223 46.9306 46.5146C47.0776 46.4608 47.1951 46.4189 47.2749 46.3909C47.3147 46.3769 47.3451 46.3663 47.365 46.3594C47.3749 46.356 47.3822 46.3535 47.3867 46.352C47.3889 46.3512 47.3905 46.3507 47.3914 46.3504C47.3918 46.3502 47.392 46.3501 47.3921 46.3501C47.3922 46.3501 47.3921 46.3501 47.3921 46.3501C47.3921 46.3501 47.392 46.3501 47.392 46.3501C47.3919 46.3502 47.3918 46.3502 46.899 44.901C46.4063 43.4517 46.4062 43.4518 46.4061 43.4518C46.406 43.4519 46.4058 43.4519 46.4057 43.4519C46.4055 43.452 46.4052 43.4521 46.4049 43.4522C46.4042 43.4525 46.4034 43.4527 46.4024 43.4531C46.4003 43.4538 46.3976 43.4547 46.3941 43.4559C46.3872 43.4583 46.3774 43.4616 46.365 43.4659C46.3401 43.4745 46.3045 43.4869 46.2591 43.5029C46.1684 43.5348 46.0386 43.581 45.8784 43.6397C45.5584 43.7568 45.114 43.9245 44.614 44.1278C43.6396 44.5241 42.3597 45.093 41.394 45.7155L43.0528 48.2886Z" fill="white"/>
<path opacity="0.6" d="M41.1832 104.042C41.1076 101.693 41.0259 99.1573 40.1565 97.9651C39.879 97.5846 39.6043 97.2167 39.3324 96.8602C42.6931 98.1576 46.4073 99.3099 49.6062 99.6301C58.8471 100.555 64.8625 99.8971 73.0181 95.4601C81.1283 91.0477 84.2989 85.8808 88.9982 78.2228L89.0011 78.2181C89.1884 77.913 89.378 77.6039 89.5705 77.2907C91.3671 74.3682 92.8493 70.8381 94.0668 67.1323C94.3067 70.4009 94.0095 73.8592 93.2211 77.6918C91.7682 84.7551 89.2617 88.1894 85.8409 92.8764C84.7378 94.3878 83.5396 96.0295 82.251 97.9651C81.4883 99.1109 81.7662 101.286 82.0474 103.487C82.2574 105.131 82.4691 106.788 82.251 108.042C81.6017 111.776 79.6998 114.675 77.2762 117.864C74.4235 121.618 67.199 123.486 67.199 123.486H55.9738C55.9738 123.486 45.8708 121.348 44.1108 116.589C43.131 113.939 42.8795 112.957 42.5084 111.508C42.2905 110.658 42.0315 109.647 41.5596 108.042C41.2815 107.097 41.2337 105.611 41.1832 104.042Z" fill="#D4AE43"/>
<ellipse opacity="0.2" cx="41.8147" cy="82.9219" rx="6.12284" ry="6.12284" fill="#FF5E5E"/>
<ellipse opacity="0.2" cx="81.6132" cy="80.8809" rx="6.12284" ry="6.12284" fill="#FF5E5E"/>
<path d="M56.0454 88.9738C56.0454 88.9738 56.7424 87.3559 60.2274 87.2305C63.7123 87.1051 64.8952 88.8538 64.8952 88.8538" stroke="#333333" stroke-width="3.06142" stroke-linecap="round"/>
<ellipse cx="46.8871" cy="69.6324" rx="9.18427" ry="8.91413" fill="#333333"/>
<path d="M56.0548 70.1726C55.767 74.8442 51.7725 78.5465 46.8871 78.5465C42.0017 78.5465 38.0071 74.8442 37.7194 70.1726C37.7084 70.3513 37.7028 70.5315 37.7028 70.7129C37.7028 75.636 41.8148 79.627 46.8871 79.627C51.9594 79.627 56.0714 75.636 56.0714 70.7129C56.0714 70.5315 56.0658 70.3513 56.0548 70.1726Z" fill="white" fill-opacity="0.6"/>
<ellipse cx="4.55152" cy="3.78175" rx="4.55152" ry="3.78175" transform="matrix(0.844625 -0.535359 0.53536 0.844624 39.051 66.3208)" fill="white"/>
<ellipse cx="1.89088" cy="1.29009" rx="1.89088" ry="1.29009" transform="matrix(0.796776 -0.604275 0.604276 0.796775 46.617 71.9177)" fill="white"/>
<ellipse cx="74.1848" cy="69.6324" rx="9.18427" ry="8.91413" fill="#333333"/>
<ellipse cx="4.55152" cy="3.78175" rx="4.55152" ry="3.78175" transform="matrix(0.844625 -0.535359 0.53536 0.844624 66.3487 66.3208)" fill="white"/>
<ellipse cx="1.89088" cy="1.29009" rx="1.89088" ry="1.29009" transform="matrix(0.796776 -0.604275 0.604276 0.796775 73.9146 71.9177)" fill="white"/>
<path d="M83.3524 70.1726C83.0647 74.8442 79.0702 78.5465 74.1848 78.5465C69.2993 78.5465 65.3048 74.8442 65.0171 70.1726C65.0061 70.3513 65.0005 70.5315 65.0005 70.7129C65.0005 75.636 69.1124 79.627 74.1848 79.627C79.2571 79.627 83.369 75.636 83.369 70.7129C83.369 70.5315 83.3634 70.3513 83.3524 70.1726Z" fill="white" fill-opacity="0.6"/>
<path opacity="0.2" d="M27.305 78.2897C28.2585 73.3925 30.5256 63.8572 34.5439 58.3035C38.4096 52.9607 40.8094 49.4577 46.5345 46.1848C51.7313 43.2139 55.3125 42.9091 61.2038 41.8478C66.7377 40.8508 77.2069 43.8239 82.5062 44.5283C76.8936 40.0619 72.1739 36.234 59.2904 36.2358C47.3926 36.461 39.2258 40.7921 32.3754 50.5225C26.1551 59.3578 24.5646 67.1999 27.1455 77.6926C27.1943 77.8912 27.2476 78.0902 27.305 78.2897Z" fill="#FFFBEE"/>
<path d="M61.0968 107.145C53.2379 107.111 41.0626 105.364 41.0626 105.364C41.0626 105.364 40.981 110.762 41.9423 115.568C42.7077 119.395 44.5459 122.295 48.7029 125.645C52.815 128.96 56.8155 131.451 62.0967 131.386C67.2429 131.322 71.0498 128.968 74.9801 125.645C79.2522 122.034 79.955 120.033 80.9754 115.568C82.0701 110.779 82.5126 105.364 82.5126 105.364C82.5126 105.364 69.3585 107.181 61.0968 107.145Z" fill="#00A2B9"/>
<path opacity="0.6" d="M81.8028 111.171C79.3512 115.283 75.7148 120.662 72.4988 122.56C67.2966 125.629 65.4314 125.689 59.2991 125.66C55.1651 125.641 49.8941 124.369 46.0563 123.254C46.8126 124.037 47.6888 124.828 48.7029 125.645C52.815 128.96 56.8155 131.451 62.0967 131.386C67.2429 131.322 71.0498 128.968 74.9801 125.645C79.2522 122.034 79.955 120.033 80.9754 115.568C81.3102 114.104 81.584 112.58 81.8028 111.171Z" fill="#00879A" stroke="#00A2B9" stroke-width="0.255118"/>
<path d="M36.4273 58.8147C36.4273 58.8147 38.8815 59.6398 42.5191 57.5171C46.1568 55.3944 47.119 52.7678 47.119 52.7678" stroke="#333333" stroke-width="2.55118" stroke-linecap="round"/>
<path d="M84.0361 57.7943C84.0361 57.7943 81.5819 58.6193 77.9442 56.4966C74.3065 54.3739 73.3444 51.7473 73.3444 51.7473" stroke="#333333" stroke-width="2.55118" stroke-linecap="round"/>
<rect opacity="0.4" x="56.8665" width="6.12284" height="30.6142" rx="3.06142" fill="#D9D9D9"/>
<rect opacity="0.4" width="6.12284" height="30.6142" rx="3.06142" transform="matrix(0.842366 -0.538905 0.538906 0.842366 17.6171 13.3906)" fill="#D9D9D9"/>
<rect opacity="0.4" x="41.3043" y="18.4324" width="5.10237" height="14.2866" rx="2.55118" transform="rotate(-15.2186 41.3043 18.4324)" fill="#D9D9D9"/>
<rect opacity="0.4" width="5.10237" height="14.2866" rx="2.55118" transform="matrix(0.545309 -0.838235 0.838236 0.545308 14.9821 38.7668)" fill="#D9D9D9"/>
<rect opacity="0.4" x="0.965759" y="51.1333" width="6.12284" height="22.7055" rx="3.06142" transform="rotate(-76.5005 0.965759 51.1333)" fill="#D9D9D9"/>
<rect opacity="0.4" width="6.12284" height="30.6142" rx="3.06142" transform="matrix(-0.842366 -0.538905 -0.538906 0.842366 102.519 13.4949)" fill="#D9D9D9"/>
<rect opacity="0.4" width="5.10237" height="14.2866" rx="2.55118" transform="matrix(-0.964931 -0.262502 -0.262502 0.964931 78.8064 18.4324)" fill="#D9D9D9"/>
<rect opacity="0.4" width="5.10237" height="14.2866" rx="2.55118" transform="matrix(-0.545309 -0.838235 -0.838236 0.545308 105.129 38.7668)" fill="#D9D9D9"/>
<rect opacity="0.4" width="6.12284" height="22.7055" rx="3.06142" transform="matrix(-0.233437 -0.972372 -0.972372 0.233436 119.145 51.1333)" fill="#D9D9D9"/>
</svg>
