<svg width="44" height="44" viewBox="0 0 44 44" fill="none" xmlns="http://www.w3.org/2000/svg">
<path d="M34.0262 13.75C33.3689 13.75 32.8524 13.3331 32.8524 12.8025C32.8524 7.87539 27.8756 3.82002 21.725 3.82002C15.6213 3.82002 10.5976 7.83749 10.5976 12.8025C10.5976 13.3331 10.0811 13.75 9.42378 13.75C8.76646 13.75 8.25 13.3331 8.25 12.8025C8.25 6.81417 14.3067 1.92499 21.725 1.92499C29.1433 1.92499 35.2 6.81417 35.2 12.8025C35.2 13.3331 34.6835 13.75 34.0262 13.75Z" fill="#00A2B9"/>
<path d="M33.5878 19.8022C33.5878 20.7607 34.3875 21.5658 35.3395 21.5658H35.3776C36.3296 21.5658 37.1293 20.7607 37.1293 19.8022V15.9298C37.1293 14.9713 36.3296 14.1662 35.3776 14.1662H35.3395C34.3875 14.1662 33.5878 14.9713 33.5878 15.9298V19.8022Z" fill="#25262B"/>
<path d="M31.4172 20.4922C31.4172 21.3741 32.1407 22.1025 33.0166 22.1025H34.5017C35.3775 22.1025 36.1011 21.3741 36.1011 20.4922V14.2812C36.1011 13.3994 35.3775 12.6709 34.5017 12.6709H33.0166C32.1407 12.6709 31.4172 13.3994 31.4172 14.2812V20.4922Z" fill="#00A2B9"/>
<path d="M34.5017 12.6709H33.0166C32.1407 12.6709 31.4172 13.3994 31.4172 14.2812V20.4922C31.4172 21.3741 32.1407 22.1025 33.0166 22.1025H34.5017" fill="#25262B"/>
<ellipse opacity="0.1" cx="22" cy="40.15" rx="17.875" ry="1.65" fill="#0092A6"/>
<path d="M18.6561 27.2428L11.341 22.8152L9.90449 25.677L16.8842 29.9845L18.6561 27.2428Z" fill="#F5BC1C"/>
<path opacity="0.6" d="M17.2998 29.1205L10.3578 24.9538L9.90444 25.677L16.8842 29.9845L17.2998 29.1205Z" fill="#D4AE43"/>
<path d="M11.763 22.8238L10.0125 25.9059L7.32852 24.2787C7.32852 24.2787 6.43028 24.7747 5.79659 24.8712C4.40476 25.0831 3.39216 24.6607 2.40064 23.6547C1.33321 22.5717 0.973521 21.4162 1.26473 19.9189C1.55094 18.4473 2.25512 17.4541 3.64695 16.9203C4.98782 16.4061 6.23114 16.4774 7.28159 17.4615C7.9653 18.102 8.30789 19.6363 8.30789 19.6363C8.30789 19.6363 8.21332 18.6038 8.46476 18.1231C8.76603 17.5472 9.03421 17.0969 9.66976 16.9855C10.3599 16.8646 10.9153 17.0469 11.4846 17.7308C12.054 18.4146 11.8938 18.9819 11.3975 19.9822C11.0224 20.7382 9.87561 21.4818 9.87561 21.4818L11.763 22.8238Z" fill="#F5F5F5"/>
<path opacity="0.2" d="M2.29644 17.7755C2.27692 18.2586 2.26403 18.9771 2.32457 19.5093C2.33126 19.5681 2.33762 19.625 2.3438 19.6803C2.41687 20.3341 2.46473 20.7623 2.73056 21.4091C2.73876 21.4291 2.74681 21.4487 2.75473 21.468C2.93247 21.9013 3.04462 22.1747 3.3621 22.54C3.90618 23.1661 4.39 23.476 5.2116 23.5804C6.00424 23.6811 7.19643 23.0828 7.19643 23.0828L10.5013 25.0451L10.0124 25.9059L7.32844 24.2786C7.32844 24.2786 6.43019 24.7747 5.79651 24.8711C4.40468 25.083 3.39208 24.6606 2.40055 23.6546C1.33312 22.5716 0.973435 21.4161 1.26464 19.9188C1.43712 19.032 1.76138 18.319 2.29644 17.7755Z" fill="#CACACA"/>
<path opacity="0.2" d="M7.14205 20.8113C7.38761 21.1378 8.01061 21.3183 7.97092 21.4466C7.93122 21.5749 7.31768 21.5239 6.98327 21.3246C6.67206 21.1392 6.51223 20.9368 6.41976 20.5848C6.34216 20.2894 6.35111 20.0834 6.47475 19.8043C6.55762 19.6173 6.74777 19.3737 6.79025 19.3871C6.83274 19.4004 6.74435 19.8253 6.80421 20.0953C6.87119 20.3974 6.95646 20.5645 7.14205 20.8113Z" fill="#CACACA"/>
<path opacity="0.6" d="M11.1942 20.3043C11.228 19.9145 11.2455 19.2383 11.0253 18.8158C10.8026 18.3883 10.6325 18.0785 10.1798 17.9197C9.79936 17.7862 9.51714 17.908 9.18434 18.0517C9.07795 18.0976 8.96639 18.1457 8.8448 18.1885C8.6949 18.2412 8.50067 18.3274 8.36922 18.388C8.39348 18.29 8.42472 18.1996 8.46471 18.1231C8.76598 17.5472 9.03416 17.0968 9.66971 16.9855C10.3599 16.8646 10.9153 17.0468 11.4846 17.7307C12.0539 18.4146 11.8938 18.9818 11.3975 19.9821C11.3437 20.0905 11.2741 20.1986 11.1942 20.3043Z" fill="white"/>
<path opacity="0.6" d="M8.26632 19.9807C8.26632 19.9807 7.84714 18.7849 7.33182 18.1885C6.97546 17.7761 6.75207 17.5315 6.26381 17.2925C5.82249 17.0764 5.48015 17.0634 5.06053 17.0475C4.92314 17.0423 4.77746 17.0367 4.6173 17.0236C4.26018 16.9945 3.79279 16.997 3.43991 17.0053C3.50716 16.9758 3.57615 16.9475 3.64692 16.9203C4.98779 16.4061 6.23111 16.4774 7.28156 17.4615C7.81977 17.9657 8.1466 19.0237 8.26133 19.4512C8.27502 19.7536 8.26632 19.9807 8.26632 19.9807Z" fill="white"/>
<path d="M25.3439 27.2428L32.659 22.8152L34.0955 25.677L27.1158 29.9845L25.3439 27.2428Z" fill="#F5BC1C"/>
<path opacity="0.6" d="M26.7002 29.1205L33.6422 24.9538L34.0956 25.677L27.1158 29.9845L26.7002 29.1205Z" fill="#D4AE43"/>
<path d="M14.5516 27.4628C15.0575 28.1613 14.7988 30.173 15.0411 31.0023C15.4861 32.5256 15.3886 32.5272 15.9311 34.0041C16.5451 35.6758 20.0696 36.4266 20.0696 36.4266H23.9856C23.9856 36.4266 26.5059 35.7706 27.5011 34.4522C28.3466 33.3321 29.0101 32.3137 29.2366 31.0023C29.4146 29.9718 28.7719 28.1657 29.2366 27.4628C31.0802 24.6746 32.3933 23.623 33.0636 20.3421C33.8259 16.6112 33.2718 13.8902 31.0611 10.799C28.5452 7.28106 25.5315 5.69901 21.2266 5.78104C17.0759 5.86014 14.2269 7.38136 11.837 10.799C9.66703 13.9023 9.11219 16.6567 10.0125 20.3421C10.8518 23.7776 12.4811 24.6044 14.5516 27.4628Z" fill="#FDC427"/>
<path opacity="0.4" d="M7.46792 10.1123C6.18821 13.169 7.62869 16.6843 10.6853 17.964C13.742 19.2437 17.2573 17.8032 18.537 14.7466L7.46792 10.1123ZM13.9128 10.7815L18.5937 14.535H18.5937L13.9128 10.7815ZM15.2726 9.56275L12.006 4.52994L12.006 4.52994L15.2726 9.56275ZM18.847 14.5014C21.9821 13.4282 23.6536 10.0167 22.5803 6.88155C21.5071 3.74644 18.0956 2.07495 14.9605 3.14816L18.847 14.5014ZM13.0024 12.4294C18.537 14.7466 18.5368 14.747 18.5366 14.7475C18.5365 14.7476 18.5363 14.7481 18.5362 14.7484C18.5359 14.749 18.5357 14.7496 18.5355 14.7502C18.535 14.7513 18.5345 14.7524 18.5341 14.7534C18.5332 14.7555 18.5325 14.7573 18.5318 14.7589C18.5304 14.7621 18.5294 14.7645 18.5288 14.7659C18.5275 14.7689 18.5276 14.7686 18.529 14.7654C18.5319 14.7588 18.5395 14.7413 18.5511 14.7155C18.5754 14.6615 18.611 14.5849 18.6519 14.5031C18.7877 14.2313 18.7831 14.2989 18.5937 14.535L9.23193 7.02791C8.58135 7.83922 8.12148 8.73086 7.91743 9.13922C7.78834 9.39756 7.68283 9.62505 7.60851 9.79018C7.57081 9.87393 7.53975 9.94472 7.51624 9.99904C7.50445 10.0263 7.49447 10.0496 7.4864 10.0686C7.48236 10.0781 7.47879 10.0865 7.47571 10.0938C7.47417 10.0974 7.47275 10.1008 7.47145 10.1039C7.4708 10.1055 7.47018 10.1069 7.46959 10.1083C7.4693 10.109 7.46901 10.1097 7.46873 10.1104C7.46859 10.1107 7.46839 10.1112 7.46832 10.1114C7.46812 10.1118 7.46792 10.1123 13.0024 12.4294ZM18.5937 14.535C18.6409 14.4762 18.6517 14.466 18.6357 14.4833C18.6272 14.4925 18.6128 14.5077 18.5931 14.5271C18.5733 14.5466 18.5512 14.5674 18.5276 14.5885C18.504 14.6095 18.4825 14.6276 18.4646 14.6421C18.4469 14.6563 18.4353 14.665 18.4321 14.6673C18.4282 14.6703 18.4554 14.65 18.5392 14.5956L12.006 4.52994C10.92 5.23484 10.1128 5.92946 9.23193 7.02791L18.5937 14.535ZM18.5392 14.5956C18.3358 14.7276 18.3074 14.716 18.5811 14.6039C18.6682 14.5682 18.7489 14.5375 18.8059 14.5165C18.8333 14.5064 18.8523 14.4996 18.8605 14.4967C18.8645 14.4953 18.8657 14.4949 18.8636 14.4957C18.8625 14.496 18.8606 14.4967 18.8579 14.4976C18.8565 14.4981 18.8549 14.4986 18.8531 14.4993C18.8522 14.4996 18.8512 14.4999 18.8502 14.5003C18.8497 14.5004 18.8492 14.5006 18.8486 14.5008C18.8483 14.5009 18.8479 14.501 18.8478 14.5011C18.8474 14.5012 18.847 14.5014 16.9037 8.82477C14.9605 3.14816 14.9601 3.14831 14.9596 3.14846C14.9595 3.14851 14.9591 3.14866 14.9588 3.14876C14.9582 3.14897 14.9575 3.14918 14.9569 3.1494C14.9556 3.14984 14.9543 3.1503 14.9529 3.15078C14.95 3.15176 14.9469 3.15282 14.9436 3.15399C14.9368 3.15631 14.929 3.15902 14.9201 3.1621C14.9024 3.16826 14.8805 3.17594 14.8548 3.18504C14.8035 3.2032 14.7363 3.22733 14.6566 3.25673C14.4991 3.31474 14.2819 3.39727 14.0344 3.4986C13.6389 3.6605 12.795 4.01785 12.006 4.52994L18.5392 14.5956Z" fill="white"/>
<path opacity="0.6" d="M14.9097 29.5974C14.8833 28.7724 14.8548 27.8816 14.5515 27.4628C14.4547 27.3292 14.3589 27.2 14.264 27.0747C15.4364 27.5304 16.7322 27.9352 17.8481 28.0476C21.0719 28.3725 23.1704 28.1414 26.0156 26.583C28.8449 25.0332 29.951 23.2184 31.5904 20.5286L31.5914 20.527C31.6567 20.4198 31.7229 20.3112 31.7901 20.2012C32.4168 19.1747 32.9339 17.9349 33.3586 16.6332C33.4423 17.7813 33.3387 18.996 33.0636 20.3421C32.5568 22.823 31.6823 24.0292 30.4889 25.6755C30.1041 26.2064 29.6861 26.783 29.2366 27.4628C28.9705 27.8653 29.0675 28.6293 29.1656 29.4024C29.2388 29.9796 29.3127 30.5618 29.2366 31.0023C29.0101 32.3137 28.3466 33.3321 27.5011 34.4522C26.5059 35.7705 23.9856 36.4265 23.9856 36.4265H20.0696C20.0696 36.4265 16.545 35.6758 15.931 34.0041C15.5892 33.0735 15.5015 32.7286 15.372 32.2197C15.296 31.921 15.2056 31.5658 15.041 31.0023C14.944 30.6702 14.9273 30.1485 14.9097 29.5974Z" fill="#D4AE43"/>
<ellipse opacity="0.2" cx="2.15427" cy="2.13082" rx="2.15427" ry="2.13082" transform="matrix(0.995623 0.0935602 -0.0776156 0.996991 13.3248 16.7997)" fill="#FF5E5E"/>
<ellipse opacity="0.2" cx="2.15427" cy="2.13082" rx="2.15427" ry="2.13082" transform="matrix(0.995623 0.0935602 -0.0776156 0.996991 26.319 16.9789)" fill="#FF5E5E"/>
<path d="M21.6615 22.1801C20.3156 22.1909 18.77 20.7463 18.374 21.2332C17.978 21.7201 18.37 23.5146 19.3628 24.3618C20.0909 24.9831 20.7445 25.1259 21.6957 25.1236C22.5507 25.1215 23.1158 25.017 23.7692 24.4984C24.7793 23.6968 25.0557 21.6869 24.6753 21.3412C24.2949 20.9956 22.9071 22.1701 21.6615 22.1801Z" fill="#333333"/>
<path d="M24.3629 23.7468C23.7146 23.4766 22.5754 23.0534 21.5927 22.9554C20.548 22.8512 19.2868 23.2283 18.6431 23.4558C18.8258 23.8068 19.0648 24.1335 19.3556 24.3793C20.0814 24.9931 20.7328 25.1341 21.6809 25.1317C22.5331 25.1295 23.0962 25.0262 23.7474 24.5137C23.9972 24.3171 24.202 24.0471 24.3629 23.7468Z" fill="#FF5E5E"/>
<path opacity="0.2" d="M10.0682 20.5521C10.4008 18.832 11.1917 15.4829 12.5935 13.5322C13.9421 11.6556 14.7793 10.4252 16.7766 9.27567C18.5895 8.23219 19.8389 8.12514 21.8941 7.75236C23.8246 7.40219 27.4769 8.44647 29.3256 8.69387C27.3676 7.12511 25.7211 5.78061 21.2266 5.78125C17.0759 5.86034 14.2269 7.38157 11.837 10.7992C9.66703 13.9025 9.11219 16.657 10.0125 20.3423C10.0296 20.4121 10.0482 20.482 10.0682 20.5521Z" fill="#FFFBEE"/>
<path d="M21.8568 30.6873C19.1151 30.6753 14.8677 30.0615 14.8677 30.0615C14.8677 30.0615 14.8392 31.9574 15.1746 33.6457C15.4416 34.9898 16.0829 36.0083 17.5331 37.1852C18.9676 38.3494 20.3632 39.2242 22.2056 39.2013C24.0009 39.1791 25.329 38.3522 26.7001 37.1852C28.1905 35.9167 28.4356 35.2138 28.7916 33.6457C29.1735 31.9636 29.3279 30.0615 29.3279 30.0615C29.3279 30.0615 24.739 30.6999 21.8568 30.6873Z" fill="#00A2B9"/>
<path opacity="0.6" d="M29.0802 32.1013C28.225 33.5457 26.9564 35.4349 25.8344 36.1014C24.0196 37.1794 23.3689 37.2004 21.2296 37.1904C19.7874 37.1836 17.9486 36.7369 16.6097 36.3451C16.8736 36.6204 17.1792 36.8981 17.533 37.1852C18.9676 38.3494 20.3632 39.2242 22.2056 39.2014C24.0009 39.1791 25.3289 38.3522 26.7001 37.1852C28.1904 35.9167 28.4356 35.2139 28.7916 33.6458C28.9084 33.1313 29.0039 32.5962 29.0802 32.1013Z" fill="#00879A" stroke="#00A2B9"/>
<path d="M9.86046 19.8022C9.86046 20.7607 9.06077 21.5658 8.10875 21.5658H8.07067C7.11866 21.5658 6.31897 20.7607 6.31897 19.8022V15.9298C6.31897 14.9713 7.11866 14.1662 8.07067 14.1662H8.10875C9.06077 14.1662 9.86046 14.9713 9.86046 15.9298V19.8022Z" fill="#25262B"/>
<path d="M12.0311 20.4922C12.0311 21.3741 11.3075 22.1025 10.4317 22.1025H8.94655C8.0707 22.1025 7.34717 21.3741 7.34717 20.4922V14.2812C7.34717 13.3994 8.0707 12.6709 8.94655 12.6709H10.4317C11.3075 12.6709 12.0311 13.3994 12.0311 14.2812V20.4922Z" fill="#00A2B9"/>
<path d="M8.94653 12.6709H10.4317C11.3075 12.6709 12.0311 13.3994 12.0311 14.2812V20.4922C12.0311 21.3741 11.3075 22.1025 10.4317 22.1025H8.94653" fill="#25262B"/>
<path d="M11.1688 22.9001L8.98901 20.832V22.0417L10.8009 23.7699C12.3688 25.2654 14.38 26.2112 16.5319 26.465L18.1561 26.6565V25.7156L16.972 25.587C14.7957 25.3507 12.757 24.4068 11.1688 22.9001Z" fill="#25262B"/>
<path d="M32.237 22.8238L33.9875 25.9059L36.6715 24.2787C36.6715 24.2787 37.5697 24.7747 38.2034 24.8712C39.5952 25.0831 40.6078 24.6607 41.5994 23.6547C42.6668 22.5717 43.0265 21.4162 42.7353 19.9189C42.4491 18.4473 41.7449 17.4541 40.3531 16.9203C39.0122 16.4061 37.7689 16.4774 36.7184 17.4615C36.0347 18.102 35.6921 19.6363 35.6921 19.6363C35.6921 19.6363 35.7867 18.6038 35.5352 18.1231C35.234 17.5472 34.9658 17.0969 34.3302 16.9855C33.6401 16.8646 33.0847 17.0469 32.5154 17.7308C31.946 18.4146 32.1062 18.9819 32.6025 19.9822C32.9776 20.7382 34.1244 21.4819 34.1244 21.4819L32.237 22.8238Z" fill="#F5F5F5"/>
<path opacity="0.2" d="M41.7036 17.7755C41.7231 18.2586 41.736 18.9772 41.6754 19.5094C41.6687 19.5682 41.6624 19.6251 41.6562 19.6804C41.5831 20.3341 41.5353 20.7624 41.2694 21.4092C41.2612 21.4292 41.2532 21.4488 41.2453 21.4681C41.0675 21.9013 40.9554 22.1747 40.6379 22.5401C40.0938 23.1661 39.61 23.4761 38.7884 23.5804C37.9958 23.6811 36.8036 23.0829 36.8036 23.0829L33.4987 25.0451L33.9876 25.9059L36.6716 24.2787C36.6716 24.2787 37.5698 24.7747 38.2035 24.8712C39.5953 25.0831 40.6079 24.6606 41.5995 23.6547C42.6669 22.5717 43.0266 21.4162 42.7354 19.9189C42.5629 19.0321 42.2386 18.319 41.7036 17.7755Z" fill="#CACACA"/>
<path opacity="0.2" d="M36.858 20.8113C36.6124 21.1378 35.9894 21.3183 36.0291 21.4466C36.0688 21.5749 36.6823 21.5239 37.0167 21.3246C37.3279 21.1392 37.4878 20.9368 37.5802 20.5848C37.6578 20.2894 37.6489 20.0834 37.5252 19.8043C37.4424 19.6173 37.2522 19.3737 37.2097 19.3871C37.1673 19.4004 37.2556 19.8253 37.1958 20.0953C37.1288 20.3974 37.0435 20.5645 36.858 20.8113Z" fill="#CACACA"/>
<path opacity="0.6" d="M32.8058 20.3043C32.772 19.9145 32.7545 19.2383 32.9747 18.8158C33.1974 18.3883 33.3675 18.0785 33.8202 17.9197C34.2006 17.7862 34.4829 17.908 34.8157 18.0517C34.9221 18.0976 35.0336 18.1457 35.1552 18.1885C35.3051 18.2412 35.4993 18.3274 35.6308 18.388C35.6065 18.29 35.5753 18.1996 35.5353 18.1231C35.234 17.5472 34.9658 17.0968 34.3303 16.9855C33.6401 16.8646 33.0847 17.0468 32.5154 17.7307C31.9461 18.4146 32.1062 18.9818 32.6025 19.9821C32.6563 20.0905 32.7259 20.1986 32.8058 20.3043Z" fill="white"/>
<path opacity="0.6" d="M35.7337 19.9807C35.7337 19.9807 36.1529 18.7849 36.6682 18.1885C37.0245 17.7761 37.2479 17.5315 37.7362 17.2925C38.1775 17.0764 38.5199 17.0634 38.9395 17.0475C39.0769 17.0423 39.2225 17.0367 39.3827 17.0236C39.7398 16.9945 40.2072 16.997 40.5601 17.0053C40.4928 16.9758 40.4239 16.9475 40.3531 16.9203C39.0122 16.4061 37.7689 16.4774 36.7184 17.4615C36.1802 17.9657 35.8534 19.0237 35.7387 19.4512C35.725 19.7536 35.7337 19.9807 35.7337 19.9807Z" fill="white"/>
<ellipse cx="17.6565" cy="13.5739" rx="3.56005" ry="3.5843" fill="#333333"/>
<ellipse cx="1.7834" cy="1.50514" rx="1.7834" ry="1.50514" transform="matrix(0.835569 -0.549386 0.521405 0.85331 14.619 12.2424)" fill="white"/>
<ellipse cx="0.743057" cy="0.512" rx="0.743057" ry="0.512" transform="matrix(0.785939 -0.618304 0.590198 0.807259 17.5518 14.4927)" fill="white"/>
<ellipse cx="25.7757" cy="13.5739" rx="3.56005" ry="3.5843" fill="#333333"/>
<ellipse cx="1.7834" cy="1.50514" rx="1.7834" ry="1.50514" transform="matrix(0.835569 -0.549386 0.521404 0.85331 22.7383 12.2424)" fill="white"/>
<ellipse cx="0.743057" cy="0.512" rx="0.743057" ry="0.512" transform="matrix(0.785939 -0.618304 0.590198 0.807259 25.671 14.4927)" fill="white"/>
<rect x="17.6" y="25.025" width="3.025" height="1.925" rx="0.962501" fill="#25262B"/>
</svg>
