<svg width="160" height="160" viewBox="0 0 160 160" fill="none" xmlns="http://www.w3.org/2000/svg">
<ellipse opacity="0.1" cx="88.3835" cy="144.768" rx="67.2248" ry="6.05024" fill="#0092A6"/>
<path d="M141.111 53.4969L150.802 43.8128C152.209 42.4052 153 40.4961 153 38.5055C153 36.5149 152.209 34.6059 150.802 33.1983C149.394 31.7908 147.485 31 145.494 31C143.504 31 141.595 31.7908 140.187 33.1983L130.497 42.8824L120.813 33.2108C119.405 31.8032 117.496 31.0125 115.506 31.0125C113.515 31.0125 111.606 31.8032 110.198 33.2108C108.791 34.6184 108 36.5274 108 38.518C108 40.5086 108.791 42.4177 110.198 43.8253L119.882 53.4969L110.211 63.181C108.803 64.5886 108.012 66.4976 108.012 68.4882C108.012 70.4788 108.803 72.3879 110.211 73.7954C111.618 75.203 113.527 75.9938 115.518 75.9938C117.509 75.9938 119.418 75.203 120.825 73.7954L130.497 64.1113L140.181 73.8017C140.878 74.4986 141.705 75.0515 142.616 75.4287C143.527 75.8059 144.503 76 145.488 76C146.474 76 147.45 75.8059 148.36 75.4287C149.271 75.0515 150.098 74.4986 150.795 73.8017C151.492 73.1047 152.045 72.2773 152.422 71.3667C152.8 70.4561 152.994 69.4801 152.994 68.4945C152.994 67.5088 152.8 66.5328 152.422 65.6222C152.045 64.7116 151.492 63.8842 150.795 63.1872L141.111 53.4969Z" fill="#DD5275"/>
<path d="M106.508 108.665C106.508 110.116 106.078 111.534 105.272 112.74C104.466 113.946 103.321 114.887 101.981 115.442C100.64 115.997 99.1657 116.142 97.743 115.859C96.3202 115.576 95.0133 114.878 93.9875 113.852C92.9618 112.826 92.2632 111.519 91.9802 110.096C91.6972 108.674 91.8424 107.199 92.3976 105.859C92.9527 104.518 93.8928 103.373 95.099 102.567C96.3052 101.761 97.7232 101.331 99.1739 101.331C101.119 101.331 102.985 102.104 104.36 103.479C105.736 104.855 106.508 106.72 106.508 108.665ZM120.765 86.3407C114.496 81.7797 106.943 79.3227 99.1899 79.3227C91.4372 79.3227 83.8839 81.7797 77.6147 86.3407C76.4354 87.1997 75.6456 88.4919 75.4191 89.9332C75.1926 91.3745 75.5478 92.8467 76.4068 94.026C77.2658 95.2053 78.558 95.9951 79.9993 96.2216C81.4406 96.4482 82.9128 96.0929 84.0921 95.2339C88.4796 92.0434 93.765 90.3248 99.1899 90.3248C104.615 90.3248 109.9 92.0434 114.288 95.2339C115.467 96.0929 116.939 96.4482 118.381 96.2216C119.822 95.9951 121.114 95.2053 121.973 94.026C122.832 92.8467 123.187 91.3745 122.961 89.9332C122.734 88.4919 121.944 87.1997 120.765 86.3407ZM104.675 40.8203C104.675 39.3613 104.095 37.9622 103.064 36.9305C102.032 35.8989 100.633 35.3193 99.1739 35.3193C80.5188 35.3289 62.4417 41.793 48.0104 53.6146C47.4521 54.073 46.9895 54.6369 46.649 55.2741C46.3086 55.9113 46.097 56.6093 46.0264 57.3283C45.9557 58.0473 46.0274 58.7731 46.2372 59.4644C46.4471 60.1557 46.791 60.7988 47.2494 61.3572C47.7079 61.9156 48.2718 62.3781 48.909 62.7186C49.5462 63.059 50.2442 63.2706 50.9631 63.3412C51.6821 63.4119 52.4079 63.3402 53.0992 63.1304C53.7905 62.9205 54.4337 62.5766 54.992 62.1182C67.4548 51.9112 83.0648 46.3299 99.1739 46.3212C100.633 46.3212 102.032 45.7417 103.064 44.7101C104.095 43.6784 104.675 42.2792 104.675 40.8203ZM104.675 62.8241C104.675 61.3652 104.095 59.966 103.064 58.9344C102.032 57.9027 100.633 57.3232 99.1739 57.3232C85.9446 57.2742 73.0953 61.7443 62.753 69.9937C61.6381 70.9088 60.9272 72.2252 60.7734 73.6594C60.6197 75.0936 61.0354 76.5308 61.931 77.6614C62.8267 78.7921 64.1305 79.5257 65.5618 79.7043C66.9931 79.883 68.4373 79.4923 69.5833 78.6164C77.9863 71.915 88.4259 68.2842 99.1739 68.3251C100.633 68.3251 102.032 67.7455 103.064 66.7139C104.095 65.6823 104.675 64.2831 104.675 62.8241Z" fill="#00879A"/>
<path d="M60.1761 119.317L72.5294 103.677L77.8426 108.756L66.1198 123.86L60.1761 119.317Z" fill="#F5BC1C"/>
<path opacity="0.6" d="M63.7391 123.006L76.3052 107.547L77.8428 108.757C77.8428 108.757 66.7041 123.236 66.189 123.778C65.6738 124.32 64.9962 124.619 64.9962 124.619L63.7391 123.006Z" fill="#D4AE43"/>
<path d="M71.6257 104.04L77.7868 109.344L82.3173 103.6C82.3173 103.6 84.6388 103.951 86.0803 103.645C89.2466 102.972 91.104 101.223 92.4644 98.2166C93.9289 94.98 93.8106 92.1625 92.0238 89.1294C90.2677 86.1484 87.9801 84.5534 84.5647 84.5229C81.2744 84.4936 78.6476 85.6637 77.1432 88.6704C76.164 90.6273 76.6122 94.2582 76.6122 94.2582C76.6122 94.2582 76.0173 91.9257 75.103 91.0809C74.0074 90.0687 73.0805 89.3037 71.6233 89.579C70.041 89.8779 68.984 90.7292 68.2851 92.6876C67.5862 94.646 68.3706 95.7544 70.2153 97.5345C71.6095 98.8799 74.6587 99.5688 74.6587 99.5688L71.6257 104.04Z" fill="#F5F5F5"/>
<path opacity="0.2" d="M88.1398 85.2894C88.5557 86.3288 89.1395 87.8878 89.4208 89.0997C89.4519 89.2336 89.4822 89.3631 89.5116 89.489C89.8599 90.9767 90.0881 91.9512 90.0152 93.581C90.0129 93.6313 90.0107 93.6807 90.0086 93.7293C89.9605 94.8208 89.9301 95.5094 89.528 96.5665C88.8388 98.378 88.035 99.4497 86.3435 100.348C84.7116 101.215 81.6769 100.88 81.6769 100.88L76.0663 107.863L77.7871 109.345L82.3175 103.6C82.3175 103.6 84.639 103.951 86.0806 103.645C89.2469 102.972 91.1043 101.223 92.4646 98.2167C93.9291 94.9801 93.8109 92.1627 92.0241 89.1296C90.9658 87.3332 89.7145 86.0401 88.1398 85.2894Z" fill="#C2C2C2"/>
<path opacity="0.2" d="M80.0365 95.8737C79.7595 96.7874 78.5553 97.6897 78.7402 97.9377C78.9251 98.1856 80.2091 97.5736 80.7763 96.8655C81.3041 96.2065 81.4923 95.634 81.4193 94.7897C81.3582 94.0811 81.1794 93.6384 80.6968 93.1296C80.3733 92.7887 79.7746 92.4118 79.6933 92.4756C79.612 92.5394 80.1314 93.3955 80.2113 94.0341C80.3006 94.7487 80.2459 95.1832 80.0365 95.8737Z" fill="#C2C2C2"/>
<path opacity="0.6" d="M70.9032 98.0726C70.5288 97.2488 69.9677 95.7858 70.1157 94.6832C70.2654 93.5678 70.3926 92.7523 71.2462 92.036C71.9635 91.434 72.6666 91.4699 73.4956 91.5122C73.7607 91.5257 74.0386 91.5399 74.3339 91.5341C74.6981 91.5269 75.1838 91.5567 75.5142 91.5818C75.386 91.3875 75.2487 91.2155 75.1032 91.0811C74.0077 90.0689 73.0807 89.3039 71.6236 89.5792C70.0412 89.8781 68.9842 90.7294 68.2854 92.6878C67.5865 94.6462 68.3709 95.7546 70.2156 97.5347C70.4154 97.7275 70.6493 97.9069 70.9032 98.0726Z" fill="white"/>
<path opacity="0.6" d="M76.9685 94.9766C76.9685 94.9766 76.9473 92.0225 77.5975 90.2994C78.0471 89.1078 78.3396 88.3912 79.2079 87.4707C79.9927 86.6387 80.7211 86.331 81.6139 85.9538C81.9062 85.8303 82.2162 85.6994 82.5516 85.5402C83.2994 85.1851 84.3095 84.8092 85.0772 84.5396C84.9092 84.53 84.7385 84.5244 84.5649 84.5228C81.2745 84.4935 78.6477 85.6636 77.1433 88.6703C76.3725 90.2108 76.4862 92.7886 76.5695 93.8159C76.774 94.4876 76.9685 94.9766 76.9685 94.9766Z" fill="white"/>
<path d="M28.0073 125.069C27.941 124.311 38.247 114.396 38.247 114.396L43.0836 119.995C43.0836 119.995 33.4799 131.193 32.7623 131.029C32.0446 130.864 30.2412 130.211 29.2467 128.946C28.2716 127.704 28.0736 125.826 28.0073 125.069Z" fill="#FDC427"/>
<path opacity="0.6" d="M42.8204 120.065C42.0135 121.004 33.243 131.186 32.5584 131.029C32.1311 130.931 31.3189 130.66 30.5217 130.189L41.3811 118.688L42.8204 120.065Z" fill="#D4AE43"/>
<rect opacity="0.4" x="44.6899" y="39" width="4.89492" height="25.0721" rx="2.44746" fill="#FDC427"/>
<rect opacity="0.4" width="4.92992" height="24.9001" rx="2.46496" transform="matrix(0.836385 -0.548143 0.529698 0.848186 13.312 49.9668)" fill="#FDC427"/>
<rect opacity="0.4" width="4.08604" height="11.6813" rx="2.04302" transform="matrix(0.963292 -0.268454 0.256663 0.966501 32.2485 54.0957)" fill="#FDC427"/>
<rect opacity="0.4" width="4.08856" height="11.6744" rx="2.04428" transform="matrix(0.949639 0.313346 -0.299947 0.953956 57.9673 53.2549)" fill="#FDC427"/>
<rect opacity="0.4" width="4.14932" height="11.5051" rx="2.07466" transform="matrix(0.53608 -0.844167 0.832143 0.554562 11.2056 70.749)" fill="#FDC427"/>
<rect opacity="0.4" width="5.00799" height="18.1764" rx="2.50399" transform="matrix(0.228166 -0.973622 0.971065 0.238814 0 80.877)" fill="#FDC427"/>
<path d="M31.331 119.231C32.4903 120.859 31.8975 125.55 32.4527 127.483C33.4725 131.035 33.2491 131.039 34.4923 134.483C35.8993 138.38 43.9762 140.131 43.9762 140.131H52.9502C52.9502 140.131 58.7258 138.602 61.0064 135.527C62.944 132.916 64.4644 130.541 64.9835 127.483C65.3914 125.081 63.9185 120.869 64.9835 119.231C69.2083 112.729 72.2175 110.277 73.7536 102.627C75.5004 93.9279 74.2306 87.5834 69.1646 80.3758C63.3991 72.1731 56.4928 68.4842 46.6276 68.6755C37.1159 68.8599 30.5869 72.407 25.1103 80.3758C20.1375 87.6118 18.866 94.0342 20.9293 102.627C22.8526 110.638 26.5862 112.566 31.331 119.231Z" fill="#FDC427"/>
<ellipse cx="42.2423" cy="91.8649" rx="7.34238" ry="7.52164" fill="#333333"/>
<ellipse cx="3.69768" cy="3.14386" rx="3.69768" ry="3.14386" transform="matrix(0.831156 -0.556039 0.514835 0.857289 35.9775 89.0708)" fill="white"/>
<ellipse cx="1.54281" cy="1.06803" rx="1.54281" ry="1.06803" transform="matrix(0.780694 -0.624914 0.58353 0.812092 42.0264 93.793)" fill="white"/>
<ellipse cx="61.3292" cy="87.006" rx="7.34238" ry="7.52164" fill="#333333"/>
<ellipse cx="3.69768" cy="3.14386" rx="3.69768" ry="3.14386" transform="matrix(0.831156 -0.556039 0.514835 0.857289 55.0645 84.2119)" fill="white"/>
<ellipse cx="1.54281" cy="1.06803" rx="1.54281" ry="1.06803" transform="matrix(0.780694 -0.624914 0.58353 0.812092 61.1133 88.9341)" fill="white"/>
<path d="M47.4583 107.776C47.4583 107.776 47.6262 106.343 50.2696 105.436C52.913 104.529 54.216 105.628 54.216 105.628" stroke="#333333" stroke-width="3.67135" stroke-linecap="round"/>
<path opacity="0.4" d="M25.6656 82.9664C25.2789 83.9062 25.7245 84.9778 26.661 85.3598C27.5974 85.7419 28.67 85.2898 29.0567 84.35L27.3612 83.6582L25.6656 82.9664ZM29.4474 79.8156L28.0098 78.6826L29.4474 79.8156ZM32.5635 76.974L31.5594 75.4423L32.5635 76.974ZM36.8956 76.9878C37.8542 76.6539 38.3652 75.6067 38.037 74.6487C37.7088 73.6908 36.6658 73.1848 35.7072 73.5187L36.3014 75.2532L36.8956 76.9878ZM27.3612 83.6582C29.0567 84.35 29.0567 84.3501 29.0566 84.3502C29.0566 84.3503 29.0566 84.3504 29.0565 84.3504C29.0565 84.3506 29.0565 84.3506 29.0564 84.3507C29.0564 84.3508 29.0564 84.3507 29.0565 84.3505C29.0567 84.3501 29.0571 84.3491 29.0578 84.3475C29.0591 84.3443 29.0614 84.3388 29.0646 84.3312C29.071 84.3159 29.081 84.2919 29.0946 84.26C29.1217 84.1963 29.1625 84.1015 29.2151 83.9826C29.3206 83.7441 29.4718 83.4126 29.6532 83.0432C30.0326 82.2706 30.484 81.4576 30.8851 80.9486L29.4474 79.8156L28.0098 78.6826C27.3538 79.5149 26.7621 80.6231 26.3626 81.4366C26.1546 81.8601 25.9824 82.2377 25.8619 82.5102C25.8015 82.6468 25.7536 82.7578 25.7203 82.8362C25.7036 82.8753 25.6906 82.9064 25.6814 82.9284C25.6768 82.9394 25.6731 82.9481 25.6705 82.9545C25.6692 82.9577 25.6681 82.9603 25.6673 82.9623C25.6669 82.9633 25.6665 82.9641 25.6662 82.9648C25.6661 82.9651 25.666 82.9655 25.6659 82.9657C25.6658 82.9659 25.6657 82.966 25.6657 82.9661C25.6656 82.9663 25.6656 82.9664 27.3612 83.6582ZM29.4474 79.8156L30.8851 80.9486C31.7721 79.8232 32.3443 79.3136 33.5677 78.5057L32.5635 76.974L31.5594 75.4423C30.0354 76.4487 29.162 77.2205 28.0098 78.6826L29.4474 79.8156ZM32.5635 76.974L33.5677 78.5057C34.0852 78.1639 34.8847 77.7882 35.6324 77.4767C35.9909 77.3274 36.3111 77.2035 36.5411 77.1173C36.6558 77.0743 36.7471 77.041 36.8086 77.0188C36.8393 77.0078 36.8624 76.9995 36.8772 76.9943C36.8846 76.9917 36.8899 76.9898 36.893 76.9887C36.8946 76.9882 36.8956 76.9878 36.896 76.9877C36.8962 76.9876 36.8963 76.9876 36.8963 76.9876C36.8962 76.9876 36.8962 76.9876 36.8961 76.9877C36.896 76.9877 36.8959 76.9877 36.8959 76.9877C36.8958 76.9878 36.8956 76.9878 36.3014 75.2532C35.7072 73.5187 35.7071 73.5187 35.7069 73.5188C35.7069 73.5188 35.7067 73.5189 35.7066 73.5189C35.7063 73.519 35.7061 73.5191 35.7057 73.5192C35.7051 73.5194 35.7043 73.5197 35.7033 73.52C35.7015 73.5207 35.699 73.5216 35.696 73.5226C35.6899 73.5247 35.6816 73.5277 35.6711 73.5314C35.6502 73.5388 35.6206 73.5493 35.5831 73.5628C35.5083 73.5898 35.402 73.6286 35.271 73.6777C35.0098 73.7756 34.6472 73.9158 34.2389 74.0859C33.4531 74.4133 32.3836 74.8979 31.5594 75.4423L32.5635 76.974Z" fill="white"/>
<path opacity="0.6" d="M32.1515 124.208C32.091 122.284 32.0258 120.207 31.3307 119.231C31.1088 118.919 30.8892 118.618 30.6719 118.326C33.3586 119.388 36.3279 120.332 38.8853 120.594C46.2729 121.352 51.082 120.813 57.602 117.179C64.0857 113.566 66.6205 109.334 70.3773 103.062L70.3796 103.058C70.5293 102.809 70.681 102.555 70.8349 102.299C72.2711 99.9055 73.4561 97.0144 74.4294 93.9795C74.6212 96.6563 74.3836 99.4886 73.7533 102.627C72.5918 108.412 70.588 111.225 67.8532 115.063C66.9713 116.301 66.0134 117.645 64.9833 119.231C64.3735 120.169 64.5957 121.951 64.8205 123.753C64.9883 125.099 65.1576 126.456 64.9833 127.484C64.4642 130.541 62.9437 132.916 61.0061 135.528C58.7255 138.602 52.9499 140.131 52.9499 140.131H43.9759C43.9759 140.131 35.899 138.381 34.492 134.483C33.7087 132.313 33.5076 131.509 33.2109 130.322C33.0368 129.626 32.8297 128.797 32.4524 127.484C32.2301 126.709 32.1919 125.493 32.1515 124.208Z" fill="#D4AE43"/>
<ellipse opacity="0.2" cx="36.7265" cy="108.249" rx="4.89492" ry="5.01442" fill="#FF5E5E"/>
<ellipse opacity="0.2" cx="67.2494" cy="100.97" rx="4.89492" ry="5.01442" fill="#FF5E5E"/>
<path d="M48.0719 126.749C41.7892 126.721 32.0556 125.29 32.0556 125.29C32.0556 125.29 31.9903 129.71 32.7589 133.647C33.3707 136.781 34.8403 139.156 38.1637 141.9C41.4511 144.614 44.6493 146.654 48.8713 146.601C52.9855 146.549 56.0289 144.621 59.171 141.9C62.5863 138.942 63.1482 137.303 63.964 133.647C64.8391 129.725 65.1928 125.29 65.1928 125.29C65.1928 125.29 54.6768 126.778 48.0719 126.749Z" fill="#00A2B9"/>
<path opacity="0.6" d="M64.6254 130.046C62.6655 133.414 59.7584 137.819 57.1873 139.373C53.0284 141.886 51.5373 141.935 46.6348 141.912C43.3299 141.896 39.116 140.855 36.0479 139.941C36.6524 140.583 37.3529 141.23 38.1637 141.9C41.4511 144.614 44.6493 146.654 48.8713 146.601C52.9855 146.549 56.0289 144.621 59.171 141.9C62.5864 138.942 63.1482 137.303 63.964 133.647C64.2317 132.447 64.4505 131.2 64.6254 130.046Z" fill="#00879A"/>
<path d="M27.9353 124.89C28.1393 124.159 41.2359 118.703 41.2359 118.703L43.7841 125.709C43.7841 125.709 30.8927 132.621 30.2808 132.203C29.669 131.785 28.2151 130.512 27.7314 128.965C27.257 127.447 27.7314 125.622 27.9353 124.89Z" fill="#F5BC1C"/>
<path opacity="0.6" d="M43.7044 125.751C42.6219 126.33 30.8644 132.602 30.2807 132.203C29.9164 131.954 29.2536 131.402 28.6748 130.669L42.8446 123.936L43.7044 125.751Z" fill="#D4AE43"/>
<path d="M40.2721 118.612L43.4799 126.211L50.0038 123.14C50.0038 123.14 51.9242 124.523 53.343 124.912C56.4592 125.766 58.8721 125.051 61.3845 122.978C64.0892 120.747 65.2004 118.163 64.9156 114.618C64.6357 111.133 63.2829 108.648 60.248 107.048C57.3242 105.507 54.4746 105.348 51.8335 107.355C50.1145 108.661 48.9466 112.127 48.9466 112.127C48.9466 112.127 49.4229 109.759 48.9717 108.58C48.4311 107.166 47.9342 106.053 46.5149 105.629C44.9736 105.169 43.6627 105.447 42.1932 106.883C40.7238 108.32 40.9452 109.676 41.8227 112.123C42.486 113.973 44.9098 115.995 44.9098 115.995L40.2721 118.612Z" fill="#F5F5F5"/>
<path opacity="0.2" d="M63.1076 109.382C63.03 110.506 62.8778 112.175 62.6054 113.392C62.5753 113.527 62.5464 113.657 62.5184 113.783C62.1868 115.279 61.9695 116.259 61.2006 117.689C61.1769 117.733 61.1536 117.776 61.1307 117.819C60.6164 118.777 60.2919 119.381 59.4766 120.145C58.0792 121.454 56.899 122.046 55.0015 122.073C53.1708 122.1 50.6069 120.403 50.6069 120.403L42.5842 124.089L43.4801 126.211L50.004 123.14C50.004 123.14 51.9244 124.523 53.3432 124.912C56.4595 125.766 58.8724 125.051 61.3848 122.978C64.0895 120.747 65.2006 118.163 64.9158 114.618C64.7471 112.518 64.1889 110.781 63.1076 109.382Z" fill="#C2C2C2"/>
<path opacity="0.2" d="M51.3045 115.153C50.6627 115.846 49.1983 116.102 49.2562 116.409C49.3142 116.717 50.7244 116.759 51.5364 116.384C52.292 116.036 52.7072 115.608 53.0067 114.817C53.2581 114.153 53.2898 113.673 53.0787 112.994C52.9372 112.539 52.5657 111.925 52.4656 111.945C52.3655 111.965 52.4594 112.972 52.2548 113.582C52.0259 114.265 51.7895 114.63 51.3045 115.153Z" fill="#C2C2C2"/>
<path opacity="0.6" d="M42.2041 112.922C42.2257 112.01 42.3568 110.439 42.965 109.517C43.5803 108.585 44.0459 107.911 45.1171 107.661C46.0172 107.451 46.6292 107.807 47.3508 108.226C47.5815 108.36 47.8234 108.501 48.0895 108.632C48.4176 108.793 48.8382 109.044 49.1222 109.218C49.0918 108.985 49.0435 108.767 48.9717 108.579C48.4311 107.166 47.9342 106.053 46.5149 105.629C44.9736 105.169 43.6626 105.447 42.1932 106.883C40.7238 108.319 40.9452 109.676 41.8227 112.123C41.9178 112.388 42.049 112.657 42.2041 112.922Z" fill="white"/>
<path opacity="0.6" d="M48.9544 112.936C48.9544 112.936 50.2113 110.274 51.5356 109.027C52.4514 108.164 53.022 107.655 54.1944 107.228C55.2541 106.843 56.037 106.902 56.9967 106.974C57.311 106.998 57.6441 107.023 58.0122 107.035C58.8329 107.06 59.8967 107.188 60.6983 107.299C60.5526 107.213 60.4026 107.13 60.2483 107.048C57.3245 105.507 54.4749 105.348 51.8338 107.355C50.4806 108.383 49.4689 110.75 49.0996 111.71C48.992 112.407 48.9544 112.936 48.9544 112.936Z" fill="white"/>
</svg>
