<svg width="160" height="161" viewBox="0 0 160 161" fill="none" xmlns="http://www.w3.org/2000/svg">
<rect opacity="0.4" x="70.6547" y="0.192871" width="6.97214" height="34.8607" rx="3.48607" fill="#FDC427"/>
<rect opacity="0.4" x="25.961" y="15.4409" width="6.97214" height="34.8607" rx="3.48607" transform="rotate(-32.6092 25.961 15.4409)" fill="#FDC427"/>
<rect opacity="0.4" x="52.9339" y="21.1816" width="5.81012" height="16.2683" rx="2.90506" transform="rotate(-15.2186 52.9339 21.1816)" fill="#FDC427"/>
<rect opacity="0.4" x="22.9605" y="44.3369" width="5.81012" height="16.2683" rx="2.90506" transform="rotate(-56.9542 22.9605 44.3369)" fill="#FDC427"/>
<rect opacity="0.4" x="6.99997" y="58.4189" width="6.97214" height="25.855" rx="3.48607" transform="rotate(-76.5005 6.99997 58.4189)" fill="#FDC427"/>
<rect opacity="0.4" width="6.97214" height="34.8607" rx="3.48607" transform="matrix(-0.842366 -0.538906 -0.538906 0.842366 122.639 15.5596)" fill="#FDC427"/>
<rect opacity="0.4" width="5.81012" height="16.2683" rx="2.90506" transform="matrix(-0.964931 -0.262502 -0.262502 0.964931 95.6379 21.1816)" fill="#FDC427"/>
<rect opacity="0.4" width="5.81012" height="16.2683" rx="2.90506" transform="matrix(-0.545309 -0.838235 -0.838235 0.545309 125.611 44.3369)" fill="#FDC427"/>
<rect opacity="0.4" width="6.97214" height="25.855" rx="3.48607" transform="matrix(-0.233437 -0.972372 -0.972372 0.233436 141.572 58.4189)" fill="#FDC427"/>
<ellipse opacity="0.1" cx="75.8838" cy="152.999" rx="58.1012" ry="5.2291" fill="#0092A6"/>
<path d="M57.3809 99.1266L42.5821 122.731L51.7707 127.593L66.1595 105.075L57.3809 99.1266Z" fill="#F5BC1C"/>
<path opacity="0.6" d="M63.3846 103.666L49.4542 126.069L51.7708 127.593L66.1596 105.076L63.3846 103.666Z" fill="#D4AE43"/>
<path d="M42.6356 121.354L52.5193 127.254L47.0806 135.914C47.0806 135.914 48.6337 138.876 48.9077 140.95C49.5094 145.505 48.0782 148.784 44.7568 151.959C41.1811 155.376 37.4138 156.48 32.5782 155.439C27.8256 154.416 24.6492 152.057 23.0041 147.483C21.4191 143.075 21.7263 139.022 24.9803 135.654C27.0983 133.461 32.0923 132.436 32.0923 132.436C32.0923 132.436 28.7399 132.682 27.1972 131.832C25.3488 130.814 23.9055 129.912 23.5833 127.831C23.2335 125.571 23.8583 123.77 26.1099 121.953C28.3615 120.137 30.1903 120.694 33.4024 122.374C35.83 123.644 38.1705 127.432 38.1705 127.432L42.6356 121.354Z" fill="#F5F5F5"/>
<path opacity="0.2" d="M25.6936 151.941C27.2583 152.034 29.5866 152.12 31.3154 151.955C31.5064 151.937 31.6913 151.919 31.8709 151.902C33.9945 151.704 35.3856 151.574 37.4985 150.745C37.5637 150.72 37.6277 150.695 37.6908 150.67C39.1061 150.116 39.9991 149.767 41.2026 148.753C43.2653 147.015 44.2995 145.455 44.688 142.78C45.0628 140.199 43.1964 136.272 43.1964 136.272L49.7589 125.606L52.5193 127.254L47.0806 135.914C47.0806 135.914 48.6337 138.876 48.9077 140.95C49.5094 145.505 48.0783 148.784 44.7568 151.958C41.1811 155.376 37.4138 156.48 32.5782 155.439C29.7142 154.822 27.4226 153.721 25.6936 151.941Z" fill="#C2C2C2"/>
<path opacity="0.2" d="M35.83 136.312C36.9035 135.53 37.5263 133.508 37.9399 133.646C38.3534 133.783 38.1505 135.782 37.4842 136.861C36.8641 137.866 36.1983 138.375 35.0517 138.656C34.0894 138.891 33.4222 138.849 32.5251 138.429C31.924 138.147 31.1461 137.512 31.1919 137.374C31.2377 137.236 32.6097 137.55 33.4886 137.371C34.4719 137.171 35.0186 136.903 35.83 136.312Z" fill="#C2C2C2"/>
<path opacity="0.6" d="M34.4343 123.057C33.1729 122.923 30.9818 122.825 29.5989 123.518C28.1998 124.219 27.1852 124.755 26.6427 126.223C26.1867 127.456 26.5643 128.385 27.0097 129.48C27.152 129.83 27.3013 130.197 27.4324 130.596C27.5942 131.088 27.8617 131.728 28.0499 132.16C27.7338 132.075 27.4426 131.968 27.1972 131.832C25.3488 130.814 23.9055 129.912 23.5833 127.831C23.2335 125.571 23.8583 123.77 26.1099 121.953C28.3615 120.137 30.1903 120.694 33.4024 122.374C33.7503 122.556 34.0965 122.79 34.4343 123.057Z" fill="white"/>
<path opacity="0.6" d="M33.2062 132.593C33.2062 132.593 29.3045 133.888 27.34 135.534C25.9815 136.672 25.1748 137.386 24.3702 138.965C23.6429 140.392 23.5798 141.508 23.5025 142.877C23.4772 143.325 23.4504 143.8 23.3982 144.322C23.2818 145.486 23.2613 147.011 23.2669 148.163C23.1753 147.942 23.0877 147.715 23.0041 147.482C21.4192 143.075 21.7263 139.022 24.9803 135.654C26.6476 133.928 30.097 132.925 31.4897 132.577C32.4706 132.55 33.2062 132.593 33.2062 132.593Z" fill="white"/>
<path d="M86.8542 111.033L110.731 96.6789L115.42 105.957L92.6377 119.922L86.8542 111.033Z" fill="#F5BC1C"/>
<path opacity="0.6" d="M91.2809 117.121L113.94 103.613L115.42 105.957L92.6377 119.922L91.2809 117.121Z" fill="#D4AE43"/>
<path d="M51.6268 111.747C53.2782 114.011 52.4338 120.533 53.2246 123.222C54.6771 128.16 54.3589 128.165 56.1297 132.954C58.1338 138.373 69.6382 140.807 69.6382 140.807H82.4205C82.4205 140.807 90.647 138.68 93.8954 134.406C96.6552 130.775 98.8209 127.473 99.5603 123.222C100.141 119.881 98.0433 114.025 99.5603 111.747C105.578 102.707 109.864 99.2979 112.052 88.6613C114.54 76.5655 112.731 67.744 105.516 57.7225C97.3036 46.3172 87.4664 41.1882 73.4148 41.4542C59.8666 41.7106 50.567 46.6424 42.7664 57.7225C35.6833 67.7834 33.8722 76.7133 36.811 88.6613C39.5506 99.7992 44.8685 102.48 51.6268 111.747Z" fill="#FDC427"/>
<ellipse cx="76.3198" cy="95.9146" rx="8.86043" ry="8.86043" fill="#333333"/>
<path d="M67.8492 98.522C70.0084 97.2432 73.5417 95.479 76.6019 95.479C79.4806 95.479 82.8301 96.5649 85.0504 97.4343C84.3298 101.604 80.6951 104.775 76.3198 104.775C72.3337 104.775 68.9624 102.143 67.8492 98.522Z" fill="#FF5E5E"/>
<ellipse cx="57.2916" cy="72.8196" rx="9.8772" ry="9.58669" fill="#333333"/>
<ellipse cx="57.2916" cy="71.948" rx="3.48607" ry="3.48607" fill="white"/>
<ellipse cx="61.6492" cy="75.7245" rx="1.45253" ry="1.45253" fill="white"/>
<ellipse cx="93.0238" cy="70.2049" rx="9.8772" ry="9.58669" fill="#333333"/>
<ellipse cx="98.253" cy="73.4003" rx="1.45253" ry="1.45253" fill="white"/>
<ellipse cx="93.8954" cy="69.3332" rx="3.48607" ry="3.48607" fill="white"/>
<path opacity="0.4" d="M44.3663 61.6096C43.9924 62.4967 44.4084 63.5189 45.2954 63.8929C46.1825 64.2668 47.2047 63.8508 47.5787 62.9637L45.9725 62.2867L44.3663 61.6096ZM48.9441 56.9439L47.5879 55.8489L48.9441 56.9439ZM53.3825 52.9928L52.4381 51.5278L53.3825 52.9928ZM59.2678 52.2505C60.1792 51.9407 60.6668 50.9506 60.3569 50.0392C60.047 49.1278 59.057 48.6402 58.1456 48.95L58.7067 50.6003L59.2678 52.2505ZM45.9725 62.2867C47.5787 62.9637 47.5786 62.9638 47.5786 62.964C47.5785 62.964 47.5785 62.9641 47.5785 62.9641C47.5785 62.9642 47.5784 62.9642 47.5785 62.9642C47.5785 62.9641 47.5786 62.9639 47.5788 62.9634C47.5792 62.9625 47.5799 62.9607 47.581 62.9582C47.5832 62.9531 47.5867 62.9448 47.5916 62.9334C47.6013 62.9107 47.6163 62.8758 47.6363 62.8299C47.6763 62.7381 47.736 62.6027 47.8127 62.4336C47.9663 62.0946 48.1864 61.6235 48.4508 61.098C48.9954 60.0154 49.6703 58.8192 50.3003 58.0388L48.9441 56.9439L47.5879 55.8489C46.7123 56.9335 45.9014 58.4086 45.3366 59.5313C45.0463 60.1083 44.8058 60.6233 44.6374 60.9947C44.5531 61.1807 44.4866 61.3316 44.4405 61.4373C44.4175 61.4902 44.3995 61.5318 44.387 61.5609C44.3808 61.5755 44.3759 61.5869 44.3725 61.5951C44.3707 61.5992 44.3693 61.6025 44.3683 61.6049C44.3678 61.6061 44.3674 61.6071 44.367 61.6079C44.3669 61.6083 44.3667 61.6086 44.3666 61.6089C44.3665 61.6091 44.3665 61.6093 44.3664 61.6093C44.3664 61.6095 44.3663 61.6096 45.9725 62.2867ZM48.9441 56.9439L50.3003 58.0388C51.6253 56.3976 52.5116 55.6281 54.327 54.4578L53.3825 52.9928L52.4381 51.5278C50.3403 52.8802 49.1675 53.8924 47.5879 55.8489L48.9441 56.9439ZM53.3825 52.9928L54.327 54.4578C55.1387 53.9345 56.3433 53.3861 57.4179 52.9491C57.9408 52.7365 58.4074 52.5604 58.7427 52.4377C58.91 52.3765 59.0438 52.3288 59.1346 52.2969C59.18 52.2809 59.2146 52.2689 59.2372 52.2611C59.2485 52.2572 59.2568 52.2543 59.2619 52.2525C59.2645 52.2517 59.2663 52.251 59.2673 52.2507C59.2678 52.2505 59.2681 52.2505 59.2681 52.2504C59.2682 52.2504 59.2682 52.2504 59.2681 52.2504C59.2681 52.2504 59.268 52.2505 59.268 52.2505C59.2679 52.2505 59.2678 52.2505 58.7067 50.6003C58.1456 48.95 58.1454 48.9501 58.1453 48.9501C58.1452 48.9502 58.1451 48.9502 58.1449 48.9503C58.1447 48.9504 58.1443 48.9505 58.144 48.9506C58.1432 48.9508 58.1423 48.9512 58.1411 48.9516C58.1388 48.9524 58.1356 48.9534 58.1317 48.9548C58.1238 48.9575 58.1127 48.9613 58.0985 48.9662C58.0702 48.976 58.0296 48.9901 57.978 49.0083C57.8747 49.0446 57.7269 49.0972 57.5444 49.164C57.1801 49.2974 56.674 49.4884 56.1047 49.7199C54.9951 50.1711 53.5376 50.819 52.4381 51.5278L53.3825 52.9928Z" fill="white"/>
<path opacity="0.6" d="M52.796 118.667C52.7098 115.992 52.6169 113.104 51.6268 111.747C51.3108 111.314 50.998 110.895 50.6884 110.489C54.5153 111.966 58.7447 113.278 62.3873 113.643C72.91 114.696 79.7598 113.947 89.0467 108.894C98.2818 103.87 101.892 97.9864 107.243 89.266L107.247 89.2607C107.46 88.9132 107.676 88.5613 107.895 88.2047C109.941 84.8768 111.629 80.857 113.015 76.6372C113.288 80.3591 112.95 84.2972 112.052 88.6614C110.398 96.7044 107.543 100.615 103.648 105.952C102.392 107.673 101.028 109.543 99.5603 111.747C98.6917 113.052 99.0082 115.529 99.3284 118.035C99.5675 119.906 99.8086 121.794 99.5603 123.222C98.8209 127.473 96.6552 130.775 93.8954 134.406C90.647 138.68 82.4204 140.807 82.4204 140.807H69.6382C69.6382 140.807 58.1338 138.373 56.1297 132.954C55.0139 129.937 54.7275 128.819 54.305 127.169C54.0569 126.2 53.7619 125.049 53.2246 123.222C52.9079 122.145 52.8535 120.454 52.796 118.667Z" fill="#D4AE43"/>
<ellipse opacity="0.2" cx="53.5151" cy="89.3877" rx="6.97214" ry="6.97214" fill="#FF5E5E"/>
<ellipse opacity="0.2" cx="98.834" cy="87.0634" rx="6.97214" ry="6.97214" fill="#FF5E5E"/>
<path d="M109.354 96.7069L115.068 106.699L123.828 101.424C123.828 101.424 126.76 103.032 128.829 103.345C133.372 104.032 136.677 102.662 139.914 99.4008C143.398 95.8897 144.572 92.1437 143.621 87.2894C142.687 82.5185 140.388 79.2985 135.845 77.568C131.469 75.9009 127.41 76.1321 123.982 79.3225C121.75 81.3991 120.632 86.373 120.632 86.373C120.632 86.373 120.94 83.0258 120.12 81.4675C119.136 79.6003 118.261 78.1403 116.186 77.7793C113.934 77.3872 112.121 77.9782 110.262 80.1954C108.404 82.4126 108.927 84.2515 110.547 87.4945C111.771 89.9455 115.514 92.3565 115.514 92.3565L109.354 96.7069Z" fill="#F5F5F5"/>
<path opacity="0.2" d="M140.253 80.3403C140.317 81.9066 140.359 84.2361 140.161 85.9615C140.14 86.1521 140.119 86.3366 140.099 86.5159C139.86 88.6354 139.704 90.0237 138.836 92.1208C138.81 92.1855 138.783 92.2491 138.757 92.3117C138.177 93.7163 137.811 94.6026 136.775 95.787C134.999 97.8168 133.42 98.8216 130.738 99.1599C128.151 99.4864 124.259 97.5468 124.259 97.5468L113.472 103.908L115.068 106.699L123.828 101.424C123.828 101.424 126.76 103.032 128.829 103.345C133.372 104.032 136.677 102.662 139.913 99.4006C143.398 95.8895 144.572 92.1435 143.621 87.2892C143.058 84.4142 142 82.1024 140.253 80.3403Z" fill="#C2C2C2"/>
<path opacity="0.2" d="M124.437 90.1825C123.635 91.2412 121.602 91.8261 121.731 92.2421C121.861 92.6582 123.864 92.4927 124.955 91.8467C125.971 91.2455 126.493 90.5894 126.795 89.4482C127.048 88.4905 127.019 87.8226 126.615 86.9179C126.345 86.3115 125.724 85.5219 125.585 85.5651C125.447 85.6083 125.735 86.9859 125.54 87.8613C125.321 88.8408 125.043 89.3823 124.437 90.1825Z" fill="#C2C2C2"/>
<path opacity="0.6" d="M111.21 88.5388C111.1 87.2752 111.043 85.0826 111.762 83.7129C112.489 82.3272 113.044 81.3228 114.521 80.8078C115.763 80.375 116.684 80.77 117.771 81.2357C118.118 81.3846 118.482 81.5407 118.879 81.6793C119.368 81.8502 120.002 82.1297 120.431 82.326C120.352 82.0083 120.25 81.7152 120.12 81.4673C119.136 79.6002 118.261 78.1401 116.186 77.7791C113.934 77.3871 112.121 77.978 110.262 80.1952C108.404 82.4124 108.927 84.2514 110.547 87.4943C110.722 87.8456 110.95 88.1961 111.21 88.5388Z" fill="white"/>
<path opacity="0.6" d="M120.767 87.4896C120.767 87.4896 122.135 83.6128 123.818 81.6795C124.981 80.3425 125.71 79.5494 127.304 78.7744C128.744 78.074 129.862 78.0318 131.231 77.9802C131.68 77.9632 132.155 77.9453 132.678 77.9029C133.844 77.8083 135.369 77.8164 136.521 77.8435C136.302 77.7478 136.076 77.656 135.845 77.568C131.469 75.9009 127.41 76.1321 123.982 79.3225C122.225 80.9571 121.158 84.3872 120.784 85.7731C120.739 86.7533 120.767 87.4896 120.767 87.4896Z" fill="white"/>
<path d="M75.4718 122.201C66.5228 122.162 52.6587 120.172 52.6587 120.172C52.6587 120.172 52.5657 126.319 53.6604 131.792C54.532 136.15 56.6252 139.452 61.3588 143.267C66.0413 147.041 70.5967 149.878 76.6104 149.803C82.4705 149.731 86.8054 147.051 91.2809 143.267C96.1456 139.155 96.9458 136.876 98.1078 131.792C99.3544 126.338 99.8582 120.172 99.8582 120.172C99.8582 120.172 84.8796 122.242 75.4718 122.201Z" fill="#00A2B9"/>
<path opacity="0.6" d="M99.05 126.785C96.2583 131.468 92.1175 137.593 88.4554 139.753C82.5316 143.248 80.4077 143.316 73.4248 143.284C68.7173 143.262 62.7152 141.814 58.3451 140.544C59.2063 141.436 60.204 142.336 61.3588 143.267C66.0413 147.041 70.5967 149.878 76.6104 149.804C82.4705 149.731 86.8054 147.051 91.2809 143.267C96.1456 139.155 96.9458 136.876 98.1078 131.792C98.4891 130.124 98.8008 128.39 99.05 126.785Z" fill="#00879A" stroke="#00A2B9" stroke-width="0.290506"/>
<path d="M104.747 147.448C104.752 147.656 104.752 147.77 104.752 147.77C104.752 147.77 104.749 147.656 104.747 147.448C104.713 145.777 104.411 138.05 101.785 134.908C99.5618 132.248 94.1857 131.541 94.1857 131.541C94.1857 131.541 99.8101 131.925 102.074 129.556C104.211 127.32 104.651 121.806 104.736 119.102C104.726 118.158 104.752 117.557 104.752 117.557C104.752 117.557 104.766 118.159 104.736 119.102C104.765 121.8 105.086 127.295 107.14 129.556C109.354 131.992 114.812 131.541 114.812 131.541C114.812 131.541 109.531 132.363 107.357 135.08C104.827 138.244 104.736 145.798 104.747 147.448Z" fill="#FDC427"/>
<path d="M115.526 147.596C115.528 147.708 115.528 147.77 115.528 147.77C115.528 147.77 115.527 147.708 115.526 147.596C115.507 146.697 115.346 142.536 113.94 140.844C112.751 139.412 109.873 139.031 109.873 139.031C109.873 139.031 112.883 139.238 114.095 137.962C115.239 136.758 115.474 133.789 115.52 132.334C115.515 131.825 115.528 131.501 115.528 131.501C115.528 131.501 115.536 131.825 115.52 132.334C115.535 133.786 115.707 136.745 116.807 137.962C117.991 139.274 120.912 139.031 120.912 139.031C120.912 139.031 118.086 139.474 116.923 140.937C115.569 142.641 115.52 146.708 115.526 147.596Z" fill="#FDC427"/>
<g clip-path="url(#clip0_9974_1287)">
<mask id="path-42-inside-1_9974_1287" fill="white">
<path d="M151.505 -1.24497e-07C153.078 -5.57392e-08 154.353 1.27517 154.353 2.84817L154.353 80.2234C154.353 81.7964 153.078 83.0715 151.505 83.0715L110.966 83.0715C109.393 83.0715 108.117 81.7964 108.117 80.2234L108.117 2.84817C108.117 1.27517 109.393 -1.96528e-06 110.966 -1.89652e-06L151.505 -1.24497e-07Z"/>
</mask>
<path d="M151.505 -1.24497e-07C153.078 -5.57392e-08 154.353 1.27517 154.353 2.84817L154.353 80.2234C154.353 81.7964 153.078 83.0715 151.505 83.0715L110.966 83.0715C109.393 83.0715 108.117 81.7964 108.117 80.2234L108.117 2.84817C108.117 1.27517 109.393 -1.96528e-06 110.966 -1.89652e-06L151.505 -1.24497e-07Z" fill="#3097A6"/>
<rect x="118.981" y="6.99902" width="25.1957" height="3.87625" rx="0.484532" transform="rotate(90 118.981 6.99902)" fill="#D9D9D9"/>
<rect x="118.981" y="6.99902" width="25.1957" height="3.87625" rx="0.484532" transform="rotate(90 118.981 6.99902)" fill="#CEE7EA"/>
<g clip-path="url(#clip1_9974_1287)">
<rect x="143.212" y="6.99805" width="13.0824" height="7.26798" rx="0.484532" transform="rotate(90 143.212 6.99805)" fill="#F2C874"/>
<rect x="145.536" y="5.64085" width="5.62057" height="4.16697" rx="0.872157" transform="rotate(90 145.536 5.64085)" stroke="#CBA04B" stroke-width="0.193813"/>
<rect x="145.536" y="11.2595" width="4.55805" height="4.16697" rx="0.872157" transform="rotate(90 145.536 11.2595)" stroke="#CBA04B" stroke-width="0.193813"/>
<rect x="137.298" y="11.2605" width="4.55805" height="4.16697" rx="0.872157" transform="rotate(90 137.298 11.2605)" stroke="#CBA04B" stroke-width="0.193813"/>
<rect x="141.376" y="5.64085" width="5.62057" height="3.58579" rx="0.872157" transform="rotate(90 141.376 5.64085)" stroke="#CBA04B" stroke-width="0.193813"/>
<rect x="141.175" y="15.8166" width="5.62057" height="3.38552" rx="0.872157" transform="rotate(90 141.175 15.8166)" stroke="#CBA04B" stroke-width="0.193813"/>
<rect x="137.783" y="5.64085" width="5.62057" height="4.16697" rx="0.872157" transform="rotate(90 137.783 5.64085)" stroke="#CBA04B" stroke-width="0.193813"/>
<rect x="137.783" y="15.8157" width="5.62057" height="4.16697" rx="0.872157" transform="rotate(90 137.783 15.8157)" stroke="#CBA04B" stroke-width="0.193813"/>
</g>
<rect x="118.983" y="63.689" width="12.5978" height="3.87625" rx="0.484532" transform="rotate(90 118.983 63.689)" fill="#CEE7EA"/>
<rect x="126.734" y="6.99902" width="15.8684" height="3.87625" rx="0.484532" transform="rotate(90 126.734 6.99902)" fill="#A8E2E9"/>
<rect x="126.734" y="24.8057" width="15.8684" height="3.87625" rx="0.484532" transform="rotate(90 126.734 24.8057)" fill="#A8E2E9"/>
<rect x="126.734" y="42.6123" width="15.8684" height="3.87625" rx="0.484532" transform="rotate(90 126.734 42.6123)" fill="#A8E2E9"/>
<rect x="126.734" y="60.4185" width="15.8684" height="3.87625" rx="0.484532" transform="rotate(90 126.734 60.4185)" fill="#A8E2E9"/>
<path d="M129.269 46.0717C128.487 46.7246 127.501 47.0828 126.483 47.0841C125.464 47.0854 124.477 46.7297 123.694 46.0788" stroke="#CEE7EA" stroke-width="1.18789" stroke-linecap="round" stroke-linejoin="round"/>
<path d="M130.688 47.4758C129.533 48.4973 128.044 49.062 126.501 49.0639C124.959 49.0659 123.468 48.505 122.31 47.4865" stroke="#CEE7EA" stroke-width="1.18789" stroke-linecap="round" stroke-linejoin="round"/>
<path d="M127.87 44.664C127.468 44.9501 126.987 45.1042 126.494 45.1048C126.001 45.1054 125.52 44.9526 125.118 44.6675" stroke="#CEE7EA" stroke-width="1.18789" stroke-linecap="round" stroke-linejoin="round"/>
</g>
<path d="M154.353 0L154.353 83.0715L154.353 0ZM108.117 83.0715L108.117 -2.02102e-06L108.117 83.0715ZM108.117 2.84817C108.117 0.999024 109.616 -0.500002 111.466 -0.500002L151.005 -0.5C152.854 -0.5 154.353 0.999026 154.353 2.84817C154.353 1.55131 153.078 0.5 151.505 0.5L110.966 0.499998C109.393 0.499998 108.117 1.55131 108.117 2.84817ZM154.353 83.0715L108.117 83.0715L154.353 83.0715Z" fill="#00A2B9" mask="url(#path-42-inside-1_9974_1287)"/>
<g clip-path="url(#clip2_9974_1287)">
<mask id="path-62-inside-2_9974_1287" fill="white">
<path d="M149.505 2C151.078 2 152.353 3.27517 152.353 4.84817L152.353 82.2234C152.353 83.7964 151.078 85.0715 149.505 85.0715L108.966 85.0715C107.393 85.0715 106.117 83.7964 106.117 82.2234L106.117 4.84817C106.117 3.27517 107.393 2 108.966 2L149.505 2Z"/>
</mask>
<path d="M149.505 2C151.078 2 152.353 3.27517 152.353 4.84817L152.353 82.2234C152.353 83.7964 151.078 85.0715 149.505 85.0715L108.966 85.0715C107.393 85.0715 106.117 83.7964 106.117 82.2234L106.117 4.84817C106.117 3.27517 107.393 2 108.966 2L149.505 2Z" fill="#19ABC0"/>
<path d="M172.246 58.638C175.005 63.0344 175.273 69.6807 173.442 76.8998C171.612 84.1162 167.69 91.8805 162.108 98.475C156.526 105.069 150.347 109.237 144.873 110.649C139.397 112.061 134.645 110.713 131.885 106.316C129.125 101.92 128.858 95.2738 130.688 88.0547C132.518 80.8383 136.439 73.0738 142.021 66.4794C147.604 59.8849 153.783 55.7173 159.257 54.3056C164.734 52.8935 169.486 54.2418 172.246 58.638Z" stroke="#CEE7EA" stroke-width="0.242266"/>
<path d="M175.509 61.8504C178.269 66.2468 178.536 72.8931 176.705 80.1122C174.875 87.3286 170.954 95.0929 165.371 101.687C159.789 108.282 153.61 112.45 148.136 113.861C142.66 115.274 137.908 113.925 135.148 109.529C132.388 105.133 132.121 98.4862 133.951 91.2671C135.781 84.0507 139.702 76.2862 145.284 69.6918C150.867 63.0973 157.047 58.9297 162.521 57.518C167.997 56.1059 172.749 57.4542 175.509 61.8504Z" stroke="#CEE7EA" stroke-width="0.242266"/>
<path d="M178.771 65.0609C181.531 69.4572 181.798 76.1036 179.968 83.3226C178.138 90.5391 174.216 98.3033 168.633 104.898C163.051 111.492 156.872 115.66 151.398 117.072C145.922 118.484 141.17 117.135 138.41 112.739C135.65 108.343 135.383 101.697 137.214 94.4775C139.043 87.2612 142.964 79.4967 148.547 72.9022C154.129 66.3077 160.309 62.1401 165.783 60.7284C171.259 59.3163 176.011 60.6646 178.771 65.0609Z" stroke="#CEE7EA" stroke-width="0.242266"/>
<rect x="116.981" y="8.99902" width="25.1957" height="3.87625" rx="0.484532" transform="rotate(90 116.981 8.99902)" fill="#D9D9D9"/>
<rect x="116.981" y="8.99902" width="25.1957" height="3.87625" rx="0.484532" transform="rotate(90 116.981 8.99902)" fill="#CEE7EA"/>
<g clip-path="url(#clip3_9974_1287)">
<rect x="141.212" y="8.99805" width="13.0824" height="7.26798" rx="0.484532" transform="rotate(90 141.212 8.99805)" fill="#F2C874"/>
<rect x="143.536" y="7.64085" width="5.62057" height="4.16697" rx="0.872157" transform="rotate(90 143.536 7.64085)" stroke="#CBA04B" stroke-width="0.193813"/>
<rect x="143.536" y="13.2595" width="4.55805" height="4.16697" rx="0.872157" transform="rotate(90 143.536 13.2595)" stroke="#CBA04B" stroke-width="0.193813"/>
<rect x="135.298" y="13.2605" width="4.55805" height="4.16697" rx="0.872157" transform="rotate(90 135.298 13.2605)" stroke="#CBA04B" stroke-width="0.193813"/>
<rect x="139.376" y="7.64085" width="5.62057" height="3.58579" rx="0.872157" transform="rotate(90 139.376 7.64085)" stroke="#CBA04B" stroke-width="0.193813"/>
<rect x="139.175" y="17.8166" width="5.62057" height="3.38552" rx="0.872157" transform="rotate(90 139.175 17.8166)" stroke="#CBA04B" stroke-width="0.193813"/>
<rect x="135.783" y="7.64085" width="5.62057" height="4.16697" rx="0.872157" transform="rotate(90 135.783 7.64085)" stroke="#CBA04B" stroke-width="0.193813"/>
<rect x="135.783" y="17.8157" width="5.62057" height="4.16697" rx="0.872157" transform="rotate(90 135.783 17.8157)" stroke="#CBA04B" stroke-width="0.193813"/>
</g>
<rect x="116.983" y="65.689" width="12.5978" height="3.87625" rx="0.484532" transform="rotate(90 116.983 65.689)" fill="#CEE7EA"/>
<rect x="124.734" y="8.99902" width="15.8684" height="3.87625" rx="0.484532" transform="rotate(90 124.734 8.99902)" fill="#A8E2E9"/>
<rect x="124.734" y="26.8057" width="15.8684" height="3.87625" rx="0.484532" transform="rotate(90 124.734 26.8057)" fill="#A8E2E9"/>
<rect x="124.734" y="44.6123" width="15.8684" height="3.87625" rx="0.484532" transform="rotate(90 124.734 44.6123)" fill="#A8E2E9"/>
<rect x="124.734" y="62.4185" width="15.8684" height="3.87625" rx="0.484532" transform="rotate(90 124.734 62.4185)" fill="#A8E2E9"/>
<path d="M141.249 28.9934C140.242 29.8347 138.971 30.2964 137.659 30.298C136.346 30.2997 135.074 29.8413 134.065 29.0025" stroke="#CEE7EA" stroke-width="1.53081" stroke-linecap="round" stroke-linejoin="round"/>
<path d="M143.078 30.8026C141.589 32.1189 139.67 32.8466 137.682 32.8492C135.694 32.8517 133.774 32.1289 132.281 30.8163" stroke="#CEE7EA" stroke-width="1.53081" stroke-linecap="round" stroke-linejoin="round"/>
<path d="M139.446 27.1789C138.928 27.5476 138.309 27.7461 137.673 27.7469C137.038 27.7477 136.418 27.5508 135.899 27.1834" stroke="#CEE7EA" stroke-width="1.53081" stroke-linecap="round" stroke-linejoin="round"/>
</g>
<path d="M152.353 2L152.353 85.0715L152.353 2ZM106.117 85.0715L106.117 2L106.117 85.0715ZM106.117 4.84817C106.117 2.99902 107.616 1.5 109.466 1.5L149.005 1.5C150.854 1.5 152.353 2.99903 152.353 4.84817C152.353 3.55131 151.078 2.5 149.505 2.5L108.966 2.5C107.393 2.5 106.117 3.55131 106.117 4.84817ZM152.353 85.0715L106.117 85.0715L152.353 85.0715Z" fill="#00A2B9" mask="url(#path-62-inside-2_9974_1287)"/>
<path d="M123.982 79.3228C127.41 76.1323 131.469 75.9007 135.846 77.5679C140.389 79.2984 142.687 82.5188 143.621 87.2896C144.572 92.1437 143.397 95.8898 139.913 99.4009C136.677 102.662 133.371 104.032 128.828 103.345C126.76 103.032 123.828 101.423 123.828 101.423L115.068 106.7L109.354 96.7065L115.515 92.3569C115.515 92.3569 115.4 92.2785 115.2 92.1411L120.67 85.7144C120.654 86.1073 120.633 86.3603 120.632 86.3726C120.645 86.3155 121.763 81.3874 123.982 79.3228Z" fill="#F5F5F5"/>
<path opacity="0.2" d="M140.253 80.3403C140.317 81.9066 140.359 84.2361 140.162 85.9615C140.14 86.1521 140.119 86.3366 140.099 86.5159C139.86 88.6354 139.704 90.0237 138.836 92.1208C138.81 92.1855 138.783 92.2491 138.757 92.3117C138.177 93.7163 137.811 94.6026 136.775 95.787C134.999 97.8168 133.42 98.8216 130.738 99.1599C128.151 99.4864 124.259 97.5468 124.259 97.5468L113.472 103.908L115.068 106.699L123.828 101.424C123.828 101.424 126.76 103.032 128.829 103.345C133.372 104.032 136.677 102.662 139.914 99.4006C143.398 95.8895 144.572 92.1435 143.621 87.2892C143.058 84.4142 142 82.1024 140.253 80.3403Z" fill="#C2C2C2"/>
<path opacity="0.2" d="M124.437 90.1825C123.635 91.2412 121.602 91.8261 121.732 92.2421C121.861 92.6582 123.864 92.4927 124.955 91.8467C125.971 91.2455 126.493 90.5894 126.795 89.4482C127.048 88.4905 127.019 87.8226 126.615 86.9179C126.345 86.3115 125.724 85.5219 125.585 85.5651C125.447 85.6083 125.735 86.9859 125.54 87.8613C125.321 88.8408 125.043 89.3823 124.437 90.1825Z" fill="#C2C2C2"/>
<path opacity="0.6" d="M120.767 87.4896C120.767 87.4896 122.136 83.6128 123.818 81.6795C124.981 80.3425 125.71 79.5494 127.304 78.7744C128.744 78.074 129.862 78.0318 131.231 77.9802C131.68 77.9632 132.155 77.9453 132.678 77.9029C133.844 77.8083 135.369 77.8164 136.521 77.8435C136.302 77.7478 136.076 77.656 135.845 77.568C131.469 75.9009 127.41 76.1321 123.982 79.3225C122.225 80.9571 121.158 84.3872 120.784 85.7731C120.739 86.7533 120.767 87.4896 120.767 87.4896Z" fill="white"/>
<defs>
<clipPath id="clip0_9974_1287">
<path d="M151.505 -1.24497e-07C153.078 -5.57392e-08 154.353 1.27517 154.353 2.84817L154.353 80.2234C154.353 81.7964 153.078 83.0715 151.505 83.0715L110.966 83.0715C109.393 83.0715 108.117 81.7964 108.117 80.2234L108.117 2.84817C108.117 1.27517 109.393 -1.96528e-06 110.966 -1.89652e-06L151.505 -1.24497e-07Z" fill="white"/>
</clipPath>
<clipPath id="clip1_9974_1287">
<rect width="13.0824" height="7.26798" fill="white" transform="translate(143.211 6.99805) rotate(90)"/>
</clipPath>
<clipPath id="clip2_9974_1287">
<path d="M149.505 2C151.078 2 152.353 3.27517 152.353 4.84817L152.353 82.2234C152.353 83.7964 151.078 85.0715 149.505 85.0715L108.966 85.0715C107.393 85.0715 106.117 83.7964 106.117 82.2234L106.117 4.84817C106.117 3.27517 107.393 2 108.966 2L149.505 2Z" fill="white"/>
</clipPath>
<clipPath id="clip3_9974_1287">
<rect width="13.0824" height="7.26798" fill="white" transform="translate(141.211 8.99805) rotate(90)"/>
</clipPath>
</defs>
</svg>
