<svg width="157" height="142" viewBox="0 0 157 142" fill="none" xmlns="http://www.w3.org/2000/svg">
<ellipse opacity="0.1" cx="88.8836" cy="135.768" rx="67.2248" ry="6.05024" fill="#0092A6"/>
<path d="M141.11 69.32C141.11 99.6533 102.11 125.653 102.11 125.653C102.11 125.653 63.1096 99.6533 63.1096 69.32C63.1096 58.9765 67.2185 49.0567 74.5324 41.7428C81.8463 34.4289 91.7661 30.32 102.11 30.32C112.453 30.32 122.373 34.4289 129.687 41.7428C137.001 49.0567 141.11 58.9765 141.11 69.32Z" fill="#00A2B9" stroke="#00A2B9" stroke-width="2" stroke-linecap="round" stroke-linejoin="round"/>
<path d="M102.11 82.3199C109.289 82.3199 115.11 76.4996 115.11 69.3199C115.11 62.1402 109.289 56.3199 102.11 56.3199C94.9299 56.3199 89.1096 62.1402 89.1096 69.3199C89.1096 76.4996 94.9299 82.3199 102.11 82.3199Z" fill="white" stroke="white" stroke-width="2" stroke-linecap="round" stroke-linejoin="round"/>
<path d="M95.645 66.2882L91.3955 89.8965C91.0738 91.6836 89.6757 93.0829 87.8889 93.406L40.8895 101.906V80.1976C40.8895 79.5237 41.3539 78.9386 42.0103 78.7856L95.645 66.2882Z" fill="black" fill-opacity="0.13"/>
<path d="M95.114 65.7565L87.5206 83.3163C86.9498 84.6363 85.7634 85.5888 84.3513 85.8609L30.4177 96.2517C29.7785 96.3749 29.3135 95.6585 29.6862 95.1249L40.5664 79.5457C40.7678 79.2574 41.0672 79.052 41.4088 78.968L95.114 65.7565Z" fill="#00A2B9"/>
<path d="M95.114 65.7565L87.5206 83.3163C86.9498 84.6363 85.7634 85.5888 84.3513 85.8609L30.4177 96.2517C29.7785 96.3749 29.3135 95.6585 29.6862 95.1249L40.5664 79.5457C40.7678 79.2574 41.0672 79.052 41.4088 78.968L95.114 65.7565Z" fill="black" fill-opacity="0.08"/>
<path d="M86.2257 77.6708C86.2257 77.6708 110.94 71.0474 124.612 58.8674C128.474 55.4267 126.84 48.0092 124.612 43.8722C118.826 33.1314 113.151 29.3461 101.898 29.3461C91.4485 29.3461 86.2214 34.8473 84.5611 43.8722C83.0553 52.057 91.1195 58.3412 100.091 60.4103C116.428 64.1781 135.674 61.0563 143.915 46.8414C147.622 40.449 150.671 34.8243 146.787 29.3461C142.011 22.6088 129.706 32.3288 122.439 27.5886C117.018 24.0529 114.917 17.3562 114.917 17.3562" stroke="#D9D9D9" stroke-linecap="round" stroke-linejoin="round" stroke-dasharray="2 2"/>
<path d="M110.468 6.67622C109.52 6.74091 108.788 7.17181 108.198 7.95008L107.108 7.6674L106.919 8.39448L107.937 8.65832L107.862 8.94915C107.654 9.74894 107.776 10.4787 108.207 11.2111L108.422 11.5773L107.795 12.501C107.665 12.7003 107.536 12.8996 107.461 13.1904C107.348 13.6267 107.38 14.1006 107.577 14.5395C107.754 15.0511 108.061 15.3635 108.387 15.6031C108.858 15.8805 109.295 15.9935 109.841 15.98C110.407 15.8938 110.827 15.7699 111.139 15.4629C112.155 16.0365 113.156 16.0633 114.163 15.4708C114.896 15.0399 115.356 14.4609 115.564 13.6611C115.658 13.2976 115.714 13.0795 115.698 12.8425C116.393 12.557 116.907 12.0696 117.096 11.3425C117.152 11.1244 117.228 10.8336 117.211 10.5966C117.179 10.1226 116.964 9.75643 116.675 9.37137C116.315 8.96747 115.989 8.72782 115.552 8.61475C115.262 8.53937 115.043 8.48283 114.807 8.49901L113.549 8.56102L113.371 8.04939C112.94 7.31696 112.216 6.81883 111.325 6.6654L111.57 5.72019L110.77 5.5129L110.468 6.67622ZM110.313 14.1623C109.981 14.5421 109.653 14.6121 109.254 14.3536C108.856 14.0951 108.786 13.7666 109.044 13.368L110.52 11.2675C110.8 12.5816 110.719 13.4918 110.313 14.1623ZM115.571 10.6371C115.604 11.111 115.383 11.3642 114.89 11.4692C114.107 11.4989 113.272 11.1273 112.259 10.2441L114.739 9.95584C115.286 9.94234 115.539 10.1631 115.571 10.6371ZM111.944 8.76578L110.668 8.9005L110.595 8.88166L110.32 9.04325L110.301 9.11595L109.564 10.1662C109.421 9.81884 109.351 9.49032 109.445 9.12678C109.539 8.76324 109.779 8.43739 110.145 8.22194C110.511 8.00649 110.84 7.93645 111.203 8.03068C111.384 8.23263 111.71 8.47227 111.944 8.76578Z" fill="#888989"/>
<path d="M74.2114 110.08L85.5439 89.1173L93.0347 93.9077L82.3388 114.107L74.2114 110.08Z" fill="#F5BC1C"/>
<path opacity="0.6" d="M79.2971 113.622L90.9246 92.8256L93.0348 93.9078C93.0348 93.9078 82.9001 113.25 82.4031 113.995C81.9062 114.741 81.1607 115.238 81.1607 115.238L79.2971 113.622Z" fill="#D4AE43"/>
<path d="M84.5416 89.7375L93.0982 94.6077L97.2523 86.9099C97.2523 86.9099 100.111 86.8178 101.77 86.1478C105.414 84.676 107.252 82.229 108.215 78.4188C109.252 74.3171 108.486 71.0479 105.673 67.8875C102.909 64.7813 99.8147 63.411 95.7164 64.1143C91.7682 64.7919 88.8807 66.7287 87.7449 70.5702C87.0056 73.0706 88.3473 77.2196 88.3473 77.2196C88.3473 77.2196 87.1176 74.6207 85.835 73.8306C84.2982 72.8839 83.0182 72.1899 81.3336 72.8271C79.5042 73.519 78.4267 74.7432 78.0235 77.1846C77.6203 79.626 78.8057 80.7525 81.4101 82.435C83.3785 83.7067 87.184 83.8526 87.184 83.8526L84.5416 89.7375Z" fill="#F5F5F5"/>
<path opacity="0.2" d="M100.169 64.2369C100.897 65.3624 101.942 67.0593 102.548 68.4157C102.615 68.5655 102.68 68.7104 102.743 68.8512C103.49 70.5156 103.979 71.6058 104.253 73.5275C104.262 73.5868 104.27 73.6451 104.278 73.7024C104.462 74.9892 104.579 75.8011 104.331 77.1243C103.907 79.3918 103.182 80.8191 101.354 82.2355C99.5915 83.602 95.8821 83.8678 95.8821 83.8678L90.7084 93.2474L93.0981 94.6076L97.2523 86.9098C97.2523 86.9098 100.111 86.8177 101.77 86.1477C105.414 84.6759 107.252 82.2288 108.215 78.4187C109.252 74.3169 108.486 71.0477 105.673 67.8873C104.007 66.0155 102.222 64.7741 100.169 64.2369Z" fill="#CACACA"/>
<path opacity="0.2" d="M92.8073 78.368C92.678 79.4964 91.4353 80.8123 91.7118 81.0622C91.9883 81.3121 93.3908 80.3186 93.9133 79.3678C94.3995 78.483 94.4981 77.7728 94.2236 76.8012C93.9932 75.9858 93.681 75.5067 92.99 75.0162C92.5269 74.6875 91.7263 74.3763 91.6429 74.4685C91.5596 74.5607 92.3717 75.4494 92.6089 76.179C92.8743 76.9953 92.9051 77.5152 92.8073 78.368Z" fill="#CACACA"/>
<path opacity="0.6" d="M82.3532 82.9153C81.722 82.0329 80.7256 80.4434 80.6585 79.122C80.5907 77.7853 80.5622 76.8041 81.426 75.7817C82.152 74.9226 83.0022 74.8124 84.0047 74.6824C84.3252 74.6409 84.6613 74.5973 85.0138 74.5267C85.4485 74.4395 86.0369 74.3693 86.4383 74.3271C86.2417 74.1276 86.039 73.9562 85.835 73.8305C84.2982 72.8838 83.0182 72.1898 81.3336 72.827C79.5043 73.5189 78.4267 74.7431 78.0235 77.1845C77.6204 79.6259 78.8057 80.7524 81.4101 82.4349C81.6923 82.6172 82.0122 82.7764 82.3532 82.9153Z" fill="white"/>
<path opacity="0.6" d="M88.9332 77.9828C88.9332 77.9828 88.2531 74.5328 88.65 72.3771C88.9245 70.8864 89.1162 69.985 89.9523 68.7207C90.708 67.578 91.5124 67.0605 92.4984 66.4263C92.8213 66.2186 93.1636 65.9984 93.53 65.7397C94.3472 65.1626 95.474 64.5045 96.3338 64.0231C96.1306 64.0482 95.9248 64.0786 95.7164 64.1144C91.7682 64.792 88.8807 66.7287 87.7449 70.5702C87.1629 72.5385 87.8705 75.5284 88.198 76.7118C88.5918 77.453 88.9332 77.9828 88.9332 77.9828Z" fill="white"/>
<path d="M34.6216 111.993C34.5408 111.093 47.0967 99.301 47.0967 99.301L52.9891 105.96C52.9891 105.96 41.2889 119.277 40.4147 119.081C39.5404 118.886 37.3432 118.109 36.1316 116.604C34.9437 115.128 34.7024 112.894 34.6216 111.993Z" fill="#FDC427"/>
<path opacity="0.6" d="M52.6683 106.042C51.6852 107.158 41.0001 119.268 40.1661 119.081C39.6456 118.965 38.656 118.642 37.6848 118.083L50.9149 104.404L52.6683 106.042Z" fill="#D4AE43"/>
<rect opacity="0.4" x="54.9459" y="9.63409" width="5.9635" height="29.8175" rx="2.98175" fill="#FDC427"/>
<rect opacity="0.4" x="16.7179" y="22.6763" width="5.9635" height="29.8175" rx="2.98175" transform="rotate(-32.6092 16.7179 22.6763)" fill="#FDC427"/>
<rect opacity="0.4" x="39.7887" y="27.5868" width="4.96958" height="13.9148" rx="2.48479" transform="rotate(-15.2186 39.7887 27.5868)" fill="#FDC427"/>
<rect opacity="0.4" x="71.122" y="26.5874" width="4.96958" height="13.9148" rx="2.48479" transform="rotate(17.8537 71.122 26.5874)" fill="#FDC427"/>
<rect opacity="0.4" x="14.1516" y="47.3921" width="4.96958" height="13.9148" rx="2.48479" transform="rotate(-56.9543 14.1516 47.3921)" fill="#FDC427"/>
<rect opacity="0.4" x="0.5" y="59.4368" width="5.9635" height="22.1146" rx="2.98175" transform="rotate(-76.5005 0.5 59.4368)" fill="#FDC427"/>
<path d="M38.6708 105.05C40.0832 106.987 39.361 112.565 40.0374 114.865C41.2798 119.089 41.0077 119.093 42.5222 123.189C44.2364 127.824 54.0765 129.906 54.0765 129.906H65.0096C65.0096 129.906 72.046 128.087 74.8245 124.431C77.185 121.325 79.0374 118.501 79.6698 114.865C80.1668 112.007 78.3723 106.999 79.6698 105.05C84.8169 97.3182 88.483 94.4019 90.3544 85.3042C92.4826 74.9582 90.9356 67.4129 84.7637 58.8411C77.7396 49.0858 69.3255 44.6988 57.3067 44.9263C45.7186 45.1456 37.7643 49.364 31.0922 58.8411C25.0338 67.4466 23.4847 75.0846 25.9984 85.3042C28.3416 94.8307 32.8902 97.1233 38.6708 105.05Z" fill="#FDC427"/>
<ellipse cx="51.9642" cy="72.5048" rx="8.94524" ry="8.94525" fill="#333333"/>
<ellipse cx="4.47198" cy="3.7633" rx="4.47198" ry="3.7633" transform="matrix(0.837274 -0.546783 0.523983 0.851728 44.3321 69.1819)" fill="white"/>
<ellipse cx="1.86224" cy="1.28082" rx="1.86224" ry="1.28082" transform="matrix(0.787973 -0.615709 0.592808 0.805343 51.7011 74.798)" fill="white"/>
<ellipse cx="75.2181" cy="66.7262" rx="8.94524" ry="8.94525" fill="#333333"/>
<ellipse cx="4.47198" cy="3.7633" rx="4.47198" ry="3.7633" transform="matrix(0.837274 -0.546783 0.523983 0.851728 67.586 63.4033)" fill="white"/>
<ellipse cx="1.86224" cy="1.28082" rx="1.86224" ry="1.28082" transform="matrix(0.787973 -0.615709 0.592808 0.805343 74.955 69.0193)" fill="white"/>
<path d="M58.319 91.4274C58.319 91.4274 58.5235 89.7238 61.744 88.6448C64.9645 87.5658 66.552 88.8727 66.552 88.8727" stroke="#333333" stroke-width="3.67135" stroke-linecap="round"/>
<path opacity="0.4" d="M32.143 62.032C31.7492 62.9662 32.1873 64.0428 33.1215 64.4365C34.0557 64.8303 35.1323 64.3922 35.5261 63.458L32.143 62.032ZM36.3762 58.1751L34.9479 57.022L36.3762 58.1751ZM40.1726 54.7957L39.1779 53.2528L40.1726 54.7957ZM45.3174 54.4872C46.2772 54.1609 46.7908 53.1182 46.4644 52.1583C46.1381 51.1985 45.0954 50.6849 44.1356 51.0113L45.3174 54.4872ZM33.8345 62.745C35.5261 63.458 35.526 63.4582 35.5259 63.4583C35.5259 63.4583 35.5259 63.4584 35.5259 63.4585C35.5258 63.4586 35.5258 63.4586 35.5258 63.4586C35.5258 63.4587 35.5258 63.4585 35.526 63.4582C35.5262 63.4576 35.5268 63.4562 35.5277 63.4542C35.5294 63.4501 35.5323 63.4433 35.5363 63.4339C35.5444 63.4151 35.557 63.3859 35.5738 63.3474C35.6074 63.2702 35.6578 63.156 35.7226 63.013C35.8525 62.7262 36.0387 62.3277 36.2623 61.8832C36.7261 60.9612 37.2899 59.9656 37.8045 59.3282L34.9479 57.022C34.1747 57.9797 33.4677 59.2691 32.9826 60.2332C32.7318 60.7319 32.524 61.1767 32.3786 61.4976C32.3057 61.6584 32.2481 61.789 32.2081 61.8808C32.1881 61.9267 32.1724 61.9629 32.1615 61.9885C32.156 62.0013 32.1517 62.0114 32.1486 62.0187C32.1471 62.0223 32.1458 62.0253 32.1449 62.0275C32.1444 62.0286 32.144 62.0295 32.1437 62.0303C32.1435 62.0307 32.1434 62.031 32.1433 62.0313C32.1432 62.0314 32.1431 62.0316 32.1431 62.0317C32.143 62.0318 32.143 62.032 33.8345 62.745ZM37.8045 59.3282C38.9127 57.9557 39.6424 57.3215 41.1672 56.3385L39.1779 53.2528C37.3557 54.4275 36.3242 55.3173 34.9479 57.022L37.8045 59.3282ZM41.1672 56.3385C41.833 55.9093 42.8383 55.4501 43.754 55.0777C44.1967 54.8977 44.5919 54.7485 44.8758 54.6446C45.0174 54.5928 45.1305 54.5525 45.2069 54.5256C45.2451 54.5122 45.2741 54.5021 45.2929 54.4956C45.3023 54.4924 45.3091 54.4901 45.3132 54.4886C45.3153 54.4879 45.3167 54.4875 45.3174 54.4872C45.3177 54.4871 45.3179 54.487 45.3179 54.487C45.3179 54.487 45.3179 54.4871 45.3178 54.4871C45.3177 54.4871 45.3176 54.4871 45.3176 54.4871C45.3175 54.4872 45.3174 54.4872 44.7265 52.7492C44.1356 51.0113 44.1354 51.0113 44.1353 51.0114C44.1352 51.0114 44.135 51.0115 44.1349 51.0115C44.1346 51.0116 44.1343 51.0117 44.134 51.0118C44.1333 51.0121 44.1324 51.0124 44.1313 51.0127C44.1292 51.0134 44.1264 51.0144 44.1229 51.0156C44.1159 51.018 44.1061 51.0214 44.0937 51.0257C44.0689 51.0342 44.0336 51.0465 43.9888 51.0623C43.8992 51.0938 43.7715 51.1393 43.6139 51.197C43.2994 51.3121 42.8626 51.4769 42.3711 51.6768C41.4185 52.0642 40.1469 52.6282 39.1779 53.2528L41.1672 56.3385Z" fill="white"/>
<path opacity="0.6" d="M39.6708 110.969C39.5971 108.681 39.5176 106.211 38.6708 105.05C38.4005 104.679 38.1329 104.321 37.8681 103.974C41.1414 105.237 44.7589 106.36 47.8745 106.672C56.8749 107.572 62.7338 106.932 70.6772 102.61C78.5763 98.3125 81.6644 93.2801 86.2414 85.8213L86.2442 85.8168C86.4266 85.5196 86.6113 85.2185 86.7988 84.9135C88.5486 82.067 89.9922 78.6288 91.178 75.0195C91.4117 78.203 91.1223 81.5713 90.3544 85.3042C88.9393 92.1836 86.498 95.5285 83.1662 100.094C82.0918 101.566 80.9248 103.165 79.6698 105.05C78.9269 106.166 79.1976 108.285 79.4715 110.428C79.676 112.029 79.8822 113.643 79.6698 114.865C79.0374 118.501 77.185 121.325 74.8245 124.431C72.046 128.087 65.0095 129.906 65.0095 129.906H54.0765C54.0765 129.906 44.2364 127.824 42.5222 123.189C41.5679 120.608 41.3229 119.652 40.9615 118.241C40.7493 117.412 40.497 116.427 40.0374 114.865C39.7665 113.944 39.72 112.497 39.6708 110.969Z" fill="#D4AE43"/>
<ellipse opacity="0.2" cx="45.244" cy="91.9898" rx="5.9635" ry="5.9635" fill="#FF5E5E"/>
<ellipse opacity="0.2" cx="82.4304" cy="83.3325" rx="5.9635" ry="5.9635" fill="#FF5E5E"/>
<path d="M59.0661 113.991C51.4118 113.958 39.5534 112.255 39.5534 112.255C39.5534 112.255 39.4739 117.513 40.4102 122.195C41.1556 125.922 42.946 128.746 46.9949 132.01C50.9999 135.238 54.8963 137.664 60.04 137.6C65.0523 137.539 68.7601 135.246 72.5882 132.01C76.7491 128.492 77.4336 126.543 78.4275 122.195C79.4937 117.53 79.9246 112.255 79.9246 112.255C79.9246 112.255 67.1129 114.026 59.0661 113.991Z" fill="#00A2B9"/>
<path opacity="0.6" d="M79.2333 117.912C76.8455 121.917 73.3038 127.156 70.1714 129.004C65.1046 131.994 63.2879 132.052 57.3153 132.024C53.2888 132.005 48.155 130.766 44.4171 129.68C45.1537 130.443 46.0071 131.213 46.9949 132.01C50.9999 135.238 54.8963 137.664 60.04 137.6C65.0523 137.539 68.7601 135.246 72.5882 132.01C76.7491 128.492 77.4335 126.543 78.4275 122.195C78.7535 120.768 79.0202 119.284 79.2333 117.912Z" fill="#00879A"/>
<rect x="64.7981" y="84.0676" width="7.88916" height="14.9176" transform="rotate(25.5906 64.7981 84.0676)" fill="#0092A6"/>
<circle cx="76.122" cy="67.7221" r="18.3107" fill="#F2F7FA" fill-opacity="0.2"/>
<path fill-rule="evenodd" clip-rule="evenodd" d="M76.122 89.6949C88.2572 89.6949 98.0948 79.8573 98.0948 67.7221C98.0948 55.5868 88.2572 45.7493 76.122 45.7493C63.9867 45.7493 54.1492 55.5868 54.1492 67.7221C54.1492 79.8573 63.9867 89.6949 76.122 89.6949ZM76.122 86.0328C86.2347 86.0328 94.4327 77.8348 94.4327 67.7221C94.4327 57.6094 86.2347 49.4114 76.122 49.4114C66.0093 49.4114 57.8113 57.6094 57.8113 67.7221C57.8113 77.8348 66.0093 86.0328 76.122 86.0328Z" fill="#00A2BA"/>
<path d="M74.474 53.5311C74.2538 54.3735 74.6571 55.3621 75.2065 55.6368C75.7558 55.9115 79.8311 55.9775 82.1645 57.5595C84.1387 58.8978 85.2774 61.588 86.1013 62.2287C86.9253 62.8694 87.6464 63.0106 88.3901 62.5033C89.1495 61.9853 89.1225 61.0383 88.9395 60.2145C88.7564 59.3907 86.6496 56.1011 84.2702 54.4466C81.745 52.6908 78.0446 51.9748 76.7629 52.0663C75.4811 52.1577 74.7424 52.5044 74.474 53.5311Z" fill="white"/>
<path d="M34.5337 111.781C34.7822 110.911 50.7379 104.422 50.7379 104.422L53.8424 112.754C53.8424 112.754 38.1367 120.975 37.3912 120.478C36.6458 119.981 34.8746 118.466 34.2852 116.626C33.7074 114.822 34.2853 112.65 34.5337 111.781Z" fill="#F5BC1C"/>
<path opacity="0.6" d="M53.7453 112.805C52.4265 113.493 38.1023 120.952 37.3912 120.478C36.9474 120.182 36.1399 119.525 35.4347 118.654L52.6979 110.646L53.7453 112.805Z" fill="#D4AE43"/>
<path d="M49.5641 104.315L53.4721 113.352L61.4202 109.699C61.4202 109.699 63.7598 111.345 65.4883 111.807C69.2849 112.822 72.2245 111.972 75.2854 109.507C78.5805 106.853 79.9343 103.781 79.5873 99.5639C79.2463 95.4197 77.5982 92.4643 73.9007 90.5619C70.3387 88.7291 66.867 88.5402 63.6494 90.9265C61.5551 92.4798 60.1322 96.6017 60.1322 96.6017C60.1322 96.6017 60.7125 93.7857 60.1628 92.3831C59.5042 90.7026 58.8988 89.3784 57.1697 88.8745C55.2919 88.3272 53.6948 88.6574 51.9046 90.3656C50.1144 92.0739 50.3841 93.6867 51.4532 96.5972C52.2613 98.797 55.2141 101.202 55.2141 101.202L49.5641 104.315Z" fill="#F5F5F5"/>
<path opacity="0.2" d="M77.3843 93.337C77.2897 94.6744 77.1043 96.6586 76.7724 98.1065C76.7358 98.2665 76.7006 98.4213 76.6664 98.5718C76.2624 100.351 75.9978 101.516 75.061 103.216C75.0321 103.269 75.0038 103.32 74.9759 103.371C74.3493 104.51 73.9539 105.229 72.9606 106.137C71.2582 107.694 69.8203 108.398 67.5086 108.431C65.2783 108.463 62.1546 106.444 62.1546 106.444L52.3806 110.828L53.4721 113.351L61.4202 109.699C61.4202 109.699 63.7598 111.344 65.4883 111.807C69.2849 112.822 72.2245 111.972 75.2853 109.507C78.5805 106.853 79.9342 103.78 79.5873 99.5637C79.3817 97.0663 78.7016 95.0007 77.3843 93.337Z" fill="#CACACA"/>
<path opacity="0.2" d="M63.005 100.201C62.2231 101.025 60.439 101.329 60.5096 101.695C60.5803 102.061 62.2983 102.111 63.2875 101.665C64.2081 101.25 64.7139 100.742 65.0788 99.801C65.3851 99.0109 65.4237 98.4404 65.1666 97.633C64.9942 97.0919 64.5416 96.3617 64.4196 96.3853C64.2976 96.4088 64.412 97.6073 64.1628 98.3328C63.884 99.1447 63.5959 99.5786 63.005 100.201Z" fill="#CACACA"/>
<path opacity="0.6" d="M51.9178 97.548C51.9442 96.4634 52.1039 94.5942 52.8448 93.4981C53.5944 92.3893 54.1617 91.5882 55.4667 91.2908C56.5634 91.0409 57.3089 91.4641 58.1881 91.9631C58.4692 92.1226 58.7639 92.2899 59.0881 92.4455C59.4877 92.6372 60.0001 92.935 60.3462 93.1426C60.3091 92.865 60.2502 92.6061 60.1628 92.3831C59.5042 90.7025 58.8988 89.3783 57.1696 88.8744C55.2919 88.3272 53.6948 88.6574 51.9046 90.3656C50.1144 92.0738 50.384 93.6867 51.4532 96.5971C51.569 96.9124 51.7289 97.232 51.9178 97.548Z" fill="white"/>
<path opacity="0.6" d="M60.1414 97.5637C60.1414 97.5637 61.6726 94.3982 63.2861 92.9145C64.4018 91.8885 65.097 91.2835 66.5253 90.7761C67.8163 90.3175 68.7702 90.3878 69.9394 90.474C70.3222 90.5022 70.7281 90.5321 71.1765 90.5457C72.1764 90.576 73.4724 90.7278 74.4489 90.8602C74.2714 90.758 74.0887 90.6586 73.9007 90.5618C70.3387 88.729 66.8669 88.5402 63.6494 90.9265C62.0008 92.1492 60.7682 94.9636 60.3183 96.1061C60.1872 96.9351 60.1414 97.5637 60.1414 97.5637Z" fill="white"/>
</svg>
