<svg width="161" height="160" viewBox="0 0 161 160" fill="none" xmlns="http://www.w3.org/2000/svg">
<path d="M104.143 120.359C104.128 119.362 89.0067 107.875 89.0067 107.875L83.3108 115.853C83.3108 115.853 97.669 129.111 98.6051 128.796C99.5413 128.481 101.861 127.377 103.017 125.588C104.15 123.833 104.158 121.356 104.143 120.359Z" fill="#FDC427"/>
<path opacity="0.6" d="M83.6718 115.906C84.8779 117.018 97.9844 129.068 98.8774 128.767C99.4348 128.58 100.483 128.113 101.483 127.388L85.4062 113.909L83.6718 115.906Z" fill="#D4AE43"/>
<ellipse opacity="0.1" cx="77.4547" cy="155.069" rx="54.7872" ry="4.93086" fill="#0092A6"/>
<path d="M93.7634 121.715L106.257 98.6052L114.515 103.886L102.723 126.155L93.7634 121.715Z" fill="#F5BC1C"/>
<path opacity="0.6" d="M99.3701 125.621L112.189 102.693L114.515 103.887C114.515 103.887 103.342 125.21 102.794 126.032C102.246 126.854 101.425 127.402 101.425 127.402L99.3701 125.621Z" fill="#D4AE43"/>
<path d="M105.152 99.2887L114.585 104.658L119.165 96.1715C119.165 96.1715 122.317 96.0699 124.146 95.3312C128.163 93.7087 130.189 91.0109 131.251 86.8105C132.394 82.2884 131.55 78.6843 128.449 75.2001C125.401 71.7758 121.99 70.265 117.472 71.0404C113.119 71.7874 109.936 73.9226 108.684 78.1577C107.869 80.9143 109.348 85.4884 109.348 85.4884C109.348 85.4884 107.992 82.6232 106.578 81.7521C104.884 80.7084 103.473 79.9434 101.615 80.6458C99.5987 81.4086 98.4107 82.7583 97.9663 85.4498C97.5218 88.1413 98.8286 89.3832 101.7 91.2381C103.87 92.6401 108.065 92.8009 108.065 92.8009L105.152 99.2887Z" fill="#F5F5F5"/>
<path opacity="0.2" d="M122.38 71.1755C123.184 72.4163 124.336 74.287 125.003 75.7824C125.077 75.9476 125.149 76.1073 125.218 76.2625C126.042 78.0975 126.581 79.2994 126.883 81.418C126.893 81.4834 126.902 81.5476 126.911 81.6108C127.114 83.0294 127.242 83.9245 126.969 85.3832C126.502 87.883 125.702 89.4565 123.688 91.0181C121.744 92.5246 117.655 92.8176 117.655 92.8176L111.951 103.158L114.585 104.658L119.165 96.1713C119.165 96.1713 122.317 96.0698 124.146 95.3311C128.163 93.7085 130.189 91.0108 131.251 86.8103C132.394 82.2883 131.55 78.6841 128.449 75.1999C126.612 73.1364 124.644 71.7677 122.38 71.1755Z" fill="#CACACA"/>
<path opacity="0.2" d="M114.265 86.7545C114.122 87.9985 112.752 89.4492 113.057 89.7247C113.362 90.0002 114.908 88.9049 115.484 87.8567C116.02 86.8812 116.129 86.0983 115.826 85.0272C115.572 84.1282 115.228 83.6 114.466 83.0593C113.956 82.6969 113.073 82.3538 112.981 82.4555C112.889 82.5571 113.784 83.5369 114.046 84.3412C114.338 85.2412 114.372 85.8144 114.265 86.7545Z" fill="#CACACA"/>
<path opacity="0.6" d="M102.739 91.7676C102.044 90.7948 100.945 89.0425 100.871 87.5857C100.796 86.112 100.765 85.0303 101.717 83.9032C102.518 82.956 103.455 82.8346 104.56 82.6913C104.914 82.6455 105.284 82.5975 105.673 82.5196C106.152 82.4235 106.801 82.3461 107.243 82.2996C107.026 82.0797 106.803 81.8907 106.578 81.7521C104.884 80.7084 103.473 79.9433 101.616 80.6458C99.5987 81.4086 98.4107 82.7582 97.9663 85.4497C97.5218 88.1413 98.8286 89.3832 101.7 91.2381C102.011 91.439 102.364 91.6145 102.739 91.7676Z" fill="white"/>
<path opacity="0.6" d="M109.993 86.3296C109.993 86.3296 109.244 82.5261 109.681 80.1496C109.984 78.5061 110.195 77.5124 111.117 76.1186C111.95 74.8587 112.837 74.2883 113.924 73.5891C114.28 73.3601 114.657 73.1174 115.061 72.8321C115.962 72.196 117.204 71.4704 118.152 70.9397C117.928 70.9674 117.701 71.0009 117.472 71.0403C113.119 71.7873 109.936 73.9225 108.683 78.1576C108.042 80.3275 108.822 83.6237 109.183 84.9284C109.617 85.7455 109.993 86.3296 109.993 86.3296Z" fill="white"/>
<path d="M50.1174 123.825C50.0283 122.832 63.8706 109.832 63.8706 109.832L70.3667 117.173C70.3667 117.173 57.4678 131.855 56.5039 131.639C55.5401 131.423 53.1178 130.567 51.7821 128.908C50.4724 127.281 50.2064 124.818 50.1174 123.825Z" fill="#FDC427"/>
<path opacity="0.6" d="M70.0132 117.264C68.9294 118.495 57.1496 131.845 56.2302 131.639C55.6563 131.511 54.5654 131.155 53.4946 130.538L68.0802 115.458L70.0132 117.264Z" fill="#D4AE43"/>
<rect opacity="0.4" x="72.5239" y="10.9785" width="6.57447" height="32.8724" rx="3.28723" fill="#FDC427"/>
<rect opacity="0.4" x="30.3794" y="25.3569" width="6.57447" height="32.8724" rx="3.28724" transform="rotate(-32.6092 30.3794 25.3569)" fill="#FDC427"/>
<rect opacity="0.4" x="55.814" y="30.7705" width="5.47872" height="15.3404" rx="2.73936" transform="rotate(-15.2186 55.814 30.7705)" fill="#FDC427"/>
<rect opacity="0.4" x="116.807" y="22.4761" width="6.57447" height="32.8724" rx="3.28723" transform="rotate(35.4732 116.807 22.4761)" fill="#FDC427"/>
<rect opacity="0.4" x="90.3574" y="29.6687" width="5.47872" height="15.3404" rx="2.73936" transform="rotate(17.8537 90.3574 29.6687)" fill="#FDC427"/>
<rect opacity="0.4" x="118.797" y="46.8213" width="5.47872" height="15.3404" rx="2.73936" transform="rotate(50.5604 118.797 46.8213)" fill="#FDC427"/>
<rect opacity="0.4" x="27.5503" y="52.6047" width="5.47873" height="15.3404" rx="2.73936" transform="rotate(-56.9543 27.5503 52.6047)" fill="#FDC427"/>
<rect opacity="0.4" x="12.5" y="65.8835" width="6.57448" height="24.3803" rx="3.28724" transform="rotate(-76.5005 12.5 65.8835)" fill="#FDC427"/>
<rect opacity="0.4" width="6.57448" height="24.3803" rx="3.28724" transform="matrix(-0.233436 -0.972372 -0.972372 0.233437 138.396 65.8833)" fill="#FDC427"/>
<path d="M54.5813 116.17C56.1385 118.305 55.3423 124.455 56.088 126.99C57.4576 131.647 57.1576 131.652 58.8273 136.167C60.7172 141.278 71.5654 143.573 71.5654 143.573H83.6186C83.6186 143.573 91.3759 141.567 94.439 137.537C97.0414 134.113 99.0836 130.999 99.7808 126.99C100.329 123.84 98.3503 118.319 99.7808 116.17C105.455 107.646 109.497 104.431 111.56 94.4011C113.906 82.9952 112.201 74.6769 105.396 65.2269C97.6528 54.4722 88.3767 49.6357 75.1265 49.8865C62.3511 50.1283 53.582 54.7788 46.2263 65.2269C39.5471 74.714 37.8394 83.1345 40.6106 94.4011C43.1938 104.904 48.2085 107.431 54.5813 116.17Z" fill="#FDC427"/>
<ellipse cx="62.1146" cy="81.3803" rx="9.8617" ry="9.86171" fill="#333333"/>
<ellipse cx="4.93015" cy="4.14886" rx="4.93015" ry="4.14886" transform="matrix(0.837274 -0.546783 0.523983 0.851728 53.7007 77.7168)" fill="white"/>
<ellipse cx="2.05303" cy="1.41205" rx="2.05303" ry="1.41205" transform="matrix(0.787973 -0.615709 0.592808 0.805343 61.8247 83.9084)" fill="white"/>
<ellipse cx="91.4257" cy="81.3803" rx="9.8617" ry="9.86171" fill="#333333"/>
<ellipse cx="4.93015" cy="4.14886" rx="4.93015" ry="4.14886" transform="matrix(0.837274 -0.546783 0.523983 0.851728 83.0117 77.7168)" fill="white"/>
<ellipse cx="2.05303" cy="1.41205" rx="2.05303" ry="1.41205" transform="matrix(0.787973 -0.615709 0.592808 0.805343 91.1357 83.9084)" fill="white"/>
<path d="M72.7683 100.172C72.7683 100.172 73.5524 98.4508 77.2964 98.3933C81.0403 98.3358 82.2715 100.239 82.2715 100.239" stroke="#333333" stroke-width="3.28724" stroke-linecap="round"/>
<path opacity="0.4" d="M47.7348 68.8923C47.3822 69.7287 47.7744 70.6927 48.6109 71.0453C49.4474 71.3978 50.4113 71.0056 50.7639 70.1691L47.7348 68.8923ZM52.0514 64.4926L50.7726 63.4601L52.0514 64.4926ZM56.2367 60.7669L55.3461 59.3855L56.2367 60.7669ZM61.7863 60.067C62.6457 59.7748 63.1055 58.8412 62.8133 57.9818C62.5211 57.1223 61.5875 56.6625 60.7281 56.9547L61.7863 60.067ZM49.2493 69.5307C50.7639 70.1691 50.7638 70.1692 50.7638 70.1693C50.7638 70.1693 50.7637 70.1694 50.7637 70.1695C50.7637 70.1696 50.7637 70.1696 50.7637 70.1696C50.7637 70.1695 50.7638 70.1693 50.764 70.1688C50.7644 70.1679 50.7651 70.1663 50.7661 70.1639C50.7681 70.1591 50.7715 70.1512 50.7761 70.1405C50.7852 70.1191 50.7994 70.0862 50.8183 70.0429C50.856 69.9564 50.9123 69.8287 50.9846 69.6692C51.1294 69.3495 51.3369 68.9054 51.5863 68.4098C52.0998 67.389 52.7362 66.2609 53.3303 65.5251L50.7726 63.4601C49.9469 64.4828 49.1823 65.8738 48.6497 66.9324C48.376 67.4765 48.1491 67.9621 47.9904 68.3124C47.9109 68.4878 47.8481 68.6301 47.8047 68.7298C47.783 68.7796 47.7661 68.8189 47.7543 68.8463C47.7484 68.8601 47.7438 68.8709 47.7406 68.8786C47.7389 68.8824 47.7376 68.8855 47.7366 68.8878C47.7362 68.8889 47.7358 68.8899 47.7354 68.8906C47.7353 68.891 47.7352 68.8913 47.735 68.8916C47.735 68.8917 47.7349 68.8919 47.7349 68.892C47.7348 68.8921 47.7348 68.8923 49.2493 69.5307ZM53.3303 65.5251C54.5797 63.9775 55.4155 63.2519 57.1273 62.1484L55.3461 59.3855C53.368 60.6607 52.2621 61.6152 50.7726 63.4601L53.3303 65.5251ZM57.1273 62.1484C57.8927 61.6549 59.0286 61.1378 60.0419 60.7257C60.535 60.5252 60.9749 60.3592 61.2911 60.2435C61.4489 60.1857 61.5751 60.1408 61.6607 60.1106C61.7035 60.0956 61.7362 60.0843 61.7575 60.0769C61.7681 60.0732 61.7759 60.0705 61.7808 60.0689C61.7832 60.068 61.7849 60.0675 61.7858 60.0671C61.7863 60.067 61.7866 60.0669 61.7866 60.0669C61.7867 60.0668 61.7867 60.0669 61.7866 60.0669C61.7866 60.0669 61.7865 60.0669 61.7865 60.0669C61.7864 60.0669 61.7863 60.067 61.2572 58.5108C60.7281 56.9547 60.728 56.9548 60.7278 56.9548C60.7278 56.9548 60.7276 56.9549 60.7275 56.9549C60.7272 56.955 60.7269 56.9551 60.7266 56.9552C60.7259 56.9555 60.725 56.9558 60.7239 56.9562C60.7217 56.9569 60.7187 56.9579 60.715 56.9592C60.7076 56.9617 60.6971 56.9653 60.6837 56.97C60.657 56.9792 60.6188 56.9925 60.57 57.0096C60.4726 57.0439 60.3333 57.0935 60.1612 57.1565C59.8177 57.2822 59.3404 57.4624 58.8036 57.6806C57.7573 58.1061 56.383 58.7171 55.3461 59.3855L57.1273 62.1484Z" fill="white"/>
<path opacity="0.6" d="M55.6836 122.695C55.6024 120.173 55.5147 117.45 54.5812 116.17C54.2832 115.761 53.9882 115.366 53.6963 114.983C57.3049 116.377 61.293 117.614 64.7279 117.958C74.6504 118.951 81.1095 118.244 89.8667 113.48C98.5751 108.742 101.98 103.194 107.026 94.9713L107.029 94.9662C107.23 94.6386 107.433 94.3067 107.64 93.9704C109.569 90.8324 111.161 87.0419 112.468 83.0627C112.726 86.5724 112.406 90.2858 111.56 94.4012C110 101.985 107.308 105.673 103.635 110.706C102.451 112.329 101.164 114.091 99.7806 116.17C98.9616 117.4 99.2601 119.736 99.562 122.099C99.7874 123.864 100.015 125.644 99.7806 126.99C99.0834 130.999 97.0413 134.113 94.4389 137.537C91.3758 141.567 83.6184 143.573 83.6184 143.573H71.5652C71.5652 143.573 60.717 141.278 58.8272 136.167C57.7751 133.322 57.505 132.268 57.1065 130.712C56.8726 129.799 56.5944 128.713 56.0878 126.99C55.7892 125.975 55.7378 124.38 55.6836 122.695Z" fill="#D4AE43"/>
<ellipse opacity="0.2" cx="56.3621" cy="99.4688" rx="6.57447" ry="6.57448" fill="#FF5E5E"/>
<ellipse opacity="0.2" cx="99.096" cy="97.2774" rx="6.57447" ry="6.57448" fill="#FF5E5E"/>
<path d="M77.066 126.027C68.6275 125.99 55.5541 124.114 55.5541 124.114C55.5541 124.114 55.4664 129.91 56.4987 135.071C57.3205 139.18 59.2944 142.294 63.758 145.892C68.1734 149.451 72.469 152.125 78.1397 152.055C83.6655 151.987 87.7531 149.459 91.9734 145.892C96.5606 142.014 97.3152 139.865 98.4109 135.071C99.5864 129.929 100.061 124.114 100.061 124.114C100.061 124.114 85.9372 126.065 77.066 126.027Z" fill="#00A2B9"/>
<path opacity="0.6" d="M99.2992 130.35C96.6668 134.765 92.7621 140.541 89.3089 142.578C83.723 145.874 81.7202 145.938 75.1356 145.908C70.6966 145.887 65.0368 144.521 60.916 143.324C61.728 144.165 62.6688 145.014 63.7578 145.892C68.1732 149.451 72.4688 152.125 78.1395 152.055C83.6653 151.987 87.753 149.46 91.9733 145.892C96.5605 142.014 97.315 139.865 98.4108 135.071C98.7703 133.499 99.0643 131.863 99.2992 130.35Z" fill="#00879A" stroke="#00A2B9" stroke-width="0.273936"/>
<path d="M50.0206 123.591C50.2945 122.632 67.8849 115.478 67.8849 115.478L71.3075 124.663C71.3075 124.663 53.9927 133.726 53.1709 133.178C52.3491 132.63 50.3964 130.961 49.7467 128.932C49.1096 126.943 49.7467 124.549 50.0206 123.591Z" fill="#F5BC1C"/>
<path opacity="0.6" d="M71.2002 124.719C69.7463 125.478 53.9545 133.701 53.1706 133.178C52.6813 132.852 51.7911 132.128 51.0137 131.167L70.0455 122.339L71.2002 124.719Z" fill="#D4AE43"/>
<path d="M66.5905 115.359L70.8989 125.322L79.6613 121.295C79.6613 121.295 82.2406 123.109 84.1462 123.619C88.3317 124.738 91.5726 123.801 94.947 121.083C98.5797 118.158 100.072 114.77 99.6896 110.122C99.3137 105.553 97.4968 102.295 93.4205 100.197C89.4935 98.1768 85.6661 97.9685 82.1189 100.599C79.81 102.312 78.2413 106.856 78.2413 106.856C78.2413 106.856 78.8811 103.751 78.2751 102.205C77.549 100.352 76.8816 98.8926 74.9753 98.3371C72.9052 97.7338 71.1444 98.0978 69.1708 99.981C67.1971 101.864 67.4945 103.642 68.6731 106.851C69.564 109.276 72.8194 111.927 72.8194 111.927L66.5905 115.359Z" fill="#F5F5F5"/>
<path opacity="0.2" d="M97.261 103.257C97.1567 104.731 96.9522 106.919 96.5864 108.515C96.546 108.691 96.5072 108.862 96.4695 109.028C96.0241 110.989 95.7324 112.274 94.6997 114.148C94.6678 114.206 94.6365 114.263 94.6057 114.319C93.915 115.575 93.4791 116.367 92.384 117.368C90.5072 119.085 88.922 119.861 86.3734 119.897C83.9147 119.932 80.471 117.707 80.471 117.707L69.6955 122.539L70.8988 125.322L79.6613 121.295C79.6613 121.295 82.2405 123.109 84.1461 123.619C88.3317 124.738 91.5725 123.801 94.9469 121.083C98.5797 118.158 100.072 114.77 99.6896 110.122C99.463 107.368 98.7132 105.091 97.261 103.257Z" fill="#CACACA"/>
<path opacity="0.2" d="M81.4086 110.824C80.5466 111.732 78.5797 112.068 78.6575 112.471C78.7354 112.875 80.6295 112.929 81.72 112.438C82.7349 111.981 83.2925 111.421 83.6949 110.383C84.0325 109.512 84.0751 108.883 83.7916 107.993C83.6016 107.396 83.1026 106.591 82.9681 106.617C82.8336 106.643 82.9598 107.965 82.685 108.764C82.3776 109.659 82.06 110.138 81.4086 110.824Z" fill="#CACACA"/>
<path opacity="0.6" d="M69.1858 107.899C69.2148 106.704 69.3909 104.643 70.2078 103.434C71.0341 102.212 71.6595 101.329 73.0982 101.001C74.3073 100.725 75.1292 101.192 76.0984 101.742C76.4083 101.918 76.7332 102.103 77.0906 102.274C77.5312 102.485 78.0961 102.814 78.4776 103.043C78.4367 102.736 78.3718 102.451 78.2755 102.205C77.5494 100.352 76.8819 98.8926 74.9756 98.337C72.9055 97.7338 71.1448 98.0978 69.1711 99.981C67.1975 101.864 67.4948 103.642 68.6735 106.851C68.8012 107.199 68.9775 107.551 69.1858 107.899Z" fill="white"/>
<path opacity="0.6" d="M78.2518 107.917C78.2518 107.917 79.9399 104.427 81.7186 102.791C82.9486 101.66 83.715 100.993 85.2897 100.434C86.7129 99.928 87.7646 100.006 89.0535 100.101C89.4756 100.132 89.9231 100.165 90.4174 100.18C91.5197 100.213 92.9486 100.38 94.0251 100.526C93.8294 100.414 93.628 100.304 93.4208 100.197C89.4937 98.1768 85.6663 97.9686 82.1191 100.599C80.3016 101.947 78.9428 105.05 78.4467 106.31C78.3022 107.224 78.2518 107.917 78.2518 107.917Z" fill="white"/>
</svg>
