<svg width="161" height="160" viewBox="0 0 161 160" fill="none" xmlns="http://www.w3.org/2000/svg">
<path d="M112.946 23.5458C111.461 22.8105 109.715 22.8105 108.231 23.5458C96.3245 29.445 84.4183 32.3481 72.512 34.8102C70.1801 35.2924 68.5 37.3398 68.5 39.721V82.0161C68.5 97.5266 91.235 118.706 110.588 128.535C129.941 118.706 152.676 97.5266 152.676 82.0161V39.724C152.676 37.3432 150.997 35.2961 148.666 34.8135C136.759 32.3485 124.852 29.4452 112.946 23.5458Z" fill="#0092A6"/>
<path d="M108.897 18.552C109.961 18.0245 111.215 18.0245 112.28 18.552C124.366 24.5403 136.428 27.474 148.362 29.9445C150.002 30.2841 151.176 31.7222 151.176 33.3861V77.6782C151.176 81.2042 149.878 85.1774 147.515 89.3719C145.159 93.5536 141.798 97.8624 137.806 102.031C130.008 110.175 119.924 117.66 110.588 122.511C101.252 117.66 91.1681 110.175 83.3701 102.031C79.3786 97.8624 76.0173 93.5536 73.6616 89.3719C71.2987 85.1774 70 81.2042 70 77.6782V33.3831C70 31.7189 71.1749 30.2805 72.8158 29.9412C84.749 27.4736 96.811 24.54 108.897 18.552Z" fill="#00A2B9" stroke="white" stroke-width="3"/>
<circle cx="110.5" cy="69" r="22" fill="#FFFCFC"/>
<circle cx="110.501" cy="69.0003" r="15.8333" stroke="#FF5E5E" stroke-width="5"/>
<path d="M120.5 58.333L99.8333 78.9997" stroke="#FF5E5E" stroke-width="5" stroke-linecap="round"/>
<ellipse opacity="0.1" cx="81.6331" cy="145.248" rx="58.3128" ry="5.24815" fill="#0092A6"/>
<path d="M45.8657 93.992L34.8115 111.813L41.7455 115.439L52.4951 98.4383L45.8657 93.992Z" fill="#F5BC1C"/>
<path opacity="0.6" d="M50.4003 97.3871L39.9954 114.3L41.7446 115.439L52.4942 98.4377L50.4003 97.3871Z" fill="#D4AE43"/>
<path d="M34.8432 110.777L42.3042 115.182L38.2416 121.721C38.2416 121.721 39.4213 123.944 39.635 125.504C40.1044 128.931 39.039 131.404 36.5503 133.806C33.8711 136.392 31.0393 137.236 27.3957 136.47C23.8146 135.717 21.4152 133.953 20.1603 130.515C18.9514 127.204 19.168 124.152 21.6052 121.604C23.1916 119.946 26.947 119.157 26.947 119.157C26.947 119.157 24.4244 119.354 23.2602 118.72C21.8652 117.96 20.7754 117.286 20.5255 115.721C20.254 114.021 20.7178 112.663 22.4061 111.288C24.0943 109.912 25.473 110.325 27.8968 111.578C29.7288 112.526 31.5041 115.368 31.5041 115.368L34.8432 110.777Z" fill="#F5F5F5"/>
<path opacity="0.2" d="M22.1997 133.861C23.3779 133.926 25.1307 133.982 26.4315 133.851C26.5751 133.837 26.7142 133.823 26.8494 133.81C28.4471 133.653 29.4937 133.55 31.0812 132.918C31.1302 132.899 31.1783 132.88 31.2257 132.861C32.289 132.439 32.9599 132.173 33.8622 131.405C35.4086 130.09 36.1814 128.912 36.4642 126.897C36.737 124.953 35.318 122.004 35.318 122.004L40.2192 113.951L42.303 115.182L38.2404 121.72C38.2404 121.72 39.4201 123.944 39.6338 125.504C40.1032 128.93 39.0378 131.404 36.5491 133.806C33.8699 136.391 31.0381 137.236 27.3945 136.469C25.2365 136.015 23.5076 135.194 22.1997 133.861Z" fill="#CACACA"/>
<path opacity="0.2" d="M29.7722 122.061C30.5775 121.468 31.039 119.944 31.3508 120.046C31.6626 120.148 31.517 121.653 31.0194 122.468C30.5562 123.226 30.0569 123.612 29.1949 123.827C28.4714 124.008 27.969 123.979 27.2922 123.666C26.8387 123.456 26.2509 122.98 26.2849 122.876C26.3188 122.773 27.3527 123.004 28.0136 122.866C28.7531 122.712 29.1637 122.508 29.7722 122.061Z" fill="#CACACA"/>
<path opacity="0.6" d="M28.6764 112.088C27.7265 111.992 26.0769 111.926 25.0384 112.453C23.9878 112.985 23.226 113.392 22.8229 114.499C22.4842 115.429 22.7718 116.127 23.1109 116.949C23.2194 117.212 23.333 117.488 23.4332 117.788C23.5567 118.158 23.7604 118.638 23.9036 118.963C23.6653 118.9 23.4458 118.821 23.2606 118.72C21.8656 117.96 20.7759 117.286 20.5259 115.721C20.2544 114.021 20.7182 112.663 22.4065 111.287C24.0948 109.912 25.4734 110.325 27.8972 111.578C28.1598 111.714 28.4212 111.888 28.6764 112.088Z" fill="white"/>
<path opacity="0.6" d="M27.7872 119.271C27.7872 119.271 24.855 120.26 23.3822 121.506C22.3637 122.367 21.7591 122.908 21.1591 124.099C20.6168 125.176 20.5734 126.017 20.5201 127.047C20.5027 127.384 20.4842 127.742 20.4468 128.135C20.3634 129.011 20.3535 130.16 20.3618 131.027C20.2921 130.861 20.2253 130.69 20.1615 130.516C18.9526 127.204 19.1692 124.152 21.6064 121.605C22.8552 120.299 25.448 119.532 26.4951 119.265C27.2333 119.242 27.7872 119.271 27.7872 119.271Z" fill="white"/>
<path d="M73.2477 94.0332L84.3872 111.801L77.4706 115.46L66.6397 98.5112L73.2477 94.0332Z" fill="#F5BC1C"/>
<path opacity="0.6" d="M68.7276 97.4507L79.2135 114.314L77.4697 115.461L66.6388 98.5113L68.7276 97.4507Z" fill="#D4AE43"/>
<path d="M84.3462 110.765L76.9063 115.206L81.0002 121.725C81.0002 121.725 79.8312 123.954 79.6249 125.515C79.172 128.944 80.2493 131.412 82.7494 133.802C85.441 136.375 88.2768 137.206 91.9167 136.422C95.4941 135.652 97.885 133.876 99.1234 130.433C100.316 127.115 100.085 124.064 97.6358 121.529C96.0415 119.879 92.2824 119.107 92.2824 119.107C92.2824 119.107 94.8059 119.292 95.9671 118.653C97.3584 117.886 98.4449 117.207 98.6874 115.64C98.9507 113.94 98.4804 112.583 96.7856 111.216C95.0907 109.849 93.7141 110.268 91.2963 111.533C89.4689 112.489 87.7071 115.34 87.7071 115.34L84.3462 110.765Z" fill="#F5F5F5"/>
<path opacity="0.2" d="M97.1001 133.79C95.9222 133.86 94.1696 133.924 92.8683 133.8C92.7245 133.786 92.5854 133.773 92.4502 133.76C90.8517 133.611 89.8046 133.513 88.2141 132.889C88.1651 132.87 88.1168 132.851 88.0694 132.832C87.004 132.416 86.3318 132.153 85.4259 131.389C83.8732 130.081 83.0948 128.907 82.8023 126.894C82.5202 124.951 83.9251 121.995 83.9251 121.995L78.9853 113.966L76.9074 115.206L81.0013 121.725C81.0013 121.725 79.8323 123.955 79.6261 125.516C79.1731 128.944 80.2504 131.413 82.7505 133.802C85.4421 136.375 88.2779 137.206 91.9178 136.422C94.0736 135.958 95.7986 135.129 97.1001 133.79Z" fill="#CACACA"/>
<path opacity="0.2" d="M89.4699 122.024C88.6618 121.436 88.193 119.914 87.8817 120.017C87.5704 120.12 87.7231 121.625 88.2247 122.438C88.6915 123.194 89.1926 123.577 90.0557 123.788C90.78 123.965 91.2823 123.934 91.9575 123.617C92.4101 123.405 92.9956 122.927 92.9611 122.823C92.9266 122.719 91.8939 122.956 91.2323 122.821C90.4921 122.671 90.0806 122.469 89.4699 122.024Z" fill="#CACACA"/>
<path opacity="0.6" d="M90.5194 112.047C91.4688 111.946 93.1181 111.873 94.1591 112.394C95.2122 112.922 95.976 113.325 96.3844 114.43C96.7276 115.359 96.4433 116.058 96.1081 116.882C96.001 117.145 95.8886 117.421 95.7899 117.722C95.6681 118.093 95.4668 118.574 95.3251 118.899C95.5631 118.835 95.7822 118.754 95.9669 118.653C97.3583 117.886 98.4447 117.207 98.6872 115.641C98.9505 113.94 98.4802 112.584 96.7854 111.216C95.0906 109.849 93.7139 110.268 91.2961 111.533C91.0342 111.67 90.7736 111.846 90.5194 112.047Z" fill="white"/>
<path opacity="0.6" d="M91.444 119.224C91.444 119.224 94.3809 120.199 95.8596 121.438C96.8822 122.295 97.4894 122.832 98.0951 124.021C98.6426 125.095 98.69 125.935 98.7482 126.966C98.7673 127.303 98.7875 127.66 98.8267 128.053C98.9143 128.929 98.9298 130.078 98.9256 130.945C98.9945 130.778 99.0604 130.607 99.1234 130.432C100.316 127.115 100.085 124.064 97.6358 121.528C96.3808 120.229 93.7843 119.475 92.736 119.212C91.9977 119.193 91.444 119.224 91.444 119.224Z" fill="white"/>
<path d="M41.0894 103.971C42.3324 105.675 41.6968 110.584 42.2921 112.608C43.3854 116.326 43.1459 116.329 44.4788 119.934C45.9874 124.013 54.6471 125.845 54.6471 125.845H64.2687C64.2687 125.845 70.4611 124.244 72.9063 121.027C74.9837 118.294 76.6138 115.808 77.1704 112.608C77.6077 110.093 76.0285 105.686 77.1704 103.971C81.7001 97.1664 84.9264 94.5999 86.5733 86.5935C88.4462 77.4886 87.0848 70.8484 81.6532 63.3048C75.4717 54.7197 68.0669 50.859 57.4898 51.0591C47.2917 51.2522 40.2916 54.9645 34.4198 63.3048C29.0881 70.878 27.7249 77.5998 29.937 86.5935C31.9992 94.9772 36.0022 96.9948 41.0894 103.971Z" fill="#FDC427"/>
<path d="M39.0318 79.5326C39.0318 79.5326 39.8243 83.4357 44.6099 84.1969C49.3956 84.9581 51.2717 80.0152 51.2717 80.0152" stroke="#333333" stroke-width="3.52941" stroke-linecap="round"/>
<path d="M63.4496 79.0786C63.4496 79.0786 65.8347 83.7931 70.5649 83.0526C75.2951 82.312 76.1289 78.2876 76.1289 78.2876" stroke="#333333" stroke-width="3.52941" stroke-linecap="round"/>
<path opacity="0.4" d="M35.6742 66.6042C35.2989 67.4945 35.7164 68.5204 36.6067 68.8957C37.497 69.271 38.5229 68.8535 38.8982 67.9632L35.6742 66.6042ZM39.523 63.262L38.1619 62.1631L39.523 63.262ZM42.8639 60.2879L41.9161 58.8176L42.8639 60.2879ZM47.4347 60.1432C48.3495 59.8322 48.8389 58.8386 48.5279 57.9238C48.2169 57.0091 47.2232 56.5197 46.3085 56.8307L47.4347 60.1432ZM37.2862 67.2837C38.8982 67.9632 38.8981 67.9633 38.8981 67.9634C38.8981 67.9635 38.898 67.9636 38.898 67.9636C38.898 67.9637 38.8979 67.9638 38.8979 67.9638C38.8979 67.9639 38.898 67.9638 38.8981 67.9635C38.8983 67.963 38.8988 67.9619 38.8995 67.9601C38.901 67.9567 38.9035 67.9508 38.9069 67.9427C38.9139 67.9264 38.9249 67.9009 38.9395 67.8673C38.9689 67.7999 39.013 67.7 39.0697 67.5748C39.1835 67.3237 39.3466 66.9746 39.5424 66.5855C39.9498 65.7756 40.4407 64.9101 40.8842 64.3609L38.1619 62.1631C37.472 63.0176 36.8445 64.163 36.4168 65.013C36.1951 65.4538 36.0114 65.847 35.8829 66.1306C35.8185 66.2728 35.7675 66.3883 35.7321 66.4696C35.7143 66.5103 35.7005 66.5425 35.6907 66.5652C35.6859 66.5766 35.682 66.5856 35.6793 66.5921C35.6779 66.5954 35.6768 66.598 35.6759 66.6C35.6755 66.601 35.6751 66.6019 35.6748 66.6026C35.6747 66.6029 35.6745 66.6032 35.6744 66.6035C35.6744 66.6036 35.6743 66.6038 35.6743 66.6039C35.6742 66.604 35.6742 66.6042 37.2862 67.2837ZM40.8842 64.3609C41.8496 63.1651 42.4808 62.6163 43.8118 61.7582L41.9161 58.8176C40.3016 59.8584 39.3828 60.6507 38.1619 62.1631L40.8842 64.3609ZM43.8118 61.7582C44.3867 61.3876 45.2617 60.9873 46.0663 60.6602C46.454 60.5025 46.8003 60.3718 47.049 60.2807C47.1731 60.2353 47.2721 60.2001 47.3389 60.1766C47.3722 60.1649 47.3975 60.1561 47.4138 60.1504C47.422 60.1476 47.4278 60.1456 47.4314 60.1444C47.4331 60.1438 47.4343 60.1434 47.4349 60.1432C47.4352 60.1431 47.4353 60.1431 47.4353 60.1431C47.4353 60.1431 47.4352 60.1431 47.4351 60.1431C47.4351 60.1431 47.435 60.1432 47.435 60.1432C47.4349 60.1432 47.4347 60.1432 46.8716 58.487C46.3085 56.8307 46.3083 56.8308 46.3082 56.8308C46.3081 56.8308 46.308 56.8309 46.3079 56.8309C46.3076 56.831 46.3073 56.8311 46.307 56.8312C46.3064 56.8314 46.3056 56.8317 46.3046 56.832C46.3027 56.8327 46.3002 56.8335 46.297 56.8346C46.2907 56.8368 46.282 56.8398 46.271 56.8436C46.249 56.8512 46.2176 56.8621 46.178 56.876C46.0987 56.9039 45.9857 56.9442 45.8464 56.9951C45.5685 57.0969 45.1826 57.2425 44.7483 57.4191C43.9086 57.7606 42.7799 58.2607 41.9161 58.8176L43.8118 61.7582Z" fill="white"/>
<path opacity="0.6" d="M41.9692 109.179C41.9044 107.166 41.8344 104.992 41.0892 103.97C40.8513 103.644 40.6158 103.329 40.3828 103.023C43.2634 104.135 46.447 105.123 49.1889 105.397C57.1097 106.19 62.2658 105.626 69.2563 101.823C76.2079 98.0409 78.9256 93.6122 82.9535 87.0481L82.956 87.0441C83.1165 86.7825 83.2791 86.5176 83.4441 86.2492C84.984 83.7442 86.2544 80.7184 87.298 77.542C87.5036 80.3436 87.2489 83.3079 86.5732 86.593C85.3278 92.6472 83.1794 95.5909 80.2472 99.6084C79.3017 100.904 78.2747 102.311 77.1702 103.97C76.5164 104.952 76.7547 106.817 76.9957 108.703C77.1756 110.112 77.3572 111.533 77.1702 112.608C76.6137 115.808 74.9835 118.293 72.9061 121.027C70.4609 124.244 64.2685 125.845 64.2685 125.845H54.6469C54.6469 125.845 45.9872 124.013 44.4786 119.933C43.6387 117.662 43.4232 116.821 43.1051 115.579C42.9184 114.85 42.6963 113.983 42.2919 112.608C42.0535 111.797 42.0125 110.524 41.9692 109.179Z" fill="#D4AE43"/>
<ellipse opacity="0.2" cx="42.5099" cy="91.0753" rx="5.24815" ry="5.24815" fill="#FF5E5E"/>
<ellipse opacity="0.2" cx="76.6232" cy="89.3263" rx="5.24815" ry="5.24815" fill="#FF5E5E"/>
<path d="M54.7086 96.263C54.7086 96.263 55.3061 94.8762 58.2932 94.7687C61.2803 94.6612 62.2941 96.1601 62.2941 96.1601" stroke="#333333" stroke-width="3.49877" stroke-linecap="round"/>
<path opacity="0.2" d="M30.0738 87.1057C30.8911 82.9082 32.8343 74.7351 36.2785 69.9747C39.592 65.3952 41.6489 62.3926 46.5562 59.5872C51.0106 57.0407 54.0802 56.7795 59.1299 55.8698C63.8732 55.0153 72.8468 57.5637 77.3891 58.1674C72.5783 54.3391 68.5328 51.058 57.4898 51.0596C47.2917 51.2526 40.2916 54.9649 34.4198 63.3052C29.0881 70.8784 27.7249 77.6002 29.937 86.5939C29.9789 86.7641 30.0245 86.9348 30.0738 87.1057Z" fill="#FFFBEE"/>
<path d="M59.0408 111.839C52.3046 111.81 41.8687 110.312 41.8687 110.312C41.8687 110.312 41.7987 114.938 42.6227 119.058C43.2787 122.339 44.8544 124.824 48.4175 127.696C51.9422 130.537 55.3712 132.672 59.8979 132.616C64.3089 132.562 67.5719 130.544 70.9408 127.696C74.6026 124.6 75.205 122.885 76.0797 119.058C77.018 114.953 77.3972 110.312 77.3972 110.312C77.3972 110.312 66.1223 111.869 59.0408 111.839Z" fill="#00A2B9"/>
<path opacity="0.6" d="M76.7883 115.289C74.6869 118.814 71.57 123.424 68.8134 125.051C64.3544 127.681 62.7556 127.733 57.4994 127.708C53.9559 127.692 49.4379 126.601 46.1484 125.645C46.7966 126.317 47.5477 126.995 48.417 127.696C51.9416 130.537 55.3706 132.672 59.8973 132.616C64.3084 132.561 67.5714 130.544 70.9403 127.696C74.6021 124.6 75.2044 122.885 76.0791 119.058C76.3661 117.803 76.6007 116.497 76.7883 115.289Z" fill="#00879A" stroke="#00A2B9" stroke-width="0.291564"/>
<path d="M37.8926 70.413C37.8926 70.413 39.9962 71.1202 43.1143 69.3007C46.2323 67.4813 47.057 65.2299 47.057 65.2299" stroke="#333333" stroke-width="2.91564" stroke-linecap="round"/>
<path d="M78.7011 69.538C78.7011 69.538 76.5975 70.2452 73.4795 68.4257C70.3615 66.6063 69.5368 64.3549 69.5368 64.3549" stroke="#333333" stroke-width="2.91564" stroke-linecap="round"/>
<rect opacity="0.8" x="55.4141" y="20" width="5.24815" height="26.2407" rx="2.62408" fill="#D9D9D9"/>
<rect opacity="0.8" x="21.7734" y="31.4775" width="5.24815" height="26.2407" rx="2.62408" transform="rotate(-32.6092 21.7734 31.4775)" fill="#D9D9D9"/>
<rect opacity="0.8" x="42.0742" y="35.7988" width="4.37346" height="12.2457" rx="2.18673" transform="rotate(-15.2186 42.0742 35.7988)" fill="#D9D9D9"/>
<rect opacity="0.8" x="19.5156" y="53.2285" width="4.37346" height="12.2457" rx="2.18673" transform="rotate(-56.9542 19.5156 53.2285)" fill="#D9D9D9"/>
<rect opacity="0.8" x="7.5" y="63.8281" width="5.24815" height="19.4619" rx="2.62407" transform="rotate(-76.5005 7.5 63.8281)" fill="#D9D9D9"/>
</svg>
