<svg width="136" height="160" viewBox="0 0 136 160" fill="none" xmlns="http://www.w3.org/2000/svg">
<path d="M91.873 120.359C91.8581 119.362 76.7369 107.875 76.7369 107.875L71.0409 115.853C71.0409 115.853 85.3991 129.111 86.3352 128.796C87.2714 128.481 89.5913 127.377 90.7468 125.588C91.8799 123.833 91.8879 121.356 91.873 120.359Z" fill="#FDC427"/>
<path opacity="0.6" d="M71.4021 115.906C72.6082 117.018 85.7147 129.068 86.6077 128.767C87.1651 128.58 88.2131 128.113 89.2137 127.388L73.1366 113.909L71.4021 115.906Z" fill="#D4AE43"/>
<ellipse opacity="0.1" cx="65.185" cy="155.069" rx="54.7873" ry="4.93086" fill="#0092A6"/>
<path d="M81.4935 121.715L93.9871 98.6052L102.245 103.886L90.4536 126.155L81.4935 121.715Z" fill="#F5BC1C"/>
<path opacity="0.6" d="M87.1002 125.621L99.919 102.693L102.245 103.887C102.245 103.887 91.0723 125.21 90.5244 126.032C89.9766 126.854 89.1547 127.402 89.1547 127.402L87.1002 125.621Z" fill="#D4AE43"/>
<path d="M92.882 99.2887L102.315 104.658L106.895 96.1715C106.895 96.1715 110.047 96.0699 111.876 95.3312C115.893 93.7087 117.919 91.0109 118.981 86.8105C120.124 82.2884 119.28 78.6843 116.179 75.2001C113.131 71.7758 109.72 70.265 105.202 71.0404C100.849 71.7874 97.6657 73.9226 96.4135 78.1577C95.5984 80.9143 97.0776 85.4884 97.0776 85.4884C97.0776 85.4884 95.7219 82.6232 94.3079 81.7521C92.6137 80.7084 91.2025 79.9434 89.3454 80.6458C87.3286 81.4086 86.1406 82.7583 85.6961 85.4498C85.2517 88.1413 86.5584 89.3832 89.4297 91.2381C91.5998 92.6401 95.7952 92.8009 95.7952 92.8009L92.882 99.2887Z" fill="#F5F5F5"/>
<path opacity="0.2" d="M110.11 71.1755C110.914 72.4163 112.066 74.287 112.733 75.7824C112.807 75.9476 112.879 76.1073 112.948 76.2625C113.772 78.0975 114.311 79.2994 114.613 81.418C114.622 81.4834 114.632 81.5476 114.641 81.6108C114.844 83.0294 114.972 83.9245 114.699 85.3832C114.232 87.883 113.432 89.4565 111.417 91.0181C109.474 92.5246 105.384 92.8176 105.384 92.8176L99.6806 103.158L102.315 104.658L106.895 96.1713C106.895 96.1713 110.047 96.0698 111.876 95.3311C115.893 93.7085 117.919 91.0108 118.981 86.8103C120.124 82.2883 119.28 78.6841 116.179 75.1999C114.342 73.1364 112.373 71.7677 110.11 71.1755Z" fill="#CACACA"/>
<path opacity="0.2" d="M101.995 86.7545C101.852 87.9985 100.482 89.4492 100.787 89.7247C101.092 90.0002 102.638 88.9049 103.214 87.8567C103.75 86.8812 103.859 86.0983 103.556 85.0272C103.302 84.1282 102.958 83.6 102.196 83.0593C101.686 82.6969 100.803 82.3538 100.711 82.4555C100.619 82.5571 101.514 83.5369 101.776 84.3412C102.068 85.2412 102.102 85.8144 101.995 86.7545Z" fill="#CACACA"/>
<path opacity="0.6" d="M90.4694 91.7676C89.7735 90.7948 88.675 89.0425 88.6011 87.5857C88.5263 86.112 88.4949 85.0303 89.4472 83.9032C90.2476 82.956 91.1848 82.8346 92.2901 82.6913C92.6434 82.6455 93.0139 82.5975 93.4026 82.5196C93.8818 82.4235 94.5305 82.3461 94.973 82.2996C94.7563 82.0797 94.5328 81.8907 94.3079 81.7521C92.6137 80.7084 91.2025 79.9433 89.3454 80.6458C87.3286 81.4086 86.1406 82.7582 85.6961 85.4497C85.2517 88.1413 86.5585 89.3832 89.4297 91.2381C89.7407 91.439 90.0934 91.6145 90.4694 91.7676Z" fill="white"/>
<path opacity="0.6" d="M97.7235 86.3296C97.7235 86.3296 96.9738 82.5261 97.4114 80.1496C97.714 78.5061 97.9253 77.5124 98.8471 76.1186C99.6802 74.8587 100.567 74.2883 101.654 73.5891C102.01 73.3601 102.387 73.1174 102.791 72.8321C103.692 72.196 104.934 71.4704 105.882 70.9397C105.658 70.9674 105.431 71.0009 105.202 71.0403C100.849 71.7873 97.6657 73.9225 96.4135 78.1576C95.7719 80.3275 96.552 83.6237 96.913 84.9284C97.3472 85.7455 97.7235 86.3296 97.7235 86.3296Z" fill="white"/>
<path d="M37.8475 123.825C37.7584 122.832 51.6007 109.832 51.6007 109.832L58.0968 117.173C58.0968 117.173 45.1979 131.855 44.234 131.639C43.2702 131.423 40.8479 130.567 39.5122 128.908C38.2026 127.28 37.9365 124.818 37.8475 123.825Z" fill="#FDC427"/>
<path opacity="0.6" d="M57.7431 117.264C56.6593 118.495 44.8795 131.845 43.9601 131.639C43.3862 131.51 42.2953 131.155 41.2245 130.538L55.8101 115.458L57.7431 117.264Z" fill="#D4AE43"/>
<rect opacity="0.4" x="60.2542" y="10.9785" width="6.57447" height="32.8724" rx="3.28724" fill="#FDC427"/>
<rect opacity="0.4" x="18.1096" y="25.3569" width="6.57447" height="32.8724" rx="3.28724" transform="rotate(-32.6092 18.1096 25.3569)" fill="#FDC427"/>
<rect opacity="0.4" x="43.5441" y="30.7705" width="5.47873" height="15.3404" rx="2.73936" transform="rotate(-15.2186 43.5441 30.7705)" fill="#FDC427"/>
<rect opacity="0.4" x="15.2803" y="52.6047" width="5.47873" height="15.3404" rx="2.73936" transform="rotate(-56.9543 15.2803 52.6047)" fill="#FDC427"/>
<rect opacity="0.4" x="0.230062" y="65.8835" width="6.57448" height="24.3803" rx="3.28724" transform="rotate(-76.5005 0.230062 65.8835)" fill="#FDC427"/>
<rect opacity="0.4" width="6.57448" height="24.3803" rx="3.28724" transform="matrix(-0.233436 -0.972372 -0.972372 0.233437 127.126 65.8833)" fill="#FDC427"/>
<path d="M42.3116 116.17C43.8687 118.305 43.0725 124.455 43.8182 126.99C45.1879 131.647 44.8878 131.652 46.5576 136.167C48.4474 141.278 59.2956 143.573 59.2956 143.573H71.3488C71.3488 143.573 79.1062 141.567 82.1693 137.537C84.7717 134.113 86.8139 130.999 87.5111 126.99C88.059 123.84 86.0806 118.319 87.5111 116.17C93.1855 107.646 97.2272 104.431 99.2904 94.4011C101.637 82.9952 99.931 74.6769 93.1268 65.2269C85.3831 54.4722 76.107 49.6357 62.8568 49.8865C50.0814 50.1283 41.3122 54.7788 33.9565 65.2269C27.2774 74.714 25.5696 83.1345 28.3408 94.4011C30.9241 104.904 35.9388 107.431 42.3116 116.17Z" fill="#FDC427"/>
<ellipse cx="49.8449" cy="81.3803" rx="9.86171" ry="9.86171" fill="#333333"/>
<ellipse cx="4.93015" cy="4.14886" rx="4.93015" ry="4.14886" transform="matrix(0.837275 -0.546783 0.523984 0.851728 41.4308 77.7168)" fill="white"/>
<ellipse cx="2.05303" cy="1.41205" rx="2.05303" ry="1.41205" transform="matrix(0.787974 -0.615709 0.592809 0.805343 49.5548 83.9084)" fill="white"/>
<ellipse cx="79.1561" cy="81.3803" rx="9.86171" ry="9.86171" fill="#333333"/>
<ellipse cx="4.93015" cy="4.14886" rx="4.93015" ry="4.14886" transform="matrix(0.837275 -0.546783 0.523984 0.851728 70.742 77.7168)" fill="white"/>
<ellipse cx="2.05303" cy="1.41205" rx="2.05303" ry="1.41205" transform="matrix(0.787974 -0.615709 0.592809 0.805343 78.866 83.9084)" fill="white"/>
<path d="M60.4984 100.172C60.4984 100.172 61.2825 98.4508 65.0264 98.3933C68.7704 98.3358 70.0015 100.239 70.0015 100.239" stroke="#333333" stroke-width="3.28724" stroke-linecap="round"/>
<path opacity="0.4" d="M35.4652 68.8923C35.1126 69.7287 35.5048 70.6927 36.3413 71.0453C37.1778 71.3978 38.1417 71.0056 38.4943 70.1691L35.4652 68.8923ZM39.7819 64.4926L38.503 63.4601L39.7819 64.4926ZM43.9671 60.7669L43.0765 59.3855L43.9671 60.7669ZM49.5167 60.067C50.3761 59.7748 50.8359 58.8412 50.5437 57.9818C50.2515 57.1223 49.3179 56.6625 48.4585 56.9547L49.5167 60.067ZM36.9797 69.5307C38.4943 70.1691 38.4942 70.1692 38.4942 70.1693C38.4942 70.1693 38.4941 70.1694 38.4941 70.1695C38.4941 70.1696 38.4941 70.1696 38.4941 70.1696C38.4941 70.1695 38.4942 70.1693 38.4944 70.1688C38.4948 70.168 38.4955 70.1663 38.4965 70.1639C38.4985 70.1591 38.5019 70.1512 38.5065 70.1405C38.5157 70.1191 38.5298 70.0862 38.5487 70.0429C38.5864 69.9564 38.6427 69.8287 38.715 69.6692C38.8598 69.3496 39.0673 68.9054 39.3167 68.4098C39.8302 67.389 40.4666 66.2609 41.0607 65.5251L38.503 63.4601C37.6773 64.4828 36.9127 65.8738 36.3801 66.9324C36.1064 67.4765 35.8795 67.9621 35.7208 68.3124C35.6413 68.4878 35.5785 68.6301 35.5351 68.7298C35.5134 68.7796 35.4965 68.8189 35.4847 68.8463C35.4788 68.8601 35.4742 68.8709 35.471 68.8786C35.4693 68.8824 35.468 68.8855 35.4671 68.8878C35.4666 68.8889 35.4662 68.8899 35.4659 68.8906C35.4657 68.891 35.4656 68.8913 35.4654 68.8916C35.4654 68.8917 35.4653 68.8919 35.4653 68.892C35.4652 68.8921 35.4652 68.8923 36.9797 69.5307ZM41.0607 65.5251C42.3101 63.9775 43.1459 63.2519 44.8577 62.1484L43.0765 59.3855C41.0984 60.6607 39.9925 61.6152 38.503 63.4601L41.0607 65.5251ZM44.8577 62.1484C45.6231 61.6549 46.759 61.1378 47.7724 60.7257C48.2654 60.5252 48.7054 60.3592 49.0215 60.2435C49.1793 60.1857 49.3055 60.1408 49.3912 60.1106C49.434 60.0956 49.4666 60.0843 49.4879 60.0769C49.4985 60.0732 49.5064 60.0705 49.5112 60.0689C49.5136 60.068 49.5153 60.0675 49.5162 60.0671C49.5167 60.067 49.517 60.0669 49.517 60.0669C49.5171 60.0668 49.5171 60.0669 49.517 60.0669C49.517 60.0669 49.5169 60.0669 49.5169 60.0669C49.5168 60.0669 49.5167 60.067 48.9876 58.5108C48.4585 56.9547 48.4584 56.9548 48.4582 56.9548C48.4582 56.9548 48.458 56.9549 48.4579 56.9549C48.4576 56.955 48.4573 56.9551 48.457 56.9552C48.4563 56.9555 48.4554 56.9558 48.4543 56.9562C48.4521 56.9569 48.4491 56.9579 48.4454 56.9592C48.438 56.9617 48.4275 56.9653 48.4142 56.97C48.3875 56.9792 48.3492 56.9925 48.3005 57.0096C48.2031 57.0439 48.0637 57.0935 47.8917 57.1565C47.5481 57.2822 47.0709 57.4624 46.5341 57.6806C45.4877 58.1061 44.1134 58.7171 43.0765 59.3855L44.8577 62.1484Z" fill="white"/>
<path opacity="0.6" d="M43.414 122.695C43.3328 120.173 43.2451 117.45 42.3116 116.17C42.0136 115.761 41.7186 115.366 41.4267 114.983C45.0352 116.377 49.0234 117.614 52.4583 117.958C62.3808 118.951 68.8399 118.244 77.5971 113.48C86.3055 108.742 89.71 103.194 94.7559 94.9713L94.759 94.9662C94.9601 94.6386 95.1637 94.3067 95.3705 93.9704C97.2996 90.8324 98.8911 87.0419 100.198 83.0627C100.456 86.5724 100.137 90.2858 99.2903 94.4012C97.7303 101.985 95.0389 105.673 91.3657 110.706C90.1812 112.329 88.8947 114.091 87.5111 116.17C86.6921 117.4 86.9905 119.736 87.2924 122.099C87.5179 123.864 87.7453 125.644 87.5111 126.99C86.8139 130.999 84.7717 134.113 82.1693 137.537C79.1062 141.567 71.3488 143.573 71.3488 143.573H59.2956C59.2956 143.573 48.4474 141.278 46.5576 136.167C45.5055 133.322 45.2354 132.268 44.8369 130.712C44.603 129.799 44.3248 128.713 43.8182 126.99C43.5196 125.975 43.4682 124.38 43.414 122.695Z" fill="#D4AE43"/>
<ellipse opacity="0.2" cx="44.0922" cy="99.4688" rx="6.57447" ry="6.57448" fill="#FF5E5E"/>
<ellipse opacity="0.2" cx="86.8262" cy="97.2774" rx="6.57447" ry="6.57448" fill="#FF5E5E"/>
<path d="M64.7964 126.027C56.3579 125.99 43.2845 124.114 43.2845 124.114C43.2845 124.114 43.1969 129.91 44.2291 135.071C45.051 139.18 47.0248 142.294 51.4884 145.892C55.9038 149.451 60.1994 152.125 65.8701 152.055C71.396 151.987 75.4836 149.459 79.7039 145.892C84.2911 142.014 85.0457 139.865 86.1414 135.071C87.3169 129.929 87.7919 124.114 87.7919 124.114C87.7919 124.114 73.6676 126.065 64.7964 126.027Z" fill="#00A2B9"/>
<path opacity="0.6" d="M87.0298 130.35C84.3974 134.765 80.4928 140.541 77.0395 142.578C71.4536 145.874 69.4508 145.938 62.8662 145.908C58.4272 145.887 52.7674 144.521 48.6466 143.324C49.4586 144.165 50.3994 145.014 51.4884 145.892C55.9038 149.451 60.1994 152.125 65.8701 152.055C71.396 151.987 75.4836 149.46 79.7039 145.892C84.2911 142.014 85.0457 139.865 86.1414 135.071C86.5009 133.499 86.7949 131.863 87.0298 130.35Z" fill="#00879A" stroke="#00A2B9" stroke-width="0.273936"/>
<path d="M37.7506 123.591C38.0245 122.632 55.6149 115.478 55.6149 115.478L59.0375 124.663C59.0375 124.663 41.7227 133.726 40.9009 133.178C40.0791 132.63 38.1264 130.961 37.4767 128.932C36.8396 126.943 37.4767 124.549 37.7506 123.591Z" fill="#F5BC1C"/>
<path opacity="0.6" d="M58.9305 124.719C57.4766 125.478 41.6848 133.701 40.9009 133.178C40.4116 132.852 39.5213 132.128 38.7439 131.167L57.7758 122.339L58.9305 124.719Z" fill="#D4AE43"/>
<path d="M54.3209 115.359L58.6293 125.322L67.3918 121.295C67.3918 121.295 69.971 123.109 71.8767 123.619C76.0622 124.738 79.303 123.801 82.6775 121.083C86.3102 118.158 87.8027 114.77 87.4201 110.122C87.0441 105.553 85.2272 102.295 81.151 100.197C77.224 98.1768 73.3965 97.9685 69.8493 100.599C67.5405 102.312 65.9718 106.856 65.9718 106.856C65.9718 106.856 66.6115 103.751 66.0055 102.205C65.2795 100.352 64.612 98.8926 62.7057 98.3371C60.6356 97.7338 58.8748 98.0978 56.9012 99.981C54.9276 101.864 55.2249 103.642 56.4036 106.851C57.2945 109.276 60.5498 111.927 60.5498 111.927L54.3209 115.359Z" fill="#F5F5F5"/>
<path opacity="0.2" d="M84.9915 103.257C84.8872 104.731 84.6827 106.919 84.3169 108.515C84.2765 108.691 84.2377 108.862 84.2 109.028C83.7546 110.989 83.4629 112.274 82.4301 114.148C82.3983 114.206 82.367 114.263 82.3362 114.319C81.6455 115.575 81.2096 116.367 80.1145 117.368C78.2377 119.085 76.6525 119.861 74.1039 119.897C71.6451 119.932 68.2014 117.707 68.2014 117.707L57.426 122.539L58.6293 125.322L67.3917 121.295C67.3917 121.295 69.971 123.109 71.8766 123.619C76.0622 124.738 79.303 123.801 82.6774 121.083C86.3102 118.158 87.8026 114.77 87.4201 110.122C87.1935 107.368 86.4437 105.091 84.9915 103.257Z" fill="#CACACA"/>
<path opacity="0.2" d="M69.139 110.824C68.277 111.732 66.3101 112.068 66.388 112.471C66.4658 112.875 68.3599 112.929 69.4505 112.438C70.4654 111.981 71.023 111.421 71.4253 110.383C71.7629 109.512 71.8055 108.883 71.522 107.993C71.332 107.396 70.833 106.591 70.6985 106.617C70.5641 106.643 70.6902 107.965 70.4154 108.764C70.108 109.659 69.7905 110.138 69.139 110.824Z" fill="#CACACA"/>
<path opacity="0.6" d="M56.9159 107.899C56.9449 106.704 57.1209 104.643 57.9378 103.434C58.7642 102.212 59.3896 101.329 60.8283 101.001C62.0373 100.725 62.8593 101.192 63.8285 101.742C64.1384 101.918 64.4633 102.103 64.8207 102.274C65.2613 102.485 65.8262 102.814 66.2077 103.043C66.1668 102.736 66.1019 102.451 66.0055 102.205C65.2795 100.352 64.612 98.8926 62.7057 98.337C60.6356 97.7338 58.8748 98.0978 56.9012 99.981C54.9276 101.864 55.2249 103.642 56.4036 106.851C56.5313 107.199 56.7076 107.551 56.9159 107.899Z" fill="white"/>
<path opacity="0.6" d="M65.9819 107.917C65.9819 107.917 67.67 104.427 69.4488 102.791C70.6788 101.66 71.4452 100.993 73.0199 100.434C74.4431 99.928 75.4947 100.006 76.7837 100.101C77.2058 100.132 77.6533 100.165 78.1476 100.18C79.2499 100.213 80.6788 100.38 81.7553 100.526C81.5596 100.414 81.3582 100.304 81.151 100.197C77.2239 98.1768 73.3965 97.9686 69.8493 100.599C68.0318 101.947 66.673 105.05 66.1769 106.31C66.0324 107.224 65.9819 107.917 65.9819 107.917Z" fill="white"/>
<path d="M96.417 51.742L99.7918 48.6261C101.311 48.9666 102.798 49.1664 104.252 49.2255C105.707 49.2845 107.055 49.1393 108.295 48.7899C109.572 48.4448 110.685 47.834 111.634 46.9577C112.319 46.3248 112.678 45.6905 112.71 45.0548C112.778 44.4234 112.519 43.7906 111.934 43.1565C111.424 42.6042 110.877 42.2942 110.294 42.2266C109.71 42.1589 109.181 42.3442 108.707 42.7824C108.425 43.042 108.208 43.2999 108.053 43.556C107.918 43.8326 107.765 44.1254 107.595 44.4344L102.896 40.9853C103.15 40.4851 103.424 40.0236 103.718 39.601C104.029 39.1621 104.378 38.7642 104.765 38.4072C106.294 36.9953 107.98 36.4236 109.824 36.6921C111.703 36.9649 113.569 38.1036 115.42 40.1083C117.308 42.1539 118.297 44.1591 118.385 46.1239C118.474 48.0886 117.657 49.8662 115.934 51.4566C114.844 52.4628 113.627 53.1893 112.281 53.636C110.935 54.0828 109.463 54.2865 107.863 54.2473C106.301 54.2122 104.64 53.9832 102.882 53.5601L100.298 55.9457L96.417 51.742ZM90.7124 56.7249L94.5353 53.1952L98.7283 57.7365L94.9053 61.2662L90.7124 56.7249Z" fill="#018598"/>
<rect x="102.428" y="38.2852" width="1.54526" height="2.74106" transform="rotate(-9.86848 102.428 38.2852)" fill="#018598"/>
<rect x="95.9572" y="49.0408" width="1.63412" height="2.75396" transform="rotate(-9.80955 95.9572 49.0408)" fill="#018598"/>
<rect x="96.5573" y="55.3269" width="1.73518" height="2.74537" transform="rotate(-9.80955 96.5573 55.3269)" fill="#018598"/>
<rect x="90.246" y="54.0229" width="1.955" height="2.74639" transform="rotate(-9.80955 90.246 54.0229)" fill="#018598"/>
<path d="M95.9505 49.0406L99.3252 45.9247C100.844 46.2652 102.331 46.465 103.786 46.524C105.241 46.5831 106.588 46.4379 107.828 46.0885C109.105 45.7434 110.218 45.1326 111.167 44.2563C111.853 43.6234 112.211 42.9891 112.243 42.3534C112.311 41.722 112.053 41.0892 111.467 40.4551C110.957 39.9028 110.411 39.5928 109.827 39.5251C109.244 39.4575 108.715 39.6428 108.24 40.0809C107.959 40.3406 107.741 40.5985 107.587 40.8546C107.451 41.1312 107.299 41.424 107.128 41.733L102.429 38.2839C102.684 37.7836 102.958 37.3222 103.251 36.8996C103.563 36.4607 103.911 36.0628 104.298 35.7058C105.827 34.2939 107.514 33.7222 109.357 33.9907C111.237 34.2635 113.102 35.4022 114.953 37.4069C116.842 39.4525 117.831 41.4577 117.919 43.4225C118.007 45.3872 117.19 47.1648 115.468 48.7552C114.378 49.7614 113.16 50.4879 111.814 50.9346C110.469 51.3814 108.996 51.5851 107.397 51.5458C105.834 51.5108 104.174 51.2818 102.416 50.8587L99.8319 53.2443L95.9505 49.0406ZM90.2458 54.0235L94.0688 50.4938L98.2617 55.0351L94.4388 58.5648L90.2458 54.0235Z" fill="#00A2B9"/>
<path d="M80.452 39.0742L81.481 33.1314C83.3364 32.2731 85.0457 31.2938 86.609 30.1937C88.1723 29.0935 89.4609 27.8661 90.4746 26.5114C91.5297 25.1319 92.202 23.6065 92.4914 21.9351C92.7004 20.7279 92.5677 19.7804 92.0931 19.0925C91.66 18.3799 90.885 17.9269 89.7683 17.7336C88.7957 17.5652 87.9783 17.6787 87.3162 18.0741C86.6541 18.4695 86.2507 19.0851 86.106 19.9208C86.0202 20.4161 85.9992 20.8587 86.043 21.2489C86.1228 21.6453 86.1972 22.0726 86.2662 22.5309L78.6143 22.6883C78.48 21.9637 78.3971 21.2639 78.3656 20.589C78.3394 19.8831 78.3853 19.1897 78.5032 18.5087C78.9694 15.8159 80.2705 13.8733 82.4063 12.681C84.5835 11.464 87.4372 11.1611 90.9675 11.7724C94.5698 12.3961 97.2016 13.6967 98.8627 15.6739C100.524 17.6512 101.092 20.1565 100.567 23.1899C100.234 25.1089 99.5453 26.8386 98.4994 28.3791C97.4535 29.9195 96.0815 31.3078 94.3833 32.544C92.7265 33.7555 90.8129 34.8429 88.6426 35.806L87.8547 40.356L80.452 39.0742ZM78.4855 48.8238L79.6512 42.0917L87.6484 43.4764L86.4827 50.2085L78.4855 48.8238Z" fill="#018598"/>
<rect x="75.97" y="20.2478" width="2.02905" height="3.59924" transform="rotate(-47.3285 75.97 20.2478)" fill="#018598"/>
<rect x="77.8155" y="36.6262" width="2.14574" height="3.61618" transform="rotate(-47.2696 77.8155 36.6262)" fill="#018598"/>
<rect x="83.4611" y="42.6985" width="2.27844" height="3.6049" transform="rotate(-47.2696 83.4611 42.6985)" fill="#018598"/>
<rect x="75.8415" y="46.3799" width="2.56708" height="3.60624" transform="rotate(-47.2696 75.8415 46.3799)" fill="#018598"/>
<path d="M77.8082 36.6311L78.8372 30.6883C80.6926 29.8299 82.4019 28.8507 83.9652 27.7506C85.5286 26.6504 86.8171 25.423 87.8308 24.0682C88.8859 22.6888 89.5582 21.1634 89.8476 19.492C90.0566 18.2848 89.9239 17.3373 89.4493 16.6494C89.0162 15.9368 88.2413 15.4838 87.1245 15.2905C86.1519 15.122 85.3345 15.2355 84.6724 15.631C84.0103 16.0264 83.6069 16.642 83.4622 17.4777C83.3764 17.9729 83.3554 18.4156 83.3992 18.8058C83.479 19.2021 83.5534 19.6295 83.6224 20.0878L75.9705 20.2452C75.8362 19.5206 75.7533 18.8208 75.7218 18.1459C75.6956 17.44 75.7415 16.7466 75.8594 16.0656C76.3257 13.3728 77.6267 11.4302 79.7625 10.2379C81.9397 9.02085 84.7934 8.71798 88.3237 9.32926C91.926 9.95301 94.5578 11.2535 96.219 13.2308C97.8802 15.2081 98.4481 17.7134 97.9229 20.7468C97.5906 22.6658 96.9015 24.3955 95.8556 25.936C94.8097 27.4764 93.4377 28.8647 91.7395 30.1009C90.0827 31.3124 88.1691 32.3997 85.9988 33.3629L85.211 37.9129L77.8082 36.6311ZM75.8418 46.3807L77.0074 39.6486L85.0046 41.0333L83.8389 47.7654L75.8418 46.3807Z" fill="#00A2B9"/>
</svg>
