<svg width="160" height="160" viewBox="0 0 160 160" fill="none" xmlns="http://www.w3.org/2000/svg">
<ellipse opacity="0.1" cx="88.3836" cy="144.768" rx="67.2248" ry="6.05024" fill="#0092A6"/>
<rect x="86.5263" y="20.109" width="61.1228" height="118.719" rx="8.01407" fill="#3097A5" stroke="#3097A5" stroke-width="2.35088"/>
<rect x="149.412" y="60.6619" width="18.807" height="1.17544" rx="0.587719" transform="rotate(90 149.412 60.6619)" fill="#3097A5" stroke="#3097A5" stroke-width="1.17544"/>
<rect x="149.412" y="43.0301" width="9.40351" height="1.17544" rx="0.587719" transform="rotate(90 149.412 43.0301)" fill="#3097A5" stroke="#3097A5" stroke-width="1.17544"/>
<rect x="83.1754" y="23.4596" width="61.1228" height="118.719" rx="8.01407" fill="white" stroke="#19ABC0" stroke-width="2.35088"/>
<rect x="83.1754" y="23.4596" width="61.1228" height="118.719" rx="8.01407" fill="white" stroke="#19ABC0" stroke-width="2.35088"/>
<rect x="146.649" y="62.249" width="19.9825" height="2.35088" rx="1.17544" transform="rotate(90 146.649 62.249)" fill="#19ABC0"/>
<rect x="146.649" y="45.793" width="10.5789" height="2.35088" rx="1.17544" transform="rotate(90 146.649 45.793)" fill="#19ABC0"/>
<path d="M104.287 101.058V93.6941H105.728L109.363 98.2166H109.165V93.6941H110.972V101.058H109.509L105.906 96.5664H106.094V101.058H104.287ZM112.437 101.058V93.6941H117.659V95.2085H114.39V96.6604H117.429V98.1749H114.39V101.058H112.437ZM122.295 101.183C121.494 101.183 120.801 101.026 120.216 100.713C119.632 100.4 119.182 99.9574 118.869 99.3865C118.556 98.8155 118.399 98.1435 118.399 97.3706C118.399 96.5977 118.556 95.9292 118.869 95.3652C119.182 94.7942 119.632 94.3556 120.216 94.0492C120.801 93.7358 121.494 93.5792 122.295 93.5792C122.789 93.5792 123.259 93.6488 123.705 93.7881C124.151 93.9273 124.513 94.1223 124.791 94.373L124.217 95.8979C123.91 95.6751 123.604 95.5149 123.298 95.4174C122.998 95.32 122.688 95.2712 122.368 95.2712C121.748 95.2712 121.271 95.4488 120.937 95.8039C120.603 96.159 120.436 96.6813 120.436 97.3706C120.436 98.06 120.599 98.5857 120.927 98.9478C121.261 99.3099 121.741 99.4909 122.368 99.4909C122.688 99.4909 122.998 99.4422 123.298 99.3447C123.604 99.2402 123.91 99.0766 124.217 98.8538L124.791 100.379C124.513 100.629 124.151 100.828 123.705 100.974C123.259 101.113 122.789 101.183 122.295 101.183Z" fill="#00879A"/>
<path d="M132.594 70.1786L137.022 65.7533C137.665 65.1101 138.026 64.2378 138.026 63.3282C138.026 62.4185 137.665 61.5462 137.022 60.903C136.379 60.2598 135.506 59.8984 134.597 59.8984C133.687 59.8984 132.815 60.2598 132.171 60.903L127.743 65.3282L123.318 60.9087C122.675 60.2655 121.803 59.9041 120.893 59.9041C119.983 59.9041 119.111 60.2655 118.468 60.9087C117.825 61.5519 117.463 62.4242 117.463 63.3339C117.463 64.2435 117.825 65.1159 118.468 65.759L122.893 70.1786L118.474 74.6038C117.83 75.247 117.469 76.1194 117.469 77.029C117.469 77.9386 117.83 78.811 118.474 79.4542C119.117 80.0974 119.989 80.4587 120.899 80.4587C121.808 80.4587 122.681 80.0974 123.324 79.4542L127.743 75.0289L132.169 79.457C132.487 79.7755 132.865 80.0282 133.281 80.2005C133.697 80.3729 134.143 80.4616 134.594 80.4616C135.044 80.4616 135.49 80.3729 135.906 80.2005C136.322 80.0282 136.701 79.7755 137.019 79.457C137.337 79.1386 137.59 78.7605 137.762 78.3444C137.935 77.9282 138.024 77.4823 138.024 77.0319C138.024 76.5815 137.935 76.1355 137.762 75.7194C137.59 75.3032 137.337 74.9252 137.019 74.6067L132.594 70.1786Z" fill="#DD5275"/>
<path d="M123.296 85.1877C120.432 83.1035 116.98 81.9808 113.437 81.9808C109.895 81.9808 106.443 83.1035 103.578 85.1877C103.039 85.5802 102.679 86.1707 102.575 86.8293C102.472 87.4879 102.634 88.1607 103.026 88.6996C103.419 89.2385 104.009 89.5994 104.668 89.7029C105.327 89.8064 105.999 89.644 106.538 89.2515C108.543 87.7936 110.958 87.0083 113.437 87.0083C115.916 87.0083 118.331 87.7936 120.336 89.2515C120.875 89.644 121.548 89.8064 122.207 89.7029C122.865 89.5994 123.456 89.2385 123.848 88.6996C124.241 88.1607 124.403 87.4879 124.3 86.8293C124.196 86.1707 123.835 85.5802 123.296 85.1877ZM115.944 64.3868C115.944 63.7201 115.679 63.0807 115.207 62.6093C114.736 62.1379 114.097 61.873 113.43 61.873C104.905 61.8774 96.6449 64.8313 90.0504 70.2332C89.7952 70.4427 89.5839 70.7004 89.4283 70.9916C89.2727 71.2827 89.1761 71.6017 89.1438 71.9302C89.1115 72.2588 89.1442 72.5905 89.2401 72.9063C89.336 73.2222 89.4932 73.5161 89.7027 73.7713C89.9121 74.0264 90.1698 74.2378 90.461 74.3934C90.7522 74.5489 91.0711 74.6456 91.3997 74.6779C91.7282 74.7102 92.0599 74.6774 92.3758 74.5815C92.6917 74.4857 92.9856 74.3285 93.2407 74.119C98.9357 69.4548 106.069 66.9044 113.43 66.9005C114.097 66.9005 114.736 66.6356 115.207 66.1642C115.679 65.6928 115.944 65.0534 115.944 64.3868ZM115.944 74.4416C115.944 73.7749 115.679 73.1355 115.207 72.6641C114.736 72.1927 114.097 71.9279 113.43 71.9279C107.385 71.9055 101.513 73.9482 96.7871 77.7178C96.2777 78.136 95.9528 78.7375 95.8826 79.3929C95.8123 80.0482 96.0023 80.705 96.4115 81.2216C96.8208 81.7383 97.4166 82.0735 98.0707 82.1552C98.7247 82.2368 99.3846 82.0583 99.9083 81.658C103.748 78.5958 108.519 76.9366 113.43 76.9553C114.097 76.9553 114.736 76.6905 115.207 76.2191C115.679 75.7476 115.944 75.1083 115.944 74.4416Z" fill="#00879A"/>
<rect x="100.807" y="28.1611" width="27.0351" height="5.87719" rx="2.9386" fill="#19ABC0"/>
<path d="M60.1762 119.317L72.5296 103.677L77.8427 108.757L66.1199 123.86L60.1762 119.317Z" fill="#F5BC1C"/>
<path opacity="0.6" d="M63.739 123.006L76.3051 107.547L77.8427 108.757C77.8427 108.757 66.704 123.236 66.1888 123.778C65.6737 124.32 64.996 124.62 64.996 124.62L63.739 123.006Z" fill="#D4AE43"/>
<path d="M71.6258 104.04L77.7869 109.344L82.3174 103.6C82.3174 103.6 84.6389 103.951 86.0804 103.645C89.2467 102.972 91.1041 101.223 92.4645 98.2166C93.929 94.98 93.8108 92.1625 92.0239 89.1294C90.2678 86.1484 87.9802 84.5534 84.5649 84.5229C81.2745 84.4936 78.6477 85.6637 77.1433 88.6704C76.1641 90.6273 76.6124 94.2582 76.6124 94.2582C76.6124 94.2582 76.0174 91.9257 75.1031 91.0809C74.0075 90.0687 73.0806 89.3037 71.6234 89.579C70.0411 89.8779 68.9841 90.7292 68.2852 92.6876C67.5864 94.646 68.3707 95.7544 70.2154 97.5345C71.6096 98.8799 74.6588 99.5688 74.6588 99.5688L71.6258 104.04Z" fill="#F5F5F5"/>
<path opacity="0.2" d="M88.1395 85.2894C88.5555 86.3288 89.1393 87.8878 89.4205 89.0997C89.4516 89.2336 89.4819 89.3631 89.5114 89.489C89.8597 90.9767 90.0878 91.9512 90.0149 93.581C90.0127 93.6313 90.0105 93.6807 90.0084 93.7293C89.9602 94.8208 89.9299 95.5094 89.5277 96.5665C88.8386 98.378 88.0347 99.4497 86.3432 100.348C84.7113 101.215 81.6767 100.88 81.6767 100.88L76.0661 107.863L77.7868 109.345L82.3173 103.6C82.3173 103.6 84.6388 103.951 86.0803 103.645C89.2466 102.972 91.104 101.223 92.4644 98.2167C93.9289 94.9801 93.8106 92.1627 92.0238 89.1296C90.9656 87.3332 89.7143 86.0401 88.1395 85.2894Z" fill="#C2C2C2"/>
<path opacity="0.2" d="M80.0364 95.8732C79.7594 96.7869 78.5551 97.6893 78.7401 97.9372C78.925 98.1851 80.209 97.5731 80.7762 96.865C81.304 96.206 81.4921 95.6335 81.4192 94.7892C81.358 94.0806 81.1793 93.6379 80.6966 93.1292C80.3732 92.7882 79.7745 92.4113 79.6932 92.4751C79.6118 92.5389 80.1313 93.395 80.2111 94.0336C80.3004 94.7482 80.2458 95.1827 80.0364 95.8732Z" fill="#C2C2C2"/>
<path opacity="0.6" d="M70.903 98.0721C70.5286 97.2483 69.9675 95.7853 70.1155 94.6827C70.2652 93.5674 70.3923 92.7519 71.2459 92.0355C71.9633 91.4336 72.6663 91.4694 73.4954 91.5117C73.7604 91.5252 74.0383 91.5394 74.3337 91.5336C74.6978 91.5264 75.1835 91.5563 75.5139 91.5813C75.3858 91.387 75.2484 91.215 75.103 91.0806C74.0075 90.0684 73.0805 89.3034 71.6234 89.5787C70.041 89.8776 68.984 90.7289 68.2851 92.6873C67.5863 94.6457 68.3707 95.7541 70.2153 97.5342C70.4152 97.727 70.649 97.9064 70.903 98.0721Z" fill="white"/>
<path opacity="0.6" d="M76.9685 94.9766C76.9685 94.9766 76.9473 92.0225 77.5975 90.2994C78.0471 89.1078 78.3396 88.3912 79.2079 87.4707C79.9927 86.6387 80.7211 86.331 81.6139 85.9538C81.9062 85.8303 82.2162 85.6994 82.5516 85.5402C83.2994 85.1851 84.3095 84.8092 85.0772 84.5396C84.9092 84.53 84.7385 84.5244 84.5649 84.5228C81.2745 84.4935 78.6477 85.6636 77.1433 88.6703C76.3725 90.2108 76.4862 92.7886 76.5695 93.8159C76.774 94.4876 76.9685 94.9766 76.9685 94.9766Z" fill="white"/>
<path d="M28.0075 125.069C27.9412 124.312 38.2473 114.397 38.2473 114.397L43.0838 119.996C43.0838 119.996 33.4801 131.194 32.7625 131.029C32.0449 130.865 30.2414 130.212 29.247 128.946C28.2719 127.705 28.0738 125.827 28.0075 125.069Z" fill="#FDC427"/>
<path opacity="0.6" d="M42.8205 120.065C42.0136 121.004 33.2431 131.186 32.5586 131.029C32.1313 130.931 31.319 130.66 30.5218 130.189L41.3813 118.688L42.8205 120.065Z" fill="#D4AE43"/>
<rect opacity="0.4" x="44.6899" y="39" width="4.89492" height="25.0721" rx="2.44746" fill="#FDC427"/>
<rect opacity="0.4" width="4.92992" height="24.9001" rx="2.46496" transform="matrix(0.836385 -0.548143 0.529698 0.848186 13.3119 49.9668)" fill="#FDC427"/>
<rect opacity="0.4" width="4.08604" height="11.6813" rx="2.04302" transform="matrix(0.963292 -0.268454 0.256663 0.966501 32.2488 54.0957)" fill="#FDC427"/>
<rect opacity="0.4" width="4.08856" height="11.6744" rx="2.04428" transform="matrix(0.949639 0.313346 -0.299947 0.953956 57.9675 53.2549)" fill="#FDC427"/>
<rect opacity="0.4" width="4.14932" height="11.5051" rx="2.07466" transform="matrix(0.53608 -0.844167 0.832143 0.554562 11.2054 70.749)" fill="#FDC427"/>
<rect opacity="0.4" width="5.00799" height="18.1764" rx="2.50399" transform="matrix(0.228166 -0.973622 0.971065 0.238814 0 80.877)" fill="#FDC427"/>
<path d="M31.3311 119.23C32.4904 120.859 31.8976 125.549 32.4528 127.483C33.4726 131.035 33.2492 131.039 34.4924 134.482C35.8994 138.38 43.9763 140.131 43.9763 140.131H52.9503C52.9503 140.131 58.7259 138.601 61.0065 135.527C62.9441 132.915 64.4646 130.541 64.9836 127.483C65.3916 125.08 63.9186 120.869 64.9836 119.23C69.2085 112.729 72.2176 110.277 73.7537 102.627C75.5005 93.9274 74.2307 87.583 69.1647 80.3754C63.3993 72.1726 56.4929 68.4838 46.6277 68.675C37.116 68.8595 30.587 72.4065 25.1105 80.3754C20.1376 87.6113 18.8661 94.0337 20.9294 102.627C22.8527 110.637 26.5863 112.565 31.3311 119.23Z" fill="#FDC427"/>
<ellipse cx="42.2424" cy="91.8634" rx="7.34238" ry="7.52164" fill="#333333"/>
<ellipse cx="3.69768" cy="3.14386" rx="3.69768" ry="3.14386" transform="matrix(0.831156 -0.556039 0.514835 0.857289 35.9779 89.0693)" fill="white"/>
<ellipse cx="1.54281" cy="1.06803" rx="1.54281" ry="1.06803" transform="matrix(0.780694 -0.624914 0.58353 0.812092 42.0265 93.792)" fill="white"/>
<ellipse cx="61.3296" cy="87.005" rx="7.34238" ry="7.52164" fill="#333333"/>
<ellipse cx="3.69768" cy="3.14386" rx="3.69768" ry="3.14386" transform="matrix(0.831156 -0.556039 0.514835 0.857289 55.0649 84.2109)" fill="white"/>
<ellipse cx="1.54281" cy="1.06803" rx="1.54281" ry="1.06803" transform="matrix(0.780694 -0.624914 0.58353 0.812092 61.1135 88.9336)" fill="white"/>
<path d="M47.4585 107.776C47.4585 107.776 47.6264 106.343 50.2698 105.436C52.9133 104.529 54.2163 105.628 54.2163 105.628" stroke="#333333" stroke-width="3.67135" stroke-linecap="round"/>
<path opacity="0.4" d="M25.6658 82.9664C25.2791 83.9062 25.7248 84.9778 26.6612 85.3598C27.5977 85.7419 28.6703 85.2898 29.057 84.35L27.3614 83.6582L25.6658 82.9664ZM29.4477 79.8156L28.01 78.6826L29.4477 79.8156ZM32.5638 76.974L31.5596 75.4423L32.5638 76.974ZM36.8959 76.9878C37.8544 76.6539 38.3654 75.6067 38.0372 74.6487C37.7091 73.6908 36.666 73.1848 35.7075 73.5187L36.3017 75.2532L36.8959 76.9878ZM27.3614 83.6582C29.057 84.35 29.0569 84.3501 29.0569 84.3502C29.0569 84.3503 29.0568 84.3504 29.0568 84.3504C29.0567 84.3506 29.0567 84.3506 29.0567 84.3507C29.0567 84.3508 29.0567 84.3507 29.0568 84.3505C29.0569 84.3501 29.0574 84.3491 29.058 84.3475C29.0593 84.3443 29.0616 84.3388 29.0648 84.3312C29.0712 84.3159 29.0813 84.2919 29.0948 84.26C29.1219 84.1963 29.1628 84.1015 29.2153 83.9826C29.3208 83.7441 29.472 83.4126 29.6535 83.0432C30.0329 82.2706 30.4842 81.4576 30.8854 80.9486L29.4477 79.8156L28.01 78.6826C27.3541 79.5149 26.7623 80.6231 26.3628 81.4366C26.1548 81.8601 25.9826 82.2377 25.8621 82.5102C25.8017 82.6468 25.7538 82.7578 25.7205 82.8362C25.7039 82.8753 25.6908 82.9064 25.6816 82.9284C25.677 82.9394 25.6734 82.9481 25.6707 82.9545C25.6694 82.9577 25.6683 82.9603 25.6675 82.9623C25.6671 82.9633 25.6668 82.9641 25.6665 82.9648C25.6663 82.9651 25.6662 82.9655 25.6661 82.9657C25.666 82.9659 25.666 82.966 25.6659 82.9661C25.6659 82.9663 25.6658 82.9664 27.3614 83.6582ZM29.4477 79.8156L30.8854 80.9486C31.7723 79.8232 32.3446 79.3136 33.5679 78.5057L32.5638 76.974L31.5596 75.4423C30.0357 76.4487 29.1623 77.2205 28.01 78.6826L29.4477 79.8156ZM32.5638 76.974L33.5679 78.5057C34.0855 78.1639 34.8849 77.7882 35.6326 77.4767C35.9911 77.3274 36.3113 77.2035 36.5413 77.1173C36.656 77.0743 36.7474 77.041 36.8088 77.0188C36.8395 77.0078 36.8627 76.9995 36.8775 76.9943C36.8849 76.9917 36.8902 76.9898 36.8933 76.9887C36.8948 76.9882 36.8958 76.9878 36.8963 76.9877C36.8965 76.9876 36.8966 76.9876 36.8965 76.9876C36.8965 76.9876 36.8964 76.9876 36.8963 76.9877C36.8962 76.9877 36.8961 76.9877 36.8961 76.9877C36.896 76.9878 36.8959 76.9878 36.3017 75.2532C35.7075 73.5187 35.7073 73.5187 35.7072 73.5188C35.7071 73.5188 35.707 73.5189 35.7068 73.5189C35.7066 73.519 35.7063 73.5191 35.706 73.5192C35.7053 73.5194 35.7045 73.5197 35.7036 73.52C35.7017 73.5207 35.6993 73.5216 35.6962 73.5226C35.6902 73.5247 35.6819 73.5277 35.6714 73.5314C35.6504 73.5388 35.6208 73.5493 35.5834 73.5628C35.5085 73.5898 35.4022 73.6286 35.2713 73.6777C35.0101 73.7756 34.6475 73.9158 34.2392 74.0859C33.4534 74.4133 32.3838 74.8979 31.5596 75.4423L32.5638 76.974Z" fill="white"/>
<path opacity="0.6" d="M32.1519 124.207C32.0914 122.283 32.0261 120.206 31.3311 119.23C31.1092 118.918 30.8896 118.617 30.6722 118.325C33.3589 119.387 36.3283 120.331 38.8856 120.593C46.2733 121.351 51.0823 120.812 57.6024 117.178C64.0861 113.565 66.6208 109.333 70.3777 103.061L70.38 103.057C70.5297 102.808 70.6813 102.554 70.8352 102.298C72.2715 99.9045 73.4564 97.0135 74.4298 93.9785C74.6215 96.6554 74.384 99.4876 73.7537 102.626C72.5922 108.411 70.5883 111.224 67.8535 115.062C66.9717 116.3 66.0138 117.644 64.9836 119.23C64.3738 120.168 64.596 121.95 64.8209 123.752C64.9887 125.098 65.158 126.456 64.9836 127.483C64.4645 130.54 62.9441 132.915 61.0065 135.527C58.7259 138.601 52.9503 140.13 52.9503 140.13H43.9763C43.9763 140.13 35.8994 138.38 34.4924 134.482C33.709 132.312 33.508 131.508 33.2113 130.321C33.0371 129.625 32.83 128.796 32.4528 127.483C32.2305 126.708 32.1922 125.492 32.1519 124.207Z" fill="#D4AE43"/>
<ellipse opacity="0.2" cx="36.7263" cy="108.248" rx="4.89492" ry="5.01442" fill="#FF5E5E"/>
<ellipse opacity="0.2" cx="67.2494" cy="100.969" rx="4.89492" ry="5.01442" fill="#FF5E5E"/>
<path d="M48.0718 126.748C41.789 126.72 32.0555 125.289 32.0555 125.289C32.0555 125.289 31.9902 129.71 32.7587 133.646C33.3706 136.78 34.8402 139.155 38.1635 141.899C41.451 144.614 44.6491 146.654 48.8712 146.6C52.9854 146.548 56.0287 144.62 59.1709 141.899C62.5862 138.942 63.148 137.303 63.9639 133.646C64.839 129.724 65.1927 125.289 65.1927 125.289C65.1927 125.289 54.6767 126.778 48.0718 126.748Z" fill="#00A2B9"/>
<path opacity="0.6" d="M64.6252 130.046C62.6653 133.414 59.7581 137.819 57.1871 139.373C53.0282 141.886 51.537 141.935 46.6346 141.912C43.3296 141.896 39.1157 140.855 36.0476 139.941C36.6522 140.583 37.3526 141.23 38.1634 141.9C41.4509 144.614 44.6491 146.654 48.8711 146.601C52.9853 146.549 56.0287 144.621 59.1708 141.9C62.5861 138.942 63.1479 137.303 63.9638 133.647C64.2314 132.447 64.4503 131.2 64.6252 130.046Z" fill="#00879A"/>
<path d="M27.9353 124.89C28.1393 124.159 41.2359 118.702 41.2359 118.702L43.7841 125.708C43.7841 125.708 30.8927 132.621 30.2808 132.203C29.669 131.785 28.2151 130.511 27.7314 128.964C27.257 127.447 27.7314 125.621 27.9353 124.89Z" fill="#F5BC1C"/>
<path opacity="0.6" d="M43.7045 125.751C42.622 126.33 30.8645 132.601 30.2808 132.202C29.9165 131.954 29.2537 131.401 28.6749 130.669L42.8448 123.936L43.7045 125.751Z" fill="#D4AE43"/>
<path d="M40.2724 118.611L43.4801 126.21L50.0041 123.138C50.0041 123.138 51.9244 124.522 53.3432 124.911C56.4595 125.764 58.8724 125.049 61.3848 122.977C64.0895 120.745 65.2007 118.162 64.9158 114.616C64.6359 111.131 63.2832 108.646 60.2483 107.047C57.3245 105.506 54.4748 105.347 51.8338 107.353C50.1148 108.659 48.9468 112.125 48.9468 112.125C48.9468 112.125 49.4231 109.757 48.972 108.578C48.4314 107.165 47.9344 106.052 46.5151 105.628C44.9739 105.168 43.6629 105.445 42.1935 106.882C40.7241 108.318 40.9454 109.674 41.823 112.122C42.4863 113.971 44.91 115.993 44.91 115.993L40.2724 118.611Z" fill="#F5F5F5"/>
<path opacity="0.2" d="M63.1076 109.38C63.03 110.504 62.8778 112.173 62.6054 113.39C62.5753 113.525 62.5464 113.655 62.5184 113.782C62.1868 115.277 61.9695 116.257 61.2006 117.687C61.1769 117.731 61.1536 117.774 61.1307 117.817C60.6164 118.775 60.2919 119.379 59.4766 120.143C58.0792 121.452 56.899 122.044 55.0015 122.072C53.1708 122.098 50.6069 120.401 50.6069 120.401L42.5842 124.087L43.4801 126.209L50.004 123.138C50.004 123.138 51.9244 124.521 53.3432 124.91C56.4595 125.764 58.8724 125.049 61.3848 122.976C64.0895 120.745 65.2006 118.161 64.9158 114.616C64.7471 112.516 64.1889 110.779 63.1076 109.38Z" fill="#C2C2C2"/>
<path opacity="0.2" d="M51.305 115.152C50.6632 115.845 49.1987 116.101 49.2567 116.408C49.3147 116.716 50.7249 116.758 51.5369 116.383C52.2925 116.035 52.7076 115.607 53.0072 114.816C53.2586 114.152 53.2902 113.672 53.0792 112.993C52.9377 112.538 52.5662 111.924 52.4661 111.944C52.366 111.964 52.4599 112.971 52.2553 113.581C52.0264 114.264 51.79 114.629 51.305 115.152Z" fill="#C2C2C2"/>
<path opacity="0.6" d="M42.2044 112.921C42.226 112.009 42.3571 110.438 42.9653 109.516C43.5805 108.584 44.0462 107.91 45.1173 107.66C46.0175 107.45 46.6294 107.806 47.3511 108.225C47.5818 108.36 47.8237 108.5 48.0898 108.631C48.4178 108.792 48.8384 109.043 49.1225 109.217C49.092 108.984 49.0437 108.766 48.9719 108.578C48.4314 107.165 47.9344 106.052 46.5151 105.628C44.9738 105.168 43.6629 105.446 42.1935 106.882C40.724 108.318 40.9454 109.675 41.823 112.122C41.918 112.387 42.0493 112.656 42.2044 112.921Z" fill="white"/>
<path opacity="0.6" d="M48.9544 112.934C48.9544 112.934 50.2113 110.272 51.5356 109.025C52.4514 108.162 53.022 107.653 54.1944 107.227C55.2541 106.841 56.037 106.9 56.9967 106.972C57.311 106.996 57.6441 107.021 58.0122 107.033C58.8329 107.058 59.8967 107.186 60.6983 107.297C60.5526 107.211 60.4026 107.128 60.2483 107.046C57.3245 105.505 54.4749 105.346 51.8338 107.353C50.4806 108.381 49.4689 110.748 49.0996 111.708C48.992 112.405 48.9544 112.934 48.9544 112.934Z" fill="white"/>
</svg>
