<svg width="128" height="140" viewBox="0 0 128 140" fill="none" xmlns="http://www.w3.org/2000/svg">
<rect opacity="0.4" x="56.2841" width="6.10061" height="30.503" rx="3.0503" fill="#FDC427"/>
<rect opacity="0.4" x="17.1771" y="13.342" width="6.10061" height="30.503" rx="3.0503" transform="rotate(-32.6092 17.1771 13.342)" fill="#FDC427"/>
<rect opacity="0.4" x="40.7784" y="18.3655" width="5.08384" height="14.2347" rx="2.54192" transform="rotate(-15.2186 40.7784 18.3655)" fill="#FDC427"/>
<rect opacity="0.4" x="14.5518" y="38.626" width="5.08384" height="14.2348" rx="2.54192" transform="rotate(-56.9542 14.5518 38.626)" fill="#FDC427"/>
<rect opacity="0.4" x="0.586304" y="50.9475" width="6.10061" height="22.6231" rx="3.0503" transform="rotate(-76.5005 0.586304 50.9475)" fill="#FDC427"/>
<rect opacity="0.4" width="6.10061" height="30.503" rx="3.0503" transform="matrix(-0.842366 -0.538906 -0.538906 0.842366 101.771 13.446)" fill="#FDC427"/>
<rect opacity="0.4" width="5.08384" height="14.2347" rx="2.54192" transform="matrix(-0.964931 -0.262502 -0.262502 0.964931 78.1443 18.3655)" fill="#FDC427"/>
<rect opacity="0.4" width="5.08384" height="14.2348" rx="2.54192" transform="matrix(-0.545309 -0.838235 -0.838235 0.545308 104.371 38.626)" fill="#FDC427"/>
<rect opacity="0.4" width="6.10061" height="22.6231" rx="3.0503" transform="matrix(-0.233437 -0.972372 -0.972372 0.233436 118.336 50.9475)" fill="#FDC427"/>
<ellipse opacity="0.1" cx="60.8595" cy="133.705" rx="50.8384" ry="4.57546" fill="#0092A6"/>
<path d="M44.6695 86.5665L31.7206 107.22L39.7606 111.474L52.3508 91.7718L44.6695 86.5665Z" fill="#F5BC1C"/>
<path opacity="0.6" d="M49.9228 90.539L37.7337 110.141L39.7607 111.474L52.3509 91.7719L49.9228 90.539Z" fill="#D4AE43"/>
<path d="M31.7674 106.016L40.4157 111.178L35.6568 118.756C35.6568 118.756 37.0158 121.347 37.2555 123.162C37.782 127.148 36.5297 130.017 33.6235 132.795C30.4948 135.785 27.1983 136.751 22.9672 135.84C18.8087 134.945 16.0294 132.881 14.5899 128.878C13.2031 125.022 13.4718 121.475 16.3191 118.528C18.1723 116.61 22.5421 115.713 22.5421 115.713C22.5421 115.713 19.6087 115.928 18.2589 115.184C16.6415 114.294 15.3786 113.504 15.0967 111.683C14.7906 109.706 15.3373 108.129 17.3075 106.54C19.2776 104.951 20.8778 105.438 23.6884 106.908C25.8126 108.02 27.8605 111.334 27.8605 111.334L31.7674 106.016Z" fill="#F5F5F5"/>
<path opacity="0.2" d="M16.9432 132.78C18.3124 132.861 20.3496 132.936 21.8623 132.792C22.0294 132.776 22.1912 132.76 22.3483 132.746C24.2065 132.572 25.4236 132.458 27.2724 131.733C27.3295 131.711 27.3856 131.689 27.4407 131.667C28.6791 131.183 29.4605 130.877 30.5136 129.99C32.3184 128.469 33.2234 127.104 33.5633 124.764C33.8912 122.506 32.2581 119.069 32.2581 119.069L38.0003 109.736L40.4157 111.178L35.6568 118.756C35.6568 118.756 37.0158 121.347 37.2555 123.162C37.782 127.148 36.5297 130.017 33.6235 132.795C30.4947 135.785 27.1983 136.751 22.9672 135.84C20.4612 135.3 18.4561 134.337 16.9432 132.78Z" fill="#CACACA"/>
<path opacity="0.2" d="M25.8125 119.104C26.7518 118.42 27.2968 116.651 27.6587 116.771C28.0206 116.891 27.843 118.641 27.2599 119.585C26.7173 120.464 26.1348 120.909 25.1315 121.155C24.2895 121.361 23.7057 121.324 22.9208 120.956C22.3948 120.71 21.7142 120.154 21.7542 120.033C21.7943 119.913 22.9948 120.188 23.7638 120.031C24.6242 119.856 25.1026 119.621 25.8125 119.104Z" fill="#CACACA"/>
<path opacity="0.6" d="M24.5913 107.506C23.4876 107.389 21.5704 107.303 20.3603 107.909C19.1361 108.523 18.2484 108.992 17.7736 110.276C17.3747 111.355 17.7051 112.168 18.0948 113.126C18.2193 113.432 18.3499 113.753 18.4647 114.103C18.6062 114.533 18.8403 115.093 19.005 115.471C18.7283 115.397 18.4736 115.303 18.2589 115.184C16.6415 114.294 15.3786 113.504 15.0967 111.683C14.7906 109.706 15.3373 108.129 17.3075 106.54C19.2776 104.951 20.8778 105.438 23.6884 106.908C23.9928 107.068 24.2957 107.272 24.5913 107.506Z" fill="white"/>
<path opacity="0.6" d="M23.5167 115.85C23.5167 115.85 20.1028 116.983 18.3838 118.423C17.1951 119.419 16.4893 120.044 15.7852 121.425C15.1489 122.674 15.0937 123.651 15.026 124.848C15.0039 125.24 14.9804 125.656 14.9348 126.113C14.8329 127.131 14.815 128.466 14.8199 129.474C14.7397 129.28 14.6631 129.082 14.5899 128.878C13.2031 125.022 13.4718 121.475 16.3191 118.528C17.778 117.018 20.7962 116.141 22.0148 115.836C22.8731 115.813 23.5167 115.85 23.5167 115.85Z" fill="white"/>
<path d="M70.4586 96.9852L91.3511 84.4252L95.4538 92.5434L75.5192 104.763L70.4586 96.9852Z" fill="#F5BC1C"/>
<path opacity="0.6" d="M74.332 102.312L94.1589 90.4919L95.4538 92.5435L75.5192 104.763L74.332 102.312Z" fill="#D4AE43"/>
<path d="M39.6347 97.6094C41.0797 99.5907 40.3408 105.297 41.0328 107.65C42.3037 111.971 42.0253 111.976 43.5747 116.165C45.3283 120.907 55.3946 123.037 55.3946 123.037H66.5791C66.5791 123.037 73.7773 121.176 76.6197 117.436C79.0345 114.259 80.9295 111.37 81.5764 107.65C82.0848 104.727 80.249 99.6033 81.5764 97.6094C86.8419 89.7 90.5923 86.7167 92.5067 77.4098C94.6838 66.8259 93.1012 59.1072 86.7874 50.3383C79.6018 40.3587 70.9943 35.8709 58.6991 36.1036C46.8445 36.3279 38.7074 40.6433 31.8819 50.3383C25.6842 59.1416 24.0995 66.9552 26.6709 77.4098C29.068 87.1553 33.7212 89.5006 39.6347 97.6094Z" fill="#FDC427"/>
<ellipse cx="61.241" cy="83.7563" rx="7.75286" ry="7.75285" fill="#333333"/>
<path d="M53.8292 86.0376C55.7186 84.9186 58.8102 83.375 61.4879 83.375C64.0067 83.375 66.9375 84.3252 68.8803 85.0859C68.2497 88.7342 65.0694 91.5091 61.241 91.5091C57.7532 91.5091 54.8033 89.206 53.8292 86.0376Z" fill="#FF5E5E"/>
<ellipse cx="44.5914" cy="63.548" rx="8.64253" ry="8.38833" fill="#333333"/>
<ellipse cx="44.5914" cy="62.7854" rx="3.0503" ry="3.0503" fill="white"/>
<ellipse cx="48.4043" cy="66.0898" rx="1.27096" ry="1.27096" fill="white"/>
<ellipse cx="75.857" cy="61.2602" rx="8.64253" ry="8.38833" fill="#333333"/>
<ellipse cx="80.4325" cy="64.0564" rx="1.27096" ry="1.27096" fill="white"/>
<ellipse cx="76.6196" cy="60.4976" rx="3.0503" ry="3.0503" fill="white"/>
<path opacity="0.4" d="M33.2818 53.7394C32.9546 54.5155 33.3186 55.41 34.0948 55.7372C34.871 56.0643 35.7654 55.7003 36.0926 54.9242L33.2818 53.7394ZM37.2873 49.6568L36.1007 48.6988L37.2873 49.6568ZM41.1709 46.1997L40.3446 44.9178L41.1709 46.1997ZM46.3205 45.5502C47.118 45.279 47.5447 44.4127 47.2735 43.6152C47.0024 42.8178 46.1361 42.3911 45.3386 42.6622L46.3205 45.5502ZM34.6872 54.3318C36.0926 54.9242 36.0925 54.9243 36.0925 54.9244C36.0925 54.9244 36.0924 54.9245 36.0924 54.9245C36.0924 54.9246 36.0924 54.9246 36.0924 54.9246C36.0924 54.9245 36.0925 54.9243 36.0927 54.9239C36.093 54.9231 36.0937 54.9216 36.0946 54.9193C36.0965 54.9149 36.0996 54.9076 36.1039 54.8976C36.1124 54.8778 36.1256 54.8472 36.143 54.8071C36.178 54.7268 36.2303 54.6083 36.2974 54.4603C36.4318 54.1637 36.6243 53.7515 36.8557 53.2916C37.3322 52.3444 37.9228 51.2977 38.474 50.6149L36.1007 48.6988C35.3345 49.6477 34.625 50.9385 34.1308 51.9208C33.8768 52.4257 33.6663 52.8763 33.519 53.2012C33.4453 53.364 33.387 53.4961 33.3467 53.5886C33.3265 53.6348 33.3108 53.6712 33.2999 53.6967C33.2945 53.7095 33.2902 53.7195 33.2872 53.7266C33.2856 53.7302 33.2844 53.7331 33.2835 53.7352C33.2831 53.7363 33.2827 53.7371 33.2824 53.7378C33.2823 53.7382 33.2821 53.7385 33.282 53.7387C33.282 53.7389 33.2819 53.739 33.2819 53.7391C33.2818 53.7392 33.2818 53.7394 34.6872 54.3318ZM38.474 50.6149C39.6334 49.1788 40.4089 48.5056 41.9973 47.4815L40.3446 44.9178C38.509 46.1011 37.4828 46.9868 36.1007 48.6988L38.474 50.6149ZM41.9973 47.4815C42.7076 47.0237 43.7616 46.5438 44.7019 46.1614C45.1594 45.9754 45.5677 45.8213 45.8611 45.7139C46.0075 45.6603 46.1246 45.6186 46.204 45.5907C46.2438 45.5767 46.274 45.5662 46.2938 45.5594C46.3037 45.5559 46.3109 45.5534 46.3154 45.5519C46.3177 45.5511 46.3193 45.5506 46.3201 45.5503C46.3205 45.5502 46.3208 45.5501 46.3209 45.5501C46.3209 45.55 46.3209 45.55 46.3208 45.5501C46.3208 45.5501 46.3207 45.5501 46.3207 45.5501C46.3206 45.5501 46.3205 45.5502 45.8296 44.1062C45.3386 42.6622 45.3385 42.6623 45.3384 42.6623C45.3383 42.6623 45.3382 42.6624 45.3381 42.6624C45.3378 42.6625 45.3375 42.6626 45.3372 42.6627C45.3366 42.6629 45.3357 42.6632 45.3347 42.6636C45.3327 42.6642 45.3299 42.6652 45.3265 42.6664C45.3196 42.6687 45.3099 42.6721 45.2975 42.6764C45.2727 42.6849 45.2372 42.6973 45.192 42.7132C45.1016 42.745 44.9723 42.791 44.8126 42.8495C44.4938 42.9661 44.051 43.1333 43.5529 43.3358C42.5819 43.7307 41.3067 44.2975 40.3446 44.9178L41.9973 47.4815Z" fill="white"/>
<path opacity="0.6" d="M40.6577 103.665C40.5824 101.324 40.501 98.7974 39.6347 97.6095C39.3582 97.2304 39.0845 96.8639 38.8136 96.5086C42.1621 97.8013 45.8628 98.9494 49.0501 99.2684C58.2574 100.19 64.251 99.5345 72.377 95.1136C80.4578 90.7173 83.6169 85.5691 88.2991 77.9388L88.302 77.9342C88.4885 77.6302 88.6775 77.3222 88.8693 77.0102C90.6594 74.0983 92.1362 70.581 93.3493 66.8887C93.5883 70.1453 93.2922 73.5911 92.5067 77.4099C91.0591 84.4474 88.5616 87.8693 85.1532 92.5393C84.0541 94.0452 82.8603 95.6809 81.5764 97.6095C80.8164 98.7511 81.0933 100.919 81.3735 103.112C81.5827 104.749 81.7937 106.401 81.5764 107.65C80.9295 111.37 79.0345 114.259 76.6197 117.436C73.7773 121.176 66.5791 123.037 66.5791 123.037H55.3946C55.3946 123.037 45.3283 120.908 43.5747 116.166C42.5984 113.526 42.3478 112.547 41.9781 111.104C41.761 110.256 41.5029 109.249 41.0328 107.65C40.7557 106.708 40.708 105.228 40.6577 103.665Z" fill="#D4AE43"/>
<ellipse opacity="0.2" cx="41.287" cy="78.0452" rx="6.10061" ry="6.10061" fill="#FF5E5E"/>
<ellipse opacity="0.2" cx="80.9409" cy="76.0117" rx="6.10061" ry="6.10061" fill="#FF5E5E"/>
<path d="M90.1456 84.4494L95.1452 93.1928L102.811 88.5767C102.811 88.5767 105.376 89.9839 107.186 90.2575C111.161 90.8586 114.054 89.6603 116.885 86.8065C119.934 83.7343 120.961 80.4566 120.13 76.2091C119.312 72.0346 117.301 69.2171 113.326 67.7029C109.496 66.2442 105.945 66.4465 102.945 69.2381C100.992 71.0551 100.014 75.4073 100.014 75.4073C100.014 75.4073 100.284 72.4785 99.5658 71.115C98.7053 69.4812 97.9394 68.2037 96.1242 67.8878C94.153 67.5448 92.5668 68.0618 90.9407 70.0019C89.3147 71.9419 89.7721 73.551 91.1896 76.3885C92.261 78.5332 95.5363 80.6428 95.5363 80.6428L90.1456 84.4494Z" fill="#F5F5F5"/>
<path opacity="0.2" d="M117.183 70.1289C117.238 71.4994 117.275 73.5377 117.102 75.0474C117.083 75.2142 117.065 75.3756 117.047 75.5325C116.839 77.3871 116.702 78.6019 115.943 80.4368C115.919 80.4934 115.896 80.549 115.874 80.6038C115.366 81.8329 115.046 82.6084 114.139 83.6447C112.585 85.4208 111.203 86.3 108.857 86.596C106.593 86.8816 103.188 85.1845 103.188 85.1845L93.7489 90.7509L95.1452 93.1929L102.811 88.5767C102.811 88.5767 105.376 89.9839 107.186 90.2576C111.161 90.8586 114.053 89.6603 116.885 86.8066C119.934 83.7344 120.961 80.4566 120.13 76.2092C119.637 73.6935 118.711 71.6707 117.183 70.1289Z" fill="#CACACA"/>
<path opacity="0.2" d="M103.343 78.7406C102.642 79.667 100.863 80.1788 100.976 80.5428C101.09 80.9069 102.842 80.7621 103.797 80.1968C104.686 79.6708 105.142 79.0967 105.406 78.0982C105.628 77.2602 105.602 76.6757 105.249 75.8841C105.013 75.3536 104.47 74.6627 104.348 74.7005C104.227 74.7382 104.479 75.9437 104.308 76.7096C104.117 77.5667 103.874 78.0405 103.343 78.7406Z" fill="#CACACA"/>
<path opacity="0.6" d="M91.7701 77.3025C91.6736 76.1969 91.6237 74.2784 92.2525 73.0799C92.8886 71.8674 93.3744 70.9885 94.6673 70.5379C95.7539 70.1593 96.56 70.5048 97.5105 70.9124C97.8143 71.0426 98.133 71.1792 98.4802 71.3005C98.9084 71.4501 99.4631 71.6946 99.8385 71.8663C99.7692 71.5883 99.68 71.3319 99.5658 71.115C98.7053 69.4812 97.9394 68.2037 96.1242 67.8878C94.153 67.5448 92.5668 68.0619 90.9408 70.0019C89.3147 71.9419 89.7721 73.551 91.1897 76.3886C91.3432 76.696 91.5421 77.0027 91.7701 77.3025Z" fill="white"/>
<path opacity="0.6" d="M100.132 76.3844C100.132 76.3844 101.33 72.9922 102.801 71.3005C103.819 70.1307 104.457 69.4367 105.852 68.7586C107.112 68.1457 108.09 68.1088 109.288 68.0636C109.681 68.0488 110.097 68.0331 110.554 67.996C111.574 67.9133 112.909 67.9203 113.917 67.9441C113.725 67.8604 113.528 67.78 113.326 67.703C109.496 66.2442 105.945 66.4465 102.945 69.2381C101.408 70.6685 100.474 73.6698 100.147 74.8824C100.108 75.7401 100.132 76.3844 100.132 76.3844Z" fill="white"/>
<path d="M60.499 106.757C52.6687 106.723 40.5376 104.981 40.5376 104.981C40.5376 104.981 40.4563 110.36 41.4141 115.149C42.1767 118.962 44.0083 121.851 48.1502 125.189C52.2474 128.492 56.2333 130.974 61.4953 130.909C66.6229 130.846 70.4159 128.5 74.332 125.189C78.5885 121.591 79.2887 119.597 80.3055 115.149C81.3962 110.377 81.837 104.981 81.837 104.981C81.837 104.981 68.7308 106.792 60.499 106.757Z" fill="#00A2B9"/>
<path opacity="0.6" d="M81.1299 110.768C78.6872 114.865 75.064 120.224 71.8596 122.115C66.6763 125.173 64.8179 125.233 58.7079 125.204C54.5889 125.185 49.337 123.918 45.5132 122.806C46.2667 123.587 47.1397 124.375 48.1502 125.19C52.2473 128.492 56.2333 130.974 61.4953 130.909C66.6229 130.846 70.4159 128.5 74.332 125.19C78.5885 121.591 79.2887 119.597 80.3055 115.149C80.6391 113.69 80.9119 112.172 81.1299 110.768Z" fill="#00879A" stroke="#00A2B9" stroke-width="0.254192"/>
<path d="M86.1152 128.848C86.119 129.03 86.1191 129.13 86.1191 129.13C86.1191 129.13 86.1164 129.03 86.1152 128.848C86.085 127.386 85.8211 120.625 83.5228 117.875C81.5777 115.548 76.8737 114.93 76.8737 114.93C76.8737 114.93 81.795 115.266 83.7761 113.192C85.6457 111.236 86.031 106.412 86.1052 104.046C86.0965 103.22 86.1191 102.694 86.1191 102.694C86.1191 102.694 86.1311 103.22 86.1052 104.046C86.1302 106.406 86.4113 111.214 88.2088 113.192C90.1457 115.324 94.9213 114.93 94.9213 114.93C94.9213 114.93 90.3004 115.649 88.3988 118.026C86.1849 120.795 86.1053 127.404 86.1152 128.848Z" fill="#FDC427"/>
<path d="M95.5463 128.978C95.5484 129.076 95.5484 129.13 95.5484 129.13C95.5484 129.13 95.547 129.076 95.5463 128.978C95.5301 128.19 95.3889 124.55 94.1588 123.07C93.1178 121.817 90.6002 121.483 90.6002 121.483C90.6002 121.483 93.2341 121.664 94.2944 120.548C95.295 119.495 95.5013 116.897 95.541 115.623C95.5363 115.178 95.5484 114.895 95.5484 114.895C95.5484 114.895 95.5549 115.178 95.541 115.623C95.5543 116.894 95.7048 119.483 96.6669 120.548C97.7035 121.696 100.259 121.483 100.259 121.483C100.259 121.483 97.7863 121.871 96.7686 123.151C95.5837 124.641 95.541 128.2 95.5463 128.978Z" fill="#FDC427"/>
<rect x="87.2957" y="33.5532" width="40.6707" height="40.6707" rx="6.10061" transform="rotate(0.325491 87.2957 33.5532)" fill="#00A2B9"/>
<path d="M127.847 38.8328C127.904 39.1747 127.933 39.5262 127.931 39.8848L127.769 68.3538C127.75 71.723 125.003 74.4388 121.634 74.4197L93.1651 74.2579C92.0277 74.2515 90.9647 73.9341 90.0563 73.3869C94.0161 73.1852 99.9576 72.8308 104.962 72.3175C105.193 72.2938 105.423 72.2704 105.652 72.2471C110.351 71.769 114.745 71.3218 117.926 69.3943C120.09 68.0826 121.718 65.5404 122.883 63.2937C124.662 59.8621 125.424 55.1595 126.06 50.8383C126.718 46.3669 127.427 41.6288 127.847 38.8328Z" fill="#666666" fill-opacity="0.2"/>
<path d="M125.65 35.0928C121.774 35.2799 115.081 35.6535 109.538 36.2221C109.307 36.2458 109.077 36.2692 108.847 36.2925C104.149 36.7706 99.7542 37.2178 96.5737 39.1453C94.4093 40.457 92.782 42.9991 91.617 45.2459C89.8376 48.6775 89.075 53.3801 88.4396 57.7013C87.9823 60.8104 87.5001 64.0484 87.1075 66.6729L87.261 39.6536C87.2802 36.2844 90.027 33.5686 93.3962 33.5877L121.865 33.7495C123.299 33.7576 124.614 34.2594 125.65 35.0928Z" fill="white" fill-opacity="0.2"/>
<path opacity="0.8" fill-rule="evenodd" clip-rule="evenodd" d="M97.4634 53.8886C97.4634 48.273 102.015 43.7209 107.631 43.7209C113.247 43.7209 117.799 48.273 117.799 53.8886C117.799 59.5042 113.247 64.0563 107.631 64.0563C102.015 64.0563 97.4634 59.5042 97.4634 53.8886ZM106.106 49.8216C106.106 49.4171 106.267 49.0291 106.553 48.7431C106.839 48.4571 107.227 48.2964 107.631 48.2964H107.641C108.046 48.2964 108.434 48.4571 108.72 48.7431C109.006 49.0291 109.166 49.4171 109.166 49.8216V49.8317C109.166 50.2362 109.006 50.6241 108.72 50.9102C108.434 51.1962 108.046 51.3569 107.641 51.3569H107.631C107.227 51.3569 106.839 51.1962 106.553 50.9102C106.267 50.6241 106.106 50.2362 106.106 49.8317V49.8216ZM107.631 52.8719C107.901 52.8719 108.159 52.979 108.35 53.1697C108.541 53.3603 108.648 53.619 108.648 53.8886V57.9557C108.648 58.2254 108.541 58.484 108.35 58.6747C108.159 58.8653 107.901 58.9725 107.631 58.9725C107.361 58.9725 107.103 58.8653 106.912 58.6747C106.721 58.484 106.614 58.2254 106.614 57.9557V53.8886C106.614 53.619 106.721 53.3603 106.912 53.1697C107.103 52.979 107.361 52.8719 107.631 52.8719Z" fill="white"/>
<path fill-rule="evenodd" clip-rule="evenodd" d="M100.049 74.8303L95.2604 80.4571C95.4343 80.5771 95.5363 80.6428 95.5363 80.6428L90.1457 84.4495L95.1453 93.1929L102.811 88.5767C102.811 88.5767 105.376 89.984 107.186 90.2576C111.161 90.8587 114.054 89.6603 116.885 86.8066C119.934 83.7344 120.961 80.4566 120.13 76.2092C119.312 72.0347 117.301 69.2172 113.326 67.703C109.496 66.2442 105.945 66.4465 102.945 69.2381C100.992 71.0552 100.014 75.4073 100.014 75.4073C100.014 75.4073 100.034 75.1833 100.049 74.8303Z" fill="#F5F5F5"/>
<path opacity="0.2" d="M117.183 70.1289C117.239 71.4994 117.275 73.5377 117.102 75.0474C117.083 75.2142 117.065 75.3756 117.048 75.5325C116.839 77.3871 116.702 78.6019 115.943 80.4368C115.919 80.4934 115.896 80.549 115.874 80.6038C115.366 81.8329 115.046 82.6084 114.139 83.6447C112.585 85.4208 111.203 86.3 108.857 86.596C106.593 86.8816 103.188 85.1845 103.188 85.1845L93.7489 90.7509L95.1453 93.1929L102.811 88.5767C102.811 88.5767 105.376 89.9839 107.186 90.2576C111.161 90.8586 114.054 89.6603 116.885 86.8066C119.934 83.7344 120.961 80.4566 120.13 76.2092C119.637 73.6935 118.711 71.6707 117.183 70.1289Z" fill="#CACACA"/>
<path opacity="0.2" d="M103.343 78.7406C102.642 79.667 100.863 80.1788 100.976 80.5428C101.09 80.9069 102.842 80.7621 103.797 80.1968C104.686 79.6708 105.142 79.0967 105.406 78.0982C105.628 77.2602 105.602 76.6757 105.249 75.8841C105.013 75.3536 104.47 74.6627 104.348 74.7005C104.227 74.7382 104.479 75.9437 104.308 76.7096C104.117 77.5667 103.874 78.0405 103.343 78.7406Z" fill="#CACACA"/>
<path opacity="0.6" d="M100.132 76.3844C100.132 76.3844 101.33 72.9922 102.801 71.3005C103.819 70.1307 104.457 69.4367 105.852 68.7586C107.112 68.1457 108.09 68.1088 109.288 68.0636C109.681 68.0488 110.097 68.0331 110.554 67.996C111.574 67.9133 112.909 67.9203 113.917 67.9441C113.725 67.8604 113.528 67.78 113.326 67.703C109.496 66.2442 105.945 66.4465 102.945 69.2381C101.408 70.6685 100.474 73.6698 100.147 74.8824C100.108 75.7401 100.132 76.3844 100.132 76.3844Z" fill="white"/>
</svg>
