<svg width="161" height="160" viewBox="0 0 161 160" fill="none" xmlns="http://www.w3.org/2000/svg">
<ellipse opacity="0.1" cx="82.4001" cy="155.07" rx="69.0798" ry="4.93086" fill="#0092A6"/>
<rect opacity="0.4" x="73.29" y="11" width="6.63166" height="34.7187" rx="3.31583" fill="#FDC427"/>
<rect opacity="0.4" width="6.72378" height="34.2728" rx="3.36189" transform="matrix(0.830824 -0.556535 0.521381 0.853324 30.7793 26.1855)" fill="#FDC427"/>
<rect opacity="0.4" width="5.54469" height="16.1529" rx="2.77235" transform="matrix(0.961745 -0.273947 0.251467 0.967866 56.4355 31.9043)" fill="#FDC427"/>
<rect opacity="0.4" width="5.71035" height="15.6939" rx="2.85518" transform="matrix(0.52774 -0.849406 0.826481 0.562964 27.9258 54.9648)" fill="#FDC427"/>
<rect opacity="0.4" width="6.92709" height="24.6569" rx="3.46355" transform="matrix(0.223481 -0.974708 0.96983 0.243783 12.7441 68.9883)" fill="#FDC427"/>
<rect opacity="0.4" width="6.92709" height="24.6569" rx="3.46355" transform="matrix(-0.223481 -0.974708 -0.96983 0.243783 140.744 68.9883)" fill="#FDC427"/>
<path d="M49.5742 124.635C49.4559 123.63 63.5991 110.817 63.5991 110.817L70.5776 118.377C70.5776 118.377 57.4634 132.91 56.4501 132.67C55.4368 132.43 52.8824 131.511 51.4438 129.805C50.0331 128.132 49.6925 125.639 49.5742 124.635Z" fill="#FDC427"/>
<path opacity="0.6" d="M70.1085 118.327C69.0109 119.557 57.0794 132.9 56.1166 132.669C55.5156 132.525 54.3704 132.137 53.2395 131.484L68.0495 116.441L70.1085 118.327Z" fill="#D4AE43"/>
<path d="M96.3622 99.9026L110.294 122.559L101.726 127.183L88.1813 105.569L96.3622 99.9026Z" fill="#F5BC1C"/>
<path opacity="0.6" d="M90.7583 104.247L103.848 125.734L101.693 127.184L88.1753 105.586L90.7583 104.247Z" fill="#D4AE43"/>
<path d="M110.196 121.15L100.969 126.77L106.096 135.089C106.096 135.089 104.655 137.922 104.407 139.909C103.863 144.273 105.216 147.421 108.338 150.475C111.7 153.763 115.231 154.834 119.753 153.853C124.197 152.889 127.16 150.64 128.681 146.261C130.146 142.043 129.841 138.157 126.781 134.917C124.79 132.808 120.111 131.808 120.111 131.808C120.111 131.808 123.25 132.056 124.69 131.247C126.416 130.278 127.763 129.418 128.056 127.424C128.374 125.26 127.782 123.531 125.666 121.782C123.551 120.033 121.842 120.561 118.842 122.16C116.575 123.369 114.4 126.991 114.4 126.991L110.196 121.15Z" fill="#F5F5F5"/>
<path opacity="0.2" d="M126.129 150.553C124.668 150.637 122.495 150.711 120.88 150.547C120.702 150.528 120.529 150.511 120.361 150.494C118.378 150.296 117.079 150.166 115.102 149.364C115.041 149.339 114.981 149.314 114.922 149.291C113.599 148.754 112.764 148.415 111.636 147.438C109.703 145.762 108.73 144.261 108.356 141.691C107.996 139.212 109.722 135.449 109.722 135.449L103.55 125.185L100.98 126.757L106.094 135.091C106.094 135.091 104.656 137.929 104.409 139.919C103.866 144.29 105.216 147.443 108.331 150.503C111.683 153.797 115.205 154.87 119.716 153.887C122.387 153.305 124.522 152.255 126.129 150.553Z" fill="#CACACA"/>
<path opacity="0.2" d="M116.637 135.509C115.629 134.756 115.037 132.815 114.651 132.946C114.264 133.076 114.463 134.993 115.091 136.03C115.675 136.996 116.301 137.486 117.375 137.759C118.277 137.988 118.901 137.95 119.739 137.55C120.301 137.282 121.026 136.676 120.983 136.544C120.939 136.411 119.656 136.708 118.833 136.533C117.912 136.338 117.399 136.079 116.637 135.509Z" fill="#CACACA"/>
<path opacity="0.6" d="M117.952 122.796C119.129 122.672 121.175 122.585 122.47 123.255C123.78 123.934 124.73 124.452 125.243 125.864C125.674 127.05 125.325 127.94 124.914 128.99C124.782 129.326 124.644 129.678 124.524 130.061C124.375 130.533 124.127 131.146 123.953 131.561C124.248 131.48 124.52 131.378 124.748 131.249C126.471 130.278 127.815 129.416 128.107 127.419C128.425 125.25 127.834 123.517 125.723 121.765C123.612 120.013 121.906 120.541 118.913 122.144C118.588 122.317 118.266 122.541 117.952 122.796Z" fill="white"/>
<path opacity="0.6" d="M119.095 131.915C119.095 131.915 122.739 133.171 124.578 134.757C125.849 135.854 126.604 136.542 127.361 138.06C128.046 139.432 128.109 140.503 128.187 141.816C128.212 142.246 128.239 142.702 128.29 143.203C128.404 144.32 128.429 145.784 128.429 146.889C128.513 146.677 128.594 146.46 128.671 146.237C130.13 142.014 129.827 138.124 126.779 134.881C125.217 133.219 121.996 132.245 120.696 131.906C119.781 131.877 119.095 131.915 119.095 131.915Z" fill="white"/>
<path d="M54.1773 119.525C55.8041 121.736 54.9723 128.105 55.7513 130.73C57.1823 135.553 56.8688 135.558 58.6132 140.233C60.5876 145.525 71.9211 147.902 71.9211 147.902H84.5135C84.5135 147.902 92.6179 145.825 95.8181 141.652C98.5369 138.106 100.67 134.882 101.399 130.73C101.971 127.468 99.9043 121.75 101.399 119.525C107.327 110.699 111.55 107.369 113.705 96.983C116.156 85.1718 114.374 76.5579 107.266 66.7721C99.1756 55.6352 89.4845 50.6268 75.6416 50.8865C62.2947 51.1369 53.1332 55.9527 45.4484 66.7721C38.4705 76.5963 36.6864 85.3161 39.5815 96.983C42.2804 107.859 47.5194 110.476 54.1773 119.525Z" fill="#FDC427"/>
<ellipse cx="62.047" cy="82.3812" rx="10.3029" ry="9.86171" fill="#333333"/>
<ellipse cx="5.08576" cy="4.20064" rx="5.08576" ry="4.20064" transform="matrix(0.847965 -0.530052 0.540677 0.84123 53.2568 78.7188)" fill="white"/>
<ellipse cx="2.11053" cy="1.43456" rx="2.11053" ry="1.43456" transform="matrix(0.800797 -0.598936 0.609608 0.792703 61.7441 84.9102)" fill="white"/>
<ellipse cx="89.7911" cy="79.6251" rx="13.1817" ry="12.6172" fill="#333333"/>
<ellipse cx="6.50681" cy="5.37437" rx="6.50681" ry="5.37437" transform="matrix(0.847965 -0.530052 0.540677 0.84123 78.5439 74.9375)" fill="white"/>
<ellipse cx="2.70025" cy="1.8354" rx="2.70025" ry="1.8354" transform="matrix(0.800797 -0.598936 0.609608 0.792703 89.4033 82.8594)" fill="white"/>
<path d="M73.1775 101.172C73.1775 101.172 73.9966 99.4505 77.9081 99.393C81.8195 99.3356 83.1057 101.239 83.1057 101.239" stroke="#333333" stroke-width="11.1799" stroke-linecap="round"/>
<path opacity="0.4" d="M43.479 68.2415C42.2404 71.0542 43.532 74.3588 46.3639 75.6225C49.1958 76.8862 52.4956 75.6306 53.7342 72.8179L43.479 68.2415ZM51.5341 65.4916L47.237 61.8721L51.5341 65.4916ZM55.9066 61.766L52.9284 57.0096L55.9066 61.766ZM62.9351 64.8195C65.8649 63.866 67.4415 60.7158 66.4565 57.7834C65.4716 54.851 62.298 53.2468 59.3682 54.2003L62.9351 64.8195ZM48.6066 70.5297C53.7342 72.8179 53.734 72.8183 53.7339 72.8187C53.7338 72.8189 53.7336 72.8193 53.7335 72.8195C53.7333 72.82 53.7331 72.8205 53.7329 72.8209C53.7326 72.8217 53.7323 72.8223 53.7321 72.8227C53.7317 72.8236 53.7317 72.8237 53.732 72.823C53.7325 72.8217 53.7344 72.8175 53.7376 72.8104C53.7439 72.7963 53.7552 72.7711 53.7713 72.7359C53.8034 72.6653 53.854 72.5554 53.9204 72.4152C54.0542 72.1326 54.2466 71.7385 54.4763 71.3013C54.9873 70.3291 55.4933 69.5118 55.8313 69.1112L47.237 61.8721C46.0917 63.23 45.1339 64.9317 44.552 66.039C44.2353 66.6415 43.9739 67.1772 43.7905 67.5644C43.6984 67.7592 43.6245 67.9192 43.5719 68.0349C43.5456 68.0927 43.5244 68.1397 43.5089 68.1745C43.5011 68.1919 43.4947 68.2063 43.4897 68.2175C43.4872 68.2231 43.485 68.2279 43.4833 68.2319C43.4824 68.2339 43.4816 68.2358 43.4809 68.2374C43.4805 68.2382 43.4802 68.2389 43.4799 68.2396C43.4797 68.24 43.4795 68.2404 43.4794 68.2406C43.4792 68.2411 43.479 68.2415 48.6066 70.5297ZM55.8313 69.1112C56.8468 67.9072 57.4007 67.4381 58.8848 66.5223L52.9284 57.0096C50.5575 58.4726 49.0829 59.6836 47.237 61.8721L55.8313 69.1112ZM58.8848 66.5223C59.3747 66.2201 60.2913 65.8045 61.3144 65.4062C61.7804 65.2249 62.1983 65.0739 62.498 64.9689C62.6468 64.9167 62.764 64.8768 62.8403 64.8511C62.8784 64.8383 62.9062 64.8291 62.9224 64.8237C62.9305 64.821 62.9357 64.8193 62.9379 64.8186C62.939 64.8182 62.9393 64.8181 62.9389 64.8183C62.9386 64.8183 62.9382 64.8185 62.9376 64.8187C62.9373 64.8188 62.9369 64.8189 62.9365 64.819C62.9363 64.8191 62.936 64.8192 62.9359 64.8192C62.9355 64.8194 62.9351 64.8195 61.1517 59.5099C59.3682 54.2003 59.3678 54.2004 59.3674 54.2005C59.3673 54.2006 59.3669 54.2007 59.3666 54.2008C59.3659 54.201 59.3653 54.2012 59.3646 54.2015C59.3631 54.2019 59.3615 54.2025 59.3596 54.2031C59.3559 54.2043 59.3514 54.2058 59.3461 54.2075C59.3354 54.211 59.3215 54.2156 59.3045 54.2212C59.2706 54.2324 59.2243 54.2478 59.1668 54.2672C59.0519 54.3059 58.8917 54.3605 58.6959 54.4291C58.3063 54.5656 57.766 54.7608 57.1561 54.9982C56.0274 55.4375 54.3214 56.15 52.9284 57.0096L58.8848 66.5223Z" fill="white"/>
<path opacity="0.6" d="M55.3292 123.695C55.2443 121.173 55.1527 118.45 54.1774 117.17C53.8661 116.761 53.5579 116.366 53.2529 115.983C57.0229 117.376 61.1895 118.614 64.778 118.957C75.1444 119.951 81.8925 119.244 91.0415 114.48C100.139 109.742 103.696 104.194 108.968 95.971L108.971 95.966C109.181 95.6383 109.394 95.3065 109.61 94.9702C111.625 91.8321 113.288 88.0416 114.654 84.0625C114.923 87.5721 114.59 91.2856 113.705 95.4009C112.075 102.985 109.263 106.673 105.426 111.706C104.189 113.328 102.844 115.091 101.399 117.17C100.543 118.4 100.855 120.736 101.17 123.099C101.406 124.864 101.644 126.644 101.399 127.99C100.671 131.999 98.537 135.112 95.8182 138.537C92.618 142.567 84.5136 144.573 84.5136 144.573H71.9212C71.9212 144.573 60.5877 142.277 58.6133 137.167C57.5142 134.322 57.232 133.268 56.8157 131.712C56.5714 130.799 56.2807 129.713 55.7514 127.99C55.4395 126.975 55.3858 125.38 55.3292 123.695Z" fill="#D4AE43"/>
<ellipse opacity="0.2" cx="56.0375" cy="100.469" rx="6.86858" ry="6.57448" fill="#FF5E5E"/>
<ellipse opacity="0.2" cx="100.683" cy="98.2776" rx="6.86858" ry="6.57448" fill="#FF5E5E"/>
<path d="M77.6686 127.026C68.8525 126.99 55.1943 125.113 55.1943 125.113C55.1943 125.113 55.1027 130.909 56.1812 136.071C57.0398 140.18 59.1019 143.293 63.7652 146.891C68.3781 150.45 72.8659 153.125 78.7903 153.055C84.5633 152.987 88.8338 150.459 93.2429 146.891C98.0353 143.013 98.8236 140.865 99.9684 136.071C101.196 130.928 101.693 125.113 101.693 125.113C101.693 125.113 86.9366 127.065 77.6686 127.026Z" fill="#00A2B9"/>
<path opacity="0.6" d="M100.896 131.35C98.146 135.765 94.0667 141.541 90.4589 143.578C84.6231 146.874 82.5308 146.938 75.6516 146.907C71.0141 146.887 65.1011 145.521 60.7959 144.323C61.6443 145.165 62.6271 146.014 63.7649 146.892C68.3778 150.451 72.8655 153.125 78.7899 153.055C84.5629 152.987 88.8334 150.459 93.2425 146.892C98.0349 143.014 98.8233 140.865 99.968 136.071C100.344 134.498 100.651 132.863 100.896 131.35Z" fill="#00879A"/>
<rect width="9.0753" height="15.4904" transform="matrix(0.89419 0.447687 -0.479531 0.877525 80.2676 99.3477)" fill="#018598"/>
<path d="M49.3505 124.797C49.6621 123.851 68.3602 116.496 68.3602 116.496L71.7426 125.447C71.7426 125.447 53.2886 134.67 52.4364 134.147C51.5841 133.625 49.568 132.024 48.9328 130.045C48.31 128.104 49.0388 125.743 49.3505 124.797Z" fill="#F5BC1C"/>
<path opacity="0.6" d="M71.4829 125.639C69.9646 126.399 53.4728 134.631 52.6762 134.141C52.179 133.835 51.2774 133.153 50.4979 132.24L70.3476 123.363L71.4829 125.639Z" fill="#D4AE43"/>
<path d="M66.4034 116.602L70.7171 126.345L80.0803 122.207C80.0803 122.207 82.7636 123.947 84.7662 124.414C89.1648 125.438 92.6144 124.452 96.2486 121.708C100.161 118.754 101.821 115.385 101.53 110.808C101.243 106.309 99.4013 103.131 95.1421 101.14C91.0387 99.2219 86.9967 99.0894 83.1819 101.751C80.6989 103.484 78.9297 107.995 78.9297 107.995C78.9297 107.995 79.6816 104.921 79.0784 103.408C78.3557 101.595 77.6854 100.168 75.6832 99.6561C73.5089 99.1005 71.6382 99.493 69.5055 101.388C67.3729 103.282 67.6441 105.03 68.8124 108.172C69.6955 110.547 73.0733 113.099 73.0733 113.099L66.4034 116.602Z" fill="#F5F5F5"/>
<path opacity="0.2" d="M98.8319 103.818C98.6898 105.321 98.4277 107.552 98.0136 109.185C97.9679 109.365 97.924 109.54 97.8813 109.709C97.3768 111.715 97.0463 113.029 95.9398 114.957C95.9057 115.017 95.8722 115.075 95.8392 115.133C95.099 116.425 94.632 117.24 93.482 118.281C91.5111 120.065 89.8625 120.886 87.2404 120.973C84.7108 121.057 81.2218 118.859 81.2218 118.859L70.0252 123.99L71.1969 126.799L80.3041 122.528C80.3041 122.528 82.9138 124.324 84.8616 124.806C89.1398 125.864 92.4951 124.846 96.0299 122.013C99.8354 118.963 101.451 115.485 101.167 110.759C100.999 107.961 100.282 105.657 98.8319 103.818Z" fill="#CACACA"/>
<path opacity="0.2" d="M82.1838 111.807C81.2478 112.719 79.1544 113.087 79.2271 113.484C79.2998 113.88 81.3065 113.898 82.4746 113.393C83.5617 112.923 84.1665 112.36 84.6183 111.329C84.9975 110.463 85.0579 109.842 84.779 108.969C84.5922 108.385 84.0828 107.6 83.9396 107.628C83.7964 107.657 83.8979 108.957 83.5871 109.751C83.2394 110.64 82.8911 111.118 82.1838 111.807Z" fill="#CACACA"/>
<path opacity="0.6" d="M69.3937 109.055C69.4517 107.839 69.6812 105.741 70.5484 104.497C71.4257 103.239 72.0887 102.329 73.5735 101.968C74.8213 101.664 75.6541 102.122 76.6362 102.662C76.9501 102.835 77.2793 103.016 77.6422 103.183C78.0896 103.389 78.6618 103.712 79.0481 103.937C79.0133 103.627 78.9534 103.338 78.8603 103.09C78.1587 101.221 77.5079 99.7507 75.5639 99.2234C73.4529 98.6507 71.6365 99.0551 69.5658 101.008C67.495 102.96 67.7582 104.762 68.8925 108C69.0154 108.35 69.188 108.705 69.3937 109.055Z" fill="white"/>
<path opacity="0.6" d="M78.9059 109.172C78.9059 109.172 80.7308 105.57 82.6051 103.863C83.9012 102.682 84.7079 101.985 86.3461 101.382C87.8267 100.837 88.91 100.895 90.2379 100.967C90.6726 100.99 91.1336 101.015 91.6434 101.021C92.78 101.034 94.2505 101.176 95.3579 101.305C95.1587 101.193 94.9534 101.085 94.7421 100.98C90.7378 98.9913 86.7933 98.8537 83.0704 101.614C81.163 103.028 79.6871 106.227 79.1453 107.525C78.9745 108.462 78.9059 109.172 78.9059 109.172Z" fill="white"/>
<path d="M107.861 51.9284L111.277 48.7544C112.771 49.0559 114.236 49.2185 115.672 49.2422C117.109 49.2659 118.445 49.0894 119.681 48.7128C120.952 48.3395 122.068 47.7065 123.029 46.8138C123.723 46.169 124.094 45.5308 124.142 44.8991C124.225 44.2707 123.986 43.6488 123.423 43.0333C122.933 42.4973 122.401 42.2028 121.825 42.1496C121.25 42.0965 120.722 42.2931 120.242 42.7395C119.957 43.004 119.735 43.2652 119.576 43.5231C119.435 43.8009 119.277 44.0952 119.1 44.4061L114.543 41.0952C114.807 40.5926 115.09 40.1279 115.391 39.7014C115.71 39.2583 116.065 38.8549 116.457 38.4912C118.005 37.053 119.687 36.445 121.503 36.6672C123.355 36.8928 125.17 37.9783 126.948 39.9238C128.763 41.909 129.689 43.8757 129.726 45.8239C129.763 47.7721 128.909 49.5562 127.165 51.1763C126.062 52.2012 124.839 52.9516 123.497 53.4274C122.155 53.9032 120.694 54.1409 119.114 54.1403C117.57 54.143 115.934 53.9556 114.206 53.5779L111.59 56.008L107.861 51.9284ZM102.092 57.0118L105.963 53.4162L109.992 57.8233L106.121 61.4189L102.092 57.0118Z" fill="#018598"/>
<rect width="1.60085" height="2.69437" transform="matrix(0.981091 -0.18687 0.152348 0.989541 113.831 38.3184)" fill="#018598"/>
<rect width="1.69055" height="2.7054" transform="matrix(0.98125 -0.186045 0.151168 0.989719 107.396 49.0762)" fill="#018598"/>
<rect width="1.79207" height="2.6948" transform="matrix(0.981217 -0.186214 0.151027 0.98974 107.993 55.3652)" fill="#018598"/>
<rect width="2.013" height="2.69146" transform="matrix(0.981166 -0.186482 0.150805 0.989774 101.717 54.0645)" fill="#018598"/>
<path d="M107.397 49.2273L110.813 46.0532C112.307 46.3547 113.772 46.5173 115.209 46.541C116.645 46.5647 117.981 46.3882 119.217 46.0116C120.488 45.6383 121.604 45.0053 122.565 44.1126C123.259 43.4679 123.63 42.8296 123.678 42.1979C123.761 41.5695 123.522 40.9476 122.959 40.3322C122.469 39.7962 121.937 39.5016 121.362 39.4485C120.786 39.3953 120.259 39.592 119.778 40.0383C119.493 40.3028 119.271 40.564 119.112 40.822C118.971 41.0997 118.813 41.3941 118.636 41.7049L114.079 38.394C114.343 37.8914 114.626 37.4268 114.927 37.0002C115.246 36.5571 115.601 36.1537 115.993 35.79C117.541 34.3518 119.223 33.7438 121.039 33.9661C122.891 34.1916 124.706 35.2772 126.484 37.2227C128.299 39.2079 129.225 41.1746 129.262 43.1227C129.299 45.0709 128.445 46.855 126.701 48.4751C125.598 49.5001 124.375 50.2504 123.033 50.7263C121.691 51.2021 120.23 51.4397 118.65 51.4391C117.106 51.4419 115.47 51.2544 113.742 50.8767L111.126 53.3068L107.397 49.2273ZM101.628 54.3106L105.499 50.715L109.528 55.1221L105.657 58.7177L101.628 54.3106Z" fill="#00A2B9"/>
<path d="M90.9643 38.804L91.8534 32.9452C93.7367 32.1433 95.4664 31.2178 97.0426 30.1688C98.6187 29.1198 99.9086 27.9376 100.912 26.6222C101.958 25.2834 102.606 23.7901 102.856 22.1424C103.037 20.9523 102.873 20.0105 102.366 19.3169C101.9 18.6 101.09 18.1313 99.9368 17.9109C98.9319 17.7189 98.0947 17.8101 97.4252 18.1846C96.7556 18.559 96.3583 19.1582 96.2333 19.9821C96.1592 20.4703 96.1502 20.9082 96.2063 21.2957C96.2996 21.6903 96.3882 22.1154 96.4723 22.5711L88.609 22.5287C88.4504 21.8076 88.3453 21.1125 88.2936 20.4432C88.2467 19.7435 88.2741 19.0579 88.376 18.3866C88.7789 15.7318 90.0614 13.8417 92.2235 12.7163C94.4275 11.5674 97.3531 11.3414 101 12.0383C104.722 12.7494 107.465 14.1055 109.229 16.1068C110.993 18.108 111.649 20.6039 111.195 23.5943C110.908 25.4862 110.248 27.1814 109.217 28.6799C108.185 30.1783 106.814 31.5177 105.103 32.6979C103.434 33.8548 101.497 34.882 99.293 35.7797L98.6123 40.2653L90.9643 38.804ZM89.2196 48.4085L90.2268 41.7716L98.4887 43.3502L97.4815 49.9871L89.2196 48.4085Z" fill="#018598"/>
<rect width="1.95191" height="3.66295" transform="matrix(0.675209 -0.739646 0.731986 0.679146 86.5215 20.1992)" fill="#018598"/>
<rect width="2.06546" height="3.68256" transform="matrix(0.675991 -0.738927 0.731309 0.679879 88.3564 36.5762)" fill="#018598"/>
<rect width="2.19494" height="3.67399" transform="matrix(0.675997 -0.738922 0.731314 0.679873 93.9707 42.6465)" fill="#018598"/>
<rect width="2.47679" height="3.681" transform="matrix(0.676013 -0.738907 0.731329 0.679857 86.3936 46.3242)" fill="#018598"/>
<path d="M88.3354 36.3607L89.2245 30.5019C91.1078 29.6999 92.8375 28.7745 94.4136 27.7254C95.9898 26.6764 97.2797 25.4942 98.2836 24.1788C99.3292 22.8401 99.9771 21.3468 100.227 19.699C100.408 18.5089 100.244 17.5671 99.7368 16.8736C99.2712 16.1566 98.4616 15.6879 97.3079 15.4675C96.303 15.2755 95.4658 15.3667 94.7963 15.7412C94.1267 16.1157 93.7294 16.7148 93.6044 17.5387C93.5303 18.027 93.5213 18.4648 93.5774 18.8523C93.6707 19.2469 93.7593 19.6721 93.8434 20.1277L85.9801 20.0854C85.8215 19.3643 85.7163 18.6691 85.6647 17.9999C85.6177 17.3001 85.6452 16.6146 85.7471 15.9432C86.1499 13.2885 87.4325 11.3984 89.5946 10.2729C91.7986 9.12407 94.7242 8.89807 98.3714 9.59493C102.093 10.306 104.836 11.6622 106.6 13.6634C108.364 15.6647 109.02 18.1605 108.566 21.151C108.279 23.0429 107.619 24.738 106.588 26.2365C105.556 27.7349 104.185 29.0743 102.474 30.2546C100.805 31.4114 98.8682 32.4387 96.6641 33.3363L95.9833 37.8219L88.3354 36.3607ZM86.5907 45.9652L87.5979 39.3283L95.8598 40.9069L94.8526 47.5438L86.5907 45.9652Z" fill="#00A2B9"/>
<ellipse cx="91.8364" cy="79.1679" rx="22.7006" ry="22.828" fill="#F2F7FA" fill-opacity="0.2"/>
<path fill-rule="evenodd" clip-rule="evenodd" d="M91.5957 105.773C106.507 105.773 118.596 93.6851 118.596 78.7734C118.596 63.8617 106.507 51.7734 91.5957 51.7734C76.684 51.7734 64.5957 63.8617 64.5957 78.7734C64.5957 93.6851 76.684 105.773 91.5957 105.773ZM91.5957 101.273C104.022 101.273 114.096 91.1998 114.096 78.7734C114.096 66.347 104.022 56.2734 91.5957 56.2734C79.1693 56.2734 69.0957 66.347 69.0957 78.7734C69.0957 91.1998 79.1693 101.273 91.5957 101.273Z" fill="#00A2BA"/>
<path d="M89.7937 61.4745C89.5207 62.5247 90.0207 63.7573 90.7018 64.0998C91.3828 64.4422 96.4351 64.5245 99.328 66.4967C101.775 68.1653 103.187 71.5191 104.209 72.3179C105.23 73.1167 106.124 73.2927 107.046 72.6603C107.988 72.0145 107.954 70.8339 107.727 69.8068C107.5 68.7797 104.888 64.6786 101.939 62.6159C98.8079 60.4269 94.2204 59.5343 92.6313 59.6483C91.0422 59.7623 90.1265 60.1945 89.7937 61.4745Z" fill="white"/>
</svg>
