<svg width="161" height="160" viewBox="0 0 161 160" fill="none" xmlns="http://www.w3.org/2000/svg">
<path d="M112.946 23.5463C111.461 22.8109 109.715 22.8109 108.231 23.5463C96.3245 29.4455 84.4183 32.3486 72.512 34.8107C70.1801 35.2929 68.5 37.3402 68.5 39.7215V82.0166C68.5 97.5271 91.235 118.707 110.588 128.536C129.941 118.707 152.676 97.5271 152.676 82.0166V39.7245C152.676 37.3437 150.997 35.2966 148.666 34.814C136.759 32.349 124.852 29.4457 112.946 23.5463Z" fill="#0092A6"/>
<path d="M108.897 18.552C109.961 18.0245 111.215 18.0245 112.28 18.552C124.366 24.5403 136.428 27.474 148.362 29.9445C150.002 30.2841 151.176 31.7222 151.176 33.3861V77.6782C151.176 81.2042 149.878 85.1774 147.515 89.3719C145.159 93.5536 141.798 97.8624 137.806 102.031C130.008 110.175 119.924 117.66 110.588 122.511C101.252 117.66 91.1681 110.175 83.3701 102.031C79.3786 97.8624 76.0173 93.5536 73.6616 89.3719C71.2987 85.1774 70 81.2042 70 77.6782V33.3831C70 31.7189 71.1749 30.2805 72.8158 29.9412C84.749 27.4736 96.811 24.54 108.897 18.552Z" fill="#00A2B9" stroke="white" stroke-width="3"/>
<path d="M110.587 39C107.313 39 104.174 40.3004 101.859 42.6151C99.5444 44.9297 98.244 48.0691 98.244 51.3426V58.6852C98.244 59.2374 97.7963 59.6852 97.244 59.6852H94.0156C91.8065 59.6852 90.0156 61.476 90.0156 63.6852V85.3703C90.0156 87.5794 91.8065 89.3703 94.0156 89.3703H127.158C129.367 89.3703 131.158 87.5794 131.158 85.3703V63.6852C131.158 61.476 129.367 59.6852 127.158 59.6852H123.929C123.377 59.6852 122.929 59.2374 122.929 58.6852V51.3426C122.929 48.0691 121.629 44.9297 119.314 42.6151C116.999 40.3004 113.86 39 110.587 39ZM110.587 43.1142C112.769 43.1142 114.862 43.9811 116.405 45.5242C117.948 47.0674 118.815 49.1603 118.815 51.3426V58.6852C118.815 59.2374 118.367 59.6852 117.815 59.6852H103.358C102.806 59.6852 102.358 59.2374 102.358 58.6852V51.3426C102.358 49.1603 103.225 47.0674 104.768 45.5242C106.311 43.9811 108.404 43.1142 110.587 43.1142Z" fill="#FDC427"/>
<path fill-rule="evenodd" clip-rule="evenodd" d="M110.5 65.2012C111.03 65.2012 111.539 65.4119 111.914 65.787C112.289 66.162 112.5 66.6707 112.5 67.2012V77.2012C112.5 77.7316 112.289 78.2403 111.914 78.6154C111.539 78.9905 111.03 79.2012 110.5 79.2012C109.97 79.2012 109.461 78.9905 109.086 78.6154C108.711 78.2403 108.5 77.7316 108.5 77.2012V67.2012C108.5 66.6707 108.711 66.162 109.086 65.787C109.461 65.4119 109.97 65.2012 110.5 65.2012ZM110.5 85.2012C111.03 85.2012 111.539 84.9905 111.914 84.6154C112.289 84.2403 112.5 83.7316 112.5 83.2012C112.5 82.6707 112.289 82.162 111.914 81.787C111.539 81.4119 111.03 81.2012 110.5 81.2012C109.97 81.2012 109.461 81.4119 109.086 81.787C108.711 82.162 108.5 82.6707 108.5 83.2012C108.5 83.7316 108.711 84.2403 109.086 84.6154C109.461 84.9905 109.97 85.2012 110.5 85.2012Z" fill="white"/>
<path d="M53.1043 108.238L36.0069 97.9598L32.6495 104.603L48.963 114.603L53.1043 108.238Z" fill="#F5BC1C"/>
<path opacity="0.6" d="M49.9365 112.597L33.7111 102.924L32.6515 104.603L48.9649 114.603L49.9365 112.597Z" fill="#D4AE43"/>
<path d="M36.9923 97.9796L32.9009 105.135L26.6277 101.357C26.6277 101.357 24.5282 102.509 23.0471 102.733C19.7941 103.225 17.4273 102.244 15.1099 99.9086C12.615 97.3944 11.7743 94.7121 12.455 91.2362C13.1239 87.82 14.7698 85.5143 18.0228 84.2751C21.1568 83.0814 24.0628 83.2469 26.518 85.5314C28.116 87.0184 28.9167 90.58 28.9167 90.58C28.9167 90.58 28.6957 88.1832 29.2834 87.0674C29.9875 85.7304 30.6143 84.6849 32.0998 84.4264C33.7129 84.1457 35.011 84.5688 36.3416 86.1565C37.6723 87.7441 37.298 89.0609 36.1379 91.383C35.2612 93.1381 32.5809 94.8645 32.5809 94.8645L36.9923 97.9796Z" fill="#F5F5F5"/>
<path opacity="0.2" d="M14.8659 86.2603C14.8203 87.3818 14.7902 89.0498 14.9317 90.2853C14.9473 90.4218 14.9622 90.5539 14.9766 90.6823C15.1474 92.2 15.2592 93.1941 15.8806 94.6957C15.8997 94.742 15.9185 94.7876 15.9371 94.8324C16.3525 95.8382 16.6146 96.4728 17.3566 97.3209C18.6283 98.7743 19.7591 99.4938 21.6794 99.7361C23.532 99.9699 26.3185 98.581 26.3185 98.581L34.043 103.136L32.9003 105.135L26.627 101.357C26.627 101.357 24.5276 102.509 23.0465 102.733C19.7934 103.224 17.4267 102.244 15.1092 99.9084C12.6144 97.3943 11.7737 94.7119 12.4543 91.236C12.8574 89.1774 13.6153 87.522 14.8659 86.2603Z" fill="#CACACA"/>
<path opacity="0.2" d="M26.1915 93.3082C26.7655 94.0662 28.2216 94.4851 28.1288 94.783C28.0361 95.0809 26.602 94.9624 25.8204 94.4998C25.0931 94.0693 24.7195 93.5995 24.5034 92.7824C24.322 92.0966 24.3429 91.6184 24.6319 90.9705C24.8256 90.5363 25.27 89.9709 25.3693 90.0019C25.4686 90.0328 25.262 91.0193 25.4019 91.6461C25.5585 92.3474 25.7578 92.7352 26.1915 93.3082Z" fill="#CACACA"/>
<path opacity="0.6" d="M35.6643 92.1308C35.7432 91.226 35.7841 89.6561 35.2695 88.6752C34.7489 87.683 34.3514 86.9638 33.2933 86.595C32.4041 86.2852 31.7445 86.568 30.9666 86.9014C30.7179 87.0081 30.4572 87.1198 30.173 87.2191C29.8227 87.3415 29.3687 87.5416 29.0615 87.6821C29.1182 87.4546 29.1912 87.2448 29.2846 87.0673C29.9888 85.7303 30.6156 84.6849 32.1011 84.4263C33.7142 84.1456 35.0123 84.5688 36.3429 86.1564C37.6736 87.744 37.2993 89.0608 36.1392 91.3829C36.0136 91.6345 35.8508 91.8855 35.6643 92.1308Z" fill="white"/>
<path opacity="0.6" d="M28.8179 91.3794C28.8179 91.3794 27.8381 88.6034 26.6337 87.219C25.8008 86.2617 25.2786 85.6938 24.1375 85.1388C23.106 84.6373 22.3058 84.6071 21.3251 84.5701C21.0039 84.558 20.6634 84.5452 20.2891 84.5148C19.4544 84.4471 18.362 84.4529 17.5372 84.4723C17.6944 84.4038 17.8557 84.338 18.0211 84.275C21.155 83.0812 24.061 83.2468 26.5162 85.5313C27.7741 86.7018 28.538 89.1579 28.8062 90.1503C28.8382 90.8522 28.8179 91.3794 28.8179 91.3794Z" fill="white"/>
<path d="M68.7355 108.238L85.8329 97.9598L89.1903 104.603L72.8769 114.603L68.7355 108.238Z" fill="#F5BC1C"/>
<path opacity="0.6" d="M71.9033 112.597L88.1287 102.924L89.1884 104.603L72.8749 114.603L71.9033 112.597Z" fill="#D4AE43"/>
<path d="M43.5121 108.749C44.6945 110.37 44.0899 115.041 44.6562 116.966C45.6963 120.502 45.4684 120.506 46.7364 123.934C48.1714 127.815 56.4092 129.558 56.4092 129.558H65.562C65.562 129.558 71.4527 128.035 73.7787 124.974C75.7549 122.374 77.3056 120.01 77.835 116.966C78.2511 114.574 76.7488 110.381 77.835 108.749C82.144 102.276 85.2131 99.835 86.7798 92.2186C88.5614 83.5574 87.2663 77.2407 82.0994 70.0647C76.2191 61.8979 69.1752 58.2253 59.1134 58.4157C49.4122 58.5993 42.7532 62.1308 37.1676 70.0647C32.0957 77.2689 30.7988 83.6632 32.9032 92.2186C34.8648 100.194 38.6728 102.113 43.5121 108.749Z" fill="#FDC427"/>
<path opacity="0.4" d="M38.2645 73.1641C37.8859 74.0622 38.3071 75.0971 39.2052 75.4757C40.1033 75.8542 41.1382 75.4331 41.5168 74.535L38.2645 73.1641ZM42.0185 70.0238L43.3915 71.1323L42.0185 70.0238ZM45.1966 67.1946L44.2404 65.7114L44.2404 65.7114L45.1966 67.1946ZM49.5771 67.1522C50.4998 66.8385 50.9935 65.8361 50.6798 64.9134C50.366 63.9906 49.3637 63.4969 48.4409 63.8107L49.5771 67.1522ZM39.8906 73.8495C41.5168 74.535 41.5167 74.5351 41.5167 74.5352C41.5167 74.5353 41.5166 74.5354 41.5166 74.5354C41.5165 74.5355 41.5165 74.5356 41.5165 74.5357C41.5165 74.5357 41.5165 74.5357 41.5166 74.5354C41.5168 74.535 41.5172 74.534 41.5179 74.5324C41.5192 74.5292 41.5216 74.5237 41.5249 74.516C41.5314 74.5007 41.5418 74.4767 41.5556 74.4449C41.5834 74.3812 41.6251 74.2866 41.6789 74.168C41.7867 73.93 41.9412 73.5992 42.1267 73.2305C42.5137 72.4613 42.9768 71.646 43.3915 71.1323L40.6454 68.9153C39.982 69.7369 39.3812 70.8345 38.9738 71.6443C38.7621 72.0651 38.5868 72.4404 38.4641 72.7111C38.4026 72.8469 38.3539 72.9572 38.3201 73.035C38.3031 73.0739 38.2898 73.1047 38.2805 73.1265C38.2758 73.1374 38.2721 73.146 38.2695 73.1523C38.2681 73.1555 38.267 73.1581 38.2662 73.16C38.2658 73.161 38.2654 73.1618 38.2651 73.1625C38.265 73.1628 38.2649 73.1631 38.2648 73.1634C38.2647 73.1635 38.2646 73.1637 38.2646 73.1638C38.2645 73.1639 38.2645 73.1641 39.8906 73.8495ZM43.3915 71.1323C44.3026 70.0039 44.8947 69.4889 46.1528 68.6778L44.2404 65.7114C42.6965 66.7068 41.8142 67.4675 40.6454 68.9153L43.3915 71.1323ZM46.1528 68.6778C46.6914 68.3306 47.5165 67.9527 48.2808 67.6419C48.6483 67.4924 48.9765 67.3685 49.2123 67.2823C49.3299 67.2392 49.4237 67.2058 49.4868 67.1836C49.5184 67.1725 49.5423 67.1642 49.5576 67.1589C49.5653 67.1563 49.5708 67.1544 49.5741 67.1532C49.5757 67.1527 49.5768 67.1523 49.5773 67.1521C49.5776 67.1521 49.5777 67.152 49.5776 67.152C49.5776 67.152 49.5775 67.1521 49.5775 67.1521C49.5774 67.1521 49.5773 67.1521 49.5773 67.1521C49.5772 67.1522 49.5771 67.1522 49.009 65.4814C48.4409 63.8107 48.4408 63.8107 48.4406 63.8108C48.4406 63.8108 48.4404 63.8108 48.4403 63.8109C48.4401 63.811 48.4398 63.8111 48.4395 63.8112C48.4388 63.8114 48.4381 63.8116 48.4371 63.812C48.4353 63.8126 48.4328 63.8134 48.4298 63.8145C48.4237 63.8166 48.4154 63.8194 48.4048 63.8231C48.3837 63.8304 48.3537 63.8408 48.3158 63.8541C48.24 63.8808 48.1321 63.9192 47.9992 63.9679C47.734 64.0649 47.3658 64.2039 46.9513 64.3725C46.1515 64.6977 45.0704 65.1763 44.2404 65.7114L46.1528 68.6778Z" fill="white"/>
<path opacity="0.6" d="M44.3489 113.704C44.2873 111.789 44.2207 109.721 43.5118 108.749C43.2855 108.439 43.0615 108.139 42.8398 107.848C45.5801 108.906 48.6085 109.845 51.2168 110.106C58.7517 110.861 63.6565 110.324 70.3064 106.706C76.9193 103.109 79.5045 98.8955 83.3362 92.6513L83.3386 92.6475C83.4913 92.3987 83.6459 92.1467 83.8029 91.8913C85.2678 89.5084 86.4763 86.63 87.469 83.6084C87.6646 86.2735 87.4223 89.0933 86.7795 92.2184C85.5948 97.9776 83.5511 100.778 80.7618 104.6C79.8624 105.832 78.8854 107.171 77.8347 108.749C77.2128 109.683 77.4394 111.457 77.6687 113.252C77.8399 114.591 78.0126 115.943 77.8347 116.966C77.3053 120.01 75.7545 122.374 73.7784 124.974C71.4523 128.035 65.5617 129.558 65.5617 129.558H56.4089C56.4089 129.558 48.1711 127.815 46.7361 123.934C45.9371 121.774 45.7321 120.973 45.4295 119.792C45.2518 119.098 45.0406 118.274 44.6559 116.966C44.4291 116.195 44.3901 114.983 44.3489 113.704Z" fill="#D4AE43"/>
<ellipse opacity="0.2" cx="44.8635" cy="92.7385" rx="4.99243" ry="4.99243" fill="#FF5E5E"/>
<ellipse opacity="0.2" cx="77.3127" cy="91.0745" rx="4.99243" ry="4.99243" fill="#FF5E5E"/>
<path d="M61.4032 94.9228C58.2989 95.2696 54.4887 92.2159 53.6566 93.464C52.8245 94.7121 54.031 98.8703 56.4648 100.641C58.2498 101.939 59.7824 102.121 61.9773 101.889C63.9503 101.68 65.2368 101.297 66.6577 99.9126C68.8541 97.7721 69.1539 92.944 68.2178 92.2159C67.2818 91.4878 64.2764 94.6019 61.4032 94.9228Z" fill="#333333"/>
<path d="M67.9507 97.9263C66.4035 97.4332 63.6936 96.6909 61.4013 96.6909C58.9644 96.6909 56.108 97.8969 54.6562 98.5963C55.1388 99.3943 55.7479 100.12 56.463 100.641C58.248 101.939 59.7805 102.121 61.9754 101.889C63.9485 101.68 65.2349 101.297 66.6558 99.9125C67.2009 99.3814 67.6291 98.6847 67.9507 97.9263Z" fill="#FF5E5E"/>
<ellipse cx="49.0525" cy="80.469" rx="7.82597" ry="7.82597" fill="#333333"/>
<ellipse cx="3.91242" cy="3.29242" rx="3.91242" ry="3.29242" transform="matrix(0.837274 -0.546783 0.523983 0.851728 42.375 77.562)" fill="white"/>
<ellipse cx="1.62923" cy="1.12056" rx="1.62923" ry="1.12056" transform="matrix(0.787973 -0.615709 0.592808 0.805343 48.8242 82.4756)" fill="white"/>
<ellipse cx="72.3142" cy="80.469" rx="7.82597" ry="7.82597" fill="#333333"/>
<ellipse cx="3.91242" cy="3.29242" rx="3.91242" ry="3.29242" transform="matrix(0.837274 -0.546783 0.523983 0.851728 65.6367 77.562)" fill="white"/>
<ellipse cx="1.62923" cy="1.12056" rx="1.62923" ry="1.12056" transform="matrix(0.787973 -0.615709 0.592808 0.805343 72.0859 82.4756)" fill="white"/>
<path opacity="0.2" d="M33.0333 92.7058C33.8107 88.7128 35.6593 80.9379 38.9357 76.4095C42.0877 72.0531 44.0444 69.1968 48.7125 66.5282C52.9499 64.1058 55.87 63.8572 60.6736 62.9919C65.1858 62.179 73.7222 64.6032 78.0431 65.1775C73.4667 61.5357 69.6183 58.4145 59.1134 58.416C49.4122 58.5996 42.7532 62.1311 37.1676 70.065C32.0957 77.2692 30.7988 83.6635 32.9032 92.2189C32.943 92.3809 32.9864 92.5432 33.0333 92.7058Z" fill="#FFFBEE"/>
<path d="M84.8475 97.9796L88.9389 105.135L95.2122 101.357C95.2122 101.357 97.3116 102.509 98.7927 102.733C102.046 103.225 104.413 102.244 106.73 99.9086C109.225 97.3944 110.066 94.7121 109.385 91.2362C108.716 87.82 107.07 85.5143 103.817 84.2751C100.683 83.0814 97.7771 83.2469 95.3219 85.5314C93.7239 87.0184 92.9231 90.58 92.9231 90.58C92.9231 90.58 93.1442 88.1832 92.5565 87.0674C91.8523 85.7304 91.2255 84.6849 89.7401 84.4264C88.127 84.1457 86.8289 84.5688 85.4982 86.1565C84.1676 87.7441 84.5418 89.0609 85.7019 91.383C86.5787 93.1381 89.2589 94.8645 89.2589 94.8645L84.8475 97.9796Z" fill="#F5F5F5"/>
<path opacity="0.2" d="M106.974 86.2603C107.02 87.3818 107.05 89.0498 106.908 90.2853C106.893 90.4218 106.878 90.5539 106.863 90.6823C106.692 92.2 106.581 93.1941 105.959 94.6957C105.94 94.742 105.921 94.7876 105.903 94.8324C105.487 95.8382 105.225 96.4728 104.483 97.3209C103.212 98.7743 102.081 99.4938 100.16 99.7361C98.3078 99.9699 95.5213 98.581 95.5213 98.581L87.7969 103.136L88.9396 105.135L95.2128 101.357C95.2128 101.357 97.3122 102.509 98.7933 102.733C102.046 103.224 104.413 102.244 106.731 99.9084C109.225 97.3943 110.066 94.7119 109.386 91.236C108.982 89.1774 108.225 87.522 106.974 86.2603Z" fill="#CACACA"/>
<path opacity="0.2" d="M95.6483 93.3082C95.0744 94.0662 93.6182 94.4851 93.711 94.783C93.8038 95.0809 95.2378 94.9624 96.0194 94.4998C96.7468 94.0693 97.1204 93.5995 97.3365 92.7824C97.5179 92.0966 97.4969 91.6184 97.2079 90.9705C97.0143 90.5363 96.5698 89.9709 96.4705 90.0019C96.3712 90.0328 96.5778 91.0193 96.4379 91.6461C96.2814 92.3474 96.0821 92.7352 95.6483 93.3082Z" fill="#CACACA"/>
<path opacity="0.6" d="M86.1756 92.1308C86.0967 91.226 86.0558 89.6561 86.5704 88.6752C87.091 87.683 87.4885 86.9638 88.5466 86.595C89.4358 86.2852 90.0954 86.568 90.8732 86.9014C91.1219 87.0081 91.3826 87.1198 91.6668 87.2191C92.0172 87.3415 92.4712 87.5416 92.7784 87.6821C92.7217 87.4546 92.6487 87.2448 92.5552 87.0673C91.8511 85.7303 91.2242 84.6849 89.7388 84.4263C88.1257 84.1456 86.8276 84.5688 85.4969 86.1564C84.1663 87.744 84.5406 89.0608 85.7006 91.3829C85.8263 91.6345 85.989 91.8855 86.1756 92.1308Z" fill="white"/>
<path opacity="0.6" d="M93.022 91.3794C93.022 91.3794 94.0017 88.6034 95.2062 87.219C96.0391 86.2617 96.5612 85.6938 97.7024 85.1388C98.7339 84.6373 99.534 84.6071 100.515 84.5701C100.836 84.558 101.176 84.5452 101.551 84.5148C102.385 84.4471 103.478 84.4529 104.303 84.4723C104.145 84.4038 103.984 84.338 103.819 84.275C100.685 83.0812 97.7788 83.2468 95.3236 85.5313C94.0657 86.7018 93.3018 89.1579 93.0337 90.1503C93.0017 90.8522 93.022 91.3794 93.022 91.3794Z" fill="white"/>
<path d="M60.5868 116.234C54.1789 116.206 44.2514 114.781 44.2514 114.781C44.2514 114.781 44.1848 119.183 44.9687 123.102C45.5928 126.222 47.0916 128.587 50.4812 131.319C53.8341 134.021 57.096 136.052 61.4021 135.999C65.5982 135.947 68.7023 134.028 71.907 131.319C75.3904 128.374 75.9634 126.742 76.7954 123.102C77.688 119.197 78.0488 114.781 78.0488 114.781C78.0488 114.781 67.3233 116.263 60.5868 116.234Z" fill="#00A2B9"/>
<path opacity="0.6" d="M77.4711 119.517C75.4721 122.87 72.5071 127.255 69.8848 128.803C65.643 131.305 64.1222 131.354 59.1221 131.331C55.7513 131.315 51.4534 130.278 48.3242 129.368C48.9408 130.007 49.6553 130.652 50.4822 131.319C53.8351 134.021 57.097 136.052 61.4031 135.999C65.5993 135.947 68.7033 134.028 71.908 131.319C75.3914 128.374 75.9644 126.742 76.7965 123.102C77.0694 121.908 77.2927 120.666 77.4711 119.517Z" fill="#00879A" stroke="#00A2B9" stroke-width="0.294118"/>
<path d="M81.5472 134.313C81.5503 134.462 81.5504 134.544 81.5504 134.544C81.5504 134.544 81.5482 134.462 81.5472 134.313C81.5224 133.116 81.3065 127.584 79.4257 125.334C77.8339 123.429 73.9844 122.923 73.9844 122.923C73.9844 122.923 78.0117 123.198 79.633 121.501C81.1629 119.9 81.4783 115.952 81.539 114.016C81.5319 113.34 81.5504 112.91 81.5504 112.91C81.5504 112.91 81.5602 113.34 81.539 114.016C81.5594 115.948 81.7895 119.882 83.2605 121.501C84.8455 123.246 88.7536 122.923 88.7536 122.923C88.7536 122.923 84.9722 123.512 83.416 125.457C81.6042 127.723 81.5391 133.131 81.5472 134.313Z" fill="#FDC427"/>
<path d="M87.6024 135.251C87.604 135.332 87.6041 135.376 87.6041 135.376C87.6041 135.376 87.6029 135.332 87.6024 135.251C87.5891 134.607 87.4736 131.628 86.4669 130.416C85.615 129.391 83.5547 129.118 83.5547 129.118C83.5547 129.118 85.7102 129.266 86.5779 128.353C87.3967 127.491 87.5655 125.365 87.598 124.322C87.5942 123.958 87.6041 123.727 87.6041 123.727C87.6041 123.727 87.6094 123.958 87.598 124.322C87.6089 125.362 87.7321 127.481 88.5194 128.353C89.3677 129.292 91.4594 129.118 91.4594 129.118C91.4594 129.118 89.4355 129.435 88.6026 130.483C87.6329 131.703 87.5981 134.615 87.6024 135.251Z" fill="#FDC427"/>
<rect opacity="0.4" x="57.1367" y="28.8701" width="4.99243" height="24.9622" rx="2.49621" fill="#FDC427"/>
<rect opacity="0.4" x="25.1328" y="39.7886" width="4.99243" height="24.9622" rx="2.49621" transform="rotate(-32.6092 25.1328 39.7886)" fill="#FDC427"/>
<rect opacity="0.4" x="44.4453" y="43.8994" width="4.16036" height="11.649" rx="2.08018" transform="rotate(-15.2186 44.4453 43.8994)" fill="#FDC427"/>
<rect opacity="0.4" x="22.9844" y="60.48" width="4.16036" height="11.649" rx="2.08018" transform="rotate(-56.9543 22.9844 60.48)" fill="#FDC427"/>
<rect opacity="0.4" x="11.5547" y="70.563" width="4.99243" height="18.5136" rx="2.49622" transform="rotate(-76.5005 11.5547 70.563)" fill="#FDC427"/>
<ellipse opacity="0.1" cx="81.6331" cy="145.248" rx="58.3128" ry="5.24815" fill="#0092A6"/>
</svg>
