<svg width="128" height="140" viewBox="0 0 128 140" fill="none" xmlns="http://www.w3.org/2000/svg">
<ellipse opacity="0.1" cx="63.566" cy="135.368" rx="51.4706" ry="4.63235" fill="#0092A6"/>
<path d="M53.9457 98.1913L32.7933 85.4751L28.6397 93.6943L48.8222 106.065L53.9457 98.1913Z" fill="#F5BC1C"/>
<path opacity="0.6" d="M50.0241 103.584L29.9506 91.6174L28.6397 93.6945L48.8221 106.066L50.0241 103.584Z" fill="#D4AE43"/>
<path d="M34.0138 85.4995L28.952 94.3516L21.191 89.6781C21.191 89.6781 18.5936 91.1028 16.7613 91.3798C12.7367 91.9883 9.80864 90.7751 6.94156 87.8859C3.85498 84.7755 2.81492 81.457 3.65698 77.1567C4.48457 72.9303 6.52079 70.0778 10.5454 68.5447C14.4226 67.0678 18.0178 67.2727 21.0553 70.099C23.0323 71.9386 24.0229 76.3449 24.0229 76.3449C24.0229 76.3449 23.7495 73.3797 24.4765 71.9992C25.3477 70.3451 26.1231 69.0517 27.9609 68.7319C29.9566 68.3846 31.5626 68.9081 33.2088 70.8723C34.8551 72.8364 34.392 74.4655 32.9568 77.3384C31.8721 79.5097 28.5561 81.6455 28.5561 81.6455L34.0138 85.4995Z" fill="#F5F5F5"/>
<path opacity="0.2" d="M6.6405 71.0007C6.58405 72.3882 6.54677 74.4519 6.72183 75.9804C6.74117 76.1492 6.75956 76.3127 6.77743 76.4715C6.98871 78.3491 7.12711 79.5791 7.89578 81.4368C7.9195 81.4941 7.94278 81.5504 7.96568 81.6059C8.47963 82.8502 8.80392 83.6354 9.72193 84.6846C11.2952 86.4827 12.6942 87.3729 15.0699 87.6726C17.3619 87.9618 20.8093 86.2436 20.8093 86.2436L30.3657 91.8792L28.952 94.3515L21.191 89.678C21.191 89.678 18.5936 91.1027 16.7613 91.3797C12.7367 91.9882 9.80862 90.775 6.94153 87.8858C3.85496 84.7754 2.8149 81.4569 3.65696 77.1566C4.15568 74.6097 5.09331 72.5617 6.6405 71.0007Z" fill="#CACACA"/>
<path opacity="0.2" d="M20.6518 79.7196C21.3619 80.6574 23.1634 81.1756 23.0486 81.5442C22.9338 81.9127 21.1597 81.7662 20.1927 81.1939C19.2928 80.6613 18.8307 80.08 18.5633 79.0691C18.3389 78.2207 18.3648 77.629 18.7223 76.8275C18.9619 76.2904 19.5117 75.5909 19.6346 75.6292C19.7574 75.6674 19.5019 76.8878 19.675 77.6633C19.8686 78.531 20.1152 79.0108 20.6518 79.7196Z" fill="#CACACA"/>
<path opacity="0.6" d="M32.3692 78.2636C32.4668 77.1442 32.5174 75.2019 31.8807 73.9884C31.2367 72.7609 30.7449 71.8711 29.4359 71.4149C28.3358 71.0315 27.5197 71.3814 26.5574 71.794C26.2497 71.9259 25.9272 72.0642 25.5756 72.187C25.1421 72.3384 24.5805 72.5859 24.2004 72.7598C24.2705 72.4784 24.3609 72.2187 24.4765 71.9991C25.3477 70.3451 26.1231 69.0517 27.9609 68.7318C29.9566 68.3845 31.5625 68.908 33.2088 70.8722C34.855 72.8364 34.392 74.4655 32.9568 77.3383C32.8013 77.6495 32.6 77.96 32.3692 78.2636Z" fill="white"/>
<path opacity="0.6" d="M23.9028 77.334C23.9028 77.334 22.6907 73.8997 21.2006 72.1869C20.1702 71.0026 19.5242 70.2999 18.1124 69.6134C16.8363 68.9929 15.8463 68.9556 14.633 68.9098C14.2357 68.8948 13.8144 68.8789 13.3513 68.8414C12.3187 68.7576 10.9672 68.7647 9.9468 68.7888C10.1413 68.704 10.3407 68.6226 10.5454 68.5447C14.4226 67.0678 18.0178 67.2726 21.0553 70.0989C22.6116 71.547 23.5566 74.5857 23.8884 75.8134C23.9279 76.6818 23.9028 77.334 23.9028 77.334Z" fill="white"/>
<path d="M73.2843 98.1913L94.4367 85.4751L98.5903 93.6943L78.4078 106.065L73.2843 98.1913Z" fill="#F5BC1C"/>
<path opacity="0.6" d="M77.2059 103.584L97.2794 91.6174L98.5904 93.6945L78.4079 106.066L77.2059 103.584Z" fill="#D4AE43"/>
<path d="M42.0772 98.8234C43.5401 100.829 42.7921 106.607 43.4927 108.989C44.7794 113.364 44.4975 113.368 46.0662 117.61C47.8416 122.411 58.0331 124.567 58.0331 124.567H69.3566C69.3566 124.567 76.6444 122.683 79.5221 118.897C81.9669 115.68 83.8854 112.755 84.5404 108.989C85.0551 106.029 83.1966 100.842 84.5404 98.8234C89.8714 90.8156 93.6684 87.7952 95.6066 78.3725C97.8108 67.6571 96.2085 59.8423 89.8162 50.9644C82.5412 40.8607 73.8267 36.317 61.3787 36.5526C49.3767 36.7798 41.1384 41.1488 34.228 50.9644C27.9532 59.8772 26.3488 67.788 28.9522 78.3725C31.3791 88.2392 36.0902 90.6137 42.0772 98.8234Z" fill="#FDC427"/>
<path opacity="0.4" d="M36.175 55.0471C35.8437 55.833 36.2123 56.7385 36.9981 57.0698C37.7839 57.401 38.6895 57.0325 39.0207 56.2467L36.175 55.0471ZM40.2303 50.9138L41.4318 51.8838H41.4318L40.2303 50.9138ZM44.1623 47.4137L43.3256 46.1159L43.3256 46.1159L44.1623 47.4137ZM49.3759 46.7561C50.1833 46.4816 50.6153 45.6045 50.3407 44.7971C50.0662 43.9897 49.1891 43.5577 48.3817 43.8323L49.3759 46.7561ZM37.5979 55.6469C39.0207 56.2467 39.0207 56.2468 39.0206 56.2469C39.0206 56.2469 39.0206 56.247 39.0206 56.247C39.0206 56.2471 39.0205 56.2471 39.0206 56.2471C39.0206 56.2471 39.0207 56.2468 39.0208 56.2464C39.0212 56.2456 39.0218 56.244 39.0228 56.2418C39.0247 56.2373 39.0279 56.2299 39.0322 56.2198C39.0408 56.1997 39.0541 56.1688 39.0718 56.1281C39.1073 56.0468 39.1602 55.9269 39.2281 55.777C39.3641 55.4767 39.5591 55.0595 39.7933 54.5939C40.2758 53.6348 40.8737 52.5751 41.4318 51.8838L39.0289 49.9439C38.2532 50.9046 37.5349 52.2114 37.0345 53.2059C36.7774 53.7171 36.5643 54.1733 36.4152 54.5023C36.3405 54.6671 36.2815 54.8008 36.2407 54.8945C36.2203 54.9413 36.2044 54.9782 36.1934 55.004C36.1878 55.0169 36.1835 55.027 36.1804 55.0343C36.1789 55.0379 36.1777 55.0408 36.1768 55.0429C36.1763 55.044 36.1759 55.0449 36.1756 55.0456C36.1755 55.046 36.1754 55.0463 36.1752 55.0465C36.1752 55.0466 36.1751 55.0468 36.1751 55.0469C36.175 55.047 36.175 55.0471 37.5979 55.6469ZM41.4318 51.8838C42.6056 50.4299 43.3907 49.7483 44.9989 48.7115L43.3256 46.1159C41.4672 47.3139 40.4283 48.2106 39.0289 49.9439L41.4318 51.8838ZM44.9989 48.7115C45.718 48.2479 46.7851 47.7621 47.7371 47.375C48.2003 47.1866 48.6136 47.0306 48.9107 46.9219C49.0589 46.8677 49.1775 46.8254 49.2579 46.7971C49.2981 46.783 49.3288 46.7723 49.3488 46.7654C49.3588 46.762 49.3662 46.7594 49.3707 46.7579C49.373 46.7571 49.3746 46.7566 49.3754 46.7563C49.3759 46.7561 49.3761 46.756 49.3762 46.756C49.3762 46.756 49.3762 46.756 49.3762 46.756C49.3761 46.756 49.3761 46.756 49.3761 46.7561C49.376 46.7561 49.3759 46.7561 48.8788 45.2942C48.3817 43.8323 48.3816 43.8323 48.3815 43.8323C48.3814 43.8324 48.3813 43.8324 48.3812 43.8325C48.3809 43.8325 48.3806 43.8326 48.3803 43.8327C48.3797 43.833 48.3788 43.8333 48.3778 43.8336C48.3757 43.8343 48.3729 43.8353 48.3694 43.8365C48.3625 43.8389 48.3526 43.8422 48.3401 43.8466C48.315 43.8552 48.279 43.8678 48.2333 43.8838C48.1418 43.916 48.0109 43.9627 47.8492 44.0218C47.5264 44.14 47.0781 44.3092 46.5738 44.5142C45.5908 44.914 44.2997 45.4879 43.3256 46.1159L44.9989 48.7115Z" fill="white"/>
<path opacity="0.6" d="M43.1129 104.954C43.0366 102.584 42.9543 100.026 42.0772 98.8233C41.7973 98.4395 41.5201 98.0684 41.2459 97.7087C44.636 99.0175 48.3827 100.18 51.6096 100.503C60.9315 101.436 66.9996 100.772 75.2267 96.2963C83.4079 91.8454 86.6063 86.6332 91.3467 78.9081L91.3496 78.9033C91.5385 78.5955 91.7298 78.2837 91.924 77.9678C93.7364 75.0197 95.2315 71.4587 96.4597 67.7205C96.7017 71.0176 96.4019 74.5062 95.6066 78.3725C94.141 85.4976 91.6125 88.962 88.1617 93.6901C87.0489 95.2147 85.8403 96.8708 84.5404 98.8233C83.771 99.9791 84.0514 102.174 84.335 104.394C84.5468 106.052 84.7604 107.724 84.5404 108.989C83.8854 112.755 81.9669 115.68 79.522 118.897C76.6444 122.683 69.3566 124.567 69.3566 124.567H58.0331C58.0331 124.567 47.8416 122.411 46.0662 117.61C45.0777 114.937 44.8241 113.947 44.4497 112.485C44.2299 111.627 43.9686 110.607 43.4926 108.989C43.2121 108.035 43.1639 106.537 43.1129 104.954Z" fill="#D4AE43"/>
<ellipse opacity="0.2" cx="43.75" cy="79.0158" rx="6.17647" ry="6.17647" fill="#FF5E5E"/>
<ellipse opacity="0.2" cx="83.8971" cy="76.957" rx="6.17647" ry="6.17647" fill="#FF5E5E"/>
<path d="M39.8897 71.0381C39.8897 71.0381 40.3603 63.8832 46.7917 62.2836C53.223 60.6839 56.3603 67.1984 56.3603 67.1984" stroke="#333333" stroke-width="3.08824" stroke-linecap="round"/>
<path d="M70 67.3077C70 67.3077 72.6958 60.6035 79.2281 61.0566C85.7604 61.5097 86.648 68.7141 86.648 68.7141" stroke="#333333" stroke-width="3.08824" stroke-linecap="round"/>
<path d="M64.2096 81.7181C60.369 82.1471 55.6551 78.3692 54.6257 79.9133C53.5963 81.4574 55.0889 86.6018 58.1 88.792C60.3083 90.3983 62.2043 90.6238 64.9198 90.3361C67.3608 90.0775 68.9523 89.6044 70.7103 87.8912C73.4276 85.2432 73.7985 79.2699 72.6404 78.3692C71.4823 77.4684 67.7641 81.321 64.2096 81.7181Z" fill="#333333"/>
<path d="M72.3122 85.4339C70.398 84.8239 67.0455 83.9055 64.2096 83.9055C61.1946 83.9055 57.6608 85.3975 55.8647 86.2628C56.4618 87.25 57.2154 88.1485 58.1 88.7919C60.3083 90.3982 62.2043 90.6237 64.9198 90.336C67.3608 90.0774 68.9523 89.6043 70.7103 87.8912C71.3846 87.2341 71.9144 86.3722 72.3122 85.4339Z" fill="#FF5E5E"/>
<path opacity="0.2" d="M29.1131 78.9754C30.075 74.0354 32.362 64.4166 36.4154 58.8142C40.315 53.4246 42.7358 49.8909 48.511 46.5893C53.7534 43.5924 57.366 43.2849 63.3088 42.2143C68.8912 41.2086 79.4521 44.2078 84.7978 44.9184C79.136 40.4128 74.375 36.5514 61.3787 36.5532C49.3767 36.7804 41.1384 41.1494 34.228 50.965C27.9532 59.8778 26.3488 67.7885 28.9522 78.3731C29.0015 78.5734 29.0552 78.7743 29.1131 78.9754Z" fill="#FFFBEE"/>
<path d="M93.2164 85.4995L98.2781 94.3516L106.039 89.6781C106.039 89.6781 108.637 91.1028 110.469 91.3798C114.493 91.9883 117.422 90.7751 120.289 87.8859C123.375 84.7755 124.415 81.457 123.573 77.1567C122.746 72.9303 120.709 70.0778 116.685 68.5447C112.808 67.0678 109.212 67.2727 106.175 70.099C104.198 71.9386 103.207 76.3449 103.207 76.3449C103.207 76.3449 103.481 73.3797 102.754 71.9992C101.882 70.3451 101.107 69.0517 99.2693 68.7319C97.2736 68.3846 95.6676 68.9081 94.0214 70.8723C92.3751 72.8364 92.8382 74.4655 94.2734 77.3384C95.3581 79.5097 98.674 81.6455 98.674 81.6455L93.2164 85.4995Z" fill="#F5F5F5"/>
<path opacity="0.2" d="M120.59 71.0007C120.646 72.3882 120.683 74.4519 120.508 75.9804C120.489 76.1492 120.471 76.3127 120.453 76.4715C120.241 78.3491 120.103 79.5791 119.334 81.4368C119.311 81.4941 119.287 81.5504 119.264 81.6059C118.751 82.8502 118.426 83.6354 117.508 84.6846C115.935 86.4827 114.536 87.3729 112.16 87.6726C109.868 87.9618 106.421 86.2436 106.421 86.2436L96.8644 91.8792L98.2781 94.3515L106.039 89.678C106.039 89.678 108.637 91.1027 110.469 91.3797C114.494 91.9882 117.422 90.775 120.289 87.8858C123.375 84.7754 124.415 81.4569 123.573 77.1566C123.074 74.6097 122.137 72.5617 120.59 71.0007Z" fill="#CACACA"/>
<path opacity="0.2" d="M106.578 79.7196C105.868 80.6574 104.067 81.1756 104.182 81.5442C104.296 81.9127 106.07 81.7662 107.037 81.1939C107.937 80.6613 108.4 80.08 108.667 79.0691C108.891 78.2207 108.865 77.629 108.508 76.8275C108.268 76.2904 107.718 75.5909 107.596 75.6292C107.473 75.6674 107.728 76.8878 107.555 77.6633C107.362 78.531 107.115 79.0108 106.578 79.7196Z" fill="#CACACA"/>
<path opacity="0.6" d="M94.861 78.2636C94.7634 77.1442 94.7128 75.2019 95.3494 73.9884C95.9935 72.7609 96.4853 71.8711 97.7943 71.4149C98.8944 71.0315 99.7105 71.3814 100.673 71.794C100.98 71.9259 101.303 72.0642 101.655 72.187C102.088 72.3384 102.65 72.5859 103.03 72.7598C102.96 72.4784 102.869 72.2187 102.754 71.9991C101.883 70.3451 101.107 69.0517 99.2693 68.7318C97.2736 68.3845 95.6676 68.908 94.0214 70.8722C92.3751 72.8364 92.8382 74.4655 94.2734 77.3383C94.4289 77.6495 94.6302 77.96 94.861 78.2636Z" fill="white"/>
<path opacity="0.6" d="M103.327 77.334C103.327 77.334 104.539 73.8997 106.03 72.1869C107.06 71.0026 107.706 70.2999 109.118 69.6134C110.394 68.9929 111.384 68.9556 112.597 68.9098C112.994 68.8948 113.416 68.8789 113.879 68.8414C114.911 68.7576 116.263 68.7647 117.283 68.7888C117.089 68.704 116.889 68.6226 116.685 68.5447C112.808 67.0678 109.212 67.2726 106.175 70.0989C104.619 71.547 103.674 74.5857 103.342 75.8134C103.302 76.6818 103.327 77.334 103.327 77.334Z" fill="white"/>
<path d="M63.2009 108.084C55.2732 108.05 42.9913 106.287 42.9913 106.287C42.9913 106.287 42.9089 111.732 43.8787 116.581C44.6507 120.441 46.5051 123.366 50.6985 126.746C54.8466 130.09 58.8821 132.602 64.2096 132.537C69.4009 132.473 73.2411 130.098 77.2059 126.746C81.5154 123.103 82.2243 121.084 83.2537 116.581C84.358 111.75 84.8043 106.287 84.8043 106.287C84.8043 106.287 71.535 108.12 63.2009 108.084Z" fill="#00A2B9"/>
<path opacity="0.6" d="M84.0883 112.145C81.6152 116.293 77.947 121.719 74.7027 123.633C69.455 126.73 67.5735 126.79 61.3875 126.761C57.2173 126.741 51.9001 125.458 48.0287 124.333C48.7916 125.124 49.6754 125.921 50.6985 126.746C54.8466 130.09 58.8821 132.602 64.2095 132.537C69.4009 132.473 73.241 130.098 77.2059 126.746C81.5153 123.103 82.2242 121.084 83.2537 116.581C83.5914 115.103 83.8676 113.566 84.0883 112.145Z" fill="#00879A" stroke="#00A2B9" stroke-width="0.257353"/>
<path d="M89.1356 130.45C89.1394 130.634 89.1396 130.735 89.1396 130.735C89.1396 130.735 89.1369 130.634 89.1356 130.45C89.105 128.97 88.8379 122.125 86.511 119.341C84.5417 116.985 79.7792 116.359 79.7792 116.359C79.7792 116.359 84.7617 116.699 86.7674 114.6C88.6603 112.619 89.0504 107.735 89.1255 105.34C89.1167 104.503 89.1396 103.971 89.1396 103.971C89.1396 103.971 89.1517 104.503 89.1255 105.34C89.1508 107.729 89.4354 112.597 91.2553 114.6C93.2162 116.758 98.0512 116.359 98.0512 116.359C98.0512 116.359 93.3729 117.087 91.4476 119.494C89.2062 122.297 89.1256 128.988 89.1356 130.45Z" fill="#FDC427"/>
<path d="M96.6251 131.611C96.6271 131.71 96.6272 131.765 96.6272 131.765C96.6272 131.765 96.6258 131.71 96.6251 131.611C96.6087 130.814 96.4657 127.128 95.2203 125.629C94.1664 124.361 91.6174 124.024 91.6174 124.024C91.6174 124.024 94.2841 124.207 95.3576 123.077C96.3707 122.01 96.5794 119.38 96.6197 118.09C96.6149 117.64 96.6272 117.353 96.6272 117.353C96.6272 117.353 96.6337 117.64 96.6197 118.09C96.6332 119.377 96.7855 121.998 97.7596 123.077C98.809 124.239 101.397 124.024 101.397 124.024C101.397 124.024 98.8929 124.416 97.8625 125.712C96.6629 127.221 96.6197 130.824 96.6251 131.611Z" fill="#FDC427"/>
<rect opacity="0.4" x="58.9336" width="6.17647" height="30.8824" rx="3.08824" fill="#FDC427"/>
<rect opacity="0.4" x="19.3404" y="13.5081" width="6.17647" height="30.8824" rx="3.08824" transform="rotate(-32.6092 19.3404 13.5081)" fill="#FDC427"/>
<rect opacity="0.4" x="43.2351" y="18.5938" width="5.14706" height="14.4118" rx="2.57353" transform="rotate(-15.2186 43.2351 18.5938)" fill="#FDC427"/>
<rect opacity="0.4" x="16.6823" y="39.1064" width="5.14706" height="14.4118" rx="2.57353" transform="rotate(-56.9542 16.6823 39.1064)" fill="#FDC427"/>
<rect opacity="0.4" x="2.54321" y="51.5811" width="6.17647" height="22.9044" rx="3.08824" transform="rotate(-76.5005 2.54321 51.5811)" fill="#FDC427"/>
<rect opacity="0.4" width="6.17647" height="30.8824" rx="3.08824" transform="matrix(-0.842366 -0.538906 -0.538906 0.842366 104.986 13.6133)" fill="#FDC427"/>
<rect opacity="0.4" width="5.14706" height="14.4118" rx="2.57353" transform="matrix(-0.964931 -0.262502 -0.262502 0.964931 81.0656 18.5938)" fill="#FDC427"/>
<rect opacity="0.4" width="5.14706" height="14.4118" rx="2.57353" transform="matrix(-0.545309 -0.838235 -0.838235 0.545309 107.618 39.1064)" fill="#FDC427"/>
<rect opacity="0.4" width="6.17647" height="22.9044" rx="3.08824" transform="matrix(-0.233436 -0.972372 -0.972372 0.233436 121.758 51.5811)" fill="#FDC427"/>
</svg>
