<svg width="161" height="160" viewBox="0 0 161 160" fill="none" xmlns="http://www.w3.org/2000/svg">
<g clip-path="url(#clip0_1533_11329)">
<path d="M125.121 95.8864C125.104 94.773 108.216 81.9438 108.216 81.9438L101.855 90.8538C101.855 90.8538 117.891 105.661 118.936 105.309C119.982 104.957 122.573 103.725 123.863 101.726C125.129 99.7663 125.137 96.9997 125.121 95.8864Z" fill="#FDC427"/>
<path opacity="0.6" d="M102.259 90.9135C103.606 92.1546 118.244 105.613 119.241 105.277C119.864 105.068 121.034 104.546 122.152 103.736L104.196 88.683L102.259 90.9135Z" fill="#D4AE43"/>
<ellipse opacity="0.1" cx="95.3141" cy="134.652" rx="61.1891" ry="5.50702" fill="#0092A6"/>
<rect width="111.133" height="73.2256" transform="matrix(0.999989 0.00464267 -0.00695119 0.999976 49.3672 62.4629)" fill="#23C4DB"/>
<path d="M105.47 29.3027L49.3633 62.852H160.269L105.47 29.3027Z" fill="#00A2B9"/>
<path d="M105.47 102.654L49.3633 62.8534H160.269L105.47 102.654Z" fill="#00A2B9"/>
<rect x="67.9959" y="27.2635" width="73.3681" height="101.637" rx="7.25952" fill="white" stroke="#00A2B9" stroke-width="1.11685"/>
<path d="M104.966 102.076L48.8594 135.626L160.011 136.194L104.966 102.076Z" fill="#00A2B9"/>
<path d="M104.967 102.076L48.8516 62.7168V135.64L104.967 102.076Z" fill="#23C4DB"/>
<path d="M104.967 102.076L159.992 62.7168V136.175L104.967 102.076Z" fill="#23C4DB"/>
<path fill-rule="evenodd" clip-rule="evenodd" d="M104.68 40.0781C105.602 40.0781 106.487 40.3642 107.139 40.8735C107.791 41.3827 108.157 42.0735 108.157 42.7937V67.2334C108.157 67.9536 107.791 68.6443 107.139 69.1536C106.487 69.6629 105.602 69.949 104.68 69.949C103.758 69.949 102.874 69.6629 102.221 69.1536C101.569 68.6443 101.203 67.9536 101.203 67.2334V42.7937C101.203 42.0735 101.569 41.3827 102.221 40.8735C102.874 40.3642 103.758 40.0781 104.68 40.0781ZM104.68 78.0956C105.602 78.0956 106.487 77.8095 107.139 77.3002C107.791 76.7909 108.157 76.1002 108.157 75.38C108.157 74.6598 107.791 73.9691 107.139 73.4599C106.487 72.9506 105.602 72.6645 104.68 72.6645C103.758 72.6645 102.874 72.9506 102.221 73.4599C101.569 73.9691 101.203 74.6598 101.203 75.38C101.203 76.1002 101.569 76.7909 102.221 77.3002C102.874 77.8095 103.758 78.0956 104.68 78.0956Z" fill="#FDC427"/>
<path d="M67.5918 111.268L77.9068 92.1879L84.7251 96.5482L74.9894 114.934L67.5918 111.268Z" fill="#F5BC1C"/>
<path opacity="0.6" d="M72.2226 114.493L82.8061 95.5629L84.7268 96.5479C84.7268 96.5479 75.502 114.153 75.0497 114.832C74.5974 115.51 73.9189 115.963 73.9189 115.963L72.2226 114.493Z" fill="#D4AE43"/>
<path d="M76.9976 92.7542L84.7859 97.1872L88.5671 90.1805C88.5671 90.1805 91.1693 90.0967 92.6794 89.4868C95.9962 88.1472 97.6687 85.9199 98.5456 82.4518C99.4895 78.7183 98.7922 75.7426 96.2319 72.866C93.7156 70.0388 90.8994 68.7915 87.1691 69.4316C83.5754 70.0484 80.9472 71.8112 79.9133 75.3079C79.2404 77.5838 80.4616 81.3603 80.4616 81.3603C80.4616 81.3603 79.3423 78.9947 78.1749 78.2755C76.7761 77.4138 75.611 76.7822 74.0777 77.3621C72.4125 77.9919 71.4317 79.1062 71.0648 81.3284C70.6978 83.5506 71.7767 84.5759 74.1473 86.1074C75.939 87.265 79.4028 87.3977 79.4028 87.3977L76.9976 92.7542Z" fill="#F5F5F5"/>
<path opacity="0.2" d="M91.2181 69.5435C91.8814 70.5679 92.8325 72.1124 93.3837 73.347C93.4446 73.4834 93.5037 73.6153 93.5613 73.7435C94.2412 75.2584 94.6865 76.2508 94.9359 77.9999C94.9435 78.0539 94.9511 78.107 94.9586 78.1591C95.1263 79.3304 95.2321 80.0694 95.0069 81.2737C94.6209 83.3377 93.9606 84.6368 92.2974 85.926C90.6928 87.1699 87.3164 87.4118 87.3164 87.4118L82.6072 95.9493L84.7824 97.1874L88.5636 90.1807C88.5636 90.1807 91.1657 90.0969 92.6758 89.487C95.9927 88.1474 97.6652 85.92 98.542 82.452C99.486 78.7185 98.7886 75.7428 96.2283 72.8661C94.712 71.1624 93.0867 70.0324 91.2181 69.5435Z" fill="#CACACA"/>
<path opacity="0.2" d="M84.5212 82.4046C84.4034 83.4317 83.2723 84.6294 83.524 84.8569C83.7757 85.0844 85.0523 84.18 85.5279 83.3146C85.9704 82.5092 86.0601 81.8628 85.8103 80.9785C85.6006 80.2363 85.3164 79.8002 84.6875 79.3538C84.266 79.0546 83.5372 78.7713 83.4613 78.8552C83.3855 78.9391 84.1247 79.7481 84.3405 80.4121C84.5821 81.1552 84.6101 81.6284 84.5212 82.4046Z" fill="#CACACA"/>
<path opacity="0.6" d="M75.0028 86.5432C74.4283 85.74 73.5213 84.2932 73.4603 83.0905C73.3985 81.8738 73.3726 80.9807 74.1589 80.0502C74.8196 79.2681 75.5935 79.1678 76.506 79.0496C76.7978 79.0118 77.1036 78.9721 77.4245 78.9078C77.8202 78.8284 78.3558 78.7645 78.7211 78.7261C78.5422 78.5446 78.3577 78.3885 78.172 78.2741C76.7732 77.4124 75.6081 76.7807 74.0748 77.3607C72.4096 77.9905 71.4288 79.1048 71.0619 81.327C70.6949 83.5492 71.7738 84.5745 74.1444 86.106C74.4012 86.2719 74.6924 86.4168 75.0028 86.5432Z" fill="white"/>
<path opacity="0.6" d="M80.994 82.0551C80.994 82.0551 80.375 78.9148 80.7363 76.9527C80.9861 75.5958 81.1606 74.7754 81.9216 73.6246C82.6095 72.5844 83.3417 72.1134 84.2392 71.5361C84.533 71.3471 84.8446 71.1467 85.1781 70.9112C85.9219 70.386 86.9475 69.7869 87.7302 69.3488C87.5452 69.3716 87.3579 69.3993 87.1682 69.4318C83.5745 70.0486 80.9462 71.8114 79.9124 75.308C79.3827 77.0996 80.0267 79.821 80.3248 80.8982C80.6833 81.5729 80.994 82.0551 80.994 82.0551Z" fill="white"/>
<path d="M31.5579 113.011C31.4844 112.191 42.9129 101.458 42.9129 101.458L48.2763 107.519C48.2763 107.519 37.6266 119.641 36.8308 119.462C36.035 119.284 34.0351 118.578 32.9324 117.208C31.8511 115.864 31.6314 113.831 31.5579 113.011Z" fill="#FDC427"/>
<path opacity="0.6" d="M47.9852 107.594C47.0904 108.61 37.3646 119.632 36.6055 119.462C36.1317 119.356 35.231 119.063 34.3469 118.553L46.3892 106.103L47.9852 107.594Z" fill="#D4AE43"/>
<rect opacity="0.4" x="50.0586" y="19.8418" width="5.42807" height="27.1404" rx="2.71403" fill="#FDC427"/>
<rect opacity="0.4" x="15.2617" y="31.7129" width="5.42807" height="27.1404" rx="2.71403" transform="rotate(-32.6092 15.2617 31.7129)" fill="#FDC427"/>
<rect opacity="0.4" x="36.2617" y="36.1836" width="4.52339" height="12.6655" rx="2.2617" transform="rotate(-15.2186 36.2617 36.1836)" fill="#FDC427"/>
<rect opacity="0.4" x="64.7812" y="35.2734" width="4.52339" height="12.6655" rx="2.2617" transform="rotate(17.8537 64.7812 35.2734)" fill="#FDC427"/>
<rect opacity="0.4" x="12.9258" y="54.209" width="4.52339" height="12.6655" rx="2.2617" transform="rotate(-56.9543 12.9258 54.209)" fill="#FDC427"/>
<rect opacity="0.4" x="0.5" y="65.1738" width="5.42807" height="20.1291" rx="2.71404" transform="rotate(-76.5005 0.5 65.1738)" fill="#FDC427"/>
<path d="M35.2448 106.69C36.5304 108.453 35.873 113.531 36.4887 115.624C37.6195 119.469 37.3718 119.473 38.7504 123.201C40.3107 127.42 49.2673 129.315 49.2673 129.315H59.2187C59.2187 129.315 65.6234 127.659 68.1524 124.331C70.301 121.504 71.9871 118.934 72.5627 115.624C73.0151 113.023 71.3817 108.464 72.5627 106.69C77.2477 99.6526 80.5846 96.9982 82.288 88.7173C84.2251 79.3002 82.817 72.4323 77.1992 64.6302C70.8058 55.7508 63.1472 51.7576 52.2075 51.9647C41.6597 52.1643 34.4197 56.0039 28.3466 64.6302C22.8321 72.463 21.4221 79.4152 23.7101 88.7173C25.8429 97.3885 29.9832 99.4752 35.2448 106.69Z" fill="#FDC427"/>
<ellipse cx="47.3452" cy="77.0679" rx="8.1421" ry="8.14211" fill="#333333"/>
<ellipse cx="4.07047" cy="3.42542" rx="4.07047" ry="3.42542" transform="matrix(0.837274 -0.546783 0.523983 0.851728 40.3984 74.043)" fill="white"/>
<ellipse cx="1.69504" cy="1.16583" rx="1.69504" ry="1.16583" transform="matrix(0.787973 -0.615709 0.592808 0.805343 47.1055 79.1543)" fill="white"/>
<ellipse cx="68.5093" cy="71.8081" rx="8.1421" ry="8.14211" fill="#333333"/>
<ellipse cx="4.07047" cy="3.42542" rx="4.07047" ry="3.42542" transform="matrix(0.837274 -0.546783 0.523983 0.851728 61.5625 68.7832)" fill="white"/>
<ellipse cx="1.69504" cy="1.16583" rx="1.69504" ry="1.16583" transform="matrix(0.787973 -0.615709 0.592808 0.805343 68.2695 73.8945)" fill="white"/>
<path d="M53.1285 94.2903C53.1285 94.2903 53.3146 92.7397 56.246 91.7576C59.1773 90.7755 60.6223 91.965 60.6223 91.965" stroke="#333333" stroke-width="3.67135" stroke-linecap="round"/>
<path opacity="0.4" d="M29.1527 67.4713C28.7589 68.4055 29.197 69.482 30.1312 69.8758C31.0654 70.2696 32.142 69.8315 32.5358 68.8973L29.1527 67.4713ZM33.1577 64.0247L31.7294 62.8716L33.1577 64.0247ZM36.6132 60.9487L35.6186 59.4058L36.6132 60.9487ZM41.3492 60.8239C42.309 60.4976 42.8226 59.4549 42.4962 58.4951C42.1699 57.5352 41.1272 57.0217 40.1673 57.348L41.3492 60.8239ZM30.8442 68.1843C32.5358 68.8973 32.5357 68.8974 32.5357 68.8975C32.5356 68.8976 32.5356 68.8977 32.5356 68.8977C32.5355 68.8979 32.5355 68.8979 32.5355 68.898C32.5354 68.898 32.5355 68.8979 32.5356 68.8977C32.5358 68.8971 32.5363 68.896 32.5371 68.8942C32.5386 68.8907 32.5411 68.8846 32.5447 68.8762C32.5519 68.8594 32.5633 68.8331 32.5784 68.7984C32.6087 68.7288 32.6542 68.6256 32.7129 68.4962C32.8305 68.2367 32.999 67.876 33.2013 67.4739C33.6225 66.6366 34.1292 65.7436 34.586 65.1778L31.7294 62.8716C31.014 63.7577 30.364 64.9444 29.9216 65.8239C29.692 66.2802 29.5019 66.6872 29.3689 66.9808C29.3022 67.128 29.2494 67.2476 29.2127 67.3318C29.1944 67.3739 29.18 67.4072 29.1699 67.4308C29.1649 67.4426 29.1609 67.4519 29.158 67.4587C29.1566 67.4621 29.1554 67.4648 29.1545 67.4669C29.1541 67.468 29.1537 67.4689 29.1534 67.4696C29.1532 67.47 29.1531 67.4703 29.153 67.4705C29.1529 67.4707 29.1528 67.4709 29.1528 67.4709C29.1527 67.4711 29.1527 67.4713 30.8442 68.1843ZM34.586 65.1778C35.5826 63.9434 36.2333 63.3777 37.6078 62.4915L35.6186 59.4058C33.9466 60.4837 32.9942 61.305 31.7294 62.8716L34.586 65.1778ZM37.6078 62.4915C38.2003 62.1096 39.1034 61.6963 39.9352 61.358C40.3359 61.1951 40.6937 61.06 40.9508 60.966C41.079 60.919 41.1813 60.8826 41.2503 60.8583C41.2847 60.8462 41.3108 60.8372 41.3276 60.8313C41.336 60.8284 41.3421 60.8264 41.3458 60.8251C41.3476 60.8245 41.3488 60.8241 41.3493 60.8239C41.3496 60.8238 41.3498 60.8237 41.3497 60.8237C41.3497 60.8238 41.3497 60.8238 41.3496 60.8238C41.3495 60.8238 41.3494 60.8239 41.3494 60.8239C41.3493 60.8239 41.3492 60.8239 40.7583 59.086C40.1673 57.348 40.1672 57.3481 40.1671 57.3481C40.167 57.3481 40.1668 57.3482 40.1667 57.3482C40.1664 57.3483 40.1662 57.3484 40.1658 57.3485C40.1651 57.3488 40.1643 57.349 40.1633 57.3494C40.1613 57.3501 40.1587 57.351 40.1554 57.3521C40.1489 57.3543 40.1399 57.3574 40.1285 57.3614C40.1056 57.3693 40.0732 57.3805 40.0321 57.395C39.95 57.4239 39.8331 57.4655 39.6889 57.5183C39.4012 57.6236 39.0018 57.7743 38.5522 57.9571C37.6835 58.3104 36.5141 58.8285 35.6186 59.4058L37.6078 62.4915Z" fill="white"/>
<path opacity="0.6" d="M36.1564 112.077C36.0894 109.995 36.017 107.747 35.2462 106.69C35.0002 106.352 34.7566 106.026 34.5156 105.71C37.495 106.86 40.7877 107.882 43.6236 108.166C51.8159 108.986 57.1488 108.402 64.3789 104.469C71.5688 100.557 74.3797 95.9766 78.5457 89.1875L78.5483 89.1833C78.7143 88.9128 78.8824 88.6388 79.0531 88.3612C80.6458 85.7703 81.9598 82.6408 83.0392 79.3555C83.2518 82.2531 82.9884 85.319 82.2895 88.7168C81.0014 94.9785 78.7793 98.0232 75.7466 102.178C74.7687 103.518 73.7065 104.974 72.5642 106.69C71.888 107.705 72.1344 109.634 72.3837 111.585C72.5698 113.042 72.7575 114.512 72.5642 115.623C71.9885 118.933 70.3025 121.504 68.1539 124.331C65.6249 127.659 59.2202 129.314 59.2202 129.314H49.2687C49.2687 129.314 40.3121 127.419 38.7518 123.2C37.8832 120.851 37.6602 119.981 37.3312 118.696C37.1381 117.942 36.9084 117.046 36.4901 115.623C36.2436 114.785 36.2012 113.468 36.1564 112.077Z" fill="#D4AE43"/>
<ellipse opacity="0.2" cx="41.2289" cy="94.8031" rx="5.42807" ry="5.42807" fill="#FF5E5E"/>
<ellipse opacity="0.2" cx="75.0765" cy="86.9222" rx="5.42807" ry="5.42807" fill="#FF5E5E"/>
<path d="M53.8092 114.828C46.8421 114.797 36.0484 113.248 36.0484 113.248C36.0484 113.248 35.976 118.034 36.8283 122.295C37.5068 125.687 39.1365 128.258 42.8218 131.229C46.4672 134.167 50.0138 136.375 54.6957 136.317C59.258 136.261 62.6328 134.174 66.1172 131.229C69.9045 128.027 70.5275 126.253 71.4322 122.295C72.4027 118.049 72.7949 113.248 72.7949 113.248C72.7949 113.248 61.1335 114.859 53.8092 114.828Z" fill="#00A2B9"/>
<path opacity="0.6" d="M72.1668 118.396C69.9934 122.042 66.7696 126.811 63.9185 128.493C59.3066 131.214 57.6531 131.267 52.2166 131.241C48.5517 131.224 43.8788 130.097 40.4766 129.108C41.147 129.803 41.9237 130.504 42.8229 131.228C46.4683 134.167 50.0149 136.375 54.6968 136.317C59.259 136.261 62.6339 134.174 66.1183 131.228C69.9056 128.027 70.5286 126.253 71.4333 122.295C71.7301 120.996 71.9728 119.646 72.1668 118.396Z" fill="#00879A" stroke="#00A2B9" stroke-width="0.305945"/>
<path d="M31.4787 112.816C31.7048 112.024 46.2279 106.117 46.2279 106.117L49.0537 113.701C49.0537 113.701 34.7581 121.184 34.0796 120.731C33.4011 120.279 31.7889 118.901 31.2525 117.226C30.7265 115.583 31.2525 113.607 31.4787 112.816Z" fill="#F5BC1C"/>
<path opacity="0.6" d="M48.9673 113.748C47.767 114.375 34.7288 121.164 34.0816 120.732C33.6776 120.463 32.9426 119.865 32.3008 119.072L48.014 111.783L48.9673 113.748Z" fill="#D4AE43"/>
<path d="M45.1576 106.022L48.7148 114.248L55.9493 110.923C55.9493 110.923 58.0788 112.421 59.6521 112.842C63.1078 113.766 65.7836 112.992 68.5696 110.748C71.5689 108.333 72.8011 105.536 72.4852 101.698C72.1748 97.9258 70.6747 95.2357 67.3093 93.5041C64.067 91.8358 60.907 91.6639 57.9783 93.836C56.0721 95.2498 54.7769 99.0016 54.7769 99.0016C54.7769 99.0016 55.3051 96.4385 54.8048 95.1618C54.2053 93.6321 53.6542 92.4268 52.0804 91.9682C50.3712 91.4701 48.9175 91.7706 47.288 93.3255C45.6585 94.8803 45.904 96.3484 46.8772 98.9975C47.6127 101 50.3004 103.189 50.3004 103.189L45.1576 106.022Z" fill="#F5F5F5"/>
<path opacity="0.2" d="M70.4793 96.0299C70.3933 97.2473 70.2244 99.0533 69.9224 100.371C69.889 100.517 69.857 100.658 69.8259 100.795C69.4582 102.414 69.2173 103.475 68.3646 105.022C68.3383 105.07 68.3125 105.117 68.2871 105.163C67.7168 106.2 67.3569 106.854 66.4528 107.681C64.9032 109.098 63.5945 109.739 61.4903 109.769C59.4602 109.797 56.617 107.96 56.617 107.96L47.7205 111.95L48.714 114.247L55.9485 110.923C55.9485 110.923 58.078 112.421 59.6514 112.841C63.1071 113.765 65.7828 112.992 68.5688 110.748C71.5681 108.332 72.8003 105.536 72.4845 101.698C72.2974 99.4244 71.6783 97.5442 70.4793 96.0299Z" fill="#CACACA"/>
<path opacity="0.2" d="M57.3905 102.276C56.6788 103.026 55.0548 103.303 55.1191 103.636C55.1834 103.969 56.7472 104.014 57.6476 103.609C58.4855 103.231 58.9459 102.769 59.2781 101.912C59.5568 101.193 59.592 100.674 59.3579 99.9386C59.2011 99.4461 58.7891 98.7815 58.6781 98.8029C58.567 98.8244 58.6712 99.9152 58.4443 100.576C58.1905 101.315 57.9283 101.71 57.3905 102.276Z" fill="#CACACA"/>
<path opacity="0.6" d="M47.2998 99.8617C47.3238 98.8744 47.4692 97.1731 48.1436 96.1754C48.8259 95.1661 49.3422 94.4369 50.53 94.1662C51.5283 93.9387 52.2069 94.3239 53.0071 94.7782C53.2629 94.9234 53.5312 95.0757 53.8263 95.2172C54.1901 95.3918 54.6565 95.6628 54.9715 95.8518C54.9377 95.5991 54.8841 95.3635 54.8045 95.1604C54.2051 93.6308 53.654 92.4255 52.0801 91.9668C50.371 91.4687 48.9172 91.7692 47.2878 93.3241C45.6583 94.8789 45.9038 96.347 46.8769 98.9962C46.9823 99.2831 47.1279 99.574 47.2998 99.8617Z" fill="white"/>
<path opacity="0.6" d="M54.7836 99.876C54.7836 99.876 56.1773 96.9947 57.6459 95.6442C58.6615 94.7103 59.2942 94.1597 60.5943 93.6979C61.7694 93.2804 62.6376 93.3444 63.7018 93.4228C64.0503 93.4485 64.4198 93.4757 64.8279 93.4881C65.738 93.5157 66.9177 93.6538 67.8065 93.7744C67.645 93.6814 67.4787 93.5909 67.3075 93.5028C64.0653 91.8346 60.9053 91.6626 57.9766 93.8347C56.476 94.9477 55.3541 97.5094 54.9446 98.5493C54.8253 99.3039 54.7836 99.876 54.7836 99.876Z" fill="white"/>
</g>
<defs>
<clipPath id="clip0_1533_11329">
<rect width="160" height="160" fill="white" transform="translate(0.5)"/>
</clipPath>
</defs>
</svg>
