<svg width="147" height="109" viewBox="0 0 147 109" fill="none" xmlns="http://www.w3.org/2000/svg">
<path d="M83.347 71.1694C83.347 71.1694 105.842 65.1406 118.286 54.0542C121.802 50.9224 120.315 44.1709 118.286 40.4054C113.02 30.6288 107.855 27.1835 97.6125 27.1835C88.1008 27.1835 83.343 32.1907 81.8318 40.4054C80.4612 47.8553 87.8014 53.5752 95.9673 55.4586C110.837 58.8881 128.356 56.0466 135.857 43.1079C139.23 37.2895 142.006 32.1698 138.471 27.1835C134.123 21.051 122.923 29.8983 116.308 25.5838C111.374 22.3655 109.462 16.2701 109.462 16.2701" stroke="#D9D9D9" stroke-linecap="round" stroke-linejoin="round" stroke-dasharray="2 2"/>
<rect x="108.879" y="72.793" width="16" height="28.8" rx="6.4" fill="#00879A"/>
<path d="M73.2093 37.5938C69.9343 37.5938 67.2793 40.1986 67.2793 43.4119V95.7756C67.2793 98.9889 69.9343 101.594 73.2093 101.594H117.684C117.954 101.594 118.219 101.576 118.479 101.542C116.349 101.218 114.719 99.4107 114.719 97.2301V43.4119C114.719 40.1986 112.064 37.5938 108.789 37.5938H73.2093Z" fill="#00A2B9"/>
<rect width="25.6" height="6.4" rx="3.2" transform="matrix(-1 0 0 1 102.479 79.6309)" fill="#E6F6F8"/>
<rect width="19.2" height="6.4" rx="3.2" transform="matrix(-1 0 0 1 96.0791 67.4121)" fill="#E6F6F8"/>
<rect width="12.8" height="6.4" rx="3.2" transform="matrix(-1 0 0 1 89.6797 55.1934)" fill="#E6F6F8"/>
<rect x="73.4365" y="46.3887" width="35.4423" height="47.1671" fill="#00A2B9"/>
<path d="M85.2719 75.226L85.2719 70.401C86.6173 69.4712 87.8311 68.466 88.9132 67.3854C89.9954 66.3048 90.8435 65.1614 91.4577 63.9551C92.1012 62.7237 92.4229 61.4295 92.4229 60.0725C92.4229 59.0924 92.1889 58.3636 91.721 57.8861C91.2822 57.3835 90.6096 57.1322 89.7029 57.1322C88.9132 57.1322 88.2844 57.3333 87.8164 57.7354C87.3485 58.1374 87.1145 58.6777 87.1145 59.3563C87.1145 59.7583 87.1584 60.1102 87.2461 60.4117C87.3631 60.7133 87.4801 61.04 87.5971 61.3918L81.5868 62.5604C81.382 62.0075 81.2212 61.4672 81.1042 60.9395C80.9872 60.3866 80.9287 59.8337 80.9287 59.2809C80.9287 57.0945 81.6891 55.3857 83.21 54.1543C84.7601 52.8978 86.9683 52.2695 89.8345 52.2695C92.7592 52.2695 95.0113 52.9355 96.5906 54.2674C98.17 55.5993 98.9597 57.4966 98.9597 59.9594C98.9597 61.5175 98.6526 62.975 98.0384 64.3321C97.4242 65.6891 96.5321 66.9707 95.3622 68.177C94.2216 69.3581 92.8616 70.4764 91.2823 71.5319L91.2823 75.226H85.2719ZM85.0526 83.1798L85.0526 77.7139H91.5455L91.5455 83.1798H85.0526Z" fill="#F5F5F5"/>
<ellipse opacity="0.1" cx="85.2638" cy="103.435" rx="54.7872" ry="4.93086" fill="#0092A6"/>
<path d="M60.4443 82.4967L69.6801 65.4128L75.785 69.3169L67.0679 85.7787L60.4443 82.4967Z" fill="#F5BC1C"/>
<path opacity="0.6" d="M64.5882 85.3842L74.0644 68.435L75.7842 69.317C75.7842 69.317 67.5245 85.0804 67.1195 85.6879C66.7145 86.2955 66.107 86.7005 66.107 86.7005L64.5882 85.3842Z" fill="#D4AE43"/>
<path d="M68.8625 65.9181L75.836 69.8873L79.2216 63.6137C79.2216 63.6137 81.5515 63.5386 82.9036 62.9925C85.8734 61.7931 87.371 59.7988 88.156 56.6936C89.0012 53.3507 88.3769 50.6863 86.0845 48.1106C83.8314 45.5792 81.3099 44.4624 77.9698 45.0356C74.7521 45.5878 72.3988 47.1662 71.4732 50.297C70.8706 52.3348 71.9641 55.7162 71.9641 55.7162C71.9641 55.7162 70.9619 53.5982 69.9166 52.9542C68.6642 52.1826 67.621 51.6171 66.2481 52.1364C64.7572 52.7003 63.879 53.698 63.5504 55.6877C63.2218 57.6774 64.1878 58.5954 66.3104 59.9667C67.9147 61.0031 71.0161 61.122 71.0161 61.122L68.8625 65.9181Z" fill="#F5F5F5"/>
<path opacity="0.2" d="M81.5981 45.136C82.1919 46.0533 83.0436 47.4362 83.5371 48.5417C83.5916 48.6638 83.6446 48.7819 83.6961 48.8966C84.3048 50.2531 84.7036 51.1416 84.9269 52.7078C84.9337 52.7561 84.9405 52.8036 84.9472 52.8503C85.0974 53.899 85.1921 54.5607 84.9905 55.639C84.6448 57.487 84.0536 58.6502 82.5644 59.8046C81.1277 60.9183 78.1045 61.1349 78.1045 61.1349L73.8881 68.7792L75.8357 69.8877L79.2213 63.6141C79.2213 63.6141 81.5512 63.5391 82.9033 62.993C85.8731 61.7935 87.3706 59.7992 88.1557 56.694C89.0009 53.3511 88.3765 50.6868 86.0841 48.1111C84.7264 46.5856 83.2712 45.5738 81.5981 45.136Z" fill="#CACACA"/>
<path opacity="0.2" d="M75.5989 56.6529C75.4935 57.5725 74.4807 58.6449 74.7061 58.8486C74.9314 59.0523 76.0744 58.2426 76.5003 57.4677C76.8966 56.7466 76.9769 56.1678 76.7532 55.376C76.5654 54.7114 76.3109 54.321 75.7478 53.9212C75.3704 53.6533 74.7179 53.3997 74.65 53.4748C74.5821 53.5499 75.2439 54.2743 75.4372 54.8689C75.6535 55.5342 75.6786 55.9579 75.5989 56.6529Z" fill="#CACACA"/>
<path opacity="0.6" d="M67.0787 60.3593C66.5643 59.6402 65.7523 58.3447 65.6976 57.2678C65.6423 56.1784 65.6191 55.3788 66.3231 54.5456C66.9147 53.8454 67.6076 53.7556 68.4247 53.6497C68.6859 53.6158 68.9598 53.5803 69.2471 53.5227C69.6013 53.4517 70.0809 53.3945 70.408 53.36C70.2478 53.1975 70.0826 53.0578 69.9164 52.9554C68.6639 52.1838 67.6207 51.6182 66.2478 52.1375C64.7569 52.7014 63.8787 53.6991 63.5501 55.6888C63.2216 57.6785 64.1876 58.5966 66.3101 59.9678C66.5401 60.1164 66.8008 60.2461 67.0787 60.3593Z" fill="white"/>
<path opacity="0.6" d="M72.4411 56.3389C72.4411 56.3389 71.8869 53.5272 72.2104 51.7703C72.4341 50.5554 72.5903 49.8208 73.2717 48.7904C73.8876 47.8591 74.5432 47.4374 75.3468 46.9205C75.6099 46.7513 75.8889 46.5718 76.1875 46.3609C76.8535 45.8907 77.7718 45.3543 78.4726 44.962C78.3069 44.9824 78.1392 45.0072 77.9694 45.0363C74.7516 45.5886 72.3984 47.167 71.4727 50.2978C70.9984 51.9019 71.575 54.3386 71.842 55.3031C72.1629 55.9072 72.4411 56.3389 72.4411 56.3389Z" fill="white"/>
<path d="M28.1786 84.0586C28.1128 83.3245 38.3457 73.7145 38.3457 73.7145L43.1479 79.1413C43.1479 79.1413 33.6124 89.9948 32.8999 89.8352C32.1873 89.6756 30.3966 89.043 29.4093 87.8162C28.4411 86.6133 28.2444 84.7927 28.1786 84.0586Z" fill="#FDC427"/>
<path opacity="0.6" d="M42.8867 79.2083C42.0855 80.1183 33.3773 89.9875 32.6976 89.8352C32.2734 89.7402 31.4669 89.4775 30.6753 89.0215L41.4577 77.8736L42.8867 79.2083Z" fill="#D4AE43"/>
<rect opacity="0.4" x="44.7432" y="0.636719" width="4.86016" height="24.3008" rx="2.43008" fill="#FDC427"/>
<rect opacity="0.4" x="13.5879" y="11.2656" width="4.86016" height="24.3008" rx="2.43008" transform="rotate(-32.6092 13.5879 11.2656)" fill="#FDC427"/>
<rect opacity="0.4" x="32.3896" y="15.2676" width="4.05014" height="11.3404" rx="2.02507" transform="rotate(-15.2186 32.3896 15.2676)" fill="#FDC427"/>
<rect opacity="0.4" x="57.9258" y="14.4531" width="4.05014" height="11.3404" rx="2.02507" transform="rotate(17.8537 57.9258 14.4531)" fill="#FDC427"/>
<rect opacity="0.4" x="11.4961" y="31.4082" width="4.05014" height="11.3404" rx="2.02507" transform="rotate(-56.9543 11.4961 31.4082)" fill="#FDC427"/>
<rect opacity="0.4" x="0.370117" y="41.2246" width="4.86017" height="18.0231" rx="2.43008" transform="rotate(-76.5005 0.370117 41.2246)" fill="#FDC427"/>
<path d="M31.4789 78.3993C32.63 79.9777 32.0414 84.5241 32.5927 86.3983C33.6052 89.8409 33.3834 89.8444 34.6177 93.1823C36.0148 96.9601 44.0343 98.6568 44.0343 98.6568H52.9446C52.9446 98.6568 58.6792 97.1743 60.9436 94.1948C62.8674 91.6635 64.3771 89.3619 64.8925 86.3983C65.2975 84.0695 63.835 79.9878 64.8925 78.3993C69.0873 72.0981 72.0751 69.7214 73.6003 62.3068C75.3347 53.875 74.0739 47.7257 69.0439 40.7398C63.3194 32.7894 56.4621 29.214 46.6669 29.3994C37.2227 29.5782 30.7401 33.0161 25.3024 40.7398C20.3649 47.7531 19.1025 53.978 21.151 62.3068C23.0607 70.0708 26.7678 71.9392 31.4789 78.3993Z" fill="#FDC427"/>
<ellipse cx="42.3127" cy="51.8742" rx="7.29025" ry="7.29025" fill="#333333"/>
<ellipse cx="3.6446" cy="3.06704" rx="3.6446" ry="3.06704" transform="matrix(0.837274 -0.546783 0.523983 0.851728 36.0928 49.166)" fill="white"/>
<ellipse cx="1.5177" cy="1.04385" rx="1.5177" ry="1.04385" transform="matrix(0.787973 -0.615709 0.592808 0.805343 42.0986 53.7441)" fill="white"/>
<ellipse cx="61.2639" cy="47.1653" rx="7.29025" ry="7.29025" fill="#333333"/>
<ellipse cx="3.6446" cy="3.06704" rx="3.6446" ry="3.06704" transform="matrix(0.837274 -0.546783 0.523983 0.851728 55.0439 44.457)" fill="white"/>
<ellipse cx="1.5177" cy="1.04385" rx="1.5177" ry="1.04385" transform="matrix(0.787973 -0.615709 0.592808 0.805343 61.0498 49.0352)" fill="white"/>
<path d="M47.4915 67.2976C47.4915 67.2976 47.6582 65.9092 50.2828 65.0299C52.9075 64.1505 54.2013 65.2156 54.2013 65.2156" stroke="#333333" stroke-width="3.28724" stroke-linecap="round"/>
<path opacity="0.4" d="M26.0228 43.2831C25.6702 44.1196 26.0625 45.0835 26.8989 45.4361C27.7354 45.7887 28.6993 45.3964 29.0519 44.5599L26.0228 43.2831ZM29.6088 40.1971L28.33 39.1646L29.6088 40.1971ZM32.7028 37.4429L31.8122 36.0615L32.7028 37.4429ZM36.9432 37.3312C37.8027 37.039 38.2625 36.1055 37.9703 35.246C37.6781 34.3866 36.7445 33.9268 35.8851 34.219L36.9432 37.3312ZM27.5374 43.9215C29.0519 44.5599 29.0519 44.56 29.0518 44.5602C29.0518 44.5602 29.0518 44.5603 29.0517 44.5603C29.0517 44.5604 29.0517 44.5605 29.0517 44.5605C29.0516 44.5606 29.0517 44.5605 29.0518 44.5603C29.052 44.5598 29.0524 44.5588 29.0531 44.5572C29.0544 44.554 29.0567 44.5486 29.06 44.5411C29.0664 44.526 29.0765 44.5025 29.0901 44.4714C29.1172 44.4091 29.158 44.3167 29.2105 44.2008C29.3158 43.9685 29.4666 43.6455 29.6478 43.2855C30.025 42.5358 30.4787 41.7362 30.8877 41.2296L28.33 39.1646C27.6894 39.9581 27.1074 41.0207 26.7112 41.8081C26.5057 42.2167 26.3355 42.5811 26.2164 42.844C26.1566 42.9757 26.1094 43.0828 26.0765 43.1582C26.0601 43.1959 26.0472 43.2258 26.0382 43.2469C26.0337 43.2574 26.0301 43.2658 26.0275 43.2719C26.0263 43.2749 26.0252 43.2774 26.0244 43.2792C26.024 43.2802 26.0237 43.281 26.0234 43.2816C26.0233 43.2819 26.0232 43.2822 26.0231 43.2825C26.023 43.2826 26.0229 43.2827 26.0229 43.2828C26.0228 43.283 26.0228 43.2831 27.5374 43.9215ZM30.8877 41.2296C31.78 40.1243 32.3626 39.6178 33.5933 38.8243L31.8122 36.0615C30.3152 37.0266 29.4624 37.762 28.33 39.1646L30.8877 41.2296ZM33.5933 38.8243C34.1238 38.4824 34.9324 38.1123 35.6772 37.8095C36.036 37.6636 36.3564 37.5426 36.5865 37.4584C36.7013 37.4164 36.7929 37.3838 36.8547 37.3621C36.8855 37.3512 36.9089 37.3431 36.924 37.3379C36.9315 37.3353 36.9369 37.3334 36.9402 37.3323C36.9418 37.3317 36.9429 37.3314 36.9434 37.3312C36.9436 37.3311 36.9438 37.3311 36.9437 37.3311C36.9437 37.3311 36.9437 37.3311 36.9436 37.3311C36.9436 37.3311 36.9435 37.3312 36.9434 37.3312C36.9433 37.3312 36.9432 37.3312 36.4141 35.7751C35.8851 34.219 35.8849 34.219 35.8848 34.2191C35.8847 34.2191 35.8846 34.2191 35.8845 34.2192C35.8843 34.2193 35.884 34.2193 35.8837 34.2195C35.8831 34.2197 35.8823 34.2199 35.8814 34.2202C35.8797 34.2208 35.8773 34.2216 35.8744 34.2226C35.8686 34.2246 35.8605 34.2274 35.8502 34.2309C35.8298 34.238 35.8008 34.2481 35.764 34.261C35.6904 34.2869 35.5857 34.3242 35.4567 34.3714C35.1991 34.4657 34.8415 34.6007 34.4389 34.7644C33.6611 35.0807 32.6141 35.5445 31.8122 36.0615L33.5933 38.8243Z" fill="white"/>
<path opacity="0.6" d="M32.2943 83.2241C32.2343 81.3596 32.1695 79.3465 31.4793 78.4002C31.2591 78.0981 31.041 77.8061 30.8252 77.5231C33.4928 78.5529 36.4411 79.4676 38.9803 79.7218C46.3155 80.456 51.0904 79.9337 57.5641 76.4117C64.0018 72.9093 66.5185 68.8079 70.2487 62.7291L70.251 62.7254C70.3996 62.4832 70.5502 62.2379 70.703 61.9893C72.1291 59.6695 73.3056 56.8674 74.272 53.9258C74.4624 56.5203 74.2266 59.2654 73.6008 62.3077C72.4475 67.9143 70.4579 70.6404 67.7425 74.3609C66.8669 75.5606 65.9158 76.8637 64.893 78.4002C64.2875 79.3096 64.5081 81.0364 64.7313 82.7836C64.898 84.088 65.0661 85.4037 64.893 86.3992C64.3775 89.3628 62.8679 91.6644 60.9441 94.1957C58.6797 97.1752 52.9451 98.6577 52.9451 98.6577H44.0348C44.0348 98.6577 36.0152 96.961 34.6182 93.1832C33.8404 91.08 33.6408 90.3006 33.3462 89.1506C33.1733 88.4754 32.9677 87.6726 32.5931 86.3992C32.3724 85.6486 32.3344 84.4695 32.2943 83.2241Z" fill="#D4AE43"/>
<ellipse opacity="0.2" cx="36.8358" cy="67.7547" rx="4.86016" ry="4.86017" fill="#FF5E5E"/>
<ellipse opacity="0.2" cx="67.1424" cy="60.7" rx="4.86016" ry="4.86017" fill="#FF5E5E"/>
<path d="M48.1012 85.6858C41.8631 85.6588 32.1986 84.2715 32.1986 84.2715C32.1986 84.2715 32.1338 88.5563 32.8969 92.3718C33.5045 95.4094 34.9636 97.7111 38.2633 100.371C41.5274 103.002 44.7029 104.979 48.895 104.927C52.9799 104.877 56.0017 103.008 59.1215 100.371C62.5126 97.5041 63.0704 95.9156 63.8805 92.3718C64.7494 88.5701 65.1006 84.2715 65.1006 84.2715C65.1006 84.2715 54.6593 85.7143 48.1012 85.6858Z" fill="#00A2B9"/>
<path opacity="0.6" d="M64.5368 88.8809C62.5908 92.1451 59.7043 96.4146 57.1515 97.9208C53.0221 100.357 51.5416 100.405 46.6739 100.382C43.3924 100.367 39.2084 99.357 36.1621 98.4716C36.7624 99.0938 37.4579 99.7214 38.2629 100.37C41.527 103.001 44.7025 104.978 48.8945 104.927C52.9795 104.876 56.0013 103.008 59.1211 100.37C62.5122 97.5035 63.07 95.9151 63.88 92.3712C64.1458 91.2085 64.3631 89.9993 64.5368 88.8809Z" fill="#00879A" stroke="#00A2B9" stroke-width="0.273936"/>
<path d="M28.1069 83.8834C28.3094 83.1747 41.313 77.886 41.313 77.886L43.8432 84.6765C43.8432 84.6765 31.0432 91.3762 30.4357 90.9711C29.8282 90.566 28.3847 89.3319 27.9044 87.8322C27.4334 86.3616 27.9044 84.592 28.1069 83.8834Z" fill="#F5BC1C"/>
<path opacity="0.6" d="M43.7646 84.7182C42.6899 85.2793 31.0158 91.358 30.4363 90.9715C30.0746 90.7303 29.4165 90.1952 28.8418 89.4851L42.911 82.959L43.7646 84.7182Z" fill="#D4AE43"/>
<path d="M40.3567 77.7988L43.5416 85.1636L50.0193 82.1868C50.0193 82.1868 51.926 83.5279 53.3347 83.9047C56.4288 84.7322 58.8246 84.0392 61.3192 82.0303C64.0047 79.8676 65.1079 77.3633 64.8252 73.9268C64.5472 70.5494 63.2041 68.1408 60.1907 66.5903C57.2877 65.0966 54.4583 64.9426 51.836 66.8875C50.1292 68.1534 48.9695 71.5126 48.9695 71.5126C48.9695 71.5126 49.4424 69.2177 48.9945 68.0746C48.4577 66.705 47.9643 65.6257 46.5551 65.2151C45.0248 64.7691 43.7231 65.0382 42.2641 66.4304C40.8051 67.8225 41.0249 69.137 41.8963 71.509C42.5548 73.3018 44.9614 75.2617 44.9614 75.2617L40.3567 77.7988Z" fill="#F5F5F5"/>
<path opacity="0.2" d="M63.0301 68.8521C62.953 69.9421 62.8019 71.5592 62.5315 72.7392C62.5016 72.8696 62.4729 72.9958 62.4451 73.1184C62.1158 74.5683 61.9001 75.518 61.1367 76.9036C61.1131 76.9464 61.09 76.9884 61.0673 77.0298C60.5566 77.958 60.2344 78.5437 59.4248 79.284C58.0374 80.5527 56.8656 81.1266 54.9815 81.1534C53.1639 81.1793 50.6181 79.5344 50.6181 79.5344L42.6524 83.1067L43.542 85.1636L50.0196 82.1868C50.0196 82.1868 51.9263 83.5279 53.335 83.9047C56.4292 84.7322 58.8249 84.0392 61.3195 82.0303C64.005 79.8676 65.1083 77.3633 64.8255 73.9268C64.658 71.8915 64.1037 70.208 63.0301 68.8521Z" fill="#CACACA"/>
<path opacity="0.2" d="M51.3114 74.4456C50.6741 75.117 49.2201 75.3648 49.2777 75.6631C49.3352 75.9613 50.7354 76.0017 51.5416 75.6386C52.2919 75.3008 52.7041 74.8866 53.0015 74.1194C53.2511 73.4755 53.2825 73.0105 53.073 72.3525C52.9325 71.9115 52.5637 71.3165 52.4642 71.3357C52.3648 71.3549 52.4581 72.3316 52.255 72.9229C52.0277 73.5845 51.793 73.9382 51.3114 74.4456Z" fill="#CACACA"/>
<path opacity="0.6" d="M42.2748 72.2846C42.2962 71.4006 42.4264 69.8773 43.0303 68.984C43.6412 68.0803 44.1035 67.4274 45.167 67.185C46.0608 66.9813 46.6684 67.3262 47.385 67.733C47.614 67.863 47.8542 67.9993 48.1184 68.1261C48.4442 68.2823 48.8617 68.525 49.1438 68.6942C49.1135 68.468 49.0656 68.257 48.9943 68.0752C48.4576 66.7056 47.9642 65.6264 46.5549 65.2157C45.0246 64.7697 43.723 65.0388 42.264 66.431C40.805 67.8232 41.0248 69.1376 41.8961 71.5096C41.9905 71.7666 42.1208 72.027 42.2748 72.2846Z" fill="white"/>
<path opacity="0.6" d="M48.9775 72.2967C48.9775 72.2967 50.2255 69.7169 51.5404 68.5077C52.4497 67.6715 53.0162 67.1785 54.1803 66.765C55.2325 66.3912 56.0099 66.4485 56.9627 66.5187C57.2747 66.5417 57.6055 66.5661 57.971 66.5772C58.7858 66.6019 59.8421 66.7255 60.638 66.8335C60.4933 66.7502 60.3444 66.6691 60.1912 66.5903C57.2882 65.0966 54.4588 64.9427 51.8365 66.8875C50.4929 67.884 49.4884 70.1777 49.1217 71.1088C49.0149 71.7844 48.9775 72.2967 48.9775 72.2967Z" fill="white"/>
<path d="M105.412 6.54806C104.549 6.60694 103.883 6.99915 103.346 7.70754L102.353 7.45024L102.182 8.11205L103.108 8.35219L103.04 8.61691C102.851 9.34489 102.961 10.0091 103.353 10.6758L103.55 11.0091L102.979 11.8499C102.861 12.0313 102.743 12.2127 102.675 12.4774C102.572 12.8745 102.601 13.3058 102.78 13.7054C102.942 14.171 103.221 14.4554 103.518 14.6735C103.947 14.9259 104.344 15.0288 104.842 15.0165C105.356 14.9381 105.739 14.8253 106.023 14.5459C106.947 15.0679 107.859 15.0923 108.775 14.553C109.442 14.1608 109.861 13.6338 110.05 12.9058C110.136 12.5749 110.187 12.3764 110.172 12.1607C110.805 11.9009 111.273 11.4572 111.444 10.7954C111.496 10.5968 111.565 10.3321 111.55 10.1164C111.52 9.68504 111.324 9.35171 111.062 9.00122C110.734 8.63358 110.437 8.41546 110.04 8.31254C109.775 8.24392 109.577 8.19246 109.361 8.20718L108.216 8.26363L108.054 7.79794C107.662 7.13127 107.003 6.67786 106.192 6.5382L106.415 5.67786L105.687 5.48918L105.412 6.54806ZM105.27 13.362C104.969 13.7077 104.67 13.7714 104.307 13.5361C103.944 13.3009 103.881 13.0018 104.116 12.6391L105.459 10.7271C105.714 11.9232 105.64 12.7517 105.27 13.362ZM110.057 10.1533C110.087 10.5847 109.886 10.8151 109.437 10.9107C108.724 10.9377 107.964 10.5995 107.042 9.79562L109.3 9.53322C109.797 9.52093 110.028 9.7219 110.057 10.1533ZM106.755 8.45L105.594 8.57263L105.527 8.55548L105.277 8.70256L105.26 8.76874L104.589 9.7247C104.459 9.40852 104.395 9.10949 104.481 8.77859C104.567 8.44769 104.785 8.1511 105.118 7.95499C105.451 7.75888 105.75 7.69514 106.081 7.7809C106.246 7.96472 106.542 8.18285 106.755 8.45Z" fill="#888989"/>
</svg>
