<svg width="160" height="160" viewBox="0 0 160 160" fill="none" xmlns="http://www.w3.org/2000/svg">
<ellipse opacity="0.1" cx="88.3836" cy="144.768" rx="67.2248" ry="6.05024" fill="#0092A6"/>
<path d="M141.111 53.4969L150.802 43.8128C152.209 42.4052 153 40.4961 153 38.5055C153 36.5149 152.209 34.6059 150.802 33.1983C149.394 31.7908 147.485 31 145.494 31C143.504 31 141.595 31.7908 140.187 33.1983L130.497 42.8824L120.813 33.2108C119.405 31.8032 117.496 31.0125 115.506 31.0125C113.515 31.0125 111.606 31.8032 110.198 33.2108C108.791 34.6184 108 36.5274 108 38.518C108 40.5086 108.791 42.4177 110.198 43.8253L119.882 53.4969L110.211 63.181C108.803 64.5886 108.012 66.4976 108.012 68.4882C108.012 70.4788 108.803 72.3879 110.211 73.7954C111.618 75.203 113.527 75.9938 115.518 75.9938C117.509 75.9938 119.418 75.203 120.825 73.7954L130.497 64.1113L140.181 73.8017C140.878 74.4986 141.705 75.0515 142.616 75.4287C143.527 75.8059 144.503 76 145.488 76C146.474 76 147.45 75.8059 148.36 75.4287C149.271 75.0515 150.098 74.4986 150.795 73.8017C151.492 73.1047 152.045 72.2773 152.422 71.3667C152.8 70.4561 152.994 69.4801 152.994 68.4945C152.994 67.5088 152.8 66.5328 152.422 65.6222C152.045 64.7116 151.492 63.8842 150.795 63.1872L141.111 53.4969Z" fill="#DD5275"/>
<path d="M106.508 108.665C106.508 110.116 106.078 111.534 105.272 112.74C104.466 113.946 103.321 114.887 101.981 115.442C100.64 115.997 99.1657 116.142 97.743 115.859C96.3202 115.576 95.0133 114.877 93.9875 113.852C92.9618 112.826 92.2632 111.519 91.9802 110.096C91.6972 108.674 91.8424 107.199 92.3976 105.859C92.9527 104.518 93.8928 103.373 95.099 102.567C96.3052 101.761 97.7232 101.331 99.1739 101.331C101.119 101.331 102.985 102.104 104.36 103.479C105.736 104.855 106.508 106.72 106.508 108.665ZM120.765 86.3407C114.496 81.7796 106.943 79.3227 99.1899 79.3227C91.4372 79.3227 83.8839 81.7796 77.6147 86.3407C76.4354 87.1996 75.6456 88.4919 75.4191 89.9332C75.1926 91.3744 75.5478 92.8467 76.4068 94.026C77.2658 95.2053 78.558 95.9951 79.9993 96.2216C81.4406 96.4481 82.9128 96.0928 84.0921 95.2339C88.4796 92.0434 93.765 90.3248 99.1899 90.3248C104.615 90.3248 109.9 92.0434 114.288 95.2339C115.467 96.0928 116.939 96.4481 118.381 96.2216C119.822 95.9951 121.114 95.2053 121.973 94.026C122.832 92.8467 123.187 91.3744 122.961 89.9332C122.734 88.4919 121.944 87.1996 120.765 86.3407ZM104.675 40.8203C104.675 39.3613 104.095 37.9621 103.064 36.9305C102.032 35.8989 100.633 35.3193 99.1739 35.3193C80.5188 35.3289 62.4417 41.793 48.0104 53.6146C47.4521 54.073 46.9895 54.6369 46.649 55.2741C46.3086 55.9113 46.097 56.6093 46.0264 57.3283C45.9557 58.0472 46.0274 58.7731 46.2372 59.4644C46.4471 60.1556 46.791 60.7988 47.2494 61.3572C47.7079 61.9155 48.2718 62.3781 48.909 62.7185C49.5462 63.0589 50.2442 63.2705 50.9631 63.3412C51.6821 63.4119 52.4079 63.3402 53.0992 63.1304C53.7905 62.9205 54.4337 62.5766 54.992 62.1181C67.4548 51.9111 83.0648 46.3299 99.1739 46.3212C100.633 46.3212 102.032 45.7417 103.064 44.71C104.095 43.6784 104.675 42.2792 104.675 40.8203ZM104.675 62.8241C104.675 61.3651 104.095 59.966 103.064 58.9343C102.032 57.9027 100.633 57.3231 99.1739 57.3231C85.9446 57.2741 73.0953 61.7443 62.753 69.9937C61.6381 70.9088 60.9272 72.2252 60.7734 73.6594C60.6197 75.0936 61.0354 76.5307 61.931 77.6614C62.8267 78.792 64.1305 79.5257 65.5618 79.7043C66.9931 79.8829 68.4373 79.4923 69.5833 78.6164C77.9863 71.915 88.4259 68.2842 99.1739 68.325C100.633 68.325 102.032 67.7455 103.064 66.7139C104.095 65.6822 104.675 64.283 104.675 62.8241Z" fill="#00879A"/>
<path d="M60.1763 119.317L72.5296 103.677L77.8428 108.756L66.12 123.86L60.1763 119.317Z" fill="#F5BC1C"/>
<path opacity="0.6" d="M63.739 123.006L76.3052 107.547L77.8428 108.757C77.8428 108.757 66.704 123.236 66.1889 123.778C65.6738 124.32 64.9961 124.62 64.9961 124.62L63.739 123.006Z" fill="#D4AE43"/>
<path d="M71.6258 104.04L77.7869 109.345L82.3174 103.6C82.3174 103.6 84.6389 103.951 86.0804 103.645C89.2467 102.972 91.1041 101.223 92.4645 98.2168C93.929 94.9802 93.8108 92.1628 92.0239 89.1297C90.2678 86.1487 87.9802 84.5536 84.5649 84.5232C81.2745 84.4938 78.6477 85.664 77.1433 88.6706C76.1641 90.6276 76.6124 94.2585 76.6124 94.2585C76.6124 94.2585 76.0174 91.926 75.1031 91.0812C74.0075 90.0689 73.0806 89.304 71.6234 89.5793C70.0411 89.8782 68.9841 90.7295 68.2852 92.6879C67.5864 94.6463 68.3707 95.7547 70.2154 97.5347C71.6096 98.8802 74.6588 99.569 74.6588 99.569L71.6258 104.04Z" fill="#F5F5F5"/>
<path opacity="0.2" d="M88.1396 85.2895C88.5555 86.3288 89.1394 87.8879 89.4206 89.0998C89.4517 89.2337 89.482 89.3632 89.5115 89.4891C89.8597 90.9768 90.0879 91.9513 90.015 93.5811C90.0127 93.6314 90.0106 93.6808 90.0084 93.7294C89.9603 94.8209 89.9299 95.5095 89.5278 96.5666C88.8386 98.3781 88.0348 99.4498 86.3433 100.348C84.7114 101.215 81.6768 100.881 81.6768 100.881L76.0662 107.863L77.7869 109.345L82.3173 103.6C82.3173 103.6 84.6388 103.951 86.0804 103.645C89.2467 102.972 91.1041 101.223 92.4645 98.2168C93.929 94.9802 93.8107 92.1628 92.0239 89.1297C90.9656 87.3333 89.7143 86.0402 88.1396 85.2895Z" fill="#C2C2C2"/>
<path opacity="0.2" d="M80.0364 95.874C79.7594 96.7877 78.5551 97.69 78.7401 97.938C78.925 98.1859 80.209 97.5739 80.7762 96.8658C81.304 96.2068 81.4921 95.6343 81.4192 94.79C81.358 94.0814 81.1793 93.6387 80.6966 93.13C80.3732 92.789 79.7745 92.4121 79.6932 92.4759C79.6118 92.5397 80.1313 93.3958 80.2111 94.0344C80.3004 94.749 80.2458 95.1835 80.0364 95.874Z" fill="#C2C2C2"/>
<path opacity="0.6" d="M70.9031 98.0728C70.5286 97.2489 69.9676 95.7859 70.1155 94.6833C70.2653 93.568 70.3924 92.7525 71.246 92.0362C71.9634 91.4342 72.6664 91.47 73.4955 91.5123C73.7605 91.5258 74.0384 91.54 74.3338 91.5342C74.6979 91.527 75.1836 91.5569 75.514 91.5819C75.3858 91.3876 75.2485 91.2156 75.1031 91.0812C74.0075 90.069 73.0805 89.304 71.6234 89.5793C70.0411 89.8782 68.9841 90.7295 68.2852 92.6879C67.5863 94.6463 68.3707 95.7547 70.2154 97.5348C70.4152 97.7276 70.6491 97.907 70.9031 98.0728Z" fill="white"/>
<path opacity="0.6" d="M76.9684 94.9771C76.9684 94.9771 76.9473 92.023 77.5974 90.2999C78.047 89.1084 78.3396 88.3917 79.2078 87.4712C79.9926 86.6392 80.721 86.3315 81.6138 85.9543C81.9062 85.8308 82.2162 85.6999 82.5515 85.5407C83.2993 85.1856 84.3094 84.8097 85.0771 84.5401C84.9092 84.5305 84.7384 84.5249 84.5648 84.5233C81.2745 84.494 78.6477 85.6642 77.1433 88.6708C76.3724 90.2113 76.4862 92.7891 76.5695 93.8165C76.7739 94.4881 76.9684 94.9771 76.9684 94.9771Z" fill="white"/>
<path d="M28.0075 125.069C27.9412 124.312 38.2473 114.397 38.2473 114.397L43.0838 119.996C43.0838 119.996 33.4801 131.194 32.7625 131.029C32.0449 130.864 30.2414 130.212 29.247 128.946C28.2719 127.705 28.0738 125.827 28.0075 125.069Z" fill="#FDC427"/>
<path opacity="0.6" d="M42.8205 120.065C42.0135 121.004 33.2431 131.186 32.5585 131.029C32.1312 130.931 31.319 130.66 30.5218 130.19L41.3812 118.688L42.8205 120.065Z" fill="#D4AE43"/>
<rect opacity="0.4" x="44.6899" y="39" width="4.89492" height="25.0721" rx="2.44746" fill="#FDC427"/>
<rect opacity="0.4" width="4.92992" height="24.9001" rx="2.46496" transform="matrix(0.836385 -0.548143 0.529698 0.848186 13.3119 49.9666)" fill="#FDC427"/>
<rect opacity="0.4" width="4.08604" height="11.6813" rx="2.04302" transform="matrix(0.963292 -0.268454 0.256663 0.966501 32.2487 54.0955)" fill="#FDC427"/>
<rect opacity="0.4" width="4.08856" height="11.6744" rx="2.04428" transform="matrix(0.949639 0.313346 -0.299947 0.953956 57.9675 53.2551)" fill="#FDC427"/>
<rect opacity="0.4" width="4.14932" height="11.5051" rx="2.07466" transform="matrix(0.53608 -0.844167 0.832143 0.554562 11.2054 70.749)" fill="#FDC427"/>
<rect opacity="0.4" width="5.00799" height="18.1764" rx="2.50399" transform="matrix(0.228166 -0.973622 0.971065 0.238814 0 80.8767)" fill="#FDC427"/>
<path d="M31.3311 119.23C32.4905 120.859 31.8977 125.55 32.4529 127.483C33.4726 131.035 33.2492 131.039 34.4924 134.483C35.8994 138.38 43.9763 140.131 43.9763 140.131H52.9503C52.9503 140.131 58.726 138.601 61.0066 135.527C62.9441 132.916 64.4646 130.541 64.9837 127.483C65.3916 125.081 63.9186 120.869 64.9837 119.23C69.2085 112.729 72.2177 110.277 73.7538 102.627C75.5006 93.9278 74.2308 87.5833 69.1648 80.3758C63.3993 72.173 56.4929 68.4842 46.6277 68.6754C37.116 68.8599 30.5871 72.4069 25.1105 80.3758C20.1376 87.6117 18.8662 94.0341 20.9294 102.627C22.8527 110.638 26.5863 112.565 31.3311 119.23Z" fill="#FDC427"/>
<ellipse cx="42.2425" cy="91.8647" rx="7.34238" ry="7.52164" fill="#333333"/>
<ellipse cx="3.69768" cy="3.14386" rx="3.69768" ry="3.14386" transform="matrix(0.831156 -0.556039 0.514835 0.857289 35.9779 89.0705)" fill="white"/>
<ellipse cx="1.54281" cy="1.06803" rx="1.54281" ry="1.06803" transform="matrix(0.780694 -0.624914 0.58353 0.812092 42.0265 93.7929)" fill="white"/>
<ellipse cx="61.3296" cy="87.0057" rx="7.34238" ry="7.52164" fill="#333333"/>
<ellipse cx="3.69768" cy="3.14386" rx="3.69768" ry="3.14386" transform="matrix(0.831156 -0.556039 0.514835 0.857289 55.0651 84.2115)" fill="white"/>
<ellipse cx="1.54281" cy="1.06803" rx="1.54281" ry="1.06803" transform="matrix(0.780694 -0.624914 0.58353 0.812092 61.1136 88.934)" fill="white"/>
<path d="M47.4586 107.776C47.4586 107.776 47.6264 106.343 50.2699 105.436C52.9133 104.529 54.2163 105.628 54.2163 105.628" stroke="#333333" stroke-width="3.67135" stroke-linecap="round"/>
<path opacity="0.4" d="M25.6658 82.9664C25.2791 83.9062 25.7248 84.9778 26.6612 85.3598C27.5977 85.7419 28.6703 85.2898 29.057 84.35L27.3614 83.6582L25.6658 82.9664ZM29.4477 79.8156L28.01 78.6826L29.4477 79.8156ZM32.5638 76.974L31.5596 75.4423L32.5638 76.974ZM36.8959 76.9878C37.8544 76.6539 38.3654 75.6067 38.0372 74.6487C37.7091 73.6908 36.666 73.1848 35.7075 73.5187L36.3017 75.2532L36.8959 76.9878ZM27.3614 83.6582C29.057 84.35 29.0569 84.3501 29.0569 84.3502C29.0569 84.3503 29.0568 84.3504 29.0568 84.3504C29.0567 84.3506 29.0567 84.3506 29.0567 84.3507C29.0567 84.3508 29.0567 84.3507 29.0568 84.3505C29.0569 84.3501 29.0574 84.3491 29.058 84.3475C29.0593 84.3443 29.0616 84.3388 29.0648 84.3312C29.0712 84.3159 29.0813 84.2919 29.0948 84.26C29.1219 84.1963 29.1628 84.1015 29.2153 83.9826C29.3208 83.7441 29.472 83.4126 29.6535 83.0432C30.0329 82.2706 30.4842 81.4576 30.8854 80.9486L29.4477 79.8156L28.01 78.6826C27.3541 79.5149 26.7623 80.6231 26.3628 81.4366C26.1548 81.8601 25.9826 82.2377 25.8621 82.5102C25.8017 82.6468 25.7538 82.7578 25.7205 82.8362C25.7039 82.8753 25.6908 82.9064 25.6816 82.9284C25.677 82.9394 25.6734 82.9481 25.6707 82.9545C25.6694 82.9577 25.6683 82.9603 25.6675 82.9623C25.6671 82.9633 25.6668 82.9641 25.6665 82.9648C25.6663 82.9651 25.6662 82.9655 25.6661 82.9657C25.666 82.9659 25.666 82.966 25.6659 82.9661C25.6659 82.9663 25.6658 82.9664 27.3614 83.6582ZM29.4477 79.8156L30.8854 80.9486C31.7723 79.8232 32.3446 79.3136 33.5679 78.5057L32.5638 76.974L31.5596 75.4423C30.0357 76.4487 29.1623 77.2205 28.01 78.6826L29.4477 79.8156ZM32.5638 76.974L33.5679 78.5057C34.0855 78.1639 34.8849 77.7882 35.6326 77.4767C35.9911 77.3274 36.3113 77.2035 36.5413 77.1173C36.656 77.0743 36.7474 77.041 36.8088 77.0188C36.8395 77.0078 36.8627 76.9995 36.8775 76.9943C36.8849 76.9917 36.8902 76.9898 36.8933 76.9887C36.8948 76.9882 36.8958 76.9878 36.8963 76.9877C36.8965 76.9876 36.8966 76.9876 36.8965 76.9876C36.8965 76.9876 36.8964 76.9876 36.8963 76.9877C36.8962 76.9877 36.8961 76.9877 36.8961 76.9877C36.896 76.9878 36.8959 76.9878 36.3017 75.2532C35.7075 73.5187 35.7073 73.5187 35.7072 73.5188C35.7071 73.5188 35.707 73.5189 35.7068 73.5189C35.7066 73.519 35.7063 73.5191 35.706 73.5192C35.7053 73.5194 35.7045 73.5197 35.7036 73.52C35.7017 73.5207 35.6993 73.5216 35.6962 73.5226C35.6902 73.5247 35.6819 73.5277 35.6714 73.5314C35.6504 73.5388 35.6208 73.5493 35.5834 73.5628C35.5085 73.5898 35.4022 73.6286 35.2713 73.6777C35.0101 73.7756 34.6475 73.9158 34.2392 74.0859C33.4534 74.4133 32.3838 74.8979 31.5596 75.4423L32.5638 76.974Z" fill="white"/>
<path opacity="0.6" d="M32.1518 124.208C32.0914 122.284 32.0261 120.207 31.331 119.23C31.1092 118.919 30.8896 118.618 30.6722 118.325C33.3589 119.388 36.3282 120.332 38.8856 120.594C46.2733 121.352 51.0823 120.813 57.6023 117.179C64.086 113.565 66.6208 109.334 70.3777 103.062L70.38 103.058C70.5297 102.808 70.6813 102.555 70.8352 102.299C72.2715 99.9052 73.4564 97.0142 74.4297 93.9792C74.6215 96.6561 74.3839 99.4884 73.7537 102.627C72.5921 108.412 70.5883 111.224 67.8535 115.063C66.9716 116.301 66.0138 117.645 64.9836 119.23C64.3738 120.169 64.596 121.95 64.8208 123.753C64.9887 125.099 65.158 126.456 64.9836 127.483C64.4645 130.541 62.9441 132.916 61.0065 135.527C58.7259 138.601 52.9503 140.131 52.9503 140.131H43.9762C43.9762 140.131 35.8994 138.38 34.4923 134.483C33.709 132.313 33.5079 131.509 33.2113 130.322C33.0371 129.625 32.83 128.797 32.4528 127.483C32.2304 126.709 32.1922 125.492 32.1518 124.208Z" fill="#D4AE43"/>
<ellipse opacity="0.2" cx="36.7264" cy="108.249" rx="4.89492" ry="5.01442" fill="#FF5E5E"/>
<ellipse opacity="0.2" cx="67.2495" cy="100.969" rx="4.89492" ry="5.01442" fill="#FF5E5E"/>
<path d="M48.0719 126.749C41.7891 126.721 32.0555 125.289 32.0555 125.289C32.0555 125.289 31.9902 129.71 32.7588 133.647C33.3707 136.781 34.8403 139.155 38.1636 141.9C41.451 144.614 44.6492 146.654 48.8712 146.601C52.9854 146.549 56.0288 144.621 59.171 141.9C62.5863 138.942 63.1481 137.303 63.9639 133.647C64.8391 129.724 65.1928 125.289 65.1928 125.289C65.1928 125.289 54.6768 126.778 48.0719 126.749Z" fill="#00A2B9"/>
<path opacity="0.6" d="M64.6253 130.046C62.6654 133.413 59.7582 137.819 57.1871 139.373C53.0283 141.886 51.5371 141.935 46.6347 141.912C43.3297 141.896 39.1158 140.854 36.0477 139.941C36.6523 140.583 37.3527 141.23 38.1635 141.9C41.451 144.614 44.6491 146.654 48.8712 146.601C52.9854 146.549 56.0287 144.621 59.1709 141.9C62.5862 138.942 63.148 137.303 63.9638 133.647C64.2315 132.447 64.4504 131.2 64.6253 130.046Z" fill="#00879A"/>
<path d="M27.9353 124.89C28.1393 124.159 41.2359 118.702 41.2359 118.702L43.7841 125.708C43.7841 125.708 30.8927 132.621 30.2808 132.203C29.669 131.785 28.2151 130.512 27.7314 128.964C27.257 127.447 27.7314 125.621 27.9353 124.89Z" fill="#F5BC1C"/>
<path opacity="0.6" d="M43.7044 125.751C42.622 126.33 30.8645 132.602 30.2808 132.203C29.9165 131.954 29.2537 131.402 28.6749 130.669L42.8447 123.936L43.7044 125.751Z" fill="#D4AE43"/>
<path d="M40.2724 118.612L43.4802 126.211L50.0041 123.14C50.0041 123.14 51.9245 124.523 53.3433 124.912C56.4595 125.766 58.8724 125.051 61.3848 122.978C64.0895 120.747 65.2007 118.163 64.9159 114.618C64.636 111.133 63.2832 108.648 60.2483 107.048C57.3245 105.507 54.4749 105.348 51.8338 107.355C50.1148 108.661 48.9469 112.127 48.9469 112.127C48.9469 112.127 49.4232 109.759 48.972 108.58C48.4314 107.166 47.9345 106.053 46.5152 105.629C44.9739 105.169 43.663 105.447 42.1935 106.883C40.7241 108.32 40.9455 109.676 41.823 112.123C42.4863 113.973 44.9101 115.995 44.9101 115.995L40.2724 118.612Z" fill="#F5F5F5"/>
<path opacity="0.2" d="M63.1077 109.382C63.0301 110.506 62.8778 112.175 62.6055 113.392C62.5754 113.527 62.5465 113.657 62.5184 113.783C62.1868 115.279 61.9696 116.259 61.2007 117.689C61.177 117.733 61.1537 117.776 61.1308 117.819C60.6165 118.776 60.292 119.381 59.4766 120.145C58.0793 121.454 56.8991 122.046 55.0016 122.073C53.1709 122.1 50.6069 120.403 50.6069 120.403L42.5843 124.089L43.4802 126.211L50.0041 123.14C50.0041 123.14 51.9244 124.523 53.3432 124.912C56.4595 125.766 58.8724 125.051 61.3848 122.978C64.0895 120.747 65.2007 118.163 64.9159 114.617C64.7472 112.517 64.1889 110.781 63.1077 109.382Z" fill="#C2C2C2"/>
<path opacity="0.2" d="M51.305 115.153C50.6632 115.846 49.1987 116.102 49.2567 116.409C49.3147 116.717 50.7249 116.759 51.5369 116.384C52.2925 116.036 52.7076 115.608 53.0072 114.817C53.2586 114.152 53.2902 113.673 53.0792 112.994C52.9377 112.539 52.5662 111.925 52.4661 111.945C52.366 111.964 52.4599 112.972 52.2553 113.582C52.0264 114.265 51.79 114.63 51.305 115.153Z" fill="#C2C2C2"/>
<path opacity="0.6" d="M42.2045 112.923C42.2261 112.011 42.3572 110.439 42.9654 109.517C43.5806 108.585 44.0463 107.911 45.1174 107.661C46.0176 107.451 46.6296 107.807 47.3512 108.226C47.5819 108.361 47.8238 108.501 48.0899 108.632C48.418 108.793 48.8385 109.044 49.1226 109.218C49.0921 108.985 49.0438 108.767 48.9721 108.58C48.4315 107.166 47.9345 106.053 46.5152 105.629C44.974 105.169 43.663 105.447 42.1936 106.883C40.7242 108.32 40.9455 109.676 41.8231 112.123C41.9182 112.388 42.0494 112.657 42.2045 112.923Z" fill="white"/>
<path opacity="0.6" d="M48.9545 112.936C48.9545 112.936 50.2113 110.274 51.5357 109.026C52.4515 108.164 53.0221 107.655 54.1945 107.228C55.2541 106.843 56.0371 106.902 56.9968 106.974C57.311 106.998 57.6442 107.023 58.0122 107.035C58.8329 107.06 59.8968 107.188 60.6983 107.299C60.5526 107.213 60.4027 107.129 60.2483 107.048C57.3245 105.507 54.4749 105.348 51.8339 107.355C50.4807 108.383 49.469 110.749 49.0997 111.71C48.9921 112.407 48.9545 112.936 48.9545 112.936Z" fill="white"/>
</svg>
