<svg width="40" height="40" viewBox="0 0 40 40" fill="none" xmlns="http://www.w3.org/2000/svg">
<path fill-rule="evenodd" clip-rule="evenodd" d="M20 15.3747C22.0753 15.3747 23.7576 13.6398 23.7576 11.4998C23.7576 9.35976 22.0753 7.6249 20 7.6249C17.9247 7.6249 16.2424 9.35976 16.2424 11.4998C16.2424 13.6398 17.9247 15.3747 20 15.3747ZM17.2599 10.1637C17.5595 9.51135 18.0717 8.98313 18.7043 8.67413C18.6797 8.77856 18.6667 8.88764 18.6667 8.99987C18.6667 9.75924 19.2636 10.3748 20 10.3748C20.7364 10.3748 21.3333 9.75924 21.3333 8.99987C21.3333 8.88764 21.3203 8.77856 21.2957 8.67413C21.9283 8.98313 22.4405 9.51135 22.7401 10.1637C22.6389 10.1383 22.5331 10.1248 22.4242 10.1248C21.6879 10.1248 21.0909 10.7404 21.0909 11.4998C21.0909 12.2592 21.6879 12.8748 22.4242 12.8748C22.5331 12.8748 22.6389 12.8613 22.7401 12.836C22.4405 13.4883 21.9283 14.0165 21.2957 14.3255C21.3203 14.221 21.3333 14.112 21.3333 13.9997C21.3333 13.2404 20.7364 12.6248 20 12.6248C19.2636 12.6248 18.6667 13.2404 18.6667 13.9997C18.6667 14.112 18.6797 14.221 18.7043 14.3255C18.0718 14.0165 17.5595 13.4883 17.2599 12.836C17.3611 12.8613 17.4669 12.8748 17.5758 12.8748C18.3121 12.8748 18.9091 12.2592 18.9091 11.4998C18.9091 10.7404 18.3121 10.1248 17.5758 10.1248C17.4669 10.1248 17.3611 10.1383 17.2599 10.1637ZM22.4242 10.8748C22.759 10.8748 23.0303 11.1546 23.0303 11.4998C23.0303 11.845 22.759 12.1248 22.4242 12.1248C22.0895 12.1248 21.8182 11.845 21.8182 11.4998C21.8182 11.1546 22.0895 10.8748 22.4242 10.8748ZM16.9697 11.4998C16.9697 11.845 17.241 12.1248 17.5758 12.1248C17.9105 12.1248 18.1818 11.845 18.1818 11.4998C18.1818 11.1546 17.9105 10.8748 17.5758 10.8748C17.241 10.8748 16.9697 11.1546 16.9697 11.4998ZM19.3939 8.99987C19.3939 8.6547 19.6653 8.37488 20 8.37488C20.3347 8.37488 20.6061 8.6547 20.6061 8.99987C20.6061 9.34504 20.3347 9.62485 20 9.62485C19.6653 9.62485 19.3939 9.34504 19.3939 8.99987ZM20 14.6247C20.3347 14.6247 20.6061 14.3449 20.6061 13.9997C20.6061 13.6546 20.3347 13.3748 20 13.3748C19.6653 13.3748 19.3939 13.6546 19.3939 13.9997C19.3939 14.3449 19.6653 14.6247 20 14.6247Z" fill="black"/>
<path fill-rule="evenodd" clip-rule="evenodd" d="M20 32.8742C22.0753 32.8742 23.7576 31.1394 23.7576 28.9993C23.7576 26.8593 22.0753 25.1244 20 25.1244C17.9247 25.1244 16.2424 26.8593 16.2424 28.9993C16.2424 31.1394 17.9247 32.8742 20 32.8742ZM17.2599 27.6632C17.5595 27.0109 18.0717 26.4827 18.7043 26.1737C18.6797 26.2781 18.6667 26.3872 18.6667 26.4994C18.6667 27.2588 19.2636 27.8744 20 27.8744C20.7364 27.8744 21.3333 27.2588 21.3333 26.4994C21.3333 26.3872 21.3203 26.2781 21.2957 26.1737C21.9283 26.4827 22.4405 27.0109 22.7401 27.6632C22.6389 27.6378 22.5331 27.6244 22.4242 27.6244C21.6879 27.6244 21.0909 28.24 21.0909 28.9993C21.0909 29.7587 21.6879 30.3743 22.4242 30.3743C22.5331 30.3743 22.6389 30.3609 22.7401 30.3355C22.4405 30.9878 21.9283 31.516 21.2957 31.825C21.3203 31.7206 21.3333 31.6115 21.3333 31.4993C21.3333 30.7399 20.7364 30.1243 20 30.1243C19.2636 30.1243 18.6667 30.7399 18.6667 31.4993C18.6667 31.6115 18.6797 31.7206 18.7043 31.825C18.0718 31.516 17.5595 30.9878 17.2599 30.3355C17.3611 30.3609 17.4669 30.3743 17.5758 30.3743C18.3121 30.3743 18.9091 29.7587 18.9091 28.9993C18.9091 28.24 18.3121 27.6244 17.5758 27.6244C17.4669 27.6244 17.3611 27.6378 17.2599 27.6632ZM22.4242 28.3744C22.759 28.3744 23.0303 28.6542 23.0303 28.9993C23.0303 29.3445 22.759 29.6243 22.4242 29.6243C22.0895 29.6243 21.8182 29.3445 21.8182 28.9993C21.8182 28.6542 22.0895 28.3744 22.4242 28.3744ZM16.9697 28.9993C16.9697 29.3445 17.241 29.6243 17.5758 29.6243C17.9105 29.6243 18.1818 29.3445 18.1818 28.9993C18.1818 28.6542 17.9105 28.3744 17.5758 28.3744C17.241 28.3744 16.9697 28.6542 16.9697 28.9993ZM19.3939 26.4994C19.3939 26.1542 19.6653 25.8744 20 25.8744C20.3347 25.8744 20.6061 26.1542 20.6061 26.4994C20.6061 26.8446 20.3347 27.1244 20 27.1244C19.6653 27.1244 19.3939 26.8446 19.3939 26.4994ZM20 32.1243C20.3347 32.1243 20.6061 31.8444 20.6061 31.4993C20.6061 31.1541 20.3347 30.8743 20 30.8743C19.6653 30.8743 19.3939 31.1541 19.3939 31.4993C19.3939 31.8444 19.6653 32.1243 20 32.1243Z" fill="black"/>
<path fill-rule="evenodd" clip-rule="evenodd" d="M12.7273 15.2497C10.1834 15.2497 8.12121 17.3763 8.12121 19.9996C8.12121 22.6229 10.1834 24.7495 12.7273 24.7495C15.2711 24.7495 17.3333 22.6229 17.3333 19.9996C17.3333 17.3763 15.2711 15.2497 12.7273 15.2497ZM10.5455 19.9996C10.5455 18.757 11.5223 17.7496 12.7273 17.7496C13.9323 17.7496 14.9091 18.757 14.9091 19.9996C14.9091 21.2422 13.9323 22.2495 12.7273 22.2495C11.5223 22.2495 10.5455 21.2422 10.5455 19.9996Z" fill="black"/>
<path fill-rule="evenodd" clip-rule="evenodd" d="M26.7879 15.2497C24.244 15.2497 22.1818 17.3763 22.1818 19.9996C22.1818 22.6229 24.244 24.7495 26.7879 24.7495C29.3317 24.7495 31.3939 22.6229 31.3939 19.9996C31.3939 17.3763 29.3317 15.2497 26.7879 15.2497ZM24.6061 19.9996C24.6061 18.757 25.5829 17.7496 26.7879 17.7496C27.9929 17.7496 28.9697 18.757 28.9697 19.9996C28.9697 21.2422 27.9929 22.2495 26.7879 22.2495C25.5829 22.2495 24.6061 21.2422 24.6061 19.9996Z" fill="black"/>
<path fill-rule="evenodd" clip-rule="evenodd" d="M28.6269 6.24994L28.5842 6.23141C28.4368 6.16747 28.224 6.07692 27.9588 5.96863C27.4291 5.75231 26.6871 5.4639 25.8363 5.17511C24.1636 4.60726 21.9634 4 20.1221 4C18.2809 4 16.0807 4.60726 14.4079 5.17511C13.5572 5.4639 12.8152 5.75231 12.2855 5.96863C12.0203 6.07692 11.8075 6.16747 11.66 6.23141L11.6174 6.24994H8.75948L5.67646 9.08954L5.94256 12.0851C5.88994 12.2116 5.81968 12.3834 5.73711 12.5923C5.55402 13.0557 5.30921 13.7049 5.06185 14.4496C4.57655 15.9107 4.04489 17.8454 4.00728 19.4758C3.95367 21.7996 4.19208 23.8018 4.8638 25.6722C5.53636 27.545 6.62112 29.224 8.17836 30.9339C9.8414 32.7599 11.5358 34.0322 13.4581 34.8439C15.3754 35.6534 17.4606 35.9798 19.8703 35.9991C22.3266 36.0188 24.4608 35.7105 26.4236 34.9001C28.3916 34.0876 30.1275 32.7952 31.8219 30.9336C33.3784 29.2234 34.4631 27.5445 35.1358 25.6719C35.8077 23.8017 36.0463 21.7997 35.9927 19.4758C35.9551 17.8454 35.4235 15.9107 34.9382 14.4496C34.6908 13.7049 34.446 13.0557 34.2629 12.5923C34.1712 12.3603 34.0947 12.1741 34.0407 12.0449L34.0388 12.0403V9.08342L31.27 6.24994H28.6269ZM12.2077 8.16495L12.2095 8.16412L12.2184 8.16011L12.2568 8.14296C12.2913 8.1276 12.3435 8.10461 12.4116 8.07507C12.548 8.01596 12.7482 7.93073 12.9995 7.82809C13.5028 7.62255 14.2081 7.34847 15.0144 7.07478C16.6555 6.51766 18.6082 5.99995 20.1221 5.99995C21.6361 5.99995 23.5888 6.51766 25.2299 7.07478C26.0362 7.34847 26.7415 7.62255 27.2448 7.82809C27.4961 7.93073 27.6963 8.01596 27.8327 8.07507C27.9008 8.10461 27.9529 8.1276 27.9875 8.14296L28.0259 8.16011L28.0348 8.16412L28.0366 8.16494L28.2235 8.24989H30.471L32.0994 9.91629V12.4648L32.185 12.6607L32.1857 12.6623L32.189 12.6698L32.2032 12.7028C32.2159 12.7326 32.2351 12.7777 32.2598 12.8368C32.3092 12.955 32.3806 13.1287 32.4669 13.347C32.6396 13.7842 32.8707 14.3969 33.1034 15.0977C33.5783 16.5274 34.0238 18.2177 34.0539 19.5234C34.1036 21.6774 33.8796 23.4115 33.3172 24.9772C32.7556 26.5406 31.8344 27.9975 30.4078 29.565C28.866 31.2589 27.3573 32.3604 25.7028 33.0435C24.0432 33.7286 22.1769 34.0176 19.8854 33.9992C17.6354 33.9812 15.8129 33.677 14.193 32.9931C12.5782 32.3113 11.1061 31.2272 9.59204 29.5647C8.16509 27.9979 7.24395 26.5411 6.68248 24.9776C6.12017 23.4119 5.89642 21.6775 5.94612 19.5234C5.97624 18.2177 6.42171 16.5274 6.8966 15.0977C7.12934 14.3969 7.36039 13.7842 7.53313 13.347C7.61939 13.1287 7.6908 12.955 7.7402 12.8368C7.7649 12.7777 7.78407 12.7326 7.79683 12.7028L7.81103 12.6698L7.8143 12.6623L7.81491 12.6609L7.9199 12.4208L7.69687 9.91017L9.49948 8.24989H12.0208L12.2077 8.16495Z" fill="black"/>
</svg>
