<svg width="40" height="40" viewBox="0 0 40 40" fill="none" xmlns="http://www.w3.org/2000/svg">
<path d="M20 4C11.1643 4 4 11.1643 4 20C4 28.8357 11.1643 36 20 36C28.8357 36 36 28.8357 36 20C36 11.1643 28.8357 4 20 4ZM20 33.2857C12.6643 33.2857 6.71429 27.3357 6.71429 20C6.71429 16.8214 7.83214 13.9 9.69643 11.6143L28.3857 30.3036C26.1 32.1679 23.1786 33.2857 20 33.2857ZM30.3036 28.3857L11.6143 9.69643C13.9 7.83214 16.8214 6.71429 20 6.71429C27.3357 6.71429 33.2857 12.6643 33.2857 20C33.2857 23.1786 32.1679 26.1 30.3036 28.3857Z" fill="black"/>
</svg>
