<svg width="40" height="40" viewBox="0 0 40 40" fill="none" xmlns="http://www.w3.org/2000/svg">
<path d="M31.8148 10.1005C29.1158 7.45627 25.5274 6 21.7105 6C18.1043 6 14.6606 7.31989 12.0139 9.71648C9.6471 11.8596 8.10456 14.6898 7.60132 17.7737H6.91887C5.30939 17.7737 4 19.0566 4 20.6334V25.5227H5.45453V28.0291H7.32973V25.5227H9.26824V28.0291H11.1434V25.5227H12.7167V20.6334C12.7167 19.0566 11.4073 17.7737 9.79786 17.7737H9.50402C9.98826 15.2086 11.3048 12.8602 13.2866 11.0656C15.5858 8.98375 18.5775 7.83717 21.7104 7.83717C28.5558 7.83717 34.1249 13.2934 34.1249 20C34.1249 26.3975 29.0571 31.6573 22.648 32.1285V27.6815C25.4547 27.1822 27.6058 24.4794 27.6058 21.2298C27.6058 15.9522 22.5268 11.7449 22.3106 11.5684L21.7104 11.0783L21.1101 11.5684C20.8939 11.7449 15.8149 15.9522 15.8149 21.2298C15.8149 24.4794 17.966 27.1822 20.7727 27.6815V34H21.7103C25.5272 34 29.1157 32.5437 31.8146 29.8995C34.5137 27.2552 36 23.7396 36 20.0001C36 16.2606 34.5138 12.7448 31.8148 10.1005ZM10.8415 20.6334V23.6855H5.8752V20.6334C5.8752 20.0696 6.34337 19.6109 6.91887 19.6109H9.79786C10.3734 19.6108 10.8415 20.0696 10.8415 20.6334ZM17.6903 21.2298C17.6903 17.7989 20.4595 14.7353 21.7104 13.5267C22.9618 14.7358 25.7306 17.7991 25.7306 21.2298C25.7306 23.4427 24.4138 25.302 22.648 25.797V18.3145H20.7728V25.797C19.007 25.302 17.6903 23.4427 17.6903 21.2298Z" fill="black"/>
</svg>
