<svg width="40" height="40" viewBox="0 0 40 40" fill="none" xmlns="http://www.w3.org/2000/svg">
<path d="M32.7273 18.7654H10.3449L17.0815 12.1491C17.203 12.0338 17.3 11.8959 17.3667 11.7434C17.4334 11.5909 17.4685 11.4268 17.47 11.2609C17.4714 11.0949 17.4392 10.9303 17.3752 10.7767C17.3113 10.623 17.2167 10.4835 17.0972 10.3661C16.9777 10.2488 16.8356 10.1559 16.6792 10.0931C16.5228 10.0302 16.3552 9.9986 16.1862 10C16.0172 10.0015 15.8502 10.036 15.6949 10.1015C15.5397 10.167 15.3992 10.2622 15.2818 10.3816L6.37264 19.1316C6.13404 19.366 6 19.6839 6 20.0154C6 20.3468 6.13404 20.6647 6.37264 20.8991L15.2818 29.6491C15.5219 29.8768 15.8434 30.0028 16.1771 30C16.5108 29.9971 16.83 29.8656 17.066 29.6339C17.3019 29.4021 17.4358 29.0886 17.4387 28.7609C17.4416 28.4331 17.3133 28.1174 17.0815 27.8816L10.3449 21.2654H32.7273C33.0648 21.2654 33.3885 21.1337 33.6272 20.8992C33.8659 20.6648 34 20.3469 34 20.0154C34 19.6838 33.8659 19.3659 33.6272 19.1315C33.3885 18.8971 33.0648 18.7654 32.7273 18.7654Z" fill="black"/>
</svg>
