<svg width="40" height="40" viewBox="0 0 40 40" fill="none" xmlns="http://www.w3.org/2000/svg">
<path d="M34.8578 4C34.6803 3.99993 34.5051 4.04118 34.3464 4.12053L25.6858 8.45191L15.8926 4.09884C15.8766 4.09201 15.8583 4.0908 15.8412 4.08397C15.7971 4.0675 15.7521 4.05377 15.7063 4.04286C15.6609 4.0306 15.6147 4.02103 15.5681 4.01426C15.4752 4.00663 15.382 4.00663 15.2892 4.01426C15.2426 4.02103 15.1964 4.0306 15.1509 4.04286C15.1052 4.05377 15.0601 4.0675 15.0161 4.08397C14.9989 4.0908 14.9806 4.09194 14.9646 4.09884L4.67889 8.67021C4.26598 8.85356 3.99993 9.26297 4 9.7147V34.8572C4.0002 35.2438 4.1958 35.6041 4.51998 35.8149C4.84422 36.0259 5.25317 36.0586 5.60681 35.9017L15.4286 31.536L25.2503 35.9017C25.2675 35.9085 25.2857 35.9017 25.3029 35.912C25.5796 36.0358 25.8972 36.0287 26.168 35.8926C26.1863 35.8846 26.2068 35.8926 26.2251 35.88L35.368 31.3086C35.7554 31.1151 36.0002 30.719 36 30.2858V5.1434C36.0004 4.5122 35.4889 4.00027 34.8578 4ZM14.2858 29.543L6.2857 33.0983V10.4576L14.2858 6.90218V29.543ZM24.5715 33.0983L16.5715 29.543V6.90218L24.5715 10.4575V33.0983ZM33.7144 29.5795L26.8572 33.008V10.421L33.7144 6.99245V29.5795Z" fill="black"/>
</svg>
