<svg width="40" height="40" viewBox="0 0 40 40" fill="none" xmlns="http://www.w3.org/2000/svg">
<path d="M35.7967 19.3897C35.5108 19.0062 28.6993 10 19.9999 10C11.3004 10 4.48863 19.0062 4.20306 19.3893C3.93231 19.7531 3.93231 20.2465 4.20306 20.6103C4.48863 20.9938 11.3004 30 19.9999 30C28.6993 30 35.5108 20.9938 35.7967 20.6106C36.0678 20.2469 36.0678 19.7531 35.7967 19.3897ZM19.9999 27.931C13.5918 27.931 8.0417 21.9535 6.39876 19.9993C8.03957 18.0434 13.578 12.069 19.9999 12.069C26.4076 12.069 31.9573 18.0455 33.601 20.0007C31.9601 21.9565 26.4217 27.931 19.9999 27.931Z" fill="#0F172B"/>
<path d="M19.9999 13.7931C16.5097 13.7931 13.6702 16.5776 13.6702 20C13.6702 23.4225 16.5097 26.207 19.9999 26.207C23.49 26.207 26.3296 23.4225 26.3296 20C26.3296 16.5776 23.49 13.7931 19.9999 13.7931ZM19.9999 24.1379C17.673 24.1379 15.7801 22.2817 15.7801 20C15.7801 17.7183 17.673 15.8621 19.9999 15.8621C22.3267 15.8621 24.2196 17.7183 24.2196 20C24.2196 22.2817 22.3267 24.1379 19.9999 24.1379Z" fill="#0F172B"/>
</svg>
