<svg width="40" height="40" viewBox="0 0 40 40" fill="none" xmlns="http://www.w3.org/2000/svg">
<path d="M17.4251 22.1643C17.425 20.4052 16.7132 18.718 15.446 17.4741C14.1789 16.2302 12.4601 15.5315 10.6681 15.5313C8.87585 15.5313 7.15644 16.2301 5.88916 17.4741C4.622 18.718 3.91015 20.4052 3.91007 22.1643V24.4714H6.25942L6.34896 24.4751C6.7908 24.5154 7.15103 24.8527 7.207 25.2927L8.204 33.125H13.1312L14.1282 25.2927L14.1431 25.2057C14.2388 24.7805 14.6243 24.4714 15.0758 24.4714H17.427L17.4251 22.1643ZM32.1414 10.3549C32.1414 9.89796 32.0501 9.44506 31.8719 9.02286C31.6938 8.60077 31.4325 8.21708 31.1034 7.89401C30.7743 7.57094 30.3835 7.31449 29.9534 7.13962C29.5233 6.96474 29.062 6.87503 28.5964 6.87503C27.6563 6.87507 26.7542 7.24144 26.0895 7.89401C25.4247 8.54662 25.0514 9.43205 25.0514 10.3549C25.0514 11.2778 25.4247 12.1633 26.0895 12.8159C26.7542 13.4685 27.6563 13.8348 28.5964 13.8349C29.062 13.8349 29.5233 13.7452 29.9534 13.5703C30.3835 13.3954 30.7743 13.139 31.1034 12.8159C31.4325 12.4928 31.6938 12.1091 31.8719 11.687C32.0501 11.2648 32.1414 10.8119 32.1414 10.3549ZM28.5946 15.7099C27.0578 15.7099 25.9527 16.1344 25.113 16.7993C24.2558 17.4782 23.6067 18.4623 23.0947 19.6814C22.5824 20.9013 22.2298 22.302 21.9308 23.7628C21.6492 25.1384 21.3844 26.7433 21.1044 28.0402C21.1089 28.0577 21.1172 28.0741 21.1306 28.0869C21.1483 28.1036 21.1722 28.1136 21.1968 28.1143H24.4825L24.5664 28.118C24.9845 28.1541 25.3346 28.4558 25.4189 28.866L26.2928 33.125H30.8991L31.7712 28.8669L31.7908 28.7863C31.9092 28.391 32.2802 28.1145 32.7066 28.1143H35.9942C36.0189 28.1137 36.0426 28.1037 36.0604 28.0869C36.0725 28.0755 36.0797 28.0611 36.0847 28.0457C35.8053 26.7498 35.5407 25.1384 35.2593 23.7628C34.9604 22.3021 34.6078 20.9013 34.0953 19.6814C33.5832 18.4622 32.9336 17.4782 32.0762 16.7993C31.2362 16.1344 30.1313 15.7099 28.5946 15.7099ZM14.2644 10.2643C14.2644 9.81006 14.1707 9.36055 13.9902 8.94229C13.8096 8.52392 13.5449 8.14504 13.2123 7.82901C12.8798 7.51305 12.4858 7.26564 12.054 7.10208C11.6222 6.93858 11.1614 6.86209 10.6988 6.87687C9.80304 6.90551 8.95327 7.27466 8.32991 7.90683C7.70658 8.53897 7.35812 9.38454 7.35808 10.2643C7.35808 11.1441 7.70664 11.9896 8.32991 12.6218C8.95327 13.254 9.80304 13.6231 10.6988 13.6518C11.1614 13.6665 11.6222 13.5901 12.054 13.4265C12.4858 13.263 12.8797 13.0156 13.2123 12.6996C13.5449 12.3836 13.8096 12.0055 13.9902 11.5872C14.1708 11.1689 14.2644 10.7187 14.2644 10.2643ZM34.0515 10.3549C34.0515 11.0581 33.9105 11.7543 33.6365 12.4039C33.3623 13.0536 32.9604 13.6443 32.4539 14.1416C32.308 14.2848 32.153 14.4179 31.9922 14.5435C32.4557 14.763 32.8832 15.0293 33.2755 15.34C34.4686 16.2845 35.277 17.5765 35.8609 18.9664C36.4445 20.3556 36.826 21.8977 37.1321 23.3939C37.4515 24.9554 37.6602 26.2957 37.9528 27.6529L37.978 27.7747C37.9986 27.8969 38.0045 28.0215 37.9966 28.1455V28.15C37.9629 28.6396 37.7443 29.0991 37.3839 29.4391C37.0233 29.7791 36.5462 29.9751 36.0465 29.9884C36.0378 29.9886 36.029 29.9893 36.0203 29.9893H33.4891L32.618 34.2474C32.5283 34.685 32.1364 34.9999 31.6816 35H25.5103C25.0555 35 24.6637 34.6851 24.5739 34.2474L23.7009 29.9893H21.1688C21.1595 29.9893 21.1501 29.9887 21.1408 29.9884C20.6418 29.974 20.1659 29.778 19.8062 29.4382C19.4479 29.0996 19.2302 28.6424 19.1953 28.1555C19.1828 27.9902 19.196 27.8235 19.2345 27.6621C19.5284 26.3036 19.7381 24.9571 20.058 23.3939C20.3642 21.8978 20.7458 20.3556 21.3292 18.9664C21.913 17.5765 22.7217 16.2846 23.9145 15.34C24.3073 15.029 24.7346 14.7613 25.1988 14.5417C25.0392 14.4169 24.8846 14.2845 24.739 14.1416C23.716 13.1373 23.1414 11.7751 23.1414 10.3549C23.1414 8.93477 23.716 7.57257 24.739 6.56833C25.762 5.56413 27.1497 5.00008 28.5964 5.00004C29.3126 5.00004 30.022 5.13846 30.6837 5.40745C31.3455 5.67654 31.9473 6.07112 32.4539 6.56833C32.9604 7.06558 33.3623 7.65631 33.6365 8.306C33.9106 8.95562 34.0515 9.65183 34.0515 10.3549ZM16.1744 10.2643C16.1744 10.9701 16.0297 11.6689 15.7492 12.3188C15.4686 12.9685 15.0579 13.5564 14.5414 14.0473C14.4184 14.1641 14.2894 14.2743 14.1562 14.3787C15.131 14.7996 16.0289 15.3949 16.7965 16.1484C18.4219 17.744 19.3351 19.9079 19.3352 22.1643L19.338 25.408C19.3382 25.6568 19.2373 25.8958 19.0582 26.0718C18.8792 26.2475 18.6361 26.3463 18.383 26.3464H15.9189L14.9219 34.1788C14.8621 34.6479 14.456 35 13.9743 35H7.36088C6.87925 35 6.47307 34.6479 6.41331 34.1788L5.4163 26.3464H2.95504C2.42768 26.3464 2.00016 25.9266 2 25.4089V22.1643C2.00008 19.9079 2.91331 17.744 4.53868 16.1484C5.35535 15.3467 6.31801 14.7209 7.36555 14.2972C7.224 14.1807 7.0876 14.057 6.95798 13.9255C5.98983 12.9436 5.44801 11.6308 5.44801 10.2643C5.44805 8.89783 5.98981 7.58498 6.95798 6.60312C7.92613 5.62132 9.2451 5.04732 10.6364 5.00278C11.3549 4.9798 12.0715 5.09935 12.7423 5.35343C13.4128 5.60751 14.0249 5.99155 14.5414 6.48227C15.0577 6.97298 15.4687 7.56034 15.7492 8.20987C16.0297 8.85965 16.1744 9.5586 16.1744 10.2643Z" fill="black"/>
</svg>
