<svg width="40" height="40" viewBox="0 0 40 40" fill="none" xmlns="http://www.w3.org/2000/svg">
<path d="M22.5633 21.1172L19.6103 24.0701L15.9299 20.3897L18.8828 17.4367C19.2734 17.0462 19.2734 16.413 18.8828 16.0225C18.4923 15.6319 17.8591 15.6319 17.4686 16.0225L14.5156 18.9755L13.1732 17.6331C12.7827 17.2426 12.1495 17.2425 11.759 17.6331L8.39186 21.0002C5.70699 23.685 5.4873 27.9154 7.73205 30.8537L4.29292 34.2929C3.90236 34.6834 3.90236 35.3166 4.29292 35.7071C4.48817 35.9024 4.74405 36 4.99999 36C5.25592 36 5.5118 35.9023 5.70705 35.7071L9.14618 32.2679C10.4842 33.29 12.0899 33.8015 13.6958 33.8015C15.6166 33.8015 17.5374 33.0704 18.9998 31.6081L22.3669 28.2409C22.5544 28.0534 22.6599 27.7991 22.6599 27.5339C22.6599 27.2687 22.5545 27.0143 22.3669 26.8268L21.0245 25.4844L23.9774 22.5314C24.368 22.1409 24.368 21.5077 23.9774 21.1172C23.5869 20.7267 22.9538 20.7267 22.5633 21.1172ZM17.5856 30.1939C15.4408 32.3387 11.951 32.3387 9.80612 30.1939C7.6613 28.0491 7.6613 24.5593 9.80612 22.4144L12.4662 19.7544L20.2456 27.5339L17.5856 30.1939ZM35.7071 4.29292C35.3166 3.90236 34.6834 3.90236 34.2929 4.29292L30.8538 7.73205C27.9154 5.4873 23.685 5.70705 21.0002 8.39186L17.6331 11.7591C17.2425 12.1496 17.2425 12.7827 17.6331 13.1732L26.8268 22.367C27.0143 22.5546 27.2686 22.6599 27.5338 22.6599C27.799 22.6599 28.0534 22.5546 28.2409 22.367L31.6081 18.9998C34.293 16.3149 34.5126 12.0846 32.2679 9.1463L35.7071 5.70711C36.0976 5.31655 36.0976 4.68342 35.7071 4.29292ZM30.194 17.5856L27.5339 20.2457L19.7543 12.4661L22.4144 9.80605C24.5593 7.6613 28.0491 7.6613 30.194 9.80605C32.3387 11.9509 32.3387 15.4407 30.194 17.5856Z" fill="black"/>
</svg>
