<svg width="40" height="40" viewBox="0 0 40 40" fill="none" xmlns="http://www.w3.org/2000/svg">
<path d="M17.6 10.4C17.6 11.7255 18.6745 12.8 20 12.8C21.3255 12.8 22.4 11.7255 22.4 10.4C22.4 9.07452 21.3255 8 20 8C18.6745 8 17.6 9.07452 17.6 10.4Z" fill="black"/>
<path d="M17.6 20C17.6 21.3255 18.6745 22.4 20 22.4C21.3255 22.4 22.4 21.3255 22.4 20C22.4 18.6745 21.3255 17.6 20 17.6C18.6745 17.6 17.6 18.6745 17.6 20Z" fill="black"/>
<path d="M17.6 29.6C17.6 30.9255 18.6745 32 20 32C21.3255 32 22.4 30.9255 22.4 29.6C22.4 28.2745 21.3255 27.2 20 27.2C18.6745 27.2 17.6 28.2745 17.6 29.6Z" fill="black"/>
</svg>
