<svg width="40" height="40" viewBox="0 0 40 40" fill="none" xmlns="http://www.w3.org/2000/svg">
<path d="M20.164 10.7115C20.007 10.6743 19.842 10.6912 19.6958 10.7596C19.5496 10.828 19.4308 10.9437 19.3586 11.0881L14.2039 21.3986C14.1492 21.5081 14.1235 21.6297 14.1292 21.752C14.1348 21.8742 14.1718 21.9929 14.2364 22.0968C14.301 22.2007 14.3912 22.2864 14.4983 22.3455C14.6054 22.4046 14.7259 22.4353 14.8482 22.4347H19.2834V28.5923C19.2835 28.7536 19.3379 28.9101 19.438 29.0365C19.538 29.163 19.6778 29.2519 19.8347 29.289C19.9918 29.3262 20.1568 29.3093 20.303 29.2409C20.4492 29.1725 20.568 29.0568 20.6401 28.9124L25.7949 18.6019C25.8494 18.4927 25.8752 18.3714 25.8696 18.2494C25.8641 18.1275 25.8275 18.009 25.7633 17.9052C25.6991 17.8014 25.6094 17.7157 25.5028 17.6563C25.3962 17.5969 25.2761 17.5658 25.1541 17.5658H20.7153V11.4081C20.7153 11.2469 20.6608 11.0904 20.5608 10.964C20.4607 10.8375 20.3209 10.7486 20.164 10.7115ZM23.9957 18.9978L20.7153 25.5593V21.7187C20.7153 21.5288 20.6399 21.3466 20.5056 21.2124C20.3714 21.0781 20.1893 21.0027 19.9994 21.0027H16.003L19.2834 14.4412V18.2818C19.2834 18.4717 19.3589 18.6538 19.4931 18.7881C19.6274 18.9224 19.8095 18.9978 19.9994 18.9978H23.9957Z" fill="black"/>
<path d="M19.9994 4.24806C16.0127 4.24636 12.1742 5.75915 9.26039 8.48039V7.8281C9.26039 7.63821 9.18496 7.45609 9.05069 7.32181C8.91643 7.18753 8.73433 7.1121 8.54445 7.1121C8.35458 7.1121 8.17248 7.18753 8.03821 7.32181C7.90395 7.45609 7.82852 7.63821 7.82852 7.8281V10.6921C7.82948 10.8007 7.85493 10.9076 7.90296 11.0049C7.95098 11.1022 8.02036 11.1874 8.1059 11.2542C8.19145 11.3209 8.29096 11.3675 8.39701 11.3905C8.50307 11.4134 8.61294 11.4121 8.71843 11.3867L11.5822 10.6707C11.6739 10.6484 11.7604 10.6081 11.8366 10.5523C11.9127 10.4964 11.9771 10.426 12.0259 10.3452C12.0748 10.2643 12.1071 10.1746 12.1211 10.0812C12.1352 9.98778 12.1306 9.89252 12.1076 9.80089C12.0847 9.70926 12.0438 9.62309 11.9874 9.54732C11.931 9.47155 11.8602 9.40769 11.779 9.35942C11.6978 9.31115 11.6079 9.27943 11.5144 9.26607C11.4209 9.25271 11.3257 9.25799 11.2342 9.2816L10.2319 9.5322C12.6207 7.30035 15.7011 5.95315 18.9614 5.71445C22.2216 5.47576 25.4654 6.35995 28.1537 8.2201C30.8419 10.0802 32.8129 12.8043 33.7389 15.9397C34.6649 19.0752 34.4904 22.4331 33.2442 25.4555C33.173 25.6306 33.174 25.8266 33.2468 26.001C33.3196 26.1754 33.4584 26.3139 33.6329 26.3863C33.7193 26.4223 33.8121 26.4408 33.9057 26.4407C34.0476 26.4408 34.1862 26.3987 34.3042 26.3198C34.4221 26.2409 34.5139 26.1287 34.5679 25.9975C35.5509 23.6043 35.9297 21.0059 35.6708 18.4317C35.4119 15.8574 34.5234 13.3865 33.0836 11.237C31.6438 9.08751 29.697 7.32556 27.4151 6.10668C25.1332 4.8878 22.5864 4.24948 19.9994 4.24806Z" fill="black"/>
<path d="M31.2805 28.6138L28.4167 29.3298C28.2337 29.3771 28.0768 29.4948 27.9803 29.6572C27.8837 29.8197 27.8553 30.0138 27.9012 30.1971C27.9471 30.3805 28.0637 30.5382 28.2254 30.6359C28.3872 30.7337 28.581 30.7635 28.7647 30.7189L29.767 30.4683C27.3782 32.7001 24.2978 34.0473 21.0375 34.286C17.7773 34.5247 14.5335 33.6405 11.8452 31.7804C9.15694 29.9202 7.18603 27.1961 6.25998 24.0607C5.33394 20.9253 5.50852 17.5674 6.75472 14.545C6.82445 14.3699 6.82237 14.1744 6.74894 14.0009C6.6755 13.8274 6.53662 13.6898 6.36241 13.618C6.18821 13.5462 5.99273 13.546 5.81836 13.6174C5.64399 13.6888 5.50479 13.826 5.43096 13.9994C4.06062 17.3234 3.86854 21.0162 4.88663 24.4645C5.90471 27.9128 8.07169 30.9089 11.0276 32.9554C13.9836 35.0018 17.5506 35.9753 21.1362 35.7142C24.7217 35.4531 28.1101 33.9732 30.7385 31.5201V32.1724C30.7385 32.3623 30.8139 32.5444 30.9482 32.6787C31.0825 32.8129 31.2646 32.8884 31.4544 32.8884C31.6443 32.8884 31.8264 32.8129 31.9607 32.6787C32.0949 32.5444 32.1704 32.3623 32.1704 32.1724V29.3083C32.1695 29.1998 32.1442 29.0928 32.0962 28.9954C32.0482 28.898 31.9788 28.8128 31.8932 28.746C31.8077 28.6792 31.7081 28.6326 31.602 28.6097C31.4959 28.5868 31.386 28.5882 31.2805 28.6138Z" fill="black"/>
<path d="M31.9239 29.3106L31.9114 29.2049C31.9032 29.1702 31.8917 29.1361 31.8758 29.1039C31.8443 29.04 31.7983 28.9843 31.7422 28.9404C31.6858 28.8965 31.6197 28.8651 31.5499 28.85C31.4804 28.8351 31.4083 28.8354 31.3393 28.852L28.4777 29.5674C28.3579 29.5984 28.2555 29.6764 28.1921 29.7827C28.1288 29.8894 28.1101 30.0172 28.1402 30.1376C28.1704 30.2577 28.2467 30.361 28.3527 30.4251C28.4583 30.4889 28.5847 30.5085 28.7046 30.4799L30.6297 29.9991L29.9354 30.6481C27.5056 32.9184 24.3718 34.289 21.0555 34.5318C17.7393 34.7746 14.4399 33.8748 11.7054 31.9828C8.97099 30.0907 6.9656 27.32 6.02361 24.1308C5.08165 20.9415 5.25985 17.5254 6.52746 14.451C6.57196 14.337 6.57027 14.2099 6.52266 14.0971C6.47447 13.9833 6.38309 13.8923 6.26881 13.8452C6.15462 13.7981 6.02639 13.7985 5.91207 13.8452C5.79766 13.8921 5.70572 13.9824 5.65726 14.0962C4.30945 17.3675 4.12077 21.0019 5.12264 24.3952C6.12487 27.7895 8.25827 30.7386 11.1679 32.7529C14.0776 34.7673 17.5886 35.7253 21.118 35.4683C24.6476 35.2113 27.9837 33.7552 30.571 31.3404L30.9845 30.9539V32.1722C30.9845 32.2968 31.0339 32.4168 31.122 32.5049C31.2101 32.593 31.3301 32.6424 31.4547 32.6424C31.5791 32.6423 31.6984 32.5928 31.7864 32.5049C31.8745 32.4168 31.9239 32.2968 31.9239 32.1722V29.3106ZM20.2209 10.4721C20.4316 10.522 20.6192 10.6417 20.7536 10.8115C20.8879 10.9813 20.9611 11.1912 20.9613 11.4077V17.3193H25.1536C25.3177 17.3192 25.4796 17.3615 25.6229 17.4414C25.766 17.5212 25.8867 17.6366 25.9729 17.776C26.059 17.9154 26.1078 18.0747 26.1152 18.2385C26.1226 18.4022 26.0884 18.565 26.0152 18.7116L20.8603 29.0222C20.7634 29.2161 20.6038 29.3716 20.4074 29.4635C20.211 29.5554 19.9887 29.5789 19.7776 29.5289C19.567 29.479 19.3793 29.3592 19.2449 29.1895C19.144 29.062 19.0776 28.9115 19.0507 28.7529L19.0372 28.5924V22.6808H14.8477C14.684 22.6814 14.5229 22.6398 14.3795 22.5606C14.2356 22.4812 14.1144 22.3665 14.0275 22.227C13.9407 22.0874 13.891 21.9277 13.8833 21.7635C13.8757 21.5993 13.9098 21.4356 13.9833 21.2885L19.1382 10.9779C19.2351 10.784 19.3948 10.6284 19.5911 10.5365C19.7875 10.4447 20.0098 10.4221 20.2209 10.4721ZM9.01403 7.82788C9.01397 7.70338 8.96452 7.5842 8.87653 7.49615C8.78851 7.40812 8.66925 7.35874 8.54479 7.35865C8.42021 7.35865 8.3002 7.40804 8.2121 7.49615C8.1242 7.58419 8.07466 7.70345 8.0746 7.82788V10.6904L8.0871 10.7962C8.09532 10.8306 8.10787 10.8642 8.12364 10.8962C8.15526 10.9602 8.201 11.0167 8.25729 11.0606C8.31348 11.1044 8.37902 11.1349 8.44864 11.15C8.48367 11.1576 8.51976 11.161 8.55537 11.1606L8.66114 11.1471L11.5227 10.4317C11.5829 10.4171 11.641 10.3905 11.691 10.3538C11.7408 10.3173 11.783 10.2712 11.815 10.2183C11.8471 10.1652 11.8683 10.1055 11.8775 10.0442C11.8867 9.98305 11.8839 9.92058 11.8689 9.86058C11.8538 9.80049 11.827 9.74392 11.79 9.69423C11.7531 9.6446 11.7066 9.6028 11.6535 9.57115C11.6002 9.53948 11.5408 9.51838 11.4794 9.50962C11.4181 9.50088 11.3557 9.50471 11.2958 9.52019H11.2939L9.36884 10.0019L10.064 9.35192C12.4937 7.08197 15.627 5.71209 18.943 5.46922C22.2593 5.22642 25.5596 6.12518 28.2941 8.0173C31.0285 9.90943 33.0329 12.6809 33.9749 15.8702C34.9168 19.0594 34.7395 22.4748 33.472 25.5491C33.4257 25.6636 33.4264 25.7918 33.4739 25.9058C33.5217 26.0202 33.6133 26.1112 33.7278 26.1587C33.7841 26.1822 33.8446 26.1943 33.9057 26.1943L33.9749 26.1895C34.0434 26.1793 34.1092 26.1542 34.1672 26.1154C34.2445 26.0637 34.3048 25.9899 34.3403 25.9039L34.5143 25.4597C35.3516 23.2284 35.6647 20.8322 35.4259 18.4568C35.171 15.9227 34.296 13.49 32.8787 11.374C31.4614 9.25817 29.5451 7.52385 27.2989 6.32403C25.0528 5.1243 22.5461 4.49569 19.9997 4.49422C16.0755 4.49254 12.2966 5.98194 9.42846 8.66057L9.01403 9.04711V7.82788ZM19.0372 18.2818V15.4837L16.4007 20.7568H19.9997C20.2548 20.7569 20.4992 20.8581 20.6795 21.0385C20.8599 21.2188 20.9612 21.4633 20.9613 21.7183V24.5164L23.5969 19.2443H19.9997C19.7446 19.2443 19.4994 19.1429 19.319 18.9625C19.1385 18.7821 19.0372 18.5369 19.0372 18.2818ZM32.4162 32.1722C32.4162 32.4273 32.3149 32.6725 32.1345 32.8529C31.9541 33.0332 31.7096 33.1346 31.4547 33.1347C31.1995 33.1347 30.9543 33.0334 30.7739 32.8529C30.5935 32.6725 30.4922 32.4273 30.4922 32.1722V32.0703C27.8853 34.3392 24.6102 35.708 21.1536 35.9597C17.5121 36.2247 13.8891 35.2361 10.8871 33.1578C7.88525 31.0794 5.68454 28.0365 4.65052 24.5347C3.61654 21.0326 3.81172 17.2817 5.20341 13.9058L5.20437 13.9029C5.30359 13.6699 5.49121 13.4854 5.72553 13.3894C5.95975 13.2937 6.22235 13.294 6.45631 13.3904C6.69032 13.4869 6.87685 13.6717 6.97555 13.9048C7.07423 14.138 7.07694 14.4013 6.98324 14.6366L6.98228 14.6385C5.7575 17.609 5.5856 20.9099 6.49573 23.9914C7.40589 27.0728 9.34326 29.7498 11.9852 31.5779C14.6273 33.4061 17.8157 34.275 21.0199 34.0404C23.8825 33.8308 26.6022 32.7495 28.8239 30.9577C28.5771 31.0177 28.3153 30.9776 28.0979 30.8462C27.8807 30.7148 27.724 30.503 27.6623 30.2568C27.6007 30.0105 27.6393 29.75 27.769 29.5318C27.8988 29.3135 28.1097 29.1549 28.3556 29.0914L31.221 28.375C31.3625 28.3407 31.5114 28.3386 31.6537 28.3693C31.7961 28.4 31.9302 28.4624 32.0451 28.552C32.1598 28.6416 32.2528 28.756 32.3172 28.8866C32.3815 29.0172 32.4151 29.1611 32.4162 29.3068V32.1722ZM19.5295 28.5924C19.5296 28.6982 19.5658 28.8008 19.6315 28.8837C19.697 28.9665 19.7883 29.0247 19.8911 29.0491C19.9941 29.0735 20.1029 29.0631 20.1988 29.0183C20.2947 28.9735 20.3726 28.8967 20.4199 28.802L25.5748 18.4914C25.6104 18.4198 25.6274 18.3404 25.6238 18.2606C25.6202 18.1806 25.5958 18.1028 25.5536 18.0346C25.5116 17.9667 25.4532 17.9101 25.3834 17.8712C25.3136 17.8323 25.2345 17.8116 25.1546 17.8116H20.469V11.4087L20.4622 11.3298C20.4491 11.2524 20.4173 11.1786 20.368 11.1164C20.3024 11.0334 20.2103 10.9753 20.1074 10.951C20.0044 10.9266 19.8957 10.9378 19.7997 10.9827C19.7039 11.0276 19.6259 11.1034 19.5786 11.1981L14.4237 21.5087C14.3879 21.5804 14.371 21.6603 14.3747 21.7404C14.3784 21.8206 14.4035 21.8982 14.4458 21.9664C14.4882 22.0345 14.5468 22.091 14.617 22.1298C14.6872 22.1686 14.7665 22.1889 14.8468 22.1885H19.5295V28.5924ZM19.5295 18.2818C19.5295 18.4064 19.5789 18.5263 19.667 18.6144C19.7551 18.7025 19.8752 18.7519 19.9997 18.7519H24.394L20.9353 25.6693L20.469 25.5597V21.7183C20.4689 21.5938 20.4195 21.4746 20.3315 21.3866C20.2434 21.2985 20.1242 21.2492 19.9997 21.2491H15.6045L15.7824 20.8923L19.0632 14.3308L19.5295 14.4414V18.2818ZM9.50634 7.92884C12.4106 5.39987 16.1364 4.00026 19.9997 4.00191C22.627 4.00338 25.2141 4.65153 27.5315 5.88941C29.849 7.12733 31.8261 8.91704 33.2883 11.1C34.7505 13.283 35.6523 15.7925 35.9153 18.4068C36.1782 21.0212 35.7944 23.6608 34.796 26.0914C34.7234 26.2675 34.5995 26.4181 34.4412 26.5241C34.3223 26.6037 34.1874 26.6552 34.047 26.676L33.9057 26.6866C33.811 26.6867 33.717 26.6728 33.6268 26.6452L33.5383 26.6135C33.3041 26.5162 33.1179 26.3302 33.0201 26.0962C32.9222 25.8619 32.9206 25.5978 33.0162 25.3625C34.241 22.3921 34.4128 19.0911 33.5028 16.0096C32.5926 12.9281 30.6553 10.2503 28.0133 8.42211C25.3714 6.59417 22.1835 5.72508 18.9795 5.95961C16.1166 6.16921 13.3956 7.25016 11.1737 9.04231C11.2962 9.01083 11.4244 9.00422 11.5496 9.02211C11.6751 9.04009 11.7955 9.08333 11.9044 9.14808C12.0135 9.21293 12.1094 9.29821 12.1852 9.4C12.261 9.50181 12.3159 9.61822 12.3468 9.74135C12.3775 9.86421 12.3838 9.99206 12.365 10.1173C12.3462 10.2428 12.3018 10.3635 12.2362 10.4721C12.1706 10.5808 12.0847 10.6759 11.9823 10.751C11.8802 10.8258 11.764 10.8786 11.641 10.9087L8.77845 11.625L8.77653 11.626C8.63502 11.6601 8.48706 11.6616 8.34479 11.6308C8.2026 11.6 8.0691 11.5376 7.9544 11.4481C7.83969 11.3585 7.74669 11.244 7.68228 11.1135C7.61794 10.983 7.58358 10.8397 7.58228 10.6942V7.82788C7.58234 7.57289 7.68378 7.32844 7.86402 7.14807C8.04444 6.96763 8.28962 6.86634 8.54479 6.86634C8.79984 6.86643 9.04426 6.96771 9.22461 7.14807C9.40493 7.32845 9.50628 7.57282 9.50634 7.82788V7.92884Z" fill="black"/>
</svg>
