<svg width="40" height="40" viewBox="0 0 40 40" fill="none" xmlns="http://www.w3.org/2000/svg">
<path d="M10.4 22.4C11.7255 22.4 12.8 21.3255 12.8 20C12.8 18.6745 11.7255 17.6 10.4 17.6C9.07452 17.6 8 18.6745 8 20C8 21.3255 9.07452 22.4 10.4 22.4Z" fill="black"/>
<path d="M20 22.4C21.3255 22.4 22.4 21.3255 22.4 20C22.4 18.6745 21.3255 17.6 20 17.6C18.6745 17.6 17.6 18.6745 17.6 20C17.6 21.3255 18.6745 22.4 20 22.4Z" fill="black"/>
<path d="M29.6 22.4C30.9255 22.4 32 21.3255 32 20C32 18.6745 30.9255 17.6 29.6 17.6C28.2745 17.6 27.2 18.6745 27.2 20C27.2 21.3255 28.2745 22.4 29.6 22.4Z" fill="black"/>
</svg>
