<svg width="20" height="20" viewBox="0 0 20 20" fill="none" xmlns="http://www.w3.org/2000/svg">
<path fill-rule="evenodd" clip-rule="evenodd" d="M2 10C2 14.4183 5.58172 18 10 18C14.4183 18 18 14.4183 18 10C18 5.58169 14.4183 2 10 2C5.58172 2 2 5.58169 2 10ZM10 10.9302C10.3082 10.9302 10.5581 10.6803 10.5581 10.3721V6.65116C10.5581 6.34292 10.3082 6.09302 10 6.09302C9.69176 6.09302 9.44186 6.34292 9.44186 6.65116V10.3721C9.44186 10.6803 9.69176 10.9302 10 10.9302ZM10.4223 12.9762C10.6285 13.2053 10.6099 13.5582 10.3808 13.7644C10.1517 13.9706 9.79877 13.9521 9.59256 13.7229L9.58512 13.7147C9.3789 13.4855 9.39751 13.1326 9.62664 12.9264C9.85578 12.7202 10.2087 12.7388 10.4149 12.9679L10.4223 12.9762Z" fill="#CF2427"/>
</svg>
