<svg width="40" height="40" viewBox="0 0 40 40" fill="none" xmlns="http://www.w3.org/2000/svg">
<path d="M4.47754 12.7461V5.37788C4.47754 4.88108 4.88253 4.47742 5.37672 4.47742H13.3227C14.0065 4.47742 14.5614 3.92248 14.5614 3.23871C14.5614 2.55494 14.0065 2 13.3227 2H5.37672C3.51625 2 2 3.51486 2 5.37788V12.7454C2 13.4292 2.55497 13.9841 3.23877 13.9841C3.92257 13.9841 4.47754 13.4298 4.47754 12.7461Z" fill="black"/>
<path d="M13.3227 35.52H5.37672C4.88253 35.52 4.47754 35.115 4.47754 34.6182V28.0091C4.47754 27.3253 3.92257 26.7704 3.23877 26.7704C2.55497 26.7704 2 27.3253 2 28.0091V34.6182C2 36.4812 3.51625 37.9974 5.37672 37.9974H13.3227C14.0065 37.9974 14.5614 37.4424 14.5614 36.7587C14.5614 36.0749 14.0065 35.52 13.3227 35.52Z" fill="black"/>
<path d="M36.7612 26.3693C36.0774 26.3693 35.5225 26.9243 35.5225 27.608V34.6208C35.5225 35.1176 35.1188 35.5226 34.622 35.5226H26.9925C26.3087 35.5226 25.7537 36.0775 25.7537 36.7613C25.7537 37.4451 26.3087 38 26.9925 38H34.622C36.4851 38 38 36.4838 38 34.6208V27.608C38 26.9243 37.445 26.3693 36.7612 26.3693Z" fill="black"/>
<path d="M26.177 16.9364C26.1955 16.7585 26.0113 16.7912 25.827 16.8239L20.6681 17.7389L22.2549 11.1717C22.2734 10.9938 22.1076 10.8486 21.9234 10.8813C21.7391 10.914 21.5549 10.9466 21.5364 11.1245L13.96 23.1193C13.7573 23.3298 13.9231 23.475 14.0888 23.6202L19.432 22.6725L18.0295 29.207C18.011 29.3849 18.1767 29.5301 18.361 29.4975C18.5452 29.4648 18.7295 29.4321 18.748 29.2542L26.1401 17.2922C26.1586 17.1143 26.177 16.9364 26.177 16.9364Z" fill="black"/>
<path d="M36.7612 13.9848C37.445 13.9848 38 13.4298 38 12.7461V5.37788C38 3.51486 36.4851 2 34.622 2H26.9925C26.3087 2 25.7537 2.55494 25.7537 3.23871C25.7537 3.92248 26.3087 4.47742 26.9925 4.47742H34.622C35.1188 4.47742 35.5225 4.88108 35.5225 5.37788V12.7454C35.5225 13.4298 36.0774 13.9848 36.7612 13.9848Z" fill="black"/>
</svg>
