<svg width="40" height="40" viewBox="0 0 40 40" fill="none" xmlns="http://www.w3.org/2000/svg">
<path d="M24.383 4C22.3476 3.99997 20.7067 3.99994 19.4164 4.17343C18.0767 4.35355 16.9486 4.73887 16.0527 5.63475C15.2713 6.41605 14.8765 7.37616 14.6693 8.50434C14.4679 9.60061 14.4294 10.9422 14.4204 12.5519C14.417 13.1684 14.914 13.671 15.5305 13.6744C16.1471 13.6778 16.6496 13.1808 16.6531 12.5644C16.6621 10.9368 16.7044 9.78322 16.8652 8.90768C17.0202 8.06406 17.2691 7.57575 17.6313 7.21341C18.0433 6.80149 18.6217 6.53291 19.7138 6.38608C20.8381 6.23493 22.3282 6.23256 24.4647 6.23256H25.9531C28.0896 6.23256 29.5797 6.23493 30.704 6.38608C31.7962 6.53291 32.3745 6.80149 32.7865 7.21341C33.1985 7.62533 33.467 8.20368 33.6139 9.29581C33.765 10.42 33.7674 11.9101 33.7674 14.0465V25.9535C33.7674 28.0899 33.765 29.5799 33.6139 30.7042C33.467 31.7964 33.1985 32.3746 32.7865 32.7866C32.3745 33.1986 31.7962 33.4671 30.704 33.614C29.5797 33.7651 28.0896 33.7674 25.9531 33.7674H24.4647C22.3282 33.7674 20.8381 33.7651 19.7138 33.614C18.6217 33.4671 18.0433 33.1986 17.6313 32.7866C17.2691 32.4242 17.0202 31.936 16.8652 31.0924C16.7044 30.2168 16.6621 29.0631 16.6531 27.4356C16.6496 26.8191 16.1471 26.3222 15.5305 26.3256C14.914 26.329 14.417 26.8316 14.4204 27.4481C14.4294 29.0578 14.4679 30.3994 14.6693 31.4956C14.8765 32.6238 15.2713 33.5839 16.0527 34.3653C16.9486 35.2612 18.0767 35.6465 19.4164 35.8266C20.7067 36 22.3476 36 24.383 36H26.0348C28.0704 36 29.7111 36 31.0016 35.8266C32.3413 35.6465 33.4692 35.2612 34.3653 34.3653C35.2611 33.4693 35.6465 32.3414 35.8266 31.0017C36.0001 29.7113 36 28.0707 36 26.0352V13.9648C36 11.9294 36.0001 10.2887 35.8266 8.99833C35.6465 7.65863 35.2611 6.53064 34.3653 5.63475C33.4692 4.73887 32.3413 4.35355 31.0016 4.17343C29.7111 3.99994 28.0704 3.99997 26.0348 4H24.383Z" fill="black"/>
<path d="M5.11632 18.8822C4.49978 18.8822 4 19.382 4 19.9985C4 20.615 4.49978 21.1148 5.11632 21.1148H22.9365L20.0183 23.6161C19.5502 24.0173 19.496 24.722 19.8972 25.1901C20.2984 25.6582 21.0032 25.7124 21.4713 25.3113L26.6808 20.8461C26.9282 20.634 27.0706 20.3245 27.0706 19.9985C27.0706 19.6727 26.9282 19.3631 26.6808 19.151L21.4713 14.6859C21.0032 14.2847 20.2984 14.3389 19.8972 14.807C19.496 15.2751 19.5502 15.9798 20.0183 16.381L22.9365 18.8822H5.11632Z" fill="black"/>
</svg>
