<svg width="40" height="40" viewBox="0 0 40 40" fill="none" xmlns="http://www.w3.org/2000/svg">
<path d="M23.9727 20.2695L25.7903 18.452C25.9225 18.9468 26 19.464 26 20C26 23.3085 23.3085 26 20 26C19.464 26 18.9467 25.9225 18.452 25.7903L20.2695 23.9728C22.2568 23.8373 23.8372 22.2568 23.9727 20.2695ZM35.874 19.5143C35.751 19.293 34.0065 16.2363 30.5965 13.6458L29.1413 15.101C31.6278 16.9293 33.2032 19.0615 33.8235 20.0015C32.6383 21.8063 27.9888 28 20 28C18.802 28 17.688 27.8468 16.6397 27.6023L14.9965 29.2455C16.5072 29.7088 18.1678 30 20 30C30.4683 30 35.6583 20.874 35.874 20.4858C36.042 20.1835 36.042 19.8165 35.874 19.5143ZM31.707 9.70706L9.707 31.707C9.51175 31.9023 9.25575 32 9 32C8.74425 32 8.48825 31.9023 8.293 31.707C7.90225 31.3163 7.90225 30.6835 8.293 30.293L11.092 27.494C6.567 24.7623 4.26775 20.741 4.126 20.4858C3.958 20.1835 3.958 19.8163 4.126 19.514C4.34175 19.126 9.53175 10.0001 20 10.0001C22.7067 10.0001 25.0513 10.6176 27.0555 11.5306L30.293 8.29306C30.6838 7.90231 31.3165 7.90231 31.707 8.29306C32.0975 8.68381 32.0978 9.31656 31.707 9.70706ZM12.5833 26.0028L15.115 23.471C14.4157 22.49 14 21.2938 14 20C14 16.6915 16.6915 14 20 14C21.2938 14 22.49 14.4158 23.471 15.1148L25.5182 13.0675C23.9007 12.4198 22.0627 12.0001 20 12.0001C12.0112 12.0001 7.36175 18.1938 6.17675 19.9985C6.92925 21.139 9.09225 24.026 12.5833 26.0028ZM16.5667 22.019L22.019 16.5668C21.4242 16.2155 20.7395 16 20 16C17.7945 16 16 17.7945 16 20C16 20.7395 16.2155 21.4243 16.5667 22.019Z" fill="#0F172B"/>
</svg>
