<svg width="56" height="56" viewBox="0 0 56 56" fill="none" xmlns="http://www.w3.org/2000/svg">
<path d="M27.3556 14.0904L14.8174 20.1434C14.6602 20.2193 14.5603 20.3785 14.5603 20.553V35.4472C14.5603 35.6217 14.6602 35.7809 14.8174 35.8568L27.3556 41.9097C27.6055 42.0304 27.8968 42.0304 28.1466 41.9097L40.6849 35.8568C40.8421 35.7809 40.942 35.6217 40.942 35.4472V20.553C40.942 20.3785 40.8421 20.2193 40.6849 20.1434L28.1466 14.0904C27.8968 13.9699 27.6055 13.9699 27.3556 14.0904Z" fill="#36AEB4"/>
<path d="M14.6359 20.3042C14.5881 20.377 14.5603 20.4627 14.5603 20.5532V35.4473C14.5603 35.6219 14.6602 35.781 14.8174 35.857L27.3556 41.9099C27.4805 41.9702 27.6158 42.0003 27.7511 42.0003V26.6357L14.6359 20.3042Z" fill="#0A6267"/>
<path d="M40.8662 20.3042C40.914 20.377 40.9418 20.4627 40.9418 20.5532V35.4473C40.9418 35.6219 40.8419 35.781 40.6847 35.857L28.1465 41.9099C28.0216 41.9702 27.8863 42.0004 27.751 42.0004V26.6357L40.8662 20.3042Z" fill="#36AEB4"/>
<path d="M18.3121 34.6534C18.246 34.6534 18.1784 34.6388 18.1149 34.6082L16.1792 33.6736C15.9526 33.5643 15.858 33.2925 15.9673 33.0664C16.0761 32.8403 16.3488 32.7461 16.5745 32.8545L18.5103 33.7891C18.7368 33.8984 18.8314 34.1703 18.7221 34.3963C18.644 34.5588 18.4814 34.6534 18.3121 34.6534Z" fill="#FFE17D"/>
<path d="M20.0941 33.4935C20.0279 33.4935 19.9603 33.4788 19.8968 33.4482L16.182 31.655C15.9559 31.5457 15.8609 31.2738 15.9701 31.0478C16.079 30.8221 16.3521 30.7275 16.5773 30.8359L20.2921 32.6291C20.5182 32.7384 20.6133 33.0102 20.504 33.2363C20.4259 33.3988 20.2633 33.4935 20.0941 33.4935Z" fill="#FFF6D8"/>
<path d="M36.4217 22.4422L23.2604 16.084L19.791 17.7656L32.9819 24.1337L36.4217 22.4422Z" fill="#F5E66C"/>
<path d="M32.9819 24.1338V29.0671C32.9819 29.2347 33.1572 29.3448 33.3083 29.2719L36.1647 27.8929C36.3219 27.817 36.4218 27.6579 36.4218 27.4833V22.4424L32.9819 24.1338Z" fill="#FFAE10"/>
</svg>
