<svg width="16" height="16" viewBox="0 0 16 16" fill="none" xmlns="http://www.w3.org/2000/svg">
<rect x="5.6001" y="4.3999" width="5.2" height="5.6" fill="white"/>
<path d="M8.00135 1.6001C6.6215 1.60145 5.29865 2.14148 4.32344 3.10152C3.34824 4.06156 2.80045 5.36308 2.80045 6.7201C2.78397 8.3656 3.27113 9.97793 4.19864 11.3476C5.12615 12.7172 6.45112 13.7808 8.00135 14.4001C9.55108 13.7804 10.8755 12.7166 11.8025 11.347C12.7295 9.97742 13.2163 8.3653 13.1996 6.7201C13.1996 5.36352 12.6522 4.06239 11.6776 3.10242C10.7029 2.14246 9.38073 1.60213 8.00135 1.6001ZM8.00135 8.6401C7.61522 8.6401 7.23776 8.52749 6.91671 8.31652C6.59566 8.10555 6.34543 7.80568 6.19767 7.45485C6.0499 7.10402 6.01124 6.71797 6.08657 6.34552C6.1619 5.97308 6.34784 5.63097 6.62087 5.36245C6.8939 5.09394 7.24177 4.91107 7.62047 4.83699C7.99918 4.76291 8.39172 4.80093 8.74845 4.94625C9.10519 5.09157 9.41009 5.33766 9.62461 5.6534C9.83913 5.96915 9.95363 6.34036 9.95363 6.7201C9.95363 7.22931 9.74794 7.71767 9.38182 8.07774C9.01569 8.43781 8.51912 8.6401 8.00135 8.6401Z" fill="#EB5D32"/>
</svg>
