<svg width="16" height="16" viewBox="0 0 16 16" fill="none" xmlns="http://www.w3.org/2000/svg">
<circle cx="8" cy="8" r="4" fill="white"/>
<path d="M14.1161 7.19341L13.2456 6.18246C13.0792 5.99051 12.9448 5.6322 12.9448 5.37626V4.28854C12.9448 3.61031 12.388 3.05365 11.7095 3.05365H10.6215C10.3719 3.05365 10.007 2.91928 9.81502 2.75292L8.80376 1.88274C8.36213 1.50523 7.63889 1.50523 7.19086 1.88274L6.18597 2.75932C5.99396 2.91928 5.62914 3.05365 5.37953 3.05365H4.27226C3.59382 3.05365 3.03698 3.61031 3.03698 4.28854V5.38266C3.03698 5.6322 2.90258 5.99051 2.74257 6.18246L1.87851 7.19981C1.50729 7.6413 1.50729 8.35792 1.87851 8.79941L2.74257 9.81676C2.90258 10.0087 3.03698 10.367 3.03698 10.6166V11.7107C3.03698 12.3889 3.59382 12.9456 4.27226 12.9456H5.37953C5.62914 12.9456 5.99396 13.0799 6.18597 13.2463L7.19726 14.1165C7.63889 14.494 8.36213 14.494 8.81016 14.1165L9.82142 13.2463C10.0134 13.0799 10.3719 12.9456 10.6279 12.9456H11.7159C12.3944 12.9456 12.9512 12.3889 12.9512 11.7107V10.623C12.9512 10.3734 13.0856 10.0087 13.252 9.81676L14.1225 8.80581C14.4937 8.36432 14.4937 7.6349 14.1161 7.19341ZM10.6599 6.79032L7.56848 9.88074C7.47888 9.97032 7.35727 10.0215 7.22926 10.0215C7.10125 10.0215 6.97965 9.97032 6.89004 9.88074L5.34112 8.33233C5.15551 8.14678 5.15551 7.83965 5.34112 7.6541C5.52673 7.46855 5.83395 7.46855 6.01956 7.6541L7.22926 8.8634L9.98143 6.11208C10.167 5.92653 10.4743 5.92653 10.6599 6.11208C10.8455 6.29763 10.8455 6.60476 10.6599 6.79032Z" fill="#195D8B"/>
</svg>
