<svg width="40" height="40" viewBox="0 0 40 40" fill="none" xmlns="http://www.w3.org/2000/svg">
<path d="M35.7708 10.7193L35.8564 36.8373C35.8561 37.6514 35.5339 38.4325 34.96 39.01C34.3861 39.5875 33.6071 39.9146 32.7929 39.9201L8.21151 40C7.39729 40 6.61613 39.6779 6.03855 39.104C5.46097 38.5301 5.13389 37.7511 5.12869 36.9369L5.01953 3.13829C5.01904 2.32404 5.34091 1.54269 5.91477 0.96503C6.48864 0.387366 7.26782 0.0603499 8.08207 0.0554634L24.9814 0L35.7708 10.7193Z" fill="#F2C80B"/>
<path d="M24.9824 0.00146484L25.009 8.09726C25.0101 8.44645 25.08 8.79199 25.2147 9.11416C25.3493 9.43634 25.5462 9.72884 25.7939 9.97495C26.0416 10.2211 26.3354 10.416 26.6584 10.5485C26.9815 10.6811 27.3275 10.7488 27.6766 10.7476L35.7718 10.7208L24.9824 0.00146484Z" fill="url(#paint0_linear_2871_58888)"/>
<path d="M21.7563 10.6671L12.0202 23.9682C11.9263 24.0965 11.872 24.2495 11.8643 24.4083C11.8565 24.5671 11.8955 24.7246 11.9764 24.8615C12.0574 24.9983 12.1767 25.1084 12.3196 25.178C12.4625 25.2477 12.6227 25.2739 12.7804 25.2533L18.5046 24.5092C18.6417 24.4914 18.781 24.5088 18.9095 24.5598C19.0379 24.6109 19.1512 24.6938 19.2386 24.8009C19.326 24.9079 19.3846 25.0355 19.409 25.1716C19.4333 25.3077 19.4225 25.4476 19.3776 25.5784L15.9407 35.5888C15.8772 35.7745 15.883 35.9769 15.9571 36.1586C16.0313 36.3403 16.1686 36.489 16.3439 36.5773C16.5192 36.6656 16.7205 36.6875 16.9106 36.6389C17.1007 36.5903 17.2668 36.4745 17.3782 36.3129L28.6538 19.9164C28.7435 19.786 28.7932 19.6321 28.7967 19.4738C28.8001 19.3155 28.7572 19.1596 28.6732 19.0254C28.5892 18.8912 28.4678 18.7844 28.324 18.7182C28.1801 18.6521 28.02 18.6295 27.8635 18.6531L21.9194 19.5499C21.7838 19.5703 21.6451 19.5561 21.5165 19.5085C21.3878 19.4609 21.2733 19.3815 21.1837 19.2777C21.094 19.1739 21.032 19.0491 21.0036 18.9149C20.9752 18.7807 20.9812 18.6415 21.0211 18.5103L23.189 11.3825C23.2444 11.1991 23.2332 11.0019 23.1573 10.8259C23.0814 10.6499 22.9457 10.5064 22.7742 10.4208C22.6028 10.3352 22.4066 10.3129 22.2203 10.358C22.034 10.4031 21.8696 10.5125 21.7563 10.6671Z" fill="url(#paint1_linear_2871_58888)"/>
<path d="M23.9596 4.43893L5 4.66528L5.08886 12.108L24.0485 11.8817L23.9596 4.43893Z" fill="url(#paint2_linear_2871_58888)"/>
<path d="M9.61337 10.1363L9.56723 6.27153L11.3215 6.25059C11.7673 6.24527 12.1102 6.33986 12.3501 6.53438C12.59 6.7289 12.7122 7.01254 12.7167 7.38532C12.719 7.57902 12.6826 7.74576 12.6075 7.88555C12.5361 8.0253 12.4388 8.1416 12.3156 8.23445C12.1924 8.32365 12.0543 8.38926 11.9013 8.4313L11.9017 8.46419L11.9347 8.48024C11.9972 8.50508 12.0562 8.54642 12.1117 8.60424C12.1708 8.65836 12.2321 8.74352 12.2957 8.85973L12.9684 10.0963L12.1351 10.1062L11.5128 8.9568C11.4679 8.87327 11.4178 8.8099 11.3625 8.7667C11.3107 8.7198 11.25 8.68763 11.1804 8.67018C11.1107 8.65274 11.0266 8.6446 10.9279 8.64578L10.3578 8.65259L10.3754 10.1272L9.61337 10.1363ZM10.3504 8.0386L11.2824 8.02748C11.5199 8.02464 11.693 7.97506 11.8015 7.87873C11.9099 7.77874 11.963 7.6319 11.9607 7.43821C11.9584 7.24451 11.9 7.10265 11.7856 7.01264C11.6713 6.92262 11.4916 6.87908 11.2468 6.882L10.3368 6.89287L10.3504 8.0386ZM13.757 10.0869L13.7109 6.22206L16.408 6.18986L16.4157 6.83674L14.4806 6.85984L14.4918 7.79727L16.3118 7.77554L16.3195 8.42241L14.4995 8.44414L14.5113 9.4309L16.4464 9.4078L16.4541 10.0547L13.757 10.0869ZM19.2114 10.0821C18.8313 10.0866 18.4959 10.012 18.2053 9.85832C17.9184 9.70092 17.6927 9.47516 17.5284 9.18105C17.3676 8.88325 17.2848 8.52603 17.2798 8.1094C17.2748 7.69276 17.3491 7.3355 17.5028 7.03759C17.66 6.73964 17.8803 6.51039 18.1635 6.34984C18.4466 6.18928 18.7801 6.10672 19.1638 6.10214C19.4343 6.09891 19.6814 6.13251 19.9052 6.20294C20.1326 6.26967 20.324 6.37522 20.4792 6.51957L20.234 7.10916C20.068 6.97955 19.9025 6.89015 19.7374 6.84095C19.5723 6.78809 19.3929 6.76282 19.1992 6.76513C18.8483 6.76932 18.5682 6.88415 18.3589 7.10961C18.1532 7.33138 18.053 7.65971 18.0582 8.09462C18.0634 8.53318 18.1715 8.86451 18.3826 9.08861C18.5935 9.30906 18.8763 9.41717 19.2308 9.41294C19.4245 9.41062 19.6033 9.3829 19.7671 9.32977C19.9309 9.27299 20.0943 9.17783 20.2571 9.0443L20.5163 9.62787C20.3646 9.77588 20.1758 9.88779 19.9501 9.96359C19.7281 10.0393 19.4818 10.0788 19.2114 10.0821Z" fill="#F1FCFF"/>
<defs>
<linearGradient id="paint0_linear_2871_58888" x1="31.5424" y1="-0.611067" x2="42.2994" y2="-0.611067" gradientUnits="userSpaceOnUse">
<stop stop-color="#3376AF"/>
<stop offset="1" stop-color="#094273"/>
</linearGradient>
<linearGradient id="paint1_linear_2871_58888" x1="11.3553" y1="23.447" x2="27.3575" y2="23.447" gradientUnits="userSpaceOnUse">
<stop stop-color="#F89058"/>
<stop offset="1" stop-color="#F16E48"/>
</linearGradient>
<linearGradient id="paint2_linear_2871_58888" x1="-22.3801" y1="47.6749" x2="-3.42048" y2="47.4485" gradientUnits="userSpaceOnUse">
<stop stop-color="#F89058"/>
<stop offset="1" stop-color="#F16E48"/>
</linearGradient>
</defs>
</svg>
