<svg width="24" height="24" viewBox="0 0 24 24" fill="none" xmlns="http://www.w3.org/2000/svg">
<path fill-rule="evenodd" clip-rule="evenodd" d="M12 24C18.6274 24 24 18.6274 24 12C24 5.37258 18.6274 0 12 0C5.37258 0 0 5.37258 0 12C0 18.6274 5.37258 24 12 24ZM10.3143 3.42857H13.4571L10 11.0816L16.2857 8.32653L11.2571 20.5714L12.8286 12L6.85714 14.449L10.3143 3.42857ZM4.78572 6.98969C5.86196 6.30996 7.22463 6.29012 8.31759 6.93018L7.79244 8.60424C7.69297 8.55438 7.59536 8.49933 7.5 8.4391C6.95058 8.0921 6.25055 8.0921 5.70113 8.4391L4.34399 9.29625L4.28571 9.20398V7.30548L4.78572 6.98969ZM7.10731 10.7882C6.3146 10.6688 5.489 10.8312 4.78572 11.2754L4.28571 11.5912V13.4897L4.34399 13.582L5.70113 12.7248C5.97022 12.5549 6.27544 12.4681 6.5814 12.4647L7.10731 10.7882ZM8.41542 15.5611C8.10704 15.3664 7.77514 15.2258 7.43282 15.1394L5.49275 15.935L5.74007 15.1466C5.40773 15.2335 5.0856 15.3717 4.78572 15.5611L4.28571 15.8769V17.7754L4.34399 17.8677L5.70113 17.0105C6.25055 16.6635 6.95058 16.6635 7.5 17.0105C8.57473 17.6893 9.93506 17.71 11.0272 17.0728L11.3895 15.0966C10.9792 15.1752 10.5802 15.33 10.2143 15.5611C9.66487 15.9081 8.96484 15.9081 8.41542 15.5611ZM13.5235 17.3093C14.5133 17.6901 15.64 17.5905 16.5583 17.0105C17.1077 16.6635 17.8077 16.6635 18.3571 17.0105L19.7143 17.8677V15.8401L19.2726 15.5611C18.164 14.861 16.7515 14.861 15.6429 15.5611C15.199 15.8415 14.6567 15.8953 14.1751 15.7227L13.5235 17.3093ZM15.2034 13.2187C15.6765 13.1542 16.1391 12.9895 16.5583 12.7248C17.1077 12.3778 17.8077 12.3778 18.3571 12.7248L19.7143 13.582V11.5544L19.2726 11.2754C18.3118 10.6686 17.1228 10.5877 16.1011 11.0327L15.2034 13.2187ZM17.2687 8.18947C17.6423 8.14734 18.0269 8.23055 18.3571 8.4391L19.7143 9.29625V7.26868L19.2726 6.98969C18.164 6.28952 16.7515 6.28952 15.6429 6.98969C15.0934 7.3367 14.3934 7.3367 13.844 6.98969C13.5674 6.81498 13.2718 6.68387 12.9668 6.59635L12.2456 8.1928C12.4841 8.22367 12.7175 8.30577 12.9286 8.4391C13.0691 8.52784 13.2144 8.60533 13.3635 8.67157L17.8845 6.68994L17.2687 8.18947Z" fill="#36AEB4"/>
</svg>
