<svg width="16" height="16" viewBox="0 0 16 16" fill="none" xmlns="http://www.w3.org/2000/svg">
<path fill-rule="evenodd" clip-rule="evenodd" d="M11.8164 1.59961C12.1275 1.59961 12.4244 1.74832 12.6113 1.99707L14.0742 3.94824C14.2844 4.2286 14.4004 4.57542 14.4004 4.92578V9.31543C14.1778 9.17621 13.9378 9.06272 13.6846 8.97754V4.92578C13.6846 4.90409 13.6822 4.88221 13.6797 4.85938H9.62988V6.0918C9.62984 6.46353 9.32586 6.76758 8.9541 6.76758H7.0459C6.67431 6.76738 6.37016 6.46341 6.37012 6.0918V4.85938H2.32129C2.31881 4.88218 2.31543 4.90389 2.31543 4.92578V13.4062C2.31566 13.5593 2.44072 13.6844 2.59375 13.6846H9.54102C9.6668 13.9433 9.82441 14.1835 10.0088 14.4004H2.59375C2.04583 14.4004 1.59963 13.9542 1.59961 13.4062V4.92578C1.59967 4.57548 1.71563 4.22851 1.92578 3.94824L3.38867 1.99707C3.57546 1.74816 3.87272 1.59976 4.18359 1.59961H11.8164ZM4.82031 12.0938C5.01773 12.0939 5.17773 12.2547 5.17773 12.4521C5.17764 12.6495 5.01767 12.8095 4.82031 12.8096H3.54785C3.35049 12.8095 3.19053 12.6495 3.19043 12.4521C3.19043 12.2547 3.35044 12.0939 3.54785 12.0938H4.82031ZM6.09277 10.8223C6.28994 10.8226 6.45007 10.9825 6.4502 11.1797C6.4502 11.377 6.29001 11.5378 6.09277 11.5381H3.54785C3.35044 11.538 3.19043 11.3771 3.19043 11.1797C3.19056 10.9824 3.35051 10.8224 3.54785 10.8223H6.09277ZM7.08594 6.05176H8.91504V4.85938H7.08594V6.05176ZM4.18359 2.31543C4.09677 2.31558 4.01408 2.35721 3.96191 2.42676L2.67383 4.14355H6.42188L6.71094 2.31543H4.18359ZM7.14746 4.14355H8.85352L8.56543 2.31543H7.43555L7.14746 4.14355ZM9.5791 4.14355H13.3271L12.0391 2.42676C11.9868 2.35713 11.9034 2.31543 11.8164 2.31543H9.29004L9.5791 4.14355Z" fill="#62748E"/>
<path d="M14.1029 11.121C14.2067 11.2247 14.2067 11.3929 14.1029 11.4966L12.3209 13.2786C12.2172 13.3824 12.049 13.3824 11.9453 13.2786L11.097 12.4303C10.9932 12.3266 10.9932 12.1584 11.097 12.0547C11.2007 11.9509 11.3689 11.9509 11.4726 12.0547L12.1331 12.7152L13.7272 11.121C13.831 11.0173 13.9992 11.0173 14.1029 11.121ZM16 12.1998C16 14.0792 14.479 15.5998 12.6 15.5998C10.7206 15.5998 9.19995 14.0789 9.19995 12.1998C9.19995 10.3205 10.7209 8.7998 12.6 8.7998C14.4793 8.7998 16 10.3207 16 12.1998ZM15.4687 12.1998C15.4687 10.6141 14.1855 9.33105 12.6 9.33105C11.0142 9.33105 9.7312 10.6143 9.7312 12.1998C9.7312 13.7855 11.0145 15.0686 12.6 15.0686C14.1857 15.0686 15.4687 13.7853 15.4687 12.1998Z" fill="#62748E"/>
</svg>
