<svg width="96" height="96" viewBox="0 0 96 96" fill="none" xmlns="http://www.w3.org/2000/svg">
<g clip-path="url(#clip0_2003_11486)">
<path d="M49.1099 79.9803C31.0549 80.2991 18.3108 76.9264 14.1953 75.2015C23.621 63.916 46.7205 63.2521 61.4564 65.6415C73.2452 67.5538 80.6172 72.9008 81.6356 75.2015C78.3166 76.6613 67.1648 79.6615 49.1099 79.9803Z" fill="url(#paint0_linear_2003_11486)" fill-opacity="0.25"/>
<path d="M48.048 82.3079C65.5713 82.3079 79.7767 68.1025 79.7767 50.5793C79.7767 33.056 65.5713 18.8506 48.048 18.8506C30.5247 18.8506 16.3193 33.056 16.3193 50.5793C16.3193 68.1025 30.5247 82.3079 48.048 82.3079Z" fill="url(#paint1_linear_2003_11486)" fill-opacity="0.25"/>
<path opacity="0.6" d="M72.7436 36.0402L62.1664 45.0549C62.1153 45.0985 62.1284 45.1806 62.1905 45.2062L65.8197 46.6966C65.8687 46.7168 65.8897 46.7748 65.8649 46.8216L62.0488 54.0195C62.0022 54.1074 62.1121 54.1945 62.1871 54.1291L72.9919 44.7003C73.0421 44.6565 73.0287 44.5751 72.967 44.5497L69.4338 43.0987C69.3852 43.0788 69.3641 43.0216 69.388 42.9748L72.8817 36.1493C72.9264 36.0619 72.8183 35.9765 72.7436 36.0402Z" fill="#F9B506"/>
<path opacity="0.6" d="M26.7493 60.2448L27.0371 67.258C27.0385 67.2919 27.0752 67.3123 27.1047 67.2955L28.8279 66.3173C28.8512 66.3041 28.8808 66.3138 28.8917 66.3383L30.5639 70.0978C30.5843 70.1437 30.6532 70.1272 30.6505 70.077L30.269 62.8444C30.2673 62.8108 30.2307 62.7907 30.2014 62.8074L28.5238 63.7597C28.5007 63.7728 28.4714 63.7634 28.4603 63.7393L26.8357 60.224C26.8149 60.179 26.7473 60.1953 26.7493 60.2448Z" fill="#F9B506"/>
<rect x="31.6514" y="29.876" width="31.943" height="44.7614" rx="7" fill="#087E84"/>
<rect x="34.5537" y="29.876" width="29.8894" height="44.7614" rx="7" fill="url(#paint2_linear_2003_11486)"/>
<rect x="41.1533" y="66.2324" width="16.692" height="4.73248" fill="#DCD8D8"/>
<rect x="42.8252" y="66.7842" width="15.0208" height="4.18057" fill="#F4F4F4"/>
<rect x="47.625" y="67.2051" width="7.10209" height="3.3385" fill="#295876"/>
<path d="M54.7417 69.6007C54.6147 69.6007 54.5023 69.5727 54.4046 69.5165C54.3069 69.4603 54.23 69.3821 54.1738 69.282C54.1188 69.1818 54.0913 69.067 54.0913 68.9376C54.0913 68.8081 54.1188 68.6939 54.1738 68.595C54.23 68.4949 54.3063 68.4167 54.4028 68.3605C54.4993 68.3031 54.6104 68.2744 54.7362 68.2744C54.8632 68.2744 54.975 68.3031 55.0714 68.3605C55.1691 68.4167 55.2449 68.4949 55.2986 68.595C55.3536 68.6939 55.381 68.8081 55.381 68.9376C55.381 69.067 55.3536 69.1818 55.2986 69.282C55.2449 69.3821 55.1698 69.4603 55.0733 69.5165C54.978 69.5727 54.8675 69.6007 54.7417 69.6007ZM54.7417 69.4066C54.8247 69.4066 54.898 69.3864 54.9615 69.3461C55.025 69.3058 55.0745 69.2508 55.1099 69.1812C55.1465 69.1104 55.1649 69.0292 55.1649 68.9376C55.1649 68.8472 55.1465 68.7666 55.1099 68.6958C55.0733 68.6249 55.0226 68.57 54.9579 68.5309C54.8944 68.4906 54.8205 68.4704 54.7362 68.4704C54.6531 68.4704 54.5793 68.4906 54.5145 68.5309C54.451 68.57 54.4003 68.6249 54.3625 68.6958C54.3258 68.7654 54.3075 68.846 54.3075 68.9376C54.3075 69.0292 54.3258 69.1104 54.3625 69.1812C54.4003 69.2508 54.4516 69.3058 54.5164 69.3461C54.5823 69.3864 54.6574 69.4066 54.7417 69.4066Z" fill="#E9E9E9"/>
<path d="M55.6067 69.5788V68.2964H55.8266L56.5081 69.2234V68.2964H56.7206V69.5788H56.5081L55.8192 68.6408V69.5788H55.6067Z" fill="#E9E9E9"/>
<path d="M44.3632 69.6007C44.2362 69.6007 44.1239 69.5727 44.0262 69.5165C43.9284 69.4603 43.8515 69.3821 43.7953 69.282C43.7404 69.1818 43.7129 69.067 43.7129 68.9376C43.7129 68.8081 43.7404 68.6939 43.7953 68.595C43.8515 68.4949 43.9278 68.4167 44.0243 68.3605C44.1208 68.3031 44.2319 68.2744 44.3577 68.2744C44.4848 68.2744 44.5965 68.3031 44.693 68.3605C44.7907 68.4167 44.8664 68.4949 44.9201 68.595C44.9751 68.6939 45.0026 68.8081 45.0026 68.9376C45.0026 69.067 44.9751 69.1818 44.9201 69.282C44.8664 69.3821 44.7913 69.4603 44.6948 69.5165C44.5996 69.5727 44.489 69.6007 44.3632 69.6007ZM44.3632 69.4066C44.4463 69.4066 44.5196 69.3864 44.5831 69.3461C44.6466 69.3058 44.696 69.2508 44.7315 69.1812C44.7681 69.1104 44.7864 69.0292 44.7864 68.9376C44.7864 68.8472 44.7681 68.7666 44.7315 68.6958C44.6948 68.6249 44.6441 68.57 44.5794 68.5309C44.5159 68.4906 44.442 68.4704 44.3577 68.4704C44.2747 68.4704 44.2008 68.4906 44.1361 68.5309C44.0726 68.57 44.0219 68.6249 43.984 68.6958C43.9474 68.7654 43.9291 68.846 43.9291 68.9376C43.9291 69.0292 43.9474 69.1104 43.984 69.1812C44.0219 69.2508 44.0732 69.3058 44.1379 69.3461C44.2039 69.3864 44.279 69.4066 44.3632 69.4066Z" fill="#E9E9E9"/>
<path d="M45.2283 69.5788V68.2964H46.0252V68.4906H45.4408V68.8496H45.9409V69.0438H45.4408V69.5788H45.2283Z" fill="#E9E9E9"/>
<path d="M46.2355 69.5788V68.2964H47.0324V68.4906H46.448V68.8496H46.9481V69.0438H46.448V69.5788H46.2355Z" fill="#E9E9E9"/>
<rect x="53.1182" y="65.6562" width="1.60901" height="5.88405" fill="#327CAB"/>
<rect x="40.0469" y="33.6895" width="18.9052" height="5.59903" fill="#E4F0FA"/>
<rect x="43.5361" y="44.6914" width="3.40668" height="3.40668" fill="#E4F0FA"/>
<rect x="43.5361" y="48.9502" width="3.40668" height="3.40668" fill="#E4F0FA"/>
<rect x="43.5361" y="53.208" width="3.40668" height="3.40668" fill="#E4F0FA"/>
<rect x="43.5361" y="57.4668" width="3.40668" height="3.40668" fill="#E4F0FA"/>
<rect x="47.7939" y="44.6914" width="3.40668" height="3.40668" fill="#E4F0FA"/>
<rect x="47.7939" y="48.9502" width="3.40668" height="3.40668" fill="#E4F0FA"/>
<rect x="47.7939" y="53.208" width="3.40668" height="3.40668" fill="#E4F0FA"/>
<rect x="47.7939" y="57.4668" width="3.40668" height="3.40668" fill="#E4F0FA"/>
<rect x="52.0537" y="44.6914" width="3.40668" height="3.40668" fill="#E4F0FA"/>
<rect x="52.0537" y="48.9502" width="3.40668" height="3.40668" fill="#E4F0FA"/>
<rect x="52.0537" y="53.208" width="3.40668" height="3.40668" fill="#E4F0FA"/>
<rect x="52.0537" y="57.4668" width="3.40668" height="3.40668" fill="#F5E66C"/>
</g>
<defs>
<linearGradient id="paint0_linear_2003_11486" x1="47.9154" y1="66.9695" x2="47.9154" y2="81.441" gradientUnits="userSpaceOnUse">
<stop stop-color="#18D4CF"/>
<stop offset="0.8003" stop-color="#18D4CF" stop-opacity="0"/>
</linearGradient>
<linearGradient id="paint1_linear_2003_11486" x1="48.048" y1="-0.399244" x2="48.048" y2="75.9354" gradientUnits="userSpaceOnUse">
<stop stop-color="#18D4CF"/>
<stop offset="0.8003" stop-color="#18D4CF" stop-opacity="0"/>
</linearGradient>
<linearGradient id="paint2_linear_2003_11486" x1="35.8902" y1="74.6374" x2="81.9814" y2="9.93844" gradientUnits="userSpaceOnUse">
<stop offset="0.431662" stop-color="#36AEB4"/>
<stop offset="1" stop-color="#0095BE"/>
</linearGradient>
<clipPath id="clip0_2003_11486">
<rect width="96" height="96" fill="white"/>
</clipPath>
</defs>
</svg>
