<svg width="40" height="40" viewBox="0 0 40 40" fill="none" xmlns="http://www.w3.org/2000/svg">
<g clip-path="url(#clip0_2340_28548)">
<path d="M29.0213 19.902C29.0221 22.3563 28.0734 24.7158 26.3738 26.4865C24.6743 28.2571 22.3557 29.3017 19.9034 29.4015C17.4539 29.2968 15.1394 28.2501 13.4432 26.4798C11.7469 24.7095 10.8 22.3525 10.8 19.9008C10.8 17.449 11.7469 15.092 13.4432 13.3217C15.1394 11.5514 17.4539 10.5047 19.9034 10.4C22.3561 10.4999 24.6751 11.5448 26.3747 13.316C28.0743 15.0872 29.0227 17.4473 29.0213 19.902Z" fill="#F6FFFF"/>
<path d="M31.219 25.5451L30.4757 25.104C31.3509 23.3958 31.7724 21.4913 31.6997 19.5733C31.627 17.6553 31.0625 15.7881 30.0605 14.151C29.0585 12.5139 27.6526 11.1619 25.9777 10.2245C24.3027 9.28719 22.415 8.79606 20.4956 8.79829C20.3296 8.79829 20.166 8.79829 20 8.81068C19.834 8.82306 19.6705 8.79829 19.5045 8.79829C16.5336 8.79829 13.6844 9.97846 11.5837 12.0792C9.48297 14.1799 8.3028 17.0291 8.3028 20C8.3028 22.9708 9.48297 25.82 11.5837 27.9208C13.6844 30.0215 16.5336 31.2017 19.5045 31.2017H20.4956C20.7584 31.2017 21.0105 31.0972 21.1964 30.9114C21.3822 30.7255 21.4866 30.4734 21.4866 30.2106C21.4866 29.9477 21.3822 29.6956 21.1964 29.5098C21.0105 29.3239 20.7584 29.2195 20.4956 29.2195C18.098 29.2124 15.7975 28.2717 14.082 26.5968C12.3665 24.9219 11.3709 22.6446 11.3065 20.2479C11.242 17.8512 12.1137 15.5237 13.7367 13.759C15.3597 11.9943 17.6063 10.9312 20 10.7953C21.4848 10.8742 22.9285 11.3113 24.2076 12.0693C25.4868 12.8273 26.5635 13.8837 27.3457 15.1482C28.1279 16.4127 28.5924 17.8477 28.6996 19.3307C28.8067 20.8138 28.5532 22.3007 27.9609 23.6645C27.8776 23.6271 27.7869 23.6093 27.6958 23.6125C27.5273 23.6125 26.8459 23.6125 26.7542 23.6125C26.6664 23.609 26.579 23.625 26.498 23.6591C26.417 23.6932 26.3445 23.7447 26.2857 23.81C26.2268 23.8752 26.183 23.9526 26.1574 24.0366C26.1317 24.1207 26.1249 24.2093 26.1373 24.2963L26.561 27.2695C26.5795 27.3984 26.6392 27.5177 26.7312 27.6097C26.8232 27.7017 26.9426 27.7615 27.0714 27.78C27.1705 27.7923 28.1343 27.78 28.1343 27.78C28.2186 27.7792 28.3023 27.765 28.3821 27.7378L31.1645 26.6204C31.2676 26.5762 31.3562 26.5039 31.4202 26.4119C31.4843 26.3199 31.5213 26.2117 31.527 26.0997C31.5326 25.9877 31.5068 25.8764 31.4524 25.7783C31.3979 25.6803 31.3171 25.5995 31.219 25.5451Z" fill="#0A6267"/>
<path d="M22.0391 26.0035H18.8355C18.6972 26.0035 18.5852 26.1155 18.5852 26.2537V26.2562C18.5852 26.3944 18.6972 26.5065 18.8355 26.5065H22.0391C22.1773 26.5065 22.2894 26.3944 22.2894 26.2562V26.2537C22.2894 26.1155 22.1773 26.0035 22.0391 26.0035Z" fill="#AEDFFF"/>
<path d="M24.5912 20.1239L21.0604 26.0877C21.0528 26.1019 21.0436 26.1151 21.0332 26.1273L21.0034 26.162C20.969 26.1969 20.9268 26.2231 20.8803 26.2386C20.8338 26.2541 20.7843 26.2584 20.7358 26.2512C20.7061 26.2512 19.8662 26.2512 19.8364 26.2512C19.7836 26.2593 19.7296 26.2548 19.6789 26.2381C19.6281 26.2213 19.582 26.1929 19.5443 26.1549C19.5067 26.117 19.4785 26.0708 19.4621 26.0199C19.4457 25.969 19.4415 25.915 19.4499 25.8622L19.8216 23.3275L20.882 22.832L21.001 22.0515C21.0099 21.9894 21.0053 21.9261 20.9874 21.8659C20.9695 21.8058 20.9388 21.7502 20.8973 21.7031C20.8559 21.656 20.8047 21.6184 20.7473 21.593C20.6899 21.5676 20.6276 21.555 20.5649 21.556H16.769C16.7073 21.5552 16.6463 21.5412 16.5903 21.5151C16.5344 21.4889 16.4846 21.4511 16.4443 21.4043C16.404 21.3574 16.3741 21.3025 16.3566 21.2433C16.3391 21.184 16.3345 21.1217 16.3429 21.0604L17.6561 14.8513C17.6936 14.6692 17.7926 14.5055 17.9365 14.3878C18.0805 14.27 18.2605 14.2054 18.4465 14.2047H22.4108C22.5038 14.2055 22.5953 14.2279 22.6781 14.2701C22.761 14.3123 22.833 14.3731 22.8884 14.4477C22.9439 14.5223 22.9813 14.6088 22.9977 14.7003C23.0141 14.7919 23.0091 14.8859 22.9831 14.9752L21.8607 18.8949C21.8416 18.961 21.838 19.0305 21.8503 19.0982C21.8625 19.1659 21.8902 19.2298 21.9312 19.2849C21.9723 19.3401 22.0255 19.3851 22.0868 19.4163C22.148 19.4475 22.2157 19.4641 22.2844 19.4648H24.222C24.2985 19.4658 24.3735 19.4869 24.4393 19.526C24.5051 19.5652 24.5595 19.6209 24.5969 19.6877C24.6343 19.7545 24.6535 19.83 24.6525 19.9066C24.6515 19.9831 24.6303 20.0581 24.5912 20.1239Z" fill="#FFAE10"/>
<path d="M24.5912 20.1239L21.0605 26.0877C21.0528 26.1019 21.0437 26.1151 21.0332 26.1273L21.0035 26.162C20.969 26.1969 20.9268 26.2231 20.8803 26.2386C20.8338 26.2541 20.7844 26.2584 20.7359 26.2512C20.6903 26.2464 20.6462 26.2324 20.6062 26.2099C20.5663 26.1875 20.5313 26.1572 20.5035 26.1207C20.4756 26.0843 20.4555 26.0426 20.4444 25.9982C20.4332 25.9537 20.4312 25.9075 20.4386 25.8622L20.8771 22.8394L21.001 22.0515C21.01 21.9894 21.0054 21.9261 20.9875 21.8659C20.9696 21.8058 20.9388 21.7502 20.8974 21.7031C20.8559 21.656 20.8047 21.6184 20.7473 21.593C20.6899 21.5676 20.6277 21.555 20.5649 21.556H17.7577C17.6959 21.5552 17.635 21.5412 17.579 21.5151C17.523 21.4889 17.4732 21.4511 17.4329 21.4043C17.3926 21.3574 17.3627 21.3025 17.3453 21.2433C17.3278 21.184 17.3231 21.1217 17.3315 21.0604L18.6422 14.8513C18.6807 14.6692 18.7803 14.5058 18.9246 14.3881C19.0688 14.2705 19.249 14.2057 19.4351 14.2047H22.4083C22.5013 14.2055 22.5928 14.2279 22.6757 14.2701C22.7586 14.3123 22.8306 14.3731 22.886 14.4477C22.9415 14.5223 22.9789 14.6088 22.9953 14.7003C23.0117 14.7919 23.0067 14.8859 22.9807 14.9752L21.8608 18.8949C21.8417 18.961 21.8381 19.0306 21.8503 19.0982C21.8626 19.1659 21.8903 19.2298 21.9313 19.2849C21.9723 19.3401 22.0255 19.3851 22.0868 19.4163C22.1481 19.4475 22.2157 19.4641 22.2845 19.4648H24.222C24.2986 19.4658 24.3735 19.4869 24.4393 19.526C24.5052 19.5652 24.5595 19.6209 24.5969 19.6877C24.6343 19.7545 24.6535 19.83 24.6525 19.9066C24.6515 19.9831 24.6304 20.0581 24.5912 20.1239Z" fill="#F5E66C"/>
<path d="M23.9371 20.5401C23.8996 20.5396 23.8629 20.5293 23.8305 20.5104C23.7837 20.4817 23.7501 20.4356 23.7371 20.3822C23.7241 20.3289 23.7328 20.2725 23.7611 20.2255L23.8107 20.1412H22.2795C21.9805 20.1431 21.6925 20.0285 21.4767 19.8216C21.4373 19.7835 21.4146 19.7313 21.4137 19.6765C21.4127 19.6216 21.4336 19.5687 21.4717 19.5292C21.5099 19.4898 21.5621 19.4671 21.6169 19.4662C21.6717 19.4653 21.7247 19.4862 21.7641 19.5243C21.9025 19.6577 22.0872 19.7323 22.2795 19.7324H24.1774C24.214 19.7323 24.25 19.7419 24.2818 19.7601C24.3136 19.7784 24.3399 19.8047 24.3583 19.8365C24.3761 19.8683 24.3854 19.9041 24.3854 19.9405C24.3854 19.977 24.3761 20.0128 24.3583 20.0446L24.1105 20.4435C24.0919 20.4728 24.0663 20.497 24.036 20.5138C24.0057 20.5307 23.9717 20.5398 23.9371 20.5401Z" fill="#F5E66C"/>
<path d="M22.5743 15.0793C22.5538 15.0827 22.5329 15.0827 22.5124 15.0793C22.4691 15.0657 22.4315 15.0381 22.4056 15.0009C22.3796 14.9637 22.3666 14.919 22.3687 14.8736H19.284C19.2292 14.873 19.1769 14.8508 19.1384 14.8118C19.0999 14.7728 19.0783 14.7203 19.0783 14.6655C19.0783 14.611 19.1 14.5587 19.1385 14.5201C19.1771 14.4815 19.2294 14.4599 19.284 14.4599H22.4158C22.4745 14.4594 22.5325 14.4728 22.5851 14.4991C22.6376 14.5253 22.6832 14.5637 22.7181 14.611C22.7523 14.6583 22.775 14.713 22.7844 14.7706C22.7939 14.8282 22.7898 14.8872 22.7726 14.943C22.758 14.9836 22.731 15.0187 22.6955 15.0431C22.6599 15.0676 22.6175 15.0802 22.5743 15.0793Z" fill="#F5E66C"/>
<path d="M21.001 22.0515L20.8846 22.8493L19.8241 23.3449L20.0124 22.0515C20.0213 21.9902 20.0169 21.9277 19.9996 21.8683C19.9822 21.8088 19.9524 21.7538 19.912 21.7068C19.8716 21.6599 19.8217 21.6221 19.7655 21.5961C19.7093 21.5701 19.6482 21.5564 19.5862 21.556H20.5773C20.639 21.5567 20.6999 21.5707 20.7558 21.5969C20.8117 21.623 20.8613 21.6608 20.9014 21.7078C20.9415 21.7547 20.9712 21.8096 20.9883 21.8689C21.0055 21.9282 21.0098 21.9904 21.001 22.0515Z" fill="#E4800C"/>
<path d="M31.219 25.5451L30.4757 25.104C31.5883 22.9305 31.9602 20.453 31.5348 18.0486C31.1095 15.6443 29.9102 13.4447 28.1194 11.7848C26.3287 10.1249 24.0447 9.09556 21.615 8.85348C19.1853 8.6114 16.7431 9.16984 14.66 10.4438C12.577 11.7177 10.9673 13.6374 10.0759 15.9106C9.18448 18.1838 9.06025 20.686 9.72209 23.0363C10.3839 25.3866 11.7956 27.4563 13.7422 28.9303C15.6888 30.4043 18.0637 31.2019 20.5054 31.2017C20.7683 31.2017 21.0204 31.0972 21.2062 30.9114C21.3921 30.7255 21.4965 30.4734 21.4965 30.2106C21.4965 29.9477 21.3921 29.6956 21.2062 29.5098C21.0204 29.3239 20.7683 29.2195 20.5054 29.2195C18.4981 29.2238 16.5442 28.5732 14.9401 27.3664C13.336 26.1596 12.1694 24.4625 11.6172 22.5326C11.065 20.6027 11.1574 18.5454 11.8803 16.6728C12.6033 14.8002 13.9173 13.2145 15.6231 12.1563C17.3289 11.0982 19.3333 10.6253 21.3321 10.8095C23.331 10.9937 25.2152 11.8248 26.6989 13.1769C28.1826 14.5289 29.1848 16.328 29.5534 18.3012C29.922 20.2744 29.6369 22.314 28.7413 24.1105L28.0153 23.6918C27.9179 23.6359 27.8068 23.6085 27.6946 23.6127C27.5823 23.6169 27.4735 23.6525 27.3806 23.7155C27.2876 23.7785 27.2142 23.8664 27.1687 23.9691C27.1233 24.0717 27.1075 24.1851 27.1234 24.2963L27.5471 27.2696C27.5601 27.3595 27.5934 27.4453 27.6443 27.5206C27.6953 27.5959 27.7626 27.6586 27.8413 27.7041C27.92 27.7497 28.0079 27.7768 28.0986 27.7835C28.1892 27.7902 28.2802 27.7763 28.3647 27.7428L31.1472 26.6253C31.2525 26.5835 31.3437 26.5127 31.4105 26.4211C31.4772 26.3296 31.5166 26.2209 31.5241 26.1079C31.5316 25.9948 31.5069 25.882 31.4529 25.7824C31.3989 25.6827 31.3178 25.6005 31.219 25.5451Z" fill="#36AEB4"/>
</g>
<defs>
<clipPath id="clip0_2340_28548">
<rect width="40" height="40" fill="white"/>
</clipPath>
</defs>
</svg>
