<svg width="40" height="40" viewBox="0 0 40 40" fill="none" xmlns="http://www.w3.org/2000/svg">
<path d="M29.1211 4.76385C28.8456 4.52901 28.5223 4.35685 28.1737 4.25929C27.8251 4.16174 27.4594 4.14111 27.102 4.19885L6.35375 7.54541C5.27692 7.71525 4.29642 8.26484 3.58959 9.09478C2.88275 9.92471 2.49626 10.9802 2.5 12.0703V14.1667C2.5 14.3877 2.5878 14.5996 2.74408 14.7559C2.90037 14.9122 3.11234 15 3.33336 15H29.1666C29.3877 15 29.5996 14.9122 29.7559 14.7559C29.9122 14.5996 30 14.3877 30 14.1667V6.66713C30.0003 6.30512 29.9218 5.94739 29.7701 5.61873C29.6183 5.29007 29.3969 4.99837 29.1211 4.76385Z" fill="#2A6B74"/>
<path d="M31.6666 10.8334H5C4.33718 10.8341 3.70172 11.0977 3.23303 11.5664C2.76435 12.0351 2.50072 12.6706 2.5 13.3334V31.6667C2.50126 32.7713 2.94065 33.8304 3.72177 34.6115C4.5029 35.3926 5.56197 35.832 6.66664 35.8333H31.6666C32.7713 35.832 33.8304 35.3926 34.6115 34.6115C35.3926 33.8304 35.832 32.7713 35.8333 31.6667V15C35.832 13.8953 35.3926 12.8363 34.6115 12.0551C33.8304 11.274 32.7713 10.8346 31.6666 10.8334Z" fill="#1AB6BE"/>
<path d="M31.6666 33.3333H6.66664C5.56195 33.3321 4.50287 32.8927 3.72175 32.1115C2.94062 31.3304 2.50124 30.2713 2.5 29.1666V31.6666C2.50126 32.7713 2.94065 33.8304 3.72177 34.6115C4.5029 35.3926 5.56197 35.832 6.66664 35.8333H31.6666C32.7713 35.832 33.8304 35.3926 34.6115 34.6115C35.3926 33.8304 35.832 32.7713 35.8333 31.6666V29.1666C35.832 30.2713 35.3927 31.3304 34.6115 32.1115C33.8304 32.8927 32.7713 33.3321 31.6666 33.3333Z" fill="#2A6B74"/>
<path d="M25 19.1666C23.8949 19.1666 22.8351 19.6056 22.0537 20.387C21.2723 21.1684 20.8333 22.2282 20.8333 23.3333C20.8333 24.4384 21.2723 25.4982 22.0537 26.2796C22.8351 27.061 23.8949 27.5 25 27.5H35.8334V19.1666H25Z" fill="#2A6B74"/>
<path d="M35.8334 17.5H25C23.8949 17.5 22.8351 17.939 22.0537 18.7204C21.2723 19.5018 20.8333 20.5616 20.8333 21.6667C20.8333 22.7718 21.2723 23.8316 22.0537 24.613C22.8351 25.3944 23.8949 25.8334 25 25.8334H35.8334C36.2752 25.8329 36.6989 25.6571 37.0113 25.3447C37.3238 25.0322 37.4995 24.6085 37.5 24.1666V19.1666C37.4995 18.7248 37.3238 18.3011 37.0113 17.9887C36.6989 17.6762 36.2752 17.5005 35.8334 17.5Z" fill="#F3AF00"/>
<path d="M25 23.3333C25.9205 23.3333 26.6666 22.5871 26.6666 21.6666C26.6666 20.7462 25.9205 20 25 20C24.0795 20 23.3334 20.7462 23.3334 21.6666C23.3334 22.5871 24.0795 23.3333 25 23.3333Z" fill="#EAEFF0"/>
</svg>
