<svg width="40" height="40" viewBox="0 0 40 40" fill="none" xmlns="http://www.w3.org/2000/svg">
<g clip-path="url(#clip0_2076_4750)">
<g filter="url(#filter0_d_2076_4750)">
<mask id="path-1-outside-1_2076_4750" maskUnits="userSpaceOnUse" x="5.17969" y="0.000976562" width="30" height="40" fill="black">
<rect fill="white" x="5.17969" y="0.000976562" width="30" height="40"/>
<path d="M20.1455 2.00123C20.6714 1.99387 21.1863 2.14763 21.623 2.43873L32.0225 9.37135C32.7456 9.85348 33.1796 10.6663 33.1797 11.5335V25.4006C33.1797 26.4116 32.5874 27.2928 31.7354 27.7219L21.3428 36.8313C20.582 37.4981 19.4428 37.4918 18.6895 36.8167L8.42188 27.6165V27.6087C7.68033 27.1483 7.17971 26.3293 7.17969 25.4006V11.5335C7.17976 10.6662 7.61462 9.85346 8.33789 9.37135L18.7373 2.43873C19.1561 2.15968 19.6457 2.00778 20.1455 2.00123Z"/>
</mask>
<path d="M20.1455 2.00123C20.6714 1.99387 21.1863 2.14763 21.623 2.43873L32.0225 9.37135C32.7456 9.85348 33.1796 10.6663 33.1797 11.5335V25.4006C33.1797 26.4116 32.5874 27.2928 31.7354 27.7219L21.3428 36.8313C20.582 37.4981 19.4428 37.4918 18.6895 36.8167L8.42188 27.6165V27.6087C7.68033 27.1483 7.17971 26.3293 7.17969 25.4006V11.5335C7.17976 10.6662 7.61462 9.85346 8.33789 9.37135L18.7373 2.43873C19.1561 2.15968 19.6457 2.00778 20.1455 2.00123Z" fill="#F93A3D"/>
<path d="M20.1455 2.00123L20.1717 4.00106L20.1735 4.00103L20.1455 2.00123ZM21.623 2.43873L22.7324 0.774604L22.7324 0.774567L21.623 2.43873ZM32.0225 9.37135L33.132 7.70731L33.1318 7.70722L32.0225 9.37135ZM33.1797 11.5335H35.1797V11.5333L33.1797 11.5335ZM33.1797 25.4006L35.1797 25.4007V25.4006H33.1797ZM31.7354 27.7219L30.8356 25.9357L30.6084 26.0502L30.417 26.2179L31.7354 27.7219ZM21.3428 36.8313L22.661 38.3354L22.6611 38.3353L21.3428 36.8313ZM18.6895 36.8167L20.0242 35.3272L20.0241 35.3271L18.6895 36.8167ZM8.42188 27.6165H6.42188V28.5098L7.0872 29.106L8.42188 27.6165ZM8.42188 27.6087H10.4219V26.4962L9.47678 25.9095L8.42188 27.6087ZM7.17969 25.4006H5.17969V25.4007L7.17969 25.4006ZM7.17969 11.5335L5.17969 11.5333V11.5335H7.17969ZM8.33789 9.37135L9.44717 11.0355L9.44725 11.0355L8.33789 9.37135ZM18.7373 2.43873L17.6283 0.774334L17.6279 0.774604L18.7373 2.43873ZM20.1455 2.00123L20.1735 4.00103C20.2909 3.99939 20.41 4.03375 20.5137 4.10289L21.623 2.43873L22.7324 0.774567C21.9627 0.261519 21.0519 -0.0116539 20.1175 0.00142491L20.1455 2.00123ZM21.623 2.43873L20.5137 4.10285L30.9131 11.0355L32.0225 9.37135L33.1318 7.70722L22.7324 0.774604L21.623 2.43873ZM32.0225 9.37135L30.913 11.0354C31.0792 11.1462 31.1797 11.3344 31.1797 11.5336L33.1797 11.5335L35.1797 11.5333C35.1796 9.99823 34.4119 8.56074 33.132 7.70731L32.0225 9.37135ZM33.1797 11.5335H31.1797V25.4006H33.1797H35.1797V11.5335H33.1797ZM33.1797 25.4006L31.1797 25.4006C31.1797 25.6118 31.0536 25.8259 30.8356 25.9357L31.7354 27.7219L32.6351 29.5081C34.1212 28.7596 35.1796 27.2115 35.1797 25.4007L33.1797 25.4006ZM31.7354 27.7219L30.417 26.2179L20.0245 35.3273L21.3428 36.8313L22.6611 38.3353L33.0537 29.2259L31.7354 27.7219ZM21.3428 36.8313L20.0245 35.3272L20.0242 35.3272L18.6895 36.8167L17.3547 38.3061C18.8614 39.6563 21.1395 39.669 22.661 38.3354L21.3428 36.8313ZM18.6895 36.8167L20.0241 35.3271L9.75655 26.1269L8.42188 27.6165L7.0872 29.106L17.3548 38.3062L18.6895 36.8167ZM8.42188 27.6165H10.4219V27.6087H8.42188H6.42188V27.6165H8.42188ZM8.42188 27.6087L9.47678 25.9095C9.28403 25.7898 9.17969 25.593 9.17969 25.4006L7.17969 25.4006L5.17969 25.4007C5.17973 27.0656 6.07664 28.5067 7.36697 29.3078L8.42188 27.6087ZM7.17969 25.4006H9.17969V11.5335H7.17969H5.17969V25.4006H7.17969ZM7.17969 11.5335L9.17969 11.5336C9.1797 11.3356 9.27986 11.147 9.44717 11.0355L8.33789 9.37135L7.22861 7.70717C5.94937 8.55986 5.17981 9.99677 5.17969 11.5333L7.17969 11.5335ZM8.33789 9.37135L9.44725 11.0355L19.8467 4.10285L18.7373 2.43873L17.6279 0.774604L7.22853 7.70722L8.33789 9.37135ZM18.7373 2.43873L19.8463 4.10312C19.9457 4.03686 20.0596 4.00253 20.1717 4.00106L20.1455 2.00123L20.1193 0.00140083C19.2317 0.0130332 18.3665 0.282506 17.6283 0.774334L18.7373 2.43873Z" fill="white" mask="url(#path-1-outside-1_2076_4750)"/>
</g>
<path d="M24.6042 18.9779L20.276 26.3876C20.2657 26.4054 20.2543 26.4225 20.2421 26.439L20.2031 26.4819C20.1607 26.5247 20.1091 26.5569 20.0523 26.5759C19.9955 26.595 19.9351 26.6004 19.8759 26.5917C19.82 26.5859 19.766 26.5686 19.717 26.5408C19.668 26.513 19.6252 26.4754 19.5912 26.4302C19.5572 26.385 19.5327 26.3333 19.5193 26.2782C19.5058 26.223 19.5037 26.1657 19.5131 26.1097L20.0488 22.3534L20.1912 21.3586C20.2026 21.2823 20.1977 21.2044 20.1768 21.1302C20.1558 21.0559 20.1194 20.9871 20.0698 20.9284C20.0203 20.8697 19.9589 20.8224 19.8898 20.7898C19.8206 20.7572 19.7453 20.74 19.669 20.7394H16.2105C16.1335 20.7387 16.0574 20.7211 15.9877 20.6879C15.9179 20.6547 15.856 20.6067 15.8063 20.5471C15.7566 20.4875 15.7201 20.4177 15.6995 20.3426C15.6789 20.2674 15.6745 20.1887 15.6867 20.1117L17.2973 12.3933C17.3452 12.1693 17.467 11.9684 17.6425 11.8235C17.8181 11.6786 18.0371 11.5983 18.2636 11.5957H21.9205C22.0347 11.5969 22.1472 11.6249 22.2491 11.6774C22.3509 11.7299 22.4393 11.8056 22.5075 11.8984C22.5756 11.9913 22.6216 12.0988 22.6418 12.2126C22.662 12.3264 22.6559 12.4435 22.624 12.5545L21.2491 17.4514C21.2255 17.5334 21.221 17.6198 21.236 17.7038C21.251 17.7879 21.2851 17.8673 21.3355 17.9358C21.3859 18.0042 21.4514 18.06 21.5267 18.0985C21.602 18.1371 21.6852 18.1575 21.7696 18.158H24.143C24.2378 18.1578 24.331 18.1831 24.413 18.2312C24.495 18.2793 24.5629 18.3486 24.6098 18.432C24.6567 18.5153 24.6809 18.6098 24.6799 18.7057C24.6789 18.8016 24.6528 18.8956 24.6042 18.9779Z" fill="white"/>
</g>
<defs>
<filter id="filter0_d_2076_4750" x="4.17969" y="0.000976562" width="32" height="41.3262" filterUnits="userSpaceOnUse" color-interpolation-filters="sRGB">
<feFlood flood-opacity="0" result="BackgroundImageFix"/>
<feColorMatrix in="SourceAlpha" type="matrix" values="0 0 0 0 0 0 0 0 0 0 0 0 0 0 0 0 0 0 127 0" result="hardAlpha"/>
<feOffset dy="1"/>
<feGaussianBlur stdDeviation="0.5"/>
<feComposite in2="hardAlpha" operator="out"/>
<feColorMatrix type="matrix" values="0 0 0 0 0 0 0 0 0 0 0 0 0 0 0 0 0 0 0.25 0"/>
<feBlend mode="normal" in2="BackgroundImageFix" result="effect1_dropShadow_2076_4750"/>
<feBlend mode="normal" in="SourceGraphic" in2="effect1_dropShadow_2076_4750" result="shape"/>
</filter>
<clipPath id="clip0_2076_4750">
<rect width="40" height="40" fill="white"/>
</clipPath>
</defs>
</svg>
