<svg width="124" height="124" viewBox="0 0 124 124" fill="none" xmlns="http://www.w3.org/2000/svg">
<g clip-path="url(#clip0_4503_67092)">
<path d="M105.737 18.0197C94.1311 6.40631 78.6993 0.00708562 62.2578 0C28.3776 0 0.805967 27.5629 0.792403 61.4416C0.788455 72.271 3.61805 82.8422 8.99634 92.1604L0.276367 124L32.8599 115.456C41.8373 120.352 51.9452 122.932 62.2314 122.936H62.2575H62.2578C96.1326 122.936 123.708 95.3684 123.723 61.4914C123.728 45.0721 117.34 29.634 105.737 18.0197ZM62.2578 112.558H62.2379C53.0693 112.554 44.0783 110.092 36.2359 105.439L34.3695 104.332L15.0338 109.402L20.1962 90.5564L18.9802 88.6243C13.8659 80.4925 11.166 71.095 11.1698 61.4455C11.181 33.2866 34.0976 10.3781 62.2772 10.3781C75.9233 10.3838 88.749 15.7029 98.395 25.3556C108.04 35.0082 113.349 47.8401 113.344 61.487C113.333 89.6468 90.4152 112.558 62.2578 112.558Z" fill="#E0E0E0"/>
<path d="M3.09814 120.467L11.4198 90.0817C6.28586 81.1891 3.58604 71.1001 3.58928 60.7673C3.60274 28.4368 29.9152 2.13379 62.245 2.13379C77.9362 2.14087 92.6633 8.24747 103.736 19.3307C114.811 30.4138 120.907 45.1457 120.901 60.8132C120.887 93.1444 94.573 119.45 62.2473 119.45C62.2489 119.45 62.245 119.45 62.2473 119.45H62.2212C52.4049 119.447 42.7594 116.983 34.1927 112.314L3.09814 120.467Z" fill="url(#paint0_linear_4503_67092)"/>
<path fill-rule="evenodd" clip-rule="evenodd" d="M47.0688 35.357C45.9317 32.8287 44.7344 32.7781 43.6525 32.7339C42.7677 32.6959 41.7546 32.6983 40.7432 32.6983C39.731 32.6983 38.0861 33.0787 36.6951 34.5978C35.3033 36.117 31.3809 39.7895 31.3809 47.2586C31.3809 54.7286 36.8216 61.9463 37.58 62.9601C38.3391 63.9723 48.0827 79.79 63.5136 85.8753C76.3381 90.9325 78.9479 89.9265 81.7315 89.6735C84.5151 89.4204 90.7134 86.0018 91.9787 82.4565C93.244 78.9121 93.244 75.8739 92.8644 75.2388C92.4848 74.6062 91.4726 74.2266 89.9543 73.4674C88.4359 72.7082 80.9723 69.035 79.5805 68.5288C78.1887 68.0227 77.1764 67.7697 76.1642 69.2896C75.152 70.808 72.2441 74.2266 71.3584 75.2388C70.4727 76.2534 69.587 76.3799 68.0687 75.6207C66.5503 74.8592 61.6608 73.2578 55.8603 68.0859C51.3471 64.0623 48.3001 59.0928 47.4144 57.5729C46.5287 56.0546 47.3195 55.2322 48.0811 54.4753C48.7627 53.7952 49.5994 52.7031 50.3586 51.8166C51.1161 50.9301 51.3692 50.2974 51.8753 49.2852C52.3814 48.2714 52.1284 47.3849 51.7488 46.6258C51.3692 45.8666 48.4187 38.3589 47.0688 35.357Z" fill="white"/>
<path d="M105.234 17.8247C93.7622 6.34454 78.5075 0.0189056 62.2549 0.0117188C28.7635 0.0117188 1.50839 27.2582 1.49493 60.748C1.49098 71.4532 4.28808 81.9029 9.60462 91.1142L0.984863 122.588L33.1944 114.142C42.0688 118.982 52.0607 121.532 62.2288 121.536H62.2546H62.2549C95.7408 121.536 123 94.2852 123.014 60.7969C123.02 44.5665 116.705 29.3056 105.234 17.8247ZM62.2549 111.278H62.2352C53.1718 111.273 44.2839 108.84 36.5316 104.24L34.6866 103.146L15.5728 108.158L20.6759 89.5286L19.4739 87.6189C14.4183 79.5803 11.7493 70.2907 11.7533 60.752C11.7643 32.9164 34.4178 10.2709 62.274 10.2709C75.7636 10.2765 88.4418 15.5345 97.9773 25.0764C107.512 34.6183 112.759 47.3028 112.755 60.7932C112.743 88.6295 90.0889 111.278 62.2549 111.278Z" fill="white"/>
</g>
<defs>
<linearGradient id="paint0_linear_4503_67092" x1="61.9994" y1="120.467" x2="61.9994" y2="2.13399" gradientUnits="userSpaceOnUse">
<stop stop-color="#20B038"/>
<stop offset="1" stop-color="#60D66A"/>
</linearGradient>
<clipPath id="clip0_4503_67092">
<rect width="124" height="124" fill="white"/>
</clipPath>
</defs>
</svg>
