<svg width="40" height="40" viewBox="0 0 40 40" fill="none" xmlns="http://www.w3.org/2000/svg">
<g clip-path="url(#clip0_2001_33122)">
<g filter="url(#filter0_d_2001_33122)">
<mask id="path-1-outside-1_2001_33122" maskUnits="userSpaceOnUse" x="5.17969" y="0.000976562" width="30" height="40" fill="black">
<rect fill="white" x="5.17969" y="0.000976562" width="30" height="40"/>
<path fill-rule="evenodd" clip-rule="evenodd" d="M20.1455 2.00123C20.6714 1.99387 21.1863 2.14763 21.623 2.43873L32.0225 9.37135C32.7456 9.85353 33.1797 10.6663 33.1797 11.5335V25.3997C33.1798 26.4118 32.5869 27.2951 31.7334 27.7239L21.3428 36.8313C20.582 37.4981 19.4428 37.4918 18.6895 36.8167L8.42188 27.6155V27.6087C7.68015 27.1482 7.17955 26.3286 7.17969 25.3997V11.5335C7.17969 10.6661 7.6146 9.8535 8.33789 9.37135L18.7373 2.43873C19.1561 2.15968 19.6457 2.00778 20.1455 2.00123Z"/>
</mask>
<path fill-rule="evenodd" clip-rule="evenodd" d="M20.1455 2.00123C20.6714 1.99387 21.1863 2.14763 21.623 2.43873L32.0225 9.37135C32.7456 9.85353 33.1797 10.6663 33.1797 11.5335V25.3997C33.1798 26.4118 32.5869 27.2951 31.7334 27.7239L21.3428 36.8313C20.582 37.4981 19.4428 37.4918 18.6895 36.8167L8.42188 27.6155V27.6087C7.68015 27.1482 7.17955 26.3286 7.17969 25.3997V11.5335C7.17969 10.6661 7.6146 9.8535 8.33789 9.37135L18.7373 2.43873C19.1561 2.15968 19.6457 2.00778 20.1455 2.00123Z" fill="#2C90CB"/>
<path d="M20.1455 2.00123L20.1717 4.00106L20.1735 4.00103L20.1455 2.00123ZM21.623 2.43873L22.7324 0.774604L22.7324 0.774567L21.623 2.43873ZM32.0225 9.37135L33.132 7.70737L33.1318 7.70722L32.0225 9.37135ZM33.1797 25.3997H31.1797V25.4L33.1797 25.3997ZM31.7334 27.7239L30.8356 25.9367L30.6073 26.0514L30.4151 26.2199L31.7334 27.7239ZM21.3428 36.8313L22.661 38.3354L22.6611 38.3353L21.3428 36.8313ZM18.6895 36.8167L17.3547 38.3061H17.3547L18.6895 36.8167ZM8.42188 27.6155H6.42188V28.5088L7.08713 29.1049L8.42188 27.6155ZM8.42188 27.6087H10.4219V26.4962L9.4767 25.9094L8.42188 27.6087ZM7.17969 25.3997L9.17969 25.4V25.3997H7.17969ZM8.33789 9.37135L9.44722 11.0355L9.44725 11.0355L8.33789 9.37135ZM18.7373 2.43873L17.6283 0.774334L17.6279 0.774604L18.7373 2.43873ZM20.1455 2.00123L20.1735 4.00103C20.2909 3.99939 20.41 4.03374 20.5137 4.10289L21.623 2.43873L22.7324 0.774567C21.9627 0.26152 21.0519 -0.0116551 20.1175 0.00142503L20.1455 2.00123ZM21.623 2.43873L20.5137 4.10285L30.9131 11.0355L32.0225 9.37135L33.1318 7.70722L22.7324 0.774604L21.623 2.43873ZM32.0225 9.37135L30.9129 11.0353C31.0793 11.1463 31.1797 11.3345 31.1797 11.5335H33.1797H35.1797C35.1797 9.99804 34.4118 8.56073 33.132 7.70737L32.0225 9.37135ZM33.1797 11.5335H31.1797V25.3997H33.1797H35.1797V11.5335H33.1797ZM33.1797 25.3997L31.1797 25.4C31.1797 25.6132 31.0522 25.8279 30.8356 25.9367L31.7334 27.7239L32.6312 29.511C34.1215 28.7623 35.18 27.2104 35.1797 25.3994L33.1797 25.3997ZM31.7334 27.7239L30.4151 26.2199L20.0245 35.3273L21.3428 36.8313L22.6611 38.3353L33.0517 29.2279L31.7334 27.7239ZM21.3428 36.8313L20.0245 35.3272L20.0242 35.3272L18.6895 36.8167L17.3547 38.3061C18.8614 39.6563 21.1395 39.669 22.661 38.3354L21.3428 36.8313ZM18.6895 36.8167L20.0242 35.3272L9.75662 26.126L8.42188 27.6155L7.08713 29.1049L17.3547 38.3061L18.6895 36.8167ZM8.42188 27.6155H10.4219V27.6087H8.42188H6.42188V27.6155H8.42188ZM8.42188 27.6087L9.4767 25.9094C9.28439 25.7901 9.17966 25.593 9.17969 25.4L7.17969 25.3997L5.17969 25.3994C5.17943 27.0641 6.07591 28.5064 7.36705 29.3079L8.42188 27.6087ZM7.17969 25.3997H9.17969V11.5335H7.17969H5.17969V25.3997H7.17969ZM7.17969 11.5335H9.17969C9.17969 11.3357 9.27971 11.1472 9.44722 11.0355L8.33789 9.37135L7.22856 7.7072C5.94948 8.55984 5.17969 9.99661 5.17969 11.5335H7.17969ZM8.33789 9.37135L9.44725 11.0355L19.8467 4.10285L18.7373 2.43873L17.6279 0.774604L7.22853 7.70722L8.33789 9.37135ZM18.7373 2.43873L19.8463 4.10312C19.9457 4.03686 20.0596 4.00253 20.1717 4.00106L20.1455 2.00123L20.1193 0.00140083C19.2317 0.0130332 18.3665 0.282506 17.6283 0.774334L18.7373 2.43873Z" fill="white" mask="url(#path-1-outside-1_2001_33122)"/>
</g>
<path d="M24.6042 18.9779L20.276 26.3876C20.2657 26.4054 20.2543 26.4225 20.2421 26.439L20.2031 26.4819C20.1607 26.5247 20.1091 26.5569 20.0523 26.5759C19.9955 26.595 19.9351 26.6004 19.8759 26.5917C19.82 26.5859 19.766 26.5686 19.717 26.5408C19.668 26.513 19.6252 26.4754 19.5912 26.4302C19.5572 26.385 19.5327 26.3333 19.5193 26.2782C19.5058 26.223 19.5037 26.1657 19.5131 26.1097L20.0488 22.3534L20.1912 21.3586C20.2026 21.2823 20.1977 21.2044 20.1768 21.1302C20.1558 21.0559 20.1194 20.9871 20.0698 20.9284C20.0203 20.8697 19.9589 20.8224 19.8898 20.7898C19.8206 20.7572 19.7453 20.74 19.669 20.7394H16.2105C16.1335 20.7387 16.0574 20.7211 15.9877 20.6879C15.9179 20.6547 15.856 20.6067 15.8063 20.5471C15.7566 20.4875 15.7201 20.4177 15.6995 20.3426C15.6789 20.2674 15.6745 20.1887 15.6867 20.1117L17.2973 12.3933C17.3452 12.1693 17.467 11.9684 17.6425 11.8235C17.8181 11.6786 18.0371 11.5983 18.2636 11.5957H21.9205C22.0347 11.5969 22.1472 11.6249 22.2491 11.6774C22.3509 11.7299 22.4393 11.8056 22.5075 11.8984C22.5756 11.9913 22.6216 12.0988 22.6418 12.2126C22.662 12.3264 22.6559 12.4435 22.624 12.5545L21.2491 17.4514C21.2255 17.5334 21.221 17.6198 21.236 17.7038C21.251 17.7879 21.2851 17.8673 21.3355 17.9358C21.3859 18.0042 21.4514 18.06 21.5267 18.0985C21.602 18.1371 21.6852 18.1575 21.7696 18.158H24.143C24.2378 18.1578 24.331 18.1831 24.413 18.2312C24.495 18.2793 24.5629 18.3486 24.6098 18.432C24.6567 18.5153 24.6809 18.6098 24.6799 18.7057C24.6789 18.8016 24.6528 18.8956 24.6042 18.9779Z" fill="white"/>
</g>
<defs>
<filter id="filter0_d_2001_33122" x="4.17969" y="0.000976562" width="32" height="41.3262" filterUnits="userSpaceOnUse" color-interpolation-filters="sRGB">
<feFlood flood-opacity="0" result="BackgroundImageFix"/>
<feColorMatrix in="SourceAlpha" type="matrix" values="0 0 0 0 0 0 0 0 0 0 0 0 0 0 0 0 0 0 127 0" result="hardAlpha"/>
<feOffset dy="1"/>
<feGaussianBlur stdDeviation="0.5"/>
<feComposite in2="hardAlpha" operator="out"/>
<feColorMatrix type="matrix" values="0 0 0 0 0 0 0 0 0 0 0 0 0 0 0 0 0 0 0.25 0"/>
<feBlend mode="normal" in2="BackgroundImageFix" result="effect1_dropShadow_2001_33122"/>
<feBlend mode="normal" in="SourceGraphic" in2="effect1_dropShadow_2001_33122" result="shape"/>
</filter>
<clipPath id="clip0_2001_33122">
<rect width="40" height="40" fill="white"/>
</clipPath>
</defs>
</svg>
