<svg width="40" height="40" viewBox="0 0 40 40" fill="none" xmlns="http://www.w3.org/2000/svg">
<path d="M33.1739 8.60525C33.7581 14.5648 31.6466 19.1572 25.7689 20.3C25.7418 20.3028 25.7185 20.2887 25.7157 20.2616C25.6618 19.9758 25.4152 18.6688 25.431 18.7524C25.4233 18.7313 25.4482 18.7069 25.4753 18.7042C30.4522 17.7256 32.0508 13.8534 31.5589 8.76394C31.5583 8.75851 31.5567 8.74224 31.5393 8.73305C31.5204 8.70758 31.4987 8.70978 31.4933 8.71033C27.5185 9.09761 27.5961 9.1429 27.5886 9.06894C27.4621 7.62817 27.3876 7.49648 27.4717 7.48794L31.2587 7.103C32.2827 6.99891 33.0812 7.69298 33.1739 8.60525Z" fill="#FFB800"/>
<path d="M32.2367 8.70047C32.9083 15.4908 29.9622 19.1056 25.7031 20.1916C25.4603 18.7776 25.3733 18.7145 25.4753 18.7041C30.4522 17.7255 32.0508 13.8534 31.5589 8.76389C31.5583 8.75846 31.5567 8.74219 31.5393 8.733C31.5204 8.70753 31.4987 8.70973 31.4933 8.71028C26.496 9.20127 26.6587 9.23752 26.6513 9.16416L26.4965 7.6418C26.4857 7.53484 26.4237 7.62231 30.3214 7.19822C30.7332 7.15637 31.1744 7.24288 31.5167 7.48726C31.9334 7.76243 32.1866 8.20743 32.2367 8.70047Z" fill="#FFC328"/>
<path d="M14.6487 21.3482L14.6471 21.3866C14.6499 21.4138 14.6299 21.4322 14.5974 21.4355C8.66115 21.4981 5.62204 17.4672 4.99055 11.47C4.90037 10.5828 5.52527 9.71868 6.56984 9.6125C10.4785 9.24314 10.3947 9.16892 10.4057 9.2774C10.5386 10.7943 10.6056 10.8335 10.521 10.8421C6.44466 11.2564 6.64983 11.2083 6.62288 11.2657C6.60236 11.2787 6.60401 11.295 6.60457 11.3004C7.15384 16.3724 9.48732 19.8556 14.5693 19.8127C14.6588 19.8036 14.5984 19.8714 14.6487 21.3482Z" fill="#FFB800"/>
<path d="M14.6487 21.3482C9.04176 21.0719 6.32552 17.0231 5.73286 11.3945C5.64148 10.4956 6.27486 9.64252 7.31208 9.53709C11.1957 9.17009 11.1367 9.09115 11.148 9.20198C11.2835 10.7479 11.3521 10.7576 11.2578 10.7672C6.39229 11.2618 6.64978 11.2084 6.62288 11.2657C6.60235 11.2788 6.60401 11.295 6.60456 11.3005C7.15383 16.3724 9.48731 19.8557 14.5693 19.8127C14.6588 19.8036 14.5984 19.8715 14.6487 21.3482Z" fill="#FFC328"/>
<path d="M24.6108 29.3222L17.552 30.0397C18.0503 28.1088 18.5132 26.4411 18.8132 24.9482C18.8182 24.942 18.8188 24.9476 18.8188 24.9476C18.9784 24.1296 19.0979 23.3608 19.142 22.6279L21.562 22.382C21.7671 23.0669 22.0438 23.7897 22.3765 24.5634C22.9809 25.9531 23.7609 27.5171 24.6108 29.3222Z" fill="#FFC328"/>
<path d="M21.6747 22.7136C21.6391 22.6043 21.5942 22.4894 21.562 22.382L19.142 22.6279C19.1353 22.7406 19.1159 22.8604 19.1057 22.9748L21.6747 22.7136Z" fill="#F39200"/>
<path d="M17.9735 28.4223C17.8374 28.9425 17.6973 29.4769 17.5521 30.0396L24.6108 29.3221C24.365 28.8001 24.1277 28.3036 23.8962 27.8203L17.9735 28.4223Z" fill="#F39200"/>
<path d="M29.9288 29.9788L30.3146 33.7736L12.8606 35.5478L12.4748 31.7529C12.3697 30.7189 13.1234 29.801 14.1517 29.6965L27.8724 28.3018C28.8839 28.199 29.8227 28.9344 29.9288 29.9788Z" fill="#613941"/>
<path d="M28.8152 29.245L29.105 32.0953C29.158 32.617 28.7781 33.0828 28.2565 33.1358L12.7754 34.7094L12.4748 31.7529C12.3697 30.7189 13.1234 29.801 14.1517 29.6965L27.8724 28.3018C28.0736 28.2814 28.2726 28.295 28.4633 28.3378C28.6527 28.5895 28.7806 28.904 28.8152 29.245Z" fill="#804F59"/>
<path d="M14.6453 21.3853C14.6481 21.4132 14.6274 21.4322 14.5995 21.4351C14.1763 21.4386 13.7683 21.4236 13.3747 21.3845C12.8675 20.7692 12.305 19.9422 12.0541 19.5029C12.7923 19.7102 13.6282 19.8229 14.57 19.8119C14.6614 19.8026 14.6 19.8779 14.6453 21.3853Z" fill="#F39200"/>
<path d="M27.8761 17.8947C27.6135 18.6441 27.3072 19.3528 26.9561 20.0096C26.5778 20.1215 26.1811 20.2183 25.7715 20.2995C25.6827 20.3085 25.7384 20.2765 25.4337 18.7527C25.3845 18.6167 26.3464 18.6839 27.8761 17.8947Z" fill="#F39200"/>
<path d="M28.9119 8.97499C27.6771 9.08471 27.5964 9.14345 27.5889 9.06997C27.4629 7.62641 27.3864 7.49824 27.4735 7.48939L28.731 7.36157C28.8126 7.90884 28.8892 8.65154 28.9119 8.97499Z" fill="#F39200"/>
<path d="M22.3765 24.5633C21.3043 25.0163 20.078 25.1676 18.8188 24.9475C18.9784 24.1294 19.098 23.3607 19.142 22.6278L21.562 22.3818C21.7671 23.0668 22.0438 23.7896 22.3765 24.5633Z" fill="#F39200"/>
<path d="M20.4961 23.9512C17.6291 24.2426 14.8602 22.3332 12.9153 19.1429C10.7564 15.6178 9.86391 10.9829 10.2439 6.74911L27.0831 5.03748C29.6343 13.5231 26.6331 23.3274 20.4961 23.9512Z" fill="#FFB800"/>
<path d="M10.5597 10.801C10.5672 10.8742 10.478 10.833 9.25033 10.9736C9.1887 10.6007 9.1189 9.75299 9.09735 9.35732L10.3548 9.2295C10.4418 9.22065 10.3925 9.3594 10.5597 10.801Z" fill="#F39200"/>
<path d="M25.1885 5.95278C25.9713 13.6542 22.6596 20.2924 17.7973 20.7866C16.0815 20.961 14.3986 20.3473 12.9153 19.1428C10.7564 15.6178 9.86391 10.9828 10.2439 6.74905L25.1046 5.23853C25.1341 5.47271 25.1641 5.71249 25.1885 5.95278Z" fill="#FFC328"/>
<path d="M27.9282 4.5747C27.7167 4.82773 27.4129 5.00542 27.0552 5.04178L10.2719 6.74773C9.77459 6.79828 9.30967 6.55756 9.06078 6.16502C9.04796 6.14943 9.03507 6.13379 9.02777 6.11757C8.53771 5.2601 9.11333 4.26808 10.0106 4.17687C27.737 2.39853 26.8296 2.40797 27.2199 2.49538C28.151 2.71373 28.5266 3.84101 27.9282 4.5747Z" fill="#F39200"/>
<path d="M25.8218 4.46136L9.06078 6.16505C9.04796 6.14946 9.03507 6.13382 9.02777 6.1176C8.53771 5.26012 9.11333 4.26811 10.0106 4.1769L26.7771 2.47266C27.2863 3.25357 26.8155 4.36034 25.8218 4.46136Z" fill="#FFB800"/>
<path d="M25.3799 2.61462C25.24 3.11524 24.7934 3.48167 24.2708 3.53478L8.9015 5.09701C9.02063 4.65088 9.44844 4.23399 10.0106 4.17685L25.3799 2.61462Z" fill="#FFC328"/>
<path d="M31.6218 34.3013L31.7178 35.2458C31.7331 35.3967 31.6221 35.5265 31.4768 35.5413L11.8838 37.5328C11.7385 37.5476 11.6092 37.4422 11.5939 37.2913L11.4979 36.3468C11.4615 35.9891 11.717 35.6695 12.0747 35.6331L30.9076 33.7188C31.2652 33.6825 31.5854 33.9436 31.6218 34.3013Z" fill="#613941"/>
<path d="M30.7791 33.7319L30.8745 34.6709C30.8898 34.8218 30.7844 34.9511 30.6335 34.9664L11.5547 36.9057L11.4979 36.3468C11.4615 35.9891 11.717 35.6695 12.0747 35.6332L30.7791 33.7319Z" fill="#804F59"/>
<path d="M20.2374 9.19783L21.018 10.4437C21.1663 10.6803 21.4214 10.8287 21.7003 10.8407L23.1692 10.9039C23.8715 10.9341 24.2343 11.7565 23.7831 12.2956L22.8394 13.4231C22.6603 13.6371 22.5979 13.9256 22.6727 14.1946L23.0665 15.6111C23.2548 16.2884 22.5847 16.8876 21.9326 16.6251L20.5687 16.076C20.3098 15.9718 20.0161 16.0016 19.7835 16.1558L18.5579 16.9681C17.972 17.3564 17.1951 16.9043 17.2433 16.203L17.344 14.7362C17.3631 14.4577 17.244 14.1877 17.0254 14.014L15.8742 13.0995C15.3238 12.6623 15.5137 11.7837 16.1955 11.6128L17.6217 11.2553C17.8924 11.1874 18.1125 10.9907 18.21 10.7291L18.7241 9.35165C18.9698 8.69305 19.8641 8.60216 20.2374 9.19783Z" fill="#F39200"/>
<path d="M19.5591 8.5323L20.3398 9.77818C20.488 10.0147 20.7431 10.1632 21.022 10.1752L22.4909 10.2384C23.1932 10.2686 23.556 11.091 23.1049 11.6301L22.1612 12.7575C21.982 12.9716 21.9197 13.2601 21.9944 13.5291L22.3883 14.9456C22.5765 15.6229 21.9065 16.222 21.2544 15.9595L19.8905 15.4105C19.6316 15.3062 19.3379 15.3361 19.1052 15.4903L17.8797 16.3026C17.2938 16.6909 16.5169 16.2388 16.565 15.5375L16.6657 14.0707C16.6849 13.7922 16.5657 13.5221 16.3472 13.3485L15.1959 12.434C14.6455 11.9967 14.8354 11.1181 15.5173 10.9472L16.9434 10.5898C17.2142 10.5219 17.4342 10.3251 17.5318 10.0636L18.0458 8.68613C18.2916 8.02753 19.1859 7.93663 19.5591 8.5323Z" fill="white"/>
<g opacity="0.5">
<path d="M25.6852 30.2611L25.8582 31.9624C25.8847 32.2233 25.6947 32.4563 25.4337 32.4829L17.382 33.3013C17.121 33.3278 16.888 33.1378 16.8615 32.8769L16.6886 31.1756C16.662 30.9147 16.8521 30.6816 17.113 30.6551L25.1648 29.8367C25.4257 29.8102 25.6587 30.0002 25.6852 30.2611Z" fill="white"/>
</g>
<g opacity="0.49">
<path d="M13.8219 33.4175C13.8286 33.4749 13.8628 33.88 13.8194 33.9563C13.7759 34.0165 13.6743 33.9736 13.6095 33.9011C13.497 33.7535 13.4565 33.4642 13.448 33.2999C13.4353 33.1836 13.5004 32.8892 13.6443 32.9371C13.7981 33.0184 13.7995 33.1757 13.8219 33.4175Z" fill="white"/>
<path d="M14.0685 31.3758C14.0618 31.5524 14.0058 32.282 13.891 32.4155C13.7794 32.5446 13.5502 32.5019 13.434 32.3723C13.2147 32.1268 13.2163 31.5759 13.2458 31.2641C13.2635 31.0441 13.5019 30.4499 13.8118 30.5009C14.1622 30.5387 14.0764 31.074 14.0685 31.3758Z" fill="white"/>
</g>
<path d="M11.7577 7.81728C11.9442 7.98411 12.0388 8.40098 12.0882 8.74354C12.2293 9.72111 12.2712 10.711 12.0885 11.4589C11.9983 11.8279 11.7452 11.8751 11.5333 11.4246C10.818 9.90343 11.1943 7.31347 11.7577 7.81728Z" fill="white"/>
<path d="M12.2116 12.7839C12.3844 13.2931 12.5161 13.8473 12.5235 14.3479C12.5311 14.8549 12.1606 14.6796 11.901 13.6221C11.6562 12.6252 11.9017 11.8709 12.2116 12.7839Z" fill="white"/>
<path d="M20.3774 4.42178C24.1553 3.60723 24.8008 4.33415 26.0217 3.0343C25.7752 3.47058 25.3714 3.84201 24.8749 4.02072C24.2663 4.27634 21.2771 4.4306 20.3774 4.42178Z" fill="white"/>
<path d="M34.7932 26.6616C34.484 26.2436 34.0317 25.8887 33.4763 25.568C33.0216 26.2503 32.6208 26.8418 31.7414 27.8469C33.1785 23.4553 27.3039 21.9093 27.1722 18.1188C28.4046 17.4827 29.526 16.5246 30.4473 15.4735C28.8442 20.3862 36.3965 21.7432 34.7932 26.6616Z" fill="#FF5050"/>
<path d="M10.3442 30.6696C9.51397 29.9826 8.83257 29.3356 8.25999 28.7057C7.82366 29.0577 7.40308 29.4929 7.13776 29.994C4.75589 25.4077 11.9875 22.8368 9.6056 18.2505C10.7391 18.8876 11.8706 19.4212 13.1326 19.6991C14.3809 23.8159 8.09965 26.3467 10.3442 30.6696Z" fill="#FF5050"/>
<path d="M31.7414 27.8469C33.1785 23.4553 27.3039 21.9093 27.1722 18.1188C27.8822 17.7524 28.5464 17.2886 29.1762 16.7389C28.9958 18.2113 29.2682 19.6604 29.8805 20.913C31.023 23.2223 32.5854 23.4524 33.3446 25.7742C32.9094 26.4269 32.3827 27.114 31.7414 27.8469Z" fill="#FF2525"/>
<path d="M10.3443 30.6697C9.51398 29.9826 8.83258 29.3356 8.26 28.7058C8.08254 28.8489 7.91654 28.9978 7.77339 29.1467C8.29699 26.9627 10.4483 26.8891 10.8767 22.0639C10.9852 20.6969 11.0788 20.0411 12.268 19.4816C12.2738 19.4816 12.2795 19.4758 12.2852 19.4701C12.5658 19.5617 12.8463 19.6361 13.1326 19.6991C14.3809 23.8159 8.09966 26.3467 10.3443 30.6697Z" fill="#FF2525"/>
</svg>
