<svg width="24" height="24" viewBox="0 0 24 24" fill="none" xmlns="http://www.w3.org/2000/svg">
<path d="M21.4345 6.31487L17.67 2.5648C17.5641 2.45927 17.4204 2.40002 17.2706 2.40002H8.61167C7.67753 2.40002 6.91755 3.15704 6.91755 4.08752V11.5064C4.37991 11.7872 2.3999 13.9362 2.3999 16.5375C2.3999 19.329 4.67985 21.6 7.48226 21.6H19.9058C20.8399 21.6 21.5999 20.843 21.5999 19.9125V6.71264C21.5999 6.56342 21.5404 6.4204 21.4345 6.31487ZM17.8352 4.32051L19.6718 6.15002H17.8352V4.32051ZM3.52931 16.5375C3.52931 14.3664 5.3026 12.6 7.48226 12.6C9.66191 12.6 11.4352 14.3664 11.4352 16.5375C11.4352 18.7087 9.66191 20.475 7.48226 20.475C5.3026 20.475 3.52931 18.7087 3.52931 16.5375ZM19.9058 20.475H10.6728C11.6879 19.6573 12.3816 18.4591 12.5331 17.1H18.3999C18.7118 17.1 18.9646 16.8482 18.9646 16.5375C18.9646 16.2269 18.7118 15.975 18.3999 15.975H12.5331C12.441 15.1493 12.1489 14.3828 11.706 13.725H18.3999C18.7118 13.725 18.9646 13.4732 18.9646 13.1625C18.9646 12.8519 18.7118 12.6 18.3999 12.6H10.6728C9.9379 12.008 9.03474 11.6157 8.04696 11.5064V4.08752C8.04696 3.77736 8.30029 3.52502 8.61167 3.52502H16.7058V6.71252C16.7058 7.02317 16.9586 7.27502 17.2705 7.27502H20.4705V19.9125C20.4705 20.2227 20.2172 20.475 19.9058 20.475Z" fill="white"/>
<path d="M18.3999 9.22502H10.1175C9.80568 9.22502 9.55284 9.47687 9.55284 9.78752C9.55284 10.0982 9.80568 10.35 10.1175 10.35H18.3999C18.7118 10.35 18.9646 10.0982 18.9646 9.78752C18.9646 9.47687 18.7118 9.22502 18.3999 9.22502Z" fill="white"/>
<path d="M8.98814 17.1C9.30001 17.1 9.55284 16.8482 9.55284 16.5375C9.55284 16.2269 9.30001 15.975 8.98814 15.975H8.04696V14.2875C8.04696 13.9769 7.79412 13.725 7.48226 13.725C7.17039 13.725 6.91755 13.9769 6.91755 14.2875V16.5375C6.91755 16.8482 7.17039 17.1 7.48226 17.1H8.98814Z" fill="white"/>
</svg>
