<svg width="74" height="74" viewBox="0 0 74 74" fill="none" xmlns="http://www.w3.org/2000/svg">
<g filter="url(#filter0_d_2005_21426)">
<rect x="27.5088" y="22.0068" width="20.1733" height="29.343" fill="white"/>
<mask id="path-2-outside-1_2005_21426" maskUnits="userSpaceOnUse" x="8.15039" y="3.33594" width="57" height="67" fill="black">
<rect fill="white" x="8.15039" y="3.33594" width="57" height="67"/>
<path fill-rule="evenodd" clip-rule="evenodd" d="M36.6903 7.33594C43.1761 7.34568 49.4056 9.88619 54.0067 14.418C58.6096 18.9519 61.2069 25.1103 61.2069 31.5439H61.2059C61.2728 38.8808 59.0991 46.064 54.9715 52.1621C50.8376 58.2696 44.9379 63.004 38.0467 65.7598L36.6854 66.3037L35.3241 65.7598C28.4308 63.0059 22.5286 58.2726 18.3924 52.165C14.2557 46.0565 12.0786 38.8579 12.1522 31.5068C12.1622 25.0842 14.7592 18.9387 19.3563 14.4131C23.9601 9.88096 30.1925 7.3424 36.6805 7.33594H36.6903ZM51.9334 50.1055C51.7076 50.4391 51.4756 50.7683 51.2381 51.0928C51.3535 50.9352 51.4683 50.777 51.5809 50.6172L51.9334 50.1064V50.1055ZM21.0848 49.5908C21.1976 49.7643 21.3124 49.9368 21.4286 50.1084C21.196 49.7649 20.9705 49.4173 20.7518 49.0664L21.0848 49.5908ZM33.4745 23.8418C33.1318 23.8416 32.7974 23.9413 32.5194 24.1279C32.2415 24.3145 32.0338 24.5781 31.9256 24.8809L27.1346 38.2656C27.0526 38.4943 27.0302 38.7382 27.0692 38.9766C27.1082 39.2149 27.2079 39.4412 27.3592 39.6367C27.5106 39.8322 27.7099 39.9918 27.9403 40.1016C28.1706 40.2112 28.4257 40.2687 28.6844 40.2686H34.3954L32.6317 47.6602C32.5475 47.993 32.5883 48.343 32.7469 48.6514C32.9057 48.9598 33.1733 49.209 33.5047 49.3564C33.7322 49.4612 33.9825 49.5158 34.2362 49.5166C34.4744 49.5158 34.7096 49.4654 34.9247 49.3701C35.1397 49.2748 35.3295 49.1365 35.4803 48.9648L45.9295 37.2871C46.1281 37.065 46.2542 36.7944 46.2938 36.5078C46.3334 36.2212 46.2848 35.9297 46.1532 35.668C46.0216 35.4064 45.8123 35.1853 45.5506 35.0303C45.2889 34.8753 44.9848 34.7931 44.6747 34.793H39.7381L43.9432 25.9805C44.0538 25.7489 44.1004 25.4949 44.079 25.2422C44.0575 24.9895 43.9685 24.7457 43.8202 24.5332C43.6718 24.3207 43.4685 24.1462 43.2293 24.0254C42.9902 23.9046 42.7221 23.8417 42.4501 23.8418H33.4745ZM18.0008 43.5605C18.1483 43.9422 18.3037 44.321 18.4657 44.6973L18.2284 44.1309C18.151 43.9413 18.0746 43.7514 18.0008 43.5605Z"/>
</mask>
<path fill-rule="evenodd" clip-rule="evenodd" d="M36.6903 7.33594C43.1761 7.34568 49.4056 9.88619 54.0067 14.418C58.6096 18.9519 61.2069 25.1103 61.2069 31.5439H61.2059C61.2728 38.8808 59.0991 46.064 54.9715 52.1621C50.8376 58.2696 44.9379 63.004 38.0467 65.7598L36.6854 66.3037L35.3241 65.7598C28.4308 63.0059 22.5286 58.2726 18.3924 52.165C14.2557 46.0565 12.0786 38.8579 12.1522 31.5068C12.1622 25.0842 14.7592 18.9387 19.3563 14.4131C23.9601 9.88096 30.1925 7.3424 36.6805 7.33594H36.6903ZM51.9334 50.1055C51.7076 50.4391 51.4756 50.7683 51.2381 51.0928C51.3535 50.9352 51.4683 50.777 51.5809 50.6172L51.9334 50.1064V50.1055ZM21.0848 49.5908C21.1976 49.7643 21.3124 49.9368 21.4286 50.1084C21.196 49.7649 20.9705 49.4173 20.7518 49.0664L21.0848 49.5908ZM33.4745 23.8418C33.1318 23.8416 32.7974 23.9413 32.5194 24.1279C32.2415 24.3145 32.0338 24.5781 31.9256 24.8809L27.1346 38.2656C27.0526 38.4943 27.0302 38.7382 27.0692 38.9766C27.1082 39.2149 27.2079 39.4412 27.3592 39.6367C27.5106 39.8322 27.7099 39.9918 27.9403 40.1016C28.1706 40.2112 28.4257 40.2687 28.6844 40.2686H34.3954L32.6317 47.6602C32.5475 47.993 32.5883 48.343 32.7469 48.6514C32.9057 48.9598 33.1733 49.209 33.5047 49.3564C33.7322 49.4612 33.9825 49.5158 34.2362 49.5166C34.4744 49.5158 34.7096 49.4654 34.9247 49.3701C35.1397 49.2748 35.3295 49.1365 35.4803 48.9648L45.9295 37.2871C46.1281 37.065 46.2542 36.7944 46.2938 36.5078C46.3334 36.2212 46.2848 35.9297 46.1532 35.668C46.0216 35.4064 45.8123 35.1853 45.5506 35.0303C45.2889 34.8753 44.9848 34.7931 44.6747 34.793H39.7381L43.9432 25.9805C44.0538 25.7489 44.1004 25.4949 44.079 25.2422C44.0575 24.9895 43.9685 24.7457 43.8202 24.5332C43.6718 24.3207 43.4685 24.1462 43.2293 24.0254C42.9902 23.9046 42.7221 23.8417 42.4501 23.8418H33.4745ZM18.0008 43.5605C18.1483 43.9422 18.3037 44.321 18.4657 44.6973L18.2284 44.1309C18.151 43.9413 18.0746 43.7514 18.0008 43.5605Z" fill="#2D848D"/>
<path d="M36.6903 7.33594L36.6958 3.66807H36.6903V7.33594ZM54.0067 14.418L56.5806 11.8049L56.5805 11.8048L54.0067 14.418ZM61.2069 31.5439V35.2118H64.8748V31.5439L61.2069 31.5439ZM61.2059 31.5439V27.8761H57.5045L57.5382 31.5774L61.2059 31.5439ZM54.9715 52.1621L58.009 54.2181L58.009 54.2181L54.9715 52.1621ZM38.0467 65.7598L39.4077 69.1658L39.4087 69.1654L38.0467 65.7598ZM36.6854 66.3037L35.3245 69.7097L36.6854 70.2535L38.0464 69.7097L36.6854 66.3037ZM35.3241 65.7598L36.685 62.3537L36.6848 62.3537L35.3241 65.7598ZM18.3924 52.165L15.3554 54.2217L15.3555 54.2218L18.3924 52.165ZM12.1522 31.5068L15.8199 31.5436L15.82 31.5281L15.8201 31.5125L12.1522 31.5068ZM19.3563 14.4131L16.7831 11.7992L16.7831 11.7993L19.3563 14.4131ZM36.6805 7.33594V3.66806L36.6769 3.66807L36.6805 7.33594ZM51.9334 50.1055H55.6013V38.143L48.896 48.0495L51.9334 50.1055ZM51.5809 50.6172L54.579 52.7301L54.5893 52.7155L54.5995 52.7008L51.5809 50.6172ZM51.9334 50.1064L54.952 52.19L55.6013 51.2494V50.1064H51.9334ZM21.0848 49.5908L17.9885 51.557L17.9989 51.5734L18.0095 51.5897L21.0848 49.5908ZM20.7518 49.0664L23.8481 47.1002L17.6392 51.0068L20.7518 49.0664ZM33.4745 23.8418L33.4722 27.5097H33.4745V23.8418ZM32.5194 24.1279L30.4751 21.0826L30.4746 21.0829L32.5194 24.1279ZM31.9256 24.8809L35.3789 26.117L35.3799 26.1144L31.9256 24.8809ZM27.1346 38.2656L30.5873 39.5035L30.5879 39.5017L27.1346 38.2656ZM27.0692 38.9766L23.4494 39.5685L23.4494 39.5688L27.0692 38.9766ZM27.3592 39.6367L24.4586 41.8816L24.4589 41.882L27.3592 39.6367ZM27.9403 40.1016L26.3626 43.4128L26.3635 43.4132L27.9403 40.1016ZM28.6844 40.2686V36.6007H28.6826L28.6844 40.2686ZM34.3954 40.2686L37.9631 41.1198L39.0414 36.6007H34.3954V40.2686ZM32.6317 47.6602L36.1877 48.5591L36.1937 48.5353L36.1994 48.5114L32.6317 47.6602ZM32.7469 48.6514L29.4853 50.3292L29.4857 50.3299L32.7469 48.6514ZM33.5047 49.3564L35.0389 46.0248L35.0172 46.0149L34.9955 46.0052L33.5047 49.3564ZM34.2362 49.5166L34.2252 53.1845L34.2366 53.1845L34.2481 53.1845L34.2362 49.5166ZM34.9247 49.3701L36.4109 52.7234L36.4112 52.7233L34.9247 49.3701ZM35.4803 48.9648L32.747 46.519L32.736 46.5312L32.7252 46.5436L35.4803 48.9648ZM45.9295 37.2871L48.6629 39.7329L48.6641 39.7316L45.9295 37.2871ZM46.2938 36.5078L49.9271 37.0103L49.9271 37.0101L46.2938 36.5078ZM46.1532 35.668L49.4298 34.0195L49.4297 34.0195L46.1532 35.668ZM45.5506 35.0303L47.4204 31.8748L47.4197 31.8743L45.5506 35.0303ZM44.6747 34.793L44.676 31.1251H44.6747V34.793ZM39.7381 34.793L36.4278 33.2134L33.9239 38.4608H39.7381V34.793ZM43.9432 25.9805L40.6335 24.3996L40.6329 24.4009L43.9432 25.9805ZM44.079 25.2422L47.7337 24.9319L47.7337 24.9317L44.079 25.2422ZM43.8202 24.5332L46.8279 22.434L46.8277 22.4336L43.8202 24.5332ZM43.2293 24.0254L44.8831 20.7515L44.8825 20.7512L43.2293 24.0254ZM42.4501 23.8418V27.5097H42.4518L42.4501 23.8418ZM18.0008 43.5605L21.422 42.2382L14.5795 44.8827L18.0008 43.5605ZM18.4657 44.6973L15.0966 46.1474L21.8486 43.2799L18.4657 44.6973ZM18.2284 44.1309L14.8327 45.5175L14.839 45.5329L14.8454 45.5482L18.2284 44.1309ZM36.6903 7.33594L36.6848 11.0038C42.2183 11.0121 47.523 13.1802 51.4329 17.0311L54.0067 14.418L56.5805 11.8048C51.2882 6.59221 44.1338 3.67924 36.6958 3.66807L36.6903 7.33594ZM54.0067 14.418L51.4328 17.0311C55.3427 20.8823 57.539 26.1022 57.539 31.5439L61.2069 31.5439L64.8748 31.5439C64.8748 24.1183 61.8766 17.0214 56.5806 11.8049L54.0067 14.418ZM61.2069 31.5439V27.8761H61.2059V31.5439V35.2118H61.2069V31.5439ZM61.2059 31.5439L57.5382 31.5774C57.5982 38.1662 55.6465 44.6213 51.934 50.1062L54.9715 52.1621L58.009 54.2181C62.5517 47.5067 64.9473 39.5954 64.8736 31.5105L61.2059 31.5439ZM54.9715 52.1621L51.934 50.1062C48.2152 55.6004 42.9018 59.8679 36.6848 62.3541L38.0467 65.7598L39.4087 69.1654C46.9739 66.14 53.46 60.9389 58.009 54.2181L54.9715 52.1621ZM38.0467 65.7598L36.6858 62.3537L35.3245 62.8977L36.6854 66.3037L38.0464 69.7097L39.4077 69.1658L38.0467 65.7598ZM36.6854 66.3037L38.0464 62.8977L36.685 62.3537L35.3241 65.7598L33.9631 69.1658L35.3245 69.7097L36.6854 66.3037ZM35.3241 65.7598L36.6848 62.3537C30.4658 59.8691 25.1502 55.6026 21.4294 50.1083L18.3924 52.165L15.3555 54.2218C19.907 60.9426 26.3958 66.1426 33.9633 69.1659L35.3241 65.7598ZM18.3924 52.165L21.4294 50.1084C17.7085 44.6138 15.7538 38.1448 15.8199 31.5436L12.1522 31.5068L8.48451 31.4701C8.40336 39.5711 10.8029 47.4991 15.3554 54.2217L18.3924 52.165ZM12.1522 31.5068L15.8201 31.5125C15.8285 26.0798 18.0248 20.8708 21.9295 17.0269L19.3563 14.4131L16.7831 11.7993C11.4936 17.0065 8.49585 24.0887 8.48433 31.5011L12.1522 31.5068ZM19.3563 14.4131L21.9295 17.0269C25.8415 13.1757 31.1486 11.0093 36.6842 11.0038L36.6805 7.33594L36.6769 3.66807C29.2365 3.67548 22.0786 6.58618 16.7831 11.7992L19.3563 14.4131ZM36.6805 7.33594V11.0038H36.6903V7.33594V3.66807H36.6805V7.33594ZM51.9334 50.1055L48.896 48.0495C48.6961 48.3447 48.49 48.6373 48.2781 48.9268L51.2381 51.0928L54.1982 53.2588C54.4612 52.8993 54.7191 52.5335 54.9709 52.1614L51.9334 50.1055ZM51.2381 51.0928L54.1982 53.2588C54.318 53.0951 54.4477 52.9164 54.579 52.7301L51.5809 50.6172L48.5828 48.5042C48.4889 48.6375 48.389 48.7753 48.2781 48.9268L51.2381 51.0928ZM51.5809 50.6172L54.5995 52.7008L54.952 52.19L51.9334 50.1064L48.9148 48.0229L48.5623 48.5336L51.5809 50.6172ZM51.9334 50.1064H55.6013V50.1055H51.9334H48.2656V50.1064H51.9334ZM21.0848 49.5908L18.0095 51.5897C18.1365 51.7852 18.2643 51.9772 18.3916 52.1651L21.4286 50.1084L24.4656 48.0517C24.3604 47.8965 24.2586 47.7433 24.1602 47.5919L21.0848 49.5908ZM21.4286 50.1084L24.4656 48.0517C24.2603 47.7486 24.06 47.4399 23.8644 47.126L20.7518 49.0664L17.6392 51.0068C17.881 51.3947 18.1316 51.7812 18.3916 52.1651L21.4286 50.1084ZM20.7518 49.0664L17.6555 51.0326L17.9885 51.557L21.0848 49.5908L24.1812 47.6246L23.8481 47.1002L20.7518 49.0664ZM33.4745 23.8418L33.4767 20.1739C32.4285 20.1733 31.3773 20.4769 30.4751 21.0826L32.5194 24.1279L34.5637 27.1733C34.2174 27.4057 33.8351 27.5099 33.4722 27.5097L33.4745 23.8418ZM32.5194 24.1279L30.4746 21.0829C29.5731 21.6883 28.8545 22.5745 28.4714 23.6474L31.9256 24.8809L35.3799 26.1144C35.213 26.5817 34.9099 26.9408 34.5641 27.173L32.5194 24.1279ZM31.9256 24.8809L28.4723 23.6448L23.6813 37.0295L27.1346 38.2656L30.5879 39.5017L35.3789 26.117L31.9256 24.8809ZM27.1346 38.2656L23.6819 37.0278C23.3911 37.8391 23.3094 38.7126 23.4494 39.5685L27.0692 38.9766L30.689 38.3846C30.751 38.7639 30.7142 39.1495 30.5873 39.5035L27.1346 38.2656ZM27.0692 38.9766L23.4494 39.5688C23.59 40.4281 23.9457 41.2189 24.4586 41.8816L27.3592 39.6367L30.2599 37.3919C30.4701 37.6634 30.6263 38.0016 30.6889 38.3843L27.0692 38.9766ZM27.3592 39.6367L24.4589 41.882C24.9723 42.5452 25.63 43.0637 26.3626 43.4128L27.9403 40.1016L29.5179 36.7903C29.7898 36.9198 30.0488 37.1192 30.2596 37.3915L27.3592 39.6367ZM27.9403 40.1016L26.3635 43.4132C27.0915 43.7598 27.8864 43.9368 28.6862 43.9364L28.6844 40.2686L28.6826 36.6007C28.9651 36.6005 29.2498 36.6627 29.5171 36.7899L27.9403 40.1016ZM28.6844 40.2686V43.9364H34.3954V40.2686V36.6007H28.6844V40.2686ZM34.3954 40.2686L30.8276 39.4173L29.064 46.8089L32.6317 47.6602L36.1994 48.5114L37.9631 41.1198L34.3954 40.2686ZM32.6317 47.6602L29.0757 46.7612C28.77 47.9704 28.9229 49.2358 29.4853 50.3292L32.7469 48.6514L36.0085 46.9735C36.2537 47.4501 36.3251 48.0156 36.1877 48.5591L32.6317 47.6602ZM32.7469 48.6514L29.4857 50.3299C30.0445 51.4157 30.9552 52.2367 32.014 52.7077L33.5047 49.3564L34.9955 46.0052C35.3914 46.1813 35.7668 46.5039 36.0082 46.9728L32.7469 48.6514ZM33.5047 49.3564L31.9706 52.6881C32.6841 53.0166 33.4548 53.1821 34.2252 53.1845L34.2362 49.5166L34.2472 45.8487C34.5101 45.8495 34.7802 45.9057 35.0389 46.0248L33.5047 49.3564ZM34.2362 49.5166L34.2481 53.1845C34.993 53.182 35.7304 53.025 36.4109 52.7234L34.9247 49.3701L33.4384 46.0169C33.6888 45.9059 33.9557 45.8496 34.2243 45.8488L34.2362 49.5166ZM34.9247 49.3701L36.4112 52.7233C37.0954 52.4199 37.7227 51.9696 38.2354 51.3861L35.4803 48.9648L32.7252 46.5436C32.9363 46.3034 33.184 46.1297 33.4381 46.017L34.9247 49.3701ZM35.4803 48.9648L38.2137 51.4107L48.6629 39.7329L45.9295 37.2871L43.1962 34.8413L32.747 46.519L35.4803 48.9648ZM45.9295 37.2871L48.6641 39.7316C49.3366 38.9793 49.7851 38.0368 49.9271 37.0103L46.2938 36.5078L42.6605 36.0054C42.7232 35.5521 42.9196 35.1507 43.195 34.8426L45.9295 37.2871ZM46.2938 36.5078L49.9271 37.0101C50.0695 35.9802 49.8925 34.9393 49.4298 34.0195L46.1532 35.668L42.8766 37.3164C42.6772 36.9201 42.5974 36.4622 42.6605 36.0055L46.2938 36.5078ZM46.1532 35.668L49.4297 34.0195C48.9687 33.1031 48.2577 32.3709 47.4204 31.8748L45.5506 35.0303L43.6809 38.1858C43.367 37.9998 43.0744 37.7096 42.8766 37.3165L46.1532 35.668ZM45.5506 35.0303L47.4197 31.8743C46.5789 31.3764 45.6274 31.1255 44.676 31.1251L44.6747 34.793L44.6733 38.4608C44.3422 38.4607 43.9989 38.3741 43.6816 38.1862L45.5506 35.0303ZM44.6747 34.793V31.1251H39.7381V34.793V38.4608H44.6747V34.793ZM39.7381 34.793L43.0485 36.3726L47.2535 27.5601L43.9432 25.9805L40.6329 24.4009L36.4278 33.2134L39.7381 34.793ZM43.9432 25.9805L47.2529 27.5613C47.6419 26.747 47.8109 25.8408 47.7337 24.9319L44.079 25.2422L40.4242 25.5525C40.39 25.149 40.4658 24.7507 40.6335 24.3996L43.9432 25.9805ZM44.079 25.2422L47.7337 24.9317C47.6563 24.0214 47.3368 23.1632 46.8279 22.434L43.8202 24.5332L40.8124 26.6324C40.6002 26.3283 40.4587 25.9576 40.4243 25.5527L44.079 25.2422ZM43.8202 24.5332L46.8277 22.4336C46.3187 21.7045 45.6423 21.135 44.8831 20.7515L43.2293 24.0254L41.5756 27.2993C41.2948 27.1574 41.025 26.937 40.8127 26.6328L43.8202 24.5332ZM43.2293 24.0254L44.8825 20.7512C44.1197 20.3661 43.2834 20.1735 42.4483 20.1739L42.4501 23.8418L42.4518 27.5097C42.1608 27.5098 41.8606 27.4432 41.5762 27.2996L43.2293 24.0254ZM42.4501 23.8418V20.1739H33.4745V23.8418V27.5097H42.4501V23.8418ZM18.0008 43.5605L14.5795 44.8827C14.7451 45.3111 14.9181 45.7327 15.0966 46.1474L18.4657 44.6973L21.8347 43.2471C21.6893 42.9093 21.5515 42.5733 21.4221 42.2384L18.0008 43.5605ZM18.4657 44.6973L21.8486 43.2799L21.6113 42.7135L18.2284 44.1309L14.8454 45.5482L15.0827 46.1146L18.4657 44.6973ZM18.2284 44.1309L21.624 42.7443C21.5512 42.5658 21.4843 42.3992 21.422 42.2382L18.0008 43.5605L14.5796 44.8829C14.6649 45.1036 14.7508 45.3169 14.8327 45.5175L18.2284 44.1309Z" fill="white" mask="url(#path-2-outside-1_2005_21426)"/>
</g>
<defs>
<filter id="filter0_d_2005_21426" x="-1.83394" y="0" width="77.0253" height="77.0253" filterUnits="userSpaceOnUse" color-interpolation-filters="sRGB">
<feFlood flood-opacity="0" result="BackgroundImageFix"/>
<feColorMatrix in="SourceAlpha" type="matrix" values="0 0 0 0 0 0 0 0 0 0 0 0 0 0 0 0 0 0 127 0" result="hardAlpha"/>
<feOffset dy="1.83394"/>
<feGaussianBlur stdDeviation="0.916968"/>
<feColorMatrix type="matrix" values="0 0 0 0 0 0 0 0 0 0 0 0 0 0 0 0 0 0 0.25 0"/>
<feBlend mode="normal" in2="BackgroundImageFix" result="effect1_dropShadow_2005_21426"/>
<feBlend mode="normal" in="SourceGraphic" in2="effect1_dropShadow_2005_21426" result="shape"/>
</filter>
</defs>
</svg>
