<svg width="48" height="48" viewBox="0 0 48 48" fill="none" xmlns="http://www.w3.org/2000/svg">
<g clip-path="url(#clip0_2897_20401)">
<path d="M33.5649 36.2031H13.5015C13.1468 36.2031 12.8593 36.4907 12.8593 36.8453C12.8593 37.2 13.1468 37.4876 13.5015 37.4876H33.5649C33.9196 37.4876 34.2071 37.2 34.2071 36.8453C34.2071 36.4907 33.9196 36.2031 33.5649 36.2031Z" fill="#AEDFFF"/>
<path d="M34.0852 27.9858H15.0862V11.8203H34.0852C34.2586 11.8296 34.4275 11.8791 34.5786 11.9648C34.7296 12.0506 34.8587 12.1703 34.9555 12.3144C35.0524 12.4586 35.1145 12.6233 35.1368 12.7955C35.1591 12.9678 35.1411 13.1428 35.0842 13.3069L33.0654 19.527C32.9879 19.7656 32.9879 20.0227 33.0654 20.2613L35.0842 26.4933C35.1429 26.6577 35.1623 26.8336 35.1408 27.0068C35.1193 27.1801 35.0575 27.3459 34.9604 27.491C34.8633 27.6361 34.7335 27.7564 34.5816 27.8424C34.4296 27.9283 34.2596 27.9774 34.0852 27.9858Z" fill="#E6272A"/>
<path d="M17.2954 11.8203H14.7652L14.5214 27.9858H19.1091L17.2954 11.8203Z" fill="#AF2022"/>
<path d="M25.775 25.8476C26.6207 25.8476 27.3062 25.162 27.3062 24.3164C27.3062 23.4707 26.6207 22.7852 25.775 22.7852C24.9293 22.7852 24.2438 23.4707 24.2438 24.3164C24.2438 25.162 24.9293 25.8476 25.775 25.8476Z" fill="#F5E66C"/>
<path d="M25.775 13.9727H24.6779C24.5495 13.9729 24.4225 13.9999 24.3052 14.0521C24.1878 14.1043 24.0826 14.1804 23.9964 14.2756C23.9102 14.3707 23.8448 14.4829 23.8045 14.6048C23.7641 14.7267 23.7497 14.8557 23.7621 14.9836L24.333 20.5732C24.3538 20.8009 24.459 21.0126 24.6279 21.1666C24.7968 21.3207 25.0172 21.406 25.2458 21.4058H26.3043C26.5323 21.4062 26.7523 21.3218 26.9215 21.169C27.0907 21.0163 27.1971 20.806 27.22 20.5792L27.7879 14.9776C27.7995 14.8503 27.7844 14.7219 27.7436 14.6007C27.7029 14.4795 27.6374 14.3681 27.5512 14.2736C27.4651 14.179 27.3603 14.1035 27.2434 14.0517C27.1264 13.9999 27 13.973 26.8721 13.9727H25.775Z" fill="#F5E66C"/>
<path d="M16.0793 10.8398H13.8405V36.8438H16.0793V10.8398Z" fill="#670A0C"/>
<path d="M14.9584 11.1658C15.5758 11.1658 16.0763 11.0194 16.0763 10.8388C16.0763 10.6581 15.5758 10.5117 14.9584 10.5117C14.341 10.5117 13.8405 10.6581 13.8405 10.8388C13.8405 11.0194 14.341 11.1658 14.9584 11.1658Z" fill="#E6272A"/>
<path d="M14.9584 37.1697C15.5758 37.1697 16.0763 37.0233 16.0763 36.8427C16.0763 36.6621 15.5758 36.5156 14.9584 36.5156C14.341 36.5156 13.8405 36.6621 13.8405 36.8427C13.8405 37.0233 14.341 37.1697 14.9584 37.1697Z" fill="#0A6267"/>
<path d="M17.557 11.7773H33.895" stroke="#FE6466" stroke-width="3" stroke-linecap="round" stroke-linejoin="round"/>
</g>
<defs>
<clipPath id="clip0_2897_20401">
<rect width="48" height="48" fill="white"/>
</clipPath>
</defs>
</svg>
