<svg width="56" height="56" viewBox="0 0 56 56" fill="none" xmlns="http://www.w3.org/2000/svg">
<path fill-rule="evenodd" clip-rule="evenodd" d="M19.2733 36.7265C19.2733 36.9352 19.399 37.1234 19.5941 37.2019C19.7866 37.2807 20.0073 37.2345 20.1536 37.0851L21.206 36.0081C22.3815 34.8051 23.9959 34.1347 25.6771 34.1524C26.1083 34.1576 26.5421 34.1599 26.9733 34.1599C29.948 34.1594 32.9254 34.0426 35.9053 33.8088C37.2399 33.7012 38.2666 32.5881 38.2666 31.2508C38.2666 28.2894 38.2666 22.5757 38.2666 19.6148C38.2666 18.2776 37.2399 17.1644 35.9078 17.0566C35.9078 17.0564 35.9053 17.0564 35.9053 17.0564C32.9382 16.8231 29.9609 16.706 26.9733 16.7065C24.0036 16.7071 21.0289 16.8238 18.0413 17.0579C16.7066 17.1652 15.6799 18.2784 15.6799 19.6159V31.2511C15.6799 32.5906 16.7092 33.7051 18.0464 33.81C18.4545 33.8421 18.8652 33.8719 19.2733 33.8999C19.2733 33.8996 19.2733 36.7265 19.2733 36.7265Z" fill="#0A6267"/>
<path fill-rule="evenodd" clip-rule="evenodd" d="M21.5133 36.7265C21.5133 36.9352 21.639 37.1234 21.8341 37.2019C22.0266 37.2807 22.2473 37.2345 22.3936 37.0851L23.446 36.0081C24.6215 34.8051 26.2359 34.1347 27.9171 34.1524C28.3483 34.1576 28.7821 34.1599 29.2133 34.1599C32.188 34.1594 35.1654 34.0426 38.1453 33.8088C39.4799 33.7012 40.5066 32.5881 40.5066 31.2508C40.5066 28.2894 40.5066 22.5757 40.5066 19.6148C40.5066 18.2776 39.4799 17.1644 38.1478 17.0566C38.1478 17.0564 38.1453 17.0564 38.1453 17.0564C35.1782 16.8231 32.2009 16.706 29.2133 16.7065C26.2436 16.7071 23.2688 16.8238 20.2812 17.0579C18.9466 17.1652 17.9199 18.2784 17.9199 19.6159V31.2511C17.9199 32.5906 18.9491 33.7051 20.2864 33.81C20.6945 33.8421 21.1052 33.8719 21.5133 33.8999C21.5133 33.8996 21.5133 36.7265 21.5133 36.7265Z" fill="#36AEB4"/>
<path fill-rule="evenodd" clip-rule="evenodd" d="M23.5663 28.7698H29.213C29.4953 28.7698 29.7263 28.5399 29.7263 28.2565C29.7263 27.9731 29.4953 27.7432 29.213 27.7432H23.5663C23.284 27.7432 23.053 27.9731 23.053 28.2565C23.053 28.5399 23.284 28.7698 23.5663 28.7698Z" fill="#F5E66C"/>
<path fill-rule="evenodd" clip-rule="evenodd" d="M23.5663 25.9466H34.8596C35.142 25.9466 35.373 25.7166 35.373 25.4333C35.373 25.1499 35.142 24.9199 34.8596 24.9199H23.5663C23.284 24.9199 23.053 25.1499 23.053 25.4333C23.053 25.7166 23.284 25.9466 23.5663 25.9466Z" fill="#F5E66C"/>
<path fill-rule="evenodd" clip-rule="evenodd" d="M23.5663 23.1233H34.8596C35.142 23.1233 35.373 22.8934 35.373 22.61C35.373 22.3267 35.142 22.0967 34.8596 22.0967H23.5663C23.284 22.0967 23.053 22.3267 23.053 22.61C23.053 22.8934 23.284 23.1233 23.5663 23.1233Z" fill="#F5E66C"/>
</svg>
