<svg width="38" height="38" viewBox="0 0 38 38" fill="none" xmlns="http://www.w3.org/2000/svg">
<rect x="0.5" y="0.5" width="37" height="37" rx="7.5" fill="#F1F5F9" stroke="#E2E8F0"/>
<path fill-rule="evenodd" clip-rule="evenodd" d="M26 18C26.6076 18 27.2008 18.1845 27.7012 18.529C28.2016 18.8736 28.5856 19.362 28.8024 19.9295C29.0192 20.4971 29.0586 21.1171 28.9153 21.7075C28.772 22.2979 28.4528 22.8309 28 23.236V28.191C28 28.2763 27.9782 28.3601 27.9367 28.4346C27.8951 28.509 27.8352 28.5716 27.7627 28.6164C27.6901 28.6612 27.6073 28.6867 27.5221 28.6905C27.437 28.6943 27.3522 28.6762 27.276 28.638L26 28L24.724 28.638C24.6478 28.6762 24.563 28.6943 24.4779 28.6905C24.3927 28.6867 24.3099 28.6612 24.2373 28.6164C24.1648 28.5716 24.1049 28.509 24.0633 28.4346C24.0218 28.3601 24 28.2763 24 28.191V23.236C23.5472 22.8309 23.228 22.2979 23.0847 21.7075C22.9414 21.1171 22.9808 20.4971 23.1976 19.9295C23.4144 19.362 23.7984 18.8736 24.2988 18.529C24.7992 18.1845 25.3924 18 26 18ZM27 11C27.5304 11 28.0391 11.2107 28.4142 11.5858C28.7893 11.9609 29 12.4696 29 13V17C28.0371 16.2779 26.8461 15.9273 25.6456 16.0126C24.445 16.0979 23.3155 16.6134 22.4645 17.4645C21.6134 18.3155 21.0979 19.445 21.0126 20.6456C20.9273 21.8461 21.2779 23.0371 22 24V27H11C10.4696 27 9.96086 26.7893 9.58579 26.4142C9.21071 26.0391 9 25.5304 9 25V13C9 12.4696 9.21071 11.9609 9.58579 11.5858C9.96086 11.2107 10.4696 11 11 11H27ZM15.5028 20H13.5028C13.2376 20 12.9833 20.1054 12.7957 20.2929C12.6082 20.4804 12.5028 20.7348 12.5028 21C12.5028 21.2652 12.6082 21.5196 12.7957 21.7071C12.9833 21.8946 13.2376 22 13.5028 22H15.5028C15.768 22 16.0224 21.8946 16.2099 21.7071C16.3975 21.5196 16.5028 21.2652 16.5028 21C16.5028 20.7348 16.3975 20.4804 16.2099 20.2929C16.0224 20.1054 15.768 20 15.5028 20ZM19.5028 16H13.5028C13.2479 16.0003 13.0028 16.0979 12.8175 16.2728C12.6321 16.4478 12.5206 16.687 12.5057 16.9414C12.4907 17.1958 12.5735 17.4464 12.7371 17.6418C12.9007 17.8373 13.1327 17.9629 13.3858 17.993L13.5028 18H19.5028C19.7577 17.9997 20.0029 17.9021 20.1882 17.7272C20.3735 17.5522 20.4851 17.313 20.5 17.0586C20.5149 16.8042 20.4322 16.5536 20.2686 16.3582C20.105 16.1627 19.8729 16.0371 19.6198 16.007L19.5028 16Z" fill="#36AEB4"/>
<path d="M13.6255 7.18573C14.9697 7.18573 15.9595 8.18735 16.4409 9.31561C16.934 10.4716 17.003 11.9553 16.4058 13.3371C15.8022 14.7334 14.7297 15.8199 13.5376 16.6828C12.3448 17.5463 10.9826 18.2214 9.73682 18.7766L7.56494 19.7443L8.63135 17.6183C8.68598 17.5093 8.70085 17.4025 8.61963 17.1887C8.52126 16.9297 8.32459 16.6289 8.01807 16.1916C7.45291 15.3854 6.58854 14.2299 6.43018 12.6848C6.29277 11.3434 6.62339 9.8853 7.71143 8.52655C8.12028 8.01598 8.77574 7.60272 9.39697 7.45721C9.70632 7.38481 10.1237 7.35195 10.52 7.53339C10.9203 7.71668 11.1722 8.05805 11.272 8.46112L11.3052 8.6369L11.3218 8.81073C11.3241 8.8525 11.3235 8.89484 11.3237 8.93768C11.427 8.76958 11.5373 8.60599 11.6528 8.45135C11.8791 8.14865 12.1474 7.85064 12.4517 7.62128C12.7485 7.39753 13.151 7.18582 13.6255 7.18573ZM10.6831 11.2922C10.5767 11.5343 10.4543 11.7912 10.3179 12.0656L10.937 12.2424C11.3774 12.3681 11.7063 12.7017 11.8442 13.1105L12.5659 12.1545L11.7144 12.0441C11.2871 11.9886 10.8734 11.7037 10.6831 11.2922Z" fill="#36AEB4" stroke="#F1F5F9" stroke-width="1.7"/>
</svg>
