<svg width="40" height="40" viewBox="0 0 40 40" fill="none" xmlns="http://www.w3.org/2000/svg">
<g clip-path="url(#clip0_2067_5993)">
<g filter="url(#filter0_d_2067_5993)">
<mask id="path-1-outside-1_2067_5993" maskUnits="userSpaceOnUse" x="5" y="-0.000488281" width="30" height="39" fill="black">
<rect fill="white" x="5" y="-0.000488281" width="30" height="39"/>
<path d="M19.9648 1.99976C20.4909 1.99245 21.0066 2.14432 21.4434 2.4314L31.8418 9.26734C32.5651 9.74271 32.9999 10.544 33 11.3992V25.072C33.0001 25.9892 32.4982 26.798 31.7549 27.2517L21.1992 36.4666C20.4395 37.1296 19.3051 37.1233 18.5527 36.4519L8.24316 27.2517C7.5006 26.7979 6.99986 25.9886 7 25.072V11.3992C7.00009 10.544 7.43494 9.74271 8.1582 9.26734L18.5576 2.4314C18.9763 2.15634 19.4651 2.00631 19.9648 1.99976Z"/>
</mask>
<path d="M19.9648 1.99976C20.4909 1.99245 21.0066 2.14432 21.4434 2.4314L31.8418 9.26734C32.5651 9.74271 32.9999 10.544 33 11.3992V25.072C33.0001 25.9892 32.4982 26.798 31.7549 27.2517L21.1992 36.4666C20.4395 37.1296 19.3051 37.1233 18.5527 36.4519L8.24316 27.2517C7.5006 26.7979 6.99986 25.9886 7 25.072V11.3992C7.00009 10.544 7.43494 9.74271 8.1582 9.26734L18.5576 2.4314C18.9763 2.15634 19.4651 2.00631 19.9648 1.99976Z" fill="#2D848D"/>
<path d="M19.9648 1.99976L19.991 3.99959L19.9927 3.99957L19.9648 1.99976ZM21.4434 2.4314L22.542 0.760191L22.5419 0.760103L21.4434 2.4314ZM31.8418 9.26734L30.7431 10.9386L30.7433 10.9387L31.8418 9.26734ZM33 11.3992H35V11.399L33 11.3992ZM33 25.072H31V25.0723L33 25.072ZM31.7549 27.2517L30.713 25.5445L30.5678 25.6332L30.4396 25.7451L31.7549 27.2517ZM21.1992 36.4666L22.5143 37.9734L22.5145 37.9732L21.1992 36.4666ZM18.5527 36.4519L17.2211 37.9441L17.2212 37.9442L18.5527 36.4519ZM8.24316 27.2517L9.57481 25.7595L9.44015 25.6393L9.28614 25.5452L8.24316 27.2517ZM7 25.072L9 25.0723V25.072H7ZM7 11.3992L5 11.399V11.3992H7ZM8.1582 9.26734L9.2567 10.9387L9.25679 10.9386L8.1582 9.26734ZM18.5576 2.4314L17.4594 0.759874L17.459 0.760144L18.5576 2.4314ZM19.9648 1.99976L19.9927 3.99957C20.1164 3.99785 20.2402 4.03393 20.3448 4.10271L21.4434 2.4314L22.5419 0.760103C21.773 0.254707 20.8653 -0.0129526 19.937 -4.24385e-05L19.9648 1.99976ZM21.4434 2.4314L20.3447 4.10262L30.7431 10.9386L31.8418 9.26734L32.9405 7.59613L22.542 0.760191L21.4434 2.4314ZM31.8418 9.26734L30.7433 10.9387C30.9111 11.049 31 11.2261 31 11.3994L33 11.3992L35 11.399C34.9998 9.862 34.219 8.43646 32.9403 7.59602L31.8418 9.26734ZM33 11.3992H31V25.072H33H35V11.3992H33ZM33 25.072L31 25.0723C31 25.2391 30.908 25.4255 30.713 25.5445L31.7549 27.2517L32.7968 28.9589C34.0885 28.1706 35.0003 26.7393 35 25.0717L33 25.072ZM31.7549 27.2517L30.4396 25.7451L19.8839 34.9599L21.1992 36.4666L22.5145 37.9732L33.0702 28.7584L31.7549 27.2517ZM21.1992 36.4666L19.8841 34.9597L19.8843 34.9596L18.5527 36.4519L17.2212 37.9442C18.7258 39.2868 20.9947 39.2996 22.5143 37.9734L21.1992 36.4666ZM18.5527 36.4519L19.8844 34.9597L9.57481 25.7595L8.24316 27.2517L6.91152 28.7439L17.2211 37.9441L18.5527 36.4519ZM8.24316 27.2517L9.28614 25.5452C9.09275 25.427 8.99997 25.2405 9 25.0723L7 25.072L5 25.0717C4.99974 26.7367 5.90844 28.1688 7.20019 28.9582L8.24316 27.2517ZM7 25.072H9V11.3992H7H5V25.072H7ZM7 11.3992L9 11.3994C9.00002 11.2261 9.08888 11.049 9.2567 10.9387L8.1582 9.26734L7.05971 7.59602C5.78101 8.43646 5.00016 9.862 5 11.399L7 11.3992ZM8.1582 9.26734L9.25679 10.9386L19.6562 4.10267L18.5576 2.4314L17.459 0.760144L7.05962 7.59608L8.1582 9.26734ZM18.5576 2.4314L19.6558 4.10294C19.7569 4.03653 19.874 4.00113 19.991 3.99959L19.9648 1.99976L19.9387 -6.4373e-05C19.0563 0.0114911 18.1957 0.276141 17.4594 0.759874L18.5576 2.4314Z" fill="white" mask="url(#path-1-outside-1_2067_5993)"/>
</g>
<path d="M23.4823 26.2227H16.5177V18.873C16.5177 17.7685 17.4131 16.873 18.5177 16.873H21.4823C22.5869 16.873 23.4823 17.7685 23.4823 18.873V26.2227Z" fill="white"/>
</g>
<defs>
<filter id="filter0_d_2067_5993" x="4" y="-0.000488281" width="32" height="40.96" filterUnits="userSpaceOnUse" color-interpolation-filters="sRGB">
<feFlood flood-opacity="0" result="BackgroundImageFix"/>
<feColorMatrix in="SourceAlpha" type="matrix" values="0 0 0 0 0 0 0 0 0 0 0 0 0 0 0 0 0 0 127 0" result="hardAlpha"/>
<feOffset dy="1"/>
<feGaussianBlur stdDeviation="0.5"/>
<feComposite in2="hardAlpha" operator="out"/>
<feColorMatrix type="matrix" values="0 0 0 0 0 0 0 0 0 0 0 0 0 0 0 0 0 0 0.25 0"/>
<feBlend mode="normal" in2="BackgroundImageFix" result="effect1_dropShadow_2067_5993"/>
<feBlend mode="normal" in="SourceGraphic" in2="effect1_dropShadow_2067_5993" result="shape"/>
</filter>
<clipPath id="clip0_2067_5993">
<rect width="40" height="40" fill="white"/>
</clipPath>
</defs>
</svg>
