<svg width="56" height="56" viewBox="0 0 56 56" fill="none" xmlns="http://www.w3.org/2000/svg">
<path d="M27.44 21.84C25.2855 21.84 27.2469 16.2663 25.76 17.5998C24.2731 16.2663 22.3145 15.4482 20.16 15.4482C15.5208 15.4482 11.76 19.209 11.76 23.8482C11.76 29.6293 18.0359 36.6293 25.76 40.5517C33.4841 36.6293 39.76 29.6293 39.76 23.8483C39.76 19.209 32.0792 21.84 27.44 21.84Z" fill="#0A6267"/>
<path d="M33.6 15.4482C31.4455 15.4482 29.4869 16.2663 28 17.5998C26.5131 16.2663 24.5545 15.4482 22.4 15.4482C17.7608 15.4482 14 19.209 14 23.8482C14 29.6293 20.2759 36.6293 28 40.5517C35.7241 36.6293 42 29.6293 42 23.8483C42 19.209 38.2392 15.4482 33.6 15.4482Z" fill="#36AEB4"/>
<path d="M33.6 15.4482C33.4164 15.4482 33.2365 15.4622 33.056 15.4739C36.6979 15.7386 39.5862 19.381 39.5862 23.8482C39.5862 29.6293 34.3924 36.6293 28 40.5517C35.7241 36.6293 42 29.6293 42 23.8483C42 19.209 38.2392 15.4482 33.6 15.4482Z" fill="#F5E66C"/>
<path d="M36.6897 24.6207C37.4896 24.6207 38.138 23.9723 38.138 23.1724C38.138 22.3725 37.4896 21.7241 36.6897 21.7241C35.8899 21.7241 35.2415 22.3725 35.2415 23.1724C35.2415 23.9723 35.8899 24.6207 36.6897 24.6207Z" fill="#F5E66C"/>
<path d="M35.9656 20.7588C36.3655 20.7588 36.6897 20.4346 36.6897 20.0347C36.6897 19.6347 36.3655 19.3105 35.9656 19.3105C35.5657 19.3105 35.2415 19.6347 35.2415 20.0347C35.2415 20.4346 35.5657 20.7588 35.9656 20.7588Z" fill="#F5E66C"/>
</svg>
