<svg width="16" height="17" viewBox="0 0 16 17" fill="none" xmlns="http://www.w3.org/2000/svg">
<path d="M1.04008 7.8597C0.854573 6.0488 1.291 4.06779 2.80592 2.17595C3.74236 1.00651 5.95787 0.197278 6.15792 1.68202C6.27852 2.57706 5.87593 4.16312 4.42057 6.96753C4.18329 7.42475 4.41593 7.99422 4.9113 8.13551L6.5445 8.60133C6.93642 8.71312 7.1824 9.10081 7.1166 9.50302L6.56991 12.8443C6.54284 13.0098 6.75558 13.1008 6.85655 12.9669L11.2078 7.19898C11.5787 6.70745 11.2809 5.99865 10.6703 5.91933L8.34319 5.61702C7.9089 5.5606 7.60532 5.16601 7.73905 4.74899C8.27195 3.08725 9.83385 0.533691 11.2367 0.533691C14.0517 0.533691 16.056 4.78528 14.4481 8.50518C12.7738 12.3789 8.38274 14.7754 4.43739 16.5337C5.64281 14.1308 1.46388 11.9969 1.04008 7.8597Z" fill="#6BBF59"/>
</svg>
