<svg width="40" height="40" viewBox="0 0 40 40" fill="none" xmlns="http://www.w3.org/2000/svg">
<path d="M37.3333 24.1111C35.1111 33.6667 25.5556 39.5556 16 37.3333C6.44444 35.1111 0.444442 25.5556 2.66666 16C4.88889 6.44444 14.4444 0.444442 24.1111 2.66666C33.5556 4.88889 39.5556 14.4444 37.3333 24.1111Z" fill="#75E399"/>
<path d="M37.3333 24.1112C34 38.5556 15.4445 42.5556 6.33334 31.3334C16.5556 39.6667 31.8889 34.4445 34.8889 21.6667C36.2222 16 34.6667 10.4445 31.3333 6.33337C36.3333 10.3334 38.8889 17.2223 37.3333 24.1112Z" fill="#16913F"/>
<path d="M36.3975 19.7777C36.3975 28.8246 29.0469 36.1752 20 36.1752C10.9531 36.1752 3.60254 28.8246 3.60254 19.7777C3.60254 10.7309 10.9531 3.38025 20 3.38025C29.0469 3.52161 36.3975 10.7309 36.3975 19.7777Z" fill="#37BC63"/>
<path d="M34.8426 19.7777C34.8426 27.9765 28.1988 34.6203 20 34.6203C11.8013 34.6203 5.15747 27.9765 5.15747 19.7777C5.15747 11.579 11.8013 5.07654 20 5.07654C28.1988 5.07654 34.8426 11.579 34.8426 19.7777Z" fill="#16913F"/>
<path d="M25.4024 13.6725L25.2376 13.7609L25.1484 13.5946C24.6074 12.5855 23.3238 12.2178 22.2869 12.7737L11.0023 18.8236C9.9655 19.3794 9.56126 20.6521 10.1023 21.6612L13.4901 27.9804C14.0311 28.9895 15.3148 29.3572 16.3516 28.8013L27.6362 22.7514C28.673 22.1955 29.0773 20.9229 28.5363 19.9138L28.4471 19.7475L28.612 19.6592C29.2719 19.3053 29.5289 18.4953 29.1847 17.8534L27.2233 14.1949C26.8792 13.553 26.0624 13.3187 25.4024 13.6725ZM21.0539 19.2324L20.624 24.172C20.6128 24.3039 20.5327 24.4188 20.4184 24.4801C20.3795 24.501 20.3369 24.5152 20.2925 24.5227C20.1135 24.5502 19.9417 24.4531 19.8788 24.2881L18.9468 21.8435L17.9627 22.3695C17.8341 22.4384 17.6797 22.4313 17.5623 22.352C17.4447 22.2721 17.3829 22.1339 17.4029 21.9922L18.0658 17.3557C18.0911 17.1812 18.2365 17.0433 18.4138 17.0227C18.5926 17.0031 18.7584 17.1069 18.8147 17.2728L19.5284 19.3908L20.4921 18.8759C20.6173 18.8088 20.7671 18.814 20.8844 18.8882C21.0006 18.9621 21.066 19.094 21.0539 19.2324Z" fill="#FFF7E3"/>
<path d="M34.7012 20.7672C34.2771 12.9926 27.916 6.91419 20 6.91419C12.084 6.91419 5.72286 12.9926 5.15743 20.7672C4.73336 11.7204 11.8012 5.07654 20 5.07654C28.1987 5.07654 35.2666 11.7204 34.7012 20.7672Z" fill="#107B33"/>
</svg>
