<svg width="40" height="40" viewBox="0 0 40 40" fill="none" xmlns="http://www.w3.org/2000/svg">
<path d="M35.76 31.2344C35.7601 30.9241 35.7597 30.6138 35.7591 30.3036C35.7591 30.3028 35.7591 30.3021 35.7591 30.3013C35.7573 29.1368 35.7533 27.9723 35.7608 26.8079C35.7756 24.5197 35.8062 22.2316 35.82 19.9433C35.8202 19.8994 35.8206 19.8556 35.8208 19.8118C35.821 19.769 35.8213 19.7262 35.8216 19.6834C35.8244 19.1651 35.7906 18.6455 35.7456 18.1271C35.7116 17.7372 35.5624 17.6337 34.9711 17.5669C34.711 17.5376 34.4482 17.512 34.1851 17.4948C34.0287 17.4846 33.8722 17.4773 33.716 17.4739C33.7156 17.4739 33.7152 17.4739 33.7148 17.4739C33.5521 17.4704 33.3895 17.467 33.2269 17.4638C33.1965 17.4632 33.1661 17.4626 33.1357 17.462C32.9772 17.4589 32.8188 17.4559 32.6602 17.453C32.6366 17.4526 32.613 17.4522 32.5894 17.4518C31.2077 17.4267 29.8259 17.4083 28.4443 17.3779C26.1931 17.3284 23.942 17.2644 21.6909 17.2118C20.1898 17.1767 18.6885 17.1487 17.1873 17.1212C16.6752 17.1119 16.1627 17.1227 15.651 17.1082C14.5713 17.0776 13.492 17.0383 12.4127 16.9989C11.5164 16.9662 10.6207 16.9186 9.72422 16.8954C9.58969 16.892 9.45524 16.8887 9.32071 16.8856C9.32063 16.8856 9.32055 16.8856 9.32047 16.8856C9.11696 16.8809 8.91344 16.8766 8.70985 16.873C8.70172 16.8728 8.69368 16.8726 8.68555 16.8725C8.58938 16.8708 8.49329 16.8692 8.39711 16.8677C8.38594 16.8676 8.37469 16.8674 8.36352 16.8672C8.26657 16.8658 8.16954 16.8645 8.07258 16.8634C8.0686 16.8633 8.06454 16.8633 8.06055 16.8633C7.96547 16.8622 7.87047 16.8613 7.7754 16.8606C7.76633 16.8605 7.75727 16.8604 7.74829 16.8604C7.65563 16.8597 7.56297 16.8592 7.47032 16.8589C7.45391 16.8588 7.4375 16.8587 7.4211 16.8587C7.32993 16.8585 7.23883 16.8583 7.14766 16.8584C7.13297 16.8584 7.11836 16.8585 7.10368 16.8585C7.00852 16.8587 6.91344 16.859 6.81836 16.8596C6.63891 16.8607 6.45907 16.8775 6.2804 16.9013C6.10172 16.9251 5.9243 16.9562 5.74961 16.9857C5.63758 17.0047 5.54227 17.0338 5.46469 17.0731C5.45766 17.0767 5.45071 17.0804 5.44399 17.0841C5.41024 17.1029 5.38008 17.1237 5.35375 17.1466C5.34852 17.1512 5.34336 17.1558 5.33844 17.1606C5.3186 17.1796 5.30118 17.2 5.28625 17.2217C5.27508 17.238 5.26524 17.2551 5.25688 17.2729C5.23727 17.3144 5.2254 17.3602 5.22149 17.4101C5.21766 17.4589 5.21297 17.5078 5.20782 17.5566C5.19743 17.6543 5.18477 17.7519 5.17188 17.8494C5.16539 17.8981 5.15891 17.9469 5.15258 17.9957C5.14625 18.0444 5.14008 18.0932 5.1343 18.142C5.11704 18.2883 5.10352 18.4347 5.1004 18.5815C5.09899 18.6461 5.09789 18.7106 5.09688 18.7752C5.09664 18.7911 5.09649 18.8069 5.09625 18.8228C5.09555 18.873 5.09485 18.9233 5.09438 18.9736C5.09422 18.9876 5.09415 19.0015 5.09399 19.0155C5.09344 19.0696 5.09305 19.1237 5.09274 19.178C5.09266 19.1861 5.09266 19.1943 5.09258 19.2024C5.08829 19.9522 5.09954 20.7025 5.08383 21.4521C5.03454 23.8083 4.97821 26.1644 4.9225 28.5205V28.5221C4.90571 29.2314 4.88899 29.9407 4.87258 30.6499C4.87141 30.7004 4.87235 30.7476 4.87571 30.7918C4.8768 30.8065 4.87821 30.8209 4.87993 30.835C4.88493 30.8772 4.8925 30.9164 4.9029 30.9529C4.91329 30.9894 4.92649 31.0231 4.9429 31.0543C4.94836 31.0647 4.95415 31.0748 4.96032 31.0847C4.96336 31.0896 4.96657 31.0944 4.96985 31.0993C4.97641 31.1089 4.98329 31.1182 4.99055 31.1272C5.01602 31.159 5.0461 31.1876 5.08125 31.2133C5.09633 31.2243 5.11235 31.2348 5.12938 31.2448C5.14641 31.2548 5.16438 31.2644 5.18336 31.2735C5.20868 31.2856 5.23579 31.2969 5.26485 31.3074C5.27211 31.3101 5.27946 31.3126 5.28696 31.3151C5.4443 31.3685 5.65454 31.4017 5.93071 31.4243C5.95797 31.4265 5.98539 31.4278 6.01282 31.4287C6.04032 31.4297 6.06782 31.4304 6.09524 31.4314C6.09649 31.4315 6.09766 31.4315 6.09891 31.4315C6.20313 31.4354 6.30735 31.4393 6.41157 31.4432C6.4479 31.4446 6.48414 31.4459 6.52047 31.4473C6.58922 31.4499 6.65797 31.4526 6.72672 31.4552C6.77118 31.4569 6.81555 31.4587 6.86 31.4604C6.90555 31.4622 6.9511 31.4639 6.99664 31.4657C7.62954 31.4903 8.26235 31.5156 8.89524 31.5384H8.8954C9.37086 31.5556 9.84633 31.5713 10.3219 31.5843C13.4886 31.6706 16.6557 31.745 19.8227 31.8242C19.8227 31.8229 19.8227 31.8217 19.8227 31.8204C20.9396 31.8483 22.0564 31.8858 23.1733 31.9023C25.8766 31.9422 28.5798 31.978 31.2831 32.0106C31.2843 32.0106 31.2855 32.0106 31.2866 32.0107C31.7859 32.0167 32.2851 32.0226 32.7843 32.0284C32.958 32.0305 33.1317 32.0314 33.3055 32.0313C33.3923 32.0313 33.4792 32.031 33.5661 32.0305C34.0005 32.0279 34.4346 32.0194 34.8678 32.0066C34.8794 32.0063 34.8908 32.0058 34.9021 32.0054C34.905 32.0053 34.9078 32.0051 34.9107 32.005C34.9212 32.0045 34.9315 32.004 34.9417 32.0035C34.9426 32.0034 34.9434 32.0034 34.9443 32.0033C34.9553 32.0027 34.9662 32.002 34.977 32.0013C34.9795 32.0012 34.9819 32.001 34.9844 32.0008C34.9941 32.0001 35.0038 31.9994 35.0133 31.9985C35.0144 31.9984 35.0155 31.9983 35.0166 31.9983C35.0272 31.9973 35.0377 31.9964 35.0481 31.9953C35.0499 31.9951 35.0517 31.9949 35.0536 31.9947C35.0631 31.9937 35.0725 31.9927 35.0817 31.9916C35.0827 31.9915 35.0837 31.9914 35.0847 31.9913C35.0951 31.9901 35.1052 31.9887 35.1153 31.9874C35.1163 31.9872 35.1173 31.9871 35.1184 31.987C35.1279 31.9857 35.1373 31.9843 35.1466 31.9829C35.1473 31.9828 35.1481 31.9826 35.1488 31.9826C35.1588 31.981 35.1688 31.9793 35.1787 31.9776C35.1788 31.9776 35.1789 31.9775 35.1791 31.9775C35.1888 31.9758 35.1983 31.974 35.2077 31.9721C35.2082 31.972 35.2087 31.9719 35.2091 31.9718C35.2284 31.9679 35.247 31.9637 35.2651 31.9593C35.2653 31.9592 35.2656 31.9592 35.2658 31.9591C35.284 31.9546 35.3016 31.9497 35.3187 31.9445C35.3188 31.9445 35.3188 31.9444 35.3189 31.9444C35.5734 31.8669 35.7012 31.7158 35.7466 31.4761C35.7613 31.3964 35.76 31.3151 35.76 31.2344Z" fill="#37BC63"/>
<path d="M31.4947 29.6197C31.6779 29.2891 31.9235 29.0173 32.236 28.8047C32.5459 28.594 32.8866 28.4579 33.2575 28.4196C33.5079 28.3936 33.7625 28.3941 34.0145 28.4029C34.0656 28.4047 34.116 28.4089 34.1659 28.415C34.1634 27.7538 34.1617 27.0925 34.165 26.4314C34.1735 24.7064 34.1938 22.9817 34.2038 21.2568C34.0059 21.2559 33.8084 21.2421 33.6124 21.2043C33.1563 21.1162 32.7674 20.8993 32.4236 20.5906C32.062 20.266 31.7905 19.8812 31.6343 19.4214C31.5509 19.1757 31.5043 18.9329 31.4957 18.6929C30.1985 18.6682 28.901 18.65 27.6038 18.6212C25.5899 18.5765 23.576 18.5197 21.5621 18.4724C20.2192 18.4408 18.8763 18.4152 17.5332 18.3899C17.0751 18.3813 16.6167 18.3894 16.1588 18.3765C15.193 18.3494 14.2273 18.315 13.2617 18.2807C12.4599 18.2521 11.6585 18.2112 10.8566 18.1906C10.3563 18.1777 9.85556 18.1672 9.3551 18.1611C9.34283 18.2946 9.31838 18.4286 9.28205 18.5625C9.2415 18.7118 9.18955 18.858 9.14283 19.0057C8.95181 19.4097 8.72892 19.7887 8.38392 20.0815C8.04181 20.3718 7.64775 20.542 7.19744 20.5646C7.03728 20.5727 6.87705 20.5761 6.71721 20.5693C6.71877 21.0298 6.72252 21.4903 6.71306 21.9505C6.67353 23.8725 6.62783 25.7943 6.5826 27.7161C6.61596 27.717 6.64924 27.7179 6.68252 27.7191C7.02158 27.7309 7.33595 27.8455 7.63775 27.9943C7.74955 28.0495 7.85861 28.1103 7.969 28.1683C8.16486 28.2711 8.34166 28.3989 8.48236 28.5711C8.53541 28.636 8.58533 28.7053 8.62517 28.7788C8.73103 28.9742 8.85166 29.1651 8.92822 29.372C9.03572 29.6623 9.07619 29.9589 9.05502 30.2575C9.84189 30.2874 10.6288 30.3165 11.4159 30.3379C14.2489 30.4146 17.0822 30.4814 19.9155 30.5523C19.9155 30.5513 19.9156 30.5502 19.9156 30.5492C20.9147 30.5742 21.9138 30.6071 22.913 30.6226C25.6722 30.6655 28.4314 30.7039 31.1906 30.739C31.1931 30.3579 31.2927 29.9843 31.4947 29.6197Z" fill="#16913F"/>
<path d="M12.2952 24.7275C12.1992 24.9305 12.0873 25.1209 11.9139 25.268C11.742 25.4138 11.5441 25.4993 11.3178 25.5107C11.1638 25.5184 11.0095 25.518 10.8572 25.4885C10.628 25.4443 10.4327 25.3353 10.26 25.1802C10.0784 25.0172 9.94197 24.8239 9.86345 24.5929C9.74907 24.2563 9.77212 23.9298 9.94587 23.6164C10.0379 23.4503 10.1613 23.3137 10.3183 23.2069C10.4739 23.1011 10.6451 23.0327 10.8314 23.0134C10.9572 23.0004 11.0851 23.0006 11.2117 23.0051C11.382 23.011 11.54 23.0686 11.6917 23.1434C11.7478 23.1711 11.8026 23.2016 11.8581 23.2308C11.9565 23.2824 12.0452 23.3466 12.1159 23.4331C12.1426 23.4657 12.1677 23.5005 12.1877 23.5375C12.2409 23.6356 12.3014 23.7316 12.3399 23.8355C12.4209 24.054 12.4263 24.2795 12.3651 24.505C12.3448 24.5798 12.3187 24.6533 12.2952 24.7275Z" fill="#37BC63"/>
<path d="M30.982 25.1949C30.886 25.3979 30.7741 25.5883 30.6007 25.7354C30.4288 25.8812 30.2309 25.9667 30.0046 25.9781C29.8506 25.9858 29.6963 25.9854 29.5439 25.9559C29.3148 25.9117 29.1194 25.8027 28.9467 25.6476C28.7651 25.4846 28.6287 25.2913 28.5502 25.0603C28.4358 24.7237 28.4588 24.3972 28.6326 24.0838C28.7246 23.9177 28.848 23.7812 29.005 23.6744C29.1606 23.5685 29.3318 23.5001 29.5181 23.4808C29.6439 23.4678 29.7718 23.468 29.8985 23.4725C30.0688 23.4784 30.2267 23.536 30.3784 23.6108C30.4345 23.6385 30.4893 23.669 30.5448 23.6982C30.6432 23.7498 30.732 23.814 30.8027 23.9005C30.8293 23.9331 30.8544 23.9679 30.8744 24.0049C30.9276 24.103 30.9881 24.199 31.0267 24.3029C31.1076 24.5214 31.113 24.7469 31.0518 24.9724C31.0316 25.0472 31.0055 25.1207 30.982 25.1949Z" fill="#37BC63"/>
<path d="M25.2077 26.4229C24.862 27.2532 24.3056 27.9998 23.5606 28.5522C21.7528 29.8923 19.1125 29.8937 17.3223 28.5199C17.2708 28.4801 17.2199 28.4395 17.1698 28.398C14.5367 26.2097 14.5622 21.7122 17.7398 20.0379C19.8021 18.9513 22.6995 19.3322 24.3259 21.0325C25.7238 22.4942 25.9462 24.6496 25.2077 26.4229Z" fill="#37BC63"/>
<path d="M20.8149 27.5279C20.8105 27.7036 20.8066 27.9009 20.8002 28.0982C20.7951 28.2601 20.7735 28.2865 20.6088 28.2822C20.3882 28.2765 20.1677 28.2615 19.9477 28.245C19.8168 28.2352 19.7838 28.1951 19.7853 28.0585C19.7874 27.8781 19.7938 27.6977 19.7984 27.5074C19.7217 27.4867 19.6582 27.4679 19.5938 27.4525C19.0854 27.3307 18.7139 27.0297 18.4528 26.5833C18.339 26.3887 18.3058 26.1684 18.2544 25.9547C18.2284 25.8466 18.2727 25.7856 18.383 25.7514C18.4361 25.7349 18.4939 25.7254 18.5495 25.7262C18.7645 25.7292 18.9794 25.7386 19.1944 25.7433C19.2945 25.7456 19.3432 25.7977 19.3747 25.8901C19.422 26.0286 19.4757 26.1661 19.5396 26.2978C19.6568 26.5395 19.8729 26.6474 20.1245 26.6819C20.405 26.7203 20.6893 26.6869 20.9362 26.5569C21.5268 26.2461 21.5996 25.6692 21.152 25.1944C20.9598 24.9905 20.6979 24.882 20.4388 24.7788C19.9711 24.5925 19.4993 24.4118 19.0787 24.1294C18.9251 24.0263 18.7806 23.9027 18.6542 23.7676C18.3665 23.4599 18.3045 23.089 18.4162 22.692C18.5945 22.0586 19.0134 21.6685 19.6507 21.5113C19.7327 21.4911 19.8162 21.4766 19.9167 21.4558C19.922 21.3695 19.929 21.2814 19.9324 21.1931C19.9367 21.0857 19.9371 20.978 19.9409 20.8706C19.9452 20.7521 19.9755 20.7061 20.0854 20.7044C20.3226 20.7006 20.56 20.7083 20.7973 20.7144C20.8912 20.7169 20.9419 20.7771 20.9548 20.8638C20.9688 20.9587 20.9773 21.0549 20.9797 21.1508C20.9824 21.2576 20.9756 21.3646 20.9727 21.4776C21.0534 21.5031 21.1164 21.5239 21.1799 21.5429C21.9327 21.769 22.2261 22.3261 22.4165 23.033C22.4451 23.1393 22.4008 23.2083 22.2938 23.2394C22.2352 23.2564 22.1712 23.2625 22.11 23.2608C21.963 23.2569 21.8162 23.2421 21.6691 23.2379C21.5476 23.2344 21.4747 23.1863 21.4288 23.0662C21.3851 22.9521 21.3135 22.8472 21.2452 22.7442C20.9257 22.2632 20.1195 22.3173 19.773 22.6948C19.6013 22.8818 19.5849 23.1631 19.7425 23.3643C19.8496 23.5009 19.9874 23.601 20.1496 23.66C20.33 23.7255 20.5151 23.778 20.697 23.8396C20.9432 23.9229 21.1931 23.9978 21.433 24.0969C22.1248 24.3826 22.6069 25.1076 22.5667 25.8171C22.549 26.13 22.4561 26.4183 22.2642 26.6676C22.0681 26.9224 21.8292 27.1293 21.5288 27.2534C21.3053 27.3457 21.0772 27.4275 20.8149 27.5279Z" fill="white"/>
<path d="M35.746 25.5068C35.4513 22.3023 36.0618 21.0685 35.5029 17.9722C35.4358 17.6966 34.6966 17.46 34.0951 17.472C33.673 17.4804 33.2447 17.4964 32.8226 17.5321C24.6134 18.2281 16.4071 18.965 8.19126 19.5723C7.17071 19.6723 5.02321 17.7343 4.81767 16.7515C4.07267 13.1904 4.10532 20.009 4.08157 21.2113C4.35923 23.5818 4.53657 25.962 4.73923 28.34C4.78212 28.8495 4.82501 29.359 4.86821 29.8685C4.87025 30.0817 5.01915 30.2493 5.23392 30.2832C5.60407 30.3641 6.16603 30.3023 6.59587 30.2728C7.3961 30.2144 8.19642 30.1578 8.99657 30.0983C12.6762 29.816 16.3531 29.4997 20.0315 29.2004C20.0314 29.1994 20.0313 29.1986 20.0313 29.1976C23.8892 28.894 27.7413 28.525 31.5952 28.1775C32.7999 28.0678 34.007 27.9627 35.207 27.813C35.5917 27.7848 35.9563 27.6837 35.746 25.5068Z" fill="#107B33"/>
<path d="M35.5899 26.4534C35.5568 26.1449 35.5233 25.8364 35.4897 25.528C35.4896 25.5272 35.4895 25.5265 35.4894 25.5257C35.3632 24.3681 35.2349 23.2107 35.118 22.0522C34.8882 19.7754 34.6743 17.4972 34.4436 15.2205C34.4391 15.1769 34.4348 15.1332 34.4303 15.0896C34.426 15.0471 34.4217 15.0045 34.4173 14.962C34.3648 14.4463 34.2757 13.9334 34.1755 13.4227C34.1001 13.0386 33.9408 12.9517 33.3457 12.9485C33.0839 12.9471 32.8199 12.9497 32.5565 12.9607C32.3999 12.9673 32.2435 12.9767 32.0879 12.99C32.0875 12.99 32.0871 12.9901 32.0866 12.9901C31.9245 13.0039 31.7625 13.018 31.6005 13.0322C31.5701 13.0349 31.5399 13.0375 31.5096 13.0402C31.3517 13.054 31.1938 13.068 31.0359 13.082C31.0124 13.0841 30.9889 13.0862 30.9653 13.0883C29.5888 13.211 28.213 13.3402 26.836 13.4575C24.5923 13.6488 22.3474 13.8256 20.1034 14.0137C18.6072 14.1392 17.1116 14.2717 15.616 14.4047C15.1059 14.4501 14.5975 14.5157 14.0871 14.5559C13.0104 14.6408 11.933 14.717 10.8556 14.7932C9.96101 14.8564 9.0653 14.9047 8.17155 14.9775C8.03749 14.9884 7.90335 14.9995 7.76929 15.0107C7.76921 15.0107 7.76913 15.0107 7.76905 15.0107C7.56616 15.0278 7.36335 15.0453 7.16054 15.0634C7.15249 15.0641 7.14444 15.0648 7.13632 15.0656C7.04054 15.0742 6.94476 15.0828 6.84905 15.0917C6.83788 15.0927 6.82671 15.0937 6.81562 15.0948C6.71905 15.1038 6.62249 15.1128 6.52593 15.1221C6.52194 15.1225 6.51796 15.1228 6.51397 15.1232C6.41937 15.1323 6.32476 15.1416 6.23015 15.151C6.22116 15.1519 6.2121 15.1528 6.20312 15.1537C6.11093 15.1629 6.01874 15.1724 5.92655 15.1819C5.91023 15.1836 5.8939 15.1853 5.87757 15.187C5.78694 15.1964 5.69632 15.206 5.60569 15.2159C5.59108 15.2174 5.57655 15.2191 5.56202 15.2207C5.46749 15.231 5.37288 15.2414 5.27843 15.2522C5.10015 15.2725 4.92312 15.3083 4.74796 15.3511C4.57288 15.3939 4.39976 15.4436 4.22929 15.4917C4.11991 15.5225 4.02827 15.5617 3.95538 15.609C3.94874 15.6133 3.94226 15.6177 3.93593 15.6221C3.90437 15.6443 3.87663 15.6683 3.85296 15.6939C3.84819 15.699 3.84366 15.7042 3.83921 15.7094C3.82147 15.7304 3.8064 15.7525 3.79382 15.7757C3.78444 15.7932 3.77648 15.8111 3.77007 15.8298C3.75507 15.8732 3.74812 15.9199 3.74952 15.97C3.75093 16.019 3.75155 16.0681 3.75155 16.1171C3.75163 16.2153 3.74952 16.3137 3.7471 16.4121C3.74593 16.4613 3.7446 16.5104 3.74351 16.5596C3.74241 16.6087 3.74148 16.6578 3.74093 16.707C3.73937 16.8543 3.74163 17.0014 3.75413 17.1475C3.75968 17.2119 3.76538 17.2762 3.77132 17.3406C3.7728 17.3564 3.77429 17.3721 3.77577 17.3879C3.78046 17.438 3.78515 17.488 3.78999 17.5381C3.79132 17.552 3.79273 17.5659 3.79405 17.5797C3.79929 17.6336 3.80468 17.6875 3.81015 17.7414C3.81093 17.7495 3.81179 17.7575 3.81265 17.7657C3.88851 18.5117 3.97976 19.2564 4.04421 20.0034C4.24687 22.3514 4.44257 24.7 4.63882 27.0485C4.6389 27.0491 4.6389 27.0496 4.63898 27.0501C4.69804 27.7571 4.75718 28.4641 4.81663 29.1711C4.82085 29.2214 4.82687 29.2683 4.83491 29.3119C4.83757 29.3264 4.84054 29.3406 4.84366 29.3544C4.85319 29.3958 4.86491 29.434 4.87913 29.4692C4.89335 29.5043 4.91015 29.5364 4.92976 29.5657C4.93632 29.5755 4.94312 29.5849 4.9503 29.5941C4.9539 29.5987 4.95757 29.6032 4.96132 29.6076C4.96882 29.6164 4.97671 29.6249 4.98491 29.6332C5.01358 29.6621 5.04655 29.6872 5.08429 29.7091C5.10046 29.7185 5.11749 29.7272 5.13546 29.7353C5.15343 29.7435 5.17233 29.751 5.19218 29.7581C5.21866 29.7674 5.24679 29.7757 5.27679 29.7832C5.28429 29.785 5.29187 29.7867 5.2996 29.7885C5.46179 29.8248 5.67429 29.8353 5.95132 29.8282C5.97866 29.8275 6.00608 29.8259 6.03351 29.8239C6.06093 29.822 6.08835 29.8197 6.11577 29.8178C6.11702 29.8177 6.11819 29.8176 6.11944 29.8175C6.22343 29.8102 6.32749 29.8029 6.43155 29.7957C6.4678 29.7932 6.50405 29.7907 6.5403 29.7882C6.6089 29.7835 6.67757 29.7788 6.74616 29.774C6.79054 29.771 6.83483 29.7679 6.87921 29.7649C6.92468 29.7617 6.97015 29.7587 7.01562 29.7556C7.64749 29.7124 8.27937 29.67 8.91108 29.6251H8.91124C9.38577 29.5914 9.86023 29.5563 10.3344 29.5184C13.4923 29.266 16.6492 29.0016 19.8066 28.7421C19.8065 28.7409 19.8063 28.7396 19.8062 28.7384C20.9197 28.6469 22.0341 28.5649 23.1463 28.4621C25.8384 28.213 28.5301 27.9599 31.2213 27.7035C31.2225 27.7035 31.2237 27.7033 31.2248 27.7032C31.7219 27.6559 32.2188 27.6085 32.7158 27.5609C32.8887 27.5443 33.0616 27.5267 33.2344 27.5081C33.3208 27.4988 33.4071 27.4892 33.4934 27.4794C33.925 27.4304 34.3558 27.3756 34.7851 27.3167C34.7966 27.3151 34.8079 27.3135 34.8191 27.3118C34.8219 27.3114 34.8247 27.311 34.8275 27.3106C34.8378 27.309 34.848 27.3074 34.8581 27.3057C34.859 27.3056 34.8598 27.3055 34.8606 27.3053C34.8715 27.3035 34.8823 27.3017 34.8929 27.2998C34.8953 27.2993 34.8977 27.2989 34.9001 27.2985C34.9098 27.2967 34.9193 27.2949 34.9286 27.2932C34.9297 27.2929 34.9307 27.2928 34.9318 27.2925C34.9423 27.2905 34.9526 27.2884 34.9628 27.2862C34.9646 27.2858 34.9664 27.2854 34.9681 27.285C34.9774 27.2831 34.9866 27.281 34.9958 27.2789C34.9967 27.2787 34.9977 27.2785 34.9987 27.2783C35.0088 27.276 35.0188 27.2735 35.0287 27.2711C35.0298 27.2709 35.0307 27.2707 35.0317 27.2703C35.041 27.268 35.0502 27.2657 35.0593 27.2632C35.06 27.2631 35.0607 27.2628 35.0614 27.2627C35.0712 27.26 35.081 27.2573 35.0906 27.2545C35.0908 27.2545 35.0909 27.2544 35.091 27.2544C35.1005 27.2517 35.1098 27.2489 35.1189 27.246C35.1194 27.2458 35.1198 27.2457 35.1203 27.2455C35.139 27.2396 35.1571 27.2335 35.1746 27.2271C35.1748 27.227 35.1751 27.2269 35.1753 27.2268C35.193 27.2203 35.2099 27.2136 35.2263 27.2067C35.2264 27.2067 35.2265 27.2066 35.2266 27.2066C35.4713 27.1023 35.5823 26.9385 35.6017 26.6953C35.6083 26.6143 35.5985 26.5336 35.5899 26.4534Z" fill="#37BC63"/>
<path d="M31.1766 25.3035C31.3234 24.9552 31.5385 24.6587 31.8266 24.414C32.1122 24.1714 32.4364 23.9997 32.8012 23.9219C33.0473 23.8694 33.3006 23.8426 33.5521 23.8244C33.603 23.8208 33.6536 23.8195 33.7038 23.8203C33.6307 23.1631 33.5585 22.5058 33.4911 21.8481C33.3153 20.1321 33.1513 18.415 32.977 16.6988C32.7801 16.719 32.5823 16.7265 32.3834 16.7098C31.9205 16.671 31.5107 16.4968 31.1359 16.2266C30.7417 15.9425 30.4306 15.589 30.2262 15.1484C30.117 14.9131 30.0448 14.6766 30.0105 14.439C28.7181 14.5529 27.4261 14.6735 26.1333 14.7833C24.126 14.954 22.1177 15.1126 20.1102 15.2807C18.7716 15.3927 17.4336 15.5107 16.0956 15.629C15.6392 15.6694 15.1843 15.7264 14.7277 15.7625C13.7644 15.8387 12.8006 15.9076 11.8369 15.9766C11.0366 16.0339 10.2355 16.0788 9.43586 16.144C8.93703 16.1846 8.43813 16.2276 7.93985 16.2751C7.94188 16.4091 7.93188 16.5449 7.91008 16.6819C7.8857 16.8347 7.84969 16.9856 7.81899 17.1374C7.67219 17.5596 7.4911 17.9602 7.1793 18.2882C6.87016 18.6134 6.49656 18.8247 6.05117 18.8953C5.89281 18.9204 5.73383 18.941 5.57414 18.9513C5.62485 19.409 5.67781 19.8664 5.71758 20.325C5.88352 22.2402 6.04336 24.1559 6.20367 26.0715C6.23695 26.0688 6.27016 26.0662 6.30336 26.0638C6.64172 26.0394 6.96656 26.1197 7.28258 26.2354C7.39969 26.2783 7.51453 26.3272 7.63055 26.3729C7.83625 26.4542 8.0257 26.5624 8.18399 26.7185C8.24367 26.7774 8.30071 26.8409 8.34821 26.9098C8.4743 27.0928 8.61469 27.2697 8.71289 27.4672C8.85078 27.7444 8.92266 28.035 8.93352 28.3341C9.71906 28.2798 10.5045 28.2247 11.2895 28.1619C14.1145 27.9356 16.9388 27.6994 19.7633 27.4672C19.7632 27.4662 19.7631 27.4651 19.763 27.4641C20.7591 27.3822 21.7561 27.3083 22.7512 27.217C25.4992 26.965 28.2467 26.7084 30.9938 26.4486C30.9555 26.0696 31.0145 25.6876 31.1766 25.3035Z" fill="#16913F"/>
<path d="M11.5643 22.4899C11.4905 22.702 11.3996 22.9032 11.243 23.068C11.0876 23.2314 10.9 23.3375 10.6762 23.373C10.524 23.3971 10.3705 23.4131 10.2159 23.4001C9.98327 23.3806 9.77741 23.2931 9.58913 23.1574C9.39116 23.0146 9.23484 22.837 9.1321 22.6157C8.98249 22.2933 8.97054 21.9663 9.10976 21.636C9.18351 21.461 9.29163 21.3121 9.43632 21.1892C9.57976 21.0673 9.74265 20.981 9.92585 20.942C10.0495 20.9156 10.1767 20.9021 10.3031 20.8931C10.4731 20.8808 10.6363 20.9211 10.7951 20.9792C10.8539 21.0008 10.9116 21.0253 10.9699 21.0484C11.0733 21.0892 11.1684 21.1435 11.248 21.222C11.278 21.2516 11.3066 21.2835 11.3305 21.3181C11.3938 21.4099 11.4643 21.4989 11.5137 21.5981C11.6174 21.8067 11.6469 22.0303 11.6101 22.261C11.5978 22.3378 11.5797 22.4136 11.5643 22.4899Z" fill="#37BC63"/>
<path d="M30.194 20.9587C30.1203 21.1709 30.0294 21.3721 29.8727 21.5369C29.7174 21.7002 29.5298 21.8064 29.306 21.8419C29.1537 21.866 29.0003 21.8819 28.8456 21.869C28.613 21.8494 28.4072 21.7619 28.2189 21.6262C28.0209 21.4835 27.8646 21.3059 27.7619 21.0846C27.6122 20.7622 27.6003 20.4351 27.7395 20.1049C27.8133 19.9299 27.9214 19.781 28.0661 19.658C28.2095 19.5362 28.3724 19.4499 28.5556 19.4109C28.6793 19.3844 28.8065 19.371 28.9329 19.3619C29.1029 19.3497 29.2661 19.39 29.4248 19.4481C29.4837 19.4697 29.5414 19.4942 29.5997 19.5173C29.703 19.558 29.7982 19.6124 29.8777 19.6909C29.9077 19.7205 29.9364 19.7523 29.9602 19.7869C30.0236 19.8788 30.094 19.9678 30.1434 20.0669C30.2472 20.2755 30.2766 20.4992 30.2399 20.7299C30.2276 20.8066 30.2095 20.8825 30.194 20.9587Z" fill="#37BC63"/>
<path d="M24.584 22.7965C24.329 23.659 23.8555 24.4607 23.1737 25.0895C21.5195 26.6151 18.8944 26.8985 16.9677 25.7238C16.9123 25.6897 16.8574 25.6548 16.803 25.6189C13.9512 23.7243 13.4962 19.2499 16.4768 17.2458C18.4112 15.9451 21.3328 16.0144 23.1314 17.5312C24.6775 18.8351 25.1288 20.9545 24.584 22.7965Z" fill="#37BC63"/>
<path d="M20.3343 24.3643C20.3487 24.5395 20.3658 24.7361 20.3807 24.9329C20.3929 25.0944 20.3742 25.1229 20.21 25.1363C19.9901 25.1542 19.7692 25.1627 19.5486 25.1699C19.4174 25.1742 19.3804 25.1377 19.3673 25.0019C19.35 24.8223 19.3371 24.6423 19.3215 24.4526C19.243 24.4402 19.1778 24.4283 19.1122 24.4199C18.5936 24.3531 18.1922 24.0935 17.8848 23.6774C17.7509 23.4961 17.6944 23.2806 17.6204 23.0738C17.583 22.9691 17.6206 22.9036 17.7266 22.8578C17.7776 22.8358 17.8341 22.8202 17.8894 22.815C18.1034 22.7949 18.3181 22.7813 18.5324 22.7631C18.6322 22.7547 18.6862 22.8013 18.7273 22.8897C18.7891 23.0224 18.8573 23.1534 18.9348 23.2774C19.0772 23.5052 19.3036 23.5894 19.5574 23.5968C19.8405 23.6051 20.1195 23.5415 20.3512 23.386C20.9051 23.0138 20.916 22.4324 20.4202 22.0081C20.2074 21.826 19.9354 21.7461 19.6667 21.6711C19.1818 21.5358 18.6934 21.4065 18.2451 21.1707C18.0814 21.0846 17.9244 20.9772 17.7844 20.8563C17.4655 20.5811 17.3642 20.2189 17.4329 19.8123C17.5425 19.1635 17.9174 18.7309 18.5342 18.5064C18.6136 18.4775 18.6951 18.4543 18.7928 18.4228C18.7888 18.3365 18.7863 18.2481 18.7804 18.1599C18.7731 18.0527 18.7621 17.9456 18.7544 17.8384C18.7459 17.7201 18.7712 17.6711 18.8802 17.6577C19.1157 17.6286 19.3526 17.611 19.5891 17.5917C19.6828 17.584 19.7396 17.6385 19.7617 17.7234C19.7858 17.8162 19.8045 17.911 19.8172 18.006C19.8312 18.1119 19.8359 18.2191 19.8451 18.3317C19.9281 18.3485 19.993 18.3624 20.0581 18.3746C20.8307 18.519 21.1819 19.0415 21.4467 19.7241C21.4865 19.8267 21.4498 19.8999 21.3467 19.9423C21.2903 19.9655 21.2273 19.9784 21.1663 19.9832C21.0197 19.9949 20.8722 19.996 20.7255 20.0075C20.6043 20.017 20.5267 19.977 20.4682 19.8625C20.4126 19.7537 20.3302 19.657 20.2512 19.562C19.8823 19.1178 19.0865 19.2578 18.7823 19.6702C18.6316 19.8744 18.6452 20.1558 18.8234 20.339C18.9445 20.4635 19.0921 20.5482 19.2598 20.5895C19.4462 20.6353 19.6358 20.6678 19.8232 20.7096C20.0769 20.7662 20.3334 20.8139 20.5825 20.8868C21.3008 21.097 21.8576 21.7664 21.8935 22.4761C21.9093 22.7891 21.8477 23.0856 21.6835 23.3541C21.5158 23.6283 21.3003 23.8595 21.015 24.015C20.8025 24.1307 20.5844 24.2365 20.3343 24.3643Z" fill="white"/>
<path d="M35.8227 21.9735C35.002 18.9348 34.508 15.8075 33.5849 12.8003C33.4859 12.5348 33.3241 12.4948 32.7414 12.5768C32.3324 12.6344 31.9185 12.7001 31.5129 12.7848C23.6252 14.4331 15.7452 16.1216 7.84 17.6828C6.86101 17.9011 4.53726 16.2285 4.21687 15.2774C3.05586 11.8307 3.92515 18.5928 4.04968 19.7887C4.61047 22.1086 5.07508 24.4497 5.56406 26.7856C5.66828 27.2862 5.77257 27.7868 5.87711 28.2873C5.90531 28.4986 6.07047 28.6475 6.2832 28.6562C6.65265 28.6933 7.19086 28.5663 7.60476 28.4869C8.37484 28.3356 9.14523 28.1861 9.91508 28.0337C13.4543 27.3243 16.9867 26.5815 20.5226 25.8554C20.5224 25.8545 20.5222 25.8536 20.522 25.8527C24.2318 25.1013 27.9279 24.2859 31.6284 23.4915C32.7849 23.242 33.9445 22.9969 35.0916 22.7083C35.4617 22.6355 35.9956 22.4038 35.8227 21.9735Z" fill="#107B33"/>
<path d="M36.4191 21.1266C36.349 20.8244 36.2783 20.5222 36.2076 20.2201C36.2074 20.2194 36.2073 20.2186 36.207 20.2179C35.9416 19.0841 35.6741 17.9507 35.4177 16.8149C34.914 14.5826 34.4259 12.3471 33.9213 10.115C33.9116 10.0723 33.9019 10.0295 33.8923 9.98676C33.8828 9.94504 33.8734 9.90332 33.864 9.8616C33.7494 9.35605 33.5989 8.85769 33.4376 8.36293C33.3163 7.99082 33.1475 7.92379 32.5564 7.99269C32.2964 8.02301 32.0347 8.05761 31.7745 8.10043C31.6198 8.1259 31.4657 8.15418 31.3129 8.18629C31.3125 8.18636 31.3121 8.18644 31.3117 8.18652C31.1525 8.21988 30.9934 8.25347 30.8342 8.28715C30.8045 8.29347 30.7748 8.29972 30.745 8.30605C30.5899 8.33894 30.4348 8.37183 30.2798 8.40488C30.2567 8.4098 30.2336 8.41472 30.2106 8.41965C28.8591 8.70808 27.5089 9.00285 26.1563 9.28613C23.9523 9.74761 21.7453 10.1949 19.5406 10.6533C18.0706 10.9589 16.602 11.2717 15.1336 11.5847C14.6327 11.6915 14.1359 11.8182 13.6342 11.9199C12.5757 12.1345 11.5154 12.3406 10.4552 12.5466C9.57485 12.7177 8.69164 12.8741 7.81321 13.0546C7.68141 13.0817 7.54961 13.1089 7.41789 13.1363C7.41782 13.1363 7.41774 13.1363 7.41766 13.1364C7.21836 13.1778 7.01914 13.2198 6.82 13.2623C6.81211 13.264 6.80414 13.2657 6.79625 13.2674C6.70219 13.2875 6.60821 13.3077 6.51422 13.3281C6.50329 13.3304 6.49235 13.3328 6.48141 13.3352C6.38664 13.3557 6.29188 13.3764 6.19719 13.3974C6.19328 13.3982 6.18938 13.3991 6.18547 13.4C6.09266 13.4204 5.99985 13.4411 5.90711 13.4619C5.89828 13.4639 5.88946 13.4658 5.88063 13.4678C5.79024 13.4882 5.69985 13.5087 5.60953 13.5293C5.59352 13.533 5.5775 13.5367 5.56149 13.5403C5.47266 13.5607 5.38383 13.5813 5.29508 13.602C5.28078 13.6053 5.26657 13.6087 5.25227 13.612C5.15961 13.6337 5.06703 13.6555 4.97453 13.6776C4.8 13.7193 4.6286 13.7764 4.46 13.84C4.29141 13.9037 4.12555 13.974 3.96211 14.0424C3.85727 14.0862 3.77102 14.1361 3.70438 14.192C3.69828 14.1971 3.69243 14.2022 3.68672 14.2074C3.65805 14.2332 3.63344 14.2603 3.61305 14.2886C3.60899 14.2943 3.605 14.3 3.60125 14.3057C3.58625 14.3288 3.57391 14.3525 3.5643 14.3771C3.55711 14.3955 3.55141 14.4143 3.54727 14.4336C3.53758 14.4785 3.53641 14.5257 3.54391 14.5752C3.55125 14.6236 3.55774 14.6723 3.56375 14.721C3.57571 14.8184 3.58555 14.9163 3.595 15.0143C3.59977 15.0632 3.60446 15.1122 3.6093 15.1611C3.61414 15.21 3.61922 15.2589 3.62461 15.3078C3.64094 15.4542 3.66094 15.5999 3.6911 15.7435C3.70438 15.8067 3.71789 15.8699 3.73149 15.933C3.73485 15.9485 3.73828 15.9639 3.74164 15.9795C3.75235 16.0286 3.76305 16.0777 3.77391 16.1268C3.77696 16.1404 3.78 16.1541 3.78305 16.1677C3.79477 16.2206 3.80664 16.2734 3.8186 16.3262C3.82039 16.3342 3.82219 16.3421 3.82399 16.35C3.98961 17.0814 4.17032 17.8096 4.32477 18.5433C4.81024 20.8496 5.28875 23.1571 5.76797 25.4647C5.76805 25.4653 5.76821 25.4657 5.76828 25.4663C5.9125 26.161 6.0568 26.8556 6.20141 27.5502C6.21172 27.5996 6.22328 27.6454 6.23664 27.6877C6.2411 27.7018 6.24571 27.7155 6.25047 27.7288C6.26493 27.7687 6.28118 27.8052 6.29954 27.8384C6.31789 27.8716 6.33844 27.9014 6.36149 27.9282C6.36914 27.9371 6.37711 27.9456 6.38532 27.9538C6.38946 27.9578 6.3936 27.9619 6.39789 27.9658C6.40641 27.9737 6.41524 27.9812 6.42438 27.9884C6.45633 28.0136 6.49211 28.0346 6.53219 28.0517C6.54938 28.059 6.56735 28.0657 6.58618 28.0715C6.605 28.0775 6.62469 28.0827 6.64524 28.0872C6.67266 28.0933 6.70164 28.0982 6.73227 28.1018C6.73993 28.1028 6.74774 28.1036 6.75555 28.1044C6.92094 28.1208 7.13321 28.1055 7.40735 28.065C7.43438 28.061 7.46141 28.056 7.48836 28.0507C7.51532 28.0455 7.54227 28.0399 7.56922 28.0346C7.57039 28.0344 7.57164 28.0342 7.57282 28.0339C7.67516 28.0141 7.77758 27.9943 7.87993 27.9746C7.91563 27.9677 7.95125 27.9608 7.98696 27.9539C8.05453 27.9409 8.12204 27.9279 8.18961 27.915C8.23328 27.9066 8.27696 27.8982 8.32055 27.8898C8.36532 27.8812 8.41008 27.8726 8.45485 27.864C9.07688 27.7447 9.69899 27.6261 10.3206 27.505H10.3208C10.7877 27.4141 11.2545 27.3218 11.7206 27.2268C14.8247 26.5939 17.9264 25.9493 21.0291 25.3094C21.0288 25.3082 21.0285 25.3069 21.0283 25.3057C22.1224 25.08 23.2188 24.8637 24.3104 24.627C26.9525 24.0539 29.5938 23.4767 32.2341 22.8964C32.2353 22.8961 32.2364 22.8959 32.2376 22.8956C32.7252 22.7884 33.2128 22.6812 33.7004 22.5738C33.87 22.5364 34.0395 22.498 34.2087 22.4586C34.2933 22.4389 34.3778 22.4189 34.4623 22.3987C34.8848 22.2978 35.3058 22.1913 35.7248 22.0807C35.736 22.0778 35.747 22.0748 35.758 22.0718C35.7607 22.071 35.7635 22.0702 35.7663 22.0695C35.7763 22.0667 35.7863 22.0639 35.7961 22.061C35.7969 22.0607 35.7977 22.0605 35.7985 22.0603C35.8091 22.0571 35.8195 22.054 35.8298 22.0509C35.8322 22.0502 35.8345 22.0494 35.837 22.0487C35.8463 22.0458 35.8555 22.0429 35.8646 22.04C35.8656 22.0396 35.8667 22.0393 35.8677 22.0389C35.8779 22.0357 35.8879 22.0323 35.8978 22.0289C35.8995 22.0283 35.9013 22.0278 35.903 22.0271C35.912 22.024 35.9209 22.0209 35.9297 22.0178C35.9306 22.0175 35.9316 22.0171 35.9325 22.0168C35.9423 22.0132 35.952 22.0096 35.9615 22.006C35.9624 22.0056 35.9634 22.0053 35.9644 22.0049C35.9734 22.0014 35.9822 21.9979 35.9909 21.9944C35.9916 21.9942 35.9923 21.9939 35.993 21.9936C36.0024 21.9898 36.0118 21.9859 36.0209 21.982C36.021 21.9819 36.0212 21.9819 36.0213 21.9818C36.0303 21.9779 36.0392 21.974 36.0479 21.9701C36.0484 21.9699 36.0488 21.9697 36.0492 21.9695C36.0671 21.9614 36.0843 21.9531 36.1009 21.9446C36.1011 21.9446 36.1013 21.9444 36.1015 21.9443C36.1182 21.9358 36.1343 21.9271 36.1497 21.9182C36.1498 21.9181 36.1498 21.9181 36.1499 21.918C36.3803 21.7849 36.4706 21.6088 36.4605 21.365C36.457 21.2842 36.4373 21.2052 36.4191 21.1266Z" fill="#37BC63"/>
<path d="M31.899 20.5196C32.0026 20.1561 32.1802 19.8357 32.4366 19.5579C32.6906 19.2825 32.9917 19.0728 33.3443 18.9514C33.5823 18.8695 33.8305 18.8123 34.0779 18.7638C34.128 18.7539 34.178 18.7466 34.2281 18.7413C34.0759 18.0977 33.9246 17.4541 33.7781 16.8094C33.3959 15.1273 33.0252 13.4427 32.6444 11.7602C32.4514 11.8041 32.2559 11.8355 32.0566 11.843C31.5923 11.8605 31.1645 11.7372 30.7597 11.5144C30.3341 11.2801 29.9824 10.9667 29.7262 10.5542C29.5893 10.3339 29.489 10.1078 29.4263 9.8761C28.157 10.1456 26.8892 10.4217 25.6191 10.6874C23.6474 11.0998 21.673 11.5005 19.7006 11.9103C18.3854 12.1836 17.0715 12.4627 15.7576 12.7421C15.3094 12.8374 14.8647 12.9491 14.4159 13.0402C13.4689 13.2325 12.5206 13.4177 11.5723 13.6028C10.7848 13.7566 9.99501 13.8981 9.20915 14.0596C8.71891 14.1603 8.22884 14.2635 7.74001 14.3709C7.75829 14.5037 7.76477 14.6396 7.7597 14.7783C7.75407 14.9329 7.73657 15.0871 7.72446 15.2415C7.62985 15.6783 7.4986 16.0979 7.22884 16.4613C6.96134 16.8215 6.6161 17.0765 6.18251 17.2005C6.02837 17.2445 5.87298 17.2842 5.71579 17.3138C5.82157 17.762 5.92946 18.2097 6.02446 18.6601C6.4211 20.5411 6.81165 22.4234 7.20274 24.3056C7.2354 24.2988 7.26813 24.2923 7.30079 24.2859C7.63376 24.2206 7.96587 24.261 8.29352 24.3377C8.41493 24.366 8.53485 24.4007 8.65556 24.4321C8.86962 24.4878 9.07071 24.5723 9.24673 24.7081C9.31313 24.7593 9.37743 24.8156 9.4329 24.8781C9.58024 25.0445 9.74095 25.2031 9.86243 25.3873C10.0329 25.6457 10.1394 25.9254 10.1864 26.221C10.9596 26.072 11.7327 25.9223 12.5041 25.7648C15.281 25.1982 18.0559 24.6219 20.8316 24.0495C20.8313 24.0484 20.8312 24.0474 20.8309 24.0464C21.8098 23.8445 22.7905 23.6504 23.7672 23.4394C26.4645 22.8565 29.1607 22.2692 31.8562 21.6787C31.7724 21.3069 31.7848 20.9206 31.899 20.5196Z" fill="#16913F"/>
<path d="M12.0904 20.101C12.0429 20.3205 11.977 20.5313 11.8414 20.7138C11.707 20.8948 11.5336 21.0228 11.3158 21.0851C11.1676 21.1275 11.0172 21.1619 10.862 21.1677C10.6287 21.1765 10.4139 21.1146 10.2105 21.0027C9.99672 20.8849 9.82008 20.7276 9.69133 20.5203C9.50375 20.2184 9.45226 19.8952 9.55054 19.5506C9.60258 19.3679 9.69179 19.207 9.82062 19.0674C9.94828 18.9291 10.0995 18.8238 10.2766 18.7627C10.3962 18.7216 10.5209 18.6928 10.6452 18.6685C10.8124 18.6357 10.9793 18.656 11.1439 18.6945C11.2049 18.7088 11.2652 18.7262 11.3258 18.742C11.4333 18.7699 11.5344 18.8124 11.6228 18.8806C11.6562 18.9063 11.6884 18.9346 11.7163 18.966C11.7903 19.0496 11.8711 19.1293 11.9321 19.2218C12.0604 19.4163 12.1167 19.6348 12.1081 19.8682C12.1053 19.946 12.0965 20.0235 12.0904 20.101Z" fill="#37BC63"/>
<path d="M30.3978 16.3256C30.3503 16.5451 30.2844 16.7559 30.1488 16.9384C30.0144 17.1194 29.841 17.2474 29.6232 17.3097C29.475 17.3521 29.3246 17.3865 29.1694 17.3924C28.9362 17.4011 28.7213 17.3392 28.518 17.2273C28.3041 17.1095 28.1275 16.9522 27.9987 16.7449C27.8112 16.443 27.7597 16.1198 27.858 15.7752C27.91 15.5925 27.9992 15.4316 28.128 15.292C28.2557 15.1537 28.4069 15.0484 28.5841 14.9874C28.7036 14.9462 28.8283 14.9174 28.9526 14.8931C29.1198 14.8603 29.2867 14.8806 29.4513 14.9192C29.5123 14.9334 29.5726 14.9508 29.6332 14.9666C29.7407 14.9945 29.8418 15.037 29.9302 15.1052C29.9636 15.1309 29.9959 15.1592 30.0237 15.1906C30.0977 15.2742 30.1785 15.3539 30.2395 15.4464C30.3678 15.6409 30.4241 15.8594 30.4155 16.0928C30.4127 16.1706 30.4039 16.2481 30.3978 16.3256Z" fill="#37BC63"/>
<path d="M25.0516 18.8292C24.9027 19.7162 24.5298 20.5694 23.9292 21.276C22.4719 22.9907 19.9004 23.5897 17.8456 22.6569C17.7865 22.6298 17.7277 22.6018 17.6694 22.5728C14.6092 21.0374 13.6159 16.6509 16.3319 14.3008C18.0946 12.7755 21.003 12.4905 22.9721 13.7784C24.6647 14.8856 25.3693 16.9347 25.0516 18.8292Z" fill="#37BC63"/>
<path d="M16.7331 19.9474L16.0888 15.7855L16.8933 15.661L17.5376 19.8229L16.7331 19.9474ZM16.8967 18.3027L16.7853 17.5833L18.1344 17.3744C18.3489 17.3412 18.5062 17.2661 18.6064 17.1492C18.706 17.0282 18.7419 16.8786 18.7143 16.7002L19.5497 16.5709C19.6105 16.9633 19.5311 17.2962 19.3115 17.5697C19.096 17.8425 18.7676 18.0131 18.3262 18.0814L16.8967 18.3027ZM18.7143 16.7002C18.6867 16.5218 18.6075 16.392 18.4766 16.3108C18.3452 16.2257 18.1722 16.1997 17.9576 16.2329L16.6086 16.4417L16.4973 15.7223L17.9267 15.501C18.3682 15.4327 18.7328 15.496 19.0206 15.6909C19.3126 15.8851 19.489 16.1785 19.5497 16.5709L18.7143 16.7002ZM19.097 19.5815L17.8642 17.9216L18.6454 17.6058L19.9869 19.395L19.9943 19.4426L19.097 19.5815Z" fill="white"/>
<path d="M22.3602 19.1738C22.1209 19.2108 21.9011 19.1961 21.7008 19.1297C21.5004 19.0633 21.329 18.9661 21.1867 18.8379C21.0485 18.7092 20.9447 18.571 20.8754 18.4234L20.6729 17.1154C20.6944 16.9538 20.7518 16.7927 20.8452 16.6321C20.9422 16.467 21.0764 16.3244 21.2479 16.2045C21.4188 16.0806 21.6239 16.0002 21.8632 15.9631C22.152 15.9184 22.4206 15.9479 22.669 16.0515C22.9209 16.1505 23.1315 16.3107 23.301 16.532C23.4739 16.7488 23.5846 17.0137 23.6331 17.3269C23.6816 17.64 23.6568 17.93 23.5587 18.1968C23.4641 18.459 23.312 18.6774 23.1025 18.8519C22.8964 19.0218 22.649 19.1291 22.3602 19.1738ZM20.735 20.5455L20.0834 16.3361L20.8569 16.2163L20.9867 17.0547L20.905 17.7553L21.2566 18.3888L21.5704 20.4162L20.735 20.5455ZM22.1013 18.4833C22.2704 18.4571 22.411 18.3968 22.5231 18.3023C22.6352 18.2078 22.7159 18.0878 22.7652 17.9422C22.8145 17.7965 22.8256 17.6365 22.7986 17.4621C22.771 17.2838 22.712 17.1346 22.6216 17.0147C22.5306 16.8907 22.4174 16.8007 22.282 16.7446C22.1466 16.6884 21.9943 16.6734 21.8252 16.6996C21.6601 16.7252 21.5195 16.7855 21.4033 16.8806C21.2912 16.9751 21.2105 17.0951 21.1612 17.2407C21.1113 17.3824 21.1002 17.5424 21.1278 17.7208C21.1548 17.8952 21.2138 18.0443 21.3048 18.1682C21.3958 18.2921 21.509 18.3822 21.6444 18.4383C21.784 18.4938 21.9362 18.5088 22.1013 18.4833Z" fill="white"/>
</svg>
