<svg width="40" height="40" viewBox="0 0 40 40" fill="none" xmlns="http://www.w3.org/2000/svg">
<path d="M27.9212 2.45108L6.51496 14.81L6.80599 15.3141C6.96687 15.5927 6.88886 15.9383 6.63167 16.0868C6.37443 16.2354 6.03613 16.13 5.87529 15.8514L5.58426 15.3473L0.9307 18.0341C0.416719 18.3308 0.260582 19.0228 0.582063 19.5796L3.14408 24.0171C3.29079 24.2712 3.54556 24.4461 3.82222 24.4646C5.10848 24.5505 6.3678 25.3021 7.1 26.5703C7.83216 27.8384 7.85337 29.3048 7.28464 30.4617C7.16234 30.7106 7.18644 31.0187 7.33312 31.2728L9.89514 35.7103C10.2166 36.2671 10.8939 36.4779 11.4079 36.1811L16.0615 33.4944L15.7704 32.9903C15.6095 32.7116 15.6876 32.366 15.9447 32.2175C16.202 32.069 16.5403 32.1744 16.7011 32.453L16.9922 32.957L38.3984 20.5981C38.9124 20.3014 39.0685 19.6094 38.7471 19.0526L29.434 2.9219C29.1125 2.36508 28.4352 2.15434 27.9212 2.45108ZM15.537 30.4366C15.6979 30.7153 15.6199 31.0609 15.3627 31.2094C15.1054 31.3579 14.7671 31.2526 14.6063 30.974L14.0242 29.9658C13.8634 29.6872 13.9414 29.3415 14.1986 29.1931C14.4558 29.0445 14.7941 29.1499 14.9549 29.4285L15.537 30.4366ZM13.7908 27.4121C13.9517 27.6907 13.8736 28.0363 13.6165 28.1848C13.3592 28.3334 13.0209 28.228 12.8601 27.9494L12.278 26.9413C12.1171 26.6626 12.1951 26.317 12.4523 26.1685C12.7096 26.02 13.0479 26.1253 13.2087 26.4039L13.7908 27.4121ZM12.0446 24.3876C12.2055 24.6663 12.1275 25.0119 11.8703 25.1604C11.613 25.3089 11.2747 25.2035 11.1139 24.9249L10.5318 23.9168C10.3709 23.6381 10.449 23.2925 10.7061 23.144C10.9634 22.9955 11.3017 23.1008 11.4625 23.3794L12.0446 24.3876ZM10.2984 21.3631C10.4593 21.6418 10.3813 21.9874 10.1241 22.1359C9.86684 22.2844 9.52855 22.179 9.3677 21.9005L8.78564 20.8923C8.62476 20.6136 8.70277 20.268 8.95996 20.1195C9.2172 19.971 9.55549 20.0764 9.71634 20.355L10.2984 21.3631ZM8.55218 18.3386C8.71306 18.6172 8.63505 18.9628 8.37786 19.1113C8.12061 19.2598 7.78232 19.1545 7.62148 18.8759L7.03941 17.8677C6.87853 17.5891 6.95654 17.2435 7.21373 17.095C7.47098 16.9465 7.80927 17.0518 7.97011 17.3304L8.55218 18.3386Z" fill="#1C6EA4"/>
<path d="M9.27848 14.8752L28.0858 4.01684C28.1633 3.97229 28.32 3.9889 28.4127 4.14947L37.0787 19.1595C37.1714 19.32 37.1075 19.464 37.0301 19.5089L18.2228 30.3673C18.1452 30.4117 17.9885 30.3951 17.8959 30.2346L9.22988 15.2247C9.13724 15.0642 9.20119 14.9202 9.27848 14.8752Z" fill="#1AB6BE" stroke="#B8E9E9" stroke-width="0.6"/>
<path d="M15.348 20.0009L26.4505 19.1362L24.7904 16.2608L30.3976 13.0235L19.2258 13.7684L20.9551 16.7636L15.348 20.0009Z" fill="white"/>
</svg>
