<svg width="40" height="40" viewBox="0 0 40 40" fill="none" xmlns="http://www.w3.org/2000/svg">
<g clip-path="url(#clip0_1466_18950)">
<path fill-rule="evenodd" clip-rule="evenodd" d="M19.9883 40C8.97481 40 0 31.0252 0 19.9883C0 8.97481 8.97481 0 19.9883 0C31.0252 0 40 8.97481 40 19.9883C40 31.0252 31.0252 40 19.9883 40Z" fill="#31C964"/>
<path fill-rule="evenodd" clip-rule="evenodd" d="M19.9883 37.6332C10.2636 37.6332 2.34329 29.7364 2.34329 19.9883C2.34329 10.2636 10.2636 2.34326 19.9883 2.34326C29.7364 2.34326 37.6333 10.2636 37.6333 19.9883C37.6333 29.7364 29.7364 37.6332 19.9883 37.6332Z" fill="#16913F"/>
<path fill-rule="evenodd" clip-rule="evenodd" d="M17.1763 27.768C17.0357 27.768 16.8951 27.7211 16.8014 27.6274L10.3105 21.1364C10.2168 21.0193 10.1465 20.9021 10.1465 20.7615C10.1465 20.6209 10.2168 20.4803 10.3105 20.3866L12.6772 18.0199C12.8881 17.809 13.2162 17.809 13.4271 18.0199L17.1763 21.7457L26.5495 12.3725C26.7604 12.1851 27.1119 12.1851 27.2994 12.3725L29.6895 14.7393C29.877 14.9502 29.877 15.2782 29.6895 15.4891L17.5513 27.6274C17.4575 27.7211 17.3169 27.768 17.1763 27.768Z" fill="white"/>
</g>
<defs>
<clipPath id="clip0_1466_18950">
<rect width="40" height="40" fill="white"/>
</clipPath>
</defs>
</svg>
