<svg width="40" height="40" viewBox="0 0 40 40" fill="none" xmlns="http://www.w3.org/2000/svg">
<g clip-path="url(#clip0_1466_13378)">
<path fill-rule="evenodd" clip-rule="evenodd" d="M4.00499 22.6772C3.64226 23.683 3.86585 24.8526 4.6757 25.6604C5.79132 26.7709 7.5982 26.7732 8.71609 25.6649L7.15562 27.2237C6.03546 28.3387 6.03546 30.1455 7.15562 31.2605C8.27124 32.3732 10.0826 32.3732 11.2005 31.2605L12.7701 29.6949C11.6523 30.8099 11.6523 32.6167 12.7701 33.7317C13.8858 34.8467 15.6972 34.8467 16.8151 33.7317L17.9444 32.6053C16.831 33.7181 16.8334 35.518 17.9466 36.6285C19.0668 37.7457 20.8851 37.7457 22.0052 36.6285L25.9361 32.7078L31.5416 27.1168L36.6565 22.0151C41.1144 17.571 41.1144 10.3622 36.6565 5.91807C32.1735 1.4444 24.9666 1.383 20.4698 5.87026C20.2187 6.12081 18.4533 7.883 16.1716 10.1572L5.07702 11.6328C5.07702 11.6328 4.14187 22.2927 4.00499 22.6772Z" fill="#FED2A4"/>
<path fill-rule="evenodd" clip-rule="evenodd" d="M3.34343 22.0154L4.00507 22.6776C4.14195 22.2931 4.36554 21.9312 4.67578 21.624L9.74961 16.5632L14.2189 12.1032L16.1718 10.1577L21.9529 15.9261C23.0115 16.982 24.7248 16.982 25.7834 15.9261C26.8397 14.8725 26.8397 13.1613 25.7834 12.1078L20 6.33938L19.53 5.87063C15.0721 1.42431 7.84687 1.42431 3.39132 5.87063L3.34343 5.91845C-1.11446 10.3625 -1.11446 17.5713 3.34343 22.0154Z" fill="#F6A96C"/>
<path fill-rule="evenodd" clip-rule="evenodd" d="M3.79742 5.48351C8.07735 3.33312 13.4295 4.03859 17.0023 7.60203L17.4723 8.07078L23.2556 13.8392C24.0359 14.6174 24.2412 15.753 23.8693 16.7177C24.5628 16.7177 25.2541 16.4537 25.7834 15.9259C26.8398 14.8723 26.8398 13.1611 25.7834 12.1076L20 6.33906L19.53 5.87031C15.2067 1.5582 8.27813 1.42851 3.79742 5.48351Z" fill="#EA9B58"/>
<path fill-rule="evenodd" clip-rule="evenodd" d="M7.96328 10.4122C9.20438 11.1221 10.3656 11.2223 11.2896 11.0448C11.8965 10.931 13.1421 10.576 12.2181 11.3405L2.46735 21.0366C2.46735 21.0366 3.0286 21.701 3.34344 22.015L4.00508 22.6772C4.14196 22.2927 4.36555 21.9308 4.67578 21.6236L9.74961 16.5628L14.2189 12.1028L14.8121 11.5112L16.1718 10.1573L13.8745 7.86812C13.8745 7.86812 10.6257 10.6624 7.82188 7.86812C7.24461 7.29242 4.52289 8.44609 7.96328 10.4122Z" fill="#EA9B58"/>
<path fill-rule="evenodd" clip-rule="evenodd" d="M12.809 18.3128L7.08264 24.0243C6.25679 24.8481 5.05218 25.0643 4.0278 24.6706C4.16694 25.0301 4.38374 25.3692 4.67569 25.6604C5.79132 26.7709 7.59819 26.7732 8.71608 25.665L8.72061 25.6604L14.4469 19.9489C15.5444 19.0228 13.8858 17.3844 12.809 18.3128Z" fill="#FFBD86"/>
<path fill-rule="evenodd" clip-rule="evenodd" d="M18.8159 23.6647C19.603 22.9047 18.2433 21.2709 17.1186 22.4565L11.4972 28.0611L9.92983 29.6266C8.98304 30.571 7.53436 30.7144 6.43468 30.0567C6.56476 30.4958 6.80655 30.9123 7.15561 31.2604C8.27124 32.3732 10.0826 32.3732 11.2005 31.2604L12.7701 29.6949L18.1976 24.2815L18.8159 23.6647Z" fill="#FFBD86"/>
<path fill-rule="evenodd" clip-rule="evenodd" d="M23.073 27.49C24.0837 26.3158 22.7468 24.616 21.3505 26.061L15.9687 31.4084L14.8395 32.5325C14.187 33.1855 13.2949 33.4563 12.444 33.3448C12.5398 33.4814 12.647 33.6111 12.7702 33.7316C13.8859 34.8466 15.6973 34.8466 16.8152 33.7316L17.9376 32.6121C19.6509 30.9055 21.362 29.1989 23.073 27.49Z" fill="#FFBD86"/>
<path fill-rule="evenodd" clip-rule="evenodd" d="M20.3331 35.1016C19.603 35.8298 18.1749 35.6796 17.2373 35.4612C17.3719 35.889 17.6069 36.2917 17.9468 36.6285C19.0669 37.7458 20.8852 37.7458 22.0054 36.6285L25.9362 32.7078L31.5417 27.1169L36.6566 22.0152C41.1145 17.5711 41.1145 10.3623 36.6566 5.91812C36.2163 5.47664 35.7463 5.07843 35.2581 4.72351C39.0248 9.19492 39.2026 16.2809 34.9844 20.486L29.8694 25.5877L24.264 31.1809L20.3331 35.1016Z" fill="#FFBD86"/>
</g>
<defs>
<clipPath id="clip0_1466_13378">
<rect width="40" height="40" fill="white"/>
</clipPath>
</defs>
</svg>
