<svg width="40" height="40" viewBox="0 0 40 40" fill="none" xmlns="http://www.w3.org/2000/svg">
<path d="M28.1765 35.1765C23.1176 40.2353 13.8235 39.0589 7.35294 32.6471C0.941179 26.1765 -0.176469 16.8236 4.88235 11.8236L6.47059 10.2354L29.8235 33.5295L28.1765 35.1765Z" fill="#CC104A"/>
<path d="M29.7059 33.6471C24.6471 38.7059 15.3529 37.5294 8.88236 31.1176C2.41177 24.6471 1.29412 15.3529 6.35295 10.2941C11.4118 5.2353 20.7059 6.41177 27.1177 12.8235C29.0588 14.7647 30.5294 17 31.4706 19.2353C31.7647 20 32.0588 20.7059 32.2353 21.4706C33.5294 26.0588 32.7059 30.6471 29.7059 33.6471Z" fill="#F34B58"/>
<path d="M25.5882 14.4118C30.5882 19.4118 31.4706 26.6471 27.5882 30.5883C23.7059 34.5295 16.4118 33.5883 11.4118 28.5883C6.41177 23.5883 5.52941 16.353 9.41177 12.4118C13.2941 8.47064 20.5882 9.41182 25.5882 14.4118Z" fill="white"/>
<path d="M24.0588 15.9412C27.7059 19.5883 28.3529 24.8824 25.5294 27.7059C22.7059 30.5294 17.4118 29.9412 13.7647 26.2353C10.1176 22.5883 9.47059 17.2941 12.2941 14.4706C15.1176 11.6471 20.4118 12.2941 24.0588 15.9412Z" fill="#F34B58"/>
<path d="M22.4118 17.5882C24.7647 19.9411 25.1765 23.2941 23.3529 25.1176C21.5294 26.9411 18.1765 26.5294 15.8235 24.1764C13.4706 21.8235 13.0588 18.4705 14.8824 16.647C16.7059 14.8235 20.1176 15.2353 22.4118 17.5882Z" fill="white"/>
<path d="M20.8824 19.1177C22 20.2353 22.2353 21.8824 21.3529 22.8236C20.4118 23.7059 18.7647 23.5295 17.6471 22.353C16.5294 21.2353 16.2941 19.5883 17.1765 18.7059C18.0588 17.8236 19.7059 18 20.8824 19.1177Z" fill="#F34B58"/>
<g opacity="0.2">
<path d="M32.2941 21.5294L19.5294 21.5882C18.0588 21.5882 18 19.3529 19.5294 19.3529L31.5294 19.2941C31.8235 20.0588 32.0588 20.7647 32.2941 21.5294Z" fill="#1D2943"/>
</g>
<path d="M10.2353 29.7647C8.70588 28.6471 7.47059 27.1176 6.58823 25.4706C5.70588 23.7647 5.17647 21.8824 5.23529 20C5.7647 21.8235 6.41176 23.5294 7.29411 25.1176C8.11764 26.7059 9.11764 28.2353 10.2353 29.7647Z" fill="white"/>
<path d="M35.3529 4.64713C35.8235 5.11772 35.8235 5.8236 35.3529 6.23537L20.2941 21.2354C19.8824 21.6471 19.1765 21.6471 18.7059 21.2354C18.2941 20.8236 18.2941 20.1177 18.7059 19.6471L33.7647 4.64713C34.2353 4.17654 34.9412 4.17654 35.3529 4.64713Z" fill="#1D2943"/>
<path d="M35.1177 6.41174L37.7647 7.17645C38.2353 7.2941 38.4118 7.88233 38.0588 8.23527L37.3529 8.94116C37.0588 9.23527 36.5882 9.35292 36.1765 9.23527L35.2941 8.99998L35.4706 9.17645C35.9412 9.64704 35.9412 10.4117 35.4706 10.8823L34 12.3529C33.7059 12.647 33.2353 12.7647 32.8235 12.647L29.7647 11.7647L35.1177 6.41174Z" fill="#FFD06C"/>
<path d="M33.5882 4.82355L32.8235 2.17649C32.7059 1.7059 32.1176 1.52943 31.7647 1.88237L29.6471 4.00002C29.3529 4.29414 29.2353 4.76472 29.3529 5.17649L29.5882 6.05884L29 5.47061C28.7647 5.23531 28.3529 5.23531 28.1176 5.47061L27.6471 6.00002C27.3529 6.29414 27.2353 6.76472 27.3529 7.17649L28.2353 10.1765L33.5882 4.82355Z" fill="#FFD06C"/>
<path d="M29.5294 9.88235C30.0588 9.17647 30.7059 8.47059 31.3529 7.82353C31.7059 7.52941 32.7647 6.47059 32.3529 6.88235C32.7059 6.58824 33.0588 6.29412 33.4118 6C33.1177 6.35294 32.8235 6.70588 32.5294 7.05882C32.2353 7.41176 31.8824 7.70588 31.5882 8.05882C30.9412 8.70588 30.2941 9.29412 29.5294 9.88235Z" fill="white"/>
</svg>
