<svg width="40" height="40" viewBox="0 0 40 40" fill="none" xmlns="http://www.w3.org/2000/svg">
<ellipse cx="17.9054" cy="18.861" rx="12.5" ry="15" fill="white"/>
<path d="M22.5002 5.00037C30.7842 5.00068 37.5002 11.7163 37.5002 20.0004C37.5002 28.2844 30.7842 35 22.5002 35.0004C14.2159 35.0004 7.50019 28.2846 7.50018 20.0004C7.50018 16.259 8.87184 12.8398 11.1372 10.2124L10.0002 27.8575L17.143 32.8575L20.0002 31.4289L27.8573 20.0004L22.8573 5.71465H17.9187C19.3629 5.25193 20.9024 5.00037 22.5002 5.00037Z" fill="#F39200"/>
<path d="M37.5002 20.0003C37.5002 11.7163 30.7842 5.00066 22.5002 5.00035C20.9024 5.00035 19.3629 5.25192 17.9187 5.71463H22.8573L27.8573 20.0003L20.0002 31.4289L17.1431 32.8575L10.0002 27.8575L11.1372 10.2124C8.87185 12.8398 7.5002 16.259 7.5002 20.0003C7.5002 28.2846 14.2159 35.0003 22.5002 35.0003C30.7842 35 37.5002 28.2844 37.5002 20.0003ZM38.9078 20.8458C38.482 29.246 31.7457 35.9819 23.3456 36.408L22.5002 36.4289C13.7105 36.4289 6.53256 29.5261 6.09255 20.8458L6.07162 20.0003C6.07162 15.9031 7.57466 12.1554 10.0546 9.27909L12.8364 6.05364L11.4776 27.1474L17.2644 31.1987L19.0306 30.3156L26.2683 19.7883L21.8431 7.14321H17.9187L17.4835 4.35442C19.0657 3.84753 20.7518 3.57178 22.5002 3.57178L23.3456 3.5927C32.0257 4.033 38.9288 11.2108 38.9288 20.0003L38.9078 20.8458Z" fill="#FFC121"/>
<path d="M17.5835 30.3335L24.8735 15.7385H19.8335V6.3335L12.3335 20.9285H17.5835V30.3335ZM18.3335 3.3335C22.4585 3.3335 25.9835 4.8335 28.9085 7.7585C31.8335 10.6835 33.3335 14.2085 33.3335 18.3335C33.3335 22.4585 31.8335 25.9835 28.9085 28.9085C25.9835 31.8335 22.4585 33.3335 18.3335 33.3335C14.2085 33.3335 10.6835 31.8335 7.7585 28.9085C4.8335 25.9835 3.3335 22.4585 3.3335 18.3335C3.3335 14.2085 4.8335 10.6835 7.7585 7.7585C10.6835 4.8335 14.2085 3.3335 18.3335 3.3335Z" fill="#F3AF00"/>
<path d="M17.5835 30.3335L24.8735 15.7385H19.8335V6.3335L12.3335 20.9285H17.5835V30.3335ZM18.3335 3.3335C22.4585 3.3335 25.9835 4.8335 28.9085 7.7585C31.8335 10.6835 33.3335 14.2085 33.3335 18.3335C33.3335 22.4585 31.8335 25.9835 28.9085 28.9085C25.9835 31.8335 22.4585 33.3335 18.3335 33.3335C14.2085 33.3335 10.6835 31.8335 7.75847 28.9085C4.83347 25.9835 3.33347 22.4585 3.33347 18.3335C3.33347 14.2085 4.83347 10.6835 7.75847 7.7585C10.6835 4.8335 14.2085 3.3335 18.3335 3.3335Z" fill="#F3AF00"/>
<path d="M32.8571 18.5715C32.8571 10.6817 26.4612 4.28575 18.5714 4.28575C10.6816 4.28575 4.28572 10.6817 4.28572 18.5715C4.28572 26.4612 10.6816 32.8572 18.5714 32.8572V34.2857C9.89267 34.2857 2.85715 27.2502 2.85715 18.5715C2.85715 9.8927 9.89267 2.85718 18.5714 2.85718C27.2502 2.85718 34.2857 9.8927 34.2857 18.5715C34.2857 27.2502 27.2502 34.2857 18.5714 34.2857V32.8572C26.4612 32.8572 32.8571 26.4612 32.8571 18.5715Z" fill="#FFC121"/>
</svg>
