<svg width="40" height="40" viewBox="0 0 40 40" fill="none" xmlns="http://www.w3.org/2000/svg">
<path d="M20 4C11.1561 4 4 11.1567 4 20C4 28.8439 11.1567 36 20 36C28.8439 36 36 28.8433 36 20C36 11.1561 28.8433 4 20 4ZM20 33.5C12.5379 33.5 6.5 27.4616 6.5 20C6.5 12.5379 12.5384 6.5 20 6.5C27.4621 6.5 33.5 12.5384 33.5 20C33.5 27.4621 27.4615 33.5 20 33.5Z" fill="black"/>
<path d="M20 17.3956C19.3096 17.3956 18.75 17.9553 18.75 18.6456V26.6952C18.75 27.3856 19.3096 27.9452 20 27.9452C20.6904 27.9452 21.25 27.3855 21.25 26.6951V18.6456C21.25 17.9553 20.6904 17.3956 20 17.3956Z" fill="black"/>
<path d="M20 15.865C20.932 15.865 21.6875 15.1095 21.6875 14.1775C21.6875 13.2455 20.932 12.49 20 12.49C19.068 12.49 18.3125 13.2455 18.3125 14.1775C18.3125 15.1095 19.068 15.865 20 15.865Z" fill="black"/>
</svg>
