<svg width="40" height="40" viewBox="0 0 40 40" fill="none" xmlns="http://www.w3.org/2000/svg">
<path d="M25.3185 25.1428C28.7086 19.7995 28.2824 20.4661 28.3801 20.3268C29.6143 18.5782 30.2667 16.5201 30.2667 14.375C30.2667 8.68625 25.6709 4 20 4C14.3476 4 9.73333 8.677 9.73333 14.375C9.73333 16.5188 10.3994 18.6307 11.674 20.4029L14.6814 25.1429C11.466 25.6392 6 27.1182 6 30.375C6 31.5622 6.77143 33.2541 10.4465 34.5724C13.0127 35.493 16.4055 36 20 36C26.7216 36 34 34.0955 34 30.375C34 27.1177 28.5404 25.6402 25.3185 25.1428ZM13.2333 19.3716C13.223 19.3554 13.2123 19.3397 13.2011 19.3242C12.1404 17.8584 11.6 16.1213 11.6 14.375C11.6 9.68638 15.3586 5.875 20 5.875C24.6318 5.875 28.4 9.68806 28.4 14.375C28.4 16.1241 27.8698 17.8023 26.8665 19.2294C26.7766 19.3486 27.2457 18.6166 20 30.0368L13.2333 19.3716ZM20 34.125C12.6582 34.125 7.86667 31.9573 7.86667 30.375C7.86667 29.3115 10.3287 27.5628 15.7843 26.8812L19.2129 32.2851C19.3842 32.5553 19.681 32.7188 19.9999 32.7188C20.3188 32.7188 20.6157 32.5552 20.787 32.2851L24.2155 26.8812C29.6713 27.5628 32.1333 29.3115 32.1333 30.375C32.1333 31.9439 27.385 34.125 20 34.125Z" fill="black"/>
<path d="M20 9.6875C17.4268 9.6875 15.3333 11.7903 15.3333 14.375C15.3333 16.9597 17.4268 19.0625 20 19.0625C22.5732 19.0625 24.6667 16.9597 24.6667 14.375C24.6667 11.7903 22.5732 9.6875 20 9.6875ZM20 17.1875C18.4561 17.1875 17.2 15.9258 17.2 14.375C17.2 12.8242 18.4561 11.5625 20 11.5625C21.5439 11.5625 22.8 12.8242 22.8 14.375C22.8 15.9258 21.5439 17.1875 20 17.1875Z" fill="black"/>
</svg>
