<svg width="40" height="40" viewBox="0 0 40 40" fill="none" xmlns="http://www.w3.org/2000/svg">
<path d="M29.541 4C30.3188 4 31.0621 4.3711 31.5293 4.99316L35.1865 9.86914C35.7121 10.5701 36 11.4385 36 12.3145V23.29C35.4436 22.9421 34.8447 22.6563 34.2119 22.4434V12.3145C34.2119 12.2602 34.2044 12.2056 34.1982 12.1484H24.0752V15.2295C24.0751 16.1588 23.315 16.9188 22.3857 16.9189H17.6152C16.686 16.9187 15.9259 16.1587 15.9258 15.2295V12.1484H5.80371C5.79752 12.2055 5.79004 12.2597 5.79004 12.3145V33.5146C5.79008 33.8976 6.10147 34.2097 6.48438 34.21H23.8506C24.1651 34.8571 24.5604 35.4574 25.0215 36H6.48438C5.11457 35.9999 4.00004 34.8854 4 33.5156V12.3154C4 11.4394 4.28893 10.571 4.81445 9.87012L8.47168 4.99414C8.93878 4.37135 9.6823 4.00013 10.46 4H29.541ZM12.0508 30.2354C12.5443 30.2356 12.9442 30.6364 12.9443 31.1299C12.9443 31.6234 12.5443 32.0232 12.0508 32.0234H8.87012C8.37642 32.0234 7.97567 31.6235 7.97559 31.1299C7.97569 30.6362 8.37644 30.2354 8.87012 30.2354H12.0508ZM15.2305 27.0547C15.7241 27.0549 16.125 27.4566 16.125 27.9502C16.1248 28.4436 15.7239 28.8445 15.2305 28.8447H8.87012C8.37651 28.8447 7.97581 28.4437 7.97559 27.9502C7.9756 27.4565 8.37638 27.0547 8.87012 27.0547H15.2305ZM17.7158 15.1299H22.2861V12.1484H17.7158V15.1299ZM10.46 5.78906C10.2426 5.78919 10.0339 5.89227 9.90332 6.06641L6.68359 10.3594H16.0547L16.7773 5.78906H10.46ZM17.8682 10.3594H22.1338L21.4131 5.78906H18.5889L17.8682 10.3594ZM23.9473 10.3594H33.3174L30.0986 6.06738C29.968 5.89305 29.7586 5.78906 29.541 5.78906H23.2236L23.9473 10.3594Z" fill="black"/>
<path d="M35.2574 27.8029C35.5168 28.0623 35.5168 28.4828 35.2574 28.7421L30.8025 33.1971C30.5431 33.4564 30.1227 33.4564 29.8633 33.1971L27.7426 31.0763C27.4832 30.817 27.4832 30.3965 27.7426 30.1372C28.0019 29.8778 28.4224 29.8778 28.6816 30.1372L30.3328 31.7884L34.3182 27.8029C34.5776 27.5436 34.9981 27.5436 35.2574 27.8029ZM40 30.5C40 35.1984 36.1977 39 31.5 39C26.8016 39 23 35.1977 23 30.5C23 25.8016 26.8023 22 31.5 22C36.1984 22 40 25.8023 40 30.5ZM38.6719 30.5C38.6719 26.5357 35.4638 23.3281 31.5 23.3281C27.5357 23.3281 24.3281 26.5362 24.3281 30.5C24.3281 34.4643 27.5362 37.6719 31.5 37.6719C35.4643 37.6719 38.6719 34.4638 38.6719 30.5Z" fill="black"/>
</svg>
