<svg width="40" height="40" viewBox="0 0 40 40" fill="none" xmlns="http://www.w3.org/2000/svg">
<path d="M19.9978 25.5877C16.9522 25.5877 14.4725 23.084 14.4725 20.0089C14.4725 16.9339 16.9522 14.4301 19.9978 14.4301C23.0433 14.4301 25.5231 16.9339 25.5231 20.0089C25.5231 23.084 23.0433 25.5877 19.9978 25.5877ZM19.9978 16.6616C18.1678 16.6616 16.6826 18.1612 16.6826 20.0089C16.6826 21.8566 18.1678 23.3562 19.9978 23.3562C21.8278 23.3562 23.313 21.8566 23.313 20.0089C23.313 18.1612 21.8278 16.6616 19.9978 16.6616Z" fill="black"/>
<path d="M19.9978 36C18.5303 36 17.7169 36 16.9743 35.6876C15.9754 35.2681 15.1974 34.4826 14.7819 33.4739C14.5565 32.925 14.5078 32.3492 14.4857 31.8047C14.4681 31.3361 14.2382 30.93 13.8713 30.7158C13.5044 30.5015 13.0403 30.506 12.6337 30.7247C12.1563 30.9791 11.6347 31.2245 11.0556 31.3004C9.98151 31.4432 8.92066 31.1531 8.05871 30.4881C7.41777 29.9927 7.01553 29.2876 6.28177 28.0022C5.54801 26.7169 5.14135 26.0073 5.03526 25.1994C4.89381 24.1149 5.18113 23.0438 5.83974 22.1735C6.19778 21.7049 6.66633 21.3702 7.12604 21.0801C7.51944 20.8301 7.75371 20.4285 7.75371 20C7.75371 19.5715 7.51944 19.1699 7.12604 18.9199C6.67075 18.6298 6.19778 18.2996 5.83974 17.8265C5.18113 16.9607 4.89381 15.8851 5.03526 14.8006C5.14135 13.9927 5.54359 13.2876 6.28177 12.0022C7.01553 10.7169 7.42219 10.0073 8.06313 9.51185C8.92066 8.84686 9.98593 8.55676 11.0601 8.69958C11.6435 8.77545 12.1607 9.02092 12.6381 9.27531C13.0492 9.494 13.5133 9.49847 13.8758 9.28424C14.2426 9.07001 14.4725 8.66388 14.4902 8.19526C14.5123 7.65077 14.5609 7.07503 14.7863 6.52608C15.2018 5.51743 15.9798 4.73194 16.9788 4.31241C17.7214 4 18.5347 4 20.0022 4C21.4697 4 22.2831 4 23.0257 4.31241C24.0246 4.73194 24.8026 5.51743 25.2181 6.52608C25.4435 7.07503 25.4922 7.65077 25.5143 8.19526C25.5319 8.66388 25.7618 9.07001 26.1287 9.28424C26.4956 9.49847 26.9597 9.494 27.3663 9.27531C27.8437 9.02092 28.3653 8.77545 28.9444 8.69958C30.0185 8.55676 31.0793 8.84686 31.9413 9.51185C32.5822 10.0073 32.9845 10.7169 33.7182 12.0022C34.452 13.2876 34.8587 13.9972 34.9647 14.8006C35.1062 15.8851 34.8189 16.9562 34.1603 17.8265C33.8022 18.2951 33.3337 18.6298 32.874 18.9199C32.4806 19.1699 32.2463 19.5715 32.2463 20C32.2463 20.4285 32.4806 20.8301 32.874 21.0801C33.3292 21.3702 33.8022 21.7004 34.1603 22.1735C34.8189 23.0393 35.1062 24.1149 34.9647 25.1994C34.8587 26.0073 34.4564 26.7124 33.7182 27.9978C32.9845 29.2831 32.5778 29.9927 31.9413 30.4881C31.0838 31.1531 30.0185 31.4432 28.9444 31.3004C28.3609 31.2245 27.8437 30.9791 27.3663 30.7247C26.9553 30.506 26.4911 30.5015 26.1287 30.7158C25.7618 30.93 25.5319 31.3361 25.5143 31.8047C25.4922 32.3492 25.4435 32.9294 25.2181 33.4739C24.8026 34.4826 24.0246 35.2681 23.0257 35.6876C22.2786 36 21.4653 36 19.9978 36ZM13.279 28.328C13.8713 28.328 14.4548 28.4798 14.9764 28.7877C16.0063 29.3858 16.6472 30.4837 16.6914 31.7244C16.7091 32.1796 16.7445 32.4474 16.8196 32.6215C17.0097 33.0812 17.3633 33.4382 17.8142 33.6301C18.1545 33.7729 18.8043 33.7729 19.9934 33.7729C21.178 33.7729 21.8322 33.7729 22.1726 33.6301C22.6278 33.4382 22.9815 33.0812 23.1671 32.6259C23.2378 32.4474 23.2776 32.1796 23.2953 31.7289C23.3395 30.4881 23.9804 29.3902 25.0103 28.7922C26.0403 28.1941 27.3 28.1808 28.3874 28.7609C28.7852 28.9707 29.0328 29.0734 29.2228 29.1001C29.7091 29.1671 30.1953 29.0332 30.5843 28.7297C30.876 28.5066 31.2031 27.9308 31.7954 26.8954C32.3877 25.86 32.7148 25.2887 32.7635 24.9183C32.8298 24.4273 32.6972 23.9364 32.3966 23.5437C32.2817 23.3919 32.0695 23.2223 31.6893 22.9813C30.6506 22.3208 30.0273 21.2095 30.0273 20.0134C30.0273 18.8128 30.6506 17.706 31.6893 17.0455C32.0695 16.8045 32.2817 16.6349 32.3966 16.4831C32.6972 16.0904 32.8253 15.5994 32.7635 15.1085C32.7148 14.7425 32.3877 14.1713 31.7954 13.1314C31.2031 12.096 30.876 11.5247 30.5843 11.2971C30.1953 10.9936 29.7091 10.8642 29.2228 10.9266C29.0328 10.9534 28.7852 11.0516 28.3874 11.2658C27.3 11.846 26.0403 11.8326 25.0103 11.2346C23.9804 10.6365 23.3395 9.53863 23.2953 8.29791C23.2776 7.84714 23.2423 7.5749 23.1671 7.40084C22.977 6.94114 22.6234 6.5841 22.1726 6.39219C21.8322 6.24937 21.1824 6.24937 19.9934 6.24937C18.8087 6.24937 18.1545 6.24937 17.8142 6.39219C17.3589 6.5841 17.0053 6.94114 16.8196 7.39637C16.7489 7.5749 16.7091 7.84268 16.6914 8.29344C16.6472 9.53417 16.0019 10.6321 14.9764 11.2301C13.9465 11.8282 12.6867 11.8416 11.5993 11.2614C11.2015 11.0516 10.954 10.949 10.7639 10.9222C10.2777 10.8552 9.79144 10.9891 9.40246 11.2926C9.11073 11.5158 8.78363 12.087 8.19131 13.1269C7.599 14.1623 7.2719 14.7336 7.22328 15.104C7.15698 15.595 7.28959 16.0859 7.59016 16.4787C7.70509 16.6304 7.91726 16.8 8.2974 17.041C9.33616 17.7015 9.95941 18.8128 9.95941 20.0089C9.95941 21.2095 9.33616 22.3163 8.2974 22.9768C7.91726 23.2179 7.70509 23.3874 7.59016 23.5392C7.28959 23.9319 7.1614 24.4229 7.22328 24.9138C7.2719 25.2798 7.599 25.851 8.19131 26.8909C8.78363 27.9308 9.11073 28.4976 9.40246 28.7252C9.79144 29.0287 10.2777 29.1582 10.7639 29.0957C10.954 29.0689 11.2015 28.9707 11.5993 28.7565C12.1342 28.4708 12.7088 28.328 13.279 28.328Z" fill="black"/>
</svg>
