<svg width="40" height="40" viewBox="0 0 40 40" fill="none" xmlns="http://www.w3.org/2000/svg">
<path d="M15.6442 24.3376V24.5003C15.6442 25.005 15.8464 25.4891 16.2065 25.8464C16.5666 26.2037 17.0551 26.4052 17.565 26.4066H22.4361C22.946 26.4052 23.4345 26.2037 23.7946 25.8464C24.1547 25.4891 24.3569 25.005 24.3569 24.5003V24.3376C24.3559 23.9272 24.2203 23.5282 23.9706 23.2005C23.7209 22.8729 23.3705 22.6343 22.972 22.5206C23.1427 22.2343 23.2325 21.9078 23.232 21.5754V16.1456C23.2348 15.8942 23.1872 15.6447 23.0919 15.4116C22.9966 15.1786 22.8556 14.9665 22.677 14.7878C22.4983 14.609 22.2856 14.4671 22.0512 14.3703C21.8167 14.2734 21.5652 14.2236 21.3112 14.2236H18.6899C18.1805 14.2236 17.6919 14.4239 17.3317 14.7804C16.9715 15.1369 16.7691 15.6204 16.7691 16.1246V21.5754C16.7695 21.9061 16.8593 22.2306 17.0291 22.5154C16.6298 22.6293 16.2787 22.8687 16.0289 23.1974C15.7791 23.5261 15.6441 23.9263 15.6442 24.3376ZM17.8303 16.1456C17.8275 16.0321 17.8476 15.9192 17.8896 15.8136C17.9315 15.7079 17.9944 15.6116 18.0745 15.5304C18.1546 15.4492 18.2503 15.3846 18.356 15.3406C18.4617 15.2965 18.5752 15.2738 18.6899 15.2738H21.3112C21.5391 15.2738 21.7578 15.3635 21.919 15.523C22.0802 15.6826 22.1708 15.8989 22.1708 16.1246V21.5754C22.1715 21.6873 22.1497 21.7982 22.1068 21.9018C22.0638 22.0053 22.0005 22.0993 21.9206 22.1785C21.8406 22.2576 21.7456 22.3203 21.641 22.3628C21.5363 22.4053 21.4242 22.4268 21.3112 22.4261H18.6899C18.5769 22.4268 18.4648 22.4053 18.3601 22.3628C18.2555 22.3203 18.1605 22.2576 18.0805 22.1785C18.0006 22.0993 17.9373 22.0053 17.8943 21.9018C17.8514 21.7982 17.8296 21.6873 17.8303 21.5754V16.1456ZM16.7054 24.3376C16.7054 24.1115 16.7958 23.8945 16.9569 23.7342C17.1179 23.5738 17.3366 23.483 17.565 23.4816H22.4361C22.6645 23.483 22.8832 23.5738 23.0442 23.7342C23.2053 23.8945 23.2957 24.1115 23.2957 24.3376V24.5003C23.2957 24.7265 23.2053 24.9434 23.0442 25.1038C22.8832 25.2641 22.6645 25.3549 22.4361 25.3563H17.565C17.3366 25.3549 17.1179 25.2641 16.9569 25.1038C16.7958 24.9434 16.7054 24.7265 16.7054 24.5003V24.3376ZM24.5426 11.4247C24.5426 11.5639 24.4867 11.6975 24.3872 11.796C24.2877 11.8945 24.1527 11.9498 24.012 11.9498H15.9891C15.8484 11.9498 15.7134 11.8945 15.6139 11.796C15.5144 11.6975 15.4585 11.5639 15.4585 11.4247C15.4585 11.2854 15.5144 11.1518 15.6139 11.0533C15.7134 10.9549 15.8484 10.8995 15.9891 10.8995H24.012C24.1527 10.8995 24.2877 10.9549 24.3872 11.0533C24.4867 11.1518 24.5426 11.2854 24.5426 11.4247ZM24.5426 28.8379C24.5426 28.9772 24.4867 29.1108 24.3872 29.2092C24.2877 29.3077 24.1527 29.363 24.012 29.363H15.9891C15.8484 29.363 15.7134 29.3077 15.6139 29.2092C15.5144 29.1108 15.4585 28.9772 15.4585 28.8379C15.4585 28.6986 15.5144 28.5651 15.6139 28.4666C15.7134 28.3681 15.8484 28.3128 15.9891 28.3128H24.012C24.1527 28.3128 24.2877 28.3681 24.3872 28.4666C24.4867 28.5651 24.5426 28.6986 24.5426 28.8379ZM22.9826 4.24615H17.0185C16.4556 4.24615 15.9157 4.46746 15.5177 4.86138C15.1197 5.2553 14.896 5.78958 14.896 6.34667V8.32115C14.1818 8.35356 13.5077 8.65699 13.0136 9.16843C12.5196 9.67987 12.2436 10.36 12.243 11.0676V28.9272C12.2436 29.6347 12.5196 30.3149 13.0136 30.8263C13.5077 31.3378 14.1818 31.6412 14.896 31.6736V33.6533C14.896 34.2104 15.1197 34.7447 15.5177 35.1386C15.9157 35.5325 16.4556 35.7538 17.0185 35.7538H22.9826C23.5455 35.7538 24.0854 35.5325 24.4834 35.1386C24.8814 34.7447 25.1051 34.2104 25.1051 33.6533V31.6789C25.8193 31.6464 26.4934 31.343 26.9875 30.8316C27.4815 30.3201 27.7575 29.64 27.7581 28.9324V11.0728C27.7575 10.3653 27.4815 9.68513 26.9875 9.17368C26.4934 8.66224 25.8193 8.35881 25.1051 8.3264V6.34667C25.1051 5.78958 24.8814 5.2553 24.4834 4.86138C24.0854 4.46746 23.5455 4.24615 22.9826 4.24615ZM15.9573 6.34667C15.9573 6.06812 16.0691 5.80098 16.2681 5.60402C16.4671 5.40706 16.737 5.29641 17.0185 5.29641H22.9826C23.2641 5.29641 23.534 5.40706 23.733 5.60402C23.932 5.80098 24.0438 6.06812 24.0438 6.34667V8.30539H15.9573V6.34667ZM24.0438 33.6533C24.0438 33.9319 23.932 34.199 23.733 34.396C23.534 34.5929 23.2641 34.7036 22.9826 34.7036H17.0185C16.737 34.7036 16.4671 34.5929 16.2681 34.396C16.0691 34.199 15.9573 33.9319 15.9573 33.6533V31.6946H24.0438V33.6533ZM26.6969 11.0728V28.9272C26.6969 29.3803 26.5154 29.8149 26.1921 30.1358C25.8689 30.4567 25.4303 30.6377 24.9724 30.6391H15.0287C14.5708 30.6377 14.1322 30.4567 13.809 30.1358C13.4857 29.8149 13.3042 29.3803 13.3042 28.9272V11.0728C13.3042 10.6197 13.4857 10.1851 13.809 9.86416C14.1322 9.54327 14.5708 9.36229 15.0287 9.3609H24.9724C25.4303 9.36229 25.8689 9.54327 26.1921 9.86416C26.5154 10.1851 26.6969 10.6197 26.6969 11.0728ZM19.1038 6.80353C19.1038 6.9428 19.0479 7.07637 18.9484 7.17485C18.8489 7.27333 18.7139 7.32866 18.5732 7.32866H17.6765C17.5357 7.32866 17.4008 7.27333 17.3013 7.17485C17.2018 7.07637 17.1458 6.9428 17.1458 6.80353C17.1458 6.66426 17.2018 6.53069 17.3013 6.43221C17.4008 6.33373 17.5357 6.2784 17.6765 6.2784H18.5732C18.7139 6.2784 18.8489 6.33373 18.9484 6.43221C19.0479 6.53069 19.1038 6.66426 19.1038 6.80353ZM22.7279 6.80353C22.7279 6.9428 22.672 7.07637 22.5725 7.17485C22.473 7.27333 22.338 7.32866 22.1973 7.32866H21.2952C21.1545 7.32866 21.0196 7.27333 20.92 7.17485C20.8205 7.07637 20.7646 6.9428 20.7646 6.80353C20.7646 6.66426 20.8205 6.53069 20.92 6.43221C21.0196 6.33373 21.1545 6.2784 21.2952 6.2784H22.1973C22.338 6.2784 22.473 6.33373 22.5725 6.43221C22.672 6.53069 22.7279 6.66426 22.7279 6.80353ZM20.8973 33.1965C20.8973 33.0572 20.9532 32.9236 21.0527 32.8252C21.1522 32.7267 21.2872 32.6713 21.4279 32.6713H22.3246C22.4654 32.6713 22.6003 32.7267 22.6998 32.8252C22.7993 32.9236 22.8553 33.0572 22.8553 33.1965C22.8553 33.3357 22.7993 33.4693 22.6998 33.5678C22.6003 33.6663 22.4654 33.7216 22.3246 33.7216H21.4279C21.2872 33.7216 21.1522 33.6663 21.0527 33.5678C20.9532 33.4693 20.8973 33.3357 20.8973 33.1965ZM17.2732 33.1965C17.2732 33.0572 17.3291 32.9236 17.4286 32.8252C17.5281 32.7267 17.6631 32.6713 17.8038 32.6713H18.7059C18.8466 32.6713 18.9815 32.7267 19.0811 32.8252C19.1806 32.9236 19.2365 33.0572 19.2365 33.1965C19.2365 33.3357 19.1806 33.4693 19.0811 33.5678C18.9815 33.6663 18.8466 33.7216 18.7059 33.7216H17.8038C17.6631 33.7216 17.5281 33.6663 17.4286 33.5678C17.3291 33.4693 17.2732 33.3357 17.2732 33.1965Z" fill="black"/>
<path d="M24.8623 6.34712C24.8623 5.85738 24.6659 5.38578 24.314 5.0375C23.9619 4.68913 23.4831 4.49231 22.9826 4.49231H17.0185C16.518 4.49231 16.0392 4.68913 15.6871 5.0375C15.3352 5.38578 15.1388 5.85738 15.1388 6.34712V8.55673L14.9068 8.56731C14.2532 8.59698 13.6375 8.87434 13.1871 9.34038C12.7369 9.80639 12.4861 10.4252 12.4854 11.0673V28.9269L12.4968 29.1663C12.5512 29.7215 12.7931 30.246 13.1871 30.6538C13.6375 31.1201 14.2531 31.3982 14.9068 31.4279L15.1388 31.4385V33.6529C15.1388 34.1426 15.3352 34.6142 15.6871 34.9625C16.0392 35.3109 16.518 35.5077 17.0185 35.5077H22.9826C23.4831 35.5077 23.9619 35.3109 24.314 34.9625C24.6659 34.6142 24.8623 34.1426 24.8623 33.6529V31.4433L25.0943 31.4327C25.7479 31.403 26.3636 31.1257 26.814 30.6596C27.2642 30.1936 27.515 29.5748 27.5157 28.9327V11.0731C27.5151 10.4308 27.2643 9.81227 26.814 9.34615C26.3636 8.87995 25.748 8.60179 25.0943 8.57212L24.8623 8.56154V6.34712ZM23.8017 31.9404H16.1994V33.6529C16.1994 33.8639 16.2844 34.0679 16.4371 34.2192C16.5902 34.3708 16.7994 34.4577 17.0185 34.4577H22.9826C23.2017 34.4577 23.4109 34.3708 23.564 34.2192C23.7167 34.068 23.8017 33.8639 23.8017 33.6529V31.9404ZM18.9939 33.1962C18.9938 33.1243 18.9648 33.0537 18.9115 33.001C18.858 32.9482 18.7842 32.9174 18.706 32.9173H17.8036C17.7254 32.9174 17.6516 32.9482 17.5981 33.001C17.5448 33.0537 17.5158 33.1243 17.5157 33.1962C17.5157 33.2681 17.5447 33.3385 17.5981 33.3913C17.6516 33.4443 17.7253 33.4749 17.8036 33.475H18.706C18.7843 33.475 18.858 33.4443 18.9115 33.3913C18.9649 33.3385 18.9939 33.2681 18.9939 33.1962ZM22.6132 33.1962C22.6132 33.1243 22.5842 33.0537 22.5309 33.001C22.4773 32.948 22.4028 32.9173 22.3244 32.9173H21.4276C21.3495 32.9174 21.2756 32.9482 21.2221 33.001C21.1688 33.0537 21.1398 33.1243 21.1398 33.1962C21.1398 33.2681 21.1688 33.3385 21.2221 33.3913C21.2757 33.4443 21.3493 33.4749 21.4276 33.475H22.3244C22.4028 33.475 22.4773 33.4444 22.5309 33.3913C22.5841 33.3385 22.6132 33.268 22.6132 33.1962ZM26.4541 11.0731C26.4542 10.6872 26.2996 10.3156 26.0223 10.0404C25.7795 9.79935 25.4601 9.64891 25.1189 9.61442L24.9721 9.60673H15.029C14.6335 9.60805 14.2562 9.76506 13.9788 10.0404C13.7015 10.3156 13.5469 10.6872 13.547 11.0731V28.9269C13.5469 29.3128 13.7015 29.6844 13.9788 29.9596C14.2562 30.2349 14.6335 30.3919 15.029 30.3933H24.9721L25.1189 30.3856C25.4601 30.3511 25.7795 30.2007 26.0223 29.9596C26.2996 29.6844 26.4542 29.3128 26.4541 28.9269V11.0731ZM24.2998 28.8375C24.2997 28.7659 24.2714 28.696 24.2184 28.6433C24.1648 28.5902 24.0903 28.5587 24.0119 28.5587H15.9892C15.9108 28.5587 15.8363 28.5902 15.7827 28.6433C15.7297 28.696 15.7014 28.7659 15.7013 28.8375C15.7013 28.9093 15.7296 28.9799 15.7827 29.0327C15.8363 29.0857 15.9108 29.1173 15.9892 29.1173H24.0119C24.0903 29.1173 24.1648 29.0857 24.2184 29.0327C24.2715 28.9799 24.2998 28.9093 24.2998 28.8375ZM15.4021 24.5V24.3375C15.4019 23.8713 15.5546 23.4184 15.8367 23.0471C16.0597 22.7537 16.3541 22.5245 16.689 22.3779C16.5831 22.1246 16.5274 21.8524 16.5271 21.576V16.125C16.5271 15.5535 16.7561 15.006 17.1625 14.6038C17.5686 14.202 18.1182 13.9779 18.6899 13.9779H21.3112L21.5242 13.9875C21.7364 14.0083 21.9449 14.0606 22.1426 14.1423C22.4061 14.2512 22.6457 14.4109 22.8471 14.6125C23.0486 14.8141 23.2081 15.0536 23.3159 15.3173C23.4233 15.58 23.4768 15.8614 23.474 16.1452V21.575L23.4702 21.7163C23.455 21.9464 23.4008 22.1716 23.3121 22.3837C23.646 22.5299 23.9398 22.7578 24.1625 23.05C24.4445 23.42 24.5978 23.8715 24.599 24.3365V24.5C24.599 25.0719 24.3697 25.6191 23.9636 26.0221C23.5579 26.4247 23.0091 26.6512 22.4371 26.6529H17.564C16.992 26.6512 16.4432 26.4247 16.0375 26.0221C15.6314 25.6191 15.4021 25.0719 15.4021 24.5ZM23.0536 24.3375C23.0536 24.1785 22.9898 24.0244 22.8746 23.9096C22.788 23.8234 22.6774 23.7648 22.5574 23.7404L22.4343 23.7279H17.5668L17.4437 23.7404C17.3237 23.7648 17.2131 23.8234 17.1265 23.9096C17.0113 24.0244 16.9475 24.1785 16.9475 24.3375V24.5C16.9475 24.659 17.0113 24.8131 17.1265 24.9279C17.2419 25.0428 17.4004 25.1096 17.5668 25.1106H22.4343C22.6007 25.1096 22.7592 25.0428 22.8746 24.9279C22.9898 24.8131 23.0536 24.659 23.0536 24.5V24.3375ZM21.9286 16.125C21.9286 15.9667 21.8647 15.8129 21.7496 15.699C21.6343 15.5851 21.4767 15.5202 21.3112 15.5202H18.6899C18.6069 15.5202 18.5247 15.5365 18.4485 15.5683C18.3721 15.6001 18.303 15.6468 18.2458 15.7048C18.1887 15.7628 18.1438 15.8312 18.1142 15.9058C18.0847 15.9803 18.0705 16.0598 18.0725 16.1394V21.5769C18.072 21.6553 18.0878 21.7329 18.118 21.8058C18.1482 21.8786 18.1927 21.9456 18.2496 22.0019C18.3066 22.0583 18.375 22.104 18.4504 22.1346C18.5256 22.1651 18.6064 22.1803 18.688 22.1798H21.313C21.3947 22.1803 21.4755 22.1651 21.5507 22.1346C21.6261 22.104 21.6945 22.0583 21.7515 22.0019C21.8084 21.9456 21.8529 21.8786 21.8831 21.8058C21.9133 21.7329 21.9291 21.6553 21.9286 21.5769V16.125ZM24.2998 11.425C24.2998 11.3532 24.2716 11.2826 24.2184 11.2298C24.1648 11.1768 24.0903 11.1462 24.0119 11.1462H15.9892C15.9108 11.1462 15.8363 11.1768 15.7827 11.2298C15.7295 11.2826 15.7013 11.3532 15.7013 11.425C15.7014 11.4966 15.7297 11.5665 15.7827 11.6192C15.8363 11.6723 15.9108 11.7038 15.9892 11.7038H24.0119C24.0903 11.7038 24.1648 11.6723 24.2184 11.6192C24.2714 11.5665 24.2997 11.4966 24.2998 11.425ZM23.8017 6.34712C23.8017 6.13608 23.7167 5.93205 23.564 5.78077C23.4109 5.62925 23.2017 5.54231 22.9826 5.54231H17.0185C16.7994 5.54231 16.5902 5.62925 16.4371 5.78077C16.2844 5.93205 16.1994 6.13608 16.1994 6.34712V8.05962H23.8017V6.34712ZM18.8613 6.80385C18.8613 6.73192 18.8323 6.66149 18.779 6.60865C18.7254 6.55569 18.6518 6.52507 18.5735 6.525H17.6767C17.5983 6.525 17.5238 6.55561 17.4702 6.60865C17.417 6.66146 17.3879 6.73201 17.3879 6.80385C17.3879 6.87566 17.4169 6.94628 17.4702 6.99904C17.5238 7.05201 17.5983 7.08269 17.6767 7.08269H18.5735C18.6516 7.08262 18.7255 7.05181 18.779 6.99904C18.8323 6.94628 18.8613 6.87566 18.8613 6.80385ZM22.4854 6.80385C22.4854 6.73192 22.4564 6.66149 22.403 6.60865C22.3495 6.5557 22.2758 6.52506 22.1975 6.525H21.2951C21.2168 6.52505 21.1431 6.5557 21.0896 6.60865C21.0362 6.66149 21.0072 6.73193 21.0072 6.80385C21.0073 6.87565 21.0363 6.94628 21.0896 6.99904C21.1431 7.0518 21.2169 7.08264 21.2951 7.08269H22.1975C22.2757 7.08263 22.3495 7.05181 22.403 6.99904C22.4563 6.94628 22.4853 6.87566 22.4854 6.80385ZM24.2865 33.6529C24.2865 33.9988 24.1472 34.3295 23.9021 34.5721C23.6571 34.8145 23.3263 34.95 22.9826 34.95H17.0185C16.6748 34.95 16.344 34.8145 16.099 34.5721C15.8539 34.3295 15.7146 33.9988 15.7146 33.6529V31.4481H24.2865V33.6529ZM19.4788 33.1962C19.4788 33.4027 19.3961 33.6001 19.2505 33.7442C19.1052 33.8881 18.909 33.9673 18.706 33.9673H17.8036C17.6006 33.9672 17.4044 33.8881 17.2591 33.7442C17.1135 33.6001 17.0309 33.4027 17.0309 33.1962C17.0309 32.9898 17.1137 32.7931 17.2591 32.649C17.4044 32.5052 17.6006 32.4251 17.8036 32.425H18.706C18.909 32.425 19.1052 32.5052 19.2505 32.649C19.396 32.7931 19.4787 32.9898 19.4788 33.1962ZM23.0981 33.1962C23.0981 33.4028 23.0146 33.6001 22.8689 33.7442C22.7235 33.8881 22.5274 33.9673 22.3244 33.9673H21.4276C21.2247 33.9672 21.0285 33.8881 20.8831 33.7442C20.7376 33.6001 20.6549 33.4027 20.6549 33.1962C20.655 32.9898 20.7377 32.7931 20.8831 32.649C21.0285 32.5052 21.2247 32.4251 21.4276 32.425H22.3244C22.5275 32.425 22.7235 32.5051 22.8689 32.649C23.0145 32.7931 23.098 32.9897 23.0981 33.1962ZM24.7846 28.8375C24.7846 29.0441 24.7021 29.2415 24.5564 29.3856C24.411 29.5295 24.2149 29.6096 24.0119 29.6096H15.9892C15.7862 29.6096 15.5901 29.5295 15.4447 29.3856C15.299 29.2414 15.2165 29.0441 15.2165 28.8375C15.2166 28.631 15.2992 28.4344 15.4447 28.2904C15.5901 28.1465 15.7861 28.0663 15.9892 28.0663H24.0119C24.215 28.0663 24.411 28.1465 24.5564 28.2904C24.7019 28.4344 24.7845 28.631 24.7846 28.8375ZM23.5384 24.5C23.5384 24.7932 23.4205 25.0738 23.2136 25.2798C23.007 25.4854 22.7275 25.6011 22.4371 25.6029H17.564C17.2736 25.6011 16.9941 25.4854 16.7875 25.2798C16.5806 25.0738 16.4627 24.7932 16.4627 24.5V24.3375C16.4627 24.0443 16.5806 23.7646 16.7875 23.5587C16.9941 23.3529 17.2735 23.2373 17.564 23.2356H22.4371C22.7276 23.2373 23.007 23.3529 23.2136 23.5587C23.4205 23.7646 23.5384 24.0443 23.5384 24.3375V24.5ZM17.0119 21.575C17.0123 21.8604 17.0894 22.1409 17.2363 22.3875L17.4021 22.6644L17.0943 22.7519C16.7445 22.8518 16.4386 23.062 16.2212 23.3481C16.0038 23.6341 15.8868 23.9812 15.8869 24.3375V24.5C15.8869 24.9373 16.0616 25.3585 16.3755 25.6702C16.6898 25.9821 17.1182 26.1594 17.5659 26.1606H22.4352C22.8829 26.1594 23.3112 25.9821 23.6255 25.6702C23.9395 25.3585 24.1142 24.9373 24.1142 24.5V24.3385L24.1085 24.2058C24.0825 23.8973 23.9692 23.6005 23.779 23.351C23.5616 23.0659 23.2558 22.8573 22.9068 22.7577L22.599 22.6702L22.7648 22.3933C22.9126 22.1453 22.9896 21.8629 22.9892 21.576V16.1423C22.9916 15.9245 22.9507 15.708 22.868 15.5058C22.7853 15.3036 22.6628 15.1192 22.5072 14.9635C22.3514 14.8076 22.1651 14.6829 21.9598 14.5981C21.7545 14.5133 21.534 14.4702 21.3112 14.4702H18.6899C18.2428 14.4702 17.8149 14.6457 17.5005 14.9567C17.1866 15.2676 17.0119 15.6883 17.0119 16.125V21.575ZM22.4134 21.574L22.4087 21.6827C22.3985 21.7907 22.3718 21.8966 22.3301 21.9971C22.2745 22.1312 22.1925 22.2529 22.0896 22.3548C21.9867 22.4566 21.8644 22.537 21.7307 22.5913C21.5974 22.6455 21.4549 22.6718 21.3112 22.6712L18.6899 22.6721C18.5462 22.6728 18.4037 22.6455 18.2704 22.5913C18.1367 22.537 18.0144 22.4566 17.9115 22.3548C17.8086 22.2529 17.7266 22.1312 17.671 21.9971C17.6154 21.8631 17.5868 21.7193 17.5877 21.574V16.1452C17.5849 16.0002 17.6109 15.8558 17.6644 15.7212C17.7186 15.5845 17.8001 15.4602 17.903 15.3558C18.006 15.2514 18.1288 15.1688 18.2638 15.1125C18.3988 15.0562 18.5438 15.0278 18.6899 15.0279H21.3112C21.6015 15.0279 21.8815 15.1421 22.0886 15.3471C22.2957 15.5523 22.4134 15.8322 22.4134 16.125V21.574ZM24.7846 11.425C24.7845 11.6315 24.7019 11.8281 24.5564 11.9721C24.411 12.116 24.215 12.1962 24.0119 12.1962H15.9892C15.7861 12.1962 15.5901 12.116 15.4447 11.9721C15.2992 11.8281 15.2166 11.6315 15.2165 11.425C15.2165 11.2184 15.299 11.0211 15.4447 10.8769C15.5901 10.733 15.7862 10.6538 15.9892 10.6538H24.0119C24.2149 10.6538 24.411 10.733 24.5564 10.8769C24.7021 11.021 24.7846 11.2184 24.7846 11.425ZM26.939 28.9269C26.939 29.4473 26.7306 29.945 26.3613 30.3115C25.9923 30.6779 25.4931 30.884 24.9731 30.8856H15.028C14.508 30.884 14.0088 30.6779 13.6398 30.3115C13.2705 29.945 13.0621 29.4473 13.0621 28.9269V11.0731C13.0621 10.5528 13.2705 10.055 13.6398 9.68846C14.0088 9.32214 14.508 9.116 15.028 9.11442H24.9731C25.4931 9.116 25.9923 9.32214 26.3613 9.68846C26.7306 10.055 26.939 10.5527 26.939 11.0731V28.9269ZM19.3462 6.80385C19.3461 7.01023 19.2634 7.20693 19.118 7.35096C18.9726 7.49482 18.7764 7.57493 18.5735 7.575H17.6767C17.4736 7.575 17.2776 7.49488 17.1322 7.35096C16.9866 7.20691 16.9031 7.01035 16.903 6.80385C16.903 6.59722 16.9865 6.3999 17.1322 6.25577C17.2776 6.11194 17.4737 6.03269 17.6767 6.03269H18.5735C18.7764 6.03276 18.9726 6.11191 19.118 6.25577C19.2635 6.39989 19.3462 6.59727 19.3462 6.80385ZM22.9702 6.80385C22.9702 7.01024 22.8874 7.20693 22.742 7.35096C22.5967 7.49483 22.4005 7.57494 22.1975 7.575H21.2951C21.0921 7.57495 20.8959 7.49484 20.7505 7.35096C20.6051 7.20693 20.5224 7.01025 20.5223 6.80385C20.5223 6.59725 20.605 6.39989 20.7505 6.25577C20.8959 6.1119 21.0921 6.03274 21.2951 6.03269H22.1975C22.4005 6.03275 22.5967 6.1119 22.742 6.25577C22.8876 6.39989 22.9702 6.59726 22.9702 6.80385ZM24.2865 8.55192H15.7146V6.34712C15.7146 6.00122 15.8539 5.67049 16.099 5.42788C16.344 5.18549 16.6748 5.05 17.0185 5.05H22.9826C23.3263 5.05 23.6571 5.18549 23.9021 5.42788C24.1472 5.67049 24.2865 6.00122 24.2865 6.34712V8.55192ZM25.3471 8.10192C26.035 8.18596 26.6768 8.50027 27.1606 9.00096C27.6984 9.55772 27.9999 10.3002 28.0005 11.0731V28.9327C27.9999 29.7055 27.6984 30.4471 27.1606 31.0038C26.6768 31.5046 26.0351 31.8188 25.3471 31.9029V33.6529C25.3471 34.2771 25.0969 34.8749 24.653 35.3144C24.2091 35.7538 23.6078 36 22.9826 36H17.0185C16.3933 36 15.792 35.7538 15.3481 35.3144C14.9042 34.8749 14.654 34.2771 14.654 33.6529V31.8971C13.9661 31.8131 13.3242 31.4997 12.8405 30.999C12.3699 30.5119 12.0803 29.8827 12.0148 29.2154L12.0005 28.9269V11.0673C12.0012 10.2945 12.3027 9.5529 12.8405 8.99615C13.3243 8.49536 13.966 8.18019 14.654 8.09615V6.34712C14.654 5.72288 14.9042 5.12511 15.3481 4.68558C15.792 4.24622 16.3933 4 17.0185 4H22.9826C23.6078 4 24.2091 4.24622 24.653 4.68558C25.0969 5.12511 25.3471 5.72288 25.3471 6.34712V8.10192Z" fill="black"/>
</svg>
