<svg width="40" height="40" viewBox="0 0 40 40" fill="none" xmlns="http://www.w3.org/2000/svg">
<path d="M22.529 24.9774C21.7465 24.4314 20.9104 23.9866 20.0358 23.6467C21.1992 22.5892 21.9709 21.1078 22.1052 19.4494C23.8694 17.7302 26.1819 16.7877 28.6609 16.7877C30.5962 16.7877 32.4543 17.3705 34.0349 18.473C34.6013 18.868 35.3801 18.7293 35.7751 18.1629C36.1699 17.5966 36.0313 16.8175 35.4651 16.4227C34.6826 15.8767 33.8462 15.4321 32.9717 15.0919C34.2554 13.925 35.0625 12.2425 35.0625 10.375C35.0625 6.85972 32.2031 4 28.6882 4C25.1736 4 22.3142 6.85972 22.3142 10.375C22.3142 12.2349 23.1147 13.9114 24.3896 15.0778C24.2151 15.1449 24.0415 15.216 23.8696 15.2917C23.0874 15.6359 22.352 16.0593 21.6682 16.5565C20.7251 14.2132 18.4289 12.5548 15.7524 12.5548C12.2377 12.5548 9.3781 15.4145 9.3781 18.9296C9.3781 20.7843 10.1742 22.4561 11.4423 23.622C8.05193 24.8924 5.3029 27.621 4.18375 31.101C3.81266 32.2549 4.00919 33.4787 4.72306 34.4586C5.43693 35.4382 6.54142 36 7.75334 36H18.6272C19.3173 36 19.8769 35.4404 19.8769 34.7498C19.8769 34.0596 19.3173 33.4999 18.6272 33.4999H7.75334C7.34929 33.4999 6.98112 33.3127 6.74309 32.986C6.50505 32.6593 6.43962 32.2513 6.56315 31.8664C7.79851 28.0251 11.5661 25.3424 15.725 25.3424C17.6601 25.3424 19.5185 25.9253 21.0991 27.0277C21.6652 27.4228 22.4443 27.2838 22.8393 26.7176C23.2341 26.1514 23.0954 25.3722 22.529 24.9774ZM28.6882 6.50006C30.8247 6.50006 32.5627 8.23831 32.5627 10.375C32.5627 12.5115 30.8247 14.25 28.6882 14.25C26.552 14.25 24.8137 12.5115 24.8137 10.375C24.8137 8.23831 26.552 6.50006 28.6882 6.50006ZM15.7524 15.0546C17.8889 15.0546 19.6269 16.7931 19.6269 18.9296C19.6269 21.0663 17.8889 22.8045 15.7524 22.8045C13.6159 22.8045 11.8779 21.0663 11.8779 18.9296C11.8779 16.7931 13.6159 15.0546 15.7524 15.0546ZM36 30.0625C36 30.7528 35.4404 31.3124 34.75 31.3124H31.313V34.7498C31.313 35.4404 30.7534 36 30.0632 36C29.3728 36 28.8132 35.4404 28.8132 34.7498V31.3124H25.3762C24.686 31.3124 24.1264 30.7528 24.1264 30.0625C24.1264 29.372 24.686 28.8124 25.3762 28.8124H28.8132V25.3749C28.8132 24.6847 29.3728 24.125 30.0632 24.125C30.7534 24.125 31.313 24.6847 31.313 25.3749V28.8124H34.75C35.4404 28.8124 36 29.372 36 30.0625Z" fill="black"/>
</svg>
