<svg width="40" height="40" viewBox="0 0 40 40" fill="none" xmlns="http://www.w3.org/2000/svg">
<path d="M35.1068 9.92893L31.4496 5.05223C31.0012 4.45516 30.288 4.09899 29.5414 4.09899H10.4602C9.71365 4.09899 9.00049 4.45516 8.55208 5.05302L4.89404 9.92972C4.38124 10.6134 4.09899 11.4602 4.09899 12.3148V33.5158C4.09899 34.8308 5.16913 35.9009 6.48415 35.9009H33.5159C34.8309 35.9009 35.9011 34.8308 35.9011 33.5158V12.314C35.9011 11.4594 35.6196 10.6127 35.1068 9.92893ZM30.1775 6.00706L33.5167 10.4592H23.8624L23.1079 5.68905H29.5414C29.7903 5.68905 30.028 5.8075 30.1775 6.00706ZM17.6157 12.0493H22.386V15.2294H17.6157V12.0493ZM21.4979 5.68905L22.2508 10.4592H17.7516L18.5045 5.68905H21.4979ZM9.82416 6.00706C9.97363 5.8075 10.2113 5.68905 10.4602 5.68905H16.8938L16.1393 10.4592H6.48494L9.82416 6.00706ZM34.3118 33.515C34.3118 33.9531 33.9548 34.31 33.5167 34.31H6.48494C6.04687 34.31 5.68989 33.9531 5.68989 33.515V12.314C5.68989 12.225 5.70182 12.1367 5.71136 12.0493H16.0256V15.2294C16.0256 16.1039 16.7411 16.8194 17.6157 16.8194H22.386C23.2605 16.8194 23.9761 16.1039 23.9761 15.2294V12.0493H34.2903C34.3006 12.1375 34.3118 12.2258 34.3118 12.314V33.515Z" fill="black"/>
<path d="M12.0503 30.3349H8.8701C8.43123 30.3349 8.07505 30.6911 8.07505 31.1299C8.07505 31.5688 8.43123 31.925 8.8701 31.925H12.0503C12.4892 31.925 12.8454 31.5688 12.8454 31.1299C12.8454 30.6911 12.4892 30.3349 12.0503 30.3349Z" fill="black"/>
<path d="M15.2305 27.1548H8.8701C8.43123 27.1548 8.07505 27.511 8.07505 27.9498C8.07505 28.3887 8.43123 28.7448 8.8701 28.7448H15.2305C15.6694 28.7448 16.0256 28.3887 16.0256 27.9498C16.0256 27.511 15.6694 27.1548 15.2305 27.1548Z" fill="black"/>
<path d="M35.802 12.3142C35.802 11.4811 35.5272 10.6553 35.0275 9.9889L31.3696 5.11218C30.94 4.54014 30.2565 4.19798 29.5412 4.19798H10.4598C9.74472 4.19811 9.06088 4.53958 8.63132 5.11218L4.97343 9.9889C4.47353 10.6554 4.19799 11.482 4.19799 12.3152V33.5155C4.19799 34.7756 5.2244 35.8011 6.48453 35.8011H33.5155C34.7756 35.8011 35.802 34.7756 35.802 33.5155V12.3142ZM34.1987 12.1482H24.0752V15.2296C24.0751 16.1589 23.3149 16.9192 22.3855 16.9192H17.6154C16.6862 16.919 15.9258 16.1588 15.9258 15.2296V12.1482H5.80323C5.79703 12.2053 5.78964 12.2594 5.78964 12.3142V33.5146C5.78964 33.8976 6.10153 34.2102 6.48453 34.2104H33.5164C33.8996 34.2104 34.2123 33.8977 34.2123 33.5146V12.3142C34.2123 12.2599 34.2049 12.2054 34.1987 12.1482ZM12.7463 31.1301C12.7463 30.7462 12.4344 30.4343 12.0505 30.4342H8.87007C8.4861 30.4342 8.17421 30.7461 8.17421 31.1301C8.17429 31.514 8.48615 31.8259 8.87007 31.8259H12.0505C12.4343 31.8258 12.7462 31.5139 12.7463 31.1301ZM15.9258 27.9498C15.9257 27.5659 15.6147 27.2541 15.2309 27.2539H8.87007C8.48611 27.254 8.17422 27.5658 8.17421 27.9498C8.17421 28.3337 8.4861 28.6456 8.87007 28.6456H15.2309C15.6147 28.6454 15.9258 28.3336 15.9258 27.9498ZM22.4855 11.9503V15.3285H17.5164V11.9503H22.4855ZM17.7154 15.1296H22.2865V12.1482H17.7154V15.1296ZM17.0098 5.58966L16.9924 5.70418L16.2373 10.4751L16.2237 10.5586H6.28655L9.74451 5.94778C9.91272 5.7232 10.1799 5.5898 10.4598 5.58966H17.0098ZM21.5829 5.58966L21.5965 5.67313L22.3487 10.4441L22.3671 10.5586H17.6348L17.6533 10.4441L18.4064 5.67313L18.42 5.58966H21.5829ZM29.5412 5.58966C29.8212 5.58966 30.0891 5.72309 30.2574 5.94778L33.7154 10.5586H23.7773L23.7646 10.4751L23.0096 5.70418L22.9911 5.58966H29.5412ZM23.9471 10.3596H33.3175L30.0983 6.06715C29.9676 5.89281 29.7588 5.78861 29.5412 5.78861H23.2241L23.9471 10.3596ZM17.8678 10.3596H22.1342L21.4131 5.78861H18.5889L17.8678 10.3596ZM10.4598 5.78861C10.2424 5.78875 10.0342 5.89204 9.90368 6.06618L6.68349 10.3596H16.0548L16.7769 5.78861H10.4598ZM12.9443 31.1301C12.9442 31.6237 12.5441 32.0238 12.0505 32.0239H8.87007C8.37638 32.0239 7.97533 31.6237 7.97525 31.1301C7.97525 30.6363 8.37633 30.2353 8.87007 30.2353H12.0505C12.5441 30.2354 12.9443 30.6364 12.9443 31.1301ZM16.1247 27.9498C16.1247 28.4434 15.7245 28.8444 15.2309 28.8446H8.87007C8.37633 28.8446 7.97525 28.4435 7.97525 27.9498C7.97527 27.4561 8.37634 27.055 8.87007 27.055H15.2309C15.7244 27.0552 16.1247 27.4562 16.1247 27.9498ZM34.4113 33.5146C34.4113 34.0075 34.0094 34.4094 33.5164 34.4094H6.48453C5.99176 34.4091 5.59068 34.0074 5.59068 33.5146V12.3142C5.59068 12.2182 5.60386 12.1224 5.613 12.0386L5.62271 11.9503H16.1247V15.2296C16.1248 16.049 16.7959 16.7201 17.6154 16.7202H22.3855C23.2052 16.7202 23.8762 16.0491 23.8763 15.2296V11.9503H34.3783L34.3889 12.0376C34.399 12.1239 34.4113 12.2189 34.4113 12.3142V33.5146ZM36 33.5155C36 34.8854 34.8854 36 33.5155 36H6.48453C5.11463 36 4 34.8854 4 33.5155V12.3152C4 11.4392 4.28874 10.5714 4.81427 9.8705L8.47216 4.99378C8.93926 4.371 9.68212 4.00013 10.4598 4H29.5412C30.319 4 31.0616 4.37075 31.5288 4.99281L35.1867 9.86953C35.7123 10.5704 36 11.4382 36 12.3142V33.5155Z" fill="black"/>
</svg>
