<svg width="40" height="40" viewBox="0 0 40 40" fill="none" xmlns="http://www.w3.org/2000/svg">
<path d="M33.9935 29.7077L32.0418 11.1402C31.9606 10.3529 31.5871 9.6235 30.9936 9.09343C30.4002 8.56336 29.629 8.27038 28.8298 8.2713H25.2752C25.028 7.06586 24.3675 5.98211 23.4056 5.20368C22.4437 4.42524 21.2396 4 19.9973 4C18.755 4 17.5509 4.42524 16.589 5.20368C15.6271 5.98211 14.9666 7.06586 14.7194 8.2713H11.1648C10.3658 8.27014 9.59481 8.56293 9.00149 9.09284C8.40817 9.62275 8.03483 10.352 7.95391 11.1391L6 29.7077V29.8144C6.00199 31.4534 6.66009 33.0248 7.8301 34.1842C9.00012 35.3437 10.5866 35.9966 12.242 36H27.7526C29.4089 35.998 30.9968 35.3457 32.168 34.1861C33.3392 33.0265 33.998 31.4543 34 29.8144C33.9999 29.7787 33.9977 29.7431 33.9935 29.7077ZM19.9973 6.13832C20.6654 6.13913 21.3169 6.34456 21.8625 6.72643C22.408 7.10831 22.8209 7.64793 23.0445 8.2713H16.9501C17.1737 7.64793 17.5866 7.10831 18.1321 6.72643C18.6777 6.34456 19.3292 6.13913 19.9973 6.13832ZM27.7526 33.867H12.242C11.1655 33.8671 10.1323 33.4473 9.36622 32.6986C8.60011 31.9498 8.16276 30.9324 8.14887 29.8666L10.0963 11.3641C10.123 11.1016 10.247 10.8582 10.4443 10.6809C10.6417 10.5036 10.8984 10.4051 11.1648 10.4043H28.8298C29.0977 10.4029 29.3566 10.5006 29.5557 10.678C29.7549 10.8555 29.8801 11.1001 29.9069 11.3641L31.8457 29.8666C31.8319 30.9324 31.3945 31.9498 30.6284 32.6986C29.8623 33.4473 28.8291 33.8671 27.7526 33.867Z" fill="black"/>
<path d="M24.3058 14.6702C24.0202 14.6702 23.7462 14.7826 23.5442 14.9826C23.3422 15.1826 23.2287 15.4539 23.2287 15.7367C23.2287 16.5853 22.8883 17.3991 22.2822 17.9991C21.6762 18.5991 20.8543 18.9362 19.9973 18.9362C19.1403 18.9362 18.3184 18.5991 17.7124 17.9991C17.1064 17.3991 16.7659 16.5853 16.7659 15.7367C16.7659 15.4539 16.6524 15.1826 16.4504 14.9826C16.2484 14.7826 15.9745 14.6702 15.6888 14.6702C15.4031 14.6702 15.1291 14.7826 14.9271 14.9826C14.7251 15.1826 14.6117 15.4539 14.6117 15.7367C14.6117 17.151 15.1791 18.5073 16.1891 19.5073C17.1991 20.5074 18.5689 21.0692 19.9973 21.0692C21.4257 21.0692 22.7955 20.5074 23.8055 19.5073C24.8155 18.5073 25.383 17.151 25.383 15.7367C25.383 15.4539 25.2695 15.1826 25.0675 14.9826C24.8655 14.7826 24.5915 14.6702 24.3058 14.6702Z" fill="black"/>
</svg>
