<svg width="24" height="24" viewBox="0 0 24 24" fill="none" xmlns="http://www.w3.org/2000/svg">
<path d="M1.7998 5.59985V4.53345C1.7998 3.80852 2.0876 3.11304 2.6002 2.60044C3.11279 2.08784 3.80828 1.80005 4.5332 1.80005H8.03242L8.16309 1.80532C8.46634 1.82943 8.7582 1.93631 9.00625 2.11528C9.28964 2.31979 9.5016 2.60815 9.61211 2.9397L11.21 7.73267C11.3365 8.11323 11.322 8.52708 11.1684 8.89751C11.0339 9.2216 10.8009 9.49376 10.5045 9.67681L10.3738 9.74946L8.4959 10.6893C9.56079 12.7556 11.2438 14.4383 13.31 15.5034L14.2504 13.626L14.323 13.4954C14.5061 13.199 14.7783 12.966 15.1023 12.8315C15.4265 12.697 15.7838 12.669 16.123 12.7489L16.2672 12.7899L21.0602 14.3877H21.0596C21.3915 14.4983 21.6805 14.7104 21.8852 14.9942C22.0898 15.2781 22.1999 15.6193 22.1998 15.9692V19.4666C22.1998 20.1916 21.912 20.8871 21.3994 21.3997C20.8868 21.9123 20.1913 22.2 19.4664 22.2H18.4C9.23236 22.2 1.7998 14.7675 1.7998 5.59985ZM2.9998 5.59985C2.9998 14.1047 9.8951 21 18.4 21H19.4664C19.8731 21 20.2634 20.8388 20.551 20.5512C20.8385 20.2637 20.9998 19.8733 20.9998 19.4666V15.9692C20.9998 15.8713 20.9691 15.7756 20.9119 15.6961C20.8689 15.6365 20.8125 15.5879 20.7479 15.5543L20.6805 15.5262L15.8881 13.9284V13.9278C15.7817 13.8925 15.6659 13.8971 15.5623 13.9401C15.4586 13.9831 15.374 14.0623 15.3238 14.1627L15.3232 14.1633L14.118 16.5704C13.9738 16.8584 13.6281 16.9813 13.3346 16.8487C10.5898 15.6085 8.39136 13.4101 7.15117 10.6653C7.01855 10.3718 7.14149 10.0261 7.42949 9.88188L9.83652 8.67661L9.83711 8.67602C9.93755 8.62584 10.0167 8.54125 10.0598 8.43755C10.1028 8.33392 10.1068 8.21825 10.0715 8.11177L8.47363 3.31938C8.44273 3.22661 8.38355 3.1458 8.3043 3.08853C8.2447 3.04553 8.17582 3.01729 8.10391 3.00591L8.03125 3.00005H4.5332C4.12654 3.00005 3.73619 3.16132 3.44863 3.44888C3.16108 3.73643 2.9998 4.12678 2.9998 4.53345V5.59985Z" fill="#2D848D"/>
</svg>
