<svg width="40" height="40" viewBox="0 0 40 40" fill="none" xmlns="http://www.w3.org/2000/svg">
<path d="M15.1243 19.6324C16.33 19.6324 17.5086 19.262 18.5111 18.5679C19.5136 17.8738 20.295 16.8873 20.7563 15.7331C21.2177 14.5789 21.3384 13.3088 21.1031 12.0836C20.8678 10.8583 20.2871 9.73288 19.4344 8.84959C18.5818 7.96629 17.4955 7.36482 16.3129 7.12123C15.1303 6.87764 13.9046 7.00288 12.7907 7.48111C11.6768 7.95934 10.7248 8.76908 10.0551 9.80792C9.3854 10.8468 9.02806 12.068 9.02827 13.3173C9.02996 14.9918 9.67279 16.5973 10.8157 17.7812C11.9586 18.9652 13.5081 19.631 15.1243 19.6324ZM15.1243 9.2115C15.908 9.2115 16.6742 9.45231 17.3258 9.90346C17.9775 10.3546 18.4854 10.9959 18.7853 11.7461C19.0852 12.4963 19.1637 13.3219 19.0108 14.1183C18.8579 14.9148 18.4805 15.6464 17.9263 16.2206C17.3721 16.7948 16.666 17.1858 15.8973 17.3442C15.1287 17.5027 14.3319 17.4214 13.6078 17.1106C12.8837 16.7998 12.2649 16.2736 11.8294 15.5984C11.394 14.9232 11.1616 14.1294 11.1616 13.3173C11.1624 12.2287 11.5802 11.1848 12.3232 10.415C13.0661 9.64524 14.0736 9.21238 15.1243 9.2115Z" fill="black"/>
<path d="M28 20.185C28.8966 20.185 29.7731 19.9095 30.5186 19.3934C31.2641 18.8773 31.8451 18.1437 32.1883 17.2854C32.5314 16.4271 32.6211 15.4827 32.4462 14.5716C32.2713 13.6604 31.8396 12.8235 31.2056 12.1666C30.5716 11.5097 29.7638 11.0623 28.8844 10.8811C28.005 10.6998 27.0935 10.7929 26.2652 11.1484C25.4368 11.5039 24.7288 12.1059 24.2307 12.8784C23.7325 13.6508 23.4667 14.5589 23.4667 15.4879C23.4681 16.7332 23.9461 17.9271 24.796 18.8077C25.6459 19.6882 26.7981 20.1836 28 20.185ZM28 13.0012C28.4747 13.0012 28.9387 13.1471 29.3334 13.4203C29.728 13.6936 30.0357 14.0819 30.2173 14.5363C30.399 14.9907 30.4465 15.4907 30.3539 15.9731C30.2613 16.4554 30.0327 16.8985 29.6971 17.2463C29.3614 17.5941 28.9338 17.8309 28.4682 17.9268C28.0027 18.0228 27.5201 17.9735 27.0816 17.7853C26.643 17.5971 26.2682 17.2784 26.0045 16.8695C25.7408 16.4605 25.6 15.9797 25.6 15.4879C25.6006 14.8286 25.8536 14.1964 26.3036 13.7302C26.7535 13.264 27.3637 13.0018 28 13.0012Z" fill="black"/>
<path d="M28 21.4781C26.9237 21.4815 25.8591 21.7093 24.8695 22.1479C23.8799 22.5865 22.9857 23.2269 22.24 24.0311C20.6146 22.6314 18.6381 21.7402 16.5418 21.4619C14.4455 21.1836 12.316 21.5296 10.4025 22.4594C8.489 23.3893 6.87066 24.8645 5.73683 26.7126C4.60299 28.5606 4.00056 30.705 4 32.8948C4 33.1879 4.11238 33.469 4.31242 33.6763C4.51246 33.8836 4.78377 34 5.06667 34H25.184C25.4669 34 25.7382 33.8836 25.9382 33.6763C26.1383 33.469 26.2507 33.1879 26.2507 32.8948C26.2489 32.2165 26.1893 31.5397 26.0725 30.8723H34.9333C35.2162 30.8723 35.4875 30.7558 35.6876 30.5486C35.8876 30.3413 36 30.0602 36 29.7671C35.9977 27.5694 35.1542 25.4625 33.6544 23.9085C32.1546 22.3545 30.121 21.4804 28 21.4781ZM6.19627 31.7896C6.43635 29.6709 7.37138 27.7018 8.84493 26.2119C10.3185 24.722 12.2412 23.8017 14.2913 23.6048C16.3414 23.4079 18.3946 23.9464 20.1073 25.1304C21.8201 26.3143 23.0884 28.0717 23.7003 30.1086C23.8707 30.6556 23.989 31.2187 24.0533 31.7896H6.19627ZM25.4517 28.6619C25.0344 27.5586 24.4547 26.5289 23.7333 25.6093C24.4748 24.7894 25.4213 24.1987 26.4675 23.903C27.5137 23.6074 28.6186 23.6184 29.6592 23.9348C30.6997 24.2512 31.6351 24.8606 32.3612 25.6952C33.0873 26.5298 33.5756 27.5568 33.7717 28.6619H25.4517Z" fill="black"/>
</svg>
