<svg width="40" height="40" viewBox="0 0 40 40" fill="none" xmlns="http://www.w3.org/2000/svg">
<path fill-rule="evenodd" clip-rule="evenodd" d="M29 20C32.3137 20 35 17.3137 35 14C35 10.6863 32.3137 8 29 8C26.2043 8 23.8552 9.91215 23.189 12.5H6.5C5.67158 12.5 5 13.1716 5 14C5 14.8284 5.67158 15.5 6.5 15.5H23.189C23.8552 18.0878 26.2043 20 29 20ZM26 14C26 15.6569 27.3431 17 29 17C30.6569 17 32 15.6569 32 14C32 12.3431 30.6569 11 29 11C27.3431 11 26 12.3431 26 14ZM5 26C5 22.6863 7.68629 20 11 20C13.7958 20 16.1449 21.9122 16.811 24.5H33.5C34.3285 24.5 35 25.1716 35 26C35 26.8284 34.3285 27.5 33.5 27.5H16.811C16.1449 30.0878 13.7958 32 11 32C7.68629 32 5 29.3137 5 26ZM14 26C14 24.3431 12.6569 23 11 23C9.34314 23 8 24.3431 8 26C8 27.6569 9.34314 29 11 29C12.6569 29 14 27.6569 14 26Z" fill="black"/>
</svg>
