<svg width="40" height="40" viewBox="0 0 40 40" fill="none" xmlns="http://www.w3.org/2000/svg">
<path fill-rule="evenodd" clip-rule="evenodd" d="M26.3736 17.8874C26.0828 17.8874 25.8099 17.7733 25.6052 17.5653L21.196 13.0937C20.7723 12.6641 20.7723 11.9648 21.196 11.5348L25.6052 7.06324C26.0288 6.6336 26.7185 6.63304 27.1423 7.06305L31.5515 11.5346C31.9752 11.9641 31.9752 12.6637 31.5515 13.0934L27.1423 17.565C26.9376 17.7731 26.6646 17.8874 26.3736 17.8874ZM26.3739 7.49044C26.2803 7.49044 26.1929 7.52679 26.1275 7.59312L21.7183 12.0643C21.5825 12.2021 21.5825 12.4265 21.7183 12.564L26.1275 17.0356C26.2579 17.1683 26.4898 17.1677 26.6202 17.0356L31.029 12.564C31.1646 12.4265 31.1645 12.2015 31.0294 12.0645L26.62 7.59275C26.555 7.52661 26.4674 7.49044 26.3739 7.49044Z" fill="black"/>
<path fill-rule="evenodd" clip-rule="evenodd" d="M28.806 18.5955C28.7116 18.5955 28.617 18.5588 28.5448 18.4857L27.1287 17.0495C26.7845 16.7008 27.3077 16.1717 27.651 16.52L29.0671 17.9562C29.301 18.1932 29.1312 18.5955 28.806 18.5955ZM32.1978 15.1556C32.1034 15.1556 32.0088 15.1188 31.9365 15.0458L30.5204 13.6096C30.1762 13.2611 30.6992 12.7314 31.0427 13.0801L32.4588 14.5163C32.6926 14.7531 32.5233 15.1556 32.1978 15.1556Z" fill="black"/>
<path fill-rule="evenodd" clip-rule="evenodd" d="M31.0434 22.217C30.949 22.217 30.8544 22.1803 30.7822 22.1072L27.8778 19.1615C27.7335 19.0152 27.7335 18.7784 27.8778 18.6322L32.2192 14.2296C32.3635 14.0831 32.5974 14.0831 32.7415 14.2296L35.6459 17.1749C35.79 17.3212 35.7902 17.558 35.6459 17.7042L31.3045 22.107C31.2326 22.1806 31.138 22.217 31.0434 22.217ZM28.6612 18.8972L31.0434 21.3131L34.8629 17.4398L32.4806 15.0238L28.6612 18.8972Z" fill="black"/>
<path fill-rule="evenodd" clip-rule="evenodd" d="M21.8678 11.7578C21.5903 11.7578 21.4072 11.4522 21.5457 11.2006C22.7041 9.09621 20.1046 7.66207 18.2458 7.64128C17.9338 7.63772 16.792 7.29483 16.7458 6.68962C16.6549 5.50151 21.4284 3.91786 25.908 7.20171C26.3006 7.48951 25.8677 8.0964 25.4751 7.8086C24.5131 7.10278 21.1047 4.93134 17.6378 6.61149C17.6165 6.62086 17.5953 6.63154 17.575 6.64278C17.6869 6.70368 17.8998 6.79362 18.2972 6.89348C19.7002 6.92402 21.4925 7.63172 22.2397 8.94069C22.5641 9.50879 22.8185 10.4256 22.19 11.5663C22.1225 11.6888 21.9969 11.7578 21.8678 11.7578Z" fill="black"/>
<path fill-rule="evenodd" clip-rule="evenodd" d="M22.3398 19.8636C22.2454 19.8636 22.1508 19.8269 22.0786 19.7538L19.038 16.6701C18.8938 16.5239 18.8938 16.2867 19.038 16.1406L20.4638 14.6946L21.0408 12.6549C21.1744 12.1816 21.8846 12.3874 21.7502 12.8614C21.6562 13.1931 21.1973 15.0102 21.0534 15.1558L19.821 16.4053L22.3398 18.9594C22.5491 18.7471 23.5429 17.6693 23.7314 17.6144L25.8344 17.0025C26.3021 16.8668 26.5049 17.5865 26.0382 17.7222L24.0266 18.3071C23.7238 18.4879 22.7149 19.8636 22.3398 19.8636Z" fill="black"/>
<path fill-rule="evenodd" clip-rule="evenodd" d="M13.3744 28.4292C13.049 28.4292 12.8798 28.0264 13.1135 27.7897L21.819 18.961C22.1628 18.6122 22.6853 19.142 22.3413 19.4906L13.6356 28.3196C13.5634 28.3927 13.4688 28.4292 13.3744 28.4292ZM10.8532 25.8724C10.5279 25.8724 10.3586 25.4695 10.5922 25.2329L19.298 16.4042C19.6416 16.0553 20.1639 16.585 19.8201 16.9337L11.1143 25.7626C11.0422 25.8357 10.9476 25.8724 10.8532 25.8724Z" fill="black"/>
<path fill-rule="evenodd" clip-rule="evenodd" d="M7.45279 34.7541C6.29087 34.7541 5.73032 33.948 4.89874 33.1045C4.02817 32.2214 4.02817 30.7847 4.89874 29.9018L8.98201 25.7609C9.85165 24.8789 11.2698 24.8788 12.1397 25.7609L13.1144 26.7498C13.985 27.6329 13.9852 29.0695 13.1148 29.9522L9.03152 34.0932C8.61158 34.5193 8.05066 34.7541 7.45279 34.7541ZM10.5607 25.8488C10.16 25.8488 9.78477 26.0058 9.50413 26.2904L5.42086 30.4315C4.83832 31.0222 4.83832 31.9838 5.42086 32.5748C6.11572 33.2795 6.6116 34.0052 7.45261 34.0052C7.85297 34.0052 8.22839 33.8483 8.50941 33.5635L12.5925 29.4227C13.175 28.8319 13.1748 27.8701 12.5925 27.2795C11.8984 26.5756 11.4012 25.8488 10.5607 25.8488Z" fill="black"/>
<path d="M19.5941 5.02375C21.2833 4.89387 23.4805 5.27466 25.6404 6.71529C26.1577 6.37079 26.8626 6.42914 27.3173 6.89012L31.727 11.3625C32.2448 11.8877 32.2449 12.7411 31.727 13.2663L31.6491 13.3441L32.2261 13.9301C32.4535 13.8259 32.7309 13.8673 32.9174 14.0569L35.8213 17.002L35.8992 17.0999C36.0555 17.34 36.0304 17.6652 35.8213 17.877L31.4799 22.2774L31.4809 22.2783C31.3606 22.4015 31.2013 22.4627 31.0434 22.4627C30.8849 22.4627 30.7265 22.4013 30.6068 22.2802L27.7029 19.3342C27.4942 19.1226 27.4676 18.7972 27.6241 18.5571L27.7029 18.4591L27.9375 18.2209L27.3895 17.6638L27.3173 17.7368L27.3183 17.7377C27.0674 17.9929 26.7302 18.1335 26.3731 18.1335C26.1939 18.1334 26.0202 18.0974 25.8596 18.0298L24.1375 18.5312C24.1203 18.5443 24.0918 18.5659 24.0529 18.6032C24.0008 18.6531 23.9386 18.7174 23.8682 18.7934C23.7191 18.9544 23.5714 19.1239 23.3913 19.3198C23.2222 19.5038 23.0439 19.6903 22.8807 19.8318C22.7994 19.9022 22.7153 19.9668 22.6336 20.0152C22.5578 20.0601 22.4534 20.1094 22.3394 20.1094C22.2637 20.1093 22.1886 20.0941 22.1173 20.0661L14.0104 28.2895C14.0264 28.9521 13.788 29.6203 13.2902 30.1251L9.20647 34.2661C8.74035 34.7388 8.11629 35 7.4526 35C6.8047 35 6.32197 34.7719 5.89969 34.439C5.49447 34.1195 5.12029 33.679 4.72371 33.2768C3.75879 32.298 3.75874 30.708 4.72371 29.7294L8.80646 25.5884C9.30377 25.0841 9.96287 24.8406 10.6171 24.8555L18.7268 16.6321C18.6403 16.4099 18.6848 16.1473 18.8624 15.9674L20.2432 14.566L20.7336 12.8331C20.533 12.3446 20.6288 11.76 21.0201 11.3625L21.3624 11.0157C21.5946 10.5641 21.6296 10.1661 21.5413 9.81983C21.4474 9.4521 21.2094 9.11647 20.8682 8.82757C20.1798 8.24491 19.1225 7.89704 18.2432 7.88718C18.1337 7.88593 17.9795 7.85749 17.8201 7.81322C17.656 7.76766 17.4679 7.69997 17.2874 7.6115C17.1084 7.52376 16.9264 7.41014 16.7826 7.26762C16.6385 7.12494 16.5184 6.93815 16.5008 6.70857C16.4828 6.47239 16.5869 6.25486 16.7431 6.0746C16.9001 5.89356 17.1254 5.72975 17.3951 5.58856C17.9357 5.30561 18.6979 5.09266 19.5941 5.02375ZM10.2498 25.3713C9.84957 25.4352 9.46487 25.6215 9.15743 25.9333L5.07371 30.0742C4.29776 30.8613 4.29777 32.1446 5.07371 32.9319C5.50869 33.3731 5.83108 33.7585 6.2045 34.0529C6.56063 34.3336 6.93906 34.5081 7.4526 34.5082C7.98444 34.5082 8.48273 34.2995 8.85646 33.9203L12.9392 29.7793C13.2493 29.4648 13.4328 29.0709 13.495 28.6613C13.4552 28.6693 13.4152 28.6747 13.3748 28.6747C13.3304 28.6747 13.2875 28.6695 13.2469 28.6613C13.1869 29.0033 13.0283 29.3309 12.7681 29.5949L8.68435 33.7359C8.35704 34.0676 7.91879 34.2508 7.4526 34.2508C6.95139 34.2508 6.56195 34.0318 6.22181 33.7417C5.89671 33.4644 5.57118 33.0775 5.24583 32.7475C4.56896 32.0608 4.56889 30.9452 5.24583 30.2587L9.32859 26.1177C9.58256 25.8601 9.90412 25.6929 10.2536 25.6307C10.2347 25.5463 10.2323 25.458 10.2498 25.3713ZM10.5603 26.0946C10.2258 26.0947 9.91379 26.2251 9.67956 26.4625L5.59584 30.6045C5.10812 31.0995 5.10779 31.9075 5.59584 32.4026C5.96527 32.7773 6.23527 33.1054 6.542 33.367C6.83374 33.6159 7.11285 33.759 7.4526 33.759C7.78711 33.759 8.09962 33.6289 8.33434 33.3911L12.4171 29.2501C12.9052 28.755 12.9051 27.9468 12.4171 27.4519C12.0482 27.0778 11.7786 26.7493 11.4719 26.4875C11.1799 26.2384 10.8997 26.0946 10.5603 26.0946ZM13.2892 27.962C13.2059 28.0463 13.2723 28.1829 13.3748 28.1829C13.4053 28.1828 13.4359 28.1711 13.4604 28.1464L13.5037 28.1022C13.4914 28.0012 13.4723 27.9011 13.445 27.8025L13.2892 27.962ZM13.8335 27.4096C13.8685 27.4976 13.8962 27.5878 13.921 27.6786L21.7346 19.7549L21.5576 19.5753L13.8335 27.4096ZM11.393 25.8286C11.5345 25.9088 11.6661 26.0062 11.7911 26.1129C12.1164 26.3904 12.443 26.7774 12.7681 27.1071C12.8847 27.2254 12.9791 27.3576 13.0556 27.4971L13.2373 27.3126C13.1553 27.1738 13.057 27.0421 12.9392 26.9226L11.9642 25.9333C11.8479 25.8153 11.7194 25.717 11.5844 25.6345L11.393 25.8286ZM11.9392 25.2753C12.072 25.3652 12.1981 25.4697 12.3152 25.5884L13.2902 26.5768C13.4053 26.6936 13.5054 26.8203 13.5931 26.9524L21.2115 19.2247L19.5586 17.5485L11.9392 25.2753ZM10.7671 25.4059C10.6844 25.4903 10.7512 25.6268 10.8536 25.6268C10.8839 25.6267 10.9148 25.615 10.9392 25.5903L11.1046 25.4222C11.0076 25.3944 10.9088 25.3753 10.8094 25.3627L10.7671 25.4059ZM11.2209 24.9448C11.3109 24.9698 11.4001 24.9988 11.4873 25.0342L19.2134 17.1979L19.0364 17.0183L11.2209 24.9448ZM32.7953 14.6332C32.823 14.7484 32.8153 14.8667 32.779 14.9761L35.0386 17.2671L35.2088 17.44L35.0386 17.6119L31.0434 21.6636L28.3154 18.8971L28.4702 18.7396C28.4348 18.7163 28.4002 18.6902 28.3693 18.6589L28.2827 18.5705L28.0529 18.8049C28.0033 18.8553 28.003 18.9387 28.0529 18.9894L30.9578 21.9344L30.9982 21.9623C31.0128 21.9683 31.0282 21.9709 31.0434 21.9709C31.0745 21.9709 31.1045 21.9594 31.128 21.9354L31.1289 21.9344L35.4704 17.5312C35.5198 17.4811 35.5202 17.3986 35.4704 17.3478L32.7953 14.6332ZM29.0068 18.8971L31.0434 20.9633L34.5175 17.439L32.4799 15.3738L29.0068 18.8971ZM22.0778 19.0931C22.0609 19.092 22.0325 19.0946 21.9942 19.1334L21.9028 19.2247L22.0798 19.4043L22.1663 19.3179L22.2019 19.266C22.2076 19.251 22.2083 19.238 22.2076 19.2276C22.2059 19.2005 22.1914 19.1667 22.1625 19.1373C22.1333 19.1078 22.1014 19.0947 22.0778 19.0931ZM23.8163 17.8453L23.7759 17.8741C23.7381 17.9033 23.6889 17.9461 23.6298 18C23.5119 18.1075 23.3672 18.2502 23.2192 18.4005C23.0716 18.5505 22.9224 18.7051 22.7971 18.8366C22.7428 18.8936 22.6913 18.9459 22.6471 18.9922C22.6746 19.0554 22.6943 19.1235 22.699 19.1959C22.702 19.2426 22.6967 19.289 22.6884 19.3352C22.7949 19.2324 22.9118 19.1138 23.0288 18.9865C23.1856 18.8159 23.3708 18.6069 23.5077 18.4591C23.5802 18.3808 23.65 18.3086 23.7125 18.2488C23.7714 18.1923 23.8367 18.1339 23.9 18.096L23.9279 18.0797L23.9577 18.0711L25.3567 17.6638L25.1519 17.4563L23.8163 17.8453ZM19.9951 17.1067L19.9038 17.1979L21.5576 18.875L21.6432 18.7886C21.6749 18.7565 21.7083 18.7279 21.7432 18.7041L20.072 17.0096C20.0495 17.0427 20.025 17.0763 19.9951 17.1067ZM21.6576 14.1452C21.5851 14.4031 21.5097 14.6586 21.4432 14.8599C21.4101 14.96 21.3778 15.051 21.348 15.1231C21.3333 15.1587 21.318 15.1934 21.3019 15.224C21.2882 15.2497 21.2643 15.2927 21.2288 15.3287L20.1663 16.4054L22.3365 18.6051C22.3681 18.5719 22.4034 18.5363 22.4403 18.4975C22.5661 18.3656 22.7177 18.2086 22.8682 18.0557C23.0182 17.9033 23.1702 17.7525 23.298 17.6359C23.3616 17.5779 23.4226 17.5252 23.4759 17.4842C23.5025 17.4637 23.5306 17.4443 23.5577 17.4275C23.5818 17.4125 23.6188 17.3912 23.6625 17.3785L24.7596 17.0586L21.7067 13.9618C21.6899 14.0225 21.6747 14.0845 21.6576 14.1452ZM28.6289 18.2199L28.7203 18.3131L28.7606 18.341C28.7752 18.347 28.7907 18.3496 28.8058 18.3496C28.9088 18.3496 28.9746 18.213 28.8914 18.1287L28.8049 18.0413L28.6289 18.2199ZM29.1501 17.6907L29.2424 17.7838C29.2719 17.8138 29.2964 17.8461 29.3183 17.8789L31.8616 15.2998C31.8262 15.2765 31.7926 15.2495 31.7616 15.2182L31.6751 15.1308L29.1501 17.6907ZM27.7347 17.3141L28.2837 17.8703L28.4597 17.6907L27.9116 17.1345L27.7347 17.3141ZM26.7952 17.2085C26.7248 17.2798 26.6375 17.3255 26.5452 17.3526C26.5485 17.4458 26.5345 17.5415 26.4933 17.6321C26.6722 17.6065 26.8374 17.5241 26.9673 17.3919L27.0433 17.3141L26.9529 17.2219C26.9231 17.1917 26.8984 17.1588 26.876 17.1259L26.7952 17.2085ZM25.9029 17.2383L25.6894 17.2997L25.7808 17.3929L25.8423 17.4496C25.8648 17.4684 25.8885 17.4853 25.9125 17.5014L25.9692 17.4861C26.0196 17.4714 26.0376 17.4477 26.0462 17.4294C26.0573 17.4053 26.0615 17.3684 26.05 17.3276C26.0384 17.2864 26.015 17.2585 25.9942 17.245C25.9791 17.2351 25.9535 17.2236 25.9029 17.2383ZM28.2568 16.7839L28.8049 17.341L31.3299 14.7802L30.7818 14.224L28.2568 16.7839ZM27.3923 16.6523C27.3687 16.6539 27.3359 16.667 27.3068 16.6965C27.278 16.7258 27.2643 16.76 27.2625 16.7868C27.2612 16.8077 27.2656 16.8383 27.3039 16.8771L27.3885 16.9635L27.5664 16.7839L27.476 16.6927C27.4379 16.654 27.4094 16.6512 27.3923 16.6523ZM21.8596 13.4027C21.8586 13.4063 21.8567 13.4097 21.8557 13.4133L25.2971 16.9021L25.5712 16.8223L21.9317 13.1318C21.9111 13.2089 21.8868 13.3006 21.8596 13.4027ZM26.3741 7.73637C26.3458 7.73637 26.3217 7.74712 26.3029 7.76615L22.3163 11.8072C22.3092 11.8149 22.3016 11.8221 22.2942 11.8293L21.8932 12.2366C21.8519 12.2786 21.8523 12.3495 21.8932 12.3913L26.3029 16.8627C26.3364 16.8967 26.4107 16.8976 26.4452 16.8627L30.8539 12.3913C30.8949 12.3494 30.8942 12.2787 30.8539 12.2376L26.4443 7.76519C26.4264 7.74703 26.4027 7.7364 26.3741 7.73637ZM19.5566 16.5361C19.5397 16.535 19.5112 16.5377 19.473 16.5764L19.3816 16.6686L19.5586 16.8473L19.6451 16.7609C19.6832 16.7221 19.6878 16.6916 19.6865 16.6706C19.6847 16.6435 19.6702 16.6097 19.6413 16.5803C19.6122 16.5508 19.5801 16.5376 19.5566 16.5361ZM27.726 16.2642C27.7609 16.2881 27.7944 16.3157 27.826 16.3478L27.9106 16.4343L30.4357 13.8734L30.3453 13.7821C30.3153 13.7518 30.2899 13.7192 30.2674 13.6861L27.726 16.2642ZM20.7009 14.7619L20.6836 14.8224L20.6393 14.8676L19.472 16.05C19.5107 16.0446 19.5501 16.0427 19.5893 16.0452C19.6577 16.0498 19.7218 16.0679 19.7816 16.0933L20.8663 14.9934C20.8726 14.9814 20.8819 14.9622 20.8932 14.9348C20.9164 14.8786 20.9444 14.8007 20.9759 14.7052C21.0389 14.5146 21.1116 14.2676 21.1836 14.0117C21.2266 13.8589 21.267 13.7032 21.3067 13.5564L21.1009 13.347L20.7009 14.7619ZM32.0203 14.7802L32.1117 14.8733C32.1364 14.8983 32.1679 14.9098 32.1982 14.9098C32.3008 14.9095 32.3668 14.7732 32.2838 14.6889L32.1972 14.6005L32.0203 14.7802ZM31.1261 13.8744L31.6741 14.4305L31.8511 14.2509L31.303 13.6947L31.1261 13.8744ZM30.7837 13.2125C30.7602 13.2142 30.7281 13.2265 30.6991 13.2558C30.67 13.2852 30.6557 13.32 30.6539 13.347C30.6527 13.3679 30.6572 13.3987 30.6953 13.4373L30.7809 13.5238L30.9578 13.3441L30.8674 13.2529C30.8293 13.2142 30.8007 13.2114 30.7837 13.2125ZM21.3336 12.6429C21.3255 12.6468 21.3148 12.6527 21.3047 12.665L21.2778 12.7217L21.2605 12.7812C21.2921 12.8307 21.3284 12.8782 21.3711 12.9215L21.4557 13.007C21.4803 12.9147 21.5003 12.841 21.5134 12.7947L21.5201 12.7303C21.5179 12.7141 21.512 12.7023 21.5067 12.6938C21.4928 12.6721 21.465 12.6502 21.4269 12.6391C21.3887 12.6281 21.3553 12.6326 21.3336 12.6429ZM26.9673 7.23592C26.7306 6.99574 26.3864 6.92878 26.0904 7.03612C26.1658 7.09998 26.2198 7.17455 26.2558 7.25609C26.2943 7.24835 26.334 7.24456 26.3741 7.24456C26.5322 7.2446 26.6831 7.30645 26.7952 7.42035L31.2049 11.8918C31.4344 12.1245 31.4339 12.5039 31.2039 12.7371L31.1174 12.8235C31.1523 12.8473 31.1858 12.875 31.2174 12.9071L31.303 12.9935L31.3761 12.9205C31.7052 12.5866 31.7052 12.041 31.3761 11.7073L26.9673 7.23592ZM21.3557 11.7237C21.2308 11.8573 21.1564 12.0224 21.1326 12.1934C21.2183 12.1548 21.3089 12.1404 21.3971 12.1425C21.4229 12.0554 21.4678 11.9734 21.5336 11.9033C21.462 11.8561 21.402 11.7946 21.3557 11.7237ZM21.7692 11.3029C21.7663 11.3082 21.7644 11.314 21.7615 11.3193C21.7118 11.4097 21.7811 11.5123 21.8682 11.5123C21.91 11.5122 21.9511 11.4893 21.974 11.448C22.0919 11.234 22.175 11.0287 22.2317 10.8342L21.7692 11.3029ZM22.8202 10.2367C22.8174 10.3648 22.8058 10.4973 22.7827 10.6344L25.3567 8.02262C25.3482 8.01695 25.3382 8.01339 25.3298 8.00725C25.2767 7.96828 25.2151 7.92478 25.1471 7.87757L22.8202 10.2367ZM25.2644 7.05822C23.2346 5.7377 21.1912 5.39371 19.6316 5.51363C18.7862 5.57866 18.0918 5.77922 17.623 6.02465C17.3882 6.14762 17.2194 6.27631 17.1153 6.39639C17.0104 6.5173 16.9866 6.6103 16.9912 6.67111C16.9968 6.74396 17.036 6.82713 17.1287 6.91893C17.2216 7.01093 17.3536 7.09655 17.5047 7.1706C17.6541 7.2438 17.8128 7.30104 17.9518 7.33966C18.0956 7.3796 18.2023 7.39484 18.2489 7.39537C19.2283 7.40642 20.4001 7.7864 21.1865 8.45199C21.5823 8.78708 21.8934 9.20545 22.0192 9.6988C22.0679 9.88985 22.0866 10.0882 22.0749 10.2924L22.325 10.0388C22.2997 9.64409 22.17 9.31526 22.0259 9.06291C21.6842 8.46428 21.0944 7.98946 20.4076 7.65953C19.7218 7.3301 18.9577 7.15345 18.2922 7.1389H18.2643L18.2374 7.13218C17.828 7.02929 17.5938 6.93248 17.4576 6.85842L17.0633 6.64421L17.4556 6.42809L17.5383 6.38678C19.3404 5.51635 21.1231 5.64714 22.5663 6.0794C23.6145 6.39338 24.4914 6.86873 25.0817 7.2436L25.2644 7.05822ZM22.425 6.55104C21.1938 6.18226 19.7312 6.05431 18.2374 6.62212C18.2695 6.63086 18.303 6.64003 18.3384 6.64902C19.0668 6.67044 19.8854 6.86235 20.6211 7.21575C21.368 7.57454 22.0483 8.10859 22.4538 8.81893C22.5775 9.03558 22.6892 9.29879 22.7567 9.60082L24.7269 7.60285C24.1673 7.25569 23.3681 6.83354 22.425 6.55104ZM25.4971 7.52217C25.5417 7.55374 25.5836 7.58301 25.6212 7.61054C25.6637 7.64161 25.6912 7.64033 25.7077 7.63647C25.7309 7.63105 25.7611 7.61222 25.7856 7.57788C25.8098 7.54374 25.8188 7.50775 25.8164 7.48086C25.8145 7.46014 25.8052 7.43156 25.7625 7.40018C25.7345 7.37962 25.705 7.36079 25.6769 7.34062L25.4971 7.52217Z" fill="black"/>
</svg>
