<svg width="40" height="40" viewBox="0 0 40 40" fill="none" xmlns="http://www.w3.org/2000/svg">
<path d="M31.7295 11.7745L24.3451 4.27469C24.1727 4.09956 23.9375 4 23.6923 4H10.7692C9.24228 4 8 5.26169 8 6.8125V33.1875C8 34.7383 9.24228 36 10.7692 36H29.2308C30.7577 36 32 34.7383 32 33.1875V12.4375C32 12.1819 31.8943 11.9418 31.7295 11.7745ZM24.6154 7.20081L28.8484 11.5H25.5385C25.0295 11.5 24.6154 11.0794 24.6154 10.5625V7.20081ZM29.2308 34.125H10.7692C10.2602 34.125 9.84615 33.7044 9.84615 33.1875V6.8125C9.84615 6.29556 10.2602 5.875 10.7692 5.875H22.7692V10.5625C22.7692 12.1133 24.0115 13.375 25.5385 13.375H30.1538V33.1875C30.1538 33.7044 29.7398 34.125 29.2308 34.125Z" fill="black"/>
<path d="M25.5385 17.25H14.4615C13.9518 17.25 13.5385 17.6698 13.5385 18.1875C13.5385 18.7053 13.9518 19.125 14.4615 19.125H25.5385C26.0482 19.125 26.4615 18.7053 26.4615 18.1875C26.4615 17.6698 26.0482 17.25 25.5385 17.25Z" fill="black"/>
<path d="M25.5385 21H14.4615C13.9518 21 13.5385 21.4198 13.5385 21.9375C13.5385 22.4553 13.9518 22.875 14.4615 22.875H25.5385C26.0482 22.875 26.4615 22.4553 26.4615 21.9375C26.4615 21.4198 26.0482 21 25.5385 21Z" fill="black"/>
<path d="M25.5385 24.75H14.4615C13.9518 24.75 13.5385 25.1698 13.5385 25.6875C13.5385 26.2053 13.9518 26.625 14.4615 26.625H25.5385C26.0482 26.625 26.4615 26.2053 26.4615 25.6875C26.4615 25.1698 26.0482 24.75 25.5385 24.75Z" fill="black"/>
<path d="M21.8462 28.5H14.4615C13.9518 28.5 13.5385 28.9198 13.5385 29.4375C13.5385 29.9553 13.9518 30.375 14.4615 30.375H21.8462C22.3559 30.375 22.7692 29.9553 22.7692 29.4375C22.7692 28.9198 22.3559 28.5 21.8462 28.5Z" fill="black"/>
</svg>
