<svg width="40" height="40" viewBox="0 0 40 40" fill="none" xmlns="http://www.w3.org/2000/svg">
<path d="M25.0769 21.7778C25.8416 21.7778 26.4615 22.3747 26.4615 23.1111C26.4615 23.8475 25.8416 24.4444 25.0769 24.4444H14.9231C14.1584 24.4444 13.5385 23.8475 13.5385 23.1111C13.5385 22.3747 14.1584 21.7778 14.9231 21.7778H25.0769Z" fill="black"/>
<path d="M25.0769 15.5556C25.8416 15.5556 26.4615 16.1525 26.4615 16.8889C26.4615 17.6253 25.8416 18.2222 25.0769 18.2222H14.9231C14.1584 18.2222 13.5385 17.6253 13.5385 16.8889C13.5385 16.1525 14.1584 15.5556 14.9231 15.5556H25.0769Z" fill="black"/>
<path d="M25.0769 9.33333C25.8416 9.33333 26.4615 9.93029 26.4615 10.6667C26.4615 11.403 25.8416 12 25.0769 12H14.9231C14.1584 12 13.5385 11.403 13.5385 10.6667C13.5385 9.93029 14.1584 9.33333 14.9231 9.33333H25.0769Z" fill="black"/>
<path fill-rule="evenodd" clip-rule="evenodd" d="M29.2308 4C30.7602 4 32 5.19391 32 6.66667V34.8681L31.9937 34.9835C31.9336 35.5544 31.4332 36 30.8245 36L30.7317 35.9965C30.3347 35.9649 29.9881 35.7333 29.7212 35.4375L29.6031 35.2969C29.0989 34.645 28.2939 34.2222 27.3846 34.2222C26.5662 34.2222 25.8319 34.5647 25.3257 35.1085L25.1572 35.2804C24.7526 35.6738 24.2605 36 23.6923 36C23.1241 36 22.632 35.6738 22.2275 35.2804L22.0589 35.1085C21.5527 34.5647 20.8185 34.2222 20 34.2222C19.1815 34.2222 18.4473 34.5647 17.9411 35.1085L17.7725 35.2804C17.368 35.6738 16.8759 36 16.3077 36C15.7395 36 15.2474 35.6738 14.8428 35.2804L14.6743 35.1085C14.1681 34.5647 13.4338 34.2222 12.6154 34.2222C11.7061 34.2222 10.9011 34.645 10.3969 35.2969L10.2788 35.4375C9.99135 35.7561 9.6112 36 9.17548 36C8.56679 36 8.06643 35.5544 8.00631 34.9835L8 34.8681V6.66667C8 5.19391 9.23983 4 10.7692 4H29.2308ZM10.7692 5.77778C10.2594 5.77778 9.84615 6.17575 9.84615 6.66667V33.3351C10.616 32.7773 11.5748 32.4444 12.6154 32.4444C13.9809 32.4444 15.2078 33.0182 16.049 33.9219C16.153 34.0336 16.2403 34.1108 16.3077 34.1632C16.375 34.1108 16.4624 34.0336 16.5664 33.9219C17.4075 33.0182 18.6345 32.4444 20 32.4444C21.3655 32.4444 22.5925 33.0182 23.4336 33.9219C23.5376 34.0336 23.625 34.1108 23.6923 34.1632C23.7597 34.1108 23.847 34.0336 23.951 33.9219C24.7922 33.0182 26.0191 32.4444 27.3846 32.4444C28.4252 32.4444 29.384 32.7773 30.1538 33.3351V6.66667C30.1538 6.17575 29.7406 5.77778 29.2308 5.77778H10.7692Z" fill="black"/>
</svg>
