<svg width="40" height="40" viewBox="0 0 40 40" fill="none" xmlns="http://www.w3.org/2000/svg">
<path d="M21.8897 21.5644L32.7179 9.79687C32.8611 9.64095 32.9535 9.44971 32.9864 9.24804C33.0193 9.04671 32.9926 8.83976 32.9083 8.65137C32.8238 8.46253 32.6838 8.29766 32.5021 8.18066C32.3656 8.09281 32.2104 8.03518 32.048 8.01172L31.8839 8H8.11615L7.95209 8.01172C7.78968 8.03518 7.6345 8.09281 7.49799 8.18066C7.31627 8.29766 7.17629 8.46253 7.09173 8.65137C7.00742 8.83976 6.98078 9.04671 7.01361 9.24804C7.04659 9.44971 7.13896 9.64095 7.28216 9.79687L18.1104 21.5644V31.0547L21.8897 28.0674V21.5644ZM23.8897 28.5097C23.8896 28.6742 23.8525 28.8371 23.7803 28.9853L23.7198 29.0928C23.6538 29.1967 23.5701 29.2891 23.4727 29.3662L17.916 33.7588C17.7191 33.9148 17.4741 33.9998 17.2217 34C17.0542 34.001 16.8885 33.9638 16.7383 33.8906C16.5971 33.8232 16.4724 33.7269 16.3721 33.6094L16.2803 33.4853C16.197 33.3543 16.1429 33.2077 16.1211 33.0556L16.1103 32.9023V22.3447L5.80852 11.1494C5.45385 10.7631 5.20503 10.2952 5.08391 9.79004L5.03996 9.57129C4.95575 9.0563 5.00527 8.52983 5.18254 8.04101L5.26653 7.83398C5.48012 7.35696 5.81208 6.94216 6.2304 6.62793L6.41497 6.5C6.92042 6.17456 7.51091 6.00056 8.1142 6H31.8858C32.4891 6.00056 33.0796 6.17456 33.5851 6.5C34.0904 6.82551 34.4894 7.28888 34.7335 7.83398C34.9776 8.37922 35.0563 8.98271 34.9601 9.57129L34.9161 9.79004C34.795 10.2952 34.5462 10.7631 34.1915 11.1494L23.8897 22.3447V28.5097Z" fill="black"/>
</svg>
