<svg width="40" height="40" viewBox="0 0 40 40" fill="none" xmlns="http://www.w3.org/2000/svg">
<path d="M35.7244 10.5248L29.4501 4.27463C29.2736 4.09875 29.0342 4 28.7846 4H14.3529C12.796 4 11.5294 5.26169 11.5294 6.8125V19.1774C7.30002 19.6452 4 23.2269 4 27.5625C4 32.2149 7.79991 36 12.4706 36H33.1765C34.7334 36 36 34.7383 36 33.1875V11.1877C36 10.939 35.9009 10.7006 35.7244 10.5248ZM29.7255 7.20081L32.7866 10.25H29.7255V7.20081ZM5.88235 27.5625C5.88235 23.9439 8.83784 21 12.4706 21C16.1033 21 19.0588 23.9439 19.0588 27.5625C19.0588 31.1811 16.1033 34.125 12.4706 34.125C8.83784 34.125 5.88235 31.1811 5.88235 27.5625ZM33.1765 34.125H17.7882C19.48 32.7622 20.6361 30.7651 20.8887 28.5H30.6667C31.1864 28.5 31.6078 28.0802 31.6078 27.5625C31.6078 27.0448 31.1864 26.625 30.6667 26.625H20.8886C20.7351 25.2488 20.2483 23.9713 19.5102 22.875H30.6667C31.1864 22.875 31.6078 22.4552 31.6078 21.9375C31.6078 21.4198 31.1864 21 30.6667 21H17.7882C16.5633 20.0134 15.0581 19.3595 13.4118 19.1774V6.8125C13.4118 6.29556 13.834 5.875 14.3529 5.875H27.8431V11.1875C27.8431 11.7053 28.2645 12.125 28.7843 12.125H34.1176V33.1875C34.1176 33.7044 33.6954 34.125 33.1765 34.125Z" fill="black"/>
<path d="M30.6667 15.375H16.8627C16.343 15.375 15.9216 15.7948 15.9216 16.3125C15.9216 16.8302 16.343 17.25 16.8627 17.25H30.6667C31.1864 17.25 31.6078 16.8302 31.6078 16.3125C31.6078 15.7948 31.1864 15.375 30.6667 15.375Z" fill="black"/>
<path d="M14.9804 28.5C15.5002 28.5 15.9216 28.0802 15.9216 27.5625C15.9216 27.0448 15.5002 26.625 14.9804 26.625H13.4118V23.8125C13.4118 23.2948 12.9904 22.875 12.4706 22.875C11.9508 22.875 11.5294 23.2948 11.5294 23.8125V27.5625C11.5294 28.0802 11.9508 28.5 12.4706 28.5H14.9804Z" fill="black"/>
</svg>
