<svg width="40" height="40" viewBox="0 0 40 40" fill="none" xmlns="http://www.w3.org/2000/svg">
<path d="M7.13463 27.1313C6.81936 27.1313 6.50471 27.0113 6.26395 26.7705C5.78304 26.2896 5.78304 25.5101 6.26395 25.0292L25.5088 5.78445C25.989 5.30355 26.7692 5.30355 27.2501 5.78445C27.731 6.26535 27.731 7.04489 27.2501 7.52579L8.0053 26.7705C7.76516 27.0106 7.44989 27.1313 7.13463 27.1313Z" fill="black"/>
<path d="M5.23317 36C5.14758 36 5.06076 35.9908 4.97394 35.9723C4.30893 35.8294 3.88529 35.1749 4.02814 34.5099L5.93082 25.6412C6.07368 24.9762 6.73131 24.5538 7.39324 24.6954C8.05826 24.8383 8.4819 25.4928 8.33904 26.1578L6.43636 35.0265C6.31259 35.6047 5.80152 36 5.23317 36Z" fill="black"/>
<path d="M14.1007 34.0973C13.7854 34.0973 13.4707 33.9773 13.23 33.7365C12.7491 33.2556 12.7491 32.4761 13.23 31.9952L32.4748 12.7511C32.9551 12.2702 33.7352 12.2702 34.2162 12.7511C34.6971 13.232 34.6971 14.0115 34.2162 14.4924L14.972 33.7365C14.7312 33.9773 14.4159 34.0973 14.1007 34.0973Z" fill="black"/>
<path d="M5.23071 36C4.66237 36 4.15191 35.6047 4.02753 35.0265C3.88529 34.3615 4.30831 33.7069 4.97333 33.5641L13.842 31.6614C14.5077 31.5204 15.1622 31.9428 15.3045 32.6072C15.4467 33.2722 15.0237 33.9268 14.3587 34.0696L5.48994 35.9723C5.40312 35.9914 5.3163 36 5.23071 36Z" fill="black"/>
<path d="M29.8621 18.3359C29.5469 18.3359 29.2316 18.2159 28.9915 17.9751L22.0254 11.0091C21.5445 10.5282 21.5445 9.74866 22.0254 9.26776C22.5057 8.78685 23.2865 8.78685 23.7668 9.26776L30.7328 16.2338C31.2137 16.7147 31.2137 17.4942 30.7328 17.9751C30.4927 18.2159 30.1774 18.3359 29.8621 18.3359Z" fill="black"/>
<path d="M33.3455 14.8532C33.0302 14.8532 32.7149 14.7332 32.4742 14.4924C31.9933 14.0115 31.9939 13.2326 32.4748 12.7511C33.1601 12.0657 33.537 11.1372 33.537 10.1384C33.537 9.13968 33.1595 8.21174 32.4742 7.52641C31.7882 6.84046 30.8603 6.46301 29.8615 6.46301C28.8628 6.46301 27.9355 6.83985 27.2501 7.52579C26.7698 8.0067 25.9897 8.00793 25.5075 7.52641C25.0266 7.04551 25.0266 6.26597 25.5075 5.78445C26.6578 4.63361 28.2039 4 29.8615 4C31.5185 4 33.0653 4.63361 34.2155 5.78445C35.3664 6.93467 36 8.48083 36 10.1384C36 11.796 35.367 13.3422 34.2162 14.4924C33.9766 14.7326 33.6607 14.8532 33.3455 14.8532Z" fill="black"/>
</svg>
