<svg width="40" height="40" viewBox="0 0 40 40" fill="none" xmlns="http://www.w3.org/2000/svg">
<path d="M13.7334 26.4004C13.7334 24.1141 15.58 22.2669 17.8662 22.2666V24.2666C16.6846 24.2669 15.7334 25.2187 15.7334 26.4004V36H7.20117V34H13.7334V26.4004ZM24.2666 26.4004C24.2666 25.2926 23.4307 24.3864 22.3525 24.2774L22.1338 24.2666V22.2666C24.42 22.2669 26.2666 24.1141 26.2666 26.4004V34H32.7988V36H24.2666V26.4004ZM34 32.7988V15.7324C34 15.3336 33.7994 14.9578 33.4658 14.7354L20.667 6.20313C20.4623 6.06666 20.224 5.99664 19.9854 6.00001H19.9834C19.8134 6.00225 19.6435 6.04137 19.4863 6.11622L19.334 6.20313L6.53418 14.7354C6.20061 14.9578 6.00002 15.3336 6 15.7324V32.7988C5.9999 33.4492 6.55083 34.0001 7.20117 34V36L7.03711 35.9961C5.35672 35.9097 3.99974 34.499 4 32.7988V15.7324C4.00002 14.7315 4.47012 13.7893 5.2627 13.1865L5.4248 13.0713L18.2246 4.53907C18.74 4.19568 19.3419 4.00812 19.957 4.00001C20.6044 3.99088 21.2388 4.18074 21.7764 4.53907L34.5752 13.0713C35.4653 13.6647 36 14.665 36 15.7324V32.7988L35.9961 32.9629C35.9097 34.6433 34.4991 36.0003 32.7988 36V34C33.4492 34.0001 34.0001 33.4492 34 32.7988ZM22.1338 22.2666V24.2666H17.8662V22.2666H22.1338Z" fill="black"/>
</svg>
