<svg width="40" height="40" viewBox="0 0 40 40" fill="none" xmlns="http://www.w3.org/2000/svg">
<path d="M34.125 19.3273V15.5528C34.125 13.6985 32.6502 12.1831 30.8125 12.1169V9.80013C30.8125 8.59337 29.8312 7.61159 28.625 7.61159H22.6026L21.8249 5.44889C21.6266 4.89738 21.2253 4.45667 20.6947 4.20799C20.1642 3.95925 19.5689 3.93273 19.0184 4.1332L8.09 8.11264C7.54013 8.31286 7.10144 8.71549 6.85469 9.24637C6.60794 9.77724 6.58288 10.3723 6.78419 10.9221L7.22325 12.1211C5.42731 12.2322 4 13.7285 4 15.5528V32.5609C4 34.4572 5.54206 36 7.4375 36H30.6875C32.5829 36 34.125 34.4572 34.125 32.5609V28.6613C35.1836 28.5091 36 27.5961 36 26.4955V21.4932C36 20.3926 35.1836 19.4795 34.125 19.3273ZM34.125 26.4955C34.125 26.6679 33.9848 26.8082 33.8125 26.8082H28.8125C27.2617 26.8082 26 25.5459 26 23.9943C26 22.4428 27.2617 21.1805 28.8125 21.1805H33.8125C33.9848 21.1805 34.125 21.3208 34.125 21.4932V26.4955ZM8.54475 10.2768C8.50594 10.1708 8.53438 10.0813 8.55481 10.0374C8.57525 9.99347 8.62531 9.91399 8.73131 9.87541L19.6597 5.89597C19.7658 5.85739 19.8552 5.88609 19.8992 5.90666C19.9431 5.92724 20.0224 5.97764 20.0606 6.08394L20.61 7.61166H20.1875C18.9813 7.61166 18 8.59343 18 9.80019V12.1138H9.21744L8.54475 10.2768ZM28.9375 9.80013V12.1137H19.875V9.80013C19.875 9.62773 20.0152 9.48748 20.1875 9.48748H28.625C28.7973 9.48748 28.9375 9.62773 28.9375 9.80013ZM30.6875 34.1241H7.4375C6.57594 34.1241 5.875 33.4228 5.875 32.5609V15.5528C5.875 14.6909 6.57594 13.9896 7.4375 13.9896H30.6875C31.5491 13.9896 32.25 14.6909 32.25 15.5528V19.3046H28.8125C26.2278 19.3046 24.125 21.4084 24.125 23.9943C24.125 26.5802 26.2278 28.684 28.8125 28.684H32.25V32.5609C32.25 33.4228 31.5491 34.1241 30.6875 34.1241Z" fill="black"/>
<path d="M28.8125 24.9323C29.3303 24.9323 29.75 24.5123 29.75 23.9943C29.75 23.4763 29.3303 23.0564 28.8125 23.0564C28.2947 23.0564 27.875 23.4763 27.875 23.9943C27.875 24.5123 28.2947 24.9323 28.8125 24.9323Z" fill="black"/>
</svg>
