<svg width="40" height="40" viewBox="0 0 40 40" fill="none" xmlns="http://www.w3.org/2000/svg">
<path d="M11.1623 35C10.8117 35 10.4635 34.893 10.1664 34.6828C9.61292 34.2904 9.35437 33.6159 9.50501 32.9651L11.5636 24.0938L4.58203 18.1041C4.06884 17.6658 3.87279 16.9717 4.08349 16.3366C4.29418 15.7028 4.86744 15.254 5.54617 15.1926L14.7837 14.3722L18.4359 6.01102C18.7052 5.39672 19.3185 5 19.9999 5C20.6813 5 21.2946 5.39672 21.5639 6.00959L25.2161 14.3722L34.4522 15.1926C35.1323 15.2525 35.7056 15.7028 35.9163 16.3366C36.127 16.9705 35.9322 17.6658 35.419 18.1041L28.4374 24.0926L30.496 32.9636C30.6469 33.6159 30.3881 34.2904 29.8349 34.6816C29.2828 35.0728 28.5467 35.1029 27.9654 34.7612L19.9999 30.1045L12.0344 34.7638C11.7651 34.9202 11.465 35 11.1623 35ZM19.9999 28.0984C20.3026 28.0984 20.6024 28.178 20.872 28.3344L28.3895 32.7329L26.4466 24.3598C26.3079 23.7639 26.5147 23.1417 26.9854 22.7386L33.5776 17.0828L24.856 16.308C24.228 16.2519 23.688 15.8656 23.4426 15.2996L19.9999 7.4092L16.553 15.3008C16.3103 15.863 15.7703 16.2492 15.1438 16.3054L6.42095 17.0802L13.0129 22.7359C13.4851 23.1403 13.6916 23.7613 13.5517 24.3586L11.6103 32.7315L19.1278 28.3344C19.3971 28.178 19.6972 28.0984 19.9999 28.0984ZM14.7131 14.5339C14.7131 14.5339 14.7131 14.5353 14.7117 14.5365L14.7131 14.5339ZM25.284 14.53L25.2854 14.5327C25.2854 14.5312 25.2854 14.5312 25.284 14.53Z" fill="black"/>
</svg>
