<svg width="40" height="40" viewBox="0 0 40 40" fill="none" xmlns="http://www.w3.org/2000/svg">
<path d="M20.3156 36C20.2096 36 20.1036 36 19.9969 35.9995C17.4886 36.0056 15.1708 35.9419 12.9168 35.8047C10.8504 35.679 8.96406 34.9648 7.46156 33.7397C6.0118 32.5576 5.02177 30.9592 4.51906 28.9895C4.08155 27.2746 4.05835 25.5913 4.03613 23.9631C4.02002 22.7949 4.00342 21.4106 4 20.0029C4.00342 18.5893 4.02002 17.205 4.03613 16.0368C4.05835 14.4089 4.08155 12.7255 4.51906 11.0104C5.02177 9.0407 6.0118 7.4423 7.46156 6.26017C8.96406 5.03507 10.8504 4.32096 12.9171 4.19522C15.1711 4.05826 17.4893 3.99429 20.0031 4.0004C22.5122 3.99503 24.8292 4.05826 27.0832 4.19522C29.1496 4.32096 31.0359 5.03507 32.5384 6.26017C33.9884 7.4423 34.9782 9.0407 35.4809 11.0104C35.9185 12.7253 35.9416 14.4089 35.9639 16.0368C35.98 17.205 35.9968 18.5893 36 19.997V20.0029C35.9968 21.4106 35.98 22.7949 35.9639 23.9631C35.9416 25.591 35.9187 27.2744 35.4809 28.9895C34.9782 30.9592 33.9884 32.5576 32.5384 33.7397C31.0359 34.9648 29.1496 35.679 27.0832 35.8047C24.9246 35.936 22.7073 36 20.3156 36ZM19.9969 33.4995C22.4646 33.5054 24.7303 33.4431 26.9313 33.3093C28.4939 33.2143 29.8486 32.7073 30.9585 31.8022C31.9845 30.9656 32.691 29.8113 33.0585 28.3713C33.4228 26.9438 33.4438 25.4111 33.464 23.9289C33.4799 22.7685 33.4965 21.394 33.4999 20C33.4965 18.6057 33.4799 17.2314 33.464 16.071C33.4438 14.5888 33.4228 13.0561 33.0585 11.6284C32.691 10.1884 31.9845 9.0341 30.9585 8.19743C29.8486 7.29264 28.4939 6.78556 26.9313 6.69059C24.7303 6.55656 22.4646 6.49479 20.0028 6.50016C17.5357 6.4943 15.2697 6.55656 13.0687 6.69059C11.5061 6.78556 10.1514 7.29264 9.04145 8.19743C8.01553 9.0341 7.30896 10.1884 6.94152 11.6284C6.57725 13.0561 6.55625 14.5886 6.53599 16.071C6.52012 17.2324 6.50351 18.6076 6.5001 20.0029C6.50351 21.392 6.52012 22.7675 6.53599 23.9289C6.55625 25.4111 6.57725 26.9438 6.94152 28.3713C7.30896 29.8113 8.01553 30.9656 9.04145 31.8022C10.1514 32.707 11.5061 33.2141 13.0687 33.3091C15.2697 33.4431 17.5362 33.5056 19.9969 33.4995ZM19.9374 27.8125C15.6296 27.8125 12.1246 24.3078 12.1246 20C12.1246 15.6921 15.6296 12.1874 19.9374 12.1874C24.2454 12.1874 27.7502 15.6921 27.7502 20C27.7502 24.3078 24.2454 27.8125 19.9374 27.8125ZM19.9374 14.6874C17.0081 14.6874 14.6247 17.0707 14.6247 20C14.6247 22.9292 17.0081 25.3125 19.9374 25.3125C22.8669 25.3125 25.2501 22.9292 25.2501 20C25.2501 17.0707 22.8669 14.6874 19.9374 14.6874ZM28.6252 9.68743C27.5898 9.68743 26.7501 10.5268 26.7501 11.5624C26.7501 12.5981 27.5898 13.4374 28.6252 13.4374C29.6609 13.4374 30.5003 12.5981 30.5003 11.5624C30.5003 10.5268 29.6609 9.68743 28.6252 9.68743Z" fill="black"/>
</svg>
