<svg width="40" height="40" viewBox="0 0 40 40" fill="none" xmlns="http://www.w3.org/2000/svg">
<path d="M39.566 19.6963L37.1432 17.6058C36.978 17.4633 36.8513 17.2865 36.7734 17.0899L34.8708 12.284C34.5987 11.6067 34.1112 11.0226 33.4732 10.6096C32.8352 10.1965 32.077 9.97422 31.2997 9.97221H28.417V9.21991C28.417 8.89639 28.2788 8.58612 28.0329 8.35735C27.787 8.12858 27.4534 8.00006 27.1056 8.00006H9.68388C9.42466 7.99722 9.17447 8.08854 8.98649 8.2546C8.7985 8.42066 8.68756 8.64836 8.67722 8.88932C8.67481 9.00977 8.69822 9.12946 8.7461 9.24139C8.79397 9.35333 8.86535 9.45526 8.95607 9.54124C9.04678 9.62722 9.155 9.69552 9.27442 9.74215C9.39383 9.78877 9.52204 9.81279 9.65154 9.8128H26.4682V17.6778C26.4682 18.0013 26.6063 18.3116 26.8523 18.5403C27.0982 18.7691 27.4317 18.8976 27.7795 18.8976H35.6991L38.0511 20.8666V28.2117H35.9188C35.7064 27.3474 35.185 26.5757 34.4397 26.023C33.6945 25.4703 32.7696 25.1693 31.8165 25.1693C30.8634 25.1693 29.9385 25.4703 29.1932 26.023C28.448 26.5757 27.9265 27.3474 27.7142 28.2117H21.1525C20.9402 27.3474 20.4187 26.5757 19.6735 26.023C18.9282 25.4703 18.0034 25.1693 17.0502 25.1693C16.0971 25.1693 15.1723 25.4703 14.427 26.023C13.6817 26.5757 13.1603 27.3474 12.9479 28.2117H9.6838C9.42455 28.2088 9.17433 28.3002 8.98636 28.4663C8.79838 28.6324 8.68748 28.8602 8.67722 29.1011C8.67481 29.2216 8.69822 29.3413 8.7461 29.4532C8.79398 29.5651 8.86536 29.6671 8.95607 29.753C9.04679 29.839 9.15501 29.9073 9.27442 29.9539C9.39384 30.0005 9.52204 30.0246 9.65154 30.0246H12.9643C13.19 30.8739 13.715 31.6284 14.4556 32.1677C15.1961 32.707 16.1095 33 17.05 33C17.9905 33 18.9038 32.707 19.6444 32.1677C20.3849 31.6284 20.9099 30.8739 21.1356 30.0246H27.7307C27.9564 30.8739 28.4814 31.6284 29.222 32.1677C29.9625 32.707 30.8759 33 31.8164 33C32.7568 33 33.6702 32.707 34.4108 32.1677C35.1513 31.6284 35.6763 30.8739 35.902 30.0246H38.6886C39.0364 30.0246 39.37 29.896 39.6159 29.6673C39.8618 29.4385 40 29.1283 40 28.8048V20.6029C39.9999 20.4319 39.9612 20.2629 39.8864 20.1067C39.8116 19.9506 39.7025 19.8107 39.566 19.6963ZM28.417 17.0851V11.7849H31.2997C31.6792 11.7858 32.0494 11.8944 32.3609 12.096C32.6724 12.2977 32.9105 12.5829 33.0433 12.9136L34.7043 17.0851H28.417ZM17.05 31.187C16.603 31.187 16.166 31.0637 15.7943 30.8327C15.4226 30.6016 15.1329 30.2733 14.9618 29.8891C14.7908 29.5049 14.746 29.0822 14.8332 28.6743C14.9204 28.2665 15.1357 27.8918 15.4518 27.5978C15.7679 27.3038 16.1707 27.1035 16.6091 27.0224C17.0476 26.9413 17.502 26.9829 17.915 27.1421C18.328 27.3012 18.681 27.5707 18.9293 27.9165C19.1777 28.2622 19.3102 28.6687 19.3102 29.0846C19.3095 29.642 19.0712 30.1764 18.6475 30.5705C18.2237 30.9647 17.6492 31.1864 17.05 31.187ZM31.8164 31.187C31.3694 31.187 30.9324 31.0637 30.5607 30.8327C30.189 30.6017 29.8992 30.2733 29.7282 29.8891C29.5571 29.5049 29.5123 29.0822 29.5995 28.6744C29.6867 28.2665 29.902 27.8919 30.2181 27.5978C30.5342 27.3038 30.9369 27.1035 31.3754 27.0224C31.8138 26.9413 32.2683 26.9829 32.6813 27.1421C33.0943 27.3012 33.4473 27.5707 33.6956 27.9165C33.944 28.2622 34.0765 28.6687 34.0765 29.0846C34.0758 29.642 33.8375 30.1764 33.4138 30.5705C32.9901 30.9647 32.4156 31.1864 31.8164 31.187Z" fill="black"/>
<path d="M5.49058 14.8836H16.5408C16.7993 14.8836 17.0471 14.7881 17.2299 14.6181C17.4126 14.4481 17.5153 14.2175 17.5153 13.9771C17.5153 13.7367 17.4126 13.5061 17.2299 13.3361C17.0471 13.1661 16.7993 13.0706 16.5408 13.0706H5.49058C5.23213 13.0706 4.98427 13.1661 4.80152 13.3361C4.61877 13.5061 4.5161 13.7367 4.5161 13.9771C4.5161 14.2175 4.61877 14.4481 4.80152 14.6181C4.98427 14.7881 5.23213 14.8836 5.49058 14.8836Z" fill="black"/>
<path d="M17.5153 19.0123C17.5153 18.7719 17.4126 18.5414 17.2299 18.3714C17.0471 18.2014 16.7993 18.1059 16.5408 18.1059H0.983199C0.8545 18.1048 0.726848 18.1275 0.607613 18.1725C0.488378 18.2176 0.379922 18.2842 0.288508 18.3685C0.197095 18.4527 0.124533 18.553 0.0750144 18.6635C0.0254955 18.774 0 18.8926 0 19.0123C0 19.132 0.0254955 19.2506 0.0750144 19.3611C0.124533 19.4716 0.197095 19.5719 0.288508 19.6561C0.379922 19.7404 0.488378 19.807 0.607613 19.8521C0.726848 19.8972 0.8545 19.9198 0.983199 19.9187H16.5408C16.7993 19.9187 17.0471 19.8233 17.2298 19.6533C17.4126 19.4833 17.5153 19.2527 17.5153 19.0123Z" fill="black"/>
<path d="M11.3452 24.0476C11.3452 23.9286 11.32 23.8107 11.271 23.7007C11.222 23.5908 11.1502 23.4908 11.0598 23.4067C10.9693 23.3225 10.8619 23.2557 10.7436 23.2102C10.6254 23.1646 10.4987 23.1412 10.3708 23.1412H3.59794C3.34102 23.1433 3.0954 23.2398 2.91453 23.4095C2.73366 23.5793 2.63219 23.8086 2.63219 24.0476C2.63219 24.2866 2.73366 24.516 2.91453 24.6857C3.0954 24.8555 3.34102 24.9519 3.59794 24.9541H10.3708C10.6292 24.9541 10.877 24.8585 11.0598 24.6885C11.2425 24.5185 11.3452 24.288 11.3452 24.0476Z" fill="black"/>
</svg>
