<svg width="40" height="40" viewBox="0 0 40 40" fill="none" xmlns="http://www.w3.org/2000/svg">
<path d="M32 4H13.7143C11.5429 4 9.71429 5.82857 9.71429 8V9.71429H8.57143C6.05714 9.71429 4 11.7714 4 14.2857V31.4286C4 33.9429 6.05714 36 8.57143 36H25.7143C28.2286 36 30.2857 33.9429 30.2857 31.4286V30.2857H32C34.1714 30.2857 36 28.4571 36 26.2857V8C36 5.82857 34.1714 4 32 4ZM28 31.4286C28 32.6857 26.9714 33.7143 25.7143 33.7143H8.57143C7.31429 33.7143 6.28571 32.6857 6.28571 31.4286V14.2857C6.28571 13.0286 7.31429 12 8.57143 12H25.7143C26.9714 12 28 13.0286 28 14.2857V31.4286ZM33.7143 26.2857C33.7143 27.2 32.9143 28 32 28H30.2857V14.2857C30.2857 11.7714 28.2286 9.71429 25.7143 9.71429H12V8C12 7.08571 12.8 6.28571 13.7143 6.28571H32C32.9143 6.28571 33.7143 7.08571 33.7143 8V26.2857Z" fill="black"/>
</svg>
