<svg width="40" height="40" viewBox="0 0 40 40" fill="none" xmlns="http://www.w3.org/2000/svg">
<path d="M16.2989 23.8646C15.9023 23.5279 15.3109 23.5804 14.9782 23.9817C14.7599 24.2431 14.4761 24.366 14.0999 24.3665C13.2194 24.3665 12.5031 23.6419 12.5031 22.7513C12.5031 21.8607 13.2194 21.1361 14.0999 21.1361C14.4199 21.1361 14.7284 21.2313 14.9919 21.4114C15.4209 21.7045 16.0037 21.5905 16.2936 21.1565C16.5835 20.7224 16.4707 20.133 16.0416 19.8397C15.4669 19.447 14.7955 19.2394 14.0999 19.2394C12.1856 19.2394 10.6281 20.8148 10.6281 22.7513C10.6281 24.6877 12.1856 26.2631 14.0999 26.2631C14.8736 26.2631 15.5702 26.0041 16.1143 25.514C16.2207 25.4181 16.3217 25.3127 16.4147 25.2006C16.7474 24.7994 16.6956 24.2012 16.2989 23.8646Z" fill="black"/>
<path d="M29.3601 28.1309C29.0991 28.1343 28.8288 28.137 28.5667 28.139C28.7876 27.8318 29.0494 27.4618 29.3571 27.0169C29.7143 26.5006 29.939 26.0268 30.044 25.5683C30.3382 24.1995 29.2274 22.8723 27.8521 22.8875C26.7835 22.8875 25.8586 23.6567 25.6529 24.7163C25.5531 25.2303 25.8841 25.7287 26.3921 25.8296C26.9001 25.9305 27.393 25.5958 27.4927 25.0818C27.5262 24.9094 27.6773 24.7842 27.8521 24.7842C28.0563 24.7823 28.247 24.9712 28.2078 25.1786C28.1667 25.3305 28.0656 25.5758 27.821 25.9293C27.0181 27.0897 26.5394 27.7237 26.2823 28.0644C25.9471 28.5083 25.7049 28.829 25.8579 29.3321C25.9491 29.6317 26.1812 29.8705 26.4789 29.9708C26.6032 30.0128 26.6873 30.0411 27.7128 30.0411C28.1098 30.0411 28.6478 30.0369 29.3837 30.0275C29.9014 30.021 30.3158 29.5911 30.3094 29.0673C30.3028 28.5436 29.8793 28.1272 29.3601 28.1309Z" fill="black"/>
<path d="M21.1362 19.2641C19.2225 19.2641 17.665 20.839 17.665 22.7755C17.665 24.712 19.2225 26.2875 21.1362 26.2875C23.0506 26.2875 24.6081 24.712 24.6081 22.7755C24.6081 20.839 23.0506 19.2641 21.1362 19.2641ZM21.1362 24.3908C20.2562 24.3908 19.54 23.6663 19.54 22.7755C19.54 21.8853 20.2562 21.1608 21.1362 21.1608C22.0169 21.1608 22.7331 21.8853 22.7331 22.7755C22.7331 23.6663 22.0169 24.3908 21.1362 24.3908Z" fill="black"/>
<path d="M34.0306 21.4118C32.9762 20.2586 31.6087 19.4784 30.1106 19.1617C30.0887 14.805 26.5781 11.2677 22.2663 11.2677C19.77 11.2677 17.4219 12.4847 15.9537 14.4921C15.1494 14.1772 14.2863 14.0128 13.4169 14.0128C9.55062 14.0128 6.405 17.1948 6.405 21.1058C6.405 21.9011 6.53875 22.6939 6.79562 23.4418C5.09125 24.4408 4 26.3039 4 28.3416C4 31.4616 6.50938 34 9.59375 34H28.5875C32.6744 34 36 30.6359 36 26.5018C36 24.6083 35.3006 22.8008 34.0306 21.4118ZM28.5875 32.1033H9.59375C7.54312 32.1033 5.875 30.4159 5.875 28.3416C5.875 26.7617 6.86125 25.3398 8.33 24.8024C8.85056 24.6263 9.10675 23.9646 8.845 23.4772C8.47 22.7401 8.28 21.9422 8.28 21.1058C8.28 18.2405 10.5844 15.9095 13.4169 15.9095C14.2662 15.9095 15.1075 16.1232 15.8488 16.5272C16.2944 16.7706 16.8494 16.6119 17.1044 16.1693C18.17 14.3163 20.1481 13.1644 22.2663 13.1644C25.5575 13.1644 28.2356 15.8735 28.2356 19.2028C28.2356 19.4266 28.2237 19.651 28.1994 19.8698C28.1326 20.3849 28.5411 20.8871 29.0537 20.9199C30.4319 21.0356 31.7106 21.6672 32.6544 22.6996C33.6025 23.7371 34.125 25.0875 34.125 26.5018C34.125 29.5902 31.6406 32.1033 28.5875 32.1033Z" fill="black"/>
<path d="M13.0737 6C11.5231 6 10.2613 7.27646 10.2613 8.84501C10.2613 10.4136 11.5231 11.69 13.0737 11.69C14.6244 11.69 15.8862 10.4136 15.8862 8.84501C15.8862 7.27646 14.6244 6 13.0737 6ZM13.0737 9.79335C12.5569 9.79335 12.1362 9.36786 12.1362 8.84501C12.1362 8.32216 12.5569 7.89668 13.0737 7.89668C13.5906 7.89668 14.0112 8.32216 14.0112 8.84501C14.0112 9.36786 13.5906 9.79335 13.0737 9.79335Z" fill="black"/>
<path d="M33.1875 10.4256C31.6369 10.4256 30.375 11.702 30.375 13.2706C30.375 14.8391 31.6369 16.1156 33.1875 16.1156C34.7381 16.1156 36 14.8391 36 13.2706C36 11.702 34.7381 10.4256 33.1875 10.4256ZM33.1875 14.2189C32.6706 14.2189 32.25 13.7934 32.25 13.2706C32.25 12.7477 32.6706 12.3223 33.1875 12.3223C33.7044 12.3223 34.125 12.7477 34.125 13.2706C34.125 13.7934 33.7044 14.2189 33.1875 14.2189Z" fill="black"/>
<path d="M24.5981 8.83711C25.1158 8.83711 25.5356 8.41253 25.5356 7.88877C25.5356 7.36502 25.1158 6.94044 24.5981 6.94044C24.0803 6.94044 23.6606 7.36502 23.6606 7.88877C23.6606 8.41253 24.0803 8.83711 24.5981 8.83711Z" fill="black"/>
<path d="M35.0625 8.11808C35.5803 8.11808 36 7.6935 36 7.16974C36 6.64599 35.5803 6.22141 35.0625 6.22141C34.5447 6.22141 34.125 6.64599 34.125 7.16974C34.125 7.6935 34.5447 8.11808 35.0625 8.11808Z" fill="black"/>
<path d="M7.17781 13.4484C7.69558 13.4484 8.11531 13.0238 8.11531 12.5C8.11531 11.9763 7.69558 11.5517 7.17781 11.5517C6.66005 11.5517 6.24031 11.9763 6.24031 12.5C6.24031 13.0238 6.66005 13.4484 7.17781 13.4484Z" fill="black"/>
</svg>
