<svg width="40" height="40" viewBox="0 0 40 40" fill="none" xmlns="http://www.w3.org/2000/svg">
<path fill-rule="evenodd" clip-rule="evenodd" d="M27.9555 4.10318C26.6689 3.99999 25.0683 4 23.0267 4H16.9733C14.9317 4 13.331 3.99999 12.0446 4.10318C10.7346 4.20826 9.65237 4.42578 8.67282 4.91578C7.0625 5.72133 5.75327 7.00671 4.93278 8.58768C4.43368 9.54939 4.21212 10.6119 4.10509 11.898C3.99999 13.161 4 14.7325 4 16.7369V22.9646C4 26.6138 7.01307 29.572 10.7299 29.572H11.6255C11.9954 29.572 12.2483 29.9387 12.1109 30.2758C11.0889 32.7844 14.0315 35.0521 16.2707 33.4818L20.1564 30.7569L20.2296 30.7057C21.2848 29.9758 22.542 29.5801 23.8327 29.5721L23.9224 29.572H24.9579C27.2628 29.5722 28.6689 29.5725 29.8499 29.2325C32.6468 28.4274 34.8341 26.2799 35.6542 23.5339C36.0006 22.3744 36.0003 20.9941 36 18.7312V16.7369C36 14.7325 36 13.161 35.8949 11.898C35.7879 10.6119 35.5663 9.54939 35.0672 8.58768C34.2467 7.00671 32.9375 5.72133 31.3271 4.91578C30.3476 4.42578 29.2654 4.20826 27.9555 4.10318ZM9.68638 6.86876C10.2987 6.56244 11.0544 6.38179 12.2263 6.28778C13.4113 6.19273 14.9209 6.19188 17.0232 6.19188H22.9767C25.0791 6.19188 26.5887 6.19273 27.7736 6.28778C28.9455 6.38179 29.7012 6.56244 30.3137 6.86876C31.5038 7.46417 32.4715 8.41423 33.078 9.58278C33.39 10.184 33.5739 10.9259 33.6698 12.0765C33.7665 13.2398 33.7674 14.7219 33.7674 16.786V18.5164C33.7674 21.0618 33.7561 22.0995 33.5119 22.9171C32.9057 24.9468 31.289 26.534 29.2216 27.1292C28.3889 27.369 27.3319 27.3801 24.7393 27.3801H23.9224L23.8184 27.3802C22.0721 27.3912 20.371 27.9264 18.9435 28.914L14.9731 31.6982C14.5482 31.9962 13.9899 31.5658 14.1838 31.0899C14.9078 29.313 13.5749 27.3801 11.6255 27.3801H10.7299C8.24608 27.3801 6.23256 25.4033 6.23256 22.9646V16.786C6.23256 14.7219 6.23342 13.2398 6.33024 12.0765C6.42599 10.9259 6.60999 10.184 6.922 9.58278C7.52845 8.41423 8.49615 7.46417 9.68638 6.86876Z" fill="black"/>
<path d="M15.5349 16.786C15.5349 17.593 14.8685 18.2472 14.0465 18.2472C13.2245 18.2472 12.5581 17.593 12.5581 16.786C12.5581 15.979 13.2245 15.3247 14.0465 15.3247C14.8685 15.3247 15.5349 15.979 15.5349 16.786Z" fill="black"/>
<path d="M21.4884 16.786C21.4884 17.593 20.822 18.2472 20 18.2472C19.178 18.2472 18.5116 17.593 18.5116 16.786C18.5116 15.979 19.178 15.3247 20 15.3247C20.822 15.3247 21.4884 15.979 21.4884 16.786Z" fill="black"/>
<path d="M27.4418 16.786C27.4418 17.593 26.7755 18.2472 25.9535 18.2472C25.1314 18.2472 24.4651 17.593 24.4651 16.786C24.4651 15.979 25.1314 15.3247 25.9535 15.3247C26.7755 15.3247 27.4418 15.979 27.4418 16.786Z" fill="black"/>
</svg>
