<svg width="40" height="40" viewBox="0 0 40 40" fill="none" xmlns="http://www.w3.org/2000/svg">
<path d="M32.5 9H7.5C5.57012 9 4 10.5701 4 12.5V27.5C4 29.4299 5.57012 31 7.5 31H32.5C34.4299 31 36 29.4299 36 27.5V12.5C36 10.5701 34.4299 9 32.5 9ZM7.5 11H32.5C33.3271 11 34 11.6729 34 12.5V14.5H6V12.5C6 11.6729 6.67294 11 7.5 11ZM32.5 29H7.5C6.67294 29 6 28.3271 6 27.5V16.5H34V27.5C34 28.3271 33.3271 29 32.5 29Z" fill="black"/>
<path d="M11 26H10C9.44775 26 9 25.5522 9 25V24C9 23.4478 9.44775 23 10 23H11C11.5522 23 12 23.4478 12 24V25C12 25.5522 11.5522 26 11 26Z" fill="black"/>
</svg>
