<svg width="40" height="40" viewBox="0 0 40 40" fill="none" xmlns="http://www.w3.org/2000/svg">
<path d="M33.1875 9H6.8125C5.26488 9 4 10.2313 4 11.75V28.25C4 29.7692 5.26569 31 6.8125 31H33.1875C34.7351 31 36 29.7687 36 28.25V11.75C36 10.231 34.7345 9 33.1875 9ZM32.7556 10.8333C31.8463 11.7254 21.1653 22.2031 20.7265 22.6335C20.36 22.993 19.6402 22.9932 19.2735 22.6335L7.24437 10.8333H32.7556ZM5.875 27.913V12.087L13.9416 20L5.875 27.913ZM7.24437 29.1667L15.2653 21.2985L17.9456 23.9278C19.0439 25.0052 20.9565 25.0048 22.0545 23.9278L24.7348 21.2985L32.7556 29.1667H7.24437ZM34.125 27.913L26.0584 20L34.125 12.087V27.913Z" fill="black"/>
</svg>
