<svg width="40" height="40" viewBox="0 0 40 40" fill="none" xmlns="http://www.w3.org/2000/svg">
<path d="M16.3388 4H26.5937C26.9046 3.99984 27.2109 4.07887 27.4843 4.22949C27.7575 4.38011 27.9897 4.59751 28.1591 4.86231C28.3285 5.12718 28.4295 5.43117 28.454 5.74609C28.4785 6.06102 28.4251 6.37737 28.2987 6.66602L23.495 17.6484H29.1347C29.4891 17.6486 29.8366 17.7521 30.1357 17.9453C30.4345 18.1385 30.6728 18.4143 30.8232 18.7402C30.9736 19.0664 31.0296 19.4298 30.9843 19.7871L30.9628 19.9199C30.9017 20.2274 30.7667 20.5157 30.5683 20.7578L18.6308 35.3125C18.4585 35.5264 18.2416 35.6996 17.996 35.8184L17.8075 35.8965C17.6156 35.9641 17.413 35.9993 17.2089 36C16.919 35.999 16.6328 35.9304 16.373 35.7998C15.9945 35.616 15.689 35.3062 15.5077 34.9219C15.3264 34.5375 15.2797 34.1014 15.3759 33.6865L17.3905 24.4736H10.8661C10.6442 24.4737 10.4247 24.4333 10.2177 24.3555L10.0155 24.2656C9.81817 24.163 9.64132 24.0253 9.4921 23.8604L9.35245 23.6865C9.22274 23.5037 9.12607 23.2991 9.06729 23.083L9.02139 22.8633C8.9769 22.5663 9.00196 22.2625 9.09561 21.9775L14.5692 5.2959C14.6773 4.96563 14.8729 4.67306 15.1327 4.44922L15.248 4.35742C15.5655 4.12485 15.9473 3.99974 16.3388 4ZM16.3378 5.59961C16.2886 5.59957 16.2379 5.61573 16.1933 5.64844C16.1484 5.68138 16.1102 5.73076 16.0898 5.79297V5.79492L10.6161 22.4766V22.4775C10.6006 22.5248 10.596 22.5758 10.6034 22.626C10.611 22.6762 10.6301 22.7227 10.6571 22.7607C10.684 22.7986 10.7179 22.827 10.7538 22.8457C10.7896 22.8643 10.8276 22.873 10.8651 22.873H17.3905C17.8747 22.873 18.3329 23.0927 18.6366 23.4697C18.9403 23.847 19.0575 24.3423 18.954 24.8154L16.9394 34.0283C16.9379 34.0348 16.936 34.0414 16.9345 34.0479C16.9194 34.113 16.9276 34.1811 16.955 34.2393C16.9686 34.2681 16.9858 34.2932 17.0058 34.3135L17.0722 34.3604L17.0917 34.3701C17.1293 34.389 17.1692 34.3985 17.2089 34.3994C17.2391 34.3986 17.2696 34.3919 17.2987 34.3779C17.3298 34.3629 17.3599 34.3394 17.3847 34.3086L17.3935 34.2979L29.33 19.7432C29.3648 19.7007 29.3896 19.6465 29.3974 19.5859C29.4051 19.5251 29.3956 19.4635 29.371 19.4102C29.3466 19.3572 29.3093 19.3162 29.2675 19.2891C29.2467 19.2756 29.2243 19.2654 29.2021 19.2588L29.1337 19.249H23.495C22.9551 19.249 22.4507 18.9763 22.1552 18.5244C21.8599 18.0726 21.8129 17.5023 22.0292 17.0078L26.8329 6.02441H26.8339C26.8546 5.97716 26.8635 5.92371 26.8593 5.87012C26.8551 5.81664 26.8382 5.76649 26.8114 5.72461C26.7847 5.68288 26.7494 5.65161 26.7118 5.63086C26.6744 5.61023 26.6342 5.59962 26.5946 5.59961H16.3378Z" fill="black"/>
</svg>
