<svg width="40" height="40" viewBox="0 0 40 40" fill="none" xmlns="http://www.w3.org/2000/svg">
<path d="M35.1347 17.9112L31.5534 14.3301V4.9375C31.5534 4.41975 31.1336 4 30.6159 4H26.599C26.0813 4 25.6615 4.41975 25.6615 4.9375V8.43855L22.088 4.86519C21.5301 4.30725 20.7883 4 19.9993 4C19.2102 4 18.4683 4.30725 17.9105 4.86519L4.86384 17.9113C3.71205 19.063 3.71205 20.937 4.86384 22.0887C5.4218 22.6467 6.16358 22.9539 6.95261 22.9539C7.11793 22.9539 7.28093 22.9396 7.44088 22.9132V32.5521C7.44088 34.4533 8.98769 36 10.8889 36H16.9867C17.5045 36 17.9243 35.5802 17.9243 35.0625V27.9666H22.0744V35.0624C22.0744 35.5802 22.4942 35.9999 23.012 35.9999H29.1097C31.0109 35.9999 32.5577 34.4533 32.5577 32.5521V22.9131C32.7176 22.9396 32.8805 22.9538 33.0458 22.9538C33.8347 22.9538 34.5767 22.6466 35.1348 22.0886C35.6927 21.5307 35.9999 20.789 36 20C35.9999 19.211 35.6926 18.4692 35.1347 17.9112ZM27.5366 5.875H29.6784V12.4552L27.5366 10.3134V5.875ZM29.1096 34.1249H23.9494V27.0291C23.9494 26.5114 23.5297 26.0916 23.0119 26.0916H16.9867C16.4689 26.0916 16.0491 26.5114 16.0491 27.0291V34.1249H10.8889C10.0215 34.1249 9.31588 33.4194 9.31588 32.5521V21.814L19.9993 11.1313L30.6826 21.8142V32.5521C30.6826 33.4194 29.977 34.1249 29.1096 34.1249ZM33.8089 20.7628C33.605 20.9667 33.334 21.0789 33.0459 21.0789C32.7578 21.0788 32.4869 20.9667 32.2831 20.763C32.283 20.7629 32.2832 20.7631 32.2831 20.763L20.6622 9.14255C20.2962 8.77637 19.7026 8.77649 19.3364 9.14255L7.71564 20.7627C7.71551 20.7628 7.71576 20.7625 7.71564 20.7627C7.51188 20.9664 7.24074 21.0789 6.95261 21.0789C6.66447 21.0789 6.39353 20.9667 6.18971 20.7629C5.76907 20.3423 5.76907 19.6578 6.18971 19.2372L19.2363 6.191C19.4401 5.98725 19.7111 5.875 19.9993 5.875C20.2874 5.875 20.5584 5.98725 20.7621 6.191L33.8088 19.237C34.2295 19.6577 34.2295 20.3422 33.8089 20.7628Z" fill="black"/>
</svg>
