<svg width="100" height="100" viewBox="0 0 100 100" fill="none" xmlns="http://www.w3.org/2000/svg">
<g clip-path="url(#clip0_6418_60503)">
<path d="M69.9455 76.8025H29.2678C28.7034 76.8025 28.2458 77.2601 28.2458 77.8245V77.8307C28.2458 78.3952 28.7034 78.8528 29.2678 78.8528H69.9455C70.51 78.8528 70.9675 78.3952 70.9675 77.8307V77.8245C70.9675 77.2601 70.51 76.8025 69.9455 76.8025Z" fill="#AEDFFF"/>
<path d="M55.1288 77.5891C53.2427 77.5793 51.4373 76.8232 50.1071 75.486C48.7769 74.1489 48.0302 72.3395 48.0302 70.4534V64.5317C48.0302 64.0092 48.2377 63.5082 48.6071 63.1388C48.9765 62.7694 49.4776 62.5619 50 62.5619C50.5224 62.5619 51.0234 62.7694 51.3928 63.1388C51.7622 63.5082 51.9697 64.0092 51.9697 64.5317V70.4534C51.9688 70.9405 52.08 71.4213 52.2948 71.8585C52.5097 72.2957 52.8223 72.6776 53.2086 72.9744C53.5776 73.2774 54.0118 73.491 54.4771 73.5985C54.9423 73.7059 55.4261 73.7043 55.8907 73.5938C61.6446 72.1714 66.6913 68.7191 70.1026 63.8721C73.5139 59.0251 75.0603 53.1093 74.4573 47.213C73.8544 41.3166 71.1426 35.8363 66.8208 31.7801C62.4991 27.7239 56.858 25.3646 50.9353 25.1362C45.5462 24.9293 40.2384 26.4997 35.8295 29.6056C31.4205 32.7116 28.1549 37.1808 26.5354 42.325C24.916 47.4692 25.0325 53.0032 26.8672 58.0747C28.7018 63.1461 32.1527 67.4739 36.6885 70.3914C36.9136 70.5281 37.109 70.7085 37.2631 70.9219C37.4173 71.1354 37.527 71.3776 37.586 71.6342C37.6449 71.8908 37.6518 72.1567 37.6062 72.416C37.5607 72.6753 37.4636 72.9229 37.3207 73.144C37.1778 73.3652 36.992 73.5555 36.7744 73.7036C36.5567 73.8517 36.3115 73.9547 36.0533 74.0065C35.7952 74.0582 35.5293 74.0577 35.2713 74.0049C35.0133 73.9521 34.7686 73.8481 34.5515 73.6991C29.0403 70.1467 24.923 64.8021 22.8941 58.5671C20.8651 52.332 21.0486 45.5879 23.4137 39.4724C25.7787 33.3569 30.1806 28.2442 35.8768 24.9967C41.573 21.7492 48.2149 20.5656 54.6823 21.6456C61.1496 22.7256 67.0466 26.003 71.3786 30.9251C75.7105 35.8473 78.2123 42.1128 78.462 48.665C78.7117 55.2171 76.6939 61.6549 72.7491 66.8924C68.8043 72.1299 63.1739 75.8467 56.8075 77.4157C56.2567 77.5397 55.6932 77.5979 55.1288 77.5891Z" fill="#0A6267"/>
<path d="M40.5909 44.865H55.9093C56.4859 44.865 57.039 45.0941 57.4467 45.5018C57.8544 45.9095 58.0835 46.4625 58.0835 47.0392V54.7015C58.0835 55.9924 57.8292 57.2707 57.3352 58.4633C56.8412 59.656 56.1171 60.7397 55.2043 61.6525C54.2915 62.5653 53.2078 63.2894 52.0151 63.7835C50.8224 64.2775 49.5441 64.5317 48.2532 64.5317C46.9607 64.5342 45.6804 64.2817 44.4856 63.7888C43.2908 63.2959 42.2049 62.5722 41.2901 61.6591C40.3753 60.746 39.6496 59.6615 39.1544 58.4676C38.6592 57.2738 38.4044 55.994 38.4044 54.7015V47.0392C38.4044 46.4625 38.6334 45.9095 39.0412 45.5018C39.4489 45.0941 40.0019 44.865 40.5785 44.865H40.5909Z" fill="#0A6267"/>
<path d="M58.5171 43.75H37.9831C36.8747 43.75 35.9762 44.6485 35.9762 45.7569V45.7631C35.9762 46.8715 36.8747 47.7701 37.9831 47.7701H58.5171C59.6255 47.7701 60.524 46.8715 60.524 45.7631V45.7569C60.524 44.6485 59.6255 43.75 58.5171 43.75Z" fill="#0A6267"/>
<path d="M51.9698 65.6963H48.0302V68.1368H51.9698V65.6963Z" fill="#0A3D5D"/>
<path d="M49.8142 62.469H46.3763C45.2372 62.469 44.3137 63.3925 44.3137 64.5317V64.5379C44.3137 65.6771 45.2372 66.6006 46.3763 66.6006H49.8142C50.9533 66.6006 51.8768 65.6771 51.8768 64.5379V64.5317C51.8768 63.3925 50.9533 62.469 49.8142 62.469Z" fill="#0A6267"/>
<path d="M46.9772 48.6248V34.2975C46.9772 33.1891 46.0787 32.2905 44.9703 32.2905H44.9641C43.8557 32.2905 42.9572 33.1891 42.9572 34.2975V48.6248C42.9572 49.7332 43.8557 50.6317 44.9641 50.6317H44.9703C46.0787 50.6317 46.9772 49.7332 46.9772 48.6248Z" fill="#D0FDFF"/>
<path d="M57.5074 48.6248V34.2975C57.5074 33.1891 56.6089 32.2905 55.5005 32.2905H55.4943C54.3859 32.2905 53.4874 33.1891 53.4874 34.2975V48.6248C53.4874 49.7332 54.3859 50.6317 55.4943 50.6317H55.5005C56.6089 50.6317 57.5074 49.7332 57.5074 48.6248Z" fill="#D0FDFF"/>
<path d="M44.964 34.3656C44.964 33.9004 44.5883 33.5232 44.1247 33.5232C43.6612 33.5232 43.2854 33.9004 43.2854 34.3656V40.4236C43.2854 40.8888 43.6612 41.266 44.1247 41.266C44.5883 41.266 44.964 40.8888 44.964 40.4236V34.3656Z" fill="#88EAEF"/>
<path d="M55.4943 34.3656C55.4943 33.9004 55.1185 33.5232 54.655 33.5232C54.1915 33.5232 53.8157 33.9004 53.8157 34.3656V40.4236C53.8157 40.8888 54.1915 41.266 54.655 41.266C55.1185 41.266 55.4943 40.8888 55.4943 40.4236V34.3656Z" fill="#88EAEF"/>
<path d="M44.1712 44.865H59.4648C60.0414 44.865 60.5944 45.0941 61.0022 45.5018C61.4099 45.9095 61.639 46.4625 61.639 47.0392V54.7015C61.639 55.9924 61.3847 57.2707 60.8907 58.4633C60.3967 59.656 59.6726 60.7397 58.7598 61.6525C57.8469 62.5653 56.7633 63.2894 55.5706 63.7835C54.3779 64.2775 53.0996 64.5317 51.8087 64.5317C49.2048 64.5268 46.7092 63.489 44.8697 61.646C43.0301 59.803 41.997 57.3054 41.997 54.7015V47.0392C41.997 46.4625 42.2261 45.9095 42.6338 45.5018C43.0415 45.0941 43.5946 44.865 44.1712 44.865Z" fill="#36AEB4"/>
<path d="M62.0974 43.75H41.5635C40.4551 43.75 39.5565 44.6485 39.5565 45.7569V45.7631C39.5565 46.8715 40.4551 47.7701 41.5635 47.7701H62.0974C63.2058 47.7701 64.1043 46.8715 64.1043 45.7631V45.7569C64.1043 44.6485 63.2058 43.75 62.0974 43.75Z" fill="#36AEB4"/>
<path d="M61.6638 47.77H41.997V49.3372H61.6638V47.77Z" fill="#1A8086"/>
<path d="M55.005 55.519L52.2733 60.1399C52.2461 60.1652 52.2137 60.1843 52.1785 60.1961C52.1432 60.2079 52.1058 60.2119 52.0689 60.208H51.3256C51.2847 60.2132 51.2432 60.209 51.2043 60.1955C51.1655 60.182 51.1302 60.1596 51.1014 60.1302C51.0726 60.1008 51.051 60.0651 51.0383 60.0259C51.0256 59.9868 51.0222 59.9452 51.0282 59.9045L51.3132 57.9409L52.1308 57.6064L52.2237 56.987C52.2298 56.9398 52.2259 56.8918 52.2123 56.8462C52.1987 56.8006 52.1757 56.7583 52.1448 56.7221C52.1139 56.6859 52.0757 56.6567 52.0327 56.6361C51.9898 56.6156 51.943 56.6043 51.8954 56.603H48.9346C48.8858 56.6018 48.8378 56.5903 48.7939 56.569C48.75 56.5477 48.7111 56.5172 48.68 56.4797C48.6488 56.4421 48.6262 56.3982 48.6134 56.3511C48.6007 56.304 48.5983 56.2547 48.6063 56.2065L49.6283 51.4122C49.6573 51.2702 49.7351 51.1428 49.8483 51.0522C49.9615 50.9617 50.1029 50.9137 50.2478 50.9166H53.3449C53.4194 50.9167 53.4928 50.9345 53.5591 50.9686C53.6254 51.0026 53.6827 51.0519 53.7262 51.1123C53.7698 51.1728 53.7984 51.2427 53.8096 51.3164C53.8208 51.3901 53.8144 51.4654 53.7909 51.5361L52.9175 54.5898C52.9032 54.6414 52.9009 54.6955 52.911 54.7481C52.9211 54.8006 52.9432 54.8501 52.9756 54.8927C53.008 54.9353 53.0498 54.9698 53.0977 54.9936C53.1457 55.0173 53.1985 55.0297 53.252 55.0296H54.751C54.8048 55.0363 54.8563 55.056 54.9008 55.087C54.9454 55.118 54.9817 55.1593 55.0067 55.2075C55.0317 55.2556 55.0446 55.3092 55.0443 55.3634C55.044 55.4177 55.0305 55.4711 55.005 55.519Z" fill="#FFAE10"/>
<path d="M55.005 55.519L52.2733 60.1399C52.2461 60.1652 52.2137 60.1843 52.1785 60.1961C52.1432 60.2079 52.1058 60.2119 52.0689 60.208C52.0334 60.2043 51.9991 60.1933 51.968 60.1758C51.937 60.1582 51.9099 60.1345 51.8884 60.106C51.8669 60.0776 51.8515 60.045 51.8431 60.0103C51.8347 59.9756 51.8336 59.9396 51.8397 59.9045L52.1308 57.6064L52.2237 56.987C52.2298 56.9398 52.2259 56.8918 52.2123 56.8462C52.1987 56.8006 52.1757 56.7583 52.1448 56.7221C52.1139 56.686 52.0757 56.6567 52.0328 56.6361C51.9898 56.6156 51.943 56.6043 51.8954 56.603H49.7089C49.6601 56.6018 49.6121 56.5903 49.5682 56.569C49.5242 56.5477 49.4854 56.5172 49.4543 56.4797C49.4231 56.4421 49.4004 56.3982 49.3877 56.3511C49.375 56.304 49.3726 56.2547 49.3806 56.2065L50.3964 51.4122C50.4254 51.2702 50.5032 51.1428 50.6164 51.0522C50.7296 50.9617 50.871 50.9137 51.0159 50.9166H53.3201C53.3946 50.9167 53.4681 50.9345 53.5344 50.9686C53.6007 51.0026 53.6579 51.0519 53.7015 51.1123C53.745 51.1728 53.7736 51.2427 53.7848 51.3164C53.7961 51.3901 53.7896 51.4654 53.7661 51.5361L52.8927 54.5898C52.8784 54.6414 52.8762 54.6955 52.8863 54.7481C52.8963 54.8006 52.9184 54.8501 52.9508 54.8927C52.9832 54.9353 53.025 54.9698 53.073 54.9936C53.1209 55.0173 53.1737 55.0297 53.2272 55.0296H54.7262C54.7822 55.0325 54.8366 55.0495 54.8843 55.079C54.932 55.1084 54.9716 55.1494 54.9994 55.1981C55.0271 55.2468 55.0422 55.3017 55.0432 55.3578C55.0441 55.4139 55.031 55.4693 55.005 55.519Z" fill="#F5E66C"/>
<path d="M52.2238 56.9871L52.1309 57.6065L51.3132 57.9843L51.4557 56.9871C51.4628 56.9397 51.4596 56.8914 51.4464 56.8453C51.4332 56.7993 51.4103 56.7566 51.3791 56.7202C51.348 56.6837 51.3094 56.6545 51.266 56.6342C51.2226 56.614 51.1753 56.6034 51.1274 56.603H51.8955C51.9431 56.6044 51.9898 56.6157 52.0328 56.6362C52.0757 56.6567 52.1139 56.686 52.1448 56.7222C52.1758 56.7584 52.1988 56.8007 52.2124 56.8463C52.226 56.8919 52.2298 56.9399 52.2238 56.9871Z" fill="#E4800C"/>
<path d="M53.3945 62.469H49.9567C48.8175 62.469 47.894 63.3925 47.894 64.5317V64.5379C47.894 65.6771 48.8175 66.6006 49.9567 66.6006H53.3945C54.5337 66.6006 55.4572 65.6771 55.4572 64.5379V64.5317C55.4572 63.3925 54.5337 62.469 53.3945 62.469Z" fill="#36AEB4"/>
</g>
<defs>
<clipPath id="clip0_6418_60503">
<rect width="100" height="100" fill="white"/>
</clipPath>
</defs>
</svg>
