<svg width="100" height="100" viewBox="0 0 100 100" fill="none" xmlns="http://www.w3.org/2000/svg">
<g clip-path="url(#clip0_6418_60173)">
<path d="M72.5533 49.755C72.5552 55.8908 70.1835 61.7894 65.9346 66.2161C61.6857 70.6427 55.8892 73.2542 49.7585 73.5037C43.6347 73.242 37.8486 70.6252 33.608 66.1995C29.3674 61.7738 27 55.8813 27 49.7519C27 43.6225 29.3674 37.7299 33.608 33.3042C37.8486 28.8785 43.6347 26.2617 49.7585 26C55.8903 26.2496 61.6877 28.8619 65.9367 33.2899C70.1858 37.7179 72.5568 43.6181 72.5533 49.755Z" fill="#F6FFFF"/>
<path d="M78.0476 63.8628L76.1893 62.7602C78.3773 58.4896 79.431 53.7284 79.2492 48.9333C79.0674 44.1383 77.6563 39.4704 75.1513 35.3777C72.6463 31.285 69.1315 27.9048 64.9441 25.5615C60.7567 23.2181 56.0373 21.9903 51.2389 21.9959C50.8239 21.9959 50.415 21.9959 50 22.0268C49.585 22.0578 49.1762 21.9959 48.7612 21.9959C41.334 21.9959 34.211 24.9463 28.9592 30.1981C23.7074 35.4499 20.757 42.5729 20.757 50.0001C20.757 57.4273 23.7074 64.5502 28.9592 69.8021C34.211 75.0539 41.334 78.0043 48.7612 78.0043H51.2389C51.896 78.0043 52.5262 77.7433 52.9909 77.2786C53.4555 76.8139 53.7166 76.1837 53.7166 75.5266C53.7166 74.8695 53.4555 74.2393 52.9909 73.7746C52.5262 73.3099 51.896 73.0489 51.2389 73.0489C45.245 73.0313 39.4938 70.6794 35.205 66.4921C30.9162 62.3049 28.4273 56.6116 28.2662 50.6199C28.105 44.6282 30.2843 38.8093 34.3418 34.3976C38.3993 29.9858 44.0158 27.3282 50 26.9884C53.712 27.1856 57.3211 28.2783 60.5191 30.1733C63.717 32.0683 66.4087 34.7093 68.3642 37.8705C70.3198 41.0318 71.4811 44.6195 71.7489 48.327C72.0167 52.0346 71.3831 55.7519 69.9021 59.1614C69.6941 59.068 69.4673 59.0235 69.2394 59.0313C68.8182 59.0313 67.1147 59.0313 66.8856 59.0313C66.666 59.0227 66.4473 59.0625 66.2449 59.1479C66.0425 59.2332 65.8613 59.3619 65.7142 59.5251C65.567 59.6882 65.4575 59.8816 65.3934 60.0917C65.3293 60.3018 65.3121 60.5234 65.3432 60.7409L66.4024 68.174C66.4486 68.496 66.598 68.7944 66.828 69.0244C67.058 69.2545 67.3564 69.4038 67.6784 69.45C67.9262 69.481 70.3358 69.45 70.3358 69.45C70.5465 69.4481 70.7556 69.4125 70.9552 69.3447L77.9113 66.5511C78.169 66.4406 78.3904 66.26 78.5506 66.0299C78.7107 65.7998 78.8032 65.5294 78.8174 65.2494C78.8316 64.9695 78.7669 64.6911 78.6309 64.446C78.4948 64.2009 78.2927 63.9988 78.0476 63.8628Z" fill="#0A6267"/>
<path d="M55.0979 65.0088H47.0888C46.7432 65.0088 46.4631 65.2889 46.4631 65.6344V65.6406C46.4631 65.9861 46.7432 66.2662 47.0888 66.2662H55.0979C55.4434 66.2662 55.7235 65.9861 55.7235 65.6406V65.6344C55.7235 65.2889 55.4434 65.0088 55.0979 65.0088Z" fill="#AEDFFF"/>
<path d="M61.4779 50.3098L52.6511 65.2193C52.632 65.2547 52.6091 65.2879 52.583 65.3185L52.5086 65.4052C52.4224 65.4922 52.317 65.5578 52.2008 65.5965C52.0845 65.6353 51.9608 65.6461 51.8397 65.6282C51.7653 65.6282 49.6655 65.6282 49.5911 65.6282C49.4591 65.6484 49.3241 65.6371 49.1972 65.5953C49.0703 65.5534 48.9551 65.4822 48.8609 65.3874C48.7667 65.2927 48.6962 65.177 48.6552 65.0498C48.6142 64.9227 48.6038 64.7876 48.6248 64.6557L49.554 58.319L52.2051 57.0801L52.5024 55.1289C52.5249 54.9736 52.5133 54.8153 52.4686 54.6649C52.4239 54.5145 52.347 54.3756 52.2433 54.2578C52.1397 54.14 52.0117 54.0461 51.8682 53.9826C51.7247 53.9191 51.5691 53.8876 51.4122 53.8901H41.9227C41.7682 53.888 41.6159 53.8531 41.4759 53.7877C41.3359 53.7224 41.2114 53.628 41.1107 53.5108C41.0099 53.3937 40.9352 53.2565 40.8915 53.1083C40.8479 52.9601 40.8362 52.8043 40.8572 52.6512L44.1402 37.1284C44.234 36.6731 44.4816 36.2639 44.8414 35.9696C45.2012 35.6752 45.6513 35.5135 46.1162 35.5117H56.027C56.2594 35.5139 56.4882 35.5699 56.6954 35.6753C56.9026 35.7807 57.0825 35.9327 57.2211 36.1193C57.3597 36.306 57.4533 36.5221 57.4943 36.7509C57.5354 36.9797 57.5229 37.215 57.4578 37.4381L54.6518 47.2374C54.6041 47.4025 54.5952 47.5765 54.6257 47.7456C54.6563 47.9147 54.7256 48.0745 54.8281 48.2124C54.9307 48.3504 55.0637 48.4627 55.2169 48.5407C55.3701 48.6187 55.5392 48.6603 55.7111 48.6621H60.555C60.7464 48.6645 60.9338 48.7173 61.0983 48.8152C61.2628 48.913 61.3987 49.0524 61.4922 49.2194C61.5858 49.3864 61.6337 49.5751 61.6312 49.7665C61.6287 49.9579 61.5758 50.1453 61.4779 50.3098Z" fill="#FFAE10"/>
<path d="M61.478 50.3098L52.6512 65.2193C52.632 65.2547 52.6092 65.2879 52.583 65.3185L52.5087 65.4052C52.4225 65.4922 52.317 65.5578 52.2008 65.5965C52.0846 65.6353 51.9609 65.6461 51.8397 65.6282C51.7258 65.6162 51.6155 65.581 51.5156 65.525C51.4157 65.4689 51.3282 65.393 51.2587 65.302C51.1891 65.2109 51.1388 65.1067 51.1109 64.9955C51.083 64.8844 51.0781 64.7688 51.0964 64.6557L52.1928 57.0987L52.5025 55.1289C52.5249 54.9736 52.5134 54.8153 52.4686 54.6649C52.4239 54.5145 52.3471 54.3756 52.2434 54.2578C52.1397 54.14 52.0117 54.0461 51.8682 53.9826C51.7248 53.9191 51.5692 53.8876 51.4123 53.8901H44.3942C44.2397 53.888 44.0874 53.8531 43.9475 53.7877C43.8075 53.7224 43.683 53.628 43.5822 53.5108C43.4815 53.3937 43.4068 53.2565 43.3631 53.1083C43.3194 52.9601 43.3077 52.8043 43.3288 52.6512L46.6056 37.1284C46.7017 36.6731 46.9508 36.2645 47.3114 35.9704C47.672 35.6762 48.1224 35.5144 48.5877 35.5117H56.0208C56.2533 35.5139 56.4821 35.5699 56.6892 35.6753C56.8964 35.7807 57.0764 35.9327 57.215 36.1193C57.3536 36.306 57.4471 36.5221 57.4882 36.7509C57.5292 36.9797 57.5168 37.215 57.4517 37.4381L54.6519 47.2374C54.6041 47.4025 54.5952 47.5765 54.6258 47.7456C54.6564 47.9147 54.7256 48.0745 54.8282 48.2124C54.9307 48.3504 55.0638 48.4627 55.217 48.5407C55.3701 48.6187 55.5392 48.6603 55.7111 48.6621H60.555C60.7464 48.6645 60.9338 48.7173 61.0983 48.8152C61.2629 48.913 61.3987 49.0524 61.4923 49.2194C61.5858 49.3864 61.6338 49.5751 61.6312 49.7665C61.6287 49.9579 61.5759 50.1453 61.478 50.3098Z" fill="#F5E66C"/>
<path d="M59.8427 51.3504C59.749 51.349 59.6573 51.3234 59.5764 51.2761C59.4593 51.2043 59.3754 51.0891 59.3429 50.9557C59.3104 50.8222 59.332 50.6813 59.4029 50.5638L59.5268 50.3532H55.6988C54.9513 50.3579 54.2315 50.0713 53.6918 49.5541C53.5933 49.4588 53.5366 49.3283 53.5343 49.1912C53.5319 49.0541 53.5842 48.9217 53.6794 48.8232C53.7747 48.7246 53.9053 48.6679 54.0423 48.6656C54.1794 48.6633 54.3118 48.7155 54.4104 48.8108C54.7564 49.1443 55.2182 49.3308 55.6988 49.3311H60.4436C60.5352 49.3308 60.6252 49.3547 60.7046 49.4004C60.784 49.4461 60.8499 49.5119 60.8957 49.5913C60.9402 49.6708 60.9636 49.7603 60.9636 49.8514C60.9636 49.9425 60.9402 50.0321 60.8957 50.1116L60.2763 51.1089C60.2299 51.1821 60.1659 51.2425 60.0902 51.2847C60.0145 51.3269 59.9294 51.3495 59.8427 51.3504Z" fill="#F5E66C"/>
<path d="M56.4358 37.6983C56.3845 37.7067 56.3322 37.7067 56.2809 37.6983C56.1727 37.6642 56.0788 37.5953 56.0138 37.5023C55.9488 37.4093 55.9164 37.2975 55.9216 37.1841H48.2098C48.0729 37.1825 47.9421 37.127 47.8459 37.0296C47.7496 36.9322 47.6957 36.8007 47.6957 36.6638C47.6957 36.5275 47.7498 36.3967 47.8463 36.3003C47.9427 36.2039 48.0734 36.1497 48.2098 36.1497H56.0393C56.1862 36.1485 56.3313 36.1821 56.4626 36.2477C56.594 36.3134 56.7079 36.4093 56.795 36.5275C56.8805 36.6459 56.9374 36.7824 56.961 36.9265C56.9847 37.0705 56.9745 37.2181 56.9313 37.3576C56.8949 37.4592 56.8275 37.5468 56.7385 37.6079C56.6496 37.6691 56.5437 37.7007 56.4358 37.6983Z" fill="#F5E66C"/>
<path d="M52.5025 55.1287L52.2114 57.1233L49.5602 58.3621L50.031 55.1287C50.0531 54.9755 50.0421 54.8193 49.9989 54.6707C49.9556 54.5221 49.8809 54.3844 49.78 54.2671C49.679 54.1497 49.5541 54.0553 49.4136 53.9902C49.2732 53.9252 49.1204 53.891 48.9656 53.8899H51.4433C51.5976 53.8918 51.7497 53.9267 51.8894 53.9921C52.0291 54.0576 52.1533 54.1521 52.2535 54.2694C52.3538 54.3866 52.4279 54.524 52.4708 54.6722C52.5137 54.8204 52.5245 54.976 52.5025 55.1287Z" fill="#E4800C"/>
<path d="M78.0475 63.8628L76.1892 62.7603C78.9707 57.3265 79.9005 51.1327 78.8371 45.1217C77.7737 39.1108 74.7754 33.6119 70.2986 29.4622C65.8218 25.3124 60.1117 22.7391 54.0375 22.1339C47.9633 21.5287 41.8577 22.9247 36.6501 26.1096C31.4425 29.2945 27.4182 34.0936 25.1897 39.7766C22.9612 45.4596 22.6506 51.7151 24.3052 57.5908C25.9598 63.4666 29.489 68.6408 34.3555 72.3258C39.222 76.0108 45.1593 78.0049 51.2636 78.0043C51.9207 78.0043 52.5509 77.7433 53.0156 77.2786C53.4802 76.8139 53.7413 76.1837 53.7413 75.5266C53.7413 74.8695 53.4802 74.2393 53.0156 73.7746C52.5509 73.3099 51.9207 73.0489 51.2636 73.0489C46.2453 73.0596 41.3604 71.4331 37.3502 68.4161C33.3401 65.3992 30.4234 61.1564 29.0429 56.3317C27.6624 51.507 27.8934 46.3637 29.7008 41.6821C31.5081 37.0006 34.7933 33.0363 39.0577 30.3909C43.3222 27.7455 48.3332 26.5634 53.3303 27.0238C58.3275 27.4843 63.0381 29.5622 66.7473 32.9423C70.4565 36.3224 72.962 40.8202 73.8835 45.7532C74.8049 50.6862 74.0922 55.7851 71.8533 60.2764L70.0383 59.2295C69.7948 59.0898 69.5169 59.0213 69.2364 59.0318C68.9558 59.0424 68.6839 59.1314 68.4515 59.289C68.2191 59.4465 68.0356 59.6661 67.9219 59.9228C67.8082 60.1795 67.7689 60.463 67.8084 60.7409L68.8676 68.174C68.9003 68.3989 68.9834 68.6135 69.1108 68.8016C69.2382 68.9898 69.4065 69.1467 69.6032 69.2605C69.7999 69.3744 70.0198 69.4422 70.2464 69.4589C70.473 69.4756 70.7005 69.4408 70.9117 69.3571L77.8679 66.5635C78.1311 66.459 78.3594 66.2819 78.5261 66.053C78.6929 65.824 78.7914 65.5525 78.8102 65.2699C78.829 64.9872 78.7673 64.7051 78.6324 64.456C78.4974 64.207 78.2946 64.0013 78.0475 63.8628Z" fill="#36AEB4"/>
</g>
<defs>
<clipPath id="clip0_6418_60173">
<rect width="100" height="100" fill="white"/>
</clipPath>
</defs>
</svg>
