<svg width="100" height="100" viewBox="0 0 100 100" fill="none" xmlns="http://www.w3.org/2000/svg">
<g clip-path="url(#clip0_6418_60260)">
<path d="M76.0233 72.8457H25.9101C25.2376 72.8457 24.6925 73.3908 24.6925 74.0632C24.6925 74.7357 25.2376 75.2808 25.9101 75.2808H76.0233C76.6957 75.2808 77.2408 74.7357 77.2408 74.0632C77.2408 73.3908 76.6957 72.8457 76.0233 72.8457Z" fill="#88EAEF"/>
<path d="M68.3902 74.0634H43.5845V29.6833C43.5845 28.3668 44.1075 27.1043 45.0384 26.1734C45.9693 25.2425 47.2318 24.7195 48.5483 24.7195H68.3902C69.7067 24.7195 70.9693 25.2425 71.9002 26.1734C72.8311 27.1043 73.3541 28.3668 73.3541 29.6833V69.0996C73.3541 70.416 72.8311 71.6786 71.9002 72.6095C70.9693 73.5404 69.7067 74.0634 68.3902 74.0634Z" fill="#1A8086"/>
<path d="M43.5845 24.7195H71.3003C72.5423 24.7195 73.7334 25.2129 74.6116 26.0911C75.4898 26.9693 75.9832 28.1604 75.9832 29.4023V62.1823C75.9832 62.9843 75.6646 63.7534 75.0975 64.3205C74.5304 64.8875 73.7613 65.2061 72.9594 65.2061H43.5243V24.7195H43.5845Z" fill="#36AEB4"/>
<path d="M70.832 28.6128H54.3617C52.9688 28.6128 51.8397 29.742 51.8397 31.1348V31.8908C51.8397 33.2837 52.9688 34.4128 54.3617 34.4128H70.832C72.2249 34.4128 73.3541 33.2837 73.3541 31.8908V31.1348C73.3541 29.742 72.2249 28.6128 70.832 28.6128Z" fill="#D0FDFF"/>
<path d="M54.9839 37.0688H53.9202C52.7712 37.0688 51.8397 37.9988 51.8397 39.146C51.8397 40.2932 52.7712 41.2232 53.9202 41.2232H54.9839C56.1329 41.2232 57.0644 40.2932 57.0644 39.146C57.0644 37.9988 56.1329 37.0688 54.9839 37.0688Z" fill="#D0FDFF"/>
<path d="M54.9839 43.8923H53.9202C52.7712 43.8923 51.8397 44.8223 51.8397 45.9695C51.8397 47.1167 52.7712 48.0467 53.9202 48.0467H54.9839C56.1329 48.0467 57.0644 47.1167 57.0644 45.9695C57.0644 44.8223 56.1329 43.8923 54.9839 43.8923Z" fill="#D0FDFF"/>
<path d="M54.9839 50.7158H53.9202C52.7712 50.7158 51.8397 51.6458 51.8397 52.793C51.8397 53.9402 52.7712 54.8702 53.9202 54.8702H54.9839C56.1329 54.8702 57.0644 53.9402 57.0644 52.793C57.0644 51.6458 56.1329 50.7158 54.9839 50.7158Z" fill="#D0FDFF"/>
<path d="M63.1254 37.0688H62.0617C60.9127 37.0688 59.9812 37.9988 59.9812 39.146C59.9812 40.2932 60.9127 41.2232 62.0617 41.2232H63.1254C64.2744 41.2232 65.2059 40.2932 65.2059 39.146C65.2059 37.9988 64.2744 37.0688 63.1254 37.0688Z" fill="#D0FDFF"/>
<path d="M63.1254 43.8923H62.0617C60.9127 43.8923 59.9812 44.8223 59.9812 45.9695C59.9812 47.1167 60.9127 48.0467 62.0617 48.0467H63.1254C64.2744 48.0467 65.2059 47.1167 65.2059 45.9695C65.2059 44.8223 64.2744 43.8923 63.1254 43.8923Z" fill="#D0FDFF"/>
<path d="M63.1254 50.7158H62.0617C60.9127 50.7158 59.9812 51.6458 59.9812 52.793C59.9812 53.9402 60.9127 54.8702 62.0617 54.8702H63.1254C64.2744 54.8702 65.2059 53.9402 65.2059 52.793C65.2059 51.6458 64.2744 50.7158 63.1254 50.7158Z" fill="#D0FDFF"/>
<path d="M63.1254 57.3521H62.0617C60.9127 57.3521 59.9812 58.282 59.9812 59.4292C59.9812 60.5764 60.9127 61.5064 62.0617 61.5064H63.1254C64.2744 61.5064 65.2059 60.5764 65.2059 59.4292C65.2059 58.282 64.2744 57.3521 63.1254 57.3521Z" fill="#D0FDFF"/>
<path d="M71.2735 37.0688H70.2098C69.0608 37.0688 68.1293 37.9988 68.1293 39.146C68.1293 40.2932 69.0608 41.2232 70.2098 41.2232H71.2735C72.4226 41.2232 73.354 40.2932 73.354 39.146C73.354 37.9988 72.4226 37.0688 71.2735 37.0688Z" fill="#D0FDFF"/>
<path d="M71.2735 43.8923H70.2098C69.0608 43.8923 68.1293 44.8223 68.1293 45.9695C68.1293 47.1167 69.0608 48.0467 70.2098 48.0467H71.2735C72.4226 48.0467 73.354 47.1167 73.354 45.9695C73.354 44.8223 72.4226 43.8923 71.2735 43.8923Z" fill="#D0FDFF"/>
<path d="M71.2735 50.7158H70.2098C69.0608 50.7158 68.1293 51.6458 68.1293 52.793C68.1293 53.9402 69.0608 54.8702 70.2098 54.8702H71.2735C72.4226 54.8702 73.354 53.9402 73.354 52.793C73.354 51.6458 72.4226 50.7158 71.2735 50.7158Z" fill="#D0FDFF"/>
<path d="M63.3394 66.3367H56.6229C55.278 66.3367 54.1878 67.4269 54.1878 68.7718V68.7784C54.1878 70.1233 55.278 71.2135 56.6229 71.2135H63.3394C64.6843 71.2135 65.7745 70.1233 65.7745 68.7784V68.7718C65.7745 67.4269 64.6843 66.3367 63.3394 66.3367Z" fill="#D0FDFF"/>
<path d="M63.1254 67.186H61.5666C60.6873 67.186 59.9745 67.8989 59.9745 68.7782C59.9745 69.6575 60.6873 70.3704 61.5666 70.3704H63.1254C64.0047 70.3704 64.7175 69.6575 64.7175 68.7782C64.7175 67.8989 64.0047 67.186 63.1254 67.186Z" fill="#1A8086"/>
<path d="M45.5449 24.7197C47.1169 24.72 48.3877 26.3386 48.3877 28.332V61.6006C48.3876 63.1625 47.5852 64.5203 46.4678 65.0137V71.0127C46.4678 72.7012 45.0986 74.0703 43.4102 74.0703H43.4043C41.7158 74.0703 40.3467 72.7012 40.3467 71.0127V27.7764C40.3469 26.1407 41.6316 24.8053 43.2471 24.7236L43.4043 24.7197H45.5449Z" fill="#11494B"/>
<path d="M32.5 47.2611C39.8115 47.2613 45.7389 53.1885 45.7389 60.5C45.7389 67.8115 39.8115 73.7387 32.5 73.7389C25.1884 73.7389 19.2611 67.8116 19.2611 60.5C19.2611 53.1884 25.1884 47.2611 32.5 47.2611Z" fill="#FFAE10"/>
<path d="M45.7389 60.5C45.7389 53.1885 39.8115 47.2613 32.5 47.2611C25.1884 47.2611 19.2611 53.1884 19.2611 60.5C19.2611 67.8116 25.1884 73.7389 32.5 73.7389C39.8115 73.7387 45.7389 67.8115 45.7389 60.5ZM47 60.5C47 68.5079 40.5077 74.9998 32.5 75C24.492 75 18 68.508 18 60.5C18 52.492 24.492 46 32.5 46C40.5077 46.0002 47 52.4921 47 60.5Z" fill="#FFAE10"/>
<path d="M34.5 47C38.2125 47 41.385 48.35 44.0175 50.9825C46.65 53.615 48 56.7875 48 60.5C48 64.2125 46.65 67.385 44.0175 70.0175C41.385 72.65 38.2125 74 34.5 74C30.7875 74 27.615 72.65 24.9825 70.0175C22.35 67.385 21 64.2125 21 60.5C21 56.7875 22.35 53.615 24.9825 50.9825C27.615 48.35 30.7875 47 34.5 47Z" fill="#F5E66C"/>
<path d="M48 60.5C48 56.9035 46.7333 53.8134 44.2607 51.2305L44.0176 50.9824C41.3851 48.3499 38.2125 47 34.5 47C30.7875 47 27.6149 48.3499 24.9824 50.9824C22.3499 53.6149 21 56.7875 21 60.5C21 64.2125 22.3499 67.3851 24.9824 70.0176C27.6149 72.6501 30.7875 74 34.5 74C38.0965 74 41.1866 72.7333 43.7695 70.2607L44.0176 70.0176C46.6501 67.3851 48 64.2125 48 60.5ZM49 60.5C49 64.485 47.5394 67.9098 44.7246 70.7246C41.9098 73.5394 38.485 75 34.5 75C30.515 75 27.0902 73.5394 24.2754 70.7246C21.4606 67.9098 20 64.485 20 60.5C20 56.515 21.4606 53.0902 24.2754 50.2754C27.0902 47.4606 30.515 46 34.5 46C38.485 46 41.9098 47.4606 44.7246 50.2754C47.5394 53.0902 49 56.515 49 60.5Z" fill="#F5E66C"/>
<path d="M39.6973 57.4639C40.3506 57.4639 40.9339 57.6274 41.4473 57.9541C41.9699 58.2714 42.381 58.7148 42.6797 59.2842C42.9876 59.8441 43.1416 60.4933 43.1416 61.2305C43.1415 61.9676 42.9876 62.6256 42.6797 63.2041C42.381 63.7734 41.9699 64.2212 41.4473 64.5479C40.9339 64.8652 40.3506 65.0244 39.6973 65.0244C39.156 65.0244 38.6749 64.9125 38.2549 64.6885C37.9799 64.5418 37.7383 64.3676 37.5273 64.1689V67.5996H35.6377V57.6885H37.3877V58.4453C37.6288 58.1883 37.9173 57.9724 38.2549 57.7998C38.6749 57.5758 39.156 57.4639 39.6973 57.4639ZM32.4883 58.0381C32.4883 57.6181 32.357 57.291 32.0957 57.0576C31.8344 56.8152 31.4607 56.6943 30.9756 56.6943H28.8203V59.3818H30.9756C31.4607 59.3818 31.8344 59.2654 32.0957 59.0322C32.357 58.7896 32.4883 58.458 32.4883 58.0381ZM39.3613 59.1436C38.988 59.1436 38.6565 59.2328 38.3672 59.4102C38.0873 59.5875 37.8676 59.8351 37.709 60.1523C37.5505 60.4603 37.4717 60.8243 37.4717 61.2441C37.4717 61.6547 37.5504 62.0187 37.709 62.3359C37.8676 62.6532 38.0872 62.9008 38.3672 63.0781C38.6565 63.2555 38.988 63.3437 39.3613 63.3438C39.744 63.3438 40.0755 63.2555 40.3555 63.0781C40.6355 62.9008 40.855 62.6533 41.0137 62.3359C41.1723 62.0187 41.251 61.6547 41.251 61.2441C41.251 60.8243 41.1722 60.4603 41.0137 60.1523C40.855 59.8351 40.6354 59.5875 40.3555 59.4102C40.0755 59.2328 39.744 59.1436 39.3613 59.1436ZM34.3779 58.0381C34.3779 58.962 34.0884 59.6994 33.5098 60.25C33.2103 60.5396 32.8509 60.7514 32.4326 60.8887L34.3779 64.6885V64.7998H32.3477L30.4619 61.0762H28.8203V64.7998H27V55H31.1582C32.1568 55 32.9405 55.2756 33.5098 55.8262C34.0884 56.3768 34.3779 57.1141 34.3779 58.0381Z" fill="#E4800C"/>
</g>
<defs>
<clipPath id="clip0_6418_60260">
<rect width="100" height="100" fill="white"/>
</clipPath>
</defs>
</svg>
