<svg width="100" height="100" viewBox="0 0 100 100" fill="none" xmlns="http://www.w3.org/2000/svg">
<g clip-path="url(#clip0_6418_60148)">
<path d="M78.3821 70.6145H21.618C21.3399 70.5788 21.087 70.4356 20.9133 70.2156C20.7396 69.9956 20.659 69.7163 20.6888 69.4376C20.6607 69.1598 20.7421 68.8821 20.9156 68.6635C21.0891 68.4448 21.3411 68.3025 21.618 68.2668H78.3821C78.6594 68.3026 78.912 68.4446 79.0865 68.6631C79.261 68.8815 79.3438 69.1592 79.3174 69.4376C79.3455 69.7169 79.2635 69.9962 79.0888 70.216C78.9141 70.4358 78.6606 70.5788 78.3821 70.6145Z" fill="#AEDFFF"/>
<path d="M36.2611 67.3316L24.9876 69.4315C24.6858 69.4889 24.3751 69.479 24.0776 69.4026C23.7801 69.3261 23.5032 69.1849 23.2665 68.9891C23.0299 68.7932 22.8394 68.5476 22.7086 68.2697C22.5778 67.9917 22.5099 67.6884 22.5099 67.3812V36.7816C22.5089 35.937 22.8039 35.1187 23.3437 34.4691C23.8836 33.8195 24.634 33.3797 25.4645 33.2261L36.2425 31.2253L36.2611 67.3316Z" fill="#0A6267"/>
<path d="M36.2612 67.3316L50 69.8899V33.7774L36.2612 31.2253V67.3316Z" fill="#0A6267"/>
<path d="M63.7389 67.3316L50 69.8899V33.7774L63.7389 31.2253V67.3316Z" fill="#0A6267"/>
<path d="M63.7388 67.3316L75.0124 69.4315C75.3141 69.4889 75.6248 69.479 75.9223 69.4026C76.2198 69.3261 76.4968 69.1849 76.7334 68.9891C76.9701 68.7932 77.1606 68.5476 77.2914 68.2697C77.4222 67.9917 77.49 67.6884 77.4901 67.3812V36.7816C77.4899 35.9373 77.1944 35.1196 76.6548 34.4703C76.1152 33.8209 75.3654 33.3808 74.5354 33.2261L63.7388 31.2253V67.3316Z" fill="#0A6267"/>
<path d="M36.2611 65.4732L24.9876 67.5731C24.6858 67.6305 24.3751 67.6206 24.0776 67.5442C23.7801 67.4677 23.5032 67.3265 23.2665 67.1307C23.0299 66.9348 22.8394 66.6892 22.7086 66.4113C22.5778 66.1333 22.5099 65.83 22.5099 65.5228V34.9232C22.5089 34.0786 22.8039 33.2603 23.3437 32.6107C23.8836 31.9611 24.634 31.5213 25.4645 31.3677L36.2425 29.3669L36.2611 65.4732Z" fill="#1A8086"/>
<path d="M36.2612 65.4732L50 68.0315V31.919L36.2612 29.3669V65.4732Z" fill="#36AEB4"/>
<path d="M63.7389 65.4732L50 68.0315V31.919L63.7389 29.3669V65.4732Z" fill="#1A8086"/>
<path d="M63.7388 65.4732L75.0124 67.5731C75.3141 67.6305 75.6248 67.6206 75.9223 67.5442C76.2198 67.4677 76.4968 67.3265 76.7334 67.1307C76.9701 66.9348 77.1606 66.6892 77.2914 66.4113C77.4222 66.1333 77.49 65.83 77.4901 65.5228V34.9232C77.4899 34.0789 77.1944 33.2612 76.6548 32.6119C76.1152 31.9625 75.3654 31.5224 74.5354 31.3677L63.7388 29.3669V65.4732Z" fill="#36AEB4"/>
<path d="M36.2611 65.4732L24.9876 67.5731C24.6858 67.6305 24.3751 67.6206 24.0776 67.5442C23.7801 67.4677 23.5032 67.3265 23.2665 67.1307C23.0299 66.9348 22.8394 66.6892 22.7086 66.4113C22.5778 66.1333 22.5099 65.83 22.5099 65.5228V34.9232C22.5089 34.0786 22.8039 33.2603 23.3437 32.6107C23.8836 31.9611 24.634 31.5213 25.4645 31.3677L36.2425 29.3669L36.2611 65.4732Z" fill="#1A8086"/>
<path d="M50 31.919V68.0315L36.2612 65.4794V29.3669L50 31.919Z" fill="#36AEB4"/>
<path d="M60.6046 66.0617L50 68.0314V54.1191L60.6046 66.0617Z" fill="#1A8086"/>
<path d="M63.7389 29.3669V58.61L61.3541 61.3107L50 48.5196V31.919L63.7389 29.3669Z" fill="#1A8086"/>
<path d="M77.4777 49.5911V65.5227C77.4776 65.8298 77.4098 66.1332 77.279 66.4112C77.1482 66.6891 76.9577 66.9347 76.721 67.1306C76.4844 67.3264 76.2074 67.4676 75.9099 67.544C75.6124 67.6205 75.3017 67.6304 75 67.573L65.306 65.7705L64.2468 64.575L77.4777 49.5911Z" fill="#36AEB4"/>
<path d="M77.4777 34.9232V43.0315L63.7388 58.61V29.3669L74.523 31.3677C75.3525 31.5235 76.1016 31.964 76.641 32.6131C77.1804 33.2622 77.4763 34.0792 77.4777 34.9232Z" fill="#36AEB4"/>
<path d="M36.2611 41.9351V47.5285L22.5223 63.0079V57.4083L36.2611 41.9351Z" fill="#0A6267"/>
<path d="M50 32.0553L42.6908 40.2875L50 48.5197V54.1193L40.2069 43.0873L36.2612 47.5286V41.9352L45.8375 31.1448L50 31.9191V32.0553Z" fill="#1A8086"/>
<path d="M63.7389 58.61V65.4794L63.4044 65.5413L62.0107 65.8015L60.6046 66.0617L50 54.1191V48.5195L61.3541 61.3107L63.7389 58.61Z" fill="#0A6267"/>
<path d="M77.4777 49.5912L64.2591 64.5751L65.3184 65.7706L63.7388 65.4795V58.61L77.4777 43.0315V49.5912Z" fill="#1A8086"/>
<path d="M31.9562 32.0056C30.8568 32.0077 29.7767 32.2935 28.8202 32.8353C27.8637 33.3772 27.0632 34.1568 26.4964 35.0987C25.9295 36.0406 25.6153 37.1129 25.5843 38.2118C25.5533 39.3107 25.8065 40.399 26.3194 41.3713C26.4495 41.6191 31.1819 49.1513 31.1819 49.1513C31.2626 49.2806 31.3749 49.3872 31.5082 49.4611C31.6415 49.5351 31.7914 49.5738 31.9438 49.5738C32.0962 49.5738 32.2461 49.5351 32.3794 49.4611C32.5127 49.3872 32.625 49.2806 32.7057 49.1513C32.7057 49.1513 37.4381 41.6191 37.5682 41.3713C38.081 40.399 38.3342 39.3107 38.3032 38.2118C38.2722 37.1129 37.9581 36.0406 37.3912 35.0987C36.8243 34.1568 36.0239 33.3772 35.0674 32.8353C34.1109 32.2935 33.0307 32.0077 31.9314 32.0056H31.9562ZM31.9562 41.0183C31.4315 41.0194 30.9183 40.8646 30.4819 40.5733C30.0454 40.282 29.7055 39.8675 29.5053 39.3825C29.3051 38.8975 29.2537 38.3639 29.3576 37.8496C29.4615 37.3353 29.716 36.8635 30.0887 36.4943C30.4615 36.125 30.9357 35.8749 31.4509 35.7759C31.9662 35.6769 32.4993 35.7333 32.9824 35.9381C33.4655 36.1429 33.8767 36.4867 34.1639 36.9258C34.451 37.365 34.6011 37.8796 34.5949 38.4043C34.59 39.1003 34.3096 39.7661 33.8151 40.256C33.3206 40.7458 32.6522 41.0199 31.9562 41.0183Z" fill="#F5E66C"/>
<path d="M68.6199 40.4114C67.5206 40.4134 66.4404 40.6992 65.4839 41.2411C64.5274 41.783 63.727 42.5626 63.1601 43.5045C62.5932 44.4464 62.2791 45.5187 62.2481 46.6176C62.2171 47.7164 62.4703 48.8047 62.9832 49.7771C63.1194 50.0187 67.8456 57.5571 67.8456 57.5571C67.9217 57.6904 68.0307 57.8021 68.1622 57.8813C68.2937 57.9606 68.4433 58.0048 68.5968 58.0098C68.7502 58.0148 68.9024 57.9803 69.0388 57.9097C69.1751 57.8392 69.2911 57.7348 69.3756 57.6066C69.3756 57.6066 74.108 50.0682 74.2443 49.8266C74.7572 48.8543 75.0104 47.766 74.9794 46.6671C74.9484 45.5682 74.6342 44.4959 74.0674 43.554C73.5005 42.6121 72.7 41.8325 71.7435 41.2906C70.787 40.7488 69.7069 40.463 68.6075 40.4609L68.6199 40.4114ZM68.6199 49.4302C68.0965 49.4302 67.5849 49.2749 67.1498 48.984C66.7147 48.6931 66.3757 48.2797 66.1757 47.796C65.9757 47.3123 65.9237 46.7802 66.0263 46.267C66.1288 45.7537 66.3813 45.2825 66.7519 44.9128C67.1224 44.5432 67.5943 44.2917 68.1077 44.1904C68.6212 44.089 69.1532 44.1423 69.6364 44.3434C70.1196 44.5446 70.5322 44.8845 70.8221 45.3203C71.112 45.7561 71.2661 46.2681 71.2649 46.7915C71.2649 47.1385 71.1964 47.4821 71.0634 47.8027C70.9304 48.1233 70.7355 48.4144 70.4898 48.6595C70.2441 48.9046 69.9525 49.0989 69.6316 49.2311C69.3108 49.3634 68.967 49.431 68.6199 49.4302Z" fill="#F5E66C"/>
</g>
<defs>
<clipPath id="clip0_6418_60148">
<rect width="100" height="100" fill="white"/>
</clipPath>
</defs>
</svg>
