<svg width="100" height="100" viewBox="0 0 100 100" fill="none" xmlns="http://www.w3.org/2000/svg">
<g clip-path="url(#clip0_6418_60098)">
<path d="M63.5282 75.5388H36.2673C35.5284 75.5388 34.9294 76.1378 34.9294 76.8768C34.9294 77.6157 35.5284 78.2147 36.2673 78.2147H63.5282C64.2672 78.2147 64.8662 77.6157 64.8662 76.8768C64.8662 76.1378 64.2672 75.5388 63.5282 75.5388Z" fill="#AEDFFF"/>
<path d="M63.4106 57.3215L62.054 70.7754L44.4252 74.7893L45.249 69.2145C46.5397 70.0193 47.9893 70.5349 49.4983 70.7259C49.6655 70.7259 49.8266 70.7259 49.9752 70.7631C51.6816 70.6074 53.3236 70.0352 54.7572 69.0968C55.0297 68.9172 55.2899 68.7375 55.5377 68.5393C55.7139 68.4076 55.8835 68.267 56.0456 68.1181C57.1793 67.1141 58.0873 65.8812 58.7097 64.5006C59.3322 63.1201 59.655 61.6233 59.6568 60.1089C59.6509 59.4767 59.5866 58.8463 59.4648 58.2259L63.4106 57.3215Z" fill="#E4800C"/>
<path d="M68.0686 60.6109C67.9017 65.0475 66.0433 69.2522 62.8746 72.3621C59.7059 75.472 55.4673 77.2514 51.0282 77.3353H48.9346C44.3749 77.3239 40.005 75.5083 36.7796 72.2853C33.5542 69.0622 31.7355 64.6936 31.7208 60.1339C31.7239 58.5935 31.9322 57.0603 32.3402 55.5749C32.4089 55.2978 32.5424 55.041 32.7298 54.8256C32.9172 54.6103 33.1531 54.4425 33.418 54.3361C33.6911 54.2272 33.9862 54.1848 34.279 54.2122H35.9576C36.2965 54.1961 36.6325 54.2802 36.9239 54.4538L39.5069 55.9776C39.8373 56.171 40.0984 56.4636 40.2529 56.8139C40.4075 57.1642 40.4477 57.5543 40.3679 57.9287C40.1226 59.0872 40.0745 60.2788 40.2255 61.4533C40.4295 63.041 40.9866 64.5629 41.8559 65.907C42.7252 67.2512 43.8847 68.3836 45.249 69.2209L44.4252 74.7957L62.054 70.7818L63.4106 57.3279L59.4648 58.2261C59.4648 58.1332 59.4648 58.0279 59.4091 57.9349C59.3293 57.5605 59.3695 57.1704 59.5241 56.8201C59.6786 56.4698 59.9397 56.1772 60.2701 55.9837L62.8655 54.46C63.1541 54.2851 63.4886 54.2009 63.8256 54.2184C63.8936 54.2122 63.962 54.2122 64.03 54.2184C64.1 54.2122 64.1705 54.2122 64.2406 54.2184C64.3106 54.2122 64.3811 54.2122 64.4512 54.2184C64.5213 54.2122 64.5917 54.2122 64.6618 54.2184C64.7319 54.2122 64.8023 54.2122 64.8724 54.2184C64.9425 54.2122 65.0129 54.2122 65.083 54.2184C65.1531 54.2122 65.2235 54.2122 65.2936 54.2184C65.3616 54.2122 65.43 54.2122 65.498 54.2184C65.7909 54.1859 66.0872 54.2285 66.359 54.3423C66.6248 54.4483 66.8617 54.6159 67.0501 54.8312C67.2386 55.0466 67.3732 55.3036 67.443 55.5811C67.9021 57.2169 68.113 58.9124 68.0686 60.6109Z" fill="#E4800C"/>
<path d="M57.4703 60.1337C57.4686 61.8905 56.7696 63.5747 55.5268 64.8163C54.284 66.0579 52.5992 66.7554 50.8424 66.7554H50.5761L47.8196 59.6258L42.4492 61.4345C42.3669 61.0058 42.3254 60.5703 42.3253 60.1337C42.3286 58.3801 43.0254 56.699 44.2636 55.4573C45.5018 54.2156 47.181 53.514 48.9346 53.5059H49.0337H49.139H49.2381H49.3496H49.4549H49.554H49.6655H49.7708H49.8699H49.9752H50.0867H50.1858H50.2911H50.4026H50.5017H50.607H50.7123H50.8176C51.6896 53.5042 52.5534 53.6744 53.3597 54.0066C54.1659 54.3388 54.8989 54.8265 55.5166 55.442C56.1344 56.0574 56.6249 56.7885 56.9601 57.5936C57.2953 58.3986 57.4686 59.2617 57.4703 60.1337Z" fill="#0A6267"/>
<path d="M68.1368 39.3088C68.1396 39.8598 67.9587 40.396 67.6226 40.8326L65.8697 43.1555C65.6174 43.4879 65.287 43.7529 64.9077 43.9268C64.5284 44.1008 64.112 44.1784 63.6955 44.1527H62.0169C61.4701 44.1667 60.9335 44.0037 60.4869 43.6882C57.3742 41.4854 53.6921 40.2272 49.8823 40.0645C46.0669 40.2278 42.3791 41.4858 39.2592 43.6882C38.8338 43.9863 38.329 44.1502 37.8097 44.1589L37.3637 43.2855L35.3816 38.0948L31.665 39.3336C31.6525 39.1852 31.6525 39.036 31.665 38.8876C31.7126 38.5508 31.8289 38.2274 32.0069 37.9376C32.1849 37.6477 32.4206 37.3976 32.6995 37.2028C37.4386 33.8264 43.1157 32.0178 48.9346 32.0306H50.7929C56.6208 32.0211 62.3052 33.8387 67.0466 37.2276C67.3358 37.4168 67.5821 37.6645 67.7699 37.9547C67.9576 38.2448 68.0826 38.5711 68.1368 38.9124C68.1493 39.0442 68.1493 39.177 68.1368 39.3088Z" fill="#0A6267"/>
<path d="M73.8231 32.6622L72.0701 34.9788C71.8146 35.3123 71.4809 35.5778 71.0985 35.7517C70.716 35.9257 70.2966 36.0027 69.8774 35.9761H68.1987C67.6542 35.995 67.1186 35.8339 66.6749 35.5177C61.7827 31.9699 55.9354 29.9776 49.8947 29.8004C43.858 29.9786 38.0149 31.9709 33.1269 35.5177C32.7329 35.7997 32.2665 35.963 31.7827 35.9885L31.5473 35.5301L29.5404 30.3517L25.5265 31.7083C25.4491 31.3983 25.4364 31.0757 25.4893 30.7606C25.5388 30.4226 25.6559 30.0982 25.8336 29.8065C26.0114 29.5149 26.2461 29.2621 26.5238 29.0633C33.035 24.3263 40.8826 21.7798 48.9346 21.7913H50.7929C58.8669 21.7613 66.7405 24.3041 73.2718 29.0509C73.5478 29.2497 73.7815 29.5016 73.959 29.7917C74.1365 30.0819 74.2544 30.4045 74.3057 30.7408C74.3571 31.0771 74.3408 31.4202 74.2579 31.7501C74.1751 32.08 74.0272 32.3901 73.8231 32.6622Z" fill="#0A6267"/>
<path d="M61.5399 48.9346L59.7807 51.2636C59.5274 51.5945 59.1966 51.858 58.8175 52.0308C58.4383 52.2036 58.0224 52.2805 57.6065 52.2547H55.9465C55.4361 52.2677 54.9342 52.1227 54.5094 51.8397C53.1436 50.9284 51.5727 50.3707 49.9381 50.2168C48.2974 50.37 46.7204 50.9276 45.3481 51.8397C44.9813 52.0894 44.5525 52.2331 44.1093 52.2547L43.7995 51.6352L41.7554 46.4568L37.7849 47.8072C37.7384 47.5283 37.7384 47.2437 37.7849 46.9648C37.8378 46.6293 37.9592 46.3082 38.1414 46.0216C38.3236 45.7349 38.5628 45.4888 38.8441 45.2985C41.828 43.2634 45.36 42.1832 48.9717 42.2014H50.83C54.4399 42.1833 57.9698 43.2635 60.9514 45.2985C61.2328 45.4888 61.472 45.7349 61.6542 46.0216C61.8364 46.3082 61.9577 46.6293 62.0106 46.9648C62.0693 47.3079 62.0578 47.6593 61.9769 47.9979C61.896 48.3364 61.7473 48.655 61.5399 48.9346Z" fill="#0A6267"/>
<path d="M44.0659 52.2546H42.0466C41.6523 52.2546 41.2635 52.1628 40.9108 51.9865C40.5582 51.8102 40.2514 51.5542 40.0149 51.2388L38.2557 48.9345C38.0071 48.6039 37.8453 48.2163 37.7849 47.8071L41.7555 46.4568L43.7562 51.6538L44.0659 52.2546Z" fill="#0A6267"/>
<path d="M37.8345 44.1588H35.9267C35.5356 44.1578 35.15 44.0668 34.7998 43.8928C34.4496 43.7188 34.1442 43.4664 33.9073 43.1553L32.1482 40.8325C31.8259 40.4074 31.6459 39.8915 31.634 39.3582L35.3506 38.1194L37.3575 43.3102L37.8345 44.1588Z" fill="#0A6267"/>
<path d="M31.7827 35.9886H31.6526C31.6261 35.9943 31.5986 35.9943 31.5721 35.9886C31.5289 35.9946 31.4852 35.9946 31.442 35.9886H31.3615C31.3204 35.9946 31.2787 35.9946 31.2376 35.9886C31.2091 35.995 31.1794 35.995 31.1509 35.9886C31.1098 35.9951 31.068 35.9951 31.027 35.9886C30.9984 35.9944 30.9689 35.9944 30.9403 35.9886H30.8164H30.7297C30.6886 35.9951 30.6468 35.9951 30.6058 35.9886C30.5793 35.9943 30.5518 35.9943 30.5253 35.9886H30.4014C30.3728 35.995 30.3432 35.995 30.3147 35.9886H30.1846C30.158 35.9943 30.1306 35.9943 30.1041 35.9886C30.0609 35.9946 30.0171 35.9946 29.974 35.9886H29.8935C29.8524 35.9946 29.8106 35.9946 29.7696 35.9886C29.3749 35.9893 28.9855 35.8985 28.6319 35.7233C28.2783 35.5481 27.9702 35.2933 27.7317 34.9789L25.9725 32.6561C25.7526 32.3719 25.6001 32.0415 25.5265 31.6898L29.5404 30.3518L31.5473 35.5426L31.7827 35.9886Z" fill="#0A6267"/>
<path d="M50.5761 66.7556H48.9346C47.403 66.7526 45.9193 66.2218 44.7335 65.2526C43.5477 64.2834 42.7322 62.935 42.4244 61.4347L47.7948 59.626L50.5761 66.7556Z" fill="#0A6267"/>
<path d="M66.5882 54.3483C66.3283 54.2437 66.0478 54.2004 65.7685 54.2219C65.4891 54.2434 65.2185 54.329 64.9777 54.4722L62.3823 55.996C62.057 56.1943 61.8005 56.4879 61.6476 56.8369C61.4947 57.1859 61.4527 57.5735 61.5275 57.9472C61.6758 58.6666 61.7506 59.3992 61.7505 60.1337C61.7435 62.8522 60.7023 65.4662 58.8384 67.445C56.9744 69.4239 54.4273 70.6194 51.7141 70.7889C49.0009 70.9583 46.3249 70.0891 44.2292 68.3576C42.1335 66.626 40.7751 64.162 40.4299 61.4655C40.2878 60.2927 40.3359 59.1046 40.5723 57.9472C40.6527 57.5734 40.6134 57.1837 40.46 56.8335C40.3066 56.4833 40.0468 56.1903 39.7175 55.996L37.1655 54.4722C36.9218 54.3351 36.6503 54.2547 36.3713 54.237C36.0922 54.2194 35.8128 54.265 35.5538 54.3704C35.2948 54.4758 35.0629 54.6382 34.8754 54.8457C34.688 55.0532 34.5497 55.3003 34.471 55.5686C33.7695 58.1255 33.6676 60.8099 34.173 63.4127C34.6785 66.0155 35.7778 68.4665 37.3853 70.5751C38.9928 72.6837 41.0651 74.3929 43.4411 75.5697C45.8171 76.7465 48.4326 77.3591 51.084 77.3599H51.2698C55.7106 77.2834 59.9528 75.5062 63.122 72.3946C66.2913 69.283 68.146 65.0741 68.304 60.6355C68.35 58.9353 68.1412 57.2379 67.6846 55.5995C67.6116 55.3201 67.4745 55.0616 67.2842 54.8444C67.0939 54.6272 66.8556 54.4573 66.5882 54.3483Z" fill="#F5E66C"/>
<path d="M51.053 53.5122C49.7416 53.511 48.4593 53.8988 47.3685 54.6266C46.2776 55.3544 45.4271 56.3895 44.9247 57.6008C44.4223 58.8122 44.2905 60.1453 44.546 61.4316C44.8016 62.7178 45.4329 63.8994 46.3602 64.8267C47.2875 65.7539 48.4691 66.3853 49.7553 66.6409C51.0416 66.8964 52.3747 66.7646 53.5861 66.2622C54.7974 65.7598 55.8325 64.9093 56.5603 63.8184C57.2881 62.7275 57.6759 61.4453 57.6747 60.1339C57.673 58.3782 56.9749 56.6949 55.7334 55.4535C54.492 54.212 52.8087 53.5138 51.053 53.5122Z" fill="#36AEB4"/>
<path d="M59.9913 51.2451L61.7505 48.9346C61.9577 48.6583 62.1072 48.3432 62.1902 48.0081C62.2732 47.6729 62.288 47.3244 62.2336 46.9834C62.1807 46.6479 62.0594 46.3269 61.8772 46.0402C61.695 45.7536 61.4558 45.5075 61.1744 45.3172C58.1906 43.2812 54.6622 42.1921 51.0499 42.1921C47.4376 42.1921 43.9093 43.2812 40.9254 45.3172C40.6465 45.5094 40.4094 45.7562 40.2284 46.0425C40.0474 46.3289 39.9263 46.649 39.8724 46.9834C39.8166 47.3244 39.8307 47.6732 39.9138 48.0086C39.9968 48.344 40.1471 48.659 40.3555 48.9346L42.1209 51.2451C42.3578 51.5601 42.6646 51.8159 43.0172 51.9921C43.3698 52.1684 43.7584 52.2604 44.1526 52.2609C44.644 52.2626 45.1248 52.1182 45.5339 51.8459C47.1696 50.7534 49.0923 50.1704 51.0592 50.1704C53.0261 50.1704 54.9489 50.7534 56.5845 51.8459C57.1219 52.1992 57.7739 52.3337 58.4072 52.222C59.0405 52.1103 59.6072 51.7608 59.9913 51.2451Z" fill="#36AEB4"/>
<path d="M67.3067 37.2275C62.561 33.8473 56.8795 32.0308 51.053 32.0308C45.2265 32.0308 39.545 33.8473 34.7993 37.2275C34.5235 37.4257 34.29 37.677 34.1125 37.9666C33.9351 38.2562 33.8172 38.5784 33.7659 38.9141C33.7145 39.2499 33.7307 39.5925 33.8135 39.922C33.8963 40.2514 34.044 40.561 34.248 40.8325L36.001 43.1492C36.2353 43.4636 36.54 43.7187 36.8906 43.894C37.2413 44.0694 37.6282 44.1601 38.0203 44.1589C38.5484 44.1571 39.0632 43.9927 39.4945 43.6881C42.8779 41.3056 46.9149 40.0269 51.053 40.0269C55.1911 40.0269 59.2281 41.3056 62.6115 43.6881C63.1487 44.0728 63.8152 44.2318 64.4682 44.131C65.1212 44.0303 65.7087 43.6779 66.105 43.1492L67.858 40.8325C68.062 40.561 68.2097 40.2514 68.2925 39.922C68.3753 39.5925 68.3915 39.2499 68.3402 38.9141C68.2888 38.5784 68.171 38.2562 67.9935 37.9666C67.8161 37.677 67.5826 37.4257 67.3067 37.2275Z" fill="#36AEB4"/>
<path d="M74.5168 30.7482C74.4657 30.4124 74.3485 30.09 74.172 29.7998C73.9955 29.5095 73.7632 29.2571 73.4886 29.0572C66.9611 24.3344 59.1098 21.792 51.053 21.792C42.9962 21.792 35.1449 24.3344 28.6174 29.0572C28.343 29.2558 28.1108 29.5071 27.9345 29.7965C27.7582 30.0858 27.6412 30.4073 27.5905 30.7423C27.5398 31.0773 27.5562 31.4191 27.639 31.7476C27.7217 32.0762 27.869 32.385 28.0723 32.656L29.8315 34.9851C30.0697 35.2978 30.3771 35.5512 30.7296 35.7253C31.0821 35.8994 31.4701 35.9895 31.8632 35.9885C32.3923 35.993 32.9089 35.8281 33.3375 35.5178C38.4955 31.7952 44.695 29.7918 51.0561 29.7918C57.4172 29.7918 63.6167 31.7952 68.7748 35.5178C69.3137 35.9022 69.9812 36.0617 70.6357 35.9622C71.2903 35.8628 71.8803 35.5123 72.2807 34.9851L74.0337 32.6622C74.2382 32.3917 74.3864 32.083 74.4694 31.7542C74.5524 31.4254 74.5685 31.0833 74.5168 30.7482Z" fill="#36AEB4"/>
</g>
<defs>
<clipPath id="clip0_6418_60098">
<rect width="100" height="100" fill="white"/>
</clipPath>
</defs>
</svg>
