<svg width="100" height="100" viewBox="0 0 100 100" fill="none" xmlns="http://www.w3.org/2000/svg">
<g clip-path="url(#clip0_6418_60494)">
<path d="M70.9676 65.5413H26.9078C26.2955 65.5413 25.7991 66.0377 25.7991 66.65C25.7991 67.2624 26.2955 67.7588 26.9078 67.7588H70.9676C71.5799 67.7588 72.0763 67.2624 72.0763 66.65C72.0763 66.0377 71.5799 65.5413 70.9676 65.5413Z" fill="#AEDFFF"/>
<path d="M65.5723 45.8374C65.8955 47.4746 66.8183 48.9322 68.1601 49.9244C69.5018 50.9167 71.1657 51.3722 72.8258 51.2017C72.9986 51.1892 73.1701 51.2402 73.3081 51.3451C73.4461 51.45 73.541 51.6016 73.5753 51.7715L74.1513 54.689C74.2862 55.3845 74.1405 56.1051 73.7459 56.6935C73.3513 57.2819 72.7399 57.6903 72.0453 57.8295L33.7896 65.3927C33.4455 65.4603 33.0915 65.4594 32.7477 65.3901C32.404 65.3208 32.0772 65.1845 31.7862 64.9889C31.4951 64.7934 31.2454 64.5424 31.0514 64.2503C30.8574 63.9582 30.7228 63.6307 30.6553 63.2866L30.0792 60.3629C30.045 60.1943 30.0741 60.019 30.1609 59.8705C30.2478 59.7219 30.3863 59.6106 30.55 59.5577C32.1598 59.091 33.5363 58.038 34.4081 56.6064C35.2798 55.1748 35.5835 53.4686 35.2593 51.8241C34.9351 50.1797 34.0064 48.7164 32.6566 47.7229C31.3067 46.7293 29.6335 46.2776 27.967 46.4569C27.7949 46.4691 27.6242 46.4179 27.4873 46.3129C27.3503 46.2079 27.2565 46.0564 27.2237 45.887L26.6352 42.9819C26.4985 42.2887 26.642 41.5696 27.0345 40.9822C27.4269 40.3947 28.0362 39.9867 28.7289 39.8476L66.997 32.2906C67.6865 32.1633 68.3984 32.3131 68.9782 32.7073C69.558 33.1016 69.959 33.7086 70.0941 34.3966L70.6702 37.3141C70.7072 37.4846 70.6787 37.6627 70.5903 37.8131C70.5019 37.9635 70.3602 38.0751 70.1932 38.1256C68.6027 38.6074 67.2484 39.664 66.3942 41.0896C65.54 42.5152 65.247 44.2077 65.5723 45.8374Z" fill="#0A6267"/>
<path d="M63.8008 53.0103C63.8011 54.6799 64.424 56.2894 65.5477 57.5242C66.6714 58.759 68.2152 59.5305 69.8774 59.6877C70.0493 59.7062 70.2081 59.7882 70.3227 59.9177C70.4373 60.0472 70.4994 60.2148 70.4968 60.3877V63.3609C70.4952 64.0685 70.2134 64.7466 69.7131 65.2469C69.2128 65.7472 68.5347 66.029 67.8271 66.0306H28.8033C28.0963 66.029 27.4189 65.747 26.9195 65.2465C26.4202 64.746 26.1398 64.0679 26.1398 63.3609V60.3815C26.1386 60.209 26.2012 60.0421 26.3156 59.913C26.4299 59.7838 26.5879 59.7014 26.7592 59.6815C28.4115 59.5143 29.9428 58.7396 31.0564 57.5076C32.1699 56.2756 32.7865 54.6741 32.7865 53.0134C32.7865 51.3527 32.1699 49.7512 31.0564 48.5192C29.9428 47.2872 28.4115 46.5125 26.7592 46.3453C26.5873 46.324 26.4293 46.2403 26.3151 46.1102C26.2009 45.98 26.1385 45.8123 26.1398 45.6391V42.6597C26.1398 41.9527 26.4202 41.2746 26.9195 40.7741C27.4189 40.2736 28.0963 39.9916 28.8033 39.99H67.8271C68.5341 39.9916 69.2116 40.2736 69.7109 40.7741C70.2102 41.2746 70.4906 41.9527 70.4906 42.6597V45.633C70.4933 45.8065 70.4314 45.9749 70.317 46.1054C70.2025 46.2359 70.0436 46.3191 69.8712 46.3391C68.2107 46.4963 66.6685 47.2671 65.5459 48.5008C64.4233 49.7344 63.8011 51.3424 63.8008 53.0103Z" fill="#1A8086"/>
<path d="M65.0396 53.0103C65.0399 54.6799 65.6628 56.2894 66.7865 57.5242C67.9102 58.759 69.454 59.5305 71.1162 59.6877C71.2881 59.7062 71.4469 59.7882 71.5615 59.9177C71.676 60.0472 71.7381 60.2148 71.7356 60.3877V63.3609C71.734 64.0685 71.4522 64.7466 70.9518 65.2469C70.4515 65.7472 69.7734 66.029 69.0659 66.0306H30.0421C29.3351 66.029 28.6576 65.747 28.1583 65.2465C27.659 64.746 27.3786 64.0679 27.3786 63.3609V60.3815C27.3774 60.209 27.44 60.0421 27.5543 59.913C27.6686 59.7838 27.8266 59.7014 27.998 59.6815C29.6502 59.5143 31.1815 58.7396 32.2951 57.5076C33.4087 56.2756 34.0253 54.6741 34.0253 53.0134C34.0253 51.3527 33.4087 49.7512 32.2951 48.5192C31.1815 47.2872 29.6502 46.5125 27.998 46.3453C27.8261 46.324 27.668 46.2403 27.5538 46.1102C27.4396 45.98 27.3772 45.8123 27.3786 45.6391V42.6597C27.3786 41.9527 27.659 41.2746 28.1583 40.7741C28.6576 40.2736 29.3351 39.9916 30.0421 39.99H69.0659C69.7729 39.9916 70.4503 40.2736 70.9496 40.7741C71.449 41.2746 71.7294 41.9527 71.7294 42.6597V45.633C71.7321 45.8065 71.6702 45.9749 71.5557 46.1054C71.4413 46.2359 71.2824 46.3191 71.11 46.3391C69.4495 46.4963 67.9072 47.2671 66.7847 48.5008C65.6621 49.7344 65.0399 51.3424 65.0396 53.0103Z" fill="#36AEB4"/>
<path d="M49.1266 46.1471L50.6071 49.1513C50.6703 49.2823 50.7652 49.3956 50.883 49.481C51.0008 49.5664 51.138 49.6213 51.2822 49.6406L54.6024 50.1238C54.7676 50.1485 54.9227 50.2188 55.0502 50.3269C55.1776 50.4349 55.2725 50.5763 55.3239 50.7353C55.3754 50.8943 55.3816 51.0644 55.3416 51.2267C55.3017 51.3889 55.2173 51.5368 55.0979 51.6538L52.7007 53.9952C52.5951 54.0955 52.5161 54.2204 52.4706 54.3588C52.4252 54.4972 52.4149 54.6447 52.4406 54.788L53.0042 58.0896C53.0325 58.2545 53.014 58.424 52.9511 58.579C52.8881 58.7341 52.7831 58.8684 52.6478 58.9669C52.5126 59.0655 52.3525 59.1243 52.1857 59.1367C52.0188 59.1491 51.8518 59.1147 51.7035 59.0373L48.7364 57.4763C48.6073 57.409 48.4639 57.3739 48.3183 57.3739C48.1727 57.3739 48.0293 57.409 47.9002 57.4763L44.9331 59.0373C44.7848 59.1147 44.6178 59.1491 44.4509 59.1367C44.2841 59.1243 44.124 59.0655 43.9888 58.9669C43.8535 58.8684 43.7485 58.7341 43.6855 58.579C43.6226 58.424 43.6041 58.2545 43.6323 58.0896L44.2022 54.788C44.2262 54.6447 44.2151 54.4977 44.1698 54.3596C44.1245 54.2215 44.0463 54.0964 43.9421 53.9952L41.5449 51.6538C41.4255 51.5368 41.3411 51.3889 41.3012 51.2267C41.2612 51.0644 41.2674 50.8943 41.3188 50.7353C41.3703 50.5763 41.4651 50.4349 41.5926 50.3269C41.7201 50.2188 41.8752 50.1485 42.0404 50.1238L45.3543 49.6406C45.4989 49.6224 45.6366 49.568 45.7546 49.4824C45.8726 49.3969 45.9672 49.283 46.0295 49.1513L47.5161 46.1471C47.5903 45.9969 47.7051 45.8704 47.8474 45.782C47.9897 45.6936 48.1539 45.6467 48.3214 45.6467C48.4889 45.6467 48.6531 45.6936 48.7954 45.782C48.9377 45.8704 49.0524 45.9969 49.1266 46.1471Z" fill="#F5E66C"/>
</g>
<defs>
<clipPath id="clip0_6418_60494">
<rect width="100" height="100" fill="white"/>
</clipPath>
</defs>
</svg>
