<svg width="100" height="100" viewBox="0 0 100 100" fill="none" xmlns="http://www.w3.org/2000/svg">
<g clip-path="url(#clip0_6418_60340)">
<path d="M78.6011 48.1287H84.5971C84.8313 48.1316 85.0618 48.0703 85.2636 47.9515C85.4654 47.8326 85.6308 47.6608 85.7419 47.4546C85.8529 47.2485 85.9054 47.0158 85.8936 46.7819C85.8818 46.548 85.8062 46.3219 85.6749 46.1279L84.5847 44.5174C84.2145 43.9726 83.7169 43.5264 83.135 43.2177C82.5532 42.9089 81.9047 42.747 81.246 42.7458H79.1524C78.7536 42.7463 78.3649 42.8714 78.0407 43.1034C77.7164 43.3355 77.4727 43.6631 77.3437 44.0405L76.811 45.6014C76.7142 45.8875 76.6864 46.1925 76.7301 46.4914C76.7738 46.7903 76.8875 47.0746 77.0621 47.3211C77.2367 47.5676 77.4672 47.7693 77.7347 47.9096C78.0022 48.05 78.299 48.125 78.6011 48.1287Z" fill="#36AEB4"/>
<path d="M69.0163 35.8701H42.5917V43.0802H69.0163V35.8701Z" fill="#36AEB4"/>
<path d="M87.5124 65.968H21.6179C21.0227 65.968 20.5401 66.4506 20.5401 67.0458V67.052C20.5401 67.6473 21.0227 68.1298 21.6179 68.1298H87.5124C88.1076 68.1298 88.5902 67.6473 88.5902 67.052V67.0458C88.5902 66.4506 88.1076 65.968 87.5124 65.968Z" fill="#AEDFFF"/>
<path d="M82.2473 55.4812C81.6414 55.5085 81.0515 55.6837 80.5289 55.9914C80.0064 56.2991 79.567 56.73 79.2493 57.2466H79.1006V67.2069H82.2473C84.5639 67.2069 86.4408 64.5806 86.4408 61.3472C86.4408 58.1138 84.5639 55.4812 82.2473 55.4812Z" fill="#0A6267"/>
<path d="M79.1006 67.2131C81.4166 67.2131 83.2941 64.5868 83.2941 61.3472C83.2941 58.1075 81.4166 55.4812 79.1006 55.4812C76.7846 55.4812 74.9071 58.1075 74.9071 61.3472C74.9071 64.5868 76.7846 67.2131 79.1006 67.2131Z" fill="#0A6267"/>
<path d="M53.6546 55.4812C53.0488 55.5085 52.4589 55.6837 51.9363 55.9914C51.4137 56.2991 50.9744 56.73 50.6566 57.2466H50.5079V67.2069H53.6546C55.9713 67.2069 57.8481 64.5806 57.8481 61.3472C57.8481 58.1138 55.9713 55.4812 53.6546 55.4812Z" fill="#0A6267"/>
<path d="M28.9333 55.4812C28.3286 55.5095 27.7399 55.6852 27.2185 55.9928C26.6971 56.3005 26.2587 56.7309 25.9415 57.2466H25.7867V67.2069H28.9333C31.2562 67.2069 33.133 64.5806 33.133 61.3472C33.133 58.1138 31.2562 55.4812 28.9333 55.4812Z" fill="#0A6267"/>
<path d="M83.2941 58.5103H29.4599V64.6983H83.2941V58.5103Z" fill="#0A6267"/>
<path d="M93.5828 54.6511L91.9227 50.4576L91.7245 50.1417C91.2258 49.3687 90.5776 48.7031 89.8181 48.184C89.0587 47.6649 88.2031 47.3028 87.3018 47.1189C86.3083 46.8965 85.385 46.4327 84.6135 45.7685L76.8954 39.1283C74.2171 36.8189 70.7359 35.6592 67.2076 35.9011L59.3285 36.44C57.8754 36.5389 56.4571 36.93 55.1586 37.5899C53.8601 38.2498 52.7081 39.1649 51.7716 40.2804L49.2939 43.2784C47.0639 44.9757 44.4561 46.1712 44.4561 50.2594V55.0351C44.4613 56.3026 44.8983 57.5305 45.695 58.5163L46.0047 58.9004C46.7101 59.7374 47.5931 60.4069 48.5895 60.8601C49.586 61.3133 50.6709 61.5389 51.7654 61.5205H86.4532C87.6195 61.5442 88.7744 61.2876 89.821 60.7724C90.8676 60.2572 91.7753 59.4984 92.4678 58.5597L92.7713 58.1199C93.4371 57.0932 93.7241 55.8665 93.5828 54.6511Z" fill="#36AEB4"/>
<path d="M85.9948 46.7349H45.6021V37.6665H74.8389C77.8246 39.2522 81.0766 42.9378 85.9948 46.7349Z" fill="#0A6267"/>
<path d="M68.2359 54.6511H63.8008C63.5214 54.6575 63.2449 54.5934 62.997 54.4645C62.749 54.3357 62.5376 54.1463 62.3823 53.914L61.5213 52.5017C60.9514 51.5725 61.7257 50.4576 62.9398 50.4576H66.3838L66.1856 50.1417C65.6869 49.3687 65.0387 48.7031 64.2792 48.184C63.5198 47.6649 62.6642 47.3028 61.7629 47.1189C60.7694 46.8965 59.8461 46.4327 59.0746 45.7685L51.3751 39.1283C48.6968 36.8189 45.2156 35.6592 41.6873 35.9011L33.8082 36.44C32.3551 36.5389 30.9368 36.93 29.6383 37.5899C28.3398 38.2498 27.1878 39.1649 26.2512 40.2804L23.7426 43.2784C21.5126 44.9757 18.9049 46.1712 18.9049 50.2594V55.0351C18.9101 56.3026 19.347 57.5305 20.1437 58.5163L20.4534 58.9004C21.1588 59.7374 22.0418 60.4069 23.0383 60.8601C24.0347 61.3133 25.1196 61.5389 26.2141 61.5205H60.9019C62.0682 61.5442 63.2231 61.2876 64.2697 60.7724C65.3163 60.2572 66.224 59.4984 66.9165 58.5597L67.22 58.1199C67.946 57.1141 68.3046 55.8896 68.2359 54.6511Z" fill="#1A8086"/>
<path d="M25.7867 67.2131C28.1027 67.2131 29.9802 64.5868 29.9802 61.3472C29.9802 58.1075 28.1027 55.4812 25.7867 55.4812C23.4707 55.4812 21.5932 58.1075 21.5932 61.3472C21.5932 64.5868 23.4707 67.2131 25.7867 67.2131Z" fill="#0A6267"/>
<path d="M50.5079 67.2131C52.8239 67.2131 54.7014 64.5868 54.7014 61.3472C54.7014 58.1075 52.8239 55.4812 50.5079 55.4812C48.1919 55.4812 46.3144 58.1075 46.3144 61.3472C46.3144 64.5868 48.1919 67.2131 50.5079 67.2131Z" fill="#0A6267"/>
<path d="M65.6591 54.651H61.8186C61.5648 54.6514 61.3157 54.5831 61.0976 54.4533C60.8795 54.3235 60.7005 54.1372 60.5798 53.9139L59.8365 52.5016C59.7242 52.2888 59.6689 52.0505 59.676 51.8099C59.6832 51.5693 59.7525 51.3347 59.8772 51.1289C60.002 50.923 60.1779 50.753 60.3878 50.6354C60.5978 50.5177 60.8347 50.4565 61.0753 50.4575H64.061L64.9467 52.1176C65.37 52.8984 65.6134 53.764 65.6591 54.651Z" fill="#F5E66C"/>
<path d="M73.47 54.651H65.6591C65.6153 53.7645 65.374 52.8989 64.9529 52.1176L64.0671 50.4575H69.2393C70.3072 50.4554 71.3461 50.804 72.1966 51.4497C73.0471 52.0954 73.662 53.0025 73.947 54.0316C73.9658 54.1046 73.9678 54.1809 73.9527 54.2548C73.9376 54.3287 73.9058 54.3981 73.8598 54.4578C73.8138 54.5176 73.7548 54.566 73.6872 54.5995C73.6197 54.633 73.5454 54.6506 73.47 54.651Z" fill="#AEDFFF"/>
<path d="M93.5828 54.6511H87.8531C87.6539 54.6531 87.4587 54.5952 87.293 54.4847C87.1272 54.3742 86.9986 54.2163 86.9239 54.0316C86.78 53.633 86.734 53.2057 86.7897 52.7856C86.8455 52.3655 87.0013 51.965 87.2442 51.6177C87.487 51.2704 87.8098 50.9866 88.1852 50.7901C88.5607 50.5936 88.9779 50.4901 89.4016 50.4885H91.9351L92.8456 52.1486C93.2735 52.9179 93.5253 53.7726 93.5828 54.6511Z" fill="#AEDFFF"/>
<path d="M90.913 60.1269C89.825 61.0294 88.4553 61.5225 87.0416 61.5206H72.6648L74.331 58.7394C74.6308 58.2462 75.053 57.8387 75.5565 57.5566C76.06 57.2744 76.6279 57.1271 77.2052 57.1289H87.3389C87.9628 57.1296 88.5741 57.3038 89.1046 57.6319C89.6352 57.9601 90.064 58.4293 90.3432 58.9872L90.913 60.1269Z" fill="#0A6267"/>
<path d="M84.5639 54.23H75.892C75.7164 54.2297 75.5457 54.1721 75.406 54.0659C75.2662 53.9596 75.1649 53.8106 75.1177 53.6415L74.6283 51.901C74.5961 51.781 74.5918 51.6552 74.6159 51.5333C74.6399 51.4114 74.6916 51.2966 74.7671 51.1979C74.8425 51.0991 74.9395 51.019 75.0508 50.9637C75.1621 50.9084 75.2846 50.8794 75.4088 50.8789H83.9321C84.0991 50.8794 84.2619 50.9314 84.3983 51.0279C84.5346 51.1243 84.6379 51.2605 84.694 51.4178L85.3134 53.1584C85.3557 53.279 85.3687 53.4079 85.3513 53.5344C85.3339 53.661 85.2866 53.7816 85.2134 53.8863C85.1401 53.991 85.0431 54.0768 84.9301 54.1366C84.8172 54.1963 84.6917 54.2283 84.5639 54.23Z" fill="#0A6267"/>
<path d="M24.0337 54.3227L16.5077 67.0395C16.4906 67.0708 16.4698 67.1 16.4457 67.1263L16.3838 67.2006C16.3101 67.2745 16.2203 67.3302 16.1214 67.3635C16.0225 67.3969 15.9173 67.4068 15.8139 67.3926C15.7458 67.3926 13.9557 67.3926 13.8937 67.3926C13.7806 67.4107 13.6648 67.4017 13.5559 67.3664C13.4469 67.3311 13.3479 67.2704 13.2669 67.1894C13.1859 67.1084 13.1252 67.0094 13.0899 66.9004C13.0546 66.7915 13.0456 66.6757 13.0637 66.5626L13.8503 61.1426L16.1051 60.1267L16.3528 58.4233C16.3734 58.2918 16.3652 58.1574 16.3289 58.0293C16.2926 57.9012 16.2291 57.7824 16.1426 57.6812C16.0561 57.58 15.9487 57.4987 15.8278 57.4429C15.7069 57.3871 15.5754 57.3581 15.4423 57.3579H7.32161C7.18757 57.357 7.05533 57.327 6.93396 57.2701C6.81259 57.2133 6.70496 57.1308 6.61846 57.0284C6.53196 56.926 6.46864 56.8061 6.43284 56.677C6.39703 56.5478 6.3896 56.4124 6.41105 56.2801L9.21085 43.012C9.29552 42.6247 9.50991 42.2778 9.81854 42.0289C10.1272 41.7799 10.5116 41.6438 10.9081 41.6431H19.3694C19.5699 41.6416 19.7679 41.687 19.9476 41.7759C20.1273 41.8648 20.2836 41.9945 20.4041 42.1547C20.5246 42.3149 20.6058 42.5012 20.6413 42.6985C20.6767 42.8958 20.6654 43.0986 20.6083 43.2908L18.1987 51.6964C18.1542 51.8387 18.1436 51.9895 18.1679 52.1367C18.1922 52.2839 18.2507 52.4233 18.3386 52.5438C18.4266 52.6642 18.5415 52.7624 18.6743 52.8304C18.8071 52.8984 18.9539 52.9343 19.1031 52.9352H23.247C23.4077 52.9389 23.5646 52.9842 23.7026 53.0667C23.8405 53.1492 23.9546 53.2661 24.0339 53.4059C24.1132 53.5457 24.1548 53.7036 24.1548 53.8643C24.1547 54.025 24.113 54.183 24.0337 54.3227Z" fill="#E4800C"/>
<path d="M24.0337 54.3227L16.5077 67.0395C16.4906 67.0708 16.4698 67.1 16.4457 67.1263L16.3838 67.2006C16.3101 67.2745 16.2203 67.3302 16.1214 67.3635C16.0225 67.3969 15.9173 67.4068 15.8139 67.3926C15.718 67.3806 15.6254 67.3493 15.5419 67.3006C15.4583 67.2519 15.3854 67.1869 15.3276 67.1094C15.2697 67.0319 15.2281 66.9435 15.2053 66.8496C15.1824 66.7556 15.1787 66.658 15.1945 66.5626L16.1051 60.1267L16.3528 58.4233C16.3734 58.2918 16.3652 58.1574 16.3289 58.0293C16.2926 57.9012 16.2291 57.7824 16.1426 57.6812C16.0561 57.58 15.9487 57.4987 15.8278 57.4429C15.7069 57.3871 15.5754 57.3581 15.4423 57.3579H9.43385C9.29948 57.358 9.16671 57.3288 9.04482 57.2722C8.92292 57.2157 8.81484 57.1332 8.72813 57.0306C8.64141 56.928 8.57816 56.8076 8.54278 56.678C8.5074 56.5484 8.50075 56.4126 8.52329 56.2801L11.3231 43.012C11.4073 42.6267 11.6199 42.2814 11.926 42.0327C12.2321 41.784 12.6135 41.6466 13.0079 41.6431H19.3694C19.5699 41.6416 19.7679 41.687 19.9476 41.7759C20.1273 41.8648 20.2836 41.9945 20.4041 42.1547C20.5246 42.3149 20.6058 42.5012 20.6413 42.6985C20.6767 42.8958 20.6654 43.0986 20.6083 43.2908L18.1987 51.6964C18.1542 51.8387 18.1436 51.9895 18.1679 52.1367C18.1922 52.2839 18.2507 52.4233 18.3386 52.5438C18.4266 52.6642 18.5415 52.7624 18.6743 52.8304C18.8071 52.8984 18.9539 52.9343 19.1031 52.9352H23.247C23.4077 52.9389 23.5646 52.9842 23.7026 53.0667C23.8405 53.1492 23.9546 53.2661 24.0339 53.4059C24.1132 53.5457 24.1548 53.7036 24.1548 53.8643C24.1547 54.025 24.113 54.183 24.0337 54.3227Z" fill="#F5E66C"/>
<path d="M16.359 58.4233L16.1051 60.1267L13.8442 61.1674L14.2468 58.4233C14.2673 58.2918 14.2592 58.1573 14.2229 58.0292C14.1866 57.9012 14.123 57.7824 14.0365 57.6812C13.95 57.58 13.8426 57.4987 13.7218 57.4429C13.6009 57.3871 13.4694 57.3581 13.3362 57.3579H15.4485C15.5816 57.3581 15.7131 57.3871 15.834 57.4429C15.9549 57.4987 16.0623 57.58 16.1488 57.6812C16.2353 57.7824 16.2988 57.9012 16.3351 58.0292C16.3714 58.1573 16.3796 58.2918 16.359 58.4233Z" fill="#FFAE10"/>
<path d="M51.3442 41.6865L55.3828 44.9447C55.5493 45.0783 55.6688 45.2614 55.724 45.4676C55.7793 45.6737 55.7673 45.8921 55.69 46.091C55.6126 46.2899 55.4739 46.459 55.2939 46.5737C55.1139 46.6883 54.902 46.7426 54.689 46.7286L27.8741 45.0128C27.7195 45.0032 27.5702 44.953 27.4413 44.8671C27.3124 44.7813 27.2084 44.6629 27.1399 44.524C27.0713 44.3851 27.0407 44.2306 27.0511 44.076C27.0615 43.9215 27.1125 43.7724 27.199 43.6439L27.2485 43.5696C28.0983 42.2874 29.2196 41.2077 30.533 40.4071C31.8465 39.6064 33.3198 39.1043 34.8489 38.9363L39.9839 38.3726C42.0025 38.1461 44.046 38.3224 45.9961 38.8913C47.9461 39.4601 49.7639 40.4102 51.3442 41.6865Z" fill="#0A6267"/>
<path d="M42.5902 37.2715L40.4434 37.0178L39.3151 46.5649L41.4619 46.8186L42.5902 37.2715Z" fill="#1A8086"/>
<path d="M47.1383 48.1285H53.1343C53.3669 48.128 53.595 48.0642 53.7941 47.9441C53.9932 47.8239 54.1559 47.6518 54.2647 47.4462C54.3736 47.2407 54.4244 47.0094 54.4119 46.7771C54.3993 46.5449 54.3239 46.3204 54.1935 46.1278L53.1033 44.5173C52.7331 43.9724 52.2355 43.5263 51.6536 43.2175C51.0718 42.9088 50.4233 42.7468 49.7646 42.7457H47.6957C47.2886 42.7357 46.8888 42.8558 46.5546 43.0887C46.2204 43.3215 45.9692 43.6549 45.8375 44.0403L45.3048 45.6012C45.2068 45.8909 45.1796 46.1997 45.2255 46.502C45.2714 46.8042 45.3891 47.0911 45.5686 47.3386C45.7481 47.586 45.9843 47.7869 46.2574 47.9243C46.5305 48.0617 46.8325 48.1318 47.1383 48.1285Z" fill="#36AEB4"/>
</g>
<defs>
<clipPath id="clip0_6418_60340">
<rect width="100" height="100" fill="white"/>
</clipPath>
</defs>
</svg>
