<svg width="100" height="100" viewBox="0 0 100 100" fill="none" xmlns="http://www.w3.org/2000/svg">
<g clip-path="url(#clip0_6418_60131)">
<path d="M73.7054 73.6125H28.9086C28.286 73.6125 27.7812 74.1173 27.7812 74.7399C27.7812 75.3625 28.286 75.8673 28.9086 75.8673H73.7054C74.328 75.8673 74.8328 75.3625 74.8328 74.7399C74.8328 74.1173 74.328 73.6125 73.7054 73.6125Z" fill="#AEDFFF"/>
<path d="M66.0431 24.1328H44.2641C42.386 24.1328 40.8635 25.6553 40.8635 27.5335V71.333C40.8635 73.2111 42.386 74.7337 44.2641 74.7337H66.0431C67.9212 74.7337 69.4438 73.2111 69.4438 71.333V27.5335C69.4438 25.6553 67.9212 24.1328 66.0431 24.1328Z" fill="#0A6267"/>
<path d="M68.7934 24.1328H47.0144C45.1362 24.1328 43.6137 25.6553 43.6137 27.5335V71.333C43.6137 73.2111 45.1362 74.7337 47.0144 74.7337H68.7934C70.6715 74.7337 72.194 73.2111 72.194 71.333V27.5335C72.194 25.6553 70.6715 24.1328 68.7934 24.1328Z" fill="#36AEB4"/>
<path d="M54.6333 25.8733C54.8461 25.8718 55.0569 25.914 55.2527 25.9972L45.534 66.2784V28.1404C45.5138 27.5619 45.7233 26.9988 46.1167 26.5741C46.51 26.1494 47.0554 25.8975 47.6338 25.8733H54.6333Z" fill="#F6FFFF"/>
<path d="M67.8952 25.8733L56.5411 73.0053H47.6338C47.0543 72.9812 46.508 72.7284 46.1144 72.3023C45.7209 71.8763 45.5121 71.3117 45.5339 70.7321V66.2784L55.2341 26.0158C55.5553 26.1436 55.8194 26.3835 55.9775 26.6909C56.1482 27.0579 56.4202 27.3685 56.7615 27.5862C57.1027 27.8038 57.4991 27.9195 57.9039 27.9195C58.3086 27.9195 58.705 27.8038 59.0463 27.5862C59.3876 27.3685 59.6596 27.0579 59.8303 26.6909C59.9607 26.4469 60.1555 26.2433 60.3936 26.1024C60.6317 25.9615 60.904 25.8887 61.1806 25.8919L67.8952 25.8733Z" fill="#F6FFFF"/>
<path d="M70.28 28.1404V70.7321C70.3001 71.3122 70.09 71.8769 69.6955 72.3027C69.3009 72.7286 68.754 72.9812 68.1739 73.0053H56.5411L67.8952 25.8733H68.1739C68.7534 25.8959 69.3004 26.1471 69.6951 26.572C70.0898 26.9969 70.3001 27.5608 70.28 28.1404Z" fill="#F6FFFF"/>
<path d="M53.6298 37.0477H48.055C48.0138 37.0477 47.973 37.0559 47.935 37.0719C47.8971 37.0878 47.8626 37.1112 47.8338 37.1406C47.805 37.17 47.7823 37.2049 47.7671 37.2432C47.7519 37.2815 47.7445 37.3224 47.7453 37.3636V43.1119C47.7445 43.1534 47.7518 43.1946 47.767 43.2332C47.7821 43.2719 47.8047 43.3072 47.8334 43.3371C47.8622 43.367 47.8966 43.391 47.9346 43.4076C47.9726 43.4242 48.0135 43.4332 48.055 43.434H49.9133C49.9548 43.4332 49.9957 43.4242 50.0337 43.4076C50.0717 43.391 50.1061 43.367 50.1349 43.3371C50.1636 43.3072 50.1862 43.2719 50.2013 43.2332C50.2165 43.1946 50.2238 43.1534 50.223 43.1119V39.5873H53.6608C53.702 39.5874 53.7428 39.5791 53.7808 39.5632C53.8188 39.5472 53.8532 39.5239 53.882 39.4945C53.9109 39.465 53.9336 39.4302 53.9487 39.3919C53.9639 39.3536 53.9713 39.3126 53.9705 39.2714V37.3636C53.9716 37.3197 53.9634 37.276 53.9463 37.2355C53.9292 37.195 53.9037 37.1586 53.8715 37.1288C53.8393 37.0989 53.8011 37.0762 53.7594 37.0622C53.7177 37.0482 53.6736 37.0433 53.6298 37.0477Z" fill="#36AEB4"/>
<path d="M67.7899 37.0479H62.1779C62.1367 37.0478 62.0959 37.0561 62.0579 37.072C62.02 37.088 61.9855 37.1113 61.9567 37.1407C61.9278 37.1702 61.9052 37.205 61.89 37.2433C61.8748 37.2816 61.8674 37.3226 61.8682 37.3638V39.2716C61.8674 39.3128 61.8748 39.3537 61.89 39.392C61.9052 39.4303 61.9278 39.4652 61.9567 39.4946C61.9855 39.524 62.02 39.5474 62.0579 39.5633C62.0959 39.5793 62.1367 39.5875 62.1779 39.5875H65.6219V43.112C65.6211 43.1535 65.6285 43.1948 65.6436 43.2334C65.6587 43.272 65.6813 43.3073 65.71 43.3372C65.7388 43.3671 65.7732 43.3911 65.8112 43.4077C65.8492 43.4243 65.8901 43.4333 65.9316 43.4341H67.7899C67.8314 43.4333 67.8723 43.4243 67.9103 43.4077C67.9484 43.3911 67.9827 43.3671 68.0115 43.3372C68.0402 43.3073 68.0628 43.272 68.078 43.2334C68.0931 43.1948 68.1004 43.1535 68.0996 43.112V37.3638C68.0996 37.281 68.0672 37.2016 68.0093 37.1425C67.9514 37.0835 67.8726 37.0495 67.7899 37.0479Z" fill="#36AEB4"/>
<path d="M67.7899 51.3628H65.9316C65.8901 51.3636 65.8492 51.3726 65.8112 51.3892C65.7732 51.4058 65.7388 51.4298 65.71 51.4597C65.6813 51.4896 65.6587 51.5249 65.6436 51.5635C65.6285 51.6022 65.6211 51.6434 65.6219 51.6849V55.2094H62.1779C62.1367 55.2094 62.0959 55.2176 62.0579 55.2336C62.02 55.2495 61.9855 55.2729 61.9567 55.3023C61.9278 55.3317 61.9052 55.3666 61.89 55.4049C61.8748 55.4432 61.8674 55.4841 61.8682 55.5253V57.4332C61.8674 57.4744 61.8748 57.5153 61.89 57.5536C61.9052 57.5919 61.9278 57.6268 61.9567 57.6562C61.9855 57.6856 62.02 57.709 62.0579 57.7249C62.0959 57.7409 62.1367 57.7491 62.1779 57.7491H67.7899C67.8726 57.7474 67.9514 57.7134 68.0093 57.6544C68.0672 57.5953 68.0996 57.5159 68.0996 57.4332V51.6849C68.1004 51.6434 68.0931 51.6022 68.078 51.5635C68.0628 51.5249 68.0402 51.4896 68.0115 51.4597C67.9827 51.4298 67.9484 51.4058 67.9103 51.3892C67.8723 51.3726 67.8314 51.3636 67.7899 51.3628Z" fill="#36AEB4"/>
<path d="M53.6298 55.2094H50.1734V51.6849C50.1743 51.6434 50.1669 51.6022 50.1518 51.5635C50.1367 51.5249 50.1141 51.4896 50.0853 51.4597C50.0566 51.4298 50.0222 51.4058 49.9842 51.3892C49.9461 51.3726 49.9052 51.3636 49.8637 51.3628H48.0055C47.964 51.3636 47.923 51.3726 47.885 51.3892C47.847 51.4058 47.8126 51.4298 47.7839 51.4597C47.7551 51.4896 47.7325 51.5249 47.7174 51.5635C47.7023 51.6022 47.6949 51.6434 47.6957 51.6849V57.4332C47.6949 57.4744 47.7023 57.5153 47.7175 57.5536C47.7327 57.5919 47.7554 57.6268 47.7842 57.6562C47.8131 57.6856 47.8475 57.709 47.8855 57.7249C47.9235 57.7409 47.9643 57.7491 48.0055 57.7491H53.5803C53.6215 57.7491 53.6623 57.7409 53.7003 57.7249C53.7382 57.709 53.7727 57.6856 53.8015 57.6562C53.8303 57.6268 53.853 57.5919 53.8682 57.5536C53.8834 57.5153 53.8908 57.4744 53.89 57.4332V55.5253C53.8925 55.45 53.8674 55.3764 53.8195 55.3183C53.7716 55.2601 53.7042 55.2214 53.6298 55.2094Z" fill="#36AEB4"/>
<path d="M46.9958 59.1427L37.7044 74.9133C37.7044 74.9566 37.6549 74.9876 37.6301 75.0248L37.5496 75.1177C37.4586 75.2093 37.347 75.2779 37.2242 75.3178C37.1014 75.3576 36.9709 75.3676 36.8434 75.3469C36.7629 75.3469 34.5453 75.3469 34.4648 75.3469C34.3266 75.3679 34.1854 75.3561 34.0525 75.3125C33.9197 75.2688 33.799 75.1946 33.7001 75.0957C33.6012 74.9969 33.527 74.8761 33.4834 74.7433C33.4397 74.6105 33.428 74.4692 33.449 74.331L34.4215 67.6226L37.1655 66.328L37.4752 64.2158C37.4992 64.0535 37.488 63.8879 37.4424 63.7302C37.3968 63.5726 37.3179 63.4266 37.211 63.3021C37.1042 63.1776 36.9718 63.0775 36.8229 63.0086C36.6739 62.9396 36.512 62.9035 36.3479 62.9026H26.307C26.141 62.9014 25.9772 62.8641 25.827 62.7933C25.6769 62.7225 25.5439 62.62 25.4372 62.4927C25.3306 62.3655 25.2529 62.2166 25.2095 62.0563C25.1661 61.8961 25.158 61.7283 25.1858 61.5647L28.6484 45.1437C28.7503 44.6617 29.0143 44.2291 29.3964 43.918C29.7785 43.607 30.2556 43.4362 30.7483 43.4341H41.2227C41.469 43.4357 41.7115 43.4945 41.9312 43.6057C42.151 43.7169 42.3419 43.8776 42.489 44.0752C42.6361 44.2727 42.7353 44.5016 42.7789 44.744C42.8225 44.9864 42.8093 45.2356 42.7403 45.472L39.7733 55.8907C39.723 56.0647 39.7133 56.2479 39.745 56.4262C39.7766 56.6045 39.8488 56.7731 39.9559 56.9192C40.063 57.0652 40.2022 57.1846 40.3628 57.2684C40.5234 57.3521 40.701 57.3979 40.8821 57.4021H46.0047C46.2082 57.402 46.4081 57.4558 46.5841 57.5581C46.76 57.6603 46.9058 57.8073 47.0065 57.9842C47.1072 58.161 47.1592 58.3614 47.1573 58.5649C47.1555 58.7684 47.0997 58.9677 46.9958 59.1427Z" fill="#FFAE10"/>
<path d="M46.9958 59.1427L37.7044 74.9133C37.7044 74.9566 37.6549 74.9876 37.6301 75.0248L37.5496 75.1177C37.4586 75.2093 37.3471 75.2779 37.2242 75.3178C37.1014 75.3576 36.9709 75.3676 36.8434 75.3469C36.7217 75.338 36.603 75.304 36.495 75.2472C36.387 75.1903 36.2919 75.1116 36.2157 75.0163C36.1395 74.9209 36.0839 74.8108 36.0522 74.6928C36.0206 74.5749 36.0137 74.4517 36.032 74.331L37.1655 66.328L37.4752 64.2158C37.4992 64.0535 37.488 63.8879 37.4424 63.7302C37.3968 63.5726 37.3179 63.4266 37.211 63.3021C37.1042 63.1776 36.9718 63.0775 36.8229 63.0086C36.6739 62.9396 36.512 62.9035 36.3479 62.9026H28.9148C28.7488 62.9014 28.585 62.8641 28.4348 62.7933C28.2846 62.7225 28.1516 62.62 28.045 62.4927C27.9384 62.3655 27.8607 62.2166 27.8173 62.0563C27.7739 61.8961 27.7658 61.7283 27.7936 61.5647L31.2562 45.1437C31.3581 44.6617 31.6221 44.2291 32.0042 43.918C32.3863 43.607 32.8634 43.4362 33.3561 43.4341H41.2228C41.469 43.4357 41.7115 43.4945 41.9313 43.6057C42.151 43.7169 42.3419 43.8776 42.489 44.0752C42.6361 44.2727 42.7353 44.5016 42.7789 44.744C42.8226 44.9864 42.8093 45.2356 42.7403 45.472L39.7733 55.8907C39.723 56.0647 39.7133 56.2479 39.745 56.4262C39.7766 56.6045 39.8488 56.7731 39.9559 56.9192C40.063 57.0652 40.2022 57.1846 40.3628 57.2684C40.5234 57.3521 40.701 57.3979 40.8821 57.4021H46.0047C46.2082 57.402 46.4081 57.4558 46.5841 57.5581C46.76 57.6603 46.9058 57.8073 47.0065 57.9842C47.1072 58.161 47.1592 58.3614 47.1574 58.5649C47.1555 58.7684 47.0997 58.9677 46.9958 59.1427Z" fill="#F5E66C"/>
<path d="M37.5 64.2158L37.1903 66.328L34.3905 67.6164L34.886 64.2158C34.91 64.0534 34.8988 63.8878 34.8532 63.7302C34.8076 63.5726 34.7287 63.4266 34.6218 63.3021C34.515 63.1776 34.3826 63.0775 34.2337 63.0085C34.0847 62.9396 33.9228 62.9035 33.7587 62.9026H36.3726C36.5367 62.9035 36.6987 62.9396 36.8476 63.0085C36.9965 63.0775 37.1289 63.1776 37.2358 63.3021C37.3427 63.4266 37.4216 63.5726 37.4672 63.7302C37.5128 63.8878 37.5239 64.0534 37.5 64.2158Z" fill="#E4800C"/>
<path d="M61.5151 48.3151L58.2817 53.766V53.8032C58.2514 53.8357 58.2134 53.8601 58.1712 53.8742C58.129 53.8883 58.0839 53.8916 58.0401 53.8837C57.998 53.881 57.957 53.8693 57.9198 53.8495C57.8825 53.8296 57.8499 53.8021 57.8242 53.7687C57.7984 53.7353 57.78 53.6968 57.7703 53.6558C57.7605 53.6147 57.7596 53.5721 57.7676 53.5307L58.1083 50.7928L58.226 50.0557C58.2339 49.9994 58.2297 49.942 58.2138 49.8874C58.198 49.8328 58.1707 49.7822 58.1338 49.7388C58.0969 49.6955 58.0513 49.6605 57.9999 49.6361C57.9486 49.6118 57.8926 49.5985 57.8357 49.5973H55.2403C55.1825 49.5973 55.1254 49.5846 55.0731 49.5602C55.0207 49.5357 54.9743 49.5001 54.9371 49.4559C54.8999 49.4116 54.8729 49.3598 54.8578 49.3039C54.8428 49.2481 54.8402 49.1897 54.8501 49.1327L56.089 43.4402C56.1168 43.2679 56.205 43.111 56.3377 42.9976C56.4704 42.8841 56.6391 42.8215 56.8137 42.8208H59.5392C59.6246 42.8212 59.7087 42.8414 59.785 42.8799C59.8612 42.9184 59.9275 42.9741 59.9785 43.0426C60.0296 43.111 60.064 43.1904 60.0792 43.2745C60.0943 43.3585 60.0897 43.445 60.0657 43.5269L59.0374 47.1444C59.0202 47.205 59.0173 47.2687 59.0288 47.3305C59.0403 47.3924 59.0659 47.4508 59.1037 47.5012C59.1415 47.5515 59.1903 47.5925 59.2465 47.6209C59.3027 47.6492 59.3647 47.6642 59.4277 47.6647H61.2054C61.2802 47.6661 61.3531 47.6883 61.416 47.7289C61.4788 47.7694 61.5292 47.8266 61.5613 47.8942C61.5935 47.9617 61.6062 48.0368 61.598 48.1112C61.5899 48.1855 61.5612 48.2562 61.5151 48.3151Z" fill="#36AEB4"/>
</g>
<defs>
<clipPath id="clip0_6418_60131">
<rect width="100" height="100" fill="white"/>
</clipPath>
</defs>
</svg>
