<svg width="100" height="100" viewBox="0 0 100 100" fill="none" xmlns="http://www.w3.org/2000/svg">
<g clip-path="url(#clip0_6418_60478)">
<path d="M74.7275 73.6125H29.9306C29.308 73.6125 28.8033 74.1173 28.8033 74.7399C28.8033 75.3625 29.308 75.8673 29.9306 75.8673H74.7275C75.3501 75.8673 75.8548 75.3625 75.8548 74.7399C75.8548 74.1173 75.3501 73.6125 74.7275 73.6125Z" fill="#AEDFFF"/>
<path d="M67.0652 24.1328H45.2862C43.4081 24.1328 41.8856 25.6553 41.8856 27.5335V71.333C41.8856 73.2111 43.4081 74.7337 45.2862 74.7337H67.0652C68.9433 74.7337 70.4658 73.2111 70.4658 71.333V27.5335C70.4658 25.6553 68.9433 24.1328 67.0652 24.1328Z" fill="#0A6267"/>
<path d="M69.8154 24.1328H48.0365C46.1583 24.1328 44.6358 25.6553 44.6358 27.5335V71.333C44.6358 73.2111 46.1583 74.7337 48.0365 74.7337H69.8154C71.6936 74.7337 73.2161 73.2111 73.2161 71.333V27.5335C73.2161 25.6553 71.6936 24.1328 69.8154 24.1328Z" fill="#36AEB4"/>
<path d="M55.6554 25.8733C55.8681 25.8718 56.079 25.914 56.2748 25.9972L46.556 66.2784V28.1404C46.5359 27.5619 46.7454 26.9988 47.1387 26.5741C47.5321 26.1494 48.0775 25.8975 48.6559 25.8733H55.6554Z" fill="#F6FFFF"/>
<path d="M68.9172 25.8734L57.5632 73.0054H48.6558C48.0763 72.9813 47.53 72.7285 47.1365 72.3024C46.7429 71.8764 46.5342 71.3118 46.556 70.7322V66.2785L56.2562 26.0159C56.5697 26.1416 56.8286 26.3742 56.9871 26.6724C57.1578 27.0395 57.4298 27.3501 57.7711 27.5677C58.1124 27.7854 58.5088 27.901 58.9135 27.901C59.3183 27.901 59.7147 27.7854 60.0559 27.5677C60.3972 27.3501 60.6692 27.0395 60.8399 26.6724C60.9703 26.4284 61.1652 26.2249 61.4033 26.084C61.6414 25.9431 61.9136 25.8702 62.1903 25.8734H68.9172Z" fill="#F6FFFF"/>
<path d="M71.302 28.1404V70.7321C71.3221 71.3122 71.112 71.8769 70.7175 72.3027C70.3229 72.7286 69.776 72.9812 69.196 73.0053H57.5632L68.9172 25.8733H69.196C69.7755 25.8959 70.3224 26.1471 70.7171 26.572C71.1118 26.9969 71.3221 27.5608 71.302 28.1404Z" fill="#F6FFFF"/>
<path d="M62.562 48.3153L59.3038 53.7662C59.302 53.7785 59.302 53.791 59.3038 53.8034C59.2725 53.8364 59.2334 53.8611 59.1901 53.8751C59.1469 53.8892 59.1008 53.8922 59.056 53.8839C59.0145 53.8803 58.9741 53.868 58.9376 53.8478C58.9011 53.8277 58.8693 53.8 58.8441 53.7667C58.819 53.7334 58.8012 53.6952 58.7918 53.6546C58.7824 53.6139 58.7817 53.5718 58.7897 53.5308L59.1303 50.793L59.2356 50.062C59.2446 50.0055 59.2412 49.9478 59.2257 49.8928C59.2102 49.8377 59.183 49.7867 59.1459 49.7431C59.1089 49.6996 59.0628 49.6646 59.0109 49.6405C58.9591 49.6164 58.9026 49.6039 58.8454 49.6037H56.2624C56.2046 49.6036 56.1475 49.5909 56.0951 49.5665C56.0427 49.5421 55.9963 49.5065 55.9592 49.4622C55.922 49.418 55.8949 49.3661 55.8799 49.3103C55.8649 49.2545 55.8622 49.196 55.8722 49.1391L57.0739 43.4466C57.1042 43.2742 57.1939 43.118 57.3274 43.0048C57.4609 42.8917 57.6298 42.8288 57.8048 42.8271H60.5303C60.6157 42.8275 60.6998 42.8478 60.7761 42.8863C60.8523 42.9248 60.9186 42.9804 60.9696 43.0489C61.0207 43.1174 61.0551 43.1968 61.0703 43.2808C61.0854 43.3649 61.0808 43.4513 61.0568 43.5333L60.0285 47.1507C60.0113 47.2113 60.0084 47.275 60.0199 47.3369C60.0314 47.3988 60.057 47.4572 60.0948 47.5075C60.1325 47.5579 60.1814 47.5988 60.2376 47.6272C60.2938 47.6556 60.3558 47.6706 60.4188 47.6711H62.1965C62.2749 47.6622 62.3542 47.6765 62.4245 47.7123C62.4948 47.7481 62.5531 47.8038 62.592 47.8725C62.6309 47.9411 62.6488 48.0196 62.6435 48.0984C62.6382 48.1771 62.6098 48.2525 62.562 48.3153Z" fill="#36AEB4"/>
<path d="M34.5 47.2611C41.8115 47.2613 47.7389 53.1885 47.7389 60.5C47.7389 67.8115 41.8115 73.7387 34.5 73.7389C27.1884 73.7389 21.2611 67.8116 21.2611 60.5C21.2611 53.1884 27.1884 47.2611 34.5 47.2611Z" fill="#FFAE10"/>
<path d="M47.7389 60.5C47.7389 53.1885 41.8115 47.2613 34.5 47.2611C27.1884 47.2611 21.2611 53.1884 21.2611 60.5C21.2611 67.8116 27.1884 73.7389 34.5 73.7389C41.8115 73.7387 47.7389 67.8115 47.7389 60.5ZM49 60.5C49 68.5079 42.5077 74.9998 34.5 75C26.492 75 20 68.508 20 60.5C20 52.492 26.492 46 34.5 46C42.5077 46.0002 49 52.4921 49 60.5Z" fill="#FFAE10"/>
<path d="M36.5 47C40.2125 47 43.385 48.35 46.0175 50.9825C48.65 53.615 50 56.7875 50 60.5C50 64.2125 48.65 67.385 46.0175 70.0175C43.385 72.65 40.2125 74 36.5 74C32.7875 74 29.615 72.65 26.9825 70.0175C24.35 67.385 23 64.2125 23 60.5C23 56.7875 24.35 53.615 26.9825 50.9825C29.615 48.35 32.7875 47 36.5 47Z" fill="#F5E66C"/>
<path d="M50 60.5C50 56.9035 48.7333 53.8134 46.2607 51.2305L46.0176 50.9824C43.3851 48.3499 40.2125 47 36.5 47C32.7875 47 29.6149 48.3499 26.9824 50.9824C24.3499 53.6149 23 56.7875 23 60.5C23 64.2125 24.3499 67.3851 26.9824 70.0176C29.6149 72.6501 32.7875 74 36.5 74C40.0965 74 43.1866 72.7333 45.7695 70.2607L46.0176 70.0176C48.6501 67.3851 50 64.2125 50 60.5ZM51 60.5C51 64.485 49.5394 67.9098 46.7246 70.7246C43.9098 73.5394 40.485 75 36.5 75C32.515 75 29.0902 73.5394 26.2754 70.7246C23.4606 67.9098 22 64.485 22 60.5C22 56.515 23.4606 53.0902 26.2754 50.2754C29.0902 47.4606 32.515 46 36.5 46C40.485 46 43.9098 47.4606 46.7246 50.2754C49.5394 53.0902 51 56.515 51 60.5Z" fill="#F5E66C"/>
<path d="M29 63.8V54H30.82V63.8H29ZM29.924 60.076V58.382H32.976C33.4613 58.382 33.8347 58.2653 34.096 58.032C34.3573 57.7893 34.488 57.458 34.488 57.038H36.378C36.378 57.962 36.0887 58.6993 35.51 59.25C34.9407 59.8007 34.1567 60.076 33.158 60.076H29.924ZM34.488 57.038C34.488 56.618 34.3573 56.2913 34.096 56.058C33.8347 55.8153 33.4613 55.694 32.976 55.694H29.924V54H33.158C34.1567 54 34.9407 54.2753 35.51 54.826C36.0887 55.3767 36.378 56.114 36.378 57.038H34.488ZM34.348 63.8L32.192 59.544L34.026 59.096L36.378 63.688V63.8H34.348Z" fill="#E4800C"/>
<path d="M41.6973 64.024C41.156 64.024 40.6753 63.912 40.2553 63.688C39.8353 63.464 39.49 63.1793 39.2193 62.834C38.958 62.4887 38.776 62.134 38.6733 61.77V58.69C38.776 58.326 38.958 57.976 39.2193 57.64C39.49 57.2947 39.8353 57.0147 40.2553 56.8C40.6753 56.576 41.156 56.464 41.6973 56.464C42.3507 56.464 42.934 56.6273 43.4473 56.954C43.97 57.2713 44.3807 57.7147 44.6793 58.284C44.9873 58.844 45.1413 59.4927 45.1413 60.23C45.1413 60.9673 44.9873 61.6253 44.6793 62.204C44.3807 62.7733 43.97 63.2213 43.4473 63.548C42.934 63.8653 42.3507 64.024 41.6973 64.024ZM37.6373 66.6V56.688H39.3873V58.662L38.9673 60.244L39.5273 61.826V66.6H37.6373ZM41.3613 62.344C41.744 62.344 42.0753 62.2553 42.3553 62.078C42.6353 61.9007 42.8547 61.6533 43.0133 61.336C43.172 61.0187 43.2513 60.6547 43.2513 60.244C43.2513 59.824 43.172 59.46 43.0133 59.152C42.8547 58.8347 42.6353 58.5873 42.3553 58.41C42.0753 58.2327 41.744 58.144 41.3613 58.144C40.988 58.144 40.6567 58.2327 40.3673 58.41C40.0873 58.5873 39.868 58.8347 39.7093 59.152C39.5507 59.46 39.4713 59.824 39.4713 60.244C39.4713 60.6547 39.5507 61.0187 39.7093 61.336C39.868 61.6533 40.0873 61.9007 40.3673 62.078C40.6567 62.2553 40.988 62.344 41.3613 62.344Z" fill="#E4800C"/>
</g>
<defs>
<clipPath id="clip0_6418_60478">
<rect width="100" height="100" fill="white"/>
</clipPath>
</defs>
</svg>
