<svg width="100" height="100" viewBox="0 0 100 100" fill="none" xmlns="http://www.w3.org/2000/svg">
<g clip-path="url(#clip0_6418_60292)">
<path d="M64.7299 73.3895H24.1576C23.8776 73.3704 23.6165 73.241 23.4319 73.0296C23.2472 72.8182 23.154 72.5422 23.1727 72.2621C23.1557 71.9825 23.2495 71.7073 23.4338 71.4963C23.6181 71.2853 23.8782 71.1554 24.1576 71.1348H64.7299C65.0094 71.1554 65.2694 71.2853 65.4537 71.4963C65.6381 71.7073 65.7319 71.9825 65.7148 72.2621C65.7335 72.5422 65.6403 72.8182 65.4557 73.0296C65.271 73.241 65.01 73.3704 64.7299 73.3895Z" fill="#BAE3E5"/>
<path d="M74.1638 36.9424H70.6455C70.3169 36.9424 70.0018 36.8119 69.7695 36.5796C69.5371 36.3472 69.4066 36.0321 69.4066 35.7036V29.0633C69.4066 28.7347 69.5371 28.4196 69.7695 28.1873C70.0018 27.955 70.3169 27.8245 70.6455 27.8245C70.974 27.8245 71.2891 27.955 71.5215 28.1873C71.7538 28.4196 71.8843 28.7347 71.8843 29.0633V34.4647H72.925V29.0633C72.925 28.7347 73.0555 28.4196 73.2878 28.1873C73.5201 27.955 73.8352 27.8245 74.1638 27.8245C74.4924 27.8245 74.8075 27.955 75.0398 28.1873C75.2721 28.4196 75.4027 28.7347 75.4027 29.0633V35.7036C75.4027 35.8662 75.3706 36.0273 75.3083 36.1776C75.2461 36.3279 75.1548 36.4645 75.0398 36.5796C74.9248 36.6946 74.7882 36.7858 74.6379 36.8481C74.4876 36.9104 74.3265 36.9424 74.1638 36.9424Z" fill="#1A8086"/>
<path d="M68.6013 68.2793C67.2871 68.2793 66.0267 67.7572 65.0973 66.8279C64.168 65.8986 63.6459 64.6381 63.6459 63.3239V56.8013C63.6459 56.1442 63.3849 55.514 62.9202 55.0493C62.4556 54.5847 61.8254 54.3236 61.1682 54.3236H59.0994V51.8459H61.1373C62.4515 51.8459 63.712 52.368 64.6413 53.2973C65.5706 54.2267 66.0927 55.4871 66.0927 56.8013V63.3053C66.0927 63.9624 66.3537 64.5926 66.8184 65.0573C67.283 65.522 67.9132 65.783 68.5704 65.783C69.2275 65.783 69.8577 65.522 70.3224 65.0573C70.787 64.5926 71.0481 63.9624 71.0481 63.3053V36.5461H73.5258V63.3053C73.5307 64.6174 73.0151 65.8779 72.0919 66.8104C71.1687 67.7428 69.9135 68.2711 68.6013 68.2793Z" fill="#1A8086"/>
<path d="M52.1866 26.6106H30.6368C29.0871 26.6106 27.8308 27.8669 27.8308 29.4166V68.1369C27.8308 69.6866 29.0871 70.9429 30.6368 70.9429H52.1866C53.7363 70.9429 54.9926 69.6866 54.9926 68.1369V29.4166C54.9926 27.8669 53.7363 26.6106 52.1866 26.6106Z" fill="#0A6267"/>
<path d="M58.5543 26.6106H37.0045C35.4548 26.6106 34.1985 27.8669 34.1985 29.4166V68.1369C34.1985 69.6866 35.4548 70.9429 37.0045 70.9429H58.5543C60.104 70.9429 61.3603 69.6866 61.3603 68.1369V29.4166C61.3603 27.8669 60.104 26.6106 58.5543 26.6106Z" fill="#36AEB4"/>
<path d="M58.5852 68.4216H26.3565C25.3953 68.4216 24.616 69.2009 24.616 70.1622C24.616 71.1235 25.3953 71.9028 26.3565 71.9028H58.5852C59.5465 71.9028 60.3258 71.1235 60.3258 70.1622C60.3258 69.2009 59.5465 68.4216 58.5852 68.4216Z" fill="#0A3D5D"/>
<path d="M62.277 68.4216H33.8268C32.8723 68.4216 32.0986 69.1954 32.0986 70.1498V70.1746C32.0986 71.1291 32.8723 71.9028 33.8268 71.9028H62.277C63.2315 71.9028 64.0052 71.1291 64.0052 70.1746V70.1498C64.0052 69.1954 63.2315 68.4216 62.277 68.4216Z" fill="#1A8086"/>
<path d="M57.142 30.3271H38.9619C38.1169 30.3271 37.4319 31.0121 37.4319 31.8571V45.6517C37.4319 46.4967 38.1169 47.1817 38.9619 47.1817H57.142C57.987 47.1817 58.672 46.4967 58.672 45.6517V31.8571C58.672 31.0121 57.987 30.3271 57.142 30.3271Z" fill="#D0FDFF"/>
<path d="M55.358 42.4368H40.752C40.3825 42.4368 40.083 42.7363 40.083 43.1057V44.6853C40.083 45.0547 40.3825 45.3543 40.752 45.3543H55.358C55.7275 45.3543 56.027 45.0547 56.027 44.6853V43.1057C56.027 42.7363 55.7275 42.4368 55.358 42.4368Z" fill="#88EAEF"/>
<path d="M57.2349 48.7734H55.3147C54.521 48.7734 53.8776 49.4168 53.8776 50.2105V52.1307C53.8776 52.9244 54.521 53.5678 55.3147 53.5678H57.2349C58.0286 53.5678 58.672 52.9244 58.672 52.1307V50.2105C58.672 49.4168 58.0286 48.7734 57.2349 48.7734Z" fill="#1A8086"/>
<path d="M53.0166 58.1578L48.5134 65.7705L48.4762 65.8262L48.439 65.8696C48.3947 65.9132 48.3409 65.946 48.2818 65.9654C48.2227 65.9847 48.1599 65.9901 48.0983 65.9811C48.0612 65.9811 46.9896 65.9811 46.9524 65.9811C46.8849 65.9917 46.8159 65.9862 46.7509 65.965C46.686 65.9438 46.6269 65.9076 46.5786 65.8593C46.5303 65.811 46.4941 65.752 46.473 65.687C46.4518 65.6221 46.4463 65.553 46.4569 65.4856L46.9214 62.246L48.278 61.6265L48.4266 60.6045C48.4363 60.5271 48.4294 60.4485 48.4064 60.374C48.3835 60.2995 48.345 60.2307 48.2934 60.1721C48.2419 60.1136 48.1786 60.0667 48.1076 60.0344C48.0366 60.0022 47.9595 59.9853 47.8815 59.9851H43.0191C42.9419 59.983 42.866 59.9649 42.7962 59.9319C42.7264 59.899 42.6642 59.8519 42.6136 59.7937C42.5629 59.7355 42.5249 59.6674 42.5019 59.5937C42.479 59.52 42.4716 59.4423 42.4802 59.3656L44.1526 51.4122C44.202 51.1805 44.3289 50.9725 44.5125 50.8227C44.6961 50.6729 44.9253 50.5902 45.1623 50.5884H50.223C50.3419 50.5893 50.4589 50.6178 50.5649 50.6717C50.6709 50.7255 50.763 50.8032 50.8338 50.8987C50.9047 50.9942 50.9524 51.1048 50.9732 51.2219C50.9941 51.3389 50.9875 51.4592 50.9539 51.5733L49.554 56.5844C49.5303 56.6692 49.5264 56.7583 49.5425 56.8449C49.5586 56.9314 49.5944 57.0132 49.647 57.0837C49.6997 57.1543 49.7678 57.2119 49.8462 57.252C49.9245 57.2922 50.011 57.3138 50.0991 57.3153H52.5768C52.6719 57.3219 52.7637 57.3528 52.8435 57.405C52.9232 57.4572 52.9883 57.529 53.0324 57.6135C53.0765 57.698 53.0982 57.7924 53.0955 57.8877C53.0927 57.983 53.0655 58.076 53.0166 58.1578Z" fill="#FFAE10"/>
<path d="M53.0166 58.1578L48.5134 65.7706L48.4762 65.8263L48.4391 65.8697C48.3948 65.9133 48.3409 65.9461 48.2818 65.9654C48.2227 65.9848 48.1599 65.9901 48.0984 65.9812C48.0399 65.9761 47.9832 65.9588 47.9318 65.9306C47.8804 65.9023 47.8355 65.8636 47.7999 65.8169C47.7643 65.7703 47.7389 65.7167 47.7252 65.6597C47.7116 65.6026 47.71 65.5433 47.7205 65.4856L48.278 61.6266L48.4267 60.6045C48.4363 60.5272 48.4294 60.4486 48.4065 60.3741C48.3835 60.2996 48.345 60.2308 48.2935 60.1722C48.242 60.1137 48.1786 60.0667 48.1076 60.0345C48.0366 60.0022 47.9596 59.9854 47.8816 59.9851H44.2827C44.2056 59.983 44.1297 59.9649 44.0599 59.932C43.9901 59.8991 43.9279 59.852 43.8772 59.7938C43.8266 59.7355 43.7886 59.6674 43.7656 59.5937C43.7426 59.52 43.7352 59.4424 43.7438 59.3657L45.4163 51.4123C45.4617 51.1713 45.5913 50.9543 45.7819 50.8C45.9725 50.6457 46.2117 50.5641 46.4569 50.5699H50.254C50.3729 50.5708 50.4899 50.5993 50.5959 50.6531C50.7019 50.707 50.794 50.7847 50.8648 50.8802C50.9357 50.9757 50.9834 51.0863 51.0043 51.2033C51.0251 51.3204 51.0185 51.4407 50.9849 51.5547L49.554 56.5845C49.5304 56.6693 49.5264 56.7584 49.5426 56.845C49.5587 56.9315 49.5944 57.0132 49.6471 57.0838C49.6997 57.1544 49.7678 57.212 49.8462 57.2521C49.9246 57.2923 50.0111 57.3139 50.0991 57.3154H52.5768C52.6719 57.322 52.7637 57.3529 52.8435 57.4051C52.9233 57.4573 52.9883 57.529 53.0324 57.6135C53.0766 57.6981 53.0983 57.7925 53.0955 57.8877C53.0927 57.983 53.0656 58.076 53.0166 58.1578Z" fill="#F5E66C"/>
<path d="M48.4266 60.6045L48.278 61.6266L46.9214 62.246L47.163 60.6045C47.1727 60.5271 47.1658 60.4486 47.1428 60.3741C47.1198 60.2995 47.0813 60.2307 47.0298 60.1722C46.9783 60.1136 46.9149 60.0667 46.8439 60.0344C46.7729 60.0022 46.6959 59.9854 46.6179 59.9851H47.8568C47.9368 59.9818 48.0166 59.9959 48.0906 60.0266C48.1647 60.0573 48.2311 60.1037 48.2853 60.1627C48.3396 60.2216 48.3803 60.2917 48.4047 60.368C48.4291 60.4443 48.4366 60.525 48.4266 60.6045Z" fill="#E4800C"/>
<path d="M69.2951 32.9473H75.3779C75.7672 32.9473 76.1406 33.1019 76.4159 33.3772C76.6912 33.6526 76.8459 34.026 76.8459 34.4153V35.5984C76.8459 36.796 76.3702 37.9446 75.5233 38.7914C74.6765 39.6383 73.5279 40.114 72.3303 40.114C71.1327 40.114 69.9841 39.6383 69.1373 38.7914C68.2904 37.9446 67.8147 36.796 67.8147 35.5984V34.4153C67.8147 34.026 67.9694 33.6526 68.2447 33.3772C68.52 33.1019 68.8934 32.9473 69.2827 32.9473H69.2951Z" fill="#36AEB4"/>
</g>
<defs>
<clipPath id="clip0_6418_60292">
<rect width="100" height="100" fill="white"/>
</clipPath>
</defs>
</svg>
