<svg width="100" height="100" viewBox="0 0 100 100" fill="none" xmlns="http://www.w3.org/2000/svg">
<g clip-path="url(#clip0_6418_60524)">
<path d="M72.1817 61.4904C71.8531 61.4904 71.538 61.6209 71.3057 61.8533C71.0733 62.0856 70.9428 62.4007 70.9428 62.7293V64.6433C70.9412 65.7517 70.5001 66.8142 69.7164 67.598C68.9326 68.3817 67.8701 68.8228 66.7617 68.8244H57.4208V67.7156C57.4216 67.6437 57.409 67.5723 57.3836 67.505H57.4827V67.0467H56.7704C56.6841 67.0411 56.5977 67.0537 56.5166 67.0836C56.4356 67.1135 56.3616 67.16 56.2996 67.2201L53.8219 69.5677C53.7549 69.6298 53.7015 69.705 53.6649 69.7887C53.6284 69.8723 53.6095 69.9627 53.6095 70.054C53.6095 70.1453 53.6284 70.2356 53.6649 70.3193C53.7015 70.403 53.7549 70.4782 53.8219 70.5402L56.2996 72.894C56.3636 72.9531 56.4388 72.9989 56.5206 73.0287C56.6025 73.0585 56.6895 73.0717 56.7766 73.0675H57.396V72.5905C57.406 72.5269 57.406 72.4621 57.396 72.3985V71.2897H66.7369C68.5019 71.2864 70.1937 70.5838 71.4418 69.3358C72.6899 68.0877 73.3925 66.3959 73.3957 64.6309L72.8197 61.478L72.1817 61.4904Z" fill="#FFAE10"/>
<path d="M48.978 27.6635L46.7356 25.5637V25.1363H46.0109C45.9242 25.1354 45.8381 25.1518 45.7578 25.1844C45.6774 25.2171 45.6043 25.2653 45.5426 25.3264C45.481 25.3874 45.4321 25.4601 45.3987 25.5401C45.3653 25.6202 45.3481 25.7061 45.3481 25.7928V26.9078H36.0072C34.2411 26.9111 32.5484 27.6145 31.3001 28.8639C30.0519 30.1133 29.35 31.8067 29.3484 33.5728V35.4807C29.3484 35.8092 29.4789 36.1243 29.7112 36.3567C29.9436 36.589 30.2587 36.7195 30.5872 36.7195H31.2748L31.8261 33.5728C31.8261 32.4639 32.2666 31.4004 33.0507 30.6163C33.8348 29.8322 34.8983 29.3917 36.0072 29.3917H45.3481V30.5005C45.3481 30.5872 45.3653 30.6731 45.3987 30.7532C45.4321 30.8333 45.481 30.9059 45.5426 30.967C45.6043 31.028 45.6774 31.0763 45.7578 31.1089C45.8381 31.1415 45.9242 31.1579 46.0109 31.1571H46.7356V30.7854H46.6799L48.978 28.636C49.0441 28.5735 49.0969 28.4981 49.1329 28.4145C49.1689 28.3309 49.1875 28.2408 49.1875 28.1498C49.1875 28.0587 49.1689 27.9686 49.1329 27.885C49.0969 27.8014 49.0441 27.726 48.978 27.6635Z" fill="#FFAE10"/>
<path d="M75.3903 74.8699H24.3187C24.0042 74.8834 23.6972 74.7716 23.465 74.5591C23.2328 74.3466 23.0943 74.0508 23.0798 73.7364C23.0959 73.423 23.2351 73.1288 23.4671 72.9176C23.6992 72.7064 24.0052 72.5955 24.3187 72.609H75.3903C75.7037 72.5955 76.0098 72.7064 76.2418 72.9176C76.4739 73.1288 76.6131 73.423 76.6291 73.7364C76.6147 74.0508 76.4762 74.3466 76.2439 74.5591C76.0117 74.7716 75.7048 74.8834 75.3903 74.8699Z" fill="#AEDFFF"/>
<path d="M67.4244 71.3019H56.1633C55.8347 71.3019 55.5196 71.1714 55.2873 70.9391C55.055 70.7068 54.9244 70.3916 54.9244 70.0631C54.9244 69.7345 55.055 69.4194 55.2873 69.1871C55.5196 68.9548 55.8347 68.8242 56.1633 68.8242H67.4244C68.5328 68.8226 69.5954 68.3816 70.3791 67.5978C71.1629 66.814 71.6039 65.7515 71.6056 64.6431V62.7291C71.6056 62.4005 71.7361 62.0854 71.9684 61.8531C72.2007 61.6208 72.5158 61.4902 72.8444 61.4902C73.173 61.4902 73.4881 61.6208 73.7204 61.8531C73.9527 62.0854 74.0833 62.4005 74.0833 62.7291V64.6431C74.08 66.4081 73.3774 68.0999 72.1293 69.348C70.8813 70.5961 69.1895 71.2987 67.4244 71.3019Z" fill="#F5E66C"/>
<path d="M54.4537 70.5464L56.9314 72.9002C57.0268 72.9878 57.1457 73.0457 57.2734 73.067C57.4012 73.0884 57.5324 73.0721 57.6512 73.0203C57.7699 72.9685 57.871 72.8833 57.9423 72.7751C58.0135 72.6669 58.0518 72.5404 58.0525 72.4109V67.7156C58.0518 67.5861 58.0135 67.4595 57.9423 67.3513C57.871 67.2431 57.7699 67.158 57.6512 67.1061C57.5324 67.0543 57.4012 67.0381 57.2734 67.0594C57.1457 67.0807 57.0268 67.1387 56.9314 67.2263L54.4537 69.5739C54.3875 69.6364 54.3348 69.7118 54.2988 69.7954C54.2627 69.879 54.2441 69.9691 54.2441 70.0601C54.2441 70.1512 54.2627 70.2413 54.2988 70.3249C54.3348 70.4085 54.3875 70.4839 54.4537 70.5464Z" fill="#F5E66C"/>
<path d="M31.25 36.7196C30.9214 36.7196 30.6063 36.589 30.374 36.3567C30.1416 36.1244 30.0111 35.8093 30.0111 35.4807V33.5729C30.0144 31.8079 30.717 30.1161 31.965 28.868C33.2131 27.6199 34.9049 26.9173 36.6699 26.9141H47.9311C48.2596 26.9141 48.5747 27.0446 48.8071 27.2769C49.0394 27.5092 49.1699 27.8243 49.1699 28.1529C49.1699 28.4815 49.0394 28.7966 48.8071 29.0289C48.5747 29.2612 48.2596 29.3918 47.9311 29.3918H36.6699C35.561 29.3918 34.4975 29.8323 33.7134 30.6164C32.9293 31.4005 32.4888 32.464 32.4888 33.5729V35.4807C32.4888 35.8093 32.3583 36.1244 32.126 36.3567C31.8936 36.589 31.5785 36.7196 31.25 36.7196Z" fill="#F5E66C"/>
<path d="M49.6407 27.6635L47.163 25.3159C47.069 25.2258 46.9505 25.1655 46.8223 25.1424C46.6941 25.1192 46.562 25.1344 46.4424 25.1859C46.3227 25.2375 46.221 25.3231 46.1498 25.4322C46.0785 25.5412 46.041 25.6688 46.0419 25.7991V30.5005C46.041 30.6307 46.0785 30.7583 46.1498 30.8674C46.221 30.9764 46.3227 31.0621 46.4424 31.1136C46.562 31.1652 46.6941 31.1803 46.8223 31.1572C46.9505 31.1341 47.069 31.0737 47.163 30.9837L49.6407 28.636C49.7077 28.574 49.7612 28.4988 49.7977 28.4151C49.8343 28.3314 49.8531 28.2411 49.8531 28.1498C49.8531 28.0585 49.8343 27.9681 49.7977 27.8845C49.7612 27.8008 49.7077 27.7256 49.6407 27.6635Z" fill="#F5E66C"/>
<path d="M47.0763 50.6689V70.5772C47.0763 70.9674 46.9994 71.3537 46.8499 71.7141C46.7004 72.0744 46.4813 72.4018 46.2051 72.6774C45.9289 72.953 45.6011 73.1714 45.2404 73.3202C44.8797 73.4689 44.4932 73.5451 44.1031 73.5442H26.6972C26.3071 73.5451 25.9206 73.4689 25.5599 73.3202C25.1992 73.1714 24.8714 72.953 24.5952 72.6774C24.319 72.4018 24.0999 72.0744 23.9504 71.7141C23.8009 71.3537 23.724 70.9674 23.724 70.5772V44.6419C23.724 44.2517 23.8009 43.8654 23.9504 43.505C24.0999 43.1446 24.319 42.8172 24.5952 42.5416C24.8714 42.2661 25.1992 42.0476 25.5599 41.8989C25.9206 41.7501 26.3071 41.674 26.6972 41.6748H38.0637L47.0763 50.6689Z" fill="#0A6267"/>
<path d="M74.4487 35.9267V55.8164C74.4487 56.2066 74.3717 56.5929 74.2222 56.9533C74.0727 57.3137 73.8536 57.6411 73.5775 57.9167C73.3013 58.1923 72.9735 58.4107 72.6128 58.5594C72.2521 58.7082 71.8656 58.7843 71.4754 58.7835H54.0758C53.6856 58.7843 53.2991 58.7082 52.9384 58.5594C52.5777 58.4107 52.2499 58.1923 51.9738 57.9167C51.6976 57.6411 51.4785 57.3137 51.329 56.9533C51.1795 56.5929 51.1025 56.2066 51.1025 55.8164V29.8811C51.1025 29.491 51.1795 29.1046 51.329 28.7442C51.4785 28.3839 51.6976 28.0565 51.9738 27.7809C52.2499 27.5053 52.5777 27.2869 52.9384 27.1381C53.2991 26.9894 53.6856 26.9133 54.0758 26.9141H65.4422L74.4487 35.9267Z" fill="#0A6267"/>
<path d="M49.554 50.6689V70.5772C49.554 70.9674 49.477 71.3537 49.3275 71.7141C49.1781 72.0744 48.9589 72.4018 48.6828 72.6774C48.4066 72.953 48.0788 73.1714 47.7181 73.3202C47.3574 73.4689 46.9709 73.5451 46.5807 73.5442H29.1749C28.7847 73.5451 28.3983 73.4689 28.0376 73.3202C27.6769 73.1714 27.3491 72.953 27.0729 72.6774C26.7967 72.4018 26.5776 72.0744 26.4281 71.7141C26.2786 71.3537 26.2017 70.9674 26.2017 70.5772V44.6419C26.2017 44.2517 26.2786 43.8654 26.4281 43.505C26.5776 43.1446 26.7967 42.8172 27.0729 42.5416C27.3491 42.2661 27.6769 42.0476 28.0376 41.8989C28.3983 41.7501 28.7847 41.674 29.1749 41.6748H40.5414L49.554 50.6689Z" fill="#36AEB4"/>
<path d="M49.554 50.6689H42.7403C42.162 50.6689 41.6075 50.4391 41.1986 50.0302C40.7897 49.6213 40.5599 49.0668 40.5599 48.4885V41.6748L49.554 50.6689Z" fill="#1A8086"/>
<path d="M76.9265 35.9267V55.8164C76.9265 56.2066 76.8495 56.5929 76.7 56.9533C76.5505 57.3137 76.3314 57.6411 76.0552 57.9167C75.7791 58.1923 75.4513 58.4107 75.0906 58.5594C74.7299 58.7082 74.3434 58.7843 73.9532 58.7835H56.5536C56.1634 58.7843 55.7769 58.7082 55.4162 58.5594C55.0555 58.4107 54.7277 58.1923 54.4515 57.9167C54.1754 57.6411 53.9563 57.3137 53.8068 56.9533C53.6573 56.5929 53.5803 56.2066 53.5803 55.8164V29.8811C53.5803 29.491 53.6573 29.1046 53.8068 28.7442C53.9563 28.3839 54.1754 28.0565 54.4515 27.7809C54.7277 27.5053 55.0555 27.2869 55.4162 27.1381C55.7769 26.9894 56.1634 26.9133 56.5536 26.9141H67.92L76.9265 35.9267Z" fill="#36AEB4"/>
<path d="M76.9264 35.9267H70.1128C69.8262 35.9275 69.5423 35.8716 69.2774 35.7624C69.0125 35.6531 68.7718 35.4925 68.5692 35.2899C68.3665 35.0872 68.206 34.8466 68.0967 34.5817C67.9874 34.3168 67.9316 34.0329 67.9324 33.7463V26.9326L76.9264 35.9267Z" fill="#1A8086"/>
</g>
<defs>
<clipPath id="clip0_6418_60524">
<rect width="100" height="100" fill="white"/>
</clipPath>
</defs>
</svg>
