<svg width="100" height="100" viewBox="0 0 100 100" fill="none" xmlns="http://www.w3.org/2000/svg">
<g clip-path="url(#clip0_6418_60453)">
<path d="M73.4019 71.1533H27.0008C26.3781 71.1533 25.8734 71.6581 25.8734 72.2807C25.8734 72.9033 26.3781 73.408 27.0008 73.408H73.4019C74.0245 73.408 74.5293 72.9033 74.5293 72.2807C74.5293 71.6581 74.0245 71.1533 73.4019 71.1533Z" fill="#BAE3E5"/>
<path d="M66.328 72.2808H43.3597V31.1882C43.3597 29.9692 43.844 28.8002 44.7059 27.9382C45.5679 27.0763 46.7369 26.592 47.9559 26.592H66.328C67.547 26.592 68.716 27.0763 69.578 27.9382C70.4399 28.8002 70.9242 29.9692 70.9242 31.1882V67.6847C70.9242 68.9037 70.4399 70.0727 69.578 70.9347C68.716 71.7966 67.547 72.2808 66.328 72.2808Z" fill="#1A8086"/>
<path d="M43.3597 26.592H69.0225C70.1725 26.592 71.2754 27.0489 72.0885 27.862C72.9017 28.6752 73.3585 29.778 73.3585 30.928V61.2799C73.3585 62.0224 73.0635 62.7345 72.5385 63.2596C72.0134 63.7847 71.3013 64.0797 70.5587 64.0797H43.3597V26.592Z" fill="#36AEB4"/>
<path d="M68.5889 30.197H53.3387C52.0489 30.197 51.0034 31.2425 51.0034 32.5323V33.2322C51.0034 34.5219 52.0489 35.5674 53.3387 35.5674H68.5889C69.8786 35.5674 70.9241 34.5219 70.9241 33.2322V32.5323C70.9241 31.2425 69.8786 30.197 68.5889 30.197Z" fill="#DBF0F1"/>
<path d="M53.9147 38.0266H52.9298C51.8659 38.0266 51.0034 38.8877 51.0034 39.9499C51.0034 41.0121 51.8659 41.8732 52.9298 41.8732H53.9147C54.9786 41.8732 55.8411 41.0121 55.8411 39.9499C55.8411 38.8877 54.9786 38.0266 53.9147 38.0266Z" fill="#DBF0F1"/>
<path d="M53.9147 44.3447H52.9298C51.8659 44.3447 51.0034 45.2058 51.0034 46.268C51.0034 47.3303 51.8659 48.1914 52.9298 48.1914H53.9147C54.9786 48.1914 55.8411 47.3303 55.8411 46.268C55.8411 45.2058 54.9786 44.3447 53.9147 44.3447Z" fill="#DBF0F1"/>
<path d="M53.9147 50.6628H52.9298C51.8659 50.6628 51.0034 51.5239 51.0034 52.5862C51.0034 53.6484 51.8659 54.5095 52.9298 54.5095H53.9147C54.9786 54.5095 55.8411 53.6484 55.8411 52.5862C55.8411 51.5239 54.9786 50.6628 53.9147 50.6628Z" fill="#DBF0F1"/>
<path d="M61.4532 38.0266H60.4683C59.4044 38.0266 58.5419 38.8877 58.5419 39.9499C58.5419 41.0121 59.4044 41.8732 60.4683 41.8732H61.4532C62.5171 41.8732 63.3796 41.0121 63.3796 39.9499C63.3796 38.8877 62.5171 38.0266 61.4532 38.0266Z" fill="#DBF0F1"/>
<path d="M61.4532 44.3447H60.4683C59.4044 44.3447 58.5419 45.2058 58.5419 46.268C58.5419 47.3303 59.4044 48.1914 60.4683 48.1914H61.4532C62.5171 48.1914 63.3796 47.3303 63.3796 46.268C63.3796 45.2058 62.5171 44.3447 61.4532 44.3447Z" fill="#DBF0F1"/>
<path d="M61.4532 50.6628H60.4683C59.4044 50.6628 58.5419 51.5239 58.5419 52.5862C58.5419 53.6484 59.4044 54.5095 60.4683 54.5095H61.4532C62.5171 54.5095 63.3796 53.6484 63.3796 52.5862C63.3796 51.5239 62.5171 50.6628 61.4532 50.6628Z" fill="#DBF0F1"/>
<path d="M61.4532 56.8074H60.4683C59.4044 56.8074 58.5419 57.6685 58.5419 58.7307C58.5419 59.7929 59.4044 60.654 60.4683 60.654H61.4532C62.5171 60.654 63.3796 59.7929 63.3796 58.7307C63.3796 57.6685 62.5171 56.8074 61.4532 56.8074Z" fill="#DBF0F1"/>
<path d="M68.9977 38.0266H68.0128C66.9489 38.0266 66.0864 38.8877 66.0864 39.9499C66.0864 41.0121 66.9489 41.8732 68.0128 41.8732H68.9977C70.0617 41.8732 70.9241 41.0121 70.9241 39.9499C70.9241 38.8877 70.0617 38.0266 68.9977 38.0266Z" fill="#DBF0F1"/>
<path d="M68.9977 44.3447H68.0128C66.9489 44.3447 66.0864 45.2058 66.0864 46.268C66.0864 47.3303 66.9489 48.1914 68.0128 48.1914H68.9977C70.0617 48.1914 70.9241 47.3303 70.9241 46.268C70.9241 45.2058 70.0617 44.3447 68.9977 44.3447Z" fill="#DBF0F1"/>
<path d="M68.9977 50.6628H68.0128C66.9489 50.6628 66.0864 51.5239 66.0864 52.5862C66.0864 53.6484 66.9489 54.5095 68.0128 54.5095H68.9977C70.0617 54.5095 70.9241 53.6484 70.9241 52.5862C70.9241 51.5239 70.0617 50.6628 68.9977 50.6628Z" fill="#DBF0F1"/>
<path d="M61.6513 65.1265H55.4323C54.1871 65.1265 53.1776 66.1359 53.1776 67.3812V67.3874C53.1776 68.6326 54.1871 69.6421 55.4323 69.6421H61.6513C62.8966 69.6421 63.9061 68.6326 63.9061 67.3874V67.3812C63.9061 66.1359 62.8966 65.1265 61.6513 65.1265Z" fill="#DBF0F1"/>
<path d="M61.4531 65.9131H60.0099C59.1957 65.9131 58.5356 66.5731 58.5356 67.3873C58.5356 68.2015 59.1957 68.8615 60.0099 68.8615H61.4531C62.2673 68.8615 62.9274 68.2015 62.9274 67.3873C62.9274 66.5731 62.2673 65.9131 61.4531 65.9131Z" fill="#1A8086"/>
<path d="M43.1987 26.592H43.1925C41.6291 26.592 40.3617 27.8594 40.3617 29.4228V69.4563C40.3617 71.0197 41.6291 72.287 43.1925 72.287H43.1987C44.7621 72.287 46.0294 71.0197 46.0294 69.4563V29.4228C46.0294 27.8594 44.7621 26.592 43.1987 26.592Z" fill="#0A6267"/>
<path d="M45.1747 64.0858H44.7659C43.3164 64.0858 42.1395 62.5868 42.1395 60.7409V29.9369C42.1767 28.7464 42.541 27.5892 43.1926 26.592H45.1747C46.6304 26.592 47.8073 28.0911 47.8073 29.9369V60.7409C47.8073 62.5621 46.6304 64.0858 45.1747 64.0858Z" fill="#0A6267"/>
<path d="M46.079 57.2163H40.6776V51.8149C40.6776 51.3336 40.4864 50.8719 40.146 50.5316C39.8057 50.1912 39.344 50 38.8627 50H34.5267C34.0454 50 33.5837 50.1912 33.2434 50.5316C32.903 50.8719 32.7118 51.3336 32.7118 51.8149V57.2163H27.2856C26.8043 57.2163 26.3426 57.4075 26.0023 57.7479C25.6619 58.0882 25.4707 58.5499 25.4707 59.0312V63.3672C25.4707 63.8485 25.6619 64.3102 26.0023 64.6505C26.3426 64.9909 26.8043 65.1821 27.2856 65.1821H32.687V70.6145C32.687 71.0958 32.8782 71.5574 33.2186 71.8978C33.5589 72.2382 34.0206 72.4294 34.5019 72.4294H38.8379C39.0783 72.4327 39.317 72.3881 39.54 72.2984C39.7631 72.2087 39.9661 72.0755 40.1373 71.9067C40.3084 71.7378 40.4444 71.5366 40.5371 71.3148C40.6299 71.093 40.6776 70.8549 40.6776 70.6145V65.2131H46.079C46.5603 65.2131 47.022 65.0219 47.3623 64.6815C47.7027 64.3411 47.8939 63.8795 47.8939 63.3982V59.0622C47.898 58.8213 47.8541 58.5819 47.7647 58.3581C47.6754 58.1344 47.5423 57.9306 47.3734 57.7588C47.2045 57.587 47.003 57.4505 46.7807 57.3574C46.5585 57.2642 46.3199 57.2163 46.079 57.2163Z" fill="#FFAE10"/>
<path d="M35.5611 64.4698V66.7864L32.687 67.5173V63.8999L35.5611 64.4698Z" fill="#E4800C"/>
<path d="M47.9868 57.2163H42.5854V51.8149C42.5854 51.3336 42.3942 50.8719 42.0539 50.5316C41.7135 50.1912 41.2519 50 40.7705 50H36.4345C35.9532 50 35.4916 50.1912 35.1512 50.5316C34.8108 50.8719 34.6196 51.3336 34.6196 51.8149V57.2163H29.1935C28.7121 57.2163 28.2505 57.4075 27.9101 57.7479C27.5698 58.0882 27.3785 58.5499 27.3785 59.0312V63.3672C27.3785 63.8485 27.5698 64.3102 27.9101 64.6505C28.2505 64.9909 28.7121 65.1821 29.1935 65.1821H34.5948V70.6145C34.5948 71.0958 34.7861 71.5574 35.1264 71.8978C35.4668 72.2382 35.9284 72.4294 36.4098 72.4294H40.7457C40.9861 72.4327 41.2248 72.3881 41.4479 72.2984C41.6709 72.2087 41.874 72.0755 42.0451 71.9067C42.2163 71.7378 42.3522 71.5366 42.4449 71.3148C42.5377 71.093 42.5855 70.8549 42.5854 70.6145V65.2131H47.9868C48.4682 65.2131 48.9298 65.0219 49.2702 64.6815C49.6105 64.3411 49.8017 63.8795 49.8017 63.3982V59.0622C49.8058 58.8213 49.7619 58.5819 49.6726 58.3581C49.5832 58.1344 49.4502 57.9306 49.2812 57.7588C49.1123 57.587 48.9108 57.4505 48.6886 57.3574C48.4663 57.2642 48.2278 57.2163 47.9868 57.2163Z" fill="#F5E66C"/>
</g>
<defs>
<clipPath id="clip0_6418_60453">
<rect width="100" height="100" fill="white"/>
</clipPath>
</defs>
</svg>
