<svg width="100" height="100" viewBox="0 0 100 100" fill="none" xmlns="http://www.w3.org/2000/svg">
<g clip-path="url(#clip0_6418_60118)">
<path d="M69.9269 75.4211H28.1281C27.3892 75.4211 26.7901 76.0202 26.7901 76.7591C26.7901 77.498 27.3892 78.0971 28.1281 78.0971H69.9269C70.6658 78.0971 71.2649 77.498 71.2649 76.7591C71.2649 76.0202 70.6658 75.4211 69.9269 75.4211Z" fill="#AEDFFF"/>
<path d="M71.0109 58.3066H31.4296V24.6284H71.0109C71.3722 24.6478 71.7241 24.7509 72.0388 24.9295C72.3535 25.1081 72.6223 25.3575 72.8241 25.6578C73.026 25.9581 73.1552 26.3013 73.2017 26.6601C73.2482 27.0189 73.2107 27.3837 73.0922 27.7255L68.8863 40.6839C68.7249 41.1811 68.7249 41.7167 68.8863 42.2139L73.0922 55.1971C73.2145 55.5396 73.2549 55.906 73.2101 56.267C73.1653 56.628 73.0366 56.9734 72.8343 57.2757C72.6319 57.578 72.3616 57.8287 72.045 58.0077C71.7284 58.1867 71.3742 58.2891 71.0109 58.3066Z" fill="#36AEB4"/>
<path d="M36.032 24.6284H30.7607L30.2527 58.3066H39.8105L36.032 24.6284Z" fill="#1A8086"/>
<path d="M53.698 53.8527C55.4598 53.8527 56.888 52.4245 56.888 50.6627C56.888 48.9009 55.4598 47.4727 53.698 47.4727C51.9362 47.4727 50.5079 48.9009 50.5079 50.6627C50.5079 52.4245 51.9362 53.8527 53.698 53.8527Z" fill="#F5E66C"/>
<path d="M53.698 29.113H51.4123C51.1447 29.1135 50.8802 29.1699 50.6357 29.2786C50.3913 29.3872 50.1722 29.5458 49.9925 29.7441C49.8129 29.9424 49.6767 30.176 49.5927 30.43C49.5086 30.684 49.4786 30.9528 49.5045 31.2191L50.6938 42.8643C50.737 43.3386 50.9562 43.7795 51.3081 44.1004C51.6599 44.4214 52.1191 44.5991 52.5954 44.5987H54.8005C55.2755 44.5995 55.7339 44.4237 56.0865 44.1055C56.4391 43.7872 56.6607 43.3493 56.7084 42.8767L57.8915 31.2067C57.9155 30.9414 57.8841 30.674 57.7993 30.4214C57.7144 30.1689 57.5779 29.9368 57.3984 29.7399C57.219 29.543 57.0006 29.3856 56.757 29.2776C56.5134 29.1697 56.2501 29.1137 55.9836 29.113H53.698Z" fill="#F5E66C"/>
<path d="M33.4985 22.5842H28.8342V76.7592H33.4985V22.5842Z" fill="#0A6267"/>
<path d="M31.1633 23.2656C32.4496 23.2656 33.4923 22.9605 33.4923 22.5842C33.4923 22.2079 32.4496 21.9028 31.1633 21.9028C29.877 21.9028 28.8342 22.2079 28.8342 22.5842C28.8342 22.9605 29.877 23.2656 31.1633 23.2656Z" fill="#36AEB4"/>
<path d="M31.1633 77.4406C32.4496 77.4406 33.4923 77.1356 33.4923 76.7592C33.4923 76.3829 32.4496 76.0779 31.1633 76.0779C29.877 76.0779 28.8342 76.3829 28.8342 76.7592C28.8342 77.1356 29.877 77.4406 31.1633 77.4406Z" fill="#0A6267"/>
<path d="M36.577 24.5327H70.6144" stroke="#88EAEF" stroke-width="3" stroke-linecap="round" stroke-linejoin="round"/>
</g>
<defs>
<clipPath id="clip0_6418_60118">
<rect width="100" height="100" fill="white"/>
</clipPath>
</defs>
</svg>
