<svg width="100" height="100" viewBox="0 0 100 100" fill="none" xmlns="http://www.w3.org/2000/svg">
<g clip-path="url(#clip0_6418_60310)">
<path d="M81.1881 69.6296H17.4616C16.815 69.6296 16.2909 70.1538 16.2909 70.8004V70.8065C16.2909 71.4531 16.815 71.9773 17.4616 71.9773H81.1881C81.8346 71.9773 82.3588 71.4531 82.3588 70.8065V70.8004C82.3588 70.1538 81.8346 69.6296 81.1881 69.6296Z" fill="#D0FDFF"/>
<path d="M79.4351 30.866H57.142C56.5981 30.866 56.1571 31.3069 56.1571 31.8509V31.857C56.1571 32.401 56.5981 32.8419 57.142 32.8419H79.4351C79.979 32.8419 80.42 32.401 80.42 31.857V31.8509C80.42 31.3069 79.979 30.866 79.4351 30.866Z" fill="#0C5A5E"/>
<path d="M74.938 29.2803H64.222C62.7988 29.2803 61.6451 30.4339 61.6451 31.8571C61.6451 33.2802 62.7988 34.4339 64.222 34.4339H74.938C76.3611 34.4339 77.5148 33.2802 77.5148 31.8571C77.5148 30.4339 76.3611 29.2803 74.938 29.2803Z" fill="#36AEB4"/>
<path d="M71.6117 28.0291H71.6055C69.7719 28.0291 68.2854 29.5155 68.2854 31.3492V32.365C68.2854 34.1987 69.7719 35.6851 71.6055 35.6851H71.6117C73.4454 35.6851 74.9318 34.1987 74.9318 32.365V31.3492C74.9318 29.5155 73.4454 28.0291 71.6117 28.0291Z" fill="#36AEB4"/>
<path d="M76.7096 46.9773C75.3214 46.9884 73.9717 47.4347 72.8505 48.2533C70.1375 50.1611 68.2854 54.0202 68.2854 58.4676C68.2719 60.4267 68.651 62.3686 69.4003 64.1787C70.856 67.6289 73.5815 69.9518 76.7096 69.9518C81.3614 69.9518 85.1337 64.8105 85.1337 58.4614C85.1337 52.1123 81.3614 46.9773 76.7096 46.9773ZM76.053 66.5697C73.631 66.5697 71.5931 64.1354 71.0109 60.8462C70.9032 60.2098 70.8493 59.5653 70.8498 58.9198C70.8289 57.2729 71.2117 55.646 71.9648 54.1812L73.0364 56.6589L74.2381 59.4215C74.3338 59.6443 74.4929 59.8341 74.6955 59.9673C74.8981 60.1005 75.1353 60.1714 75.3778 60.1711C75.5484 60.1696 75.7169 60.1338 75.8733 60.0658C76.1703 59.9305 76.402 59.6836 76.518 59.3786C76.634 59.0735 76.6249 58.735 76.4928 58.4367L74.4425 53.7166L73.7425 52.0318C74.2854 51.6198 74.9255 51.3552 75.6008 51.2637C75.7452 51.2543 75.89 51.2543 76.0344 51.2637C78.9023 51.2637 81.2376 54.6891 81.2376 58.9198C81.2376 63.1505 78.9209 66.5697 76.053 66.5697Z" fill="#0A6267"/>
<path d="M42.8828 46.4568C38.2309 46.4568 34.4586 51.4122 34.4586 57.5135C34.4586 63.6149 38.2309 68.5703 42.8828 68.5703C47.5347 68.5703 51.307 63.6149 51.307 57.5135C51.307 51.4122 47.5409 46.4568 42.8828 46.4568ZM42.2262 65.6094C39.0548 65.6094 36.4841 62.2335 36.4841 58.071C36.4841 53.9085 39.0548 50.5326 42.2262 50.5326C45.3977 50.5326 47.9683 53.8899 47.9683 58.0772C47.9683 62.2645 45.3977 65.6156 42.2262 65.6156V65.6094Z" fill="#0A6267"/>
<path d="M75.6194 51.2884C74.9441 51.3799 74.304 51.6445 73.7612 52.0564L74.4797 53.7041L73.055 56.6464L71.9834 54.1687C71.2304 55.6335 70.8476 57.2604 70.8684 58.9073C70.8679 59.5528 70.9218 60.1972 71.0295 60.8337L69.419 64.1662H68.4403C65.419 64.1659 62.4197 63.6527 59.5701 62.6486L39.0548 55.4633C38.5099 55.2662 38.0313 54.9203 37.6732 54.4648C37.3151 54.0093 37.092 53.4625 37.0292 52.8865C36.9193 51.824 37.0964 50.7516 37.542 49.7808C37.9876 48.8101 38.6854 47.9767 39.5627 47.3674C43.7314 44.1526 33.833 39.7237 33.833 39.7237L34.0126 39.0237C34.1268 38.5936 34.3965 38.2211 34.7696 37.9785C35.1427 37.7359 35.5925 37.6404 36.032 37.7106C36.157 37.1271 36.4788 36.6043 36.9434 36.2299C37.4081 35.8555 37.9873 35.6522 38.584 35.6541H42.92L52.9485 37.7849C54.948 38.1948 56.8183 39.0832 58.3994 40.3741L58.8826 40.7643C59.5246 41.2925 59.9492 42.039 60.0749 42.8609C60.2006 43.6827 60.0187 44.522 59.5639 45.218L58.3994 46.971L61.9425 48.7054L72.832 48.2532L77.168 48.0735L75.6194 51.2884Z" fill="#0A6267"/>
<path d="M79.3298 51.5363C75.1115 48.2781 71.2773 47.3056 67.9943 50.5824C65.5166 53.0229 64.3831 60.0596 64.0052 62.9337C63.9934 63.0185 63.9551 63.0975 63.896 63.1594C63.8368 63.2213 63.7597 63.2631 63.6755 63.2789C63.5913 63.2946 63.5043 63.2835 63.4268 63.2471C63.3492 63.2108 63.2851 63.151 63.2433 63.0762L59.2171 55.8041C58.6663 54.8064 58.3851 53.6824 58.4014 52.5429C58.4177 51.4034 58.7309 50.2878 59.31 49.3063L62.8097 43.3599C63.2882 42.5455 63.5852 41.6374 63.6803 40.6977C63.7754 39.758 63.6665 38.8088 63.361 37.9151L63.3239 37.8098C63.24 37.5511 63.212 37.2775 63.2417 37.0072C63.2715 36.7368 63.3584 36.4759 63.4966 36.2416C63.6348 36.0074 63.8212 35.8052 64.0434 35.6484C64.2657 35.4916 64.5187 35.3838 64.7857 35.3321L71.4879 34.0933L76.084 34.9171L78.1219 37.2771C79.0821 38.3895 79.6461 39.7889 79.7257 41.2562C79.8052 42.7235 79.3959 44.1757 78.5617 45.3854C80.3566 46.076 81.9376 47.2276 83.1455 48.7241C85.0781 51.3009 83.003 54.3794 79.3298 51.5363Z" fill="#36AEB4"/>
<path d="M34.0684 39.8538L48.7425 45.0136C50.0208 45.4655 51.3637 45.7081 52.7193 45.7321H52.8307C53.0851 45.7376 53.3283 45.8378 53.5127 46.013C53.6972 46.1883 53.8096 46.4261 53.828 46.6798L53.89 47.5966C53.9032 47.7584 53.8775 47.921 53.815 48.0708C53.7525 48.2206 53.655 48.3532 53.5307 48.4576L52.0069 49.6964C51.704 49.95 51.4661 50.2724 51.3131 50.6366C51.1601 51.0008 51.0964 51.3963 51.1273 51.7901L51.307 54.2306C51.3302 54.4435 51.2901 54.6585 51.1919 54.8488C51.0937 55.039 50.9416 55.1962 50.7546 55.3006C50.5677 55.4049 50.3541 55.452 50.1406 55.4357C49.927 55.4195 49.723 55.3408 49.554 55.2093L39.4512 47.6957L34.0684 39.8538Z" fill="#36AEB4"/>
<path d="M74.5478 30.8289C74.5478 29.6589 73.5993 28.7104 72.4293 28.7104C71.2594 28.7104 70.3109 29.6589 70.3109 30.8289V32.3093C70.3109 33.4793 71.2594 34.4277 72.4293 34.4277C73.5993 34.4277 74.5478 33.4793 74.5478 32.3093V30.8289Z" fill="#D0FDFF"/>
<path d="M70.249 35.4434C71.8766 38.0809 72.9769 41.0092 73.4886 44.0658C73.5319 44.3396 73.6296 44.6018 73.776 44.8372C73.9223 45.0725 74.1143 45.2761 74.3406 45.4361C74.567 45.596 74.823 45.709 75.0937 45.7683C75.3644 45.8277 75.6443 45.8322 75.9167 45.7817C76.4407 45.6792 76.9043 45.3769 77.2095 44.9388C77.5147 44.5007 77.6375 43.9611 77.552 43.434C77.0131 40.2378 76.1211 37.469 74.6903 35.3815C74.5169 35.1255 74.2847 34.9148 74.0131 34.7672C73.7415 34.6195 73.4384 34.5392 73.1293 34.5329L70.8189 34.4771C70.7017 34.466 70.5837 34.4885 70.4789 34.542C70.374 34.5955 70.2865 34.6777 70.2267 34.7791C70.1669 34.8805 70.1373 34.9969 70.1412 35.1145C70.1452 35.2322 70.1825 35.3463 70.249 35.4434Z" fill="#2F848B"/>
<path d="M62.3637 49.2506L51.2698 68.0316C51.2445 68.0753 51.2155 68.1167 51.1831 68.1555L51.084 68.267C50.9746 68.3753 50.8416 68.4568 50.6955 68.5052C50.5493 68.5536 50.394 68.5674 50.2416 68.5457C50.1487 68.5457 47.5099 68.5457 47.417 68.5457C47.2475 68.5765 47.0731 68.5658 46.9087 68.5145C46.7443 68.4631 46.5948 68.3726 46.473 68.2509C46.3512 68.1291 46.2608 67.9795 46.2094 67.8151C46.158 67.6507 46.1473 67.4763 46.1781 67.3069L47.3365 59.3163L50.669 57.7863L51.0344 55.2714C51.0627 55.0784 51.0494 54.8815 50.9953 54.694C50.9413 54.5064 50.8478 54.3327 50.7211 54.1843C50.5943 54.0359 50.4374 53.9162 50.2607 53.8335C50.084 53.7507 49.8916 53.7066 49.6965 53.7043H37.7292C37.5316 53.7024 37.3368 53.6579 37.1581 53.5736C36.9794 53.4894 36.821 53.3674 36.6939 53.2162C36.5668 53.0649 36.4739 52.888 36.4217 52.6974C36.3694 52.5069 36.359 52.3073 36.3912 52.1124L40.5166 32.5571C40.6375 31.9874 40.9487 31.4759 41.3991 31.1066C41.8494 30.7374 42.412 30.5324 42.9943 30.5254H55.4881C55.7807 30.5292 56.0685 30.6005 56.329 30.7337C56.5896 30.8669 56.8159 31.0584 56.9903 31.2934C57.1647 31.5283 57.2825 31.8004 57.3346 32.0883C57.3867 32.3763 57.3717 32.6724 57.2906 32.9535L53.7661 45.342C53.6967 45.5547 53.6794 45.781 53.7155 46.0018C53.7515 46.2226 53.84 46.4315 53.9735 46.6111C54.1069 46.7906 54.2815 46.9356 54.4825 47.0338C54.6835 47.132 54.9052 47.1806 55.1288 47.1755H61.1992C61.4409 47.177 61.678 47.2424 61.8862 47.3652C62.0945 47.488 62.2665 47.6637 62.3848 47.8745C62.5031 48.0853 62.5635 48.3237 62.5598 48.5654C62.5561 48.8071 62.4884 49.0435 62.3637 49.2506Z" fill="#FFAE10"/>
<path d="M62.3638 49.2506L51.2698 68.0316C51.2445 68.0753 51.2155 68.1167 51.1831 68.1555L51.084 68.267C50.9746 68.3753 50.8417 68.4568 50.6955 68.5052C50.5494 68.5535 50.394 68.5674 50.2416 68.5457C50.0968 68.531 49.9567 68.4865 49.83 68.4149C49.7033 68.3433 49.5929 68.2463 49.5056 68.1299C49.4183 68.0135 49.356 67.8802 49.3228 67.7386C49.2896 67.5969 49.286 67.4499 49.3125 67.3069L50.6876 57.7863L51.053 55.2714C51.0813 55.0783 51.068 54.8815 51.0139 54.6939C50.9599 54.5064 50.8664 54.3327 50.7397 54.1843C50.613 54.0358 50.456 53.9162 50.2793 53.8335C50.1026 53.7507 49.9102 53.7066 49.7151 53.7043H40.8449C40.647 53.7035 40.4517 53.6596 40.2724 53.5757C40.0932 53.4918 39.9344 53.3698 39.8071 53.2183C39.6797 53.0668 39.5869 52.8894 39.5351 52.6984C39.4833 52.5074 39.4737 52.3074 39.507 52.1124L43.6323 32.5571C43.7533 31.9874 44.0645 31.4759 44.5148 31.1066C44.9651 30.7374 45.5277 30.5324 46.11 30.5254H55.4881C55.7807 30.5292 56.0685 30.6005 56.329 30.7337C56.5896 30.8669 56.8159 31.0584 56.9903 31.2934C57.1647 31.5283 57.2826 31.8004 57.3347 32.0883C57.3868 32.3763 57.3717 32.6724 57.2907 32.9535L53.7661 45.342C53.6968 45.5547 53.6794 45.781 53.7155 46.0018C53.7516 46.2226 53.8401 46.4315 53.9735 46.6111C54.107 46.7906 54.2815 46.9356 54.4825 47.0338C54.6836 47.132 54.9052 47.1806 55.1289 47.1755H61.1992C61.441 47.177 61.678 47.2424 61.8862 47.3652C62.0945 47.488 62.2665 47.6637 62.3848 47.8745C62.5031 48.0853 62.5635 48.3237 62.5598 48.5654C62.5561 48.8071 62.4885 49.0435 62.3638 49.2506Z" fill="#F5E66C"/>
<path d="M51.0531 55.2898L50.6876 57.8047L47.3551 59.3346L47.9745 55.2898C48.0029 55.0962 47.9894 54.8988 47.935 54.7109C47.8805 54.5229 47.7865 54.3488 47.6591 54.2003C47.5317 54.0518 47.374 53.9323 47.1965 53.8499C47.0191 53.7675 46.826 53.7241 46.6304 53.7227H49.7275C49.9216 53.7268 50.1125 53.7721 50.2878 53.8556C50.463 53.9392 50.6184 54.059 50.7438 54.2072C50.8691 54.3554 50.9616 54.5286 51.0149 54.7152C51.0682 54.9019 51.0812 55.0977 51.0531 55.2898Z" fill="#E4800C"/>
<path d="M41.1422 49.7585C41.0645 49.6119 40.9733 49.473 40.8697 49.3434C40.6445 49.0696 40.3605 48.8499 40.0388 48.7009C39.7171 48.5518 39.3659 48.4771 39.0114 48.4824H17.2324C16.9217 48.4824 16.614 48.5436 16.3269 48.6626C16.0398 48.7815 15.779 48.9558 15.5593 49.1755C15.3395 49.3952 15.1652 49.6561 15.0463 49.9431C14.9274 50.2302 14.8662 50.5379 14.8662 50.8486V63.9309C14.866 64.4413 15.0305 64.9382 15.3351 65.3477C15.6397 65.7572 16.0683 66.0576 16.5572 66.2042C16.7743 66.2692 16.9996 66.3026 17.2262 66.3033H39.0238C39.6519 66.3017 40.2538 66.051 40.6973 65.6063C41.1409 65.1615 41.39 64.559 41.39 63.9309V50.8486C41.3957 50.4707 41.3107 50.0968 41.1422 49.7585ZM20.8684 65.5352L26.2946 49.2443H32.526L27.0999 65.5352H20.8684ZM29.2555 65.5352L34.6878 49.2443H39.7671C40.1331 49.2453 40.4923 49.3436 40.8077 49.5293L35.4807 65.5352H29.2555Z" fill="#0A6267"/>
<path d="M41.1113 48.6311C40.8393 48.5324 40.5521 48.482 40.2627 48.4824H18.4713C18.1606 48.4824 17.8529 48.5436 17.5658 48.6625C17.2787 48.7815 17.0179 48.9558 16.7981 49.1755C16.5784 49.3952 16.4041 49.656 16.2852 49.9431C16.1663 50.2302 16.1051 50.5379 16.1051 50.8486V63.9309C16.1116 64.5547 16.3636 65.1509 16.8065 65.5903C17.2493 66.0297 17.8475 66.2769 18.4713 66.2785H40.2627C40.8908 66.2769 41.4926 66.0262 41.9362 65.5815C42.3798 65.1367 42.6289 64.5342 42.6289 63.9061V50.8486C42.6298 50.3689 42.4853 49.9002 42.2143 49.5043C41.9434 49.1084 41.5588 48.8039 41.1113 48.6311ZM20.8685 65.5352L26.2946 49.2443H32.5261L27.0999 65.5352H20.8685ZM29.2555 65.5352L34.6879 49.2443H39.7671C40.1332 49.2453 40.4923 49.3436 40.8078 49.5293L35.4807 65.5352H29.2555Z" fill="#2F848B"/>
<path d="M18.9854 49.2444H26.2946L20.8685 65.5353H19.0102C18.7214 65.5296 18.4365 65.4671 18.1719 65.3514C17.9073 65.2357 17.668 65.0689 17.4679 64.8607C17.2677 64.6524 17.1105 64.4068 17.0053 64.1378C16.9 63.8688 16.8488 63.5817 16.8546 63.2929V51.4929C16.8412 50.9128 17.0577 50.3509 17.4569 49.9297C17.856 49.5086 18.4054 49.2622 18.9854 49.2444Z" fill="#F6FFFF"/>
<path d="M32.526 49.2444H34.6754L29.2555 65.5353H27.0999L32.526 49.2444Z" fill="#F6FFFF"/>
<path d="M41.9227 51.4928V63.2928C41.9278 63.6233 41.8606 63.9508 41.7258 64.2526C41.591 64.5543 41.3918 64.8229 41.1423 65.0396C40.7607 65.3708 40.2724 65.5534 39.7671 65.5537H35.4807L40.8078 49.554C40.9247 49.6189 41.0348 49.6957 41.1361 49.7831C41.3813 49.9957 41.5784 50.2581 41.7141 50.553C41.8497 50.8478 41.9209 51.1682 41.9227 51.4928Z" fill="#F6FFFF"/>
<path d="M17.2077 66.1731L26.1584 68.3411L26.0159 70.8684L16.6626 68.6013C16.3686 68.5279 16.1117 68.3493 15.9405 68.0994C15.7693 67.8494 15.6956 67.5453 15.7334 67.2447V67.1766C15.7616 67.0125 15.8224 66.8558 15.9125 66.7158C16.0025 66.5758 16.1198 66.4554 16.2574 66.3617C16.395 66.268 16.5501 66.2031 16.7133 66.1707C16.8766 66.1383 17.0447 66.1391 17.2077 66.1731Z" fill="#0A6267"/>
<path d="M50.3283 68.3411H26.1583C25.4604 68.3411 24.8947 68.9068 24.8947 69.6047V69.6109C24.8947 70.3088 25.4604 70.8745 26.1583 70.8745H50.3283C51.0261 70.8745 51.5919 70.3088 51.5919 69.6109V69.6047C51.5919 68.9068 51.0261 68.3411 50.3283 68.3411Z" fill="#2F848B"/>
<path d="M35.3073 68.3411H44.2394L44.0783 68.5393C43.8903 68.772 43.6524 68.9596 43.3823 69.0882C43.1121 69.2169 42.8166 69.2833 42.5174 69.2826H36.9983C36.6909 69.2831 36.3875 69.213 36.1115 69.0777C35.8355 68.9424 35.5942 68.7454 35.4064 68.5021L35.3073 68.3411Z" fill="#D0FDFF"/>
<path d="M43.1863 66.4396L50.3283 68.3413H26.1707L16.8794 66.483C16.858 66.483 16.8375 66.4745 16.8224 66.4594C16.8073 66.4443 16.7988 66.4238 16.7988 66.4025C16.7988 66.3811 16.8073 66.3606 16.8224 66.3455C16.8375 66.3304 16.858 66.322 16.8794 66.322H42.1209C42.4796 66.317 42.8374 66.3565 43.1863 66.4396Z" fill="#36AEB4"/>
<path d="M32.526 49.2444L27.0998 65.5353H20.8684L26.2946 49.2444H32.526Z" fill="#F6FFFF"/>
<path d="M40.8078 49.5541L35.4807 65.56H29.2555L34.6879 49.2444H39.7671C40.1354 49.2528 40.4948 49.3598 40.8078 49.5541Z" fill="#F6FFFF"/>
</g>
<defs>
<clipPath id="clip0_6418_60310">
<rect width="100" height="100" fill="white"/>
</clipPath>
</defs>
</svg>
