<svg width="100" height="100" viewBox="0 0 100 100" fill="none" xmlns="http://www.w3.org/2000/svg">
<g clip-path="url(#clip0_6418_60204)">
<path d="M81.4854 70.0012H17.3005C16.6779 70.0012 16.1732 70.506 16.1732 71.1286C16.1732 71.7512 16.6779 72.2559 17.3005 72.2559H81.4854C82.108 72.2559 82.6127 71.7512 82.6127 71.1286C82.6127 70.506 82.108 70.0012 81.4854 70.0012Z" fill="#AEDFFF"/>
<path d="M83.833 48.6248H53.3387L36.7877 27.7378H67.282L83.833 48.6248Z" fill="#0A6267"/>
<path d="M83.833 49.5541H53.3387C53.1982 49.554 53.0595 49.5221 52.9329 49.461C52.8064 49.3999 52.6953 49.311 52.6078 49.2011L36.0567 28.3202C35.9491 28.1825 35.8822 28.0174 35.8636 27.8436C35.845 27.6698 35.8755 27.4943 35.9516 27.3369C36.0277 27.1796 36.1463 27.0467 36.2941 26.9534C36.4419 26.86 36.6129 26.8099 36.7877 26.8088H67.282C67.4216 26.809 67.5594 26.8409 67.6849 26.9021C67.8104 26.9632 67.9205 27.0521 68.0067 27.1619L84.5577 48.0427C84.6676 48.1793 84.7365 48.3442 84.7567 48.5183C84.7768 48.6924 84.7473 48.8687 84.6715 49.0267C84.5957 49.1848 84.4767 49.3182 84.3284 49.4115C84.18 49.5048 84.0083 49.5543 83.833 49.5541ZM53.7847 47.6959H81.9066L66.8298 28.6671H38.7079L53.7847 47.6959Z" fill="#0A6267"/>
<path d="M52.5582 46.2834H20.4534V70.8994H52.5582V46.2834Z" fill="#1A8086"/>
<path d="M79.782 70.8994H52.5582V46.2835L66.1732 28.9148L79.782 46.2835V70.8994Z" fill="#36AEB4"/>
<path d="M16.1732 48.6248H50.7309L67.282 27.7378H32.7242L16.1732 48.6248Z" fill="#1A8086"/>
<path d="M50.7309 49.5541H16.1732C15.9984 49.553 15.8274 49.503 15.6796 49.4096C15.5319 49.3163 15.4132 49.1834 15.3371 49.026C15.261 48.8687 15.2305 48.6931 15.2491 48.5193C15.2677 48.3455 15.3346 48.1804 15.4423 48.0427L31.9933 27.1619C32.0808 27.0519 32.1919 26.9631 32.3185 26.902C32.445 26.8408 32.5837 26.809 32.7242 26.8088H67.282C67.4572 26.8087 67.629 26.8582 67.7773 26.9515C67.9257 27.0448 68.0446 27.1782 68.1204 27.3362C68.1962 27.4943 68.2257 27.6705 68.2056 27.8447C68.1855 28.0188 68.1165 28.1836 68.0067 28.3202L51.4556 49.2011C51.3694 49.3109 51.2594 49.3997 51.1339 49.4609C51.0083 49.5221 50.8706 49.5539 50.7309 49.5541ZM18.0934 47.6959H50.3035L65.3803 28.6671H33.1702L18.0934 47.6959Z" fill="#1A8086"/>
<path d="M83.833 49.554C83.6925 49.5539 83.5538 49.5221 83.4272 49.4609C83.3007 49.3998 83.1896 49.311 83.1021 49.201L67.282 29.2369L51.4556 49.201C51.3694 49.3108 51.2594 49.3997 51.1339 49.4608C51.0083 49.522 50.8706 49.5539 50.7309 49.554H16.1732C15.9268 49.554 15.6904 49.4562 15.5162 49.2819C15.3419 49.1077 15.244 48.8713 15.244 48.6249C15.244 48.3785 15.3419 48.1422 15.5162 47.9679C15.6904 47.7937 15.9268 47.6958 16.1732 47.6958H50.2787L66.551 27.1618C66.6412 27.0571 66.7529 26.973 66.8785 26.9154C67.0041 26.8577 67.1407 26.8279 67.2789 26.8279C67.4171 26.8279 67.5536 26.8577 67.6793 26.9154C67.8049 26.973 67.9166 27.0571 68.0067 27.1618L84.5577 48.0426C84.6651 48.1799 84.7319 48.3445 84.7508 48.5177C84.7696 48.691 84.7396 48.8661 84.6643 49.0232C84.5889 49.1803 84.4712 49.3133 84.3243 49.4071C84.1774 49.5009 84.0073 49.5518 83.833 49.554Z" fill="#0A6267"/>
<path d="M40.3308 54.2431L30.5191 70.8561L30.4386 70.9676L30.3518 71.0667C30.2552 71.1619 30.1377 71.2333 30.0087 71.2752C29.8797 71.3172 29.7427 71.3285 29.6085 71.3083C29.528 71.3083 27.1866 71.3083 27.1308 71.3083C26.9813 71.3384 26.8266 71.3318 26.6802 71.289C26.5337 71.2461 26.3999 71.1683 26.2902 71.0623C26.1805 70.9562 26.0982 70.8251 26.0504 70.6802C26.0026 70.5353 25.9908 70.381 26.0159 70.2304L27.0503 63.1814L29.9988 61.831L30.3518 59.5887C30.3692 59.4159 30.35 59.2414 30.2956 59.0765C30.2412 58.9116 30.1527 58.76 30.0359 58.6315C29.9191 58.503 29.7765 58.4005 29.6175 58.3306C29.4585 58.2608 29.2866 58.2251 29.113 58.226H18.5394C18.3623 58.2221 18.188 58.1802 18.0285 58.1032C17.8689 58.0262 17.7277 57.9159 17.6144 57.7797C17.5011 57.6435 17.4183 57.4846 17.3716 57.3137C17.325 57.1427 17.3155 56.9638 17.3439 56.7889L20.9923 39.4946C21.1 38.9874 21.3782 38.5325 21.7806 38.2057C22.183 37.8788 22.6852 37.6997 23.2037 37.6982H34.248C34.5068 37.7002 34.7616 37.7622 34.9923 37.8794C35.223 37.9966 35.4234 38.1657 35.5777 38.3734C35.732 38.5811 35.836 38.8218 35.8815 39.0766C35.927 39.3313 35.9128 39.5931 35.8399 39.8415L32.7242 50.7929C32.6707 50.9765 32.6603 51.1701 32.6941 51.3583C32.7278 51.5466 32.8047 51.7246 32.9187 51.8782C33.0327 52.0318 33.1807 52.1569 33.3512 52.2437C33.5216 52.3305 33.7099 52.3767 33.9011 52.3786H39.3025C39.5171 52.3857 39.7262 52.4483 39.9092 52.5605C40.0923 52.6727 40.243 52.8305 40.3467 53.0185C40.4504 53.2065 40.5034 53.4182 40.5006 53.6329C40.4978 53.8476 40.4393 54.0578 40.3308 54.2431Z" fill="#FFAE10"/>
<path d="M40.3308 54.243L30.5191 70.856L30.4386 70.9674L30.3518 71.0666C30.2552 71.1618 30.1377 71.2332 30.0087 71.2751C29.8797 71.3171 29.7427 71.3284 29.6085 71.3081C29.4816 71.2963 29.3585 71.2584 29.247 71.1967C29.1355 71.135 29.038 71.0509 28.9606 70.9496C28.8832 70.8484 28.8276 70.7322 28.7973 70.6084C28.7671 70.4846 28.7628 70.3559 28.7847 70.2303L30.0235 61.8123L30.3518 59.5886C30.3692 59.4158 30.35 59.2413 30.2956 59.0764C30.2412 58.9115 30.1527 58.7599 30.0359 58.6314C29.9191 58.5029 29.7765 58.4004 29.6175 58.3305C29.4585 58.2607 29.2866 58.225 29.113 58.2259H21.2958C21.1217 58.2206 20.9506 58.1787 20.7937 58.1028C20.6368 58.027 20.4977 57.9189 20.3855 57.7856C20.2733 57.6523 20.1904 57.4968 20.1423 57.3293C20.0943 57.1618 20.0821 56.9861 20.1065 56.8136L23.7612 39.5192C23.8675 39.0126 24.1445 38.5578 24.5459 38.2309C24.9472 37.9039 25.4486 37.7246 25.9663 37.7229H34.248C34.5068 37.7249 34.7616 37.7869 34.9923 37.9041C35.223 38.0212 35.4234 38.1903 35.5777 38.398C35.732 38.6058 35.836 38.8465 35.8815 39.1012C35.927 39.356 35.9128 39.6178 35.8399 39.8661L32.7242 50.7928C32.6707 50.9764 32.6603 51.1699 32.6941 51.3582C32.7278 51.5465 32.8047 51.7244 32.9187 51.878C33.0327 52.0316 33.1807 52.1568 33.3512 52.2436C33.5216 52.3304 33.7099 52.3766 33.9011 52.3785H39.3025C39.5171 52.3855 39.7262 52.4482 39.9092 52.5604C40.0923 52.6726 40.243 52.8304 40.3467 53.0184C40.4504 53.2064 40.5034 53.4181 40.5006 53.6328C40.4978 53.8475 40.4393 54.0577 40.3308 54.243Z" fill="#F5E66C"/>
<path d="M30.3518 59.5888L30.0235 61.8126L27.0503 63.1815L27.5706 59.6074C27.5904 59.4378 27.5749 59.2659 27.525 59.1025C27.4752 58.9391 27.3921 58.7879 27.281 58.6581C27.1699 58.5284 27.0332 58.4231 26.8794 58.3487C26.7257 58.2744 26.5582 58.2326 26.3875 58.2261H29.113C29.2866 58.2252 29.4585 58.2609 29.6175 58.3307C29.7765 58.4006 29.9191 58.5031 30.0359 58.6316C30.1527 58.7601 30.2412 58.9117 30.2956 59.0766C30.35 59.2415 30.3692 59.416 30.3518 59.5888Z" fill="#E4800C"/>
<path d="M65.1573 48.9036H62.0045C61.2963 48.9036 60.7222 49.4776 60.7222 50.1858V53.1962C60.7222 53.9043 61.2963 54.4784 62.0045 54.4784H65.1573C65.8655 54.4784 66.4395 53.9043 66.4395 53.1962V50.1858C66.4395 49.4776 65.8655 48.9036 65.1573 48.9036Z" fill="#D0FDFF"/>
<path d="M72.3674 48.9036H69.2146C68.5064 48.9036 67.9324 49.4776 67.9324 50.1858V53.1962C67.9324 53.9043 68.5064 54.4784 69.2146 54.4784H72.3674C73.0756 54.4784 73.6496 53.9043 73.6496 53.1962V50.1858C73.6496 49.4776 73.0756 48.9036 72.3674 48.9036Z" fill="#D0FDFF"/>
<path d="M65.1573 55.6492H62.0045C61.2963 55.6492 60.7222 56.2232 60.7222 56.9314V59.9418C60.7222 60.6499 61.2963 61.224 62.0045 61.224H65.1573C65.8655 61.224 66.4395 60.6499 66.4395 59.9418V56.9314C66.4395 56.2232 65.8655 55.6492 65.1573 55.6492Z" fill="#D0FDFF"/>
<path d="M72.3674 55.6492H69.2146C68.5064 55.6492 67.9324 56.2232 67.9324 56.9314V59.9418C67.9324 60.6499 68.5064 61.224 69.2146 61.224H72.3674C73.0756 61.224 73.6496 60.6499 73.6496 59.9418V56.9314C73.6496 56.2232 73.0756 55.6492 72.3674 55.6492Z" fill="#D0FDFF"/>
</g>
<defs>
<clipPath id="clip0_6418_60204">
<rect width="100" height="100" fill="white"/>
</clipPath>
</defs>
</svg>
