<svg width="100" height="100" viewBox="0 0 100 100" fill="none" xmlns="http://www.w3.org/2000/svg">
<g clip-path="url(#clip0_6418_60245)">
<path d="M65.2378 76.7344H26.3627C25.9146 76.7344 25.5513 77.0977 25.5513 77.5458C25.5513 77.994 25.9146 78.3573 26.3627 78.3573H65.2378C65.686 78.3573 66.0493 77.994 66.0493 77.5458C66.0493 77.0977 65.686 76.7344 65.2378 76.7344Z" fill="#AEDFFF"/>
<path d="M47.2126 77.9486C62.761 77.9486 75.3654 65.3441 75.3654 49.7957C75.3654 34.2473 62.761 21.6428 47.2126 21.6428C31.6642 21.6428 19.0597 34.2473 19.0597 49.7957C19.0597 65.3441 31.6642 77.9486 47.2126 77.9486Z" fill="#0A6267"/>
<path d="M53.5493 77.9486C69.0977 77.9486 81.7022 65.3441 81.7022 49.7957C81.7022 34.2473 69.0977 21.6428 53.5493 21.6428C38.0009 21.6428 25.3964 34.2473 25.3964 49.7957C25.3964 65.3441 38.0009 77.9486 53.5493 77.9486Z" fill="#36AEB4"/>
<path d="M77.3352 49.8017C77.3344 52.9245 76.7185 56.0166 75.5227 58.9013C74.3269 61.7861 72.5747 64.4071 70.3659 66.6147C68.1572 68.8223 65.5353 70.5732 62.6499 71.7675C59.7645 72.9618 56.6721 73.5761 53.5493 73.5753C53.221 73.5753 52.8927 73.5753 52.5706 73.5753C58.6944 73.3135 64.4805 70.6967 68.7211 66.271C72.9617 61.8453 75.3291 55.9528 75.3291 49.8234C75.3291 43.694 72.9617 37.8015 68.7211 33.3758C64.4805 28.9501 58.6944 26.3332 52.5706 26.0715C52.8927 26.0715 53.19 26.0715 53.5493 26.0715C59.8486 26.0699 65.8911 28.5677 70.3506 33.0167C74.8101 37.4658 77.3221 43.5025 77.3352 49.8017Z" fill="#0A6267"/>
<path d="M75.3655 49.8018C75.3673 55.9376 72.9956 61.8363 68.7467 66.263C64.4979 70.6896 58.7013 73.3011 52.5706 73.5506C46.4468 73.2889 40.6607 70.6721 36.4201 66.2464C32.1795 61.8207 29.8121 55.9281 29.8121 49.7987C29.8121 43.6693 32.1795 37.7768 36.4201 33.3511C40.6607 28.9254 46.4468 26.3086 52.5706 26.0469C58.7024 26.2964 64.4999 28.9088 68.7489 33.3367C72.9979 37.7647 75.3689 43.665 75.3655 49.8018Z" fill="#F6FFFF"/>
<path d="M50.7123 52.8741V33.2755C50.7123 32.9469 50.8429 32.6318 51.0752 32.3995C51.3075 32.1671 51.6226 32.0366 51.9512 32.0366C52.2798 32.0366 52.5949 32.1671 52.8272 32.3995C53.0595 32.6318 53.19 32.9469 53.19 33.2755V49.9194L69.2579 47.0763C69.4219 47.037 69.5921 47.0316 69.7582 47.0603C69.9243 47.0891 70.0828 47.1515 70.2239 47.2437C70.3651 47.3358 70.486 47.4558 70.5791 47.5963C70.6723 47.7368 70.7358 47.8949 70.7658 48.0607C70.7957 48.2266 70.7915 48.3969 70.7534 48.5611C70.7153 48.7253 70.6441 48.88 70.5441 49.0158C70.4441 49.1515 70.3175 49.2654 70.1719 49.3505C70.0264 49.4356 69.865 49.49 69.6977 49.5106L50.7123 52.8741Z" fill="#36AEB4"/>
<path d="M44.9393 57.7551L33.5605 77.0069C33.5352 77.0525 33.5062 77.096 33.4738 77.1369L33.3746 77.2484C33.2633 77.3598 33.1274 77.4435 32.9779 77.493C32.8284 77.5425 32.6694 77.5563 32.5136 77.5334C32.4145 77.5334 29.7076 77.5334 29.6085 77.5334C29.4401 77.5585 29.268 77.5437 29.1063 77.4903C28.9445 77.4369 28.7976 77.3464 28.6771 77.226C28.5567 77.1055 28.4661 76.9585 28.4127 76.7968C28.3593 76.635 28.3446 76.463 28.3697 76.2945L29.5528 68.1057L32.972 66.5386L33.3499 63.9618C33.379 63.7633 33.3654 63.5609 33.3099 63.3682C33.2544 63.1754 33.1583 62.9968 33.028 62.8442C32.8978 62.6917 32.7364 62.5688 32.5547 62.4837C32.3731 62.3987 32.1753 62.3535 31.9747 62.3513H19.6853C19.4811 62.3498 19.2796 62.3039 19.0949 62.2166C18.9102 62.1294 18.7468 62.003 18.6159 61.8462C18.485 61.6893 18.3899 61.5059 18.3371 61.3086C18.2843 61.1113 18.2751 60.9048 18.3102 60.7036L22.5409 40.659C22.6642 40.0709 22.9854 39.5429 23.451 39.163C23.9165 38.7831 24.4982 38.5743 25.0991 38.5715H37.8841C38.1835 38.5747 38.4782 38.6467 38.7453 38.782C39.0124 38.9174 39.2448 39.1123 39.4245 39.3519C39.6042 39.5915 39.7263 39.8692 39.7814 40.1635C39.8365 40.4578 39.8232 40.7609 39.7423 41.0492L36.1187 53.7908C36.0516 54.0053 36.0359 54.2326 36.073 54.4544C36.1101 54.6761 36.1989 54.8859 36.3322 55.0669C36.4655 55.2479 36.6396 55.3949 36.8404 55.496C37.0411 55.5972 37.2628 55.6496 37.4876 55.6491H43.7438C43.9876 55.655 44.2256 55.724 44.4348 55.8492C44.644 55.9745 44.8172 56.1517 44.9376 56.3638C45.058 56.5758 45.1214 56.8154 45.1217 57.0592C45.122 57.303 45.0592 57.5428 44.9393 57.7551Z" fill="#FFAE10"/>
<path d="M44.9393 57.7551L33.5605 77.0069C33.5352 77.0525 33.5062 77.096 33.4737 77.1369L33.3746 77.2484C33.2633 77.3598 33.1274 77.4435 32.9779 77.493C32.8284 77.5425 32.6694 77.5563 32.5136 77.5334C32.3676 77.5191 32.226 77.4752 32.0975 77.4042C31.969 77.3333 31.8564 77.2369 31.7665 77.1209C31.6766 77.0049 31.6114 76.8718 31.5747 76.7297C31.5381 76.5876 31.5309 76.4395 31.5535 76.2945L32.9658 66.5386L33.3437 63.9618C33.3728 63.7633 33.3592 63.5609 33.3037 63.3682C33.2482 63.1754 33.1521 62.9968 33.0218 62.8442C32.8916 62.6917 32.7302 62.5688 32.5485 62.4837C32.3669 62.3987 32.1691 62.3535 31.9685 62.3513H22.8754C22.6708 62.3509 22.4688 62.3056 22.2835 62.2188C22.0983 62.1319 21.9344 62.0054 21.8033 61.8484C21.6722 61.6913 21.5771 61.5074 21.5248 61.3096C21.4724 61.1118 21.464 60.905 21.5003 60.7036L25.7371 40.659C25.8591 40.0714 26.1791 39.5435 26.6437 39.1635C27.1082 38.7836 27.689 38.5746 28.2891 38.5715H37.884C38.1835 38.5747 38.4782 38.6467 38.7453 38.782C39.0124 38.9174 39.2448 39.1123 39.4245 39.3519C39.6042 39.5915 39.7263 39.8692 39.7814 40.1635C39.8365 40.4578 39.8231 40.7609 39.7423 41.0492L36.1187 53.7908C36.0515 54.0053 36.0359 54.2326 36.073 54.4544C36.1101 54.6761 36.1989 54.8859 36.3322 55.0669C36.4655 55.2479 36.6396 55.3949 36.8403 55.496C37.0411 55.5972 37.2628 55.6496 37.4876 55.6491H43.7438C43.9876 55.655 44.2256 55.724 44.4348 55.8492C44.644 55.9745 44.8172 56.1517 44.9376 56.3638C45.058 56.5758 45.1214 56.8154 45.1217 57.0592C45.122 57.303 45.0591 57.5428 44.9393 57.7551Z" fill="#F5E66C"/>
<path d="M42.827 59.0994C42.7052 59.0994 42.5856 59.0674 42.4801 59.0065C42.3284 58.9152 42.219 58.7674 42.176 58.5955C42.133 58.4236 42.16 58.2417 42.251 58.0897L42.4182 57.811H37.4628C36.4965 57.8119 35.5678 57.4364 34.8736 56.7642C34.8114 56.7025 34.7621 56.6292 34.7284 56.5484C34.6947 56.4676 34.6774 56.3809 34.6774 56.2934C34.6774 56.2059 34.6947 56.1192 34.7284 56.0384C34.7621 55.9576 34.8114 55.8843 34.8736 55.8226C34.9999 55.6982 35.1701 55.6284 35.3475 55.6284C35.5248 55.6284 35.695 55.6982 35.8213 55.8226C36.2648 56.2566 36.8609 56.4991 37.4814 56.4978H43.6075C43.7256 56.4978 43.8415 56.5289 43.9437 56.5882C44.0458 56.6475 44.1304 56.7327 44.1889 56.8353C44.2474 56.9378 44.2777 57.054 44.2768 57.1721C44.2759 57.2902 44.2437 57.4059 44.1836 57.5075L43.4093 58.7959C43.3474 58.8931 43.261 58.9724 43.1588 59.0256C43.0566 59.0789 42.9422 59.1044 42.827 59.0994Z" fill="#FFFFFA"/>
<path d="M38.4044 41.5014C38.3388 41.5129 38.2717 41.5129 38.2062 41.5014C38.0639 41.4467 37.9446 41.345 37.868 41.2132C37.7914 41.0814 37.7621 40.9274 37.7849 40.7767H27.806C27.6286 40.7767 27.4584 40.7062 27.333 40.5808C27.2075 40.4553 27.137 40.2852 27.137 40.1077C27.137 39.9303 27.2075 39.7602 27.333 39.6347C27.4584 39.5092 27.6286 39.4388 27.806 39.4388H37.915C38.1047 39.4372 38.292 39.4808 38.4615 39.566C38.631 39.6512 38.7778 39.7755 38.8897 39.9286C39.0017 40.0817 39.0756 40.2592 39.1054 40.4466C39.1352 40.6339 39.1199 40.8256 39.061 41.0059C39.0233 41.1504 38.938 41.2779 38.8188 41.3679C38.6997 41.4578 38.5536 41.5049 38.4044 41.5014Z" fill="#FFFFFA"/>
<path d="M33.3436 63.9494L32.9658 66.5262L29.5466 68.0933L30.166 63.9494C30.1961 63.7513 30.1834 63.549 30.1287 63.3562C30.0739 63.1635 29.9784 62.9847 29.8487 62.832C29.7189 62.6794 29.5579 62.5563 29.3764 62.4712C29.195 62.3862 28.9974 62.341 28.7971 62.3389H31.9871C32.1861 62.3438 32.3818 62.3908 32.5612 62.477C32.7406 62.5632 32.8997 62.6865 33.028 62.8387C33.1562 62.9909 33.2507 63.1687 33.3051 63.3601C33.3595 63.5516 33.3726 63.7524 33.3436 63.9494Z" fill="#E4800C"/>
</g>
<defs>
<clipPath id="clip0_6418_60245">
<rect width="100" height="100" fill="white"/>
</clipPath>
</defs>
</svg>
