<svg width="100" height="100" viewBox="0 0 100 100" fill="none" xmlns="http://www.w3.org/2000/svg">
<g clip-path="url(#clip0_6418_60368)">
<path d="M56.9314 75.3965H42.5607C41.9381 75.3965 41.4333 75.9012 41.4333 76.5238C41.4333 77.1465 41.9381 77.6512 42.5607 77.6512H56.9314C57.554 77.6512 58.0587 77.1465 58.0587 76.5238C58.0587 75.9012 57.554 75.3965 56.9314 75.3965Z" fill="#AEDFFF"/>
<path d="M68.3845 49.0088L52.5706 75.768C52.5329 75.8322 52.4916 75.8943 52.4467 75.9538L52.3043 76.1087C52.1495 76.2631 51.9609 76.3794 51.7534 76.4482C51.5459 76.517 51.3251 76.5365 51.1088 76.5051C50.9787 76.5051 47.2126 76.5051 47.0763 76.5051C46.8395 76.5424 46.5972 76.5231 46.3693 76.4487C46.1414 76.3743 45.9344 76.247 45.7652 76.0772C45.596 75.9074 45.4694 75.6999 45.3958 75.4717C45.3222 75.2435 45.3038 75.0012 45.3419 74.7645L46.9896 63.3795L51.7406 61.1991L52.2609 57.6064C52.3026 57.3308 52.2846 57.0495 52.2081 56.7814C52.1316 56.5134 51.9984 56.2649 51.8175 56.0528C51.6365 55.8408 51.4121 55.6701 51.1595 55.5523C50.9068 55.4346 50.6318 55.3725 50.3531 55.3703H33.2817C33.0001 55.3676 32.7223 55.3042 32.4674 55.1843C32.2125 55.0644 31.9865 54.8909 31.8048 54.6757C31.6231 54.4605 31.4899 54.2086 31.4145 53.9372C31.3391 53.6658 31.3231 53.3813 31.3677 53.1032L37.2522 25.2291C37.4236 24.4114 37.8699 23.6771 38.5168 23.1485C39.1638 22.6199 39.9723 22.3289 40.8077 22.324H58.579C58.9966 22.3284 59.4076 22.4294 59.7797 22.619C60.1517 22.8087 60.4749 23.0818 60.7238 23.4172C60.9728 23.7525 61.1408 24.1409 61.2146 24.5519C61.2885 24.963 61.2663 25.3855 61.1497 25.7866L56.1261 43.4959C56.0399 43.7921 56.0235 44.1042 56.0783 44.4077C56.1331 44.7112 56.2575 44.9979 56.4418 45.2452C56.6261 45.4925 56.8652 45.6937 57.1404 45.833C57.4156 45.9723 57.7193 46.0459 58.0277 46.048H66.6997C67.0461 46.0472 67.3865 46.1384 67.6861 46.3122C67.9857 46.486 68.2339 46.7362 68.4052 47.0373C68.5765 47.3383 68.6648 47.6795 68.6612 48.0258C68.6576 48.3722 68.5621 48.7114 68.3845 49.0088Z" fill="#FFAE10"/>
<path d="M68.3845 49.0089L52.5706 75.7681C52.5329 75.8324 52.4916 75.8944 52.4467 75.9539L52.3043 76.1088C52.1495 76.2633 51.9609 76.3795 51.7534 76.4483C51.5459 76.5172 51.3251 76.5366 51.1088 76.5052C50.9048 76.4843 50.7072 76.4218 50.5283 76.3216C50.3494 76.2213 50.193 76.0854 50.0688 75.9222C49.9445 75.7591 49.8551 75.5721 49.8059 75.373C49.7568 75.1739 49.7491 74.9669 49.7832 74.7646L51.7406 61.1992L52.2609 57.6066C52.3026 57.3309 52.2846 57.0496 52.2081 56.7815C52.1316 56.5135 51.9984 56.265 51.8175 56.053C51.6365 55.8409 51.4121 55.6702 51.1595 55.5525C50.9068 55.4347 50.6318 55.3726 50.3531 55.3704H37.7168C37.4351 55.3677 37.1574 55.3043 36.9025 55.1844C36.6476 55.0645 36.4216 54.8911 36.2399 54.6758C36.0581 54.4606 35.925 54.2087 35.8496 53.9373C35.7742 53.6659 35.7582 53.3815 35.8028 53.1033L41.6873 25.2292C41.8626 24.4202 42.3074 23.6947 42.9488 23.1714C43.5902 22.6482 44.3903 22.3582 45.218 22.3489H58.579C58.9966 22.3533 59.4076 22.4543 59.7797 22.6439C60.1517 22.8336 60.4749 23.1067 60.7239 23.4421C60.9728 23.7774 61.1408 24.1658 61.2146 24.5768C61.2885 24.9879 61.2663 25.4104 61.1497 25.8115L56.1261 43.4961C56.0399 43.7922 56.0235 44.1043 56.0783 44.4078C56.1331 44.7113 56.2575 44.998 56.4418 45.2453C56.6261 45.4927 56.8652 45.6939 57.1404 45.8331C57.4156 45.9724 57.7193 46.046 58.0278 46.0481H66.6997C67.0461 46.0473 67.3865 46.1385 67.6861 46.3123C67.9857 46.4861 68.2339 46.7363 68.4052 47.0374C68.5765 47.3385 68.6648 47.6796 68.6612 48.026C68.6576 48.3723 68.5621 48.7115 68.3845 49.0089Z" fill="#F5E66C"/>
<path d="M65.4485 50.8795C65.284 50.8798 65.1224 50.8365 64.9802 50.7539C64.838 50.6713 64.7202 50.5525 64.639 50.4095C64.5577 50.2665 64.5159 50.1045 64.5177 49.94C64.5195 49.7756 64.565 49.6146 64.6494 49.4734L64.8786 49.0894H58.003C56.6562 49.0931 55.3618 48.5682 54.3979 47.6276C54.2305 47.4539 54.1371 47.222 54.1376 46.9807C54.1381 46.7395 54.2324 46.5079 54.4005 46.335C54.5687 46.162 54.7975 46.0612 55.0386 46.0539C55.2797 46.0466 55.5142 46.1333 55.6925 46.2958C56.3105 46.898 57.1401 47.2339 58.003 47.2311H66.5201C66.684 47.2319 66.8448 47.2761 66.9862 47.3591C67.1275 47.4421 67.2444 47.5611 67.3249 47.7039C67.4054 47.8467 67.4467 48.0082 67.4446 48.1722C67.4425 48.3361 67.3971 48.4965 67.3129 48.6372L66.2413 50.4274C66.1593 50.5646 66.0431 50.6783 65.9043 50.7575C65.7654 50.8367 65.6084 50.8788 65.4485 50.8795Z" fill="#FDFBCA"/>
<path d="M59.3285 26.369C59.2339 26.3693 59.1398 26.3547 59.0498 26.3257C58.8597 26.2609 58.6962 26.1355 58.5843 25.9688C58.4723 25.802 58.4183 25.6032 58.4304 25.4027H44.5986C44.3522 25.4027 44.1159 25.3048 43.9416 25.1306C43.7674 24.9563 43.6695 24.72 43.6695 24.4736C43.6695 24.2272 43.7674 23.9908 43.9416 23.8166C44.1159 23.6423 44.3522 23.5444 44.5986 23.5444H58.6224C58.8851 23.5437 59.1444 23.605 59.3789 23.7235C59.6134 23.842 59.8166 24.0143 59.9718 24.2263C60.127 24.4383 60.2299 24.684 60.272 24.9434C60.3142 25.2027 60.2944 25.4684 60.2143 25.7186C60.155 25.9071 60.0372 26.0718 59.8779 26.1888C59.7186 26.3058 59.5262 26.3689 59.3285 26.369Z" fill="#FDFBCA"/>
<path d="M52.2609 57.6065L51.7406 61.1868L46.9896 63.3671L47.8258 57.6065C47.8675 57.3309 47.8495 57.0495 47.773 56.7815C47.6965 56.5134 47.5633 56.2649 47.3824 56.0529C47.2015 55.8408 46.9771 55.6701 46.7244 55.5524C46.4717 55.4346 46.1967 55.3725 45.918 55.3704H50.3531C50.6318 55.3725 50.9068 55.4346 51.1595 55.5524C51.4121 55.6701 51.6365 55.8408 51.8175 56.0529C51.9984 56.2649 52.1316 56.5134 52.2081 56.7815C52.2846 57.0495 52.3026 57.3309 52.2609 57.6065Z" fill="#E4800C"/>
</g>
<defs>
<clipPath id="clip0_6418_60368">
<rect width="100" height="100" fill="white"/>
</clipPath>
</defs>
</svg>
