<svg width="100" height="100" viewBox="0 0 100 100" fill="none" xmlns="http://www.w3.org/2000/svg">
<g clip-path="url(#clip0_6418_60404)">
<path d="M72.0329 72.9683H27.9732C27.3609 72.9683 26.8644 73.4647 26.8644 74.077C26.8644 74.6894 27.3609 75.1858 27.9732 75.1858H72.0329C72.6453 75.1858 73.1417 74.6894 73.1417 74.077C73.1417 73.4647 72.6453 72.9683 72.0329 72.9683Z" fill="#AEDFFF"/>
<path d="M71.6551 47.8134C71.4266 47.3336 71.0944 46.9105 70.6826 46.5746L54.5094 33.0215C53.2729 31.9917 51.7145 31.4277 50.1053 31.4277C48.4961 31.4277 46.9377 31.9917 45.7012 33.0215L29.3917 46.5064C28.9816 46.8475 28.6515 47.2745 28.4246 47.7572C28.1976 48.24 28.0795 48.7666 28.0786 49.3V68.5765C28.0818 69.8766 28.5997 71.1226 29.5191 72.0419C30.4384 72.9612 31.6843 73.4791 32.9844 73.4824H67.0528C68.3535 73.4791 69.6 72.9614 70.5203 72.0423C71.4406 71.1231 71.9599 69.8772 71.9648 68.5765V49.3248C71.9701 48.8047 71.8645 48.2895 71.6551 47.8134Z" fill="#0A6267"/>
<path d="M34.4338 27.4714L32.8295 57.8047L30.0979 28.8837C30.0851 28.7527 30.0984 28.6203 30.137 28.4944C30.1756 28.3685 30.2388 28.2515 30.3229 28.1502C30.4069 28.0488 30.5103 27.9651 30.6269 27.9039C30.7435 27.8427 30.871 27.8052 31.0022 27.7935L34.4338 27.4714Z" fill="#F5E66C"/>
<path d="M63.8627 26.4371L52.168 25.8177L62.6982 24.8328C62.8293 24.8182 62.962 24.8298 63.0886 24.8668C63.2151 24.9039 63.3331 24.9656 63.4357 25.0486C63.5382 25.1316 63.6233 25.234 63.686 25.3501C63.7486 25.4662 63.7877 25.5935 63.8008 25.7247L63.8627 26.4371Z" fill="#F5E66C"/>
<path d="M66.8979 58.4799C66.9205 58.7446 66.8384 59.0076 66.6694 59.2126C66.5003 59.4175 66.2577 59.5481 65.9936 59.5763L52.9237 60.8151L34.2666 62.5619C34.0006 62.586 33.7358 62.5037 33.5303 62.3331C33.3248 62.1624 33.1953 61.9173 33.1702 61.6513L32.9534 59.3718L32.8295 57.8047L34.4524 27.4529L52.1866 25.7866L63.8813 26.406L66.7554 57.0924L66.8979 58.4799Z" fill="#E4800C"/>
<path d="M70.1561 28.8715L67.3006 59.8985C67.2679 60.2656 67.1631 60.6227 66.9921 60.9492C66.8211 61.2757 66.5873 61.5652 66.3042 61.8012C66.021 62.0371 65.6941 62.2149 65.3421 62.3242C64.9901 62.4335 64.62 62.4722 64.253 62.4381L36.1373 59.8551C35.7699 59.8217 35.4127 59.7161 35.0862 59.5445C34.7596 59.3729 34.4701 59.1385 34.2342 58.8549C33.9983 58.5712 33.8207 58.2439 33.7115 57.8915C33.6022 57.5391 33.5635 57.1687 33.5976 56.8014L36.4532 25.7744C36.4641 25.6511 36.4992 25.5312 36.5565 25.4215C36.6137 25.3118 36.6921 25.2145 36.787 25.1351C36.8819 25.0557 36.9916 24.9958 37.1097 24.9588C37.2278 24.9218 37.352 24.9085 37.4752 24.9195L69.3013 27.8742C69.5456 27.8963 69.7717 28.0129 69.9313 28.1992C70.091 28.3854 70.1716 28.6266 70.1561 28.8715Z" fill="#D0FDFF"/>
<path d="M65.7891 33.1136L39.9749 30.7416C39.5559 30.7031 39.185 31.0116 39.1465 31.4306L38.9952 33.0775C38.9567 33.4965 39.2652 33.8674 39.6842 33.9059L65.4984 36.2779C65.9174 36.3164 66.2883 36.0079 66.3268 35.5889L66.4781 33.942C66.5166 33.523 66.2082 33.1521 65.7891 33.1136Z" fill="#88EAEF"/>
<path d="M65.1083 38.5405L39.6519 36.2014C39.1341 36.1538 38.6757 36.535 38.6281 37.0528L38.3589 39.9827C38.3113 40.5005 38.6925 40.9589 39.2103 41.0065L64.6668 43.3456C65.1846 43.3932 65.6429 43.012 65.6905 42.4942L65.9597 39.5642C66.0073 39.0464 65.6261 38.5881 65.1083 38.5405Z" fill="#88EAEF"/>
<path d="M64.6982 44.95L38.884 42.578C38.465 42.5395 38.0941 42.848 38.0556 43.267L37.9043 44.9139C37.8658 45.3329 38.1742 45.7038 38.5932 45.7423L64.4074 48.1143C64.8265 48.1528 65.1973 47.8444 65.2358 47.4253L65.3872 45.7784C65.4257 45.3594 65.1172 44.9885 64.6982 44.95Z" fill="#88EAEF"/>
<path d="M63.8318 49.4274L38.9181 47.1382C38.2504 47.0768 37.6594 47.5684 37.5981 48.2361L37.0874 53.7937C37.0261 54.4614 37.5176 55.0524 38.1853 55.1138L63.0989 57.403C63.7666 57.4644 64.3576 56.9728 64.419 56.3051L64.9297 50.7475C64.991 50.0798 64.4995 49.4888 63.8318 49.4274Z" fill="#88EAEF"/>
<path d="M47.6957 58.5791C47.6397 58.6126 47.5859 58.6499 47.5347 58.6905L29.7324 72.2312L28.6546 73.055C28.4797 72.8991 28.3392 72.7084 28.2421 72.495C28.1451 72.2817 28.0936 72.0505 28.0909 71.8162V49.3001C28.0912 48.7759 28.2053 48.2581 28.4254 47.7825L47.6957 58.5791Z" fill="#1A8086"/>
<path d="M71.9834 49.3249V71.7976C71.9812 72.0314 71.9305 72.2623 71.8346 72.4755C71.7386 72.6887 71.5995 72.8797 71.4259 73.0365L70.3543 72.2064L52.9175 58.7154C52.8586 58.6679 52.7965 58.6244 52.7317 58.5853L71.6551 47.8135C71.871 48.2881 71.9829 48.8034 71.9834 49.3249Z" fill="#1A8086"/>
<path d="M71.4259 73.0488C71.1157 73.3301 70.7112 73.4849 70.2924 73.4824H29.7696C29.3539 73.4838 28.9524 73.3316 28.6422 73.055L47.5099 58.6905C47.5611 58.6498 47.6149 58.6126 47.671 58.579C48.4121 58.0587 49.2957 57.7795 50.2013 57.7795C51.1069 57.7795 51.9905 58.0587 52.7317 58.579C52.7964 58.6182 52.8585 58.6616 52.9175 58.7091L71.4259 73.0488Z" fill="#17B5BC"/>
</g>
<defs>
<clipPath id="clip0_6418_60404">
<rect width="100" height="100" fill="white"/>
</clipPath>
</defs>
</svg>
