<svg width="100" height="100" viewBox="0 0 100 100" fill="none" xmlns="http://www.w3.org/2000/svg">
<g clip-path="url(#clip0_6418_60378)">
<path d="M36.1656 7.07568H11.1983C7.20434 7.07568 3.96661 10.3134 3.96661 14.3073V39.2746C3.96661 43.2686 7.20434 46.5063 11.1983 46.5063H36.1656C40.1595 46.5063 43.3972 43.2686 43.3972 39.2746V14.3073C43.3972 10.3134 40.1595 7.07568 36.1656 7.07568Z" fill="#E4800C"/>
<path d="M85.0754 7.07568H60.1081C56.1142 7.07568 52.8765 10.3134 52.8765 14.3073V39.2746C52.8765 43.2686 56.1142 46.5063 60.1081 46.5063H85.0754C89.0694 46.5063 92.3071 43.2686 92.3071 39.2746V14.3073C92.3071 10.3134 89.0694 7.07568 85.0754 7.07568Z" fill="#0A6267"/>
<path d="M36.1656 53.4934H11.1983C7.20434 53.4934 3.96661 56.7311 3.96661 60.7251V85.6924C3.96661 89.6863 7.20434 92.924 11.1983 92.924H36.1656C40.1595 92.924 43.3972 89.6863 43.3972 85.6924V60.7251C43.3972 56.7311 40.1595 53.4934 36.1656 53.4934Z" fill="#0A6267"/>
<path d="M85.0754 53.4934H60.1081C56.1142 53.4934 52.8765 56.7311 52.8765 60.7251V85.6924C52.8765 89.6863 56.1142 92.924 60.1081 92.924H85.0754C89.0694 92.924 92.3071 89.6863 92.3071 85.6924V60.7251C92.3071 56.7311 89.0694 53.4934 85.0754 53.4934Z" fill="#E4800C"/>
<path d="M39.9035 7.07568H14.9363C10.9423 7.07568 7.70459 10.3134 7.70459 14.3073V39.2746C7.70459 43.2686 10.9423 46.5063 14.9363 46.5063H39.9035C43.8975 46.5063 47.1352 43.2686 47.1352 39.2746V14.3073C47.1352 10.3134 43.8975 7.07568 39.9035 7.07568Z" fill="#F5E66C"/>
<path d="M88.8134 7.07568H63.8461C59.8522 7.07568 56.6144 10.3134 56.6144 14.3073V39.2746C56.6144 43.2686 59.8522 46.5063 63.8461 46.5063H88.8134C92.8073 46.5063 96.0451 43.2686 96.0451 39.2746V14.3073C96.0451 10.3134 92.8073 7.07568 88.8134 7.07568Z" fill="#36AEB4"/>
<path d="M39.9035 53.4934H14.9363C10.9423 53.4934 7.70459 56.7311 7.70459 60.7251V85.6924C7.70459 89.6863 10.9423 92.924 14.9363 92.924H39.9035C43.8975 92.924 47.1352 89.6863 47.1352 85.6924V60.7251C47.1352 56.7311 43.8975 53.4934 39.9035 53.4934Z" fill="#36AEB4"/>
<path d="M88.8134 53.4934H63.8461C59.8522 53.4934 56.6144 56.7311 56.6144 60.7251V85.6924C56.6144 89.6863 59.8522 92.924 63.8461 92.924H88.8134C92.8073 92.924 96.0451 89.6863 96.0451 85.6924V60.7251C96.0451 56.7311 92.8073 53.4934 88.8134 53.4934Z" fill="#F5E66C"/>
</g>
<defs>
<clipPath id="clip0_6418_60378">
<rect width="100" height="100" fill="white"/>
</clipPath>
</defs>
</svg>
