<svg width="100" height="100" viewBox="0 0 100 100" fill="none" xmlns="http://www.w3.org/2000/svg">
<g clip-path="url(#clip0_6418_60186)">
<path d="M78.8342 71.1409H21.1782C20.5555 71.1409 20.0508 71.6456 20.0508 72.2682C20.0508 72.8908 20.5555 73.3956 21.1782 73.3956H78.8342C79.4569 73.3956 79.9616 72.8908 79.9616 72.2682C79.9616 71.6456 79.4569 71.1409 78.8342 71.1409Z" fill="#AEDFFF"/>
<path d="M76.3008 50.099C75.9698 50.0989 75.6449 50.0104 75.3596 49.8427C75.0743 49.675 74.839 49.4342 74.6779 49.1451L69.3013 39.4635C69.1829 39.2499 69.1078 39.0152 69.0802 38.7726C69.0525 38.53 69.0729 38.2844 69.1402 38.0497C69.2075 37.8151 69.3204 37.5959 69.4724 37.4049C69.6244 37.2138 69.8125 37.0546 70.026 36.9362C70.2395 36.8178 70.4743 36.7427 70.7169 36.7151C70.9594 36.6874 71.2051 36.7079 71.4397 36.7752C71.6744 36.8424 71.8935 36.9553 72.0846 37.1073C72.2757 37.2593 72.4349 37.4474 72.5533 37.6609L77.9237 47.3425C78.1634 47.773 78.2224 48.281 78.0877 48.7549C77.9529 49.2289 77.6355 49.6299 77.2051 49.8698C76.9271 50.0194 76.6165 50.0981 76.3008 50.099Z" fill="#F5E66C"/>
<path d="M50.5947 50.0992C50.2869 50.0988 49.984 50.022 49.7133 49.8756C49.4425 49.7292 49.2124 49.5179 49.0435 49.2606C48.8746 49.0033 48.7723 48.708 48.7457 48.4014C48.7191 48.0948 48.7691 47.7863 48.8912 47.5038L57.1853 28.4937H36.0258C35.4626 28.4953 34.9112 28.6546 34.4339 28.9535C33.9566 29.2523 33.5725 29.6788 33.3251 30.1847L24.1576 49.0586C23.9329 49.4866 23.5503 49.8103 23.091 49.9608C22.6316 50.1114 22.1317 50.0771 21.6973 49.8651C21.2628 49.6531 20.9281 49.2802 20.7641 48.8254C20.6001 48.3707 20.6197 47.87 20.8189 47.4295L29.9802 28.5308C30.5402 27.4057 31.4023 26.4586 32.47 25.7956C33.5378 25.1327 34.769 24.78 36.0258 24.7771H60.0223C60.3309 24.7771 60.6346 24.8539 60.9061 25.0006C61.1776 25.1473 61.4082 25.3593 61.5772 25.6174C61.7463 25.8756 61.8484 26.1718 61.8743 26.4793C61.9002 26.7868 61.8492 27.0959 61.7257 27.3787L52.2981 48.9842C52.1534 49.3157 51.9152 49.5977 51.6126 49.7957C51.3101 49.9938 50.9563 50.0993 50.5947 50.0992Z" fill="#FFAE10"/>
<path d="M83.1207 44.927H40.3803C39.2069 44.927 38.2557 45.8782 38.2557 47.0516V49.4364C38.2557 50.6098 39.2069 51.561 40.3803 51.561H83.1207C84.2941 51.561 85.2453 50.6098 85.2453 49.4364V47.0516C85.2453 45.8782 84.2941 44.927 83.1207 44.927Z" fill="#36AEB4"/>
<path d="M81.281 55.0112L79.4227 68.4342C79.2854 69.4216 78.7962 70.3263 78.0451 70.9818C77.294 71.6373 76.3314 71.9996 75.3345 72.0021H52.744C53.5022 71.9942 54.2322 71.7139 54.8008 71.2124C55.3694 70.7109 55.7386 70.0216 55.8412 69.2704L57.7552 55.0236L81.281 55.0112Z" fill="#36AEB4"/>
<path d="M59.6259 44.927H16.8855C15.7121 44.927 14.7609 45.8782 14.7609 47.0516V49.4364C14.7609 50.6098 15.7121 51.561 16.8855 51.561H59.6259C60.7993 51.561 61.7505 50.6098 61.7505 49.4364V47.0516C61.7505 45.8782 60.7993 44.927 59.6259 44.927Z" fill="#1A8086"/>
<path d="M57.7862 55.0112L55.8721 69.258C55.7696 70.0092 55.4003 70.6985 54.8317 71.2C54.2631 71.7015 53.5331 71.9818 52.775 71.9897H23.7673C23.0092 71.9818 22.2792 71.7015 21.7106 71.2C21.142 70.6985 20.7728 70.0092 20.6702 69.258L18.7562 55.0112H57.7862Z" fill="#1A8086"/>
<path d="M81.7455 51.561L81.281 55.0112H57.7862L58.2507 51.561H81.7455Z" fill="#1A8086"/>
<path d="M58.2507 51.561L57.7862 55.0112H18.7252L18.2607 51.561H58.2507Z" fill="#0A6267"/>
<path d="M51.1026 50.0992C50.7489 50.0994 50.4024 49.9987 50.104 49.8089C49.8055 49.6191 49.5675 49.348 49.4177 49.0276L40.1635 29.206C39.9505 28.7287 39.8598 28.2059 39.8995 27.6848C39.9391 27.1637 40.108 26.6607 40.3908 26.2212C40.6735 25.7816 41.0613 25.4195 41.5191 25.1674C41.9769 24.9152 42.4903 24.7811 43.0129 24.7771H60.6603C62.0907 24.7809 63.4943 25.1657 64.7266 25.8918C65.959 26.618 66.9757 27.6593 67.6722 28.9087L72.5533 37.6921C72.6716 37.9056 72.7468 38.1404 72.7744 38.383C72.802 38.6255 72.7816 38.8712 72.7143 39.1058C72.647 39.3405 72.5342 39.5596 72.3822 39.7507C72.2302 39.9418 72.0421 40.101 71.8285 40.2194C71.615 40.3377 71.3803 40.4129 71.1377 40.4405C70.8951 40.4681 70.6495 40.4477 70.4148 40.3804C70.1801 40.3131 69.961 40.2003 69.77 40.0483C69.5789 39.8963 69.4196 39.7082 69.3013 39.4946L64.4202 30.6802C64.0416 30.0169 63.4945 29.4654 62.8343 29.0814C62.174 28.6974 61.4241 28.4947 60.6603 28.4937H43.9358L52.7812 47.4543C52.8858 47.6754 52.9458 47.9151 52.9576 48.1595C52.9693 48.4039 52.9327 48.6482 52.8499 48.8784C52.767 49.1086 52.6395 49.3202 52.4746 49.501C52.3098 49.6818 52.1108 49.8282 51.8892 49.932C51.6424 50.0445 51.3739 50.1015 51.1026 50.0992Z" fill="#F5E66C"/>
<path d="M62.977 69.3757H62.8283C62.7082 69.3568 62.593 69.3144 62.4893 69.2509C62.3856 69.1874 62.2955 69.1041 62.2241 69.0057C62.1528 68.9072 62.1015 68.7957 62.0734 68.6774C62.0453 68.5591 62.0408 68.4365 62.0602 68.3164L63.7512 57.5632C63.7703 57.4412 63.8133 57.3241 63.8777 57.2187C63.942 57.1133 64.0265 57.0216 64.1263 56.9489C64.2261 56.8761 64.3392 56.8237 64.4593 56.7947C64.5793 56.7656 64.7039 56.7605 64.8259 56.7796C64.948 56.7988 65.065 56.8417 65.1704 56.9061C65.2758 56.9704 65.3675 57.0549 65.4403 57.1547C65.5131 57.2545 65.5655 57.3677 65.5945 57.4877C65.6235 57.6077 65.6286 57.7323 65.6095 57.8543L63.9185 68.6014C63.8812 68.8222 63.7654 69.0222 63.5924 69.1645C63.4194 69.3068 63.2009 69.3818 62.977 69.3757Z" fill="#0A3D5D"/>
<path d="M68.2916 69.3757H68.143C67.9 69.3375 67.682 69.2046 67.5369 69.0061C67.3918 68.8075 67.3313 68.5595 67.3687 68.3164L69.0659 57.5632C69.085 57.4412 69.128 57.3241 69.1923 57.2187C69.2567 57.1133 69.3412 57.0216 69.441 56.9489C69.5408 56.8761 69.6539 56.8237 69.774 56.7947C69.894 56.7656 70.0186 56.7605 70.1406 56.7796C70.2626 56.7988 70.3797 56.8417 70.4851 56.9061C70.5905 56.9704 70.6822 57.0549 70.755 57.1547C70.8277 57.2545 70.8801 57.3677 70.9092 57.4877C70.9382 57.6077 70.9433 57.7323 70.9242 57.8543L69.2331 68.6014C69.1947 68.8217 69.0786 69.0209 68.9058 69.163C68.7331 69.305 68.5152 69.3805 68.2916 69.3757Z" fill="#0A3D5D"/>
<path d="M73.6063 69.3755H73.4576C73.337 69.3574 73.2211 69.3156 73.1167 69.2524C73.0123 69.1892 72.9215 69.106 72.8495 69.0075C72.7775 68.909 72.7257 68.7971 72.6972 68.6785C72.6687 68.5599 72.664 68.4368 72.6833 68.3163L74.3806 57.5631C74.3987 57.4424 74.4405 57.3265 74.5037 57.2222C74.5669 57.1178 74.6501 57.027 74.7486 56.9549C74.8471 56.8829 74.9589 56.8312 75.0776 56.8027C75.1962 56.7741 75.3193 56.7694 75.4398 56.7888C75.6807 56.8326 75.8946 56.9697 76.035 57.1704C76.1753 57.3711 76.2308 57.6191 76.1893 57.8604L74.4983 68.6074C74.46 68.8183 74.3506 69.0096 74.1883 69.1494C74.0259 69.2892 73.8205 69.369 73.6063 69.3755Z" fill="#0A3D5D"/>
<path d="M22.4542 50.0992C22.1731 50.0994 21.8957 50.0359 21.6427 49.9134C21.2017 49.6971 20.8643 49.3152 20.7041 48.8509C20.5439 48.3866 20.574 47.8778 20.7879 47.4356L25.9353 36.8497C26.1514 36.4061 26.5347 36.0665 27.0011 35.9056C27.4675 35.7448 27.9788 35.7757 28.4223 35.9918C28.8659 36.2078 29.2055 36.5912 29.3663 37.0576C29.5272 37.524 29.4963 38.0352 29.2802 38.4788L24.1576 49.0585C24.0021 49.3761 23.7592 49.6427 23.4575 49.827C23.1557 50.0113 22.8077 50.1057 22.4542 50.0992Z" fill="#FFAE10"/>
</g>
<defs>
<clipPath id="clip0_6418_60186">
<rect width="100" height="100" fill="white"/>
</clipPath>
</defs>
</svg>
