<svg width="100" height="100" viewBox="0 0 100 100" fill="none" xmlns="http://www.w3.org/2000/svg">
<g clip-path="url(#clip0_6418_60421)">
<path d="M69.4709 28.8401V68.5374C69.4997 69.6186 69.098 70.6671 68.3542 71.4523C67.6103 72.2376 66.5851 72.6954 65.5039 72.7252H28.4558C28.9952 72.7165 29.5275 72.601 30.0219 72.3853C30.5164 72.1697 30.9631 71.8581 31.3364 71.4686C31.7097 71.0792 32.002 70.6196 32.1965 70.1165C32.3911 69.6133 32.4839 69.0766 32.4697 68.5374V28.8401C32.4499 28.0463 32.746 27.2771 33.2928 26.7014C33.8397 26.1257 34.5927 25.7906 35.3864 25.7695H66.5876C67.3761 25.7975 68.1216 26.1359 68.6616 26.711C69.2017 27.2862 69.4926 28.0515 69.4709 28.8401Z" fill="#0A6267"/>
<path d="M73.7956 71.8354H26.2111C25.5497 71.8354 25.0136 72.3716 25.0136 73.0329C25.0136 73.6943 25.5497 74.2304 26.2111 74.2304H73.7956C74.4569 74.2304 74.993 73.6943 74.993 73.0329C74.993 72.3716 74.4569 71.8354 73.7956 71.8354Z" fill="#AEDFFF"/>
<path d="M72.471 28.8401V68.5374C72.4998 69.6186 72.0981 70.6671 71.3543 71.4523C70.6104 72.2376 69.5852 72.6954 68.504 72.7252H31.4559C31.9953 72.7165 32.5276 72.601 33.022 72.3853C33.5165 72.1697 33.9632 71.8581 34.3365 71.4686C34.7098 71.0792 35.0021 70.6196 35.1966 70.1165C35.3912 69.6133 35.484 69.0766 35.4698 68.5374V28.8401C35.45 28.0463 35.746 27.2771 36.2929 26.7014C36.8398 26.1257 37.5928 25.7906 38.3865 25.7695H69.5877C70.3762 25.7975 71.1217 26.1359 71.6617 26.711C72.2018 27.2862 72.4927 28.0515 72.471 28.8401Z" fill="#36AEB4"/>
<path d="M35.4698 56.9841V68.3568C35.4698 70.6514 33.7906 72.6516 31.6165 72.7118C31.0712 72.7138 30.5311 72.6063 30.0281 72.3957C29.5252 72.1851 29.0696 71.8757 28.6884 71.4858C28.3072 71.0959 28.0082 70.6334 27.8091 70.1258C27.6099 69.6182 27.5147 69.0758 27.529 68.5307V58.7034C27.5182 58.2592 27.6839 57.8288 27.9899 57.5065C28.2959 57.1842 28.7171 56.9964 29.1613 56.9841H35.4698Z" fill="#0A6267"/>
<path d="M66.8938 31.1436H41.2544C40.6025 31.1436 40.0741 31.6909 40.0741 32.3661V35.921C40.0741 36.5962 40.6025 37.1436 41.2544 37.1436H66.8938C67.5457 37.1436 68.0741 36.5962 68.0741 35.921V32.3661C68.0741 31.6909 67.5457 31.1436 66.8938 31.1436Z" fill="#D0FDFF"/>
<path d="M61.035 40.1436H41.1132C40.5393 40.1436 40.0741 40.632 40.0741 41.2345V45.0526C40.0741 45.6551 40.5393 46.1436 41.1132 46.1436H61.035C61.6089 46.1436 62.0741 45.6551 62.0741 45.0526V41.2345C62.0741 40.632 61.6089 40.1436 61.035 40.1436Z" fill="#D0FDFF"/>
<path d="M66.3006 50.1436H41.8476C40.8681 50.1436 40.0741 50.9302 40.0741 51.9005V61.3866C40.0741 62.357 40.8681 63.1436 41.8476 63.1436H66.3006C67.2801 63.1436 68.0741 62.357 68.0741 61.3866V51.9005C68.0741 50.9302 67.2801 50.1436 66.3006 50.1436Z" fill="#F5E66C"/>
</g>
<defs>
<clipPath id="clip0_6418_60421">
<rect width="100" height="100" fill="white"/>
</clipPath>
</defs>
</svg>
