<svg width="100" height="100" viewBox="0 0 100 100" fill="none" xmlns="http://www.w3.org/2000/svg">
<g clip-path="url(#clip0_6418_60432)">
<path d="M70.4968 55.9527L64.4202 33.1888C64.0875 32.0665 63.415 31.0748 62.4954 30.3505C61.5758 29.6261 60.4543 29.2046 59.2852 29.144H30.9279C30.1965 29.1242 29.4801 29.3536 28.8962 29.7944C28.3387 30.2342 26.4185 31.9996 25.9601 32.4765C25.5733 32.8959 25.3061 33.4114 25.1862 33.9692C25.0664 34.527 25.0983 35.1067 25.2787 35.648L31.3739 58.4118C31.7066 59.5342 32.3791 60.5258 33.2987 61.2502C34.2183 61.9746 35.3398 62.3961 36.5089 62.4567H64.8476C65.2844 62.4715 65.7194 62.3949 66.1247 62.2317C66.5301 62.0685 66.8968 61.8223 67.2014 61.509C67.5731 61.1001 69.4499 59.5454 69.9269 59.0313C70.2738 58.6078 70.5079 58.1035 70.6076 57.5652C70.7072 57.027 70.6691 56.4723 70.4968 55.9527Z" fill="#0A6267"/>
<path d="M73.7425 68.6013H28.9457C28.3231 68.6013 27.8184 69.1061 27.8184 69.7287C27.8184 70.3513 28.3231 70.856 28.9457 70.856H73.7425C74.3652 70.856 74.8699 70.3513 74.8699 69.7287C74.8699 69.1061 74.3652 68.6013 73.7425 68.6013Z" fill="#AEDFFF"/>
<path d="M67.5173 60.0038H39.1972C38.0287 59.9407 36.9084 59.5173 35.9901 58.792C35.0718 58.0667 34.4005 57.0749 34.0684 55.9528L27.9608 33.1889C27.3414 30.9528 28.6918 29.144 30.9279 29.144H59.2666C60.4389 29.2009 61.5646 29.6207 62.4879 30.3453C63.4112 31.07 64.0864 32.0637 64.4202 33.1889L70.5154 55.9528C71.0976 58.1889 69.772 60.0038 67.5173 60.0038Z" fill="#1A8086"/>
<path d="M57.049 48.9099L54.8439 40.6777H43.3845L45.5897 48.9099H57.049Z" fill="#36AEB4"/>
<path d="M51.7529 29.144H40.2936L42.7217 38.2H54.1811L51.7529 29.144Z" fill="#36AEB4"/>
<path d="M66.4024 40.6777H57.4083L59.6135 48.9099H68.6137L66.4024 40.6777Z" fill="#36AEB4"/>
<path d="M40.8201 40.6777H29.9678L32.1729 48.9099H43.0253L40.8201 40.6777Z" fill="#36AEB4"/>
<path d="M57.7119 51.3875H46.2525L48.563 60.0037H60.0223L57.7119 51.3875Z" fill="#36AEB4"/>
<path d="M43.6881 51.4124H32.8295L34.0684 55.9775C34.4008 57.1006 35.073 58.0931 35.9926 58.8185C36.9121 59.5439 38.0338 59.9667 39.2034 60.0286H46.0171L43.6881 51.4124Z" fill="#36AEB4"/>
<path d="M69.2765 51.4124H60.2762L62.5619 60.0038H67.5173C69.7535 60.0038 71.079 58.1889 70.4782 55.9527L69.2765 51.4124Z" fill="#36AEB4"/>
<path d="M29.305 38.2H40.1511L37.7292 29.144H30.9155C28.6794 29.144 27.3538 30.9528 27.9484 33.1889L29.305 38.2Z" fill="#36AEB4"/>
<path d="M56.7455 38.2H65.7396L64.4202 33.1889C64.0875 32.0665 63.415 31.0749 62.4954 30.3505C61.5758 29.6261 60.4543 29.2046 59.2852 29.144H54.3298L56.7455 38.2Z" fill="#36AEB4"/>
<path d="M35.9267 50.3344L36.9611 52.2298C37.0205 52.3386 37.1111 52.4271 37.2213 52.4838L39.1105 53.5182C39.2204 53.5667 39.3139 53.6461 39.3795 53.7467C39.4451 53.8473 39.48 53.9649 39.48 54.085C39.48 54.2051 39.4451 54.3227 39.3795 54.4233C39.3139 54.5239 39.2204 54.6033 39.1105 54.6518L37.1655 55.6862C37.0554 55.7429 36.9647 55.8314 36.9054 55.9402L35.9267 57.8356C35.8774 57.9438 35.7981 58.0355 35.6981 58.0997C35.5982 58.164 35.4818 58.1982 35.363 58.1982C35.2442 58.1982 35.1278 58.164 35.0279 58.0997C34.9279 58.0355 34.8486 57.9438 34.7993 57.8356L33.7649 55.9402C33.691 55.8225 33.5798 55.733 33.449 55.6862L31.5907 54.6518C31.4808 54.6033 31.3873 54.5239 31.3217 54.4233C31.2561 54.3227 31.2212 54.2051 31.2212 54.085C31.2212 53.9649 31.2561 53.8473 31.3217 53.7467C31.3873 53.6461 31.4808 53.5667 31.5907 53.5182L33.449 52.4838C33.5592 52.4271 33.6498 52.3386 33.7091 52.2298L34.7436 50.3344C34.7828 50.2081 34.8614 50.0978 34.9678 50.0194C35.0742 49.941 35.2029 49.8987 35.3351 49.8987C35.4673 49.8987 35.596 49.941 35.7025 50.0194C35.8089 50.0978 35.8875 50.2081 35.9267 50.3344Z" fill="#F5E66C"/>
<path d="M66.2289 31.1384L67.635 33.8949C67.7156 34.0494 67.8379 34.1782 67.9881 34.2665L70.5649 35.7717C70.7044 35.8592 70.8194 35.9807 70.8991 36.1248C70.9788 36.2689 71.0206 36.4309 71.0206 36.5956C71.0206 36.7602 70.9788 36.9222 70.8991 37.0663C70.8194 37.2104 70.7044 37.3319 70.5649 37.4194L67.9881 38.9246C67.8379 39.0129 67.7156 39.1417 67.635 39.2963L66.2289 42.0527C66.1604 42.1985 66.0518 42.3219 65.9158 42.4082C65.7798 42.4946 65.622 42.5405 65.4609 42.5405C65.2997 42.5405 65.1419 42.4946 65.0059 42.4082C64.8699 42.3219 64.7613 42.1985 64.6928 42.0527L63.2805 39.2963C63.2025 39.142 63.0822 39.013 62.9336 38.9246L60.3568 37.4194C60.2173 37.3319 60.1023 37.2104 60.0226 37.0663C59.9429 36.9222 59.9011 36.7602 59.9011 36.5956C59.9011 36.4309 59.9429 36.2689 60.0226 36.1248C60.1023 35.9807 60.2173 35.8592 60.3568 35.7717L62.9336 34.2665C63.0822 34.1781 63.2025 34.0492 63.2805 33.8949L64.6928 31.1384C64.7613 30.9926 64.8699 30.8693 65.0059 30.7829C65.1419 30.6965 65.2997 30.6506 65.4609 30.6506C65.622 30.6506 65.7798 30.6965 65.9158 30.7829C66.0518 30.8693 66.1604 30.9926 66.2289 31.1384Z" fill="#F5E66C"/>
<path d="M60.6294 64.6184H42.2758C41.4069 64.6184 40.7025 65.3228 40.7025 66.1917V68.3597C40.7025 69.2287 41.4069 69.9331 42.2758 69.9331H60.6294C61.4983 69.9331 62.2027 69.2287 62.2027 68.3597V66.1917C62.2027 65.3228 61.4983 64.6184 60.6294 64.6184Z" fill="#0A6267"/>
<path d="M60.6294 64.6184H42.2758C41.4069 64.6184 40.7025 65.3228 40.7025 66.1917V66.1979C40.7025 67.0669 41.4069 67.7713 42.2758 67.7713H60.6294C61.4983 67.7713 62.2027 67.0669 62.2027 66.1979V66.1917C62.2027 65.3228 61.4983 64.6184 60.6294 64.6184Z" fill="#36AEB4"/>
<path d="M52.2671 61.2302H50.638C50.0154 61.2302 49.5107 61.735 49.5107 62.3576V65.4175C49.5107 66.0402 50.0154 66.5449 50.638 66.5449H52.2671C52.8897 66.5449 53.3945 66.0402 53.3945 65.4175V62.3576C53.3945 61.735 52.8897 61.2302 52.2671 61.2302Z" fill="#0A6267"/>
</g>
<defs>
<clipPath id="clip0_6418_60432">
<rect width="100" height="100" fill="white"/>
</clipPath>
</defs>
</svg>
