<svg width="100" height="100" viewBox="0 0 100 100" fill="none" xmlns="http://www.w3.org/2000/svg">
<g clip-path="url(#clip0_6418_60223)">
<path d="M75.5327 76.8085H24.4673C24.1543 76.8204 23.8491 76.7089 23.6174 76.4981C23.3858 76.2873 23.2461 75.9939 23.2285 75.6812C23.2445 75.3679 23.3837 75.0736 23.6157 74.8624C23.8478 74.6513 24.1539 74.5404 24.4673 74.5538H75.5327C75.8462 74.5404 76.1522 74.6513 76.3843 74.8624C76.6163 75.0736 76.7555 75.3679 76.7716 75.6812C76.7539 75.9939 76.6143 76.2873 76.3826 76.4981C76.1509 76.7089 75.8457 76.8204 75.5327 76.8085Z" fill="#AEDFFF"/>
<path d="M38.7451 37.3267H33.164C32.1754 37.3267 31.3739 38.1281 31.3739 39.1168V73.8913C31.3739 74.88 32.1754 75.6815 33.164 75.6815H38.7451C39.7337 75.6815 40.5352 74.88 40.5352 73.8913V39.1168C40.5352 38.1281 39.7337 37.3267 38.7451 37.3267Z" fill="#0A6267"/>
<path d="M41.8422 37.3267H36.2612C35.2725 37.3267 34.471 38.1281 34.471 39.1168V73.8913C34.471 74.88 35.2725 75.6815 36.2612 75.6815H41.8422C42.8309 75.6815 43.6323 74.88 43.6323 73.8913V39.1168C43.6323 38.1281 42.8309 37.3267 41.8422 37.3267Z" fill="#1A8086"/>
<path d="M43.1987 39.9778H27.6821C26.2487 39.9778 25.0867 41.1398 25.0867 42.5732V73.0861C25.0867 74.5195 26.2487 75.6814 27.6821 75.6814H43.1987C44.6321 75.6814 45.7941 74.5195 45.7941 73.0861V42.5732C45.7941 41.1398 44.6321 39.9778 43.1987 39.9778Z" fill="#0A6267"/>
<path d="M46.8038 39.9778H31.2872C29.8538 39.9778 28.6918 41.1398 28.6918 42.5732V73.0861C28.6918 74.5195 29.8538 75.6814 31.2872 75.6814H46.8038C48.2372 75.6814 49.3992 74.5195 49.3992 73.0861V42.5732C49.3992 41.1398 48.2372 39.9778 46.8038 39.9778Z" fill="#36AEB4"/>
<path d="M46.5436 67.3191H31.5474C30.74 67.3191 30.0855 67.9736 30.0855 68.7809V72.8568C30.0855 73.6641 30.74 74.3186 31.5474 74.3186H46.5436C47.351 74.3186 48.0055 73.6641 48.0055 72.8568V68.7809C48.0055 67.9736 47.351 67.3191 46.5436 67.3191Z" fill="#F5E66C"/>
<path d="M65.2441 23.1912H59.663C58.6744 23.1912 57.8729 23.9926 57.8729 24.9813V59.7558C57.8729 60.7445 58.6744 61.546 59.663 61.546H65.2441C66.2327 61.546 67.0342 60.7445 67.0342 59.7558V24.9813C67.0342 23.9926 66.2327 23.1912 65.2441 23.1912Z" fill="#0A6267"/>
<path d="M68.3412 23.1912H62.7602C61.7715 23.1912 60.97 23.9926 60.97 24.9813V59.7558C60.97 60.7445 61.7715 61.546 62.7602 61.546H68.3412C69.3299 61.546 70.1313 60.7445 70.1313 59.7558V24.9813C70.1313 23.9926 69.3299 23.1912 68.3412 23.1912Z" fill="#1A8086"/>
<path d="M69.7039 25.8362H54.1873C52.7539 25.8362 51.5919 26.9982 51.5919 28.4316V58.9445C51.5919 60.3779 52.7539 61.5398 54.1873 61.5398H69.7039C71.1373 61.5398 72.2993 60.3779 72.2993 58.9445V28.4316C72.2993 26.9982 71.1373 25.8362 69.7039 25.8362Z" fill="#0A6267"/>
<path d="M73.309 25.8362H57.7924C56.359 25.8362 55.197 26.9982 55.197 28.4316V58.9445C55.197 60.3779 56.359 61.5398 57.7924 61.5398H73.309C74.7423 61.5398 75.9043 60.3779 75.9043 58.9445V28.4316C75.9043 26.9982 74.7423 25.8362 73.309 25.8362Z" fill="#36AEB4"/>
<path d="M73.0488 53.1838H58.0525C57.2452 53.1838 56.5907 53.8383 56.5907 54.6457V58.7215C56.5907 59.5289 57.2452 60.1833 58.0525 60.1833H73.0488C73.8562 60.1833 74.5107 59.5289 74.5107 58.7215V54.6457C74.5107 53.8383 73.8562 53.1838 73.0488 53.1838Z" fill="#F5E66C"/>
<path d="M73.0488 44.5552H58.0525C57.2452 44.5552 56.5907 45.2097 56.5907 46.017V50.0928C56.5907 50.9002 57.2452 51.5547 58.0525 51.5547H73.0488C73.8562 51.5547 74.5107 50.9002 74.5107 50.0928V46.017C74.5107 45.2097 73.8562 44.5552 73.0488 44.5552Z" fill="#F5E66C"/>
<path d="M73.0488 35.9268H58.0525C57.2452 35.9268 56.5907 36.5812 56.5907 37.3886V41.4644C56.5907 42.2718 57.2452 42.9263 58.0525 42.9263H73.0488C73.8562 42.9263 74.5107 42.2718 74.5107 41.4644V37.3886C74.5107 36.5812 73.8562 35.9268 73.0488 35.9268Z" fill="#F5E66C"/>
<path d="M73.0488 27.2981H58.0525C57.2452 27.2981 56.5907 27.9526 56.5907 28.7599V32.8358C56.5907 33.6431 57.2452 34.2976 58.0525 34.2976H73.0488C73.8562 34.2976 74.5107 33.6431 74.5107 32.8358V28.7599C74.5107 27.9526 73.8562 27.2981 73.0488 27.2981Z" fill="#F5E66C"/>
<path d="M64.7113 73.6001H53.4502C53.1216 73.6001 52.8065 73.4696 52.5742 73.2372C52.3418 73.0049 52.2113 72.6898 52.2113 72.3612C52.2113 72.0327 52.3418 71.7176 52.5742 71.4852C52.8065 71.2529 53.1216 71.1224 53.4502 71.1224H64.7113C65.8197 71.1207 66.8822 70.6797 67.666 69.896C68.4498 69.1122 68.8908 68.0497 68.8924 66.9413V65.0396C68.8924 64.7111 69.0229 64.396 69.2553 64.1636C69.4876 63.9313 69.8027 63.8008 70.1313 63.8008C70.4598 63.8008 70.7749 63.9313 71.0073 64.1636C71.2396 64.396 71.3701 64.7111 71.3701 65.0396V66.9537C71.3636 68.7165 70.6595 70.4051 69.4118 71.6505C68.1641 72.8959 66.4742 73.5968 64.7113 73.6001Z" fill="#0A6267"/>
<path d="M51.7405 72.8507L54.2182 75.1983C54.3137 75.2858 54.4325 75.3438 54.5603 75.3651C54.6881 75.3865 54.8193 75.3702 54.938 75.3184C55.0568 75.2666 55.1579 75.1814 55.2291 75.0732C55.3004 74.965 55.3387 74.8385 55.3394 74.7089V69.9951C55.3403 69.8649 55.3027 69.7373 55.2315 69.6282C55.1603 69.5192 55.0585 69.4335 54.9389 69.382C54.8193 69.3304 54.6872 69.3153 54.559 69.3384C54.4308 69.3615 54.3123 69.4219 54.2182 69.512L51.7405 71.8596C51.6705 71.9218 51.6145 71.9981 51.5761 72.0835C51.5377 72.1689 51.5179 72.2615 51.5179 72.3551C51.5179 72.4488 51.5377 72.5413 51.5761 72.6267C51.6145 72.7122 51.6705 72.7885 51.7405 72.8507Z" fill="#0A6267"/>
<path d="M29.7324 35.5363C29.4039 35.5363 29.0888 35.4058 28.8564 35.1735C28.6241 34.9411 28.4936 34.626 28.4936 34.2975V32.3834C28.4969 30.6163 29.2012 28.9226 30.4519 27.6742C31.7027 26.4258 33.3976 25.7246 35.1648 25.7246H46.4569C46.7855 25.7246 47.1006 25.8551 47.3329 26.0875C47.5653 26.3198 47.6958 26.6349 47.6958 26.9635C47.6958 27.292 47.5653 27.6071 47.3329 27.8395C47.1006 28.0718 46.7855 28.2023 46.4569 28.2023H35.1648C34.6149 28.2015 34.0703 28.309 33.5619 28.5187C33.0536 28.7284 32.5915 29.0361 32.2021 29.4244C31.8127 29.8126 31.5036 30.2738 31.2924 30.7815C31.0812 31.2892 30.9721 31.8335 30.9713 32.3834V34.2975C30.9713 34.626 30.8408 34.9411 30.6084 35.1735C30.3761 35.4058 30.061 35.5363 29.7324 35.5363Z" fill="#0A6267"/>
<path d="M48.1356 26.4804L45.6579 24.1328C45.5638 24.0427 45.4453 23.9824 45.3171 23.9593C45.1889 23.9361 45.0568 23.9513 44.9372 24.0028C44.8176 24.0544 44.7158 24.14 44.6446 24.2491C44.5733 24.3581 44.5358 24.4857 44.5367 24.616V29.3174C44.5358 29.4476 44.5733 29.5752 44.6446 29.6843C44.7158 29.7933 44.8176 29.879 44.9372 29.9305C45.0568 29.9821 45.1889 29.9972 45.3171 29.9741C45.4453 29.951 45.5638 29.8906 45.6579 29.8005L48.1356 27.4529C48.2025 27.3909 48.256 27.3157 48.2925 27.232C48.3291 27.1483 48.348 27.058 48.348 26.9667C48.348 26.8754 48.3291 26.785 48.2925 26.7014C48.256 26.6177 48.2025 26.5425 48.1356 26.4804Z" fill="#0A6267"/>
</g>
<defs>
<clipPath id="clip0_6418_60223">
<rect width="100" height="100" fill="white"/>
</clipPath>
</defs>
</svg>
